<svg xmlns="http://www.w3.org/2000/svg" viewBox="0 0 450 407" enable-background="new 0 0 450 407"><path fill="#5EA9DD" d="M450 62.6c-16.2 7.2-34.2 12.6-53.1 14.4 18.9-11.7 33.3-29.7 40.5-51.3-18 10.8-37.8 18-58.5 22.5-17.1-18-40.5-29.7-67.5-29.7-51.3 0-92.7 41.4-92.7 93.6 0 7.2.9 14.4 2.7 21.6-76.5-4.5-144.9-41.4-189.9-98.1-8.1 13.5-12.6 29.7-12.6 46.8 0 32.4 16.2 61.2 41.4 77.4-15.3 0-29.7-4.5-42.3-11.7 0 .9 0 .9 0 .9 0 45 31.5 82.8 73.8 90.9-8.1 1.8-16.2 3.6-24.3 3.6-6.3 0-11.7-.9-17.1-1.8 11.7 36.9 45.9 63.9 86.4 64.8C105.3 331.7 65.7 347 21.6 347c-7.2 0-14.4 0-21.6-.9 40.5 26.1 89.1 42.3 141.3 42.3 170.1 0 262.8-142.2 262.8-264.7 0-3.6 0-8.1 0-11.7 18-14.3 33.3-31.4 45.9-49.4z"/></svg>