<?xml version="1.0" standalone="yes"?><svg version="1.1" xmlns = 'http://www.w3.org/2000/svg'><defs><font id='web' horiz-adv-x="1000">
<font-face font-family="web" descent="-410" cap-height="1434" units-per-em="2048" bbox="-358,-467,2757,2144" x-height="1024" ascent="1638" />
<missing-glyph horiz-adv-x="991" d="M 0 1389 L 991 1389 L 991 0 L 0 0 L 0 1389 Z M 152 129 L 840 129 L 840 1260 L 152 1260 L 152 129 Z" /><glyph horiz-adv-x="1020" d="M 885 635 L 858 512 L 135 512 L 162 635 L 885 635 Z" unicode="–" />
<glyph horiz-adv-x="2044" d="M 1909 635 L 1882 512 L 135 512 L 162 635 L 1909 635 Z" unicode="—" />
<glyph horiz-adv-x="477" d="M 160 928 L 408 1389 L 537 1389 L 346 928 L 160 928 Z" unicode="‘" />
<glyph horiz-adv-x="467" d="M 547 1389 L 299 928 L 170 928 L 360 1389 L 547 1389 Z" unicode="’" />
<glyph horiz-adv-x="477" d="M 342 221 L 92 -240 L -35 -240 L 154 221 L 342 221 Z" unicode="‚" />
<glyph horiz-adv-x="848" d="M 160 928 L 408 1389 L 537 1389 L 346 928 L 160 928 Z M 530 928 L 778 1389 L 905 1389 L 717 928 L 530 928 Z" unicode="“" />
<glyph horiz-adv-x="836" d="M 918 1389 L 668 928 L 541 928 L 729 1389 L 918 1389 Z M 547 1389 L 299 928 L 170 928 L 360 1389 L 547 1389 Z" unicode="”" />
<glyph horiz-adv-x="840" d="M 705 221 L 463 -240 L 334 -240 L 518 221 L 705 221 Z M 334 221 L 92 -240 L -37 -240 L 147 221 L 334 221 Z" unicode="„" />
<glyph horiz-adv-x="410" d="" unicode=" " />
<glyph horiz-adv-x="545" d="M 541 1389 L 299 461 L 188 461 L 344 1389 L 541 1389 Z M 287 223 L 240 0 L 51 0 L 100 223 L 287 223 Z" unicode="!" />
<glyph horiz-adv-x="772" d="M 475 1389 L 307 928 L 195 928 L 295 1389 L 475 1389 Z M 827 1389 L 659 928 L 547 928 L 647 1389 L 827 1389 Z" unicode="&#x22;" />
<glyph horiz-adv-x="1565" d="M 1366 1389 L 1231 969 L 1524 969 L 1495 840 L 1188 840 L 1049 403 L 1419 403 L 1393 274 L 1006 274 L 870 -147 L 748 -147 L 883 274 L 467 274 L 332 -147 L 207 -147 L 342 274 L 53 274 L 82 403 L 385 403 L 524 840 L 158 840 L 186 969 L 567 969 L 702 1389 L 825 1389 L 690 969 L 1106 969 L 1241 1389 L 1366 1389 Z M 508 403 L 924 403 L 1065 840 L 649 840 L 508 403 Z" unicode="#" />
<glyph horiz-adv-x="1036" d="M 813 1552 L 762 1315 C 796 1309 832 1302 868 1294 C 904 1286 939 1276 973 1264 L 942 1124 C 917 1134 891 1144 864 1153 C 837 1161 810 1169 782 1175 C 754 1181 728 1185 702 1189 C 676 1192 651 1194 629 1194 C 591 1194 555 1189 521 1180 C 487 1171 458 1158 432 1141 C 406 1123 386 1102 372 1077 C 357 1051 350 1022 350 989 C 350 959 356 932 368 910 C 380 888 397 868 417 851 C 437 833 459 818 484 804 C 508 790 533 778 559 766 L 627 733 C 661 717 694 698 728 678 C 761 658 791 634 817 607 C 843 579 865 547 881 511 C 897 475 905 433 905 385 C 905 331 894 283 874 239 C 854 195 825 156 788 124 C 751 91 706 65 654 45 C 602 25 544 14 481 10 L 430 -236 L 289 -236 L 342 14 C 318 16 294 19 269 23 C 243 27 218 32 192 38 C 166 44 140 52 114 62 C 88 71 63 82 39 96 L 74 236 C 102 219 133 205 165 193 C 197 181 230 171 262 163 C 294 155 325 149 356 145 C 386 141 414 139 440 139 C 484 139 524 144 562 154 C 600 164 632 179 660 199 C 687 219 708 243 724 271 C 740 299 748 332 748 369 C 748 400 742 428 730 452 C 718 476 702 498 682 517 C 662 536 639 553 613 569 C 587 584 561 598 535 612 L 471 643 C 427 663 389 685 355 707 C 321 729 293 754 270 780 C 247 806 229 836 217 868 C 205 900 199 937 199 979 C 199 1032 209 1080 231 1123 C 252 1165 282 1202 320 1232 C 358 1262 402 1285 454 1301 C 506 1317 562 1326 623 1327 L 672 1552 L 813 1552 Z" unicode="$" />
<glyph horiz-adv-x="1896" d="M 1382 -14 C 1332 -14 1288 -5 1251 12 C 1213 30 1182 54 1157 85 C 1132 115 1113 151 1101 193 C 1089 234 1083 278 1083 326 C 1083 362 1086 400 1094 439 C 1102 477 1113 515 1129 551 C 1144 587 1163 621 1186 653 C 1209 685 1236 713 1266 737 C 1296 761 1329 780 1367 794 C 1405 808 1446 815 1491 815 C 1538 815 1580 807 1618 791 C 1656 775 1688 752 1714 723 C 1740 693 1761 658 1775 617 C 1789 576 1796 531 1796 481 C 1796 444 1792 406 1784 367 C 1776 328 1765 290 1749 254 C 1733 217 1714 182 1691 150 C 1668 118 1641 89 1611 65 C 1580 41 1545 21 1507 7 C 1469 -6 1427 -14 1382 -14 Z M 1391 109 C 1421 109 1449 114 1474 126 C 1498 138 1520 153 1540 173 C 1559 192 1576 214 1590 240 C 1604 265 1615 291 1624 319 C 1633 347 1640 374 1644 402 C 1648 429 1651 455 1651 479 C 1651 506 1648 532 1643 558 C 1637 584 1628 607 1615 627 C 1602 647 1585 663 1564 675 C 1543 687 1517 694 1485 694 C 1454 694 1426 688 1402 676 C 1378 664 1356 649 1337 629 C 1318 609 1302 587 1288 562 C 1274 536 1262 510 1253 482 C 1244 454 1237 427 1233 400 C 1229 372 1227 347 1227 324 C 1227 298 1229 273 1235 247 C 1240 221 1249 198 1261 178 C 1273 158 1290 141 1311 128 C 1332 115 1359 109 1391 109 Z M 1319 1341 L 1458 1341 L 610 0 L 471 0 L 1319 1341 Z M 434 535 C 384 535 340 543 302 561 C 264 578 233 602 209 633 C 184 663 165 699 153 740 C 141 780 135 824 135 872 C 135 908 138 946 146 985 C 154 1023 165 1061 181 1097 C 196 1133 215 1168 238 1200 C 260 1232 287 1260 317 1284 C 347 1308 381 1327 419 1341 C 457 1355 498 1362 543 1362 C 590 1362 632 1354 670 1338 C 708 1322 740 1299 766 1270 C 792 1241 813 1206 827 1165 C 841 1123 848 1078 848 1028 C 848 991 844 953 836 915 C 828 876 817 838 801 802 C 785 765 766 730 743 698 C 720 666 693 637 663 613 C 632 589 597 570 559 556 C 521 542 479 535 434 535 Z M 442 655 C 488 655 527 667 560 692 C 593 717 620 748 641 786 C 662 824 677 864 687 908 C 697 951 702 991 702 1028 C 702 1054 699 1080 694 1106 C 688 1132 679 1155 667 1175 C 654 1195 637 1211 616 1223 C 595 1235 569 1241 537 1241 C 507 1241 479 1235 455 1223 C 430 1211 408 1196 389 1176 C 370 1156 354 1134 340 1109 C 326 1083 314 1057 305 1029 C 296 1001 289 974 285 946 C 281 918 279 893 279 870 C 279 844 281 819 286 794 C 291 768 300 745 313 725 C 325 704 342 687 363 674 C 383 661 410 655 442 655 Z" unicode="%" />
<glyph horiz-adv-x="1376" d="M 1053 0 L 922 180 C 848 120 772 72 692 36 C 612 0 530 -18 446 -18 C 398 -18 353 -11 309 1 C 265 13 226 33 192 59 C 158 85 130 119 110 160 C 90 200 80 249 80 305 C 80 363 91 414 113 460 C 135 506 165 547 203 583 C 241 619 285 650 335 678 C 385 706 439 730 496 752 C 480 771 466 792 452 814 C 438 836 425 859 414 884 C 402 908 393 934 387 961 C 380 988 377 1017 377 1047 C 377 1095 386 1139 406 1178 C 425 1216 451 1249 484 1276 C 516 1303 554 1324 598 1338 C 641 1352 687 1360 735 1360 C 775 1360 815 1354 854 1342 C 893 1330 928 1313 958 1289 C 988 1265 1013 1236 1031 1201 C 1049 1166 1059 1125 1059 1079 C 1059 1028 1048 983 1026 945 C 1004 907 975 873 941 844 C 907 815 869 790 827 770 C 785 749 745 731 705 717 L 952 379 C 1002 431 1048 485 1092 543 C 1136 601 1176 659 1212 717 L 1356 686 C 1310 616 1259 545 1204 475 C 1149 404 1090 338 1028 276 L 1235 0 L 1053 0 Z M 467 104 C 529 104 592 120 656 152 C 720 184 784 227 846 281 L 563 664 C 525 648 486 631 447 611 C 407 591 372 567 340 540 C 308 513 281 482 261 447 C 241 412 231 372 231 328 C 231 296 236 267 248 240 C 259 212 275 189 295 169 C 315 149 340 133 369 121 C 398 109 431 104 467 104 Z M 526 1057 C 526 1035 529 1014 535 992 C 541 970 550 949 560 928 C 570 907 583 886 597 865 C 611 844 625 823 641 803 C 669 813 699 825 732 839 C 764 853 795 871 823 892 C 851 913 874 938 892 967 C 910 995 920 1029 920 1067 C 920 1095 914 1120 904 1142 C 894 1164 880 1182 862 1198 C 844 1214 824 1226 801 1234 C 778 1242 754 1247 729 1247 C 703 1247 677 1242 653 1234 C 629 1225 607 1212 588 1196 C 569 1179 554 1159 543 1136 C 531 1112 526 1086 526 1057 Z" unicode="&#x26;" />
<glyph horiz-adv-x="420" d="M 475 1389 L 307 928 L 195 928 L 295 1389 L 475 1389 Z" unicode="'" />
<glyph horiz-adv-x="647" d="M 807 1389 C 727 1335 652 1270 583 1195 C 514 1119 454 1036 403 944 C 352 852 312 754 283 648 C 254 542 240 433 240 319 C 240 239 246 167 258 101 C 270 35 285 -22 302 -73 C 319 -123 336 -166 353 -201 C 370 -236 383 -262 393 -279 L 236 -279 C 223 -257 208 -227 190 -189 C 172 -150 154 -104 138 -51 C 121 1 107 60 95 126 C 83 192 78 262 78 338 C 78 446 91 551 118 651 C 144 751 182 845 230 934 C 278 1023 335 1106 401 1182 C 467 1258 539 1327 618 1389 L 807 1389 Z" unicode="(" />
<glyph horiz-adv-x="643" d="M -174 -279 C -94 -225 -19 -160 49 -85 C 118 -9 178 73 229 165 C 280 257 320 355 349 461 C 378 567 393 677 393 791 C 393 869 386 941 374 1007 C 361 1073 346 1131 330 1182 C 313 1233 296 1276 279 1311 C 261 1345 248 1371 240 1389 L 397 1389 C 409 1367 424 1337 442 1298 C 460 1259 477 1213 494 1160 C 510 1106 525 1047 537 981 C 549 915 555 845 555 770 C 555 662 541 558 515 458 C 488 358 451 263 403 175 C 355 86 298 3 232 -73 C 166 -149 93 -218 14 -279 L -174 -279 Z" unicode=")" />
<glyph horiz-adv-x="928" d="M 213 1425 L 485 1266 L 545 1585 L 674 1556 L 598 1241 L 913 1278 L 930 1151 L 608 1130 L 741 838 L 625 793 L 504 1081 L 281 864 L 188 954 L 430 1167 L 143 1319 L 213 1425 Z" unicode="*" />
<glyph horiz-adv-x="1106" d="M 623 1122 L 623 649 L 1092 649 L 1092 516 L 623 516 L 623 41 L 479 41 L 479 516 L 12 516 L 12 649 L 479 649 L 479 1122 L 623 1122 Z" unicode="+" />
<glyph horiz-adv-x="477" d="M 326 223 L 41 -272 L -96 -272 L 127 223 L 326 223 Z" unicode="," />
<glyph horiz-adv-x="754" d="M 625 647 L 594 502 L 129 502 L 160 647 L 625 647 Z" unicode="-" />
<glyph horiz-adv-x="459" d="M 262 223 L 215 0 L 27 0 L 74 223 L 262 223 Z" unicode="." />
<glyph horiz-adv-x="766" d="M 848 1389 L 59 -279 L -96 -279 L 688 1389 L 848 1389 Z" unicode="/" />
<glyph horiz-adv-x="1237" d="M 1145 825 C 1145 765 1139 702 1128 637 C 1117 571 1100 507 1078 445 C 1056 382 1028 322 994 266 C 960 210 921 160 876 118 C 831 76 780 42 723 17 C 666 -7 603 -20 535 -20 C 461 -20 399 -6 347 22 C 295 50 252 88 219 137 C 185 185 161 242 146 308 C 130 373 123 443 123 518 C 123 578 128 641 139 706 C 150 771 167 835 189 897 C 211 959 238 1019 272 1075 C 305 1131 344 1180 389 1222 C 434 1264 485 1298 541 1323 C 597 1347 660 1360 729 1360 C 797 1360 858 1346 910 1320 C 962 1294 1005 1257 1040 1209 C 1074 1161 1100 1105 1118 1040 C 1136 974 1145 903 1145 825 Z M 981 825 C 981 877 976 927 967 975 C 958 1023 943 1065 923 1101 C 902 1137 875 1166 842 1188 C 808 1210 767 1221 719 1221 C 668 1221 622 1209 581 1187 C 539 1165 503 1135 471 1098 C 439 1061 411 1018 388 970 C 365 922 346 871 331 819 C 316 767 305 714 298 662 C 290 610 287 561 287 516 C 287 466 291 417 300 369 C 308 321 323 279 343 243 C 363 206 390 176 424 154 C 457 132 498 121 547 121 C 598 121 644 132 686 154 C 727 176 764 205 796 242 C 828 278 855 321 879 369 C 902 417 921 468 936 520 C 951 572 962 624 970 677 C 977 729 981 779 981 825 Z" unicode="0" />
<glyph horiz-adv-x="686" d="M 449 1176 L 168 1077 L 168 1212 L 555 1341 L 643 1341 L 356 0 L 201 0 L 449 1176 Z" unicode="1" />
<glyph horiz-adv-x="1059" d="M 213 1264 C 231 1276 251 1288 274 1300 C 297 1312 323 1322 351 1331 C 379 1339 409 1346 441 1352 C 473 1357 508 1360 545 1360 C 597 1360 649 1353 699 1341 C 749 1329 794 1309 834 1281 C 873 1253 905 1216 929 1172 C 953 1128 965 1074 965 1010 C 965 947 953 890 930 838 C 906 786 875 735 835 687 C 795 639 748 591 694 543 C 640 495 582 445 522 391 L 227 133 L 864 133 L 834 0 L 2 0 L 25 111 L 446 489 C 501 539 550 584 594 625 C 638 665 675 705 705 743 C 735 781 759 819 775 857 C 791 895 799 937 799 983 C 799 1024 792 1060 779 1091 C 766 1122 747 1148 723 1168 C 699 1188 670 1204 636 1214 C 602 1224 564 1229 522 1229 C 461 1229 404 1220 350 1202 C 296 1184 250 1161 213 1135 L 213 1264 Z" unicode="2" />
<glyph horiz-adv-x="1073" d="M 250 1280 C 290 1300 337 1319 392 1335 C 447 1351 508 1360 575 1360 C 619 1360 664 1355 710 1346 C 756 1337 797 1322 835 1300 C 873 1278 903 1248 927 1212 C 951 1175 963 1129 963 1073 C 963 1027 954 985 938 947 C 921 908 898 873 868 843 C 838 813 803 788 763 768 C 722 748 678 734 631 727 L 631 723 C 665 714 698 701 730 685 C 761 668 789 647 813 621 C 837 595 856 563 870 527 C 884 491 891 449 891 401 C 891 333 877 274 849 222 C 821 170 784 126 737 90 C 689 54 634 26 570 8 C 506 -10 439 -20 367 -20 C 309 -20 249 -13 187 1 C 125 15 64 40 6 76 L 43 211 C 63 198 87 186 113 174 C 139 162 166 151 195 142 C 224 132 254 125 286 119 C 318 113 350 111 383 111 C 427 111 470 116 512 128 C 554 140 590 157 622 181 C 654 204 679 233 698 269 C 717 304 727 345 727 393 C 727 443 716 485 696 519 C 675 553 648 580 615 601 C 582 621 545 636 505 645 C 464 654 423 659 383 659 L 289 659 L 305 791 L 424 788 C 447 787 472 788 500 792 C 527 795 555 801 583 809 C 611 817 638 827 664 841 C 690 854 713 870 733 890 C 753 910 769 933 781 959 C 793 985 799 1016 799 1051 C 799 1085 792 1114 780 1137 C 767 1159 750 1177 729 1191 C 707 1204 683 1213 655 1219 C 627 1224 597 1227 567 1227 C 535 1227 504 1224 474 1220 C 444 1216 416 1210 390 1203 C 364 1195 339 1187 316 1178 C 293 1168 272 1159 254 1149 L 250 1280 Z" unicode="3" />
<glyph horiz-adv-x="1159" d="M 815 324 L 745 0 L 588 0 L 657 324 L 14 324 L 41 430 L 829 1339 L 1032 1339 L 840 444 L 1061 444 L 1032 324 L 815 324 Z M 197 444 L 682 444 L 844 1182 L 836 1182 L 197 444 Z" unicode="4" />
<glyph horiz-adv-x="1096" d="M 205 709 L 358 1339 L 1040 1339 L 1014 1206 L 471 1206 L 375 815 C 409 830 445 841 483 848 C 520 854 556 858 592 858 C 648 858 699 849 745 832 C 791 814 830 789 864 756 C 897 723 923 683 941 636 C 959 588 969 535 969 475 C 969 405 956 340 931 279 C 905 218 869 165 822 120 C 774 75 717 40 650 14 C 582 -12 507 -25 424 -25 C 357 -25 289 -16 220 1 C 151 18 85 44 23 78 L 59 223 C 83 207 110 192 140 178 C 169 164 200 151 232 141 C 264 131 296 123 330 117 C 364 111 398 109 432 109 C 488 109 539 117 585 133 C 631 149 670 173 704 203 C 737 233 763 269 781 311 C 799 353 809 401 809 453 C 809 497 802 537 788 571 C 774 605 755 634 731 658 C 706 681 676 699 642 711 C 607 723 568 729 526 729 C 488 729 447 724 404 714 C 361 704 319 689 279 668 L 205 709 Z" unicode="5" />
<glyph horiz-adv-x="1180" d="M 1073 1145 C 1053 1157 1032 1169 1008 1179 C 984 1189 959 1198 933 1205 C 907 1212 882 1217 856 1221 C 830 1225 806 1227 784 1227 C 736 1227 692 1219 652 1204 C 611 1188 574 1167 540 1140 C 506 1113 476 1082 450 1046 C 423 1010 399 972 379 931 C 358 890 340 848 326 804 C 311 760 299 716 291 674 L 295 674 C 349 726 406 767 468 798 C 530 828 596 844 668 844 C 716 844 764 836 810 820 C 856 804 896 781 932 750 C 967 718 995 679 1017 632 C 1038 584 1049 529 1049 467 C 1049 400 1036 337 1012 278 C 988 219 954 167 911 123 C 868 79 817 44 758 18 C 699 -7 635 -20 565 -20 C 502 -20 443 -9 389 12 C 335 34 288 66 248 109 C 208 152 176 206 153 271 C 130 336 119 412 119 500 C 119 558 124 620 136 686 C 147 751 164 815 188 879 C 212 943 242 1004 278 1062 C 314 1120 357 1171 407 1215 C 457 1259 514 1294 578 1320 C 642 1346 713 1360 793 1360 C 822 1360 852 1358 882 1354 C 912 1350 940 1344 968 1337 C 996 1330 1021 1322 1045 1313 C 1068 1303 1088 1293 1104 1282 L 1073 1145 Z M 625 713 C 565 713 506 699 448 672 C 390 644 335 606 281 557 C 279 547 279 538 279 528 C 279 518 279 507 279 496 C 279 443 284 393 295 347 C 305 300 322 259 346 225 C 369 190 399 163 436 143 C 472 123 517 113 569 113 C 622 113 668 123 708 144 C 748 164 781 191 808 224 C 834 257 854 294 867 335 C 880 376 887 417 887 459 C 887 501 880 537 867 569 C 853 601 835 627 812 649 C 788 670 761 686 729 697 C 697 707 662 713 625 713 Z" unicode="6" />
<glyph horiz-adv-x="971" d="M 254 0 L 74 0 L 836 1206 L 184 1206 L 215 1339 L 1044 1339 L 1018 1229 L 254 0 Z" unicode="7" />
<glyph horiz-adv-x="1176" d="M 1100 1038 C 1100 991 1091 949 1073 911 C 1055 873 1030 839 1000 809 C 969 779 933 754 892 734 C 851 714 808 698 762 688 L 762 684 C 794 668 824 649 853 628 C 881 606 906 582 928 555 C 949 527 966 496 978 462 C 990 428 997 390 997 350 C 997 291 984 239 958 193 C 932 147 897 108 854 77 C 810 45 760 21 703 5 C 646 -11 586 -20 524 -20 C 490 -20 455 -17 419 -12 C 383 -7 349 0 316 12 C 282 23 251 37 222 55 C 192 73 167 94 145 120 C 123 145 105 174 93 208 C 80 241 74 279 74 322 C 74 378 85 428 107 472 C 129 515 159 552 196 584 C 232 616 274 642 321 663 C 368 684 417 701 467 713 L 467 717 C 400 751 348 794 311 846 C 274 897 256 955 256 1020 C 256 1070 267 1116 291 1158 C 314 1200 345 1236 385 1266 C 424 1296 469 1319 521 1335 C 573 1351 627 1360 684 1360 C 715 1360 747 1357 780 1352 C 812 1346 844 1338 875 1327 C 906 1316 935 1302 962 1285 C 989 1267 1013 1247 1033 1223 C 1053 1199 1070 1172 1082 1141 C 1094 1110 1100 1076 1100 1038 Z M 838 336 C 838 368 831 399 818 427 C 804 455 786 482 763 507 C 740 531 714 554 684 576 C 654 598 622 619 588 639 C 566 633 543 627 518 620 C 492 612 467 603 441 592 C 415 581 389 568 365 553 C 341 537 319 519 300 499 C 281 479 266 455 255 429 C 243 402 238 372 238 338 C 238 298 246 263 264 233 C 281 203 304 178 332 158 C 360 138 391 123 427 113 C 462 103 498 98 535 98 C 571 98 607 102 643 112 C 679 122 712 136 741 156 C 769 176 793 200 811 230 C 829 260 838 295 838 336 Z M 418 1030 C 418 1001 423 974 434 950 C 444 926 459 903 479 882 C 499 860 522 840 550 820 C 577 800 607 781 641 762 C 671 770 704 780 740 792 C 775 804 808 821 838 842 C 868 862 892 887 912 917 C 932 947 942 983 942 1026 C 942 1062 934 1094 919 1121 C 903 1148 883 1170 859 1188 C 834 1205 806 1218 776 1226 C 745 1234 714 1239 684 1239 C 654 1239 623 1235 591 1227 C 559 1219 531 1206 505 1189 C 479 1172 458 1150 442 1124 C 426 1098 418 1066 418 1030 Z" unicode="8" />
<glyph horiz-adv-x="1178" d="M 139 195 C 157 182 178 171 202 161 C 226 151 250 142 276 135 C 302 128 328 123 354 119 C 380 115 404 113 428 113 C 474 113 517 120 557 136 C 597 151 633 172 667 198 C 700 224 730 256 757 292 C 784 328 808 366 829 407 C 849 448 867 491 882 535 C 896 579 908 622 918 666 L 913 666 C 859 613 801 571 739 541 C 677 511 611 496 541 496 C 491 496 444 503 398 519 C 352 535 312 558 277 590 C 241 621 213 660 192 707 C 170 754 160 809 160 872 C 160 938 172 1001 196 1061 C 220 1120 254 1172 297 1216 C 340 1260 391 1295 451 1321 C 510 1347 575 1360 645 1360 C 707 1360 766 1349 820 1327 C 874 1305 922 1273 962 1230 C 1002 1187 1033 1133 1056 1069 C 1078 1004 1090 928 1090 842 C 1090 782 1084 720 1073 655 C 1061 589 1044 525 1021 461 C 997 397 967 336 931 278 C 895 220 852 168 802 124 C 752 80 696 45 632 19 C 568 -7 496 -20 418 -20 C 388 -20 357 -18 327 -14 C 297 -10 268 -5 240 1 C 212 8 187 16 163 26 C 139 35 120 45 104 57 L 139 195 Z M 586 627 C 644 627 703 640 761 667 C 819 694 875 732 928 782 C 929 792 930 802 930 812 C 930 822 930 833 930 846 C 930 898 924 947 913 993 C 902 1039 885 1080 861 1115 C 837 1149 807 1177 770 1197 C 733 1217 689 1227 637 1227 C 584 1227 538 1216 499 1196 C 459 1175 426 1148 400 1115 C 374 1082 354 1045 341 1004 C 328 963 322 923 322 883 C 322 841 328 804 341 772 C 354 740 372 713 396 692 C 419 670 447 654 479 643 C 511 632 547 627 586 627 Z" unicode="9" />
<glyph horiz-adv-x="483" d="M 424 989 L 377 766 L 188 766 L 236 989 L 424 989 Z M 262 223 L 215 0 L 27 0 L 74 223 L 262 223 Z" unicode=":" />
<glyph horiz-adv-x="573" d="M 455 989 L 408 766 L 219 766 L 268 989 L 455 989 Z M 375 223 L 90 -272 L -47 -272 L 176 223 L 375 223 Z" unicode=";" />
<glyph horiz-adv-x="1106" d="M 1051 1116 L 1051 956 L 381 653 L 233 592 L 233 569 L 381 516 L 1051 213 L 1051 53 L 53 535 L 53 629 L 1051 1116 Z" unicode="&#x3C;" />
<glyph horiz-adv-x="1106" d="M 1051 881 L 1051 750 L 53 750 L 53 881 L 1051 881 Z M 1051 414 L 1051 283 L 53 283 L 53 414 L 1051 414 Z" unicode="=" />
<glyph horiz-adv-x="1106" d="M 1051 629 L 1051 535 L 53 53 L 53 213 L 723 516 L 870 569 L 870 592 L 723 653 L 53 956 L 53 1116 L 1051 629 Z" unicode="&#x3E;" />
<glyph horiz-adv-x="907" d="M 350 223 L 303 0 L 115 0 L 162 223 L 350 223 Z M 217 1358 C 250 1375 291 1388 341 1396 C 390 1404 441 1409 494 1409 C 524 1409 556 1407 590 1404 C 623 1400 656 1394 688 1386 C 720 1378 750 1366 779 1352 C 807 1338 833 1319 855 1297 C 877 1275 894 1248 907 1217 C 919 1185 926 1149 926 1108 C 926 1060 917 1019 901 985 C 885 950 863 919 837 893 C 810 867 780 843 746 823 C 712 803 677 784 643 766 C 614 751 586 736 559 722 C 532 707 508 691 486 675 C 464 658 446 639 431 619 C 415 599 405 575 399 549 L 381 461 L 229 461 L 256 592 C 264 631 278 665 300 693 C 322 721 347 746 376 768 C 404 789 435 808 468 824 C 500 840 532 856 563 872 C 588 884 613 898 637 914 C 661 929 682 946 701 965 C 720 983 735 1004 747 1027 C 758 1050 764 1076 764 1106 C 764 1139 756 1166 741 1188 C 725 1210 705 1227 680 1240 C 655 1253 627 1262 595 1268 C 563 1273 531 1276 498 1276 C 448 1276 398 1271 349 1261 C 300 1251 257 1238 219 1221 L 217 1358 Z" unicode="?" />
<glyph horiz-adv-x="1853" d="M 1430 985 L 1188 420 C 1184 409 1180 398 1176 387 C 1172 375 1171 362 1171 348 C 1171 315 1180 292 1198 278 C 1216 264 1240 258 1270 258 C 1298 258 1327 264 1359 276 C 1390 288 1421 305 1452 328 C 1482 350 1511 378 1539 410 C 1567 442 1591 477 1612 517 C 1633 557 1650 600 1662 646 C 1674 692 1681 741 1681 793 C 1681 865 1668 932 1642 993 C 1616 1054 1578 1107 1529 1151 C 1480 1195 1421 1230 1351 1255 C 1281 1279 1202 1292 1114 1292 C 1039 1292 965 1282 892 1264 C 818 1246 749 1219 683 1185 C 617 1151 557 1109 501 1060 C 445 1010 396 955 355 893 C 314 831 282 764 259 691 C 236 618 225 541 225 459 C 225 389 233 325 250 268 C 267 210 291 159 321 113 C 351 67 387 28 428 -5 C 468 -38 512 -66 560 -88 C 607 -110 656 -127 708 -138 C 760 -148 812 -154 864 -154 C 908 -154 954 -150 1002 -143 C 1050 -136 1098 -127 1144 -116 C 1190 -104 1232 -92 1272 -78 C 1312 -64 1345 -51 1372 -37 L 1399 -135 C 1372 -150 1338 -166 1296 -182 C 1254 -198 1209 -212 1159 -225 C 1109 -238 1057 -249 1003 -257 C 949 -265 896 -270 844 -270 C 784 -270 724 -263 664 -251 C 604 -238 546 -219 490 -193 C 434 -167 381 -134 333 -95 C 284 -55 242 -9 206 44 C 170 98 141 158 121 226 C 100 293 90 368 90 451 C 90 545 103 635 130 719 C 157 803 194 880 242 951 C 290 1022 346 1086 412 1142 C 478 1198 549 1246 626 1286 C 702 1326 783 1356 869 1377 C 954 1398 1040 1409 1128 1409 C 1232 1409 1326 1394 1410 1364 C 1493 1334 1564 1292 1622 1239 C 1680 1185 1724 1122 1755 1048 C 1786 974 1802 894 1802 807 C 1802 742 1793 681 1777 623 C 1761 565 1739 511 1711 462 C 1683 413 1651 369 1614 330 C 1577 290 1538 257 1497 230 C 1455 202 1413 181 1369 167 C 1325 152 1283 145 1243 145 C 1215 145 1189 148 1165 156 C 1141 163 1120 174 1102 189 C 1084 204 1071 223 1061 245 C 1051 267 1047 292 1049 322 C 998 265 945 222 890 192 C 835 162 781 147 729 147 C 699 147 670 152 642 163 C 614 173 589 190 568 213 C 546 236 529 265 517 301 C 504 336 498 378 498 428 C 498 483 506 536 522 587 C 538 637 559 685 586 729 C 613 773 644 813 679 849 C 714 885 751 915 789 941 C 827 967 866 987 905 1001 C 944 1015 981 1022 1016 1022 C 1046 1022 1074 1016 1098 1006 C 1122 995 1142 981 1159 963 C 1176 945 1190 925 1201 902 C 1211 878 1219 854 1223 829 L 1292 985 L 1430 985 Z M 786 279 C 824 279 866 291 912 315 C 958 339 1005 378 1053 430 L 1165 694 C 1163 718 1159 742 1152 766 C 1144 790 1134 811 1120 829 C 1106 847 1090 862 1070 874 C 1050 885 1028 891 1004 891 C 970 891 933 880 892 859 C 850 838 812 809 776 771 C 740 733 709 687 685 634 C 661 581 649 523 649 459 C 649 427 652 399 659 376 C 666 353 676 334 688 320 C 700 306 715 295 732 289 C 748 282 766 279 786 279 Z" unicode="@" />
<glyph horiz-adv-x="1249" d="M 723 1389 L 874 1389 L 1100 0 L 934 0 L 872 393 L 328 393 L 115 0 L -66 0 L 723 1389 Z M 401 526 L 852 526 L 780 997 C 778 1009 776 1024 774 1040 C 772 1056 770 1073 768 1090 C 766 1107 764 1124 763 1140 C 761 1156 760 1171 760 1184 L 752 1184 C 746 1171 739 1156 731 1139 C 723 1122 714 1105 705 1088 C 696 1070 687 1054 679 1038 C 670 1022 663 1008 657 997 L 401 526 Z" unicode="A" />
<glyph horiz-adv-x="1190" d="M 1055 410 C 1055 331 1038 265 1005 212 C 972 159 927 116 871 84 C 815 52 749 29 673 15 C 597 1 517 -6 432 -6 C 404 -6 375 -5 345 -5 C 314 -4 283 -3 252 -2 C 220 0 190 0 160 2 C 130 4 102 6 78 8 L 371 1384 C 391 1385 413 1386 437 1388 C 461 1389 487 1390 513 1391 C 539 1392 565 1393 591 1394 C 617 1394 642 1395 666 1395 C 738 1395 803 1388 859 1375 C 915 1362 962 1343 1000 1317 C 1038 1291 1068 1259 1088 1221 C 1108 1182 1118 1137 1118 1085 C 1118 1041 1111 1000 1097 962 C 1083 923 1062 888 1035 857 C 1008 826 975 800 935 778 C 895 756 849 741 797 733 L 797 729 C 831 721 863 709 894 693 C 925 677 952 656 976 630 C 1000 604 1019 572 1033 536 C 1047 500 1055 458 1055 410 Z M 887 406 C 887 448 878 484 862 516 C 846 548 824 574 796 595 C 768 616 735 632 698 643 C 660 653 620 659 578 659 L 375 659 L 266 131 C 304 127 342 125 380 124 C 418 123 450 123 477 123 C 529 123 579 127 628 136 C 677 145 721 160 759 182 C 797 204 828 233 852 269 C 875 305 887 351 887 406 Z M 399 786 L 588 786 C 644 786 694 792 739 806 C 783 820 821 839 853 864 C 884 888 908 918 925 952 C 941 986 950 1023 950 1065 C 950 1129 927 1179 883 1214 C 839 1248 770 1266 678 1266 C 664 1266 647 1265 628 1265 C 609 1265 591 1264 573 1264 C 555 1263 539 1262 525 1262 C 511 1262 502 1262 498 1262 L 399 786 Z" unicode="B" />
<glyph horiz-adv-x="1249" d="M 1249 1176 C 1223 1192 1194 1205 1163 1217 C 1132 1228 1101 1237 1069 1245 C 1037 1253 1005 1258 974 1262 C 942 1266 913 1268 887 1268 C 797 1268 715 1249 643 1212 C 570 1175 508 1126 456 1064 C 404 1002 365 931 337 851 C 309 771 295 688 295 602 C 295 520 307 448 332 388 C 356 328 390 278 432 238 C 474 198 523 169 579 150 C 635 130 694 121 758 121 C 782 121 809 122 837 125 C 865 128 894 133 924 139 C 953 145 982 152 1010 162 C 1038 171 1063 182 1087 195 L 1087 47 C 1063 36 1036 26 1007 18 C 978 10 948 3 918 -2 C 887 -8 856 -12 825 -15 C 794 -18 765 -20 737 -20 C 651 -20 570 -6 496 21 C 422 48 357 88 303 140 C 248 192 205 257 174 333 C 142 409 127 496 127 594 C 127 664 135 732 151 800 C 167 868 191 932 222 992 C 253 1052 291 1108 336 1159 C 381 1210 432 1254 489 1291 C 546 1328 609 1357 677 1378 C 745 1398 819 1409 897 1409 C 927 1409 958 1407 992 1404 C 1026 1400 1060 1395 1094 1388 C 1128 1381 1161 1372 1194 1362 C 1227 1351 1258 1339 1286 1325 L 1249 1176 Z" unicode="C" />
<glyph horiz-adv-x="1391" d="M 365 1389 C 373 1389 386 1390 402 1391 C 418 1391 436 1392 456 1393 C 476 1394 496 1395 518 1396 C 540 1396 560 1397 580 1397 C 690 1397 790 1383 880 1357 C 970 1330 1046 1290 1110 1238 C 1174 1185 1223 1119 1258 1041 C 1293 963 1311 872 1311 770 C 1311 704 1303 640 1289 576 C 1275 512 1252 452 1222 395 C 1191 337 1152 284 1105 235 C 1058 186 1002 144 936 108 C 870 72 795 44 711 24 C 627 4 532 -6 428 -6 C 396 -6 362 -5 326 -4 C 290 -2 256 -1 224 0 C 191 2 161 3 135 5 C 109 6 90 7 78 8 L 365 1389 Z M 264 133 C 293 129 326 127 364 125 C 402 123 437 123 469 123 C 579 123 676 140 760 176 C 844 212 914 259 971 319 C 1028 379 1071 447 1101 524 C 1130 600 1145 680 1145 762 C 1145 847 1130 921 1100 985 C 1070 1049 1029 1102 979 1144 C 928 1186 869 1217 803 1238 C 737 1259 668 1270 596 1270 C 576 1270 558 1269 542 1269 C 525 1268 509 1267 494 1266 L 264 133 Z" unicode="D" />
<glyph horiz-adv-x="1106" d="M 1143 1389 L 1116 1255 L 500 1255 L 399 784 L 942 784 L 913 649 L 373 649 L 264 133 L 926 133 L 895 0 L 74 0 L 371 1389 L 1143 1389 Z" unicode="E" />
<glyph horiz-adv-x="1018" d="M 1124 1389 L 1094 1255 L 500 1255 L 399 780 L 891 780 L 862 647 L 371 647 L 233 0 L 74 0 L 371 1389 L 1124 1389 Z" unicode="F" />
<glyph horiz-adv-x="1409" d="M 805 743 L 1292 743 L 1143 25 C 1118 17 1091 10 1061 4 C 1031 -1 1001 -5 970 -9 C 939 -13 908 -15 878 -17 C 848 -19 820 -20 795 -20 C 696 -20 606 -7 524 18 C 442 44 372 82 313 134 C 254 186 208 250 176 327 C 143 404 127 494 127 598 C 127 674 136 746 154 816 C 172 886 197 951 231 1011 C 265 1071 306 1125 354 1174 C 402 1223 457 1265 517 1300 C 577 1334 643 1361 714 1380 C 785 1399 860 1409 940 1409 C 971 1409 1004 1407 1040 1404 C 1075 1401 1110 1397 1146 1391 C 1181 1385 1215 1377 1249 1369 C 1283 1361 1313 1351 1341 1341 L 1307 1196 C 1283 1208 1255 1218 1223 1227 C 1191 1236 1159 1244 1125 1250 C 1091 1256 1058 1260 1025 1263 C 991 1266 961 1268 934 1268 C 840 1268 753 1251 675 1217 C 597 1183 529 1137 473 1078 C 416 1018 372 948 340 867 C 308 786 293 698 293 604 C 293 522 305 450 329 389 C 353 327 387 276 431 236 C 475 196 528 165 591 145 C 653 125 723 115 801 115 C 818 115 837 115 857 116 C 877 117 896 118 915 120 C 934 122 952 124 968 126 C 984 128 998 130 1008 133 L 1104 608 L 774 608 L 805 743 Z" unicode="G" />
<glyph horiz-adv-x="1450" d="M 530 1389 L 399 784 L 1137 784 L 1268 1389 L 1425 1389 L 1128 0 L 971 0 L 1110 649 L 373 649 L 233 0 L 74 0 L 371 1389 L 530 1389 Z" unicode="H" />
<glyph horiz-adv-x="555" d="M 530 1389 L 233 0 L 74 0 L 371 1389 L 530 1389 Z" unicode="I" />
<glyph horiz-adv-x="918" d="M -23 209 C -5 192 15 178 37 167 C 59 156 82 147 106 140 C 130 133 154 128 178 125 C 202 122 224 121 246 121 C 284 121 320 126 352 136 C 384 146 413 164 439 188 C 465 212 487 243 507 283 C 526 323 542 372 555 430 L 758 1389 L 913 1389 L 709 410 C 692 334 669 270 641 216 C 613 162 579 117 540 82 C 501 47 457 21 409 5 C 360 -11 307 -20 250 -20 C 226 -20 200 -18 173 -16 C 145 -13 118 -8 91 -1 C 63 5 37 14 12 25 C -13 36 -36 50 -57 68 L -23 209 Z" unicode="J" />
<glyph horiz-adv-x="1245" d="M 1374 1389 L 684 827 L 1159 0 L 973 0 L 563 735 L 352 565 L 233 0 L 74 0 L 371 1389 L 530 1389 L 393 756 L 1157 1389 L 1374 1389 Z" unicode="K" />
<glyph horiz-adv-x="983" d="M 530 1389 L 264 133 L 870 133 L 840 0 L 74 0 L 371 1389 L 530 1389 Z" unicode="L" />
<glyph horiz-adv-x="1753" d="M 408 1389 L 604 1389 L 778 350 C 780 338 781 325 783 310 C 785 295 786 280 788 265 C 790 250 791 236 792 224 C 793 211 794 201 795 195 L 803 195 C 805 201 809 210 815 222 C 820 233 826 246 833 260 C 840 274 848 288 856 304 C 864 320 872 335 881 350 L 1493 1389 L 1692 1389 L 1477 0 L 1317 0 L 1460 889 C 1463 909 1467 935 1473 967 C 1479 999 1485 1031 1492 1063 C 1498 1095 1504 1124 1510 1151 C 1516 1178 1520 1198 1524 1210 L 1516 1210 C 1498 1176 1478 1135 1455 1085 C 1432 1035 1400 975 1360 907 L 823 0 L 682 0 L 530 907 C 524 938 520 969 517 1000 C 514 1030 512 1059 510 1086 C 508 1113 506 1137 506 1159 C 505 1180 504 1197 504 1210 L 496 1210 C 490 1186 485 1162 480 1139 C 475 1116 470 1092 465 1067 C 459 1041 453 1014 446 986 C 439 957 431 925 422 889 L 199 0 L 45 0 L 408 1389 Z" unicode="M" />
<glyph horiz-adv-x="1456" d="M 1274 1389 L 1432 1389 L 1137 0 L 995 0 L 471 1139 L 463 1139 C 457 1105 453 1076 449 1054 C 445 1031 442 1010 439 991 C 435 972 432 953 428 935 C 424 917 420 896 416 872 L 233 0 L 74 0 L 371 1389 L 514 1389 L 1038 250 L 1047 250 C 1051 282 1055 309 1059 332 C 1062 355 1065 376 1068 395 C 1071 414 1074 433 1078 452 C 1082 470 1086 492 1092 516 L 1274 1389 Z" unicode="N" />
<glyph horiz-adv-x="1483" d="M 680 121 C 734 121 786 129 836 147 C 885 165 930 189 972 221 C 1014 252 1051 289 1085 332 C 1118 374 1146 421 1170 472 C 1193 523 1211 577 1224 634 C 1236 690 1243 748 1243 807 C 1243 873 1234 935 1218 991 C 1201 1047 1176 1096 1143 1137 C 1110 1178 1069 1210 1021 1233 C 972 1256 916 1268 852 1268 C 796 1268 744 1259 694 1241 C 644 1223 599 1199 557 1168 C 515 1136 478 1099 445 1056 C 411 1013 383 966 360 916 C 337 865 319 811 307 755 C 295 699 289 642 289 584 C 289 517 297 455 314 399 C 330 342 355 293 388 252 C 420 211 461 179 510 156 C 558 132 615 121 680 121 Z M 676 -20 C 588 -20 510 -4 442 26 C 374 57 316 100 269 154 C 221 208 185 271 160 345 C 135 418 123 497 123 582 C 123 650 131 717 147 785 C 163 852 186 916 216 978 C 246 1039 282 1096 325 1149 C 368 1201 417 1247 472 1285 C 526 1323 586 1354 651 1376 C 715 1398 784 1409 858 1409 C 944 1409 1022 1393 1090 1362 C 1158 1331 1215 1289 1263 1235 C 1310 1181 1346 1117 1371 1044 C 1396 970 1409 891 1409 807 C 1409 738 1401 670 1385 602 C 1369 534 1346 470 1316 409 C 1286 348 1249 291 1206 239 C 1162 186 1113 140 1059 102 C 1005 64 945 34 881 12 C 817 -9 748 -20 676 -20 Z" unicode="O" />
<glyph horiz-adv-x="1106" d="M 76 0 L 367 1384 C 385 1385 405 1386 428 1388 C 451 1389 475 1390 499 1391 C 523 1392 548 1393 572 1394 C 596 1394 617 1395 637 1395 C 801 1395 925 1363 1009 1299 C 1093 1235 1135 1142 1135 1022 C 1135 946 1120 879 1091 823 C 1062 767 1022 720 972 684 C 922 647 863 620 796 602 C 728 584 656 575 580 575 C 560 575 540 575 519 576 C 497 576 477 577 457 579 C 437 580 418 581 401 582 C 383 583 368 584 356 586 L 233 0 L 76 0 Z M 383 713 C 395 712 409 711 425 711 C 441 710 457 709 474 709 C 491 708 508 707 525 707 C 542 707 558 707 573 707 C 621 707 669 711 717 720 C 764 729 806 745 843 767 C 880 789 910 820 933 858 C 955 896 967 945 967 1004 C 967 1050 959 1090 944 1124 C 928 1157 907 1184 881 1205 C 854 1226 822 1241 786 1251 C 750 1261 710 1266 668 1266 C 658 1266 646 1265 633 1265 C 619 1265 605 1264 590 1264 C 575 1264 560 1263 544 1263 C 528 1263 512 1262 498 1262 L 383 713 Z" unicode="P" />
<glyph horiz-adv-x="1483" d="M 123 571 C 123 641 131 711 147 780 C 163 849 186 915 216 977 C 246 1039 282 1097 326 1150 C 369 1202 418 1248 472 1286 C 526 1324 586 1354 650 1376 C 714 1398 783 1409 856 1409 C 943 1409 1021 1393 1090 1362 C 1158 1330 1216 1288 1264 1234 C 1311 1180 1347 1116 1372 1043 C 1396 969 1409 891 1409 807 C 1409 747 1402 688 1390 628 C 1378 568 1360 511 1336 455 C 1312 399 1283 347 1248 298 C 1213 248 1173 204 1128 166 C 1083 127 1033 95 979 69 C 924 43 865 26 801 18 L 801 14 L 1239 -127 L 1208 -283 L 516 0 C 382 52 283 126 219 221 C 155 316 123 433 123 571 Z M 682 121 C 764 121 840 140 909 178 C 977 216 1036 268 1086 332 C 1135 396 1173 469 1201 551 C 1229 633 1243 719 1243 807 C 1243 873 1234 935 1218 991 C 1201 1047 1176 1096 1143 1137 C 1110 1178 1069 1210 1021 1233 C 972 1256 916 1268 852 1268 C 796 1268 744 1259 694 1241 C 644 1223 599 1199 557 1168 C 515 1136 478 1099 445 1056 C 411 1013 383 966 360 916 C 337 865 319 811 307 755 C 295 699 289 642 289 584 C 289 516 297 454 314 398 C 330 341 355 292 388 251 C 421 210 462 178 511 155 C 560 132 617 121 682 121 Z" unicode="Q" />
<glyph horiz-adv-x="1186" d="M 76 0 L 369 1384 C 385 1385 403 1386 423 1388 C 443 1389 465 1390 487 1391 C 509 1392 532 1393 555 1394 C 578 1394 601 1395 623 1395 C 711 1395 788 1387 853 1371 C 917 1355 971 1332 1013 1302 C 1055 1272 1086 1235 1106 1191 C 1126 1147 1137 1096 1137 1040 C 1137 974 1125 917 1102 868 C 1078 819 1047 778 1009 744 C 971 710 927 684 878 665 C 829 645 779 633 729 627 L 1053 0 L 879 0 L 573 608 L 362 608 L 236 0 L 76 0 Z M 389 735 L 606 735 C 650 735 694 740 738 751 C 781 762 820 779 855 803 C 889 827 917 857 939 894 C 960 930 971 974 971 1026 C 971 1103 943 1162 889 1204 C 834 1245 756 1266 655 1266 C 633 1266 609 1265 582 1265 C 554 1264 526 1263 498 1262 L 389 735 Z" unicode="R" />
<glyph horiz-adv-x="1079" d="M 80 211 C 111 193 144 178 178 165 C 212 152 245 141 279 133 C 313 125 345 119 377 115 C 409 111 438 109 465 109 C 511 109 553 114 593 126 C 632 138 666 155 695 177 C 724 199 747 226 763 258 C 779 290 788 326 788 367 C 788 403 781 434 769 461 C 756 487 739 511 719 531 C 698 551 674 570 647 587 C 620 603 593 620 565 637 L 500 676 C 458 700 420 724 386 747 C 351 769 321 794 296 821 C 271 848 252 878 238 912 C 224 946 217 986 217 1032 C 217 1091 228 1144 251 1191 C 273 1238 305 1278 345 1310 C 385 1342 433 1367 488 1385 C 542 1402 602 1411 666 1411 C 690 1411 716 1409 746 1407 C 776 1404 806 1400 838 1395 C 870 1389 902 1382 934 1374 C 966 1365 996 1355 1026 1343 L 995 1202 C 969 1214 941 1224 913 1233 C 885 1242 856 1250 828 1256 C 799 1262 771 1267 744 1271 C 717 1274 692 1276 670 1276 C 630 1276 592 1271 556 1261 C 520 1251 488 1237 461 1218 C 433 1199 411 1175 395 1147 C 379 1119 371 1086 371 1049 C 371 1013 378 982 392 957 C 406 931 425 909 447 890 C 469 871 494 854 521 839 C 548 824 574 809 600 795 L 662 760 C 706 734 745 710 781 686 C 816 662 846 637 871 609 C 895 581 914 549 928 515 C 941 480 948 439 948 391 C 948 327 936 270 913 219 C 889 167 856 124 813 88 C 770 52 718 24 658 4 C 597 -15 529 -25 455 -25 C 431 -25 402 -23 370 -21 C 337 -18 302 -13 266 -6 C 230 0 193 10 155 22 C 117 34 80 50 45 70 L 80 211 Z" unicode="S" />
<glyph horiz-adv-x="1063" d="M 197 1389 L 1204 1389 L 1174 1255 L 750 1255 L 483 0 L 326 0 L 590 1255 L 166 1255 L 197 1389 Z" unicode="T" />
<glyph horiz-adv-x="1395" d="M 1391 1389 L 1214 557 C 1201 495 1188 443 1175 399 C 1162 355 1149 318 1136 286 C 1122 254 1109 227 1096 205 C 1082 183 1069 163 1055 147 C 1028 115 999 88 967 66 C 935 44 902 26 867 13 C 831 0 794 -8 756 -14 C 717 -20 677 -23 637 -23 C 573 -23 511 -16 452 -2 C 393 12 341 36 296 70 C 250 104 214 149 187 205 C 160 261 147 332 147 418 C 147 457 150 496 156 536 C 162 575 170 620 180 670 L 330 1389 L 492 1389 L 346 696 C 338 654 330 610 322 564 C 314 518 311 473 311 430 C 311 375 318 328 333 289 C 347 249 369 217 397 192 C 425 167 460 149 501 137 C 542 125 589 119 641 119 C 746 119 827 143 885 193 C 909 213 931 237 949 266 C 967 295 984 328 999 364 C 1013 400 1026 439 1037 481 C 1048 523 1059 568 1069 616 L 1231 1389 L 1391 1389 Z" unicode="U" />
<glyph horiz-adv-x="1239" d="M 1182 1389 L 1360 1389 L 573 0 L 424 0 L 199 1389 L 365 1389 L 518 391 C 518 387 519 378 521 364 C 523 349 525 332 527 313 C 529 294 532 275 534 255 C 536 235 537 219 539 205 L 547 205 C 553 217 560 231 568 247 C 576 263 584 279 592 295 C 600 311 608 328 616 345 C 624 361 633 377 641 391 L 1182 1389 Z" unicode="V" />
<glyph horiz-adv-x="1810" d="M 1022 1188 C 1007 1150 991 1111 975 1073 C 959 1035 939 991 915 942 L 461 0 L 283 0 L 211 1389 L 377 1389 L 412 444 C 414 394 415 349 416 309 C 416 269 416 230 414 190 L 422 190 C 430 212 439 234 447 255 C 455 275 463 296 471 316 C 479 336 488 356 497 377 C 506 398 516 420 528 444 L 987 1389 L 1149 1389 L 1204 444 C 1204 422 1205 402 1206 384 C 1206 365 1207 346 1207 327 C 1207 307 1207 287 1207 265 C 1207 243 1206 218 1206 190 L 1214 190 C 1227 226 1243 266 1263 310 C 1282 354 1301 398 1321 444 L 1755 1389 L 1923 1389 L 1257 0 L 1092 0 L 1032 942 C 1030 985 1028 1028 1028 1072 C 1028 1115 1028 1154 1030 1188 L 1022 1188 Z" unicode="W" />
<glyph horiz-adv-x="1167" d="M 440 1389 L 643 848 L 1063 1389 L 1262 1389 L 711 735 L 1026 0 L 846 0 L 598 625 L 94 0 L -94 0 L 528 735 L 258 1389 L 440 1389 Z" unicode="X" />
<glyph horiz-adv-x="1085" d="M 201 1389 L 371 1389 L 575 743 L 1049 1389 L 1231 1389 L 629 602 L 498 0 L 340 0 L 469 602 L 201 1389 Z" unicode="Y" />
<glyph horiz-adv-x="1108" d="M 940 0 L -20 0 L 6 111 L 891 1255 L 231 1255 L 260 1389 L 1114 1389 L 1090 1278 L 209 133 L 969 133 L 940 0 Z" unicode="Z" />
<glyph horiz-adv-x="692" d="M 766 1280 L 485 1280 L 176 -170 L 455 -170 L 432 -279 L 2 -279 L 356 1389 L 788 1389 L 766 1280 Z" unicode="[" />
<glyph horiz-adv-x="983" d="M 346 1389 L 776 -279 L 627 -279 L 197 1389 L 346 1389 Z" unicode="\" />
<glyph horiz-adv-x="690" d="M 244 1389 L 676 1389 L 319 -279 L -111 -279 L -88 -170 L 195 -170 L 504 1280 L 221 1280 L 244 1389 Z" unicode="]" />
<glyph horiz-adv-x="1106" d="M 598 1339 L 1081 438 L 913 438 L 633 1012 L 561 1157 L 541 1157 L 473 1012 L 193 438 L 25 438 L 504 1339 L 598 1339 Z" unicode="^" />
<glyph horiz-adv-x="1026" d="M 915 -109 L 889 -233 L -143 -233 L -119 -109 L 915 -109 Z" unicode="_" />
<glyph horiz-adv-x="840" d="M 457 1493 L 674 1174 L 530 1174 L 254 1493 L 457 1493 Z" unicode="`" />
<glyph horiz-adv-x="1116" d="M 721 0 C 722 48 725 98 730 152 C 735 205 744 264 758 328 L 754 328 C 726 278 696 231 664 189 C 632 146 598 109 562 78 C 526 47 489 23 449 6 C 409 -11 368 -20 324 -20 C 283 -20 245 -12 211 2 C 176 16 146 38 120 67 C 94 96 74 132 60 175 C 46 217 39 267 39 324 C 39 380 46 437 60 493 C 74 549 94 602 120 653 C 145 703 175 750 210 794 C 245 838 283 876 324 908 C 365 940 408 965 454 983 C 500 1001 546 1010 594 1010 C 656 1010 710 994 755 962 C 799 930 832 885 854 827 L 858 827 L 893 989 L 1038 989 L 907 383 C 893 317 882 252 876 190 C 870 128 866 64 864 0 L 721 0 Z M 817 684 C 811 712 802 738 790 762 C 778 786 763 808 745 827 C 727 845 706 860 682 871 C 658 881 632 887 604 887 C 569 887 535 879 501 863 C 467 847 436 826 406 799 C 376 771 349 739 324 703 C 298 667 277 628 259 587 C 241 545 226 502 216 458 C 206 414 201 370 201 328 C 201 299 203 271 209 244 C 214 216 223 192 235 171 C 247 150 263 133 283 121 C 302 108 326 102 354 102 C 386 102 418 110 450 128 C 482 145 514 167 544 195 C 574 223 603 254 631 290 C 658 325 682 361 704 397 C 726 433 744 467 760 501 C 775 534 786 563 793 588 L 817 684 Z" unicode="a" />
<glyph horiz-adv-x="1135" d="M 43 0 L 360 1493 L 516 1493 L 365 774 L 369 774 C 417 846 471 903 531 946 C 591 988 658 1010 731 1010 C 775 1010 817 1002 855 986 C 893 970 927 947 955 917 C 983 886 1004 848 1020 804 C 1036 760 1044 709 1044 653 C 1044 601 1038 548 1027 495 C 1016 441 1000 390 980 340 C 959 290 934 244 904 200 C 874 156 841 117 805 85 C 768 53 728 27 685 8 C 641 -10 595 -20 547 -20 C 508 -20 473 -15 442 -7 C 410 1 382 14 356 30 C 330 46 307 66 287 90 C 266 113 247 139 231 168 L 227 168 L 190 0 L 43 0 Z M 705 887 C 663 887 620 875 576 852 C 532 828 492 796 454 756 C 416 716 382 669 354 615 C 325 561 305 504 293 444 L 262 299 C 292 236 327 187 367 153 C 407 119 458 102 522 102 C 558 102 591 109 623 125 C 655 141 684 162 711 189 C 737 215 761 246 783 282 C 804 318 822 356 837 397 C 851 437 863 479 871 522 C 879 565 883 607 883 649 C 883 679 880 709 874 738 C 868 766 858 792 844 814 C 830 836 812 853 790 867 C 767 880 739 887 705 887 Z" unicode="b" />
<glyph horiz-adv-x="913" d="M 741 35 C 718 25 694 16 669 10 C 643 3 618 -2 592 -7 C 566 -11 541 -15 517 -17 C 492 -19 469 -20 449 -20 C 380 -20 321 -10 271 8 C 221 27 181 54 149 89 C 117 123 93 165 78 214 C 62 263 55 317 55 377 C 55 427 60 478 70 529 C 80 579 96 628 116 675 C 136 722 162 766 192 807 C 222 847 258 883 298 913 C 338 943 383 966 433 984 C 482 1001 536 1010 596 1010 C 619 1010 643 1008 667 1006 C 691 1003 715 999 738 994 C 761 988 783 982 804 974 C 825 966 844 956 860 946 L 827 817 C 811 827 794 836 774 844 C 754 852 734 858 713 864 C 691 870 670 874 648 878 C 626 881 605 883 586 883 C 524 883 470 868 424 838 C 378 808 339 770 309 722 C 278 674 255 621 240 561 C 224 501 217 442 217 383 C 217 336 223 295 236 261 C 248 226 266 197 288 174 C 310 151 337 134 368 123 C 399 111 433 106 469 106 C 493 106 518 107 543 111 C 568 115 592 120 616 126 C 639 132 661 140 683 148 C 704 156 723 165 741 174 L 741 35 Z" unicode="c" />
<glyph horiz-adv-x="1143" d="M 926 383 C 920 354 914 325 908 297 C 902 269 898 239 894 209 C 890 178 886 146 884 112 C 882 78 881 40 881 0 L 733 0 C 733 44 735 88 740 134 C 745 179 750 220 756 256 L 752 256 C 640 72 509 -20 358 -20 C 314 -20 273 -12 236 3 C 199 19 167 42 140 73 C 113 103 92 141 77 187 C 62 232 55 284 55 344 C 55 394 60 446 72 499 C 83 551 99 602 121 652 C 143 701 169 747 200 791 C 230 835 265 873 304 905 C 343 937 386 963 432 982 C 478 1000 527 1010 580 1010 C 644 1010 699 995 745 965 C 791 935 829 891 860 834 L 864 834 L 1006 1493 L 1161 1493 L 926 383 Z M 393 102 C 425 102 457 109 489 123 C 520 137 550 157 579 182 C 608 206 635 235 661 267 C 686 299 709 332 729 368 C 749 404 767 440 781 476 C 795 512 806 547 813 580 L 836 690 C 823 718 809 744 793 768 C 777 792 759 812 739 830 C 719 848 696 862 671 872 C 645 882 617 887 586 887 C 548 887 512 879 479 863 C 445 847 415 826 388 799 C 360 772 336 741 315 705 C 293 669 275 632 261 592 C 247 552 236 511 228 469 C 220 427 217 386 217 348 C 217 316 220 285 226 255 C 232 225 242 199 256 177 C 270 154 288 136 310 122 C 332 108 360 102 393 102 Z" unicode="d" />
<glyph horiz-adv-x="1022" d="M 795 53 C 743 32 688 15 632 1 C 576 -13 517 -20 457 -20 C 330 -20 233 12 166 78 C 99 143 66 240 66 369 C 66 419 71 469 82 521 C 92 572 108 621 128 669 C 148 717 174 761 204 803 C 234 844 268 880 307 911 C 345 942 388 966 435 984 C 482 1001 533 1010 588 1010 C 638 1010 684 1002 726 986 C 768 970 805 945 836 913 C 866 881 890 841 908 793 C 925 745 934 689 934 625 C 934 582 930 537 922 489 L 225 489 C 221 471 219 453 218 435 C 217 417 217 400 217 383 C 217 287 239 217 283 171 C 327 125 391 102 475 102 C 503 102 532 105 562 110 C 592 115 621 121 650 129 C 679 136 707 144 734 154 C 761 163 786 172 809 182 L 795 53 Z M 578 887 C 539 887 503 879 469 864 C 435 848 405 827 377 801 C 349 775 325 744 304 709 C 283 673 266 636 252 596 L 776 596 C 778 606 779 616 780 627 C 781 637 782 647 782 657 C 782 691 777 723 768 751 C 759 779 746 804 728 824 C 710 844 689 859 664 870 C 638 881 610 887 578 887 Z" unicode="e" />
<glyph horiz-adv-x="700" d="M 131 989 L 346 989 L 393 1206 C 403 1254 417 1297 435 1335 C 453 1373 476 1405 504 1431 C 532 1457 565 1478 603 1492 C 641 1506 685 1513 735 1513 C 766 1513 793 1511 817 1508 C 840 1504 861 1500 881 1495 L 854 1362 C 836 1366 815 1370 790 1374 C 765 1378 742 1380 721 1380 C 673 1380 636 1365 608 1337 C 580 1309 560 1264 547 1204 L 500 989 L 776 989 L 748 870 L 475 870 L 291 0 L 135 0 L 322 870 L 104 870 L 131 989 Z" unicode="f" />
<glyph horiz-adv-x="1001" d="M 1020 862 C 988 862 955 857 921 849 C 887 840 856 826 829 807 C 840 773 846 739 846 707 C 846 677 842 647 834 615 C 826 583 815 552 800 522 C 784 492 765 463 743 436 C 720 409 694 385 664 365 C 634 345 601 329 564 317 C 526 305 486 299 442 299 C 386 299 337 308 293 328 C 283 318 276 309 271 300 C 266 291 264 280 264 268 C 264 252 270 237 282 224 C 294 210 311 197 334 184 C 357 170 385 157 418 143 C 451 129 489 114 532 98 C 574 80 613 63 650 46 C 686 29 718 10 746 -10 C 773 -30 794 -54 810 -80 C 826 -106 834 -136 834 -172 C 834 -219 820 -259 792 -292 C 764 -325 728 -352 684 -372 C 640 -392 590 -407 534 -416 C 478 -425 421 -430 365 -430 C 296 -430 234 -424 179 -412 C 123 -400 76 -384 37 -362 C -1 -340 -31 -313 -52 -282 C -73 -250 -84 -215 -84 -176 C -84 -135 -74 -100 -55 -70 C -35 -40 -11 -15 16 6 C 44 27 75 45 108 61 C 141 76 171 90 199 102 C 175 120 157 140 144 160 C 131 180 125 204 125 231 C 125 258 131 283 143 307 C 155 330 177 354 209 379 C 179 405 156 437 140 475 C 124 513 117 554 117 598 C 117 642 125 689 142 737 C 159 785 184 830 218 870 C 252 910 294 944 344 970 C 394 996 452 1010 518 1010 C 576 1010 628 999 673 979 C 717 958 754 930 782 895 C 814 931 852 958 896 978 C 940 998 988 1008 1040 1008 L 1020 862 Z M 700 698 C 700 724 696 750 688 774 C 680 798 669 820 653 838 C 637 856 618 871 595 882 C 572 893 546 899 516 899 C 474 899 437 889 405 870 C 373 850 347 826 326 797 C 304 767 288 735 278 701 C 267 666 262 633 262 602 C 262 574 266 548 274 525 C 282 501 295 481 311 465 C 327 448 346 435 369 426 C 391 416 417 412 446 412 C 488 412 524 421 556 439 C 588 457 614 479 636 507 C 657 535 673 565 684 599 C 694 633 700 666 700 698 Z M 428 -10 C 404 0 382 8 360 16 C 338 24 318 33 299 43 C 267 31 236 17 208 3 C 179 -10 154 -26 132 -43 C 110 -59 93 -77 80 -97 C 67 -117 61 -138 61 -162 C 61 -210 88 -247 143 -275 C 197 -303 275 -317 375 -317 C 408 -317 442 -315 477 -311 C 512 -307 544 -300 573 -290 C 602 -280 626 -266 644 -248 C 662 -230 672 -208 672 -180 C 672 -162 667 -146 657 -133 C 647 -120 633 -107 613 -95 C 593 -83 567 -70 537 -57 C 506 -43 470 -28 428 -10 Z" unicode="g" />
<glyph horiz-adv-x="1120" d="M 516 1493 L 362 776 L 367 776 C 418 851 476 909 540 949 C 604 989 672 1010 743 1010 C 778 1010 811 1004 843 994 C 874 984 901 968 924 947 C 947 926 965 900 979 868 C 992 836 999 798 999 756 C 999 739 998 722 996 706 C 994 690 991 671 987 650 C 983 628 977 603 971 575 C 965 546 958 511 950 471 L 852 0 L 696 0 L 793 467 C 800 503 807 534 813 560 C 819 586 824 608 828 628 C 832 648 835 665 837 681 C 839 697 840 712 840 727 C 840 775 829 813 807 843 C 785 872 751 887 705 887 C 677 887 648 881 620 870 C 591 859 563 844 535 826 C 507 807 481 785 457 760 C 432 735 410 709 390 681 C 370 653 353 625 339 597 C 325 568 315 540 309 514 L 199 0 L 43 0 L 360 1493 L 516 1493 Z" unicode="h" />
<glyph horiz-adv-x="489" d="M 408 989 L 199 0 L 43 0 L 252 989 L 408 989 Z M 504 1427 L 463 1237 L 299 1237 L 340 1427 L 504 1427 Z" unicode="i" />
<glyph horiz-adv-x="487" d="M 406 989 L 172 -102 C 162 -148 148 -190 131 -228 C 114 -266 92 -298 65 -325 C 38 -352 5 -373 -33 -388 C -71 -402 -117 -410 -170 -410 C -180 -410 -192 -409 -206 -409 C -220 -408 -230 -407 -238 -406 L -209 -276 L -160 -276 C -109 -276 -70 -261 -43 -233 C -15 -205 4 -160 18 -100 L 252 989 L 406 989 Z M 502 1427 L 461 1237 L 299 1237 L 340 1427 L 502 1427 Z" unicode="j" />
<glyph horiz-adv-x="985" d="M 1020 989 L 543 598 L 874 0 L 698 0 L 422 510 L 283 399 L 199 0 L 43 0 L 360 1493 L 516 1493 L 319 580 L 809 989 L 1020 989 Z" unicode="k" />
<glyph horiz-adv-x="506" d="M 522 1493 L 205 0 L 49 0 L 367 1493 L 522 1493 Z" unicode="l" />
<glyph horiz-adv-x="1726" d="M 399 989 L 354 770 L 358 770 C 383 804 410 836 438 866 C 466 895 495 920 526 942 C 557 963 589 980 623 992 C 656 1004 691 1010 727 1010 C 755 1010 783 1005 811 997 C 839 989 865 975 888 956 C 911 936 930 911 946 880 C 961 848 970 810 973 764 L 977 764 C 1001 798 1028 829 1056 859 C 1084 889 1113 915 1145 937 C 1177 959 1210 977 1245 990 C 1279 1003 1316 1010 1356 1010 C 1388 1010 1420 1004 1450 994 C 1480 984 1506 968 1529 947 C 1551 925 1569 898 1583 865 C 1597 832 1604 793 1604 748 C 1604 739 1603 729 1602 719 C 1601 709 1599 694 1596 675 C 1592 656 1587 631 1581 600 C 1575 568 1566 527 1556 475 L 1456 0 L 1300 0 L 1399 469 C 1407 507 1414 540 1420 567 C 1426 593 1431 616 1435 636 C 1439 655 1441 672 1443 686 C 1445 700 1446 715 1446 729 C 1446 776 1435 814 1413 843 C 1391 872 1360 887 1319 887 C 1293 887 1267 881 1240 870 C 1212 859 1185 844 1159 826 C 1133 807 1107 785 1083 761 C 1058 736 1035 710 1015 682 C 995 654 978 626 964 597 C 950 568 940 540 934 514 L 827 0 L 674 0 L 768 459 C 781 521 792 574 802 617 C 812 659 817 697 817 729 C 817 777 805 815 782 844 C 759 872 727 887 686 887 C 660 887 634 881 608 870 C 581 859 555 844 529 825 C 503 806 478 784 454 759 C 430 734 408 708 388 680 C 368 652 352 624 338 596 C 324 567 315 540 309 514 L 199 0 L 43 0 L 252 989 L 399 989 Z" unicode="m" />
<glyph horiz-adv-x="1120" d="M 399 989 L 354 768 L 358 768 C 412 846 472 906 537 948 C 602 989 671 1010 743 1010 C 777 1010 810 1005 841 995 C 872 985 899 969 923 948 C 946 927 964 901 978 869 C 992 837 999 799 999 756 C 999 739 998 722 996 706 C 994 690 991 671 987 650 C 983 628 977 603 971 575 C 965 546 958 511 950 471 L 852 0 L 696 0 L 793 467 C 800 503 807 534 813 560 C 819 586 824 608 828 628 C 832 648 835 665 837 681 C 839 697 840 712 840 727 C 840 775 829 813 807 843 C 785 872 752 887 707 887 C 679 887 650 881 621 870 C 591 858 563 843 535 824 C 507 804 481 782 456 757 C 431 732 409 706 389 678 C 369 650 352 622 338 594 C 324 566 314 539 309 514 L 199 0 L 43 0 L 252 989 L 399 989 Z" unicode="n" />
<glyph horiz-adv-x="1063" d="M 971 608 C 971 564 966 517 956 469 C 946 421 931 373 911 327 C 891 280 866 236 836 194 C 806 152 772 115 732 83 C 692 51 648 26 599 8 C 549 -10 495 -20 436 -20 C 376 -20 323 -10 276 9 C 229 29 189 56 157 92 C 125 128 100 170 83 220 C 65 270 57 325 57 385 C 57 429 62 476 72 524 C 82 572 97 619 117 665 C 137 711 162 755 192 797 C 222 838 256 874 296 906 C 335 937 379 962 429 980 C 478 998 532 1008 592 1008 C 652 1008 706 998 753 978 C 800 958 840 931 872 896 C 904 861 929 819 946 770 C 962 720 971 666 971 608 Z M 813 604 C 813 644 808 682 799 716 C 790 750 776 780 758 806 C 740 831 716 851 688 865 C 659 879 625 887 586 887 C 547 887 511 879 478 865 C 445 851 415 831 387 806 C 359 781 335 752 314 720 C 292 687 274 652 260 615 C 245 578 234 540 226 502 C 218 463 215 425 215 389 C 215 347 219 309 228 274 C 237 238 251 208 270 183 C 289 157 313 137 342 123 C 370 109 404 102 444 102 C 482 102 517 109 550 124 C 583 138 613 158 641 183 C 668 207 692 236 714 270 C 735 303 753 338 768 375 C 782 412 793 450 801 490 C 809 529 813 567 813 604 Z" unicode="o" />
<glyph horiz-adv-x="1130" d="M -47 -410 L 248 989 L 397 989 L 344 758 L 348 758 C 373 796 400 830 429 861 C 458 892 489 919 521 941 C 553 963 586 980 621 992 C 655 1004 691 1010 727 1010 C 771 1010 813 1002 851 986 C 889 970 923 947 951 917 C 979 886 1000 848 1016 804 C 1032 760 1040 709 1040 653 C 1040 601 1034 548 1023 495 C 1012 441 996 390 976 340 C 955 290 930 244 900 200 C 870 156 837 117 801 85 C 764 53 724 27 681 8 C 637 -10 591 -20 543 -20 C 504 -20 469 -16 438 -8 C 407 0 379 11 354 27 C 329 42 306 61 286 84 C 266 106 247 132 231 162 L 227 162 L 109 -410 L -47 -410 Z M 700 887 C 658 887 615 875 572 852 C 528 828 488 796 450 756 C 412 716 378 669 350 615 C 321 561 301 504 289 444 L 258 299 C 287 236 322 187 362 153 C 402 119 454 102 518 102 C 554 102 587 109 619 125 C 651 141 680 162 707 189 C 733 215 757 246 779 282 C 800 318 818 356 833 397 C 847 437 859 479 867 522 C 875 565 879 607 879 649 C 879 679 876 709 870 738 C 864 766 854 792 840 814 C 826 836 808 853 785 867 C 762 880 734 887 700 887 Z" unicode="p" />
<glyph horiz-adv-x="1128" d="M 1055 989 L 760 -410 L 602 -410 L 737 229 L 733 229 C 681 147 623 85 560 43 C 497 1 428 -20 354 -20 C 310 -20 270 -12 234 3 C 197 19 165 42 139 72 C 112 102 91 140 77 185 C 62 229 55 281 55 340 C 55 391 60 443 72 496 C 84 549 100 600 122 650 C 143 700 169 746 200 790 C 230 834 265 872 303 904 C 341 936 383 962 428 981 C 473 1000 521 1010 571 1010 C 643 1010 702 993 749 960 C 795 927 834 881 866 823 L 870 823 L 907 989 L 1055 989 Z M 395 102 C 423 102 451 108 481 120 C 510 132 539 150 567 172 C 595 194 623 221 649 251 C 675 281 698 313 720 349 C 742 385 761 422 777 461 C 793 500 805 540 813 580 L 836 690 C 821 721 805 749 789 773 C 772 797 753 818 733 835 C 712 852 689 865 664 874 C 638 882 610 887 578 887 C 542 887 508 879 476 863 C 444 847 415 826 388 800 C 361 773 337 742 316 706 C 295 670 277 632 262 592 C 247 551 236 509 228 466 C 220 423 217 381 217 340 C 217 310 220 280 226 252 C 232 223 241 197 255 175 C 269 153 287 135 310 122 C 332 108 361 102 395 102 Z" unicode="q" />
<glyph horiz-adv-x="737" d="M 369 989 C 367 949 363 908 359 865 C 354 822 349 784 344 752 L 348 752 C 368 787 391 820 417 852 C 443 883 470 910 500 934 C 529 957 559 975 591 989 C 622 1003 653 1010 684 1010 C 696 1010 708 1008 719 1006 C 729 1004 741 1000 754 995 L 719 836 C 707 841 694 845 678 848 C 662 850 651 852 643 852 C 608 852 572 840 536 818 C 499 795 465 766 433 731 C 401 696 374 658 351 616 C 328 574 313 534 305 496 L 201 0 L 45 0 L 180 616 C 186 643 191 670 197 697 C 202 724 207 752 211 782 C 215 812 219 843 222 877 C 224 911 226 948 227 989 L 369 989 Z" unicode="r" />
<glyph horiz-adv-x="829" d="M 35 182 C 82 155 130 136 179 124 C 227 112 271 106 311 106 C 341 106 369 109 395 115 C 421 121 444 131 464 144 C 484 157 499 173 511 193 C 522 212 528 234 528 260 C 528 282 524 301 516 319 C 508 336 498 351 486 365 C 473 379 459 391 444 402 C 428 413 413 424 399 434 L 346 469 C 323 483 300 500 277 518 C 254 536 233 556 214 578 C 195 600 180 625 168 653 C 156 680 150 711 150 745 C 150 783 158 819 174 851 C 190 883 213 911 243 935 C 273 958 308 976 349 989 C 389 1001 434 1008 483 1008 C 501 1008 522 1007 545 1005 C 568 1003 592 999 616 995 C 640 990 665 984 689 978 C 713 971 737 963 760 954 L 731 825 C 693 840 653 854 611 866 C 568 878 527 885 487 885 C 459 885 434 881 412 875 C 389 869 369 859 352 847 C 335 835 322 820 313 802 C 303 784 299 763 299 739 C 299 725 301 711 305 699 C 309 687 315 674 325 662 C 335 650 348 637 364 624 C 380 610 401 596 426 580 L 481 543 C 501 529 523 514 546 498 C 568 481 589 462 609 440 C 628 418 644 392 657 364 C 669 335 676 302 676 266 C 676 228 668 191 652 157 C 636 123 612 93 581 67 C 549 41 510 21 463 6 C 416 -8 361 -16 299 -16 C 233 -16 177 -8 129 5 C 81 19 40 35 4 53 L 35 182 Z" unicode="s" />
<glyph horiz-adv-x="754" d="M 109 989 L 322 989 L 387 1296 L 543 1296 L 477 989 L 776 989 L 752 870 L 453 870 L 346 367 C 344 357 341 344 339 329 C 336 314 333 299 331 283 C 328 267 326 252 324 237 C 322 222 322 209 322 199 C 322 169 330 148 346 134 C 362 120 392 113 436 113 C 445 113 456 113 469 114 C 482 114 496 115 510 117 C 524 118 539 120 553 122 C 567 124 580 126 592 129 L 592 4 C 571 -1 544 -6 510 -11 C 476 -15 442 -18 408 -18 C 363 -18 325 -12 295 -2 C 264 7 239 22 221 40 C 202 58 188 80 180 106 C 172 131 168 158 168 188 C 168 213 170 240 175 270 C 179 300 185 333 193 369 L 297 870 L 84 870 L 109 989 Z" unicode="t" />
<glyph horiz-adv-x="1122" d="M 911 383 C 905 354 899 325 894 297 C 888 269 884 239 880 209 C 876 178 873 146 871 112 C 869 78 868 40 868 0 L 719 0 C 719 44 721 88 726 134 C 730 179 735 220 741 256 L 737 256 C 678 162 614 93 546 48 C 477 2 408 -20 338 -20 C 304 -20 272 -14 242 -4 C 212 5 185 21 162 43 C 138 64 120 91 106 124 C 92 156 86 195 86 240 C 86 255 86 270 88 286 C 90 301 93 319 97 340 C 101 360 106 385 112 413 C 118 441 126 476 135 518 L 233 989 L 389 989 L 293 522 C 285 484 278 451 272 425 C 266 398 262 375 258 355 C 254 335 251 318 249 303 C 247 288 246 274 246 260 C 246 212 256 174 278 145 C 300 116 333 102 377 102 C 419 102 462 115 507 143 C 551 170 593 206 633 250 C 672 294 706 343 736 399 C 766 455 787 511 799 569 L 887 989 L 1042 989 L 911 383 Z" unicode="u" />
<glyph horiz-adv-x="950" d="M 360 373 C 361 365 363 353 365 337 C 367 321 369 304 371 286 C 373 268 374 250 376 232 C 377 214 378 198 379 186 L 387 186 C 398 211 413 240 431 273 C 449 306 467 339 485 373 L 813 989 L 981 989 L 412 0 L 287 0 L 115 989 L 276 989 L 360 373 L 360 373 Z" unicode="v" />
<glyph horiz-adv-x="1446" d="M 193 0 L 129 989 L 276 989 L 307 389 C 307 379 308 366 308 350 C 308 334 309 317 309 299 C 309 281 310 265 310 250 C 310 234 309 223 309 215 L 317 215 C 323 227 329 240 337 255 C 344 270 352 285 360 301 C 368 317 376 332 384 348 C 392 363 399 377 406 389 L 729 989 L 864 989 L 930 389 C 931 376 932 362 934 347 C 936 331 937 316 938 301 C 939 285 940 270 941 255 C 942 240 943 227 944 215 L 952 215 C 953 219 957 229 963 243 C 969 257 976 272 984 290 C 992 308 1000 326 1008 344 C 1016 362 1024 377 1030 389 L 1313 989 L 1468 989 L 987 0 L 846 0 L 776 635 C 774 643 773 654 772 670 C 771 685 770 701 769 719 C 768 736 767 753 766 769 C 765 785 764 799 764 809 L 756 809 C 745 785 732 758 717 728 C 701 698 686 667 670 635 L 332 0 L 193 0 Z" unicode="w" />
<glyph horiz-adv-x="967" d="M 313 989 L 481 631 L 780 989 L 963 989 L 547 524 L 815 0 L 639 0 L 449 420 L 104 0 L -68 0 L 379 524 L 135 989 L 313 989 Z" unicode="x" />
<glyph horiz-adv-x="981" d="M 117 989 L 283 989 L 393 373 C 397 343 401 313 405 282 C 409 250 412 220 416 190 L 424 190 L 836 989 L 1008 989 L 455 8 C 374 -132 290 -237 204 -306 C 118 -375 26 -410 -72 -410 C -73 -410 -76 -410 -82 -410 C -87 -410 -92 -410 -98 -410 C -104 -410 -109 -409 -114 -409 C -118 -409 -121 -408 -121 -408 L -96 -276 L -72 -276 C -42 -276 -12 -271 17 -262 C 46 -253 76 -237 107 -215 C 138 -193 170 -162 204 -123 C 237 -84 273 -35 311 25 L 117 989 Z" unicode="y" />
<glyph horiz-adv-x="883" d="M 709 0 L -27 0 L -4 106 L 649 864 L 160 864 L 186 989 L 862 989 L 840 883 L 186 125 L 737 125 L 709 0 Z" unicode="z" />
<glyph horiz-adv-x="760" d="M 834 1280 L 752 1280 C 737 1280 720 1278 702 1276 C 684 1273 666 1267 648 1257 C 630 1247 613 1232 599 1213 C 584 1193 573 1167 567 1135 L 494 795 C 488 768 478 743 464 719 C 450 695 433 673 414 655 C 394 636 373 620 349 608 C 325 595 301 586 276 582 L 276 578 C 300 572 321 563 339 549 C 357 535 371 519 383 500 C 394 481 401 460 405 437 C 409 413 408 389 403 365 L 326 -4 C 318 -39 316 -67 321 -89 C 326 -111 335 -128 347 -140 C 359 -152 374 -160 391 -164 C 408 -168 425 -170 442 -170 L 522 -170 L 500 -279 L 371 -279 C 345 -279 318 -274 290 -264 C 262 -254 237 -238 215 -215 C 193 -192 178 -161 168 -123 C 158 -84 160 -35 172 23 L 246 377 C 250 395 250 412 248 428 C 245 444 240 459 233 471 C 225 483 216 493 204 501 C 192 508 178 512 164 512 L 31 512 L 59 639 L 193 639 C 207 639 222 642 237 649 C 251 656 265 666 278 679 C 290 691 301 706 310 722 C 319 738 326 756 330 776 L 410 1137 C 422 1194 440 1239 466 1273 C 492 1306 520 1331 551 1349 C 581 1366 612 1377 644 1382 C 675 1386 703 1389 727 1389 L 856 1389 L 834 1280 Z" unicode="{" />
<glyph horiz-adv-x="805" d="M 317 1720 L 487 1720 L 487 -328 L 317 -328 L 317 1720 Z" unicode="|" />
<glyph horiz-adv-x="758" d="M 246 1389 L 375 1389 C 399 1389 426 1384 455 1375 C 483 1366 508 1350 530 1328 C 552 1305 567 1274 577 1236 C 587 1197 585 1148 573 1090 L 506 776 C 502 757 502 739 505 723 C 507 706 512 691 520 679 C 527 667 536 657 548 650 C 560 642 573 639 588 639 L 721 639 L 692 512 L 559 512 C 544 512 529 508 514 501 C 499 494 485 484 473 472 C 461 460 450 445 441 429 C 431 413 425 395 422 377 L 336 -23 C 324 -80 305 -125 279 -159 C 253 -193 225 -218 195 -236 C 164 -254 133 -265 101 -271 C 69 -276 42 -279 18 -279 L -111 -279 L -88 -170 L -6 -170 C 8 -170 24 -168 43 -165 C 61 -162 79 -155 97 -145 C 115 -135 131 -120 146 -101 C 160 -81 171 -55 178 -23 L 260 365 C 266 391 275 415 289 439 C 303 463 319 484 339 503 C 359 522 380 538 404 551 C 427 564 451 573 477 578 L 477 582 C 453 586 433 595 415 609 C 397 623 382 639 371 659 C 359 678 352 699 348 723 C 344 746 344 770 350 795 L 422 1118 C 429 1152 430 1180 425 1202 C 420 1223 411 1239 399 1251 C 386 1262 371 1270 354 1274 C 336 1278 319 1280 303 1280 L 221 1280 L 246 1389 Z" unicode="}" />
<glyph horiz-adv-x="1106" d="M 96 401 C 96 457 102 508 116 554 C 129 600 148 639 172 672 C 196 704 225 729 259 747 C 293 765 330 774 371 774 C 392 774 411 771 429 766 C 447 760 464 753 480 743 C 496 733 511 720 527 706 C 543 692 560 675 578 657 L 633 600 C 640 592 648 584 656 576 C 664 568 672 560 682 554 C 691 548 701 542 712 538 C 722 534 734 532 748 532 C 770 532 789 538 805 551 C 821 564 835 581 845 603 C 855 624 863 648 869 676 C 874 704 877 732 877 762 L 1012 762 C 1012 706 1005 655 991 609 C 977 563 958 523 934 491 C 910 458 881 433 848 415 C 814 397 778 389 739 389 C 717 389 698 391 680 397 C 662 402 645 409 629 419 C 612 429 596 441 580 455 C 564 469 547 486 530 504 L 475 561 C 467 569 460 577 452 585 C 444 593 436 600 427 607 C 418 614 408 620 397 624 C 386 628 374 631 362 631 C 340 631 320 624 304 612 C 287 599 273 582 262 561 C 251 540 243 516 237 488 C 231 460 229 431 229 401 L 96 401 L 96 401 Z" unicode="~" />
<glyph horiz-adv-x="891" d="M 397 1262 L 360 1090 L 365 1090 C 405 1150 449 1197 499 1229 C 549 1261 606 1278 670 1278 C 693 1278 716 1274 740 1266 C 763 1258 784 1245 803 1229 C 821 1212 836 1191 848 1165 C 860 1139 866 1107 866 1071 C 866 1059 865 1046 863 1034 C 861 1021 859 1006 855 988 C 851 970 847 949 841 925 C 835 900 829 870 821 834 L 750 492 L 608 492 L 680 827 C 687 861 693 889 699 913 C 704 936 708 956 712 973 C 716 989 718 1004 720 1016 C 722 1028 723 1039 723 1051 C 723 1085 715 1113 699 1134 C 683 1154 659 1165 629 1165 C 599 1165 567 1156 534 1138 C 500 1120 469 1096 439 1067 C 409 1037 383 1004 361 966 C 339 928 323 888 315 848 L 238 492 L 94 492 L 262 1262 L 397 1262 Z" unicode="ⁿ" />
<glyph horiz-adv-x="862" d="M 731 346 C 731 308 727 270 719 230 C 711 190 700 152 684 115 C 668 77 649 42 626 9 C 602 -24 575 -53 544 -78 C 513 -103 478 -123 440 -138 C 401 -152 359 -160 313 -160 C 261 -160 216 -150 178 -132 C 140 -113 108 -87 82 -55 C 56 -23 36 14 23 58 C 10 101 4 147 4 197 C 4 254 12 312 30 372 C 48 431 74 485 109 533 C 143 581 187 621 239 652 C 291 682 351 698 420 698 C 468 698 512 689 551 672 C 589 655 622 631 649 600 C 675 569 696 532 710 489 C 724 445 731 398 731 346 Z M 586 346 C 586 374 583 402 577 430 C 571 457 561 481 547 503 C 533 525 516 542 494 555 C 472 568 446 575 414 575 C 382 575 354 569 329 557 C 304 545 282 529 262 509 C 242 489 226 466 212 440 C 198 414 186 387 177 359 C 167 331 160 302 156 274 C 152 246 150 219 150 195 C 150 167 152 140 158 112 C 164 84 173 60 186 38 C 199 16 217 -2 239 -16 C 261 -30 288 -37 322 -37 C 368 -37 407 -24 441 1 C 474 27 501 59 523 98 C 544 136 560 178 570 222 C 580 266 586 308 586 346 Z" unicode="₀" />
<glyph horiz-adv-x="479" d="M 211 541 L 31 487 L 31 608 L 301 684 L 379 684 L 205 -147 L 66 -147 L 211 541 Z" unicode="₁" />
<glyph horiz-adv-x="700" d="M 76 641 C 87 647 100 654 114 661 C 128 667 144 673 162 679 C 180 685 200 689 222 693 C 244 696 268 698 295 698 C 328 698 362 694 396 687 C 430 680 462 668 490 651 C 518 634 541 611 559 582 C 577 553 586 517 586 473 C 586 434 578 400 564 370 C 550 340 530 312 506 285 C 482 258 453 231 420 205 C 387 178 352 149 315 117 L 143 -33 L 526 -33 L 502 -147 L -55 -147 L -35 -51 L 248 203 C 282 235 312 262 337 285 C 361 308 382 329 398 348 C 414 367 425 385 433 403 C 440 420 444 439 444 459 C 444 502 428 534 398 554 C 368 574 329 584 281 584 C 237 584 199 577 165 565 C 131 552 103 538 80 524 L 76 641 Z" unicode="₂" />
<glyph horiz-adv-x="713" d="M 92 666 C 117 674 148 681 184 688 C 220 694 259 698 301 698 C 331 698 363 695 396 689 C 429 683 459 673 486 659 C 513 644 535 624 553 600 C 571 576 580 545 580 508 C 580 484 576 461 568 439 C 560 417 548 396 532 378 C 516 359 497 343 475 330 C 453 316 427 307 399 301 L 399 297 C 419 289 437 279 455 268 C 473 257 488 244 502 228 C 515 212 525 194 533 173 C 541 152 545 128 545 100 C 545 60 536 23 519 -8 C 502 -40 478 -68 448 -90 C 417 -112 380 -130 338 -142 C 296 -154 249 -160 199 -160 C 161 -160 121 -156 80 -148 C 38 -140 -3 -125 -47 -104 L -20 20 C -6 13 9 6 26 -1 C 43 -8 61 -15 81 -21 C 100 -27 121 -33 143 -37 C 165 -41 187 -43 211 -43 C 237 -43 262 -40 285 -34 C 308 -28 328 -19 345 -8 C 362 3 375 17 385 35 C 394 52 399 72 399 96 C 399 124 392 147 379 166 C 366 184 350 199 330 211 C 310 222 287 230 263 235 C 239 239 215 242 193 242 L 121 242 L 133 356 L 225 356 C 245 355 268 357 292 361 C 316 365 338 372 359 382 C 379 392 397 405 411 423 C 425 440 432 462 432 489 C 432 507 428 523 422 535 C 415 547 406 556 394 564 C 382 571 368 576 352 579 C 335 582 317 584 297 584 C 257 584 219 580 183 572 C 147 564 117 556 94 547 L 92 666 Z" unicode="₃" />
<glyph horiz-adv-x="774" d="M 479 37 L 440 -147 L 301 -147 L 340 37 L -70 37 L -49 137 L 434 686 L 614 686 L 502 145 L 637 145 L 616 37 L 479 37 Z M 84 145 L 365 145 L 453 557 L 446 557 L 84 145 Z" unicode="₄" />
<glyph horiz-adv-x="739" d="M 47 268 L 141 686 L 629 686 L 606 571 L 246 571 L 199 365 C 222 375 245 382 269 386 C 293 390 315 393 336 393 C 373 393 407 387 437 375 C 467 363 493 347 515 325 C 537 303 554 277 566 247 C 578 217 584 183 584 147 C 584 103 575 63 559 25 C 543 -12 519 -45 488 -73 C 456 -101 418 -123 372 -139 C 326 -155 273 -164 215 -164 C 173 -164 127 -159 78 -149 C 29 -139 -17 -124 -61 -104 L -35 23 C 1 2 41 -14 86 -27 C 131 -40 177 -47 223 -47 C 289 -47 342 -31 381 -1 C 420 29 440 73 440 129 C 440 175 426 211 398 238 C 370 265 328 279 272 279 C 247 279 221 275 194 269 C 166 263 139 252 113 236 L 47 268 Z" unicode="₅" />
<glyph horiz-adv-x="797" d="M 641 532 C 629 538 615 545 599 551 C 583 557 567 562 551 567 C 534 571 517 575 500 578 C 483 580 467 582 451 582 C 408 582 370 573 338 556 C 305 539 276 517 252 490 C 228 463 207 433 191 399 C 175 365 162 331 154 297 L 158 297 C 190 321 225 341 263 356 C 300 371 339 379 381 379 C 414 379 446 374 478 364 C 509 354 537 338 562 318 C 586 298 606 272 621 242 C 635 211 643 175 643 135 C 643 93 634 55 618 19 C 602 -17 579 -48 550 -75 C 521 -101 487 -122 447 -137 C 407 -152 363 -160 317 -160 C 275 -160 236 -153 198 -139 C 160 -125 126 -105 97 -77 C 68 -49 45 -13 28 29 C 10 72 2 123 2 182 C 2 217 5 254 13 294 C 20 333 31 372 47 410 C 63 448 83 485 107 520 C 131 554 161 585 195 611 C 229 637 267 658 311 674 C 355 690 404 698 459 698 C 479 698 500 696 521 694 C 542 692 562 689 580 685 C 598 681 615 676 630 671 C 644 666 656 661 666 655 L 641 532 Z M 344 264 C 312 264 279 258 245 248 C 211 238 178 221 145 199 C 143 195 143 191 143 187 C 143 183 143 179 143 176 C 143 148 146 121 153 95 C 159 69 170 45 184 25 C 198 4 217 -12 240 -24 C 262 -36 290 -43 322 -43 C 352 -43 379 -37 402 -27 C 424 -16 443 -2 457 14 C 471 30 482 49 489 70 C 496 90 500 111 500 131 C 500 175 485 208 456 230 C 427 252 390 264 344 264 Z" unicode="₆" />
<glyph horiz-adv-x="655" d="M 154 -147 L -8 -147 L 449 571 L 37 571 L 61 686 L 629 686 L 608 588 L 154 -147 Z" unicode="₇" />
<glyph horiz-adv-x="793" d="M 668 489 C 668 464 663 440 654 418 C 644 396 631 375 613 357 C 595 338 574 322 550 308 C 525 294 497 283 467 276 L 467 272 C 483 265 499 256 516 246 C 533 235 549 222 563 206 C 577 190 588 171 598 150 C 607 128 612 104 612 78 C 612 40 603 7 585 -22 C 567 -51 544 -76 514 -96 C 484 -116 449 -132 409 -143 C 369 -154 327 -160 283 -160 C 247 -160 210 -156 173 -148 C 135 -140 102 -128 72 -110 C 42 -92 17 -69 -2 -41 C -21 -13 -31 21 -31 63 C -31 94 -25 122 -13 148 C -1 173 15 195 36 215 C 57 234 82 250 112 264 C 141 278 173 289 207 297 L 207 301 C 165 321 133 348 111 380 C 89 412 78 447 78 483 C 78 515 86 544 102 570 C 118 596 139 619 166 638 C 193 657 225 672 261 682 C 297 692 335 698 375 698 C 408 698 442 694 477 686 C 511 678 543 665 571 648 C 599 631 623 609 641 583 C 659 557 668 525 668 489 Z M 467 63 C 467 83 462 101 453 117 C 443 133 431 149 417 163 C 402 177 386 190 368 202 C 350 214 333 225 317 236 C 295 231 273 225 249 217 C 225 209 204 198 184 186 C 164 174 147 159 134 141 C 121 123 115 102 115 78 C 115 56 120 37 130 20 C 140 3 153 -10 169 -22 C 185 -33 204 -42 226 -48 C 247 -54 269 -57 293 -57 C 313 -57 334 -54 355 -49 C 375 -43 394 -36 411 -26 C 427 -16 441 -3 451 11 C 461 26 467 43 467 63 Z M 221 492 C 221 476 224 462 231 449 C 237 435 246 423 258 411 C 270 399 284 387 301 376 C 317 365 336 354 356 342 C 374 346 393 351 413 358 C 433 365 451 374 468 385 C 485 396 499 409 511 424 C 522 439 528 457 528 477 C 528 496 523 513 515 528 C 506 542 495 554 481 564 C 467 574 450 581 432 586 C 414 591 395 594 377 594 C 360 594 342 592 324 589 C 306 585 289 580 274 572 C 258 564 246 553 236 540 C 226 527 221 511 221 492 Z" unicode="₈" />
<glyph horiz-adv-x="799" d="M 47 6 C 59 -1 72 -8 87 -14 C 102 -20 118 -25 135 -29 C 152 -33 169 -37 187 -39 C 204 -41 221 -43 238 -43 C 280 -43 317 -34 350 -18 C 382 -1 411 20 435 47 C 459 74 480 105 496 139 C 512 173 525 207 535 242 L 530 242 C 496 217 460 197 424 182 C 388 167 348 160 305 160 C 271 160 239 165 208 175 C 176 185 148 200 124 220 C 99 240 79 265 65 295 C 50 325 43 361 43 401 C 43 443 51 482 68 518 C 84 554 107 586 137 612 C 167 638 202 659 242 675 C 282 690 325 698 371 698 C 411 698 451 691 489 677 C 527 663 560 643 589 615 C 617 587 640 551 658 508 C 675 465 684 414 684 356 C 684 320 680 282 673 243 C 665 203 654 164 639 126 C 623 88 603 51 579 17 C 555 -17 526 -48 492 -74 C 458 -100 419 -120 375 -136 C 331 -152 281 -160 227 -160 C 206 -160 185 -158 165 -156 C 145 -154 125 -151 107 -147 C 89 -143 72 -138 57 -134 C 42 -129 30 -124 20 -119 L 47 6 Z M 342 274 C 374 274 407 279 441 290 C 475 300 509 316 543 338 L 543 365 C 543 392 539 419 533 445 C 527 471 517 494 503 514 C 489 534 470 551 448 563 C 426 575 399 582 367 582 C 335 582 308 576 285 566 C 262 555 243 541 228 524 C 213 507 202 488 195 468 C 187 448 184 428 184 408 C 184 363 198 329 228 307 C 258 285 296 274 342 274 Z" unicode="₉" />
<glyph horiz-adv-x="410" d="" unicode=" " />
<glyph horiz-adv-x="496" d="M -59 -399 L 182 528 L 293 528 L 137 -399 L -59 -399 Z M 195 766 L 242 989 L 430 989 L 383 766 L 195 766 Z" unicode="¡" />
<glyph horiz-adv-x="920" d="M 737 1198 L 686 967 C 714 961 740 954 765 946 C 789 938 811 927 831 915 L 801 788 C 785 797 768 805 750 813 C 732 821 713 827 693 833 C 673 839 653 843 633 847 C 613 850 595 852 578 852 C 521 852 471 837 429 808 C 387 778 352 740 324 694 C 296 648 275 596 261 538 C 247 480 240 423 240 367 C 240 323 245 284 256 251 C 267 218 282 191 302 169 C 322 147 345 130 373 120 C 400 109 430 104 463 104 C 485 104 508 105 531 109 C 554 113 577 118 599 124 C 621 130 641 138 661 146 C 681 154 699 162 715 170 L 717 33 C 679 16 638 3 594 -4 C 550 -12 511 -18 475 -20 L 430 -236 L 289 -236 L 338 -10 C 292 0 253 14 220 36 C 187 57 160 84 139 116 C 118 148 103 184 93 225 C 83 266 78 311 78 360 C 78 406 82 453 91 500 C 100 547 113 593 131 637 C 149 681 171 722 197 761 C 223 799 254 834 289 864 C 323 894 362 918 405 937 C 448 956 495 968 547 973 L 596 1198 L 737 1198 Z" unicode="¢" />
<glyph horiz-adv-x="1192" d="M 147 758 L 428 758 L 479 1047 C 488 1099 504 1145 528 1184 C 551 1223 580 1256 615 1282 C 649 1308 689 1327 734 1340 C 779 1353 828 1360 881 1360 C 903 1360 928 1358 956 1356 C 984 1354 1012 1350 1041 1346 C 1069 1341 1097 1335 1125 1328 C 1152 1321 1176 1313 1198 1305 L 1165 1165 C 1149 1173 1129 1181 1107 1189 C 1085 1197 1061 1203 1036 1209 C 1011 1214 986 1218 960 1222 C 934 1225 909 1227 885 1227 C 851 1227 819 1223 791 1216 C 762 1208 737 1196 715 1180 C 693 1163 675 1142 661 1116 C 646 1090 635 1058 629 1020 L 582 758 L 971 758 L 942 627 L 559 627 C 547 563 533 508 515 462 C 497 416 476 374 450 337 C 424 299 394 265 360 233 C 326 201 286 167 242 133 L 971 133 L 940 0 L 23 0 L 49 111 C 108 159 158 202 198 239 C 238 275 272 312 299 349 C 326 386 348 426 364 470 C 380 513 394 565 406 627 L 119 627 L 147 758 Z" unicode="£" />
<glyph horiz-adv-x="1300" d="M 1077 1032 C 1103 997 1124 957 1138 913 C 1152 868 1159 820 1159 768 C 1159 724 1154 680 1145 635 C 1135 590 1121 546 1103 504 C 1085 461 1062 420 1034 382 C 1006 343 974 309 938 279 L 1067 0 L 932 -43 L 815 205 C 784 190 751 179 717 171 C 682 163 645 160 606 160 C 558 160 515 164 476 174 C 436 184 401 198 371 217 L 145 -43 L 4 0 L 268 303 C 238 340 215 382 201 429 C 187 476 180 527 180 582 C 180 624 184 668 194 713 C 203 758 217 802 235 845 C 253 888 277 929 305 968 C 333 1007 365 1042 403 1073 L 276 1341 L 424 1384 L 535 1145 C 565 1157 595 1166 627 1174 C 659 1182 693 1186 731 1186 C 780 1186 825 1180 867 1168 C 908 1156 945 1139 979 1118 L 1208 1384 L 1348 1341 L 1077 1032 Z M 1008 770 C 1008 808 1002 845 992 880 C 982 915 965 946 943 973 C 920 999 891 1021 855 1037 C 819 1053 777 1061 727 1061 C 681 1061 639 1053 601 1038 C 563 1023 530 1003 501 978 C 471 952 446 923 424 890 C 402 857 384 823 370 787 C 356 751 345 714 338 678 C 331 641 328 607 328 575 C 328 539 333 503 343 468 C 353 433 370 402 392 375 C 414 348 443 326 479 310 C 515 293 558 285 610 285 C 656 285 697 292 735 307 C 773 322 806 342 836 367 C 866 392 891 421 913 454 C 934 487 952 521 966 557 C 980 593 991 629 998 666 C 1004 702 1008 737 1008 770 Z" unicode="¤" />
<glyph horiz-adv-x="1389" d="M 1243 477 L 743 477 L 641 0 L 485 0 L 588 477 L 88 477 L 115 590 L 602 590 L 537 793 L 154 793 L 180 905 L 500 905 L 360 1339 L 528 1339 L 715 711 L 1163 1339 L 1346 1339 L 1016 905 L 1337 905 L 1311 793 L 932 793 L 778 590 L 1270 590 L 1243 477 Z" unicode="¥" />
<glyph horiz-adv-x="805" d="M 317 1569 L 487 1569 L 487 850 L 317 850 L 317 1569 Z M 317 545 L 487 545 L 487 -174 L 317 -174 L 317 545 Z" unicode="¦" />
<glyph horiz-adv-x="1217" d="M 121 -139 C 174 -167 230 -190 290 -209 C 350 -228 414 -238 483 -238 C 510 -238 537 -235 563 -229 C 589 -223 613 -214 634 -201 C 655 -188 672 -171 685 -150 C 698 -128 705 -102 705 -72 C 705 -45 698 -22 686 -2 C 674 17 656 35 632 51 C 608 67 580 82 546 97 C 512 111 473 127 430 143 C 387 159 344 177 301 198 C 257 219 218 244 183 274 C 147 304 118 339 96 379 C 74 419 63 467 63 522 C 63 571 71 616 89 657 C 107 697 131 733 162 764 C 193 795 229 821 271 841 C 313 861 358 876 406 885 L 406 889 C 382 906 363 930 347 960 C 331 990 324 1027 324 1069 C 324 1113 333 1153 351 1189 C 369 1225 395 1255 429 1281 C 463 1306 503 1325 551 1339 C 598 1353 651 1360 709 1360 C 765 1360 827 1353 893 1339 C 959 1325 1022 1302 1083 1270 L 1053 1137 C 1031 1147 1006 1158 978 1170 C 950 1182 920 1193 889 1203 C 857 1213 825 1221 793 1227 C 760 1233 728 1237 698 1237 C 668 1237 639 1233 613 1227 C 586 1220 562 1210 542 1196 C 522 1182 506 1164 494 1143 C 482 1122 477 1097 477 1069 C 477 1042 483 1019 496 1000 C 509 980 528 962 552 946 C 576 930 605 914 639 900 C 673 886 711 870 754 854 C 796 838 839 819 882 799 C 925 778 964 753 999 723 C 1034 693 1063 658 1085 618 C 1107 578 1118 531 1118 477 C 1118 426 1109 380 1091 339 C 1073 298 1048 262 1017 232 C 986 201 950 176 908 156 C 866 136 822 123 776 115 L 776 111 C 801 88 821 63 837 35 C 852 7 860 -28 860 -70 C 860 -114 850 -154 831 -190 C 811 -226 785 -256 751 -281 C 717 -306 676 -325 629 -339 C 582 -353 531 -360 475 -360 C 446 -360 416 -358 384 -355 C 352 -352 319 -347 286 -340 C 253 -333 220 -324 187 -313 C 153 -301 121 -288 90 -272 L 121 -139 Z M 674 207 C 710 208 745 215 779 227 C 813 239 844 255 871 277 C 898 299 920 325 936 356 C 952 386 961 421 961 461 C 961 497 951 530 933 558 C 914 586 886 613 848 638 C 810 663 763 688 707 712 C 650 736 584 763 508 791 C 474 789 440 783 406 771 C 372 759 341 743 315 721 C 288 699 266 673 250 643 C 233 612 225 577 225 537 C 225 499 234 466 252 438 C 270 409 298 382 336 357 C 373 332 420 308 476 284 C 532 260 598 234 674 207 Z" unicode="§" />
<glyph horiz-adv-x="840" d="M 485 1427 L 444 1237 L 281 1237 L 322 1427 L 485 1427 Z M 877 1427 L 836 1237 L 672 1237 L 713 1427 L 877 1427 Z" unicode="¨" />
<glyph horiz-adv-x="1919" d="M 944 -264 C 866 -264 792 -254 721 -235 C 650 -215 584 -188 522 -152 C 460 -116 403 -74 353 -24 C 302 25 258 80 222 141 C 186 202 158 268 138 338 C 118 408 109 482 109 559 C 109 637 119 713 140 785 C 161 857 190 925 228 988 C 266 1051 311 1108 364 1160 C 416 1212 475 1256 539 1293 C 603 1329 671 1358 744 1378 C 817 1398 893 1409 971 1409 C 1047 1409 1121 1399 1192 1379 C 1262 1359 1328 1332 1390 1296 C 1452 1260 1508 1218 1558 1168 C 1608 1118 1652 1062 1688 1001 C 1724 940 1752 874 1772 804 C 1792 733 1802 660 1802 584 C 1802 505 1791 429 1771 357 C 1750 285 1721 217 1683 155 C 1645 92 1600 35 1548 -16 C 1495 -68 1437 -112 1374 -149 C 1310 -185 1242 -214 1170 -234 C 1097 -254 1022 -264 944 -264 Z M 944 -160 C 1011 -160 1076 -151 1139 -133 C 1202 -115 1261 -90 1316 -58 C 1370 -26 1420 12 1465 58 C 1510 103 1549 153 1581 208 C 1613 263 1638 322 1656 385 C 1674 448 1683 514 1683 582 C 1683 648 1674 712 1657 774 C 1640 835 1616 892 1585 946 C 1554 1000 1517 1049 1474 1093 C 1430 1137 1382 1174 1329 1206 C 1276 1237 1219 1261 1159 1279 C 1098 1296 1035 1305 969 1305 C 901 1305 836 1296 774 1278 C 712 1260 653 1234 598 1202 C 543 1170 493 1131 448 1086 C 402 1040 363 990 331 935 C 299 880 274 821 256 758 C 238 694 229 629 229 561 C 229 494 237 430 254 369 C 271 307 295 250 327 197 C 358 143 395 95 439 51 C 483 7 531 -30 584 -62 C 636 -93 693 -117 754 -134 C 815 -151 878 -160 944 -160 Z M 1268 823 C 1252 833 1234 842 1214 852 C 1193 862 1171 870 1148 877 C 1124 884 1100 890 1075 894 C 1049 898 1024 901 999 901 C 955 901 914 894 875 881 C 835 868 800 848 770 822 C 739 795 715 762 697 722 C 679 682 670 636 670 582 C 670 528 678 482 696 443 C 714 404 737 372 767 347 C 797 321 831 302 870 290 C 909 278 950 272 993 272 C 1055 272 1110 280 1158 296 C 1206 312 1246 329 1278 348 L 1292 227 C 1274 218 1256 209 1236 201 C 1216 193 1193 185 1169 179 C 1144 172 1117 166 1088 162 C 1058 158 1026 156 991 156 C 928 156 868 165 812 183 C 756 201 706 227 664 263 C 621 298 587 342 562 394 C 536 446 524 506 524 575 C 524 647 537 710 564 766 C 591 821 627 867 671 905 C 715 942 765 970 822 989 C 878 1008 937 1018 997 1018 C 1049 1018 1099 1010 1147 996 C 1195 982 1240 964 1282 944 L 1268 823 Z" unicode="©" />
<glyph horiz-adv-x="891" d="M 635 492 C 635 510 635 529 635 547 C 635 565 636 583 637 601 C 638 619 640 638 643 658 C 645 677 649 697 655 719 L 651 719 C 631 685 611 653 589 623 C 567 593 543 568 517 546 C 491 524 463 506 434 494 C 404 481 373 475 340 475 C 308 475 279 481 252 493 C 225 505 202 523 182 547 C 162 571 146 601 134 637 C 122 673 117 716 117 766 C 117 804 121 844 130 884 C 138 924 151 964 167 1002 C 183 1040 203 1075 227 1109 C 250 1143 276 1172 306 1197 C 336 1222 368 1242 404 1256 C 439 1270 477 1278 518 1278 C 547 1278 573 1274 596 1267 C 619 1260 640 1250 658 1238 C 676 1226 692 1211 706 1195 C 720 1178 732 1160 743 1141 L 745 1141 L 772 1262 L 903 1262 L 803 807 C 797 783 793 760 789 738 C 785 716 781 692 779 667 C 777 642 775 615 774 587 C 772 558 772 526 772 492 L 635 492 Z M 711 1022 C 701 1042 690 1061 680 1079 C 670 1097 658 1112 644 1125 C 630 1137 614 1147 596 1154 C 578 1161 556 1165 532 1165 C 501 1165 473 1158 448 1146 C 422 1134 400 1117 380 1096 C 360 1075 342 1051 328 1024 C 313 997 301 969 292 940 C 282 910 275 881 271 852 C 266 822 264 795 264 770 C 264 748 265 726 269 704 C 272 682 278 663 286 646 C 294 628 304 614 318 604 C 331 593 347 588 367 588 C 391 588 414 594 438 607 C 462 619 484 636 506 657 C 528 677 548 701 568 728 C 587 755 605 783 621 811 C 637 839 652 866 664 894 C 676 922 686 947 694 969 L 711 1022 Z" unicode="ª" />
<glyph horiz-adv-x="1047" d="M 555 901 L 236 565 L 395 246 L 262 246 L 78 518 L 102 629 L 403 901 L 555 901 Z M 993 901 L 674 565 L 836 246 L 700 246 L 518 518 L 541 629 L 842 901 L 993 901 Z" unicode="«" />
<glyph horiz-adv-x="1106" d="M 1049 907 L 1049 256 L 905 256 L 905 774 L 55 774 L 55 907 L 1049 907 Z" unicode="¬" />
<glyph horiz-adv-x="1057" d="M 598 610 C 532 610 470 622 412 646 C 354 670 303 704 260 747 C 217 789 183 839 158 897 C 133 954 121 1015 121 1081 C 121 1148 134 1211 160 1270 C 186 1329 221 1381 266 1425 C 310 1469 362 1503 422 1529 C 481 1554 544 1567 612 1567 C 677 1567 738 1554 796 1530 C 854 1505 904 1471 947 1429 C 989 1386 1023 1336 1048 1278 C 1072 1220 1085 1159 1085 1094 C 1085 1026 1072 963 1046 905 C 1020 846 986 795 942 751 C 898 707 846 673 787 648 C 727 622 664 610 598 610 Z M 598 688 C 653 688 705 698 754 720 C 803 741 846 770 882 807 C 918 843 947 886 969 936 C 990 985 1001 1038 1001 1094 C 1001 1148 990 1199 970 1247 C 950 1295 922 1337 887 1373 C 851 1409 810 1437 762 1458 C 714 1478 664 1489 610 1489 C 555 1489 503 1478 454 1456 C 405 1434 362 1405 326 1368 C 289 1331 260 1288 239 1239 C 217 1189 207 1137 207 1081 C 207 1027 217 976 238 928 C 258 880 286 838 322 803 C 357 767 398 739 446 719 C 493 698 544 688 598 688 Z M 471 1362 L 600 1362 C 638 1362 673 1359 704 1354 C 734 1349 760 1341 782 1330 C 804 1318 820 1304 832 1286 C 844 1268 850 1246 850 1221 C 850 1197 845 1176 836 1158 C 826 1140 814 1124 799 1110 C 783 1096 765 1085 745 1077 C 725 1068 704 1062 682 1059 L 809 834 L 694 834 L 580 1049 L 500 1049 L 449 834 L 344 834 L 471 1362 Z M 590 1126 C 606 1126 624 1127 642 1129 C 660 1131 676 1136 691 1142 C 705 1148 717 1156 727 1167 C 736 1177 741 1191 741 1208 C 741 1224 736 1238 728 1248 C 719 1258 708 1265 696 1271 C 683 1276 669 1279 655 1281 C 640 1283 626 1284 614 1284 L 555 1284 L 516 1126 L 590 1126 Z" unicode="®" />
<glyph horiz-adv-x="840" d="M 840 1360 L 815 1243 L 303 1243 L 328 1360 L 840 1360 Z" unicode="¯" />
<glyph horiz-adv-x="850" d="M 838 1090 C 838 1045 829 1003 812 963 C 795 923 772 888 743 858 C 714 828 680 804 640 786 C 600 768 558 760 514 760 C 469 760 427 768 387 786 C 347 804 313 828 283 858 C 253 888 229 923 212 963 C 194 1003 186 1045 186 1090 C 186 1134 194 1177 212 1217 C 229 1257 253 1292 283 1322 C 313 1352 347 1375 387 1393 C 427 1410 469 1419 514 1419 C 558 1419 600 1410 640 1393 C 680 1375 714 1352 743 1322 C 772 1292 795 1257 812 1217 C 829 1177 838 1134 838 1090 Z M 711 1090 C 711 1118 705 1144 695 1169 C 685 1194 671 1216 653 1235 C 635 1253 614 1268 590 1279 C 566 1290 540 1296 514 1296 C 487 1296 462 1290 438 1279 C 414 1268 392 1253 374 1235 C 356 1216 341 1194 331 1169 C 320 1144 315 1118 315 1090 C 315 1062 320 1035 331 1010 C 341 985 356 963 374 944 C 392 925 414 910 438 899 C 462 888 487 883 514 883 C 540 883 566 888 590 899 C 614 910 635 925 653 944 C 671 963 685 985 695 1010 C 705 1035 711 1062 711 1090 Z" unicode="°" />
<glyph horiz-adv-x="1106" d="M 53 786 L 481 786 L 481 1184 L 623 1184 L 623 786 L 1051 786 L 1051 651 L 623 651 L 623 252 L 481 252 L 481 651 L 53 651 L 53 786 Z M 53 131 L 1051 131 L 1051 0 L 53 0 L 53 131 Z" unicode="±" />
<glyph horiz-adv-x="702" d="M 180 1298 C 202 1311 231 1324 266 1337 C 301 1349 345 1356 399 1356 C 432 1356 466 1352 500 1345 C 534 1338 566 1326 594 1309 C 622 1292 645 1269 663 1240 C 681 1210 690 1174 690 1130 C 690 1092 683 1058 669 1028 C 655 998 635 969 611 943 C 586 916 557 889 525 862 C 492 835 457 806 420 774 L 248 625 L 631 625 L 606 510 L 49 510 L 70 606 L 352 860 C 386 892 416 919 441 942 C 466 965 487 986 503 1005 C 519 1024 530 1042 538 1060 C 545 1077 549 1096 549 1116 C 549 1159 533 1191 503 1211 C 472 1231 433 1241 385 1241 C 341 1241 303 1234 269 1222 C 235 1209 207 1196 184 1182 L 180 1298 Z" unicode="²" />
<glyph horiz-adv-x="717" d="M 207 1323 C 232 1331 263 1338 299 1345 C 335 1352 374 1356 416 1356 C 446 1356 478 1353 511 1347 C 544 1341 574 1330 601 1316 C 628 1302 650 1282 668 1258 C 685 1233 694 1202 694 1165 C 694 1141 690 1118 682 1096 C 674 1074 662 1053 647 1035 C 631 1016 612 1000 590 987 C 568 973 542 964 514 958 L 514 954 C 534 946 552 937 570 926 C 588 915 603 902 616 886 C 629 870 639 851 647 830 C 655 809 659 785 659 758 C 659 717 650 681 633 649 C 616 617 592 589 562 567 C 531 545 494 528 452 516 C 410 504 363 498 313 498 C 275 498 235 501 194 509 C 153 517 111 531 68 553 L 94 678 C 108 671 123 664 140 656 C 157 648 175 641 195 635 C 215 629 235 624 257 620 C 279 616 302 614 326 614 C 352 614 377 617 400 623 C 423 629 443 637 460 649 C 477 661 490 675 500 693 C 509 710 514 730 514 754 C 514 781 507 804 494 823 C 481 841 464 856 444 868 C 424 879 401 887 377 892 C 353 896 329 899 307 899 L 236 899 L 248 1014 L 340 1014 C 360 1013 383 1015 407 1019 C 431 1023 453 1030 474 1040 C 494 1050 512 1063 526 1081 C 540 1098 547 1120 547 1147 C 547 1165 543 1181 537 1193 C 530 1205 521 1214 509 1221 C 497 1228 483 1233 467 1236 C 450 1239 432 1241 412 1241 C 392 1241 373 1240 354 1238 C 334 1236 316 1233 299 1229 C 281 1225 265 1221 250 1217 C 234 1213 221 1208 209 1204 L 207 1323 Z" unicode="³" />
<glyph horiz-adv-x="840" d="M 836 1493 L 559 1174 L 416 1174 L 635 1493 L 836 1493 Z" unicode="´" />
<glyph horiz-adv-x="1114" d="M 909 383 C 903 354 897 325 892 297 C 886 269 881 239 877 209 C 873 178 869 146 867 112 C 865 78 864 40 864 0 L 717 0 C 717 44 719 88 724 134 C 728 179 733 220 739 256 L 735 256 C 710 214 683 177 653 143 C 623 109 592 80 559 56 C 525 32 491 13 455 0 C 419 -13 384 -20 348 -20 C 332 -20 315 -18 299 -15 C 283 -12 267 -7 253 0 C 239 7 226 17 214 29 C 202 41 193 56 186 74 L 182 74 C 181 64 180 52 179 36 C 177 20 176 4 174 -13 C 172 -30 169 -47 167 -65 C 165 -83 162 -98 160 -111 L 96 -410 L -59 -410 L 231 989 L 387 989 L 289 522 C 281 484 274 451 268 425 C 262 398 258 375 254 355 C 250 335 247 317 245 303 C 243 288 242 274 242 260 C 242 212 253 174 275 145 C 297 116 329 102 373 102 C 401 102 431 108 461 121 C 491 134 520 152 549 174 C 577 196 605 221 631 250 C 657 278 680 308 702 340 C 723 371 741 402 755 434 C 769 466 780 496 786 524 L 885 989 L 1040 989 L 909 383 Z" unicode="µ" />
<glyph horiz-adv-x="1348" d="M 922 -451 L 768 -451 L 1130 1266 L 813 1266 L 451 -451 L 301 -451 L 518 571 C 454 578 399 593 352 616 C 305 638 266 667 235 701 C 204 735 181 773 166 816 C 150 859 143 904 143 952 C 143 1010 153 1066 174 1120 C 195 1173 225 1220 265 1260 C 305 1300 353 1331 409 1355 C 465 1379 529 1391 600 1391 L 1309 1391 L 922 -451 Z" unicode="¶" />
<glyph horiz-adv-x="487" d="M 356 702 L 356 465 L 129 465 L 129 702 L 356 702 Z" unicode="·" />
<glyph horiz-adv-x="840" d="M 365 6 L 356 -31 C 354 -38 354 -44 356 -49 C 358 -54 361 -59 365 -63 L 412 -127 C 414 -131 418 -136 423 -143 C 428 -150 433 -159 438 -169 C 442 -179 446 -191 450 -204 C 453 -217 455 -232 455 -248 C 455 -278 448 -305 436 -331 C 423 -356 405 -378 383 -396 C 361 -414 334 -428 303 -438 C 271 -448 237 -453 199 -453 C 165 -453 132 -449 99 -442 C 65 -434 38 -425 18 -414 L 55 -305 C 63 -311 74 -316 86 -320 C 98 -324 110 -328 123 -332 C 136 -335 149 -337 163 -339 C 176 -341 189 -342 201 -342 C 213 -342 226 -340 240 -338 C 254 -335 266 -330 277 -324 C 288 -317 297 -308 304 -296 C 311 -284 315 -270 315 -252 C 315 -236 312 -223 306 -212 C 300 -201 292 -189 281 -176 L 231 -121 C 225 -115 221 -108 219 -101 C 217 -94 217 -85 221 -74 L 240 6 L 365 6 Z" unicode="¸" />
<glyph horiz-adv-x="477" d="M 326 1198 L 145 1145 L 145 1266 L 416 1341 L 494 1341 L 319 510 L 180 510 L 326 1198 Z" unicode="¹" />
<glyph horiz-adv-x="852" d="M 846 969 C 846 933 842 897 834 859 C 826 821 814 783 798 747 C 782 710 761 675 737 642 C 713 609 685 580 653 556 C 621 531 586 511 546 497 C 506 482 463 475 416 475 C 368 475 326 482 289 498 C 252 513 221 534 195 562 C 169 590 150 623 137 661 C 123 699 117 742 117 788 C 117 823 121 859 129 897 C 137 935 148 972 164 1008 C 180 1044 200 1079 224 1111 C 248 1143 275 1172 307 1196 C 339 1220 374 1240 414 1254 C 454 1268 497 1276 545 1276 C 593 1276 636 1268 674 1253 C 711 1238 742 1217 768 1190 C 793 1162 812 1130 826 1092 C 839 1054 846 1013 846 969 Z M 700 963 C 700 991 696 1018 690 1043 C 684 1067 674 1089 661 1107 C 647 1125 630 1139 610 1149 C 590 1159 566 1165 539 1165 C 497 1165 459 1153 425 1130 C 391 1106 361 1077 337 1041 C 313 1005 294 965 281 921 C 268 877 262 834 262 793 C 262 763 265 735 272 710 C 278 685 288 664 302 646 C 315 628 332 613 352 603 C 372 593 396 588 424 588 C 466 588 505 599 539 623 C 573 646 602 676 626 713 C 650 749 668 790 681 834 C 693 878 700 921 700 963 Z" unicode="º" />
<glyph horiz-adv-x="1047" d="M 485 246 L 805 582 L 643 901 L 778 901 L 961 629 L 938 518 L 637 246 L 485 246 Z M 45 246 L 365 582 L 205 901 L 338 901 L 522 629 L 498 518 L 199 246 L 45 246 Z" unicode="»" />
<glyph horiz-adv-x="1511" d="M 326 1198 L 145 1145 L 145 1266 L 416 1341 L 494 1341 L 319 510 L 180 510 L 326 1198 Z M 1049 1339 L 1190 1339 L 289 0 L 147 0 L 1049 1339 Z M 1249 184 L 1210 0 L 1071 0 L 1110 184 L 700 184 L 721 285 L 1204 834 L 1384 834 L 1272 293 L 1407 293 L 1386 184 L 1249 184 Z M 854 293 L 1135 293 L 1223 705 L 1217 705 L 854 293 Z" unicode="¼" />
<glyph horiz-adv-x="1563" d="M 326 1198 L 145 1145 L 145 1266 L 416 1341 L 494 1341 L 319 510 L 180 510 L 326 1198 Z M 1049 1339 L 1190 1339 L 289 0 L 147 0 L 1049 1339 Z M 958 788 C 980 801 1009 814 1045 827 C 1080 839 1124 846 1178 846 C 1211 846 1245 842 1279 835 C 1313 828 1345 816 1373 799 C 1401 782 1423 759 1441 730 C 1459 701 1468 665 1468 621 C 1468 582 1461 548 1447 518 C 1433 488 1413 460 1389 433 C 1365 406 1336 379 1303 352 C 1270 325 1235 296 1198 264 L 1026 115 L 1409 115 L 1384 0 L 827 0 L 848 96 L 1130 350 C 1164 382 1194 409 1219 432 C 1244 455 1265 476 1281 495 C 1297 514 1308 532 1316 550 C 1323 567 1327 586 1327 606 C 1327 649 1311 681 1281 701 C 1251 721 1211 731 1163 731 C 1119 731 1081 724 1048 712 C 1014 699 986 686 963 672 L 958 788 Z" unicode="½" />
<glyph horiz-adv-x="1722" d="M 207 1323 C 232 1331 263 1338 299 1345 C 335 1352 374 1356 416 1356 C 446 1356 478 1353 511 1347 C 544 1341 574 1330 601 1316 C 628 1302 650 1282 668 1258 C 685 1233 694 1202 694 1165 C 694 1141 690 1118 682 1096 C 674 1074 662 1053 647 1035 C 631 1016 612 1000 590 987 C 568 973 542 964 514 958 L 514 954 C 534 946 552 937 570 926 C 588 915 603 902 616 886 C 629 870 639 851 647 830 C 655 809 659 785 659 758 C 659 717 650 681 633 649 C 616 617 592 589 562 567 C 531 545 494 528 452 516 C 410 504 363 498 313 498 C 275 498 235 501 194 509 C 153 517 111 531 68 553 L 94 678 C 108 671 123 664 140 656 C 157 648 175 641 195 635 C 215 629 235 624 257 620 C 279 616 302 614 326 614 C 352 614 377 617 400 623 C 423 629 443 637 460 649 C 477 661 490 675 500 693 C 509 710 514 730 514 754 C 514 781 507 804 494 823 C 481 841 464 856 444 868 C 424 879 401 887 377 892 C 353 896 329 899 307 899 L 236 899 L 248 1014 L 340 1014 C 360 1013 383 1015 407 1019 C 431 1023 453 1030 474 1040 C 494 1050 512 1063 526 1081 C 540 1098 547 1120 547 1147 C 547 1165 543 1181 537 1193 C 530 1205 521 1214 509 1221 C 497 1228 483 1233 467 1236 C 450 1239 432 1241 412 1241 C 392 1241 373 1240 354 1238 C 334 1236 316 1233 299 1229 C 281 1225 265 1221 250 1217 C 234 1213 221 1208 209 1204 L 207 1323 Z M 1260 1339 L 1401 1339 L 500 0 L 358 0 L 1260 1339 Z M 1460 184 L 1421 0 L 1282 0 L 1321 184 L 911 184 L 932 285 L 1415 834 L 1595 834 L 1483 293 L 1618 293 L 1597 184 L 1460 184 Z M 1065 293 L 1346 293 L 1434 705 L 1427 705 L 1065 293 Z" unicode="¾" />
<glyph horiz-adv-x="883" d="M 508 766 L 555 989 L 743 989 L 696 766 L 508 766 Z M 639 -369 C 607 -385 566 -397 517 -406 C 468 -415 416 -420 362 -420 C 332 -420 300 -418 267 -415 C 233 -411 201 -405 169 -397 C 137 -389 106 -377 77 -363 C 48 -349 23 -330 1 -308 C -20 -286 -37 -259 -50 -228 C -63 -197 -70 -161 -70 -119 C -70 -71 -61 -29 -44 6 C -27 41 -5 72 21 98 C 48 124 78 147 112 167 C 146 187 179 205 213 223 C 242 238 270 253 297 267 C 323 281 347 297 369 314 C 391 330 409 349 425 369 C 440 389 451 412 457 440 L 477 528 L 629 528 L 600 397 C 591 357 576 324 556 296 C 535 268 511 243 483 222 C 455 201 424 182 392 166 C 359 149 327 133 295 117 C 268 103 242 88 218 73 C 194 58 172 41 154 23 C 136 5 121 -15 110 -38 C 99 -60 94 -86 94 -115 C 94 -149 101 -176 117 -198 C 132 -220 152 -237 177 -250 C 201 -263 229 -272 261 -277 C 293 -282 325 -285 358 -285 C 408 -285 458 -280 507 -270 C 555 -260 599 -247 639 -231 L 639 -369 Z" unicode="¿" />
<glyph horiz-adv-x="1249" d="M 723 1389 L 874 1389 L 1100 0 L 934 0 L 872 393 L 328 393 L 115 0 L -66 0 L 723 1389 Z M 401 526 L 852 526 L 780 997 C 778 1009 776 1024 774 1040 C 772 1056 770 1073 768 1090 C 766 1107 764 1124 763 1140 C 761 1156 760 1171 760 1184 L 752 1184 C 746 1171 739 1156 731 1139 C 723 1122 714 1105 705 1088 C 696 1070 687 1054 679 1038 C 670 1022 663 1008 657 997 L 401 526 Z M 748 1839 L 955 1540 L 811 1540 L 551 1839 L 748 1839 Z" unicode="À" />
<glyph horiz-adv-x="1249" d="M 723 1389 L 874 1389 L 1100 0 L 934 0 L 872 393 L 328 393 L 115 0 L -66 0 L 723 1389 Z M 401 526 L 852 526 L 780 997 C 778 1009 776 1024 774 1040 C 772 1056 770 1073 768 1090 C 766 1107 764 1124 763 1140 C 761 1156 760 1171 760 1184 L 752 1184 C 746 1171 739 1156 731 1139 C 723 1122 714 1105 705 1088 C 696 1070 687 1054 679 1038 C 670 1022 663 1008 657 997 L 401 526 Z M 1100 1839 L 840 1540 L 697 1540 L 903 1839 L 1100 1839 Z" unicode="Á" />
<glyph horiz-adv-x="1249" d="M 723 1389 L 874 1389 L 1100 0 L 934 0 L 872 393 L 328 393 L 115 0 L -66 0 L 723 1389 Z M 401 526 L 852 526 L 780 997 C 778 1009 776 1024 774 1040 C 772 1056 770 1073 768 1090 C 766 1107 764 1124 763 1140 C 761 1156 760 1171 760 1184 L 752 1184 C 746 1171 739 1156 731 1139 C 723 1122 714 1105 705 1088 C 696 1070 687 1054 679 1038 C 670 1022 663 1008 657 997 L 401 526 Z M 981 1839 L 1133 1540 L 1016 1540 L 881 1737 L 871 1737 L 650 1540 L 516 1540 L 795 1839 L 981 1839 Z" unicode="Â" />
<glyph horiz-adv-x="1249" d="M 723 1389 L 874 1389 L 1100 0 L 934 0 L 872 393 L 328 393 L 115 0 L -66 0 L 723 1389 Z M 401 526 L 852 526 L 780 997 C 778 1009 776 1024 774 1040 C 772 1056 770 1073 768 1090 C 766 1107 764 1124 763 1140 C 761 1156 760 1171 760 1184 L 752 1184 C 746 1171 739 1156 731 1139 C 723 1122 714 1105 705 1088 C 696 1070 687 1054 679 1038 C 670 1022 663 1008 657 997 L 401 526 Z M 461 1540 C 471 1584 484 1625 501 1663 C 518 1701 538 1733 562 1761 C 586 1788 612 1809 642 1824 C 672 1839 704 1847 740 1847 C 770 1847 797 1840 822 1826 C 847 1812 872 1788 897 1753 L 932 1704 C 942 1689 953 1676 965 1665 C 976 1654 991 1649 1010 1649 C 1028 1649 1044 1654 1060 1666 C 1076 1677 1090 1692 1102 1710 C 1114 1728 1125 1748 1134 1771 C 1143 1793 1150 1816 1155 1839 L 1270 1839 C 1260 1793 1247 1752 1230 1715 C 1213 1677 1193 1645 1169 1618 C 1145 1590 1119 1569 1089 1554 C 1059 1539 1028 1532 994 1532 C 958 1532 928 1540 904 1557 C 880 1574 858 1597 838 1626 L 803 1675 C 799 1679 795 1685 791 1691 C 786 1697 780 1704 773 1710 C 766 1716 758 1721 750 1725 C 741 1729 731 1731 721 1731 C 704 1731 688 1725 673 1715 C 658 1704 644 1690 632 1673 C 619 1655 608 1635 599 1612 C 589 1588 582 1564 578 1540 L 461 1540 L 461 1540 Z" unicode="Ã" />
<glyph horiz-adv-x="1249" d="M 723 1389 L 874 1389 L 1100 0 L 934 0 L 872 393 L 328 393 L 115 0 L -66 0 L 723 1389 Z M 401 526 L 852 526 L 780 997 C 778 1009 776 1024 774 1040 C 772 1056 770 1073 768 1090 C 766 1107 764 1124 763 1140 C 761 1156 760 1171 760 1184 L 752 1184 C 746 1171 739 1156 731 1139 C 723 1122 714 1105 705 1088 C 696 1070 687 1054 679 1038 C 670 1022 663 1008 657 997 L 401 526 Z M 758 1759 L 717 1569 L 553 1569 L 594 1759 L 758 1759 Z M 1149 1759 L 1108 1569 L 944 1569 L 985 1759 L 1149 1759 Z" unicode="Ä" />
<glyph horiz-adv-x="1249" d="M 723 1389 L 874 1389 L 1100 0 L 934 0 L 872 393 L 328 393 L 115 0 L -66 0 L 723 1389 Z M 401 526 L 852 526 L 780 997 C 778 1009 776 1024 774 1040 C 772 1056 770 1073 768 1090 C 766 1107 764 1124 763 1140 C 761 1156 760 1171 760 1184 L 752 1184 C 746 1171 739 1156 731 1139 C 723 1122 714 1105 705 1088 C 696 1070 687 1054 679 1038 C 670 1022 663 1008 657 997 L 401 526 Z M 600 1698 C 600 1731 606 1762 620 1791 C 633 1820 651 1845 674 1867 C 696 1889 723 1906 753 1918 C 783 1930 816 1937 850 1937 C 884 1937 916 1930 946 1918 C 976 1906 1003 1889 1025 1867 C 1047 1845 1065 1820 1078 1791 C 1091 1762 1098 1731 1098 1698 C 1098 1665 1091 1634 1078 1606 C 1065 1577 1047 1552 1025 1531 C 1003 1509 976 1492 946 1480 C 916 1468 884 1462 850 1462 C 816 1462 783 1468 753 1480 C 723 1492 696 1509 674 1531 C 651 1552 633 1577 620 1606 C 606 1634 600 1665 600 1698 Z M 850 1845 C 830 1845 811 1841 793 1833 C 775 1825 760 1815 747 1801 C 734 1787 724 1772 716 1754 C 708 1736 705 1718 705 1698 C 705 1678 708 1660 716 1642 C 724 1624 734 1609 747 1596 C 760 1583 775 1573 793 1565 C 811 1557 830 1554 850 1554 C 870 1554 888 1557 906 1565 C 923 1573 938 1583 951 1596 C 964 1609 974 1624 982 1642 C 990 1660 994 1678 994 1698 C 994 1718 990 1736 982 1754 C 974 1772 964 1787 951 1801 C 938 1815 923 1825 906 1833 C 888 1841 870 1845 850 1845 Z" unicode="Å" />
<glyph horiz-adv-x="1837" d="M 885 383 L 371 383 L 76 0 L -104 0 L 985 1389 L 1874 1389 L 1841 1255 L 1229 1255 L 1130 784 L 1671 784 L 1645 649 L 1102 649 L 995 133 L 1659 133 L 1626 0 L 805 0 L 885 383 Z M 475 516 L 913 516 L 1030 1069 C 1037 1104 1043 1133 1048 1155 C 1052 1177 1056 1196 1059 1211 C 1062 1225 1065 1237 1067 1247 C 1069 1256 1072 1266 1075 1276 L 1061 1276 C 1049 1260 1037 1244 1026 1230 C 1014 1216 1002 1201 990 1185 C 978 1169 964 1151 950 1132 C 935 1112 918 1090 899 1065 L 475 516 Z" unicode="Æ" />
<glyph horiz-adv-x="1249" d="M 1249 1176 C 1223 1192 1194 1205 1163 1217 C 1132 1228 1101 1237 1069 1245 C 1037 1253 1005 1258 974 1262 C 942 1266 913 1268 887 1268 C 797 1268 715 1249 643 1212 C 570 1175 508 1126 456 1064 C 404 1002 365 931 337 851 C 309 771 295 688 295 602 C 295 520 307 448 332 388 C 356 328 390 278 432 238 C 474 198 523 169 579 150 C 635 130 694 121 758 121 C 782 121 809 122 837 125 C 865 128 894 133 924 139 C 953 145 982 152 1010 162 C 1038 171 1063 182 1087 195 L 1087 47 C 1063 36 1036 26 1007 18 C 978 10 948 3 918 -2 C 887 -8 856 -12 825 -15 C 794 -18 765 -20 737 -20 C 729 -20 722 -20 715 -20 C 708 -20 701 -19 694 -18 C 690 -31 690 -41 692 -47 C 694 -53 696 -59 700 -63 L 748 -127 C 750 -131 754 -136 759 -143 C 764 -150 769 -159 774 -169 C 778 -179 782 -191 786 -204 C 789 -217 791 -232 791 -248 C 791 -278 784 -305 772 -331 C 759 -356 741 -378 719 -396 C 697 -414 670 -428 639 -438 C 607 -448 573 -453 535 -453 C 501 -453 468 -449 435 -442 C 401 -434 374 -425 354 -414 L 391 -305 C 399 -311 410 -316 422 -320 C 434 -324 446 -328 459 -332 C 472 -335 485 -337 499 -339 C 512 -341 525 -342 537 -342 C 549 -342 562 -340 576 -338 C 590 -335 602 -330 613 -324 C 624 -317 633 -308 640 -296 C 647 -284 651 -270 651 -252 C 651 -236 648 -223 642 -212 C 636 -201 627 -189 616 -176 L 567 -121 C 561 -115 557 -108 555 -101 C 553 -94 553 -85 557 -74 L 573 -2 C 507 12 447 36 393 70 C 338 103 291 145 252 196 C 212 246 182 305 160 372 C 138 438 127 512 127 594 C 127 664 135 732 151 800 C 167 868 191 932 222 992 C 253 1052 291 1108 336 1159 C 381 1210 432 1254 489 1291 C 546 1328 609 1357 677 1378 C 745 1398 819 1409 897 1409 C 927 1409 958 1407 992 1404 C 1026 1400 1060 1395 1094 1388 C 1128 1381 1161 1372 1194 1362 C 1227 1351 1258 1339 1286 1325 L 1249 1176 Z" unicode="Ç" />
<glyph horiz-adv-x="1106" d="M 1143 1389 L 1116 1255 L 500 1255 L 399 784 L 942 784 L 913 649 L 373 649 L 264 133 L 926 133 L 895 0 L 74 0 L 371 1389 L 1143 1389 Z M 701 1839 L 908 1540 L 764 1540 L 504 1839 L 701 1839 Z" unicode="È" />
<glyph horiz-adv-x="1106" d="M 1143 1389 L 1116 1255 L 500 1255 L 399 784 L 942 784 L 913 649 L 373 649 L 264 133 L 926 133 L 895 0 L 74 0 L 371 1389 L 1143 1389 Z M 1053 1839 L 793 1540 L 650 1540 L 856 1839 L 1053 1839 Z" unicode="É" />
<glyph horiz-adv-x="1106" d="M 1143 1389 L 1116 1255 L 500 1255 L 399 784 L 942 784 L 913 649 L 373 649 L 264 133 L 926 133 L 895 0 L 74 0 L 371 1389 L 1143 1389 Z M 934 1839 L 1086 1540 L 969 1540 L 834 1737 L 824 1737 L 603 1540 L 469 1540 L 748 1839 L 934 1839 Z" unicode="Ê" />
<glyph horiz-adv-x="1106" d="M 1143 1389 L 1116 1255 L 500 1255 L 399 784 L 942 784 L 913 649 L 373 649 L 264 133 L 926 133 L 895 0 L 74 0 L 371 1389 L 1143 1389 Z M 711 1759 L 670 1569 L 506 1569 L 547 1759 L 711 1759 Z M 1102 1759 L 1061 1569 L 897 1569 L 938 1759 L 1102 1759 Z" unicode="Ë" />
<glyph horiz-adv-x="555" d="M 530 1389 L 233 0 L 74 0 L 371 1389 L 530 1389 Z M 403 1839 L 610 1540 L 467 1540 L 207 1839 L 403 1839 Z" unicode="Ì" />
<glyph horiz-adv-x="555" d="M 530 1389 L 233 0 L 74 0 L 371 1389 L 530 1389 Z M 756 1839 L 496 1540 L 352 1540 L 559 1839 L 756 1839 Z" unicode="Í" />
<glyph horiz-adv-x="555" d="M 530 1389 L 233 0 L 74 0 L 371 1389 L 530 1389 Z M 637 1839 L 788 1540 L 672 1540 L 537 1737 L 526 1737 L 305 1540 L 172 1540 L 451 1839 L 637 1839 Z" unicode="Î" />
<glyph horiz-adv-x="555" d="M 530 1389 L 233 0 L 74 0 L 371 1389 L 530 1389 Z M 414 1759 L 373 1569 L 209 1569 L 250 1759 L 414 1759 Z M 805 1759 L 764 1569 L 600 1569 L 641 1759 L 805 1759 Z" unicode="Ï" />
<glyph horiz-adv-x="1405" d="M 76 784 L 250 784 L 377 1389 C 385 1389 398 1390 414 1391 C 430 1391 448 1392 468 1393 C 488 1394 508 1395 530 1396 C 552 1396 572 1397 592 1397 C 702 1397 802 1383 892 1357 C 982 1330 1058 1290 1122 1238 C 1186 1185 1235 1119 1270 1041 C 1305 963 1323 872 1323 770 C 1323 704 1315 640 1301 576 C 1287 512 1264 452 1234 395 C 1203 337 1164 284 1117 235 C 1070 186 1014 144 948 108 C 882 72 807 44 723 24 C 639 4 544 -6 440 -6 C 408 -6 374 -5 338 -4 C 302 -2 268 -1 236 0 C 203 2 173 3 147 5 C 121 6 102 7 90 8 L 223 649 L 45 649 L 76 784 Z M 408 784 L 723 784 L 694 649 L 381 649 L 276 133 C 305 129 338 127 376 125 C 414 123 449 123 481 123 C 591 123 688 140 772 176 C 856 212 927 259 984 319 C 1041 379 1084 447 1113 524 C 1142 600 1157 680 1157 762 C 1157 847 1142 921 1112 985 C 1082 1049 1041 1102 991 1144 C 940 1186 881 1217 815 1238 C 749 1259 680 1270 608 1270 C 588 1270 570 1269 554 1269 C 537 1268 521 1267 506 1266 L 408 784 Z" unicode="Ð" />
<glyph horiz-adv-x="1456" d="M 1274 1389 L 1432 1389 L 1137 0 L 995 0 L 471 1139 L 463 1139 C 457 1105 453 1076 449 1054 C 445 1031 442 1010 439 991 C 435 972 432 953 428 935 C 424 917 420 896 416 872 L 233 0 L 74 0 L 371 1389 L 514 1389 L 1038 250 L 1047 250 C 1051 282 1055 309 1059 332 C 1062 355 1065 376 1068 395 C 1071 414 1074 433 1078 452 C 1082 470 1086 492 1092 516 L 1274 1389 Z M 567 1540 C 577 1584 590 1625 607 1663 C 624 1701 644 1733 668 1761 C 692 1788 718 1809 748 1824 C 778 1839 810 1847 846 1847 C 876 1847 903 1840 928 1826 C 953 1812 978 1788 1003 1753 L 1038 1704 C 1048 1689 1059 1676 1071 1665 C 1082 1654 1097 1649 1116 1649 C 1134 1649 1150 1654 1166 1666 C 1182 1677 1196 1692 1208 1710 C 1220 1728 1231 1748 1240 1771 C 1249 1793 1256 1816 1261 1839 L 1376 1839 C 1366 1793 1353 1752 1336 1715 C 1319 1677 1299 1645 1275 1618 C 1251 1590 1225 1569 1195 1554 C 1165 1539 1134 1532 1100 1532 C 1064 1532 1034 1540 1010 1557 C 986 1574 964 1597 944 1626 L 909 1675 C 905 1679 901 1685 897 1691 C 892 1697 886 1704 879 1710 C 872 1716 864 1721 856 1725 C 847 1729 837 1731 827 1731 C 810 1731 794 1725 779 1715 C 764 1704 750 1690 738 1673 C 725 1655 714 1635 705 1612 C 695 1588 688 1564 684 1540 L 567 1540 L 567 1540 Z" unicode="Ñ" />
<glyph horiz-adv-x="1483" d="M 680 121 C 734 121 786 129 836 147 C 885 165 930 189 972 221 C 1014 252 1051 289 1085 332 C 1118 374 1146 421 1170 472 C 1193 523 1211 577 1224 634 C 1236 690 1243 748 1243 807 C 1243 873 1234 935 1218 991 C 1201 1047 1176 1096 1143 1137 C 1110 1178 1069 1210 1021 1233 C 972 1256 916 1268 852 1268 C 796 1268 744 1259 694 1241 C 644 1223 599 1199 557 1168 C 515 1136 478 1099 445 1056 C 411 1013 383 966 360 916 C 337 865 319 811 307 755 C 295 699 289 642 289 584 C 289 517 297 455 314 399 C 330 342 355 293 388 252 C 420 211 461 179 510 156 C 558 132 615 121 680 121 Z M 676 -20 C 588 -20 510 -4 442 26 C 374 57 316 100 269 154 C 221 208 185 271 160 345 C 135 418 123 497 123 582 C 123 650 131 717 147 785 C 163 852 186 916 216 978 C 246 1039 282 1096 325 1149 C 368 1201 417 1247 472 1285 C 526 1323 586 1354 651 1376 C 715 1398 784 1409 858 1409 C 944 1409 1022 1393 1090 1362 C 1158 1331 1215 1289 1263 1235 C 1310 1181 1346 1117 1371 1044 C 1396 970 1409 891 1409 807 C 1409 738 1401 670 1385 602 C 1369 534 1346 470 1316 409 C 1286 348 1249 291 1206 239 C 1162 186 1113 140 1059 102 C 1005 64 945 34 881 12 C 817 -9 748 -20 676 -20 Z M 819 1839 L 1026 1540 L 882 1540 L 622 1839 L 819 1839 Z" unicode="Ò" />
<glyph horiz-adv-x="1483" d="M 680 121 C 734 121 786 129 836 147 C 885 165 930 189 972 221 C 1014 252 1051 289 1085 332 C 1118 374 1146 421 1170 472 C 1193 523 1211 577 1224 634 C 1236 690 1243 748 1243 807 C 1243 873 1234 935 1218 991 C 1201 1047 1176 1096 1143 1137 C 1110 1178 1069 1210 1021 1233 C 972 1256 916 1268 852 1268 C 796 1268 744 1259 694 1241 C 644 1223 599 1199 557 1168 C 515 1136 478 1099 445 1056 C 411 1013 383 966 360 916 C 337 865 319 811 307 755 C 295 699 289 642 289 584 C 289 517 297 455 314 399 C 330 342 355 293 388 252 C 420 211 461 179 510 156 C 558 132 615 121 680 121 Z M 676 -20 C 588 -20 510 -4 442 26 C 374 57 316 100 269 154 C 221 208 185 271 160 345 C 135 418 123 497 123 582 C 123 650 131 717 147 785 C 163 852 186 916 216 978 C 246 1039 282 1096 325 1149 C 368 1201 417 1247 472 1285 C 526 1323 586 1354 651 1376 C 715 1398 784 1409 858 1409 C 944 1409 1022 1393 1090 1362 C 1158 1331 1215 1289 1263 1235 C 1310 1181 1346 1117 1371 1044 C 1396 970 1409 891 1409 807 C 1409 738 1401 670 1385 602 C 1369 534 1346 470 1316 409 C 1286 348 1249 291 1206 239 C 1162 186 1113 140 1059 102 C 1005 64 945 34 881 12 C 817 -9 748 -20 676 -20 Z M 1171 1839 L 911 1540 L 768 1540 L 974 1839 L 1171 1839 Z" unicode="Ó" />
<glyph horiz-adv-x="1483" d="M 680 121 C 734 121 786 129 836 147 C 885 165 930 189 972 221 C 1014 252 1051 289 1085 332 C 1118 374 1146 421 1170 472 C 1193 523 1211 577 1224 634 C 1236 690 1243 748 1243 807 C 1243 873 1234 935 1218 991 C 1201 1047 1176 1096 1143 1137 C 1110 1178 1069 1210 1021 1233 C 972 1256 916 1268 852 1268 C 796 1268 744 1259 694 1241 C 644 1223 599 1199 557 1168 C 515 1136 478 1099 445 1056 C 411 1013 383 966 360 916 C 337 865 319 811 307 755 C 295 699 289 642 289 584 C 289 517 297 455 314 399 C 330 342 355 293 388 252 C 420 211 461 179 510 156 C 558 132 615 121 680 121 Z M 676 -20 C 588 -20 510 -4 442 26 C 374 57 316 100 269 154 C 221 208 185 271 160 345 C 135 418 123 497 123 582 C 123 650 131 717 147 785 C 163 852 186 916 216 978 C 246 1039 282 1096 325 1149 C 368 1201 417 1247 472 1285 C 526 1323 586 1354 651 1376 C 715 1398 784 1409 858 1409 C 944 1409 1022 1393 1090 1362 C 1158 1331 1215 1289 1263 1235 C 1310 1181 1346 1117 1371 1044 C 1396 970 1409 891 1409 807 C 1409 738 1401 670 1385 602 C 1369 534 1346 470 1316 409 C 1286 348 1249 291 1206 239 C 1162 186 1113 140 1059 102 C 1005 64 945 34 881 12 C 817 -9 748 -20 676 -20 Z M 1052 1839 L 1204 1540 L 1087 1540 L 952 1737 L 942 1737 L 721 1540 L 587 1540 L 866 1839 L 1052 1839 Z" unicode="Ô" />
<glyph horiz-adv-x="1483" d="M 680 121 C 734 121 786 129 836 147 C 885 165 930 189 972 221 C 1014 252 1051 289 1085 332 C 1118 374 1146 421 1170 472 C 1193 523 1211 577 1224 634 C 1236 690 1243 748 1243 807 C 1243 873 1234 935 1218 991 C 1201 1047 1176 1096 1143 1137 C 1110 1178 1069 1210 1021 1233 C 972 1256 916 1268 852 1268 C 796 1268 744 1259 694 1241 C 644 1223 599 1199 557 1168 C 515 1136 478 1099 445 1056 C 411 1013 383 966 360 916 C 337 865 319 811 307 755 C 295 699 289 642 289 584 C 289 517 297 455 314 399 C 330 342 355 293 388 252 C 420 211 461 179 510 156 C 558 132 615 121 680 121 Z M 676 -20 C 588 -20 510 -4 442 26 C 374 57 316 100 269 154 C 221 208 185 271 160 345 C 135 418 123 497 123 582 C 123 650 131 717 147 785 C 163 852 186 916 216 978 C 246 1039 282 1096 325 1149 C 368 1201 417 1247 472 1285 C 526 1323 586 1354 651 1376 C 715 1398 784 1409 858 1409 C 944 1409 1022 1393 1090 1362 C 1158 1331 1215 1289 1263 1235 C 1310 1181 1346 1117 1371 1044 C 1396 970 1409 891 1409 807 C 1409 738 1401 670 1385 602 C 1369 534 1346 470 1316 409 C 1286 348 1249 291 1206 239 C 1162 186 1113 140 1059 102 C 1005 64 945 34 881 12 C 817 -9 748 -20 676 -20 Z M 532 1540 C 542 1584 555 1625 572 1663 C 589 1701 609 1733 633 1761 C 657 1788 683 1809 713 1824 C 743 1839 775 1847 811 1847 C 841 1847 868 1840 893 1826 C 918 1812 943 1788 968 1753 L 1003 1704 C 1013 1689 1024 1676 1036 1665 C 1047 1654 1062 1649 1081 1649 C 1099 1649 1115 1654 1131 1666 C 1147 1677 1161 1692 1173 1710 C 1185 1728 1196 1748 1205 1771 C 1214 1793 1221 1816 1226 1839 L 1341 1839 C 1331 1793 1318 1752 1301 1715 C 1284 1677 1264 1645 1240 1618 C 1216 1590 1190 1569 1160 1554 C 1130 1539 1099 1532 1065 1532 C 1029 1532 999 1540 975 1557 C 951 1574 929 1597 909 1626 L 874 1675 C 870 1679 866 1685 862 1691 C 857 1697 851 1704 844 1710 C 837 1716 829 1721 821 1725 C 812 1729 802 1731 792 1731 C 775 1731 759 1725 744 1715 C 729 1704 715 1690 703 1673 C 690 1655 679 1635 670 1612 C 660 1588 653 1564 649 1540 L 532 1540 L 532 1540 Z" unicode="Õ" />
<glyph horiz-adv-x="1483" d="M 680 121 C 734 121 786 129 836 147 C 885 165 930 189 972 221 C 1014 252 1051 289 1085 332 C 1118 374 1146 421 1170 472 C 1193 523 1211 577 1224 634 C 1236 690 1243 748 1243 807 C 1243 873 1234 935 1218 991 C 1201 1047 1176 1096 1143 1137 C 1110 1178 1069 1210 1021 1233 C 972 1256 916 1268 852 1268 C 796 1268 744 1259 694 1241 C 644 1223 599 1199 557 1168 C 515 1136 478 1099 445 1056 C 411 1013 383 966 360 916 C 337 865 319 811 307 755 C 295 699 289 642 289 584 C 289 517 297 455 314 399 C 330 342 355 293 388 252 C 420 211 461 179 510 156 C 558 132 615 121 680 121 Z M 676 -20 C 588 -20 510 -4 442 26 C 374 57 316 100 269 154 C 221 208 185 271 160 345 C 135 418 123 497 123 582 C 123 650 131 717 147 785 C 163 852 186 916 216 978 C 246 1039 282 1096 325 1149 C 368 1201 417 1247 472 1285 C 526 1323 586 1354 651 1376 C 715 1398 784 1409 858 1409 C 944 1409 1022 1393 1090 1362 C 1158 1331 1215 1289 1263 1235 C 1310 1181 1346 1117 1371 1044 C 1396 970 1409 891 1409 807 C 1409 738 1401 670 1385 602 C 1369 534 1346 470 1316 409 C 1286 348 1249 291 1206 239 C 1162 186 1113 140 1059 102 C 1005 64 945 34 881 12 C 817 -9 748 -20 676 -20 Z M 829 1759 L 788 1569 L 624 1569 L 665 1759 L 829 1759 Z M 1220 1759 L 1179 1569 L 1015 1569 L 1056 1759 L 1220 1759 Z" unicode="Ö" />
<glyph horiz-adv-x="1106" d="M 49 174 L 455 580 L 47 989 L 147 1090 L 557 680 L 958 1085 L 1055 991 L 651 586 L 1059 178 L 958 76 L 549 485 L 143 80 L 49 174 Z" unicode="×" />
<glyph horiz-adv-x="1483" d="M 315 106 C 252 160 204 228 172 310 C 139 392 123 482 123 582 C 123 650 131 717 147 785 C 163 852 186 916 216 978 C 246 1039 282 1096 325 1149 C 368 1201 417 1247 472 1285 C 526 1323 586 1354 651 1376 C 715 1398 784 1409 858 1409 C 904 1409 947 1404 988 1395 C 1029 1385 1068 1372 1104 1356 L 1219 1534 L 1370 1534 L 1212 1284 C 1276 1228 1324 1160 1358 1078 C 1392 996 1409 906 1409 807 C 1409 738 1401 670 1385 602 C 1369 534 1346 470 1316 409 C 1286 348 1249 291 1206 239 C 1162 186 1113 140 1059 102 C 1005 64 945 34 881 12 C 817 -9 748 -20 676 -20 C 628 -20 584 -15 542 -5 C 500 4 461 17 424 35 L 311 -145 L 160 -145 L 315 106 Z M 1249 809 C 1249 883 1238 951 1218 1012 C 1198 1073 1167 1125 1126 1167 L 506 147 C 530 135 557 127 585 121 C 613 115 644 113 678 113 C 734 113 787 122 837 140 C 887 158 933 182 975 214 C 1017 246 1055 283 1089 327 C 1123 371 1151 418 1175 470 C 1199 522 1217 576 1230 634 C 1242 691 1249 749 1249 809 Z M 283 582 C 283 507 292 439 312 379 C 331 318 360 267 399 225 L 1024 1241 C 974 1264 917 1276 854 1276 C 797 1276 743 1267 693 1249 C 643 1231 596 1206 554 1174 C 512 1142 474 1105 441 1061 C 407 1017 379 969 355 918 C 331 866 313 812 301 755 C 289 698 283 640 283 582 Z" unicode="Ø" />
<glyph horiz-adv-x="1395" d="M 1391 1389 L 1214 557 C 1201 495 1188 443 1175 399 C 1162 355 1149 318 1136 286 C 1122 254 1109 227 1096 205 C 1082 183 1069 163 1055 147 C 1028 115 999 88 967 66 C 935 44 902 26 867 13 C 831 0 794 -8 756 -14 C 717 -20 677 -23 637 -23 C 573 -23 511 -16 452 -2 C 393 12 341 36 296 70 C 250 104 214 149 187 205 C 160 261 147 332 147 418 C 147 457 150 496 156 536 C 162 575 170 620 180 670 L 330 1389 L 492 1389 L 346 696 C 338 654 330 610 322 564 C 314 518 311 473 311 430 C 311 375 318 328 333 289 C 347 249 369 217 397 192 C 425 167 460 149 501 137 C 542 125 589 119 641 119 C 746 119 827 143 885 193 C 909 213 931 237 949 266 C 967 295 984 328 999 364 C 1013 400 1026 439 1037 481 C 1048 523 1059 568 1069 616 L 1231 1389 L 1391 1389 Z M 817 1839 L 1024 1540 L 880 1540 L 620 1839 L 817 1839 Z" unicode="Ù" />
<glyph horiz-adv-x="1395" d="M 1391 1389 L 1214 557 C 1201 495 1188 443 1175 399 C 1162 355 1149 318 1136 286 C 1122 254 1109 227 1096 205 C 1082 183 1069 163 1055 147 C 1028 115 999 88 967 66 C 935 44 902 26 867 13 C 831 0 794 -8 756 -14 C 717 -20 677 -23 637 -23 C 573 -23 511 -16 452 -2 C 393 12 341 36 296 70 C 250 104 214 149 187 205 C 160 261 147 332 147 418 C 147 457 150 496 156 536 C 162 575 170 620 180 670 L 330 1389 L 492 1389 L 346 696 C 338 654 330 610 322 564 C 314 518 311 473 311 430 C 311 375 318 328 333 289 C 347 249 369 217 397 192 C 425 167 460 149 501 137 C 542 125 589 119 641 119 C 746 119 827 143 885 193 C 909 213 931 237 949 266 C 967 295 984 328 999 364 C 1013 400 1026 439 1037 481 C 1048 523 1059 568 1069 616 L 1231 1389 L 1391 1389 Z M 1169 1839 L 909 1540 L 766 1540 L 972 1839 L 1169 1839 Z" unicode="Ú" />
<glyph horiz-adv-x="1395" d="M 1391 1389 L 1214 557 C 1201 495 1188 443 1175 399 C 1162 355 1149 318 1136 286 C 1122 254 1109 227 1096 205 C 1082 183 1069 163 1055 147 C 1028 115 999 88 967 66 C 935 44 902 26 867 13 C 831 0 794 -8 756 -14 C 717 -20 677 -23 637 -23 C 573 -23 511 -16 452 -2 C 393 12 341 36 296 70 C 250 104 214 149 187 205 C 160 261 147 332 147 418 C 147 457 150 496 156 536 C 162 575 170 620 180 670 L 330 1389 L 492 1389 L 346 696 C 338 654 330 610 322 564 C 314 518 311 473 311 430 C 311 375 318 328 333 289 C 347 249 369 217 397 192 C 425 167 460 149 501 137 C 542 125 589 119 641 119 C 746 119 827 143 885 193 C 909 213 931 237 949 266 C 967 295 984 328 999 364 C 1013 400 1026 439 1037 481 C 1048 523 1059 568 1069 616 L 1231 1389 L 1391 1389 Z M 1050 1839 L 1202 1540 L 1085 1540 L 950 1737 L 940 1737 L 719 1540 L 585 1540 L 864 1839 L 1050 1839 Z" unicode="Û" />
<glyph horiz-adv-x="1395" d="M 1391 1389 L 1214 557 C 1201 495 1188 443 1175 399 C 1162 355 1149 318 1136 286 C 1122 254 1109 227 1096 205 C 1082 183 1069 163 1055 147 C 1028 115 999 88 967 66 C 935 44 902 26 867 13 C 831 0 794 -8 756 -14 C 717 -20 677 -23 637 -23 C 573 -23 511 -16 452 -2 C 393 12 341 36 296 70 C 250 104 214 149 187 205 C 160 261 147 332 147 418 C 147 457 150 496 156 536 C 162 575 170 620 180 670 L 330 1389 L 492 1389 L 346 696 C 338 654 330 610 322 564 C 314 518 311 473 311 430 C 311 375 318 328 333 289 C 347 249 369 217 397 192 C 425 167 460 149 501 137 C 542 125 589 119 641 119 C 746 119 827 143 885 193 C 909 213 931 237 949 266 C 967 295 984 328 999 364 C 1013 400 1026 439 1037 481 C 1048 523 1059 568 1069 616 L 1231 1389 L 1391 1389 Z M 827 1759 L 786 1569 L 622 1569 L 663 1759 L 827 1759 Z M 1218 1759 L 1177 1569 L 1013 1569 L 1054 1759 L 1218 1759 Z" unicode="Ü" />
<glyph horiz-adv-x="1085" d="M 201 1389 L 371 1389 L 575 743 L 1049 1389 L 1231 1389 L 629 602 L 498 0 L 340 0 L 469 602 L 201 1389 Z M 1014 1839 L 754 1540 L 611 1540 L 817 1839 L 1014 1839 Z" unicode="Ý" />
<glyph horiz-adv-x="1190" d="M 528 1389 L 471 1122 C 495 1123 519 1124 543 1125 C 567 1125 591 1126 616 1126 C 701 1126 776 1117 841 1099 C 906 1081 960 1055 1004 1021 C 1048 987 1081 945 1103 895 C 1125 845 1137 787 1137 723 C 1137 645 1122 578 1092 522 C 1062 465 1020 418 967 381 C 914 344 852 317 780 299 C 708 281 629 272 545 272 C 523 272 500 272 476 273 C 452 274 429 275 407 277 C 385 278 364 279 344 280 C 324 281 307 282 293 283 L 233 0 L 74 0 L 371 1389 L 528 1389 Z M 319 410 C 333 409 349 408 367 408 C 385 407 404 406 424 406 C 444 405 463 404 483 404 C 503 403 521 403 539 403 C 595 403 649 407 701 417 C 753 426 799 442 839 465 C 879 488 911 519 935 559 C 959 598 971 647 971 707 C 971 757 961 801 943 838 C 924 874 898 904 866 928 C 834 952 796 969 752 980 C 708 991 660 997 610 997 C 589 997 563 996 532 996 C 500 995 470 994 440 993 L 319 410 Z" unicode="Þ" />
<glyph horiz-adv-x="1122" d="M 440 160 C 473 141 510 126 550 116 C 590 105 628 100 664 100 C 697 100 726 104 751 114 C 775 123 796 136 813 152 C 829 168 842 186 850 207 C 858 228 862 250 862 274 C 862 308 854 342 840 377 C 825 412 807 449 786 487 L 698 645 C 682 673 668 703 656 735 C 644 766 639 794 639 819 C 639 845 645 867 657 887 C 669 907 685 925 704 942 C 722 959 742 976 764 992 C 785 1008 805 1027 824 1047 C 842 1067 858 1089 870 1114 C 882 1139 889 1169 889 1204 C 889 1227 885 1250 878 1273 C 871 1295 860 1315 846 1333 C 831 1351 812 1365 789 1376 C 765 1387 737 1393 705 1393 C 639 1393 583 1368 537 1319 C 490 1270 454 1191 430 1083 L 199 0 L 43 0 L 274 1085 C 305 1229 358 1337 432 1409 C 506 1480 601 1516 715 1516 C 769 1516 816 1508 857 1493 C 898 1477 932 1456 960 1430 C 988 1403 1009 1372 1023 1337 C 1037 1302 1044 1265 1044 1225 C 1044 1184 1037 1149 1024 1119 C 1011 1089 995 1062 975 1040 C 955 1017 934 997 912 980 C 889 962 868 946 848 931 C 828 916 812 901 799 886 C 786 871 780 855 780 838 C 780 819 786 798 799 774 C 811 750 825 726 840 700 L 924 547 C 934 529 944 511 954 492 C 964 472 973 452 981 430 C 989 408 995 384 1000 360 C 1005 335 1008 309 1008 283 C 1008 239 1000 199 985 163 C 970 126 948 94 919 67 C 889 39 853 18 809 3 C 765 -12 715 -20 659 -20 C 615 -20 572 -15 528 -7 C 484 1 444 13 410 29 L 440 160 Z" unicode="ß" />
<glyph horiz-adv-x="1116" d="M 721 0 C 722 48 725 98 730 152 C 735 205 744 264 758 328 L 754 328 C 726 278 696 231 664 189 C 632 146 598 109 562 78 C 526 47 489 23 449 6 C 409 -11 368 -20 324 -20 C 283 -20 245 -12 211 2 C 176 16 146 38 120 67 C 94 96 74 132 60 175 C 46 217 39 267 39 324 C 39 380 46 437 60 493 C 74 549 94 602 120 653 C 145 703 175 750 210 794 C 245 838 283 876 324 908 C 365 940 408 965 454 983 C 500 1001 546 1010 594 1010 C 656 1010 710 994 755 962 C 799 930 832 885 854 827 L 858 827 L 893 989 L 1038 989 L 907 383 C 893 317 882 252 876 190 C 870 128 866 64 864 0 L 721 0 Z M 817 684 C 811 712 802 738 790 762 C 778 786 763 808 745 827 C 727 845 706 860 682 871 C 658 881 632 887 604 887 C 569 887 535 879 501 863 C 467 847 436 826 406 799 C 376 771 349 739 324 703 C 298 667 277 628 259 587 C 241 545 226 502 216 458 C 206 414 201 370 201 328 C 201 299 203 271 209 244 C 214 216 223 192 235 171 C 247 150 263 133 283 121 C 302 108 326 102 354 102 C 386 102 418 110 450 128 C 482 145 514 167 544 195 C 574 223 603 254 631 290 C 658 325 682 361 704 397 C 726 433 744 467 760 501 C 775 534 786 563 793 588 L 817 684 Z M 539 1493 L 756 1174 L 612 1174 L 336 1493 L 539 1493 Z" unicode="à" />
<glyph horiz-adv-x="1116" d="M 721 0 C 722 48 725 98 730 152 C 735 205 744 264 758 328 L 754 328 C 726 278 696 231 664 189 C 632 146 598 109 562 78 C 526 47 489 23 449 6 C 409 -11 368 -20 324 -20 C 283 -20 245 -12 211 2 C 176 16 146 38 120 67 C 94 96 74 132 60 175 C 46 217 39 267 39 324 C 39 380 46 437 60 493 C 74 549 94 602 120 653 C 145 703 175 750 210 794 C 245 838 283 876 324 908 C 365 940 408 965 454 983 C 500 1001 546 1010 594 1010 C 656 1010 710 994 755 962 C 799 930 832 885 854 827 L 858 827 L 893 989 L 1038 989 L 907 383 C 893 317 882 252 876 190 C 870 128 866 64 864 0 L 721 0 Z M 817 684 C 811 712 802 738 790 762 C 778 786 763 808 745 827 C 727 845 706 860 682 871 C 658 881 632 887 604 887 C 569 887 535 879 501 863 C 467 847 436 826 406 799 C 376 771 349 739 324 703 C 298 667 277 628 259 587 C 241 545 226 502 216 458 C 206 414 201 370 201 328 C 201 299 203 271 209 244 C 214 216 223 192 235 171 C 247 150 263 133 283 121 C 302 108 326 102 354 102 C 386 102 418 110 450 128 C 482 145 514 167 544 195 C 574 223 603 254 631 290 C 658 325 682 361 704 397 C 726 433 744 467 760 501 C 775 534 786 563 793 588 L 817 684 Z M 918 1493 L 641 1174 L 498 1174 L 717 1493 L 918 1493 Z" unicode="á" />
<glyph horiz-adv-x="1116" d="M 721 0 C 722 48 725 98 730 152 C 735 205 744 264 758 328 L 754 328 C 726 278 696 231 664 189 C 632 146 598 109 562 78 C 526 47 489 23 449 6 C 409 -11 368 -20 324 -20 C 283 -20 245 -12 211 2 C 176 16 146 38 120 67 C 94 96 74 132 60 175 C 46 217 39 267 39 324 C 39 380 46 437 60 493 C 74 549 94 602 120 653 C 145 703 175 750 210 794 C 245 838 283 876 324 908 C 365 940 408 965 454 983 C 500 1001 546 1010 594 1010 C 656 1010 710 994 755 962 C 799 930 832 885 854 827 L 858 827 L 893 989 L 1038 989 L 907 383 C 893 317 882 252 876 190 C 870 128 866 64 864 0 L 721 0 Z M 817 684 C 811 712 802 738 790 762 C 778 786 763 808 745 827 C 727 845 706 860 682 871 C 658 881 632 887 604 887 C 569 887 535 879 501 863 C 467 847 436 826 406 799 C 376 771 349 739 324 703 C 298 667 277 628 259 587 C 241 545 226 502 216 458 C 206 414 201 370 201 328 C 201 299 203 271 209 244 C 214 216 223 192 235 171 C 247 150 263 133 283 121 C 302 108 326 102 354 102 C 386 102 418 110 450 128 C 482 145 514 167 544 195 C 574 223 603 254 631 290 C 658 325 682 361 704 397 C 726 433 744 467 760 501 C 775 534 786 563 793 588 L 817 684 Z M 787 1493 L 928 1174 L 811 1174 L 686 1391 L 676 1391 L 457 1174 L 324 1174 L 600 1493 L 787 1493 Z" unicode="â" />
<glyph horiz-adv-x="1116" d="M 721 0 C 722 48 725 98 730 152 C 735 205 744 264 758 328 L 754 328 C 726 278 696 231 664 189 C 632 146 598 109 562 78 C 526 47 489 23 449 6 C 409 -11 368 -20 324 -20 C 283 -20 245 -12 211 2 C 176 16 146 38 120 67 C 94 96 74 132 60 175 C 46 217 39 267 39 324 C 39 380 46 437 60 493 C 74 549 94 602 120 653 C 145 703 175 750 210 794 C 245 838 283 876 324 908 C 365 940 408 965 454 983 C 500 1001 546 1010 594 1010 C 656 1010 710 994 755 962 C 799 930 832 885 854 827 L 858 827 L 893 989 L 1038 989 L 907 383 C 893 317 882 252 876 190 C 870 128 866 64 864 0 L 721 0 Z M 817 684 C 811 712 802 738 790 762 C 778 786 763 808 745 827 C 727 845 706 860 682 871 C 658 881 632 887 604 887 C 569 887 535 879 501 863 C 467 847 436 826 406 799 C 376 771 349 739 324 703 C 298 667 277 628 259 587 C 241 545 226 502 216 458 C 206 414 201 370 201 328 C 201 299 203 271 209 244 C 214 216 223 192 235 171 C 247 150 263 133 283 121 C 302 108 326 102 354 102 C 386 102 418 110 450 128 C 482 145 514 167 544 195 C 574 223 603 254 631 290 C 658 325 682 361 704 397 C 726 433 744 467 760 501 C 775 534 786 563 793 588 L 817 684 Z M 256 1174 C 279 1279 314 1361 361 1419 C 408 1477 463 1507 526 1507 C 562 1507 593 1497 618 1478 C 642 1459 666 1434 690 1403 L 731 1348 C 741 1333 753 1319 766 1306 C 779 1292 796 1286 817 1286 C 835 1286 851 1292 866 1304 C 881 1316 894 1332 906 1352 C 918 1372 928 1394 936 1419 C 944 1443 951 1468 956 1493 L 1069 1493 C 1045 1385 1010 1302 963 1246 C 915 1189 861 1161 801 1161 C 769 1161 740 1169 716 1185 C 691 1201 665 1228 639 1264 L 598 1319 C 593 1325 588 1332 582 1340 C 576 1347 570 1354 563 1360 C 556 1366 548 1370 540 1374 C 531 1378 522 1380 512 1380 C 493 1380 476 1374 461 1362 C 446 1350 433 1334 421 1314 C 409 1294 399 1272 391 1248 C 382 1223 375 1198 371 1174 L 256 1174 L 256 1174 Z" unicode="ã" />
<glyph horiz-adv-x="1116" d="M 721 0 C 722 48 725 98 730 152 C 735 205 744 264 758 328 L 754 328 C 726 278 696 231 664 189 C 632 146 598 109 562 78 C 526 47 489 23 449 6 C 409 -11 368 -20 324 -20 C 283 -20 245 -12 211 2 C 176 16 146 38 120 67 C 94 96 74 132 60 175 C 46 217 39 267 39 324 C 39 380 46 437 60 493 C 74 549 94 602 120 653 C 145 703 175 750 210 794 C 245 838 283 876 324 908 C 365 940 408 965 454 983 C 500 1001 546 1010 594 1010 C 656 1010 710 994 755 962 C 799 930 832 885 854 827 L 858 827 L 893 989 L 1038 989 L 907 383 C 893 317 882 252 876 190 C 870 128 866 64 864 0 L 721 0 Z M 817 684 C 811 712 802 738 790 762 C 778 786 763 808 745 827 C 727 845 706 860 682 871 C 658 881 632 887 604 887 C 569 887 535 879 501 863 C 467 847 436 826 406 799 C 376 771 349 739 324 703 C 298 667 277 628 259 587 C 241 545 226 502 216 458 C 206 414 201 370 201 328 C 201 299 203 271 209 244 C 214 216 223 192 235 171 C 247 150 263 133 283 121 C 302 108 326 102 354 102 C 386 102 418 110 450 128 C 482 145 514 167 544 195 C 574 223 603 254 631 290 C 658 325 682 361 704 397 C 726 433 744 467 760 501 C 775 534 786 563 793 588 L 817 684 Z M 567 1427 L 526 1237 L 363 1237 L 404 1427 L 567 1427 Z M 959 1427 L 918 1237 L 754 1237 L 795 1427 L 959 1427 Z" unicode="ä" />
<glyph horiz-adv-x="1116" d="M 721 0 C 722 48 725 98 730 152 C 735 205 744 264 758 328 L 754 328 C 726 278 696 231 664 189 C 632 146 598 109 562 78 C 526 47 489 23 449 6 C 409 -11 368 -20 324 -20 C 283 -20 245 -12 211 2 C 176 16 146 38 120 67 C 94 96 74 132 60 175 C 46 217 39 267 39 324 C 39 380 46 437 60 493 C 74 549 94 602 120 653 C 145 703 175 750 210 794 C 245 838 283 876 324 908 C 365 940 408 965 454 983 C 500 1001 546 1010 594 1010 C 656 1010 710 994 755 962 C 799 930 832 885 854 827 L 858 827 L 893 989 L 1038 989 L 907 383 C 893 317 882 252 876 190 C 870 128 866 64 864 0 L 721 0 Z M 817 684 C 811 712 802 738 790 762 C 778 786 763 808 745 827 C 727 845 706 860 682 871 C 658 881 632 887 604 887 C 569 887 535 879 501 863 C 467 847 436 826 406 799 C 376 771 349 739 324 703 C 298 667 277 628 259 587 C 241 545 226 502 216 458 C 206 414 201 370 201 328 C 201 299 203 271 209 244 C 214 216 223 192 235 171 C 247 150 263 133 283 121 C 302 108 326 102 354 102 C 386 102 418 110 450 128 C 482 145 514 167 544 195 C 574 223 603 254 631 290 C 658 325 682 361 704 397 C 726 433 744 467 760 501 C 775 534 786 563 793 588 L 817 684 Z M 418 1372 C 418 1405 424 1436 437 1465 C 450 1494 468 1519 490 1541 C 512 1563 539 1580 569 1593 C 599 1605 631 1612 666 1612 C 700 1612 732 1605 762 1593 C 792 1580 818 1563 840 1541 C 862 1519 880 1494 893 1465 C 906 1436 913 1405 913 1372 C 913 1339 906 1308 893 1280 C 880 1251 862 1226 840 1205 C 818 1184 792 1167 762 1155 C 732 1143 700 1137 666 1137 C 631 1137 599 1143 569 1155 C 539 1167 512 1184 490 1205 C 468 1226 450 1251 437 1280 C 424 1308 418 1339 418 1372 Z M 666 1520 C 646 1520 627 1516 609 1508 C 591 1500 576 1489 563 1476 C 549 1462 539 1447 531 1429 C 523 1411 520 1392 520 1372 C 520 1352 523 1334 531 1317 C 539 1299 549 1284 563 1271 C 576 1258 591 1248 609 1240 C 627 1232 646 1229 666 1229 C 686 1229 704 1232 722 1240 C 739 1248 754 1258 767 1271 C 780 1284 790 1299 798 1317 C 805 1334 809 1352 809 1372 C 809 1392 805 1411 798 1429 C 790 1447 780 1462 767 1476 C 754 1489 739 1500 722 1508 C 704 1516 686 1520 666 1520 Z" unicode="å" />
<glyph horiz-adv-x="1618" d="M 221 954 C 257 970 297 984 342 994 C 387 1004 437 1010 492 1010 C 527 1010 563 1007 599 1002 C 635 996 668 987 700 973 C 732 959 760 941 785 918 C 810 894 829 865 842 829 L 846 829 C 885 887 934 932 994 963 C 1053 994 1117 1010 1186 1010 C 1235 1010 1281 1002 1323 986 C 1365 970 1401 945 1432 913 C 1462 880 1486 839 1504 791 C 1521 742 1530 685 1530 621 C 1530 582 1526 537 1518 485 L 823 485 C 819 467 817 450 815 433 C 813 415 813 398 813 381 C 813 285 835 215 880 170 C 925 124 989 102 1071 102 C 1099 102 1128 105 1158 110 C 1188 115 1218 121 1247 129 C 1276 136 1304 144 1331 154 C 1358 163 1383 172 1405 182 L 1391 53 C 1339 32 1284 15 1228 1 C 1172 -13 1113 -20 1053 -20 C 955 -20 875 0 815 38 C 755 76 714 138 694 223 L 690 223 C 665 179 637 142 607 111 C 576 80 543 55 508 36 C 473 16 437 2 400 -6 C 362 -15 325 -20 287 -20 C 243 -20 204 -14 168 -4 C 132 6 101 23 76 45 C 50 67 31 94 17 127 C 3 159 -4 198 -4 242 C -4 288 5 328 23 364 C 41 400 65 431 96 457 C 126 483 162 504 203 522 C 243 540 286 554 331 564 C 376 574 422 582 469 587 C 516 591 562 594 606 594 C 620 594 636 594 652 594 C 668 594 684 593 700 592 C 706 624 711 649 713 665 C 715 681 717 696 717 709 C 717 741 711 768 699 790 C 687 812 670 830 649 844 C 628 858 603 868 575 874 C 547 880 516 883 483 883 C 435 883 388 877 342 866 C 296 855 256 841 221 825 L 221 954 Z M 156 250 C 155 224 159 202 167 183 C 175 163 187 147 201 133 C 215 119 233 109 253 102 C 273 95 295 92 319 92 C 359 92 398 99 436 114 C 473 129 507 150 537 177 C 567 204 592 236 614 274 C 635 311 650 352 659 397 L 678 487 L 659 487 C 622 487 584 486 545 485 C 506 483 468 480 431 474 C 393 468 358 460 325 450 C 291 439 262 425 237 407 C 212 389 192 368 178 342 C 163 316 156 286 156 250 Z M 1372 592 C 1376 614 1378 635 1378 657 C 1378 729 1359 786 1323 826 C 1287 866 1237 887 1174 887 C 1134 887 1097 879 1062 863 C 1027 847 995 826 967 799 C 939 772 914 741 894 705 C 873 669 858 632 848 592 L 1372 592 Z" unicode="æ" />
<glyph horiz-adv-x="913" d="M 741 35 C 718 25 694 16 669 10 C 643 3 618 -2 592 -7 C 566 -11 541 -15 517 -17 C 492 -19 469 -20 449 -20 L 430 -20 C 426 -32 426 -42 428 -48 C 430 -54 432 -59 436 -63 L 483 -127 C 486 -131 490 -136 495 -143 C 500 -150 505 -159 509 -169 C 513 -179 517 -191 521 -204 C 524 -217 526 -232 526 -248 C 526 -278 519 -305 507 -331 C 495 -356 477 -378 455 -396 C 432 -414 405 -428 374 -438 C 342 -448 308 -453 270 -453 C 237 -453 204 -449 171 -442 C 137 -434 110 -425 90 -414 L 127 -305 C 135 -311 145 -316 157 -320 C 169 -324 181 -328 194 -332 C 207 -335 220 -337 234 -339 C 247 -341 260 -342 272 -342 C 284 -342 297 -340 311 -338 C 325 -335 337 -330 349 -324 C 360 -317 369 -308 376 -296 C 383 -284 387 -270 387 -252 C 387 -236 384 -223 378 -212 C 372 -201 363 -189 352 -176 L 303 -121 C 297 -115 293 -108 291 -101 C 289 -94 289 -85 293 -74 L 309 -4 C 265 8 227 25 195 48 C 163 71 136 99 116 132 C 95 164 80 201 70 243 C 60 284 55 329 55 377 C 55 427 60 478 70 529 C 80 579 96 628 116 675 C 136 722 162 766 192 807 C 222 847 258 883 298 913 C 338 943 383 966 433 984 C 482 1001 536 1010 596 1010 C 619 1010 643 1008 667 1006 C 691 1003 715 999 738 994 C 761 988 783 982 804 974 C 825 966 844 956 860 946 L 827 817 C 811 827 794 836 774 844 C 754 852 734 858 713 864 C 691 870 670 874 648 878 C 626 881 605 883 586 883 C 524 883 470 868 424 838 C 378 808 339 770 309 722 C 278 674 255 621 240 561 C 224 501 217 442 217 383 C 217 336 223 295 236 261 C 248 226 266 197 288 174 C 310 151 337 134 368 123 C 399 111 433 106 469 106 C 493 106 518 107 543 111 C 568 115 592 120 616 126 C 639 132 661 140 683 148 C 704 156 723 165 741 174 L 741 35 Z" unicode="ç" />
<glyph horiz-adv-x="1022" d="M 795 53 C 743 32 688 15 632 1 C 576 -13 517 -20 457 -20 C 330 -20 233 12 166 78 C 99 143 66 240 66 369 C 66 419 71 469 82 521 C 92 572 108 621 128 669 C 148 717 174 761 204 803 C 234 844 268 880 307 911 C 345 942 388 966 435 984 C 482 1001 533 1010 588 1010 C 638 1010 684 1002 726 986 C 768 970 805 945 836 913 C 866 881 890 841 908 793 C 925 745 934 689 934 625 C 934 582 930 537 922 489 L 225 489 C 221 471 219 453 218 435 C 217 417 217 400 217 383 C 217 287 239 217 283 171 C 327 125 391 102 475 102 C 503 102 532 105 562 110 C 592 115 621 121 650 129 C 679 136 707 144 734 154 C 761 163 786 172 809 182 L 795 53 Z M 578 887 C 539 887 503 879 469 864 C 435 848 405 827 377 801 C 349 775 325 744 304 709 C 283 673 266 636 252 596 L 776 596 C 778 606 779 616 780 627 C 781 637 782 647 782 657 C 782 691 777 723 768 751 C 759 779 746 804 728 824 C 710 844 689 859 664 870 C 638 881 610 887 578 887 Z M 543 1493 L 760 1174 L 616 1174 L 340 1493 L 543 1493 Z" unicode="è" />
<glyph horiz-adv-x="1022" d="M 795 53 C 743 32 688 15 632 1 C 576 -13 517 -20 457 -20 C 330 -20 233 12 166 78 C 99 143 66 240 66 369 C 66 419 71 469 82 521 C 92 572 108 621 128 669 C 148 717 174 761 204 803 C 234 844 268 880 307 911 C 345 942 388 966 435 984 C 482 1001 533 1010 588 1010 C 638 1010 684 1002 726 986 C 768 970 805 945 836 913 C 866 881 890 841 908 793 C 925 745 934 689 934 625 C 934 582 930 537 922 489 L 225 489 C 221 471 219 453 218 435 C 217 417 217 400 217 383 C 217 287 239 217 283 171 C 327 125 391 102 475 102 C 503 102 532 105 562 110 C 592 115 621 121 650 129 C 679 136 707 144 734 154 C 761 163 786 172 809 182 L 795 53 Z M 578 887 C 539 887 503 879 469 864 C 435 848 405 827 377 801 C 349 775 325 744 304 709 C 283 673 266 636 252 596 L 776 596 C 778 606 779 616 780 627 C 781 637 782 647 782 657 C 782 691 777 723 768 751 C 759 779 746 804 728 824 C 710 844 689 859 664 870 C 638 881 610 887 578 887 Z M 922 1493 L 645 1174 L 502 1174 L 721 1493 L 922 1493 Z" unicode="é" />
<glyph horiz-adv-x="1022" d="M 795 53 C 743 32 688 15 632 1 C 576 -13 517 -20 457 -20 C 330 -20 233 12 166 78 C 99 143 66 240 66 369 C 66 419 71 469 82 521 C 92 572 108 621 128 669 C 148 717 174 761 204 803 C 234 844 268 880 307 911 C 345 942 388 966 435 984 C 482 1001 533 1010 588 1010 C 638 1010 684 1002 726 986 C 768 970 805 945 836 913 C 866 881 890 841 908 793 C 925 745 934 689 934 625 C 934 582 930 537 922 489 L 225 489 C 221 471 219 453 218 435 C 217 417 217 400 217 383 C 217 287 239 217 283 171 C 327 125 391 102 475 102 C 503 102 532 105 562 110 C 592 115 621 121 650 129 C 679 136 707 144 734 154 C 761 163 786 172 809 182 L 795 53 Z M 578 887 C 539 887 503 879 469 864 C 435 848 405 827 377 801 C 349 775 325 744 304 709 C 283 673 266 636 252 596 L 776 596 C 778 606 779 616 780 627 C 781 637 782 647 782 657 C 782 691 777 723 768 751 C 759 779 746 804 728 824 C 710 844 689 859 664 870 C 638 881 610 887 578 887 Z M 791 1493 L 932 1174 L 815 1174 L 690 1391 L 680 1391 L 461 1174 L 328 1174 L 604 1493 L 791 1493 Z" unicode="ê" />
<glyph horiz-adv-x="1022" d="M 795 53 C 743 32 688 15 632 1 C 576 -13 517 -20 457 -20 C 330 -20 233 12 166 78 C 99 143 66 240 66 369 C 66 419 71 469 82 521 C 92 572 108 621 128 669 C 148 717 174 761 204 803 C 234 844 268 880 307 911 C 345 942 388 966 435 984 C 482 1001 533 1010 588 1010 C 638 1010 684 1002 726 986 C 768 970 805 945 836 913 C 866 881 890 841 908 793 C 925 745 934 689 934 625 C 934 582 930 537 922 489 L 225 489 C 221 471 219 453 218 435 C 217 417 217 400 217 383 C 217 287 239 217 283 171 C 327 125 391 102 475 102 C 503 102 532 105 562 110 C 592 115 621 121 650 129 C 679 136 707 144 734 154 C 761 163 786 172 809 182 L 795 53 Z M 578 887 C 539 887 503 879 469 864 C 435 848 405 827 377 801 C 349 775 325 744 304 709 C 283 673 266 636 252 596 L 776 596 C 778 606 779 616 780 627 C 781 637 782 647 782 657 C 782 691 777 723 768 751 C 759 779 746 804 728 824 C 710 844 689 859 664 870 C 638 881 610 887 578 887 Z M 571 1427 L 530 1237 L 367 1237 L 408 1427 L 571 1427 Z M 963 1427 L 922 1237 L 758 1237 L 799 1427 L 963 1427 Z" unicode="ë" />
<glyph horiz-adv-x="489" d="M 408 989 L 199 0 L 43 0 L 252 989 L 408 989 Z M 281 1493 L 498 1174 L 354 1174 L 78 1493 L 281 1493 Z" unicode="ì" />
<glyph horiz-adv-x="489" d="M 408 989 L 199 0 L 43 0 L 252 989 L 408 989 Z M 659 1493 L 385 1174 L 240 1174 L 459 1493 L 659 1493 Z" unicode="í" />
<glyph horiz-adv-x="489" d="M 408 989 L 199 0 L 43 0 L 252 989 L 408 989 Z M 528 1493 L 670 1174 L 553 1174 L 428 1391 L 418 1391 L 199 1174 L 66 1174 L 342 1493 L 528 1493 Z" unicode="î" />
<glyph horiz-adv-x="489" d="M 408 989 L 199 0 L 43 0 L 252 989 L 408 989 Z M 309 1427 L 268 1237 L 104 1237 L 145 1427 L 309 1427 Z M 700 1427 L 659 1237 L 496 1237 L 537 1427 L 700 1427 Z" unicode="ï" />
<glyph horiz-adv-x="1077" d="M 365 1219 L 670 1290 C 638 1324 604 1353 569 1375 C 533 1397 495 1418 453 1438 L 532 1518 C 588 1494 638 1466 684 1434 C 730 1402 771 1365 807 1323 L 1071 1386 L 1073 1294 L 864 1243 C 902 1180 931 1108 951 1027 C 971 946 981 854 981 752 C 981 646 969 547 947 454 C 924 360 890 278 845 208 C 800 138 744 82 676 41 C 608 0 530 -20 440 -20 C 379 -20 325 -10 277 9 C 229 29 189 56 157 92 C 124 127 99 169 82 218 C 65 266 57 320 57 379 C 57 424 62 471 72 520 C 82 569 98 617 118 664 C 138 710 162 754 192 796 C 222 838 256 874 294 906 C 332 937 374 962 421 980 C 467 998 518 1008 573 1008 C 631 1008 680 995 722 971 C 764 947 796 912 819 866 L 823 866 C 819 936 810 998 797 1054 C 783 1109 761 1162 729 1212 L 365 1126 L 365 1219 Z M 813 606 C 813 645 808 682 799 716 C 790 750 776 780 758 806 C 739 831 715 851 687 865 C 659 879 626 887 588 887 C 548 887 512 879 478 865 C 444 850 414 830 386 805 C 358 780 334 751 313 718 C 291 685 273 650 259 613 C 244 575 233 537 226 498 C 218 458 215 420 215 383 C 215 342 219 304 229 270 C 238 236 252 206 271 181 C 290 156 314 137 342 123 C 370 109 402 102 440 102 C 479 102 515 109 549 124 C 583 138 613 158 641 183 C 669 208 693 237 715 271 C 736 304 754 339 769 377 C 783 414 794 452 802 492 C 809 531 813 569 813 606 Z" unicode="ð" />
<glyph horiz-adv-x="1120" d="M 399 989 L 354 768 L 358 768 C 412 846 472 906 537 948 C 602 989 671 1010 743 1010 C 777 1010 810 1005 841 995 C 872 985 899 969 923 948 C 946 927 964 901 978 869 C 992 837 999 799 999 756 C 999 739 998 722 996 706 C 994 690 991 671 987 650 C 983 628 977 603 971 575 C 965 546 958 511 950 471 L 852 0 L 696 0 L 793 467 C 800 503 807 534 813 560 C 819 586 824 608 828 628 C 832 648 835 665 837 681 C 839 697 840 712 840 727 C 840 775 829 813 807 843 C 785 872 752 887 707 887 C 679 887 650 881 621 870 C 591 858 563 843 535 824 C 507 804 481 782 456 757 C 431 732 409 706 389 678 C 369 650 352 622 338 594 C 324 566 314 539 309 514 L 199 0 L 43 0 L 252 989 L 399 989 Z M 338 1174 C 361 1279 396 1361 443 1419 C 490 1477 545 1507 608 1507 C 644 1507 675 1497 700 1478 C 724 1459 748 1434 772 1403 L 813 1348 C 823 1333 835 1319 848 1306 C 861 1292 878 1286 899 1286 C 917 1286 933 1292 948 1304 C 963 1316 976 1332 988 1352 C 1000 1372 1010 1394 1018 1419 C 1026 1443 1033 1468 1038 1493 L 1151 1493 C 1127 1385 1092 1302 1045 1246 C 997 1189 943 1161 883 1161 C 851 1161 822 1169 798 1185 C 773 1201 747 1228 721 1264 L 680 1319 C 675 1325 670 1332 664 1340 C 658 1347 652 1354 645 1360 C 638 1366 630 1370 622 1374 C 613 1378 604 1380 594 1380 C 575 1380 558 1374 543 1362 C 528 1350 515 1334 503 1314 C 491 1294 481 1272 473 1248 C 464 1223 457 1198 453 1174 L 338 1174 L 338 1174 Z" unicode="ñ" />
<glyph horiz-adv-x="1063" d="M 971 608 C 971 564 966 517 956 469 C 946 421 931 373 911 327 C 891 280 866 236 836 194 C 806 152 772 115 732 83 C 692 51 648 26 599 8 C 549 -10 495 -20 436 -20 C 376 -20 323 -10 276 9 C 229 29 189 56 157 92 C 125 128 100 170 83 220 C 65 270 57 325 57 385 C 57 429 62 476 72 524 C 82 572 97 619 117 665 C 137 711 162 755 192 797 C 222 838 256 874 296 906 C 335 937 379 962 429 980 C 478 998 532 1008 592 1008 C 652 1008 706 998 753 978 C 800 958 840 931 872 896 C 904 861 929 819 946 770 C 962 720 971 666 971 608 Z M 813 604 C 813 644 808 682 799 716 C 790 750 776 780 758 806 C 740 831 716 851 688 865 C 659 879 625 887 586 887 C 547 887 511 879 478 865 C 445 851 415 831 387 806 C 359 781 335 752 314 720 C 292 687 274 652 260 615 C 245 578 234 540 226 502 C 218 463 215 425 215 389 C 215 347 219 309 228 274 C 237 238 251 208 270 183 C 289 157 313 137 342 123 C 370 109 404 102 444 102 C 482 102 517 109 550 124 C 583 138 613 158 641 183 C 668 207 692 236 714 270 C 735 303 753 338 768 375 C 782 412 793 450 801 490 C 809 529 813 567 813 604 Z M 549 1493 L 766 1174 L 622 1174 L 346 1493 L 549 1493 Z" unicode="ò" />
<glyph horiz-adv-x="1063" d="M 971 608 C 971 564 966 517 956 469 C 946 421 931 373 911 327 C 891 280 866 236 836 194 C 806 152 772 115 732 83 C 692 51 648 26 599 8 C 549 -10 495 -20 436 -20 C 376 -20 323 -10 276 9 C 229 29 189 56 157 92 C 125 128 100 170 83 220 C 65 270 57 325 57 385 C 57 429 62 476 72 524 C 82 572 97 619 117 665 C 137 711 162 755 192 797 C 222 838 256 874 296 906 C 335 937 379 962 429 980 C 478 998 532 1008 592 1008 C 652 1008 706 998 753 978 C 800 958 840 931 872 896 C 904 861 929 819 946 770 C 962 720 971 666 971 608 Z M 813 604 C 813 644 808 682 799 716 C 790 750 776 780 758 806 C 740 831 716 851 688 865 C 659 879 625 887 586 887 C 547 887 511 879 478 865 C 445 851 415 831 387 806 C 359 781 335 752 314 720 C 292 687 274 652 260 615 C 245 578 234 540 226 502 C 218 463 215 425 215 389 C 215 347 219 309 228 274 C 237 238 251 208 270 183 C 289 157 313 137 342 123 C 370 109 404 102 444 102 C 482 102 517 109 550 124 C 583 138 613 158 641 183 C 668 207 692 236 714 270 C 735 303 753 338 768 375 C 782 412 793 450 801 490 C 809 529 813 567 813 604 Z M 928 1493 L 651 1174 L 508 1174 L 727 1493 L 928 1493 Z" unicode="ó" />
<glyph horiz-adv-x="1063" d="M 971 608 C 971 564 966 517 956 469 C 946 421 931 373 911 327 C 891 280 866 236 836 194 C 806 152 772 115 732 83 C 692 51 648 26 599 8 C 549 -10 495 -20 436 -20 C 376 -20 323 -10 276 9 C 229 29 189 56 157 92 C 125 128 100 170 83 220 C 65 270 57 325 57 385 C 57 429 62 476 72 524 C 82 572 97 619 117 665 C 137 711 162 755 192 797 C 222 838 256 874 296 906 C 335 937 379 962 429 980 C 478 998 532 1008 592 1008 C 652 1008 706 998 753 978 C 800 958 840 931 872 896 C 904 861 929 819 946 770 C 962 720 971 666 971 608 Z M 813 604 C 813 644 808 682 799 716 C 790 750 776 780 758 806 C 740 831 716 851 688 865 C 659 879 625 887 586 887 C 547 887 511 879 478 865 C 445 851 415 831 387 806 C 359 781 335 752 314 720 C 292 687 274 652 260 615 C 245 578 234 540 226 502 C 218 463 215 425 215 389 C 215 347 219 309 228 274 C 237 238 251 208 270 183 C 289 157 313 137 342 123 C 370 109 404 102 444 102 C 482 102 517 109 550 124 C 583 138 613 158 641 183 C 668 207 692 236 714 270 C 735 303 753 338 768 375 C 782 412 793 450 801 490 C 809 529 813 567 813 604 Z M 797 1493 L 938 1174 L 821 1174 L 696 1391 L 686 1391 L 467 1174 L 334 1174 L 610 1493 L 797 1493 Z" unicode="ô" />
<glyph horiz-adv-x="1063" d="M 971 608 C 971 564 966 517 956 469 C 946 421 931 373 911 327 C 891 280 866 236 836 194 C 806 152 772 115 732 83 C 692 51 648 26 599 8 C 549 -10 495 -20 436 -20 C 376 -20 323 -10 276 9 C 229 29 189 56 157 92 C 125 128 100 170 83 220 C 65 270 57 325 57 385 C 57 429 62 476 72 524 C 82 572 97 619 117 665 C 137 711 162 755 192 797 C 222 838 256 874 296 906 C 335 937 379 962 429 980 C 478 998 532 1008 592 1008 C 652 1008 706 998 753 978 C 800 958 840 931 872 896 C 904 861 929 819 946 770 C 962 720 971 666 971 608 Z M 813 604 C 813 644 808 682 799 716 C 790 750 776 780 758 806 C 740 831 716 851 688 865 C 659 879 625 887 586 887 C 547 887 511 879 478 865 C 445 851 415 831 387 806 C 359 781 335 752 314 720 C 292 687 274 652 260 615 C 245 578 234 540 226 502 C 218 463 215 425 215 389 C 215 347 219 309 228 274 C 237 238 251 208 270 183 C 289 157 313 137 342 123 C 370 109 404 102 444 102 C 482 102 517 109 550 124 C 583 138 613 158 641 183 C 668 207 692 236 714 270 C 735 303 753 338 768 375 C 782 412 793 450 801 490 C 809 529 813 567 813 604 Z M 266 1174 C 289 1279 324 1361 371 1419 C 418 1477 473 1507 536 1507 C 572 1507 603 1497 628 1478 C 652 1459 676 1434 700 1403 L 741 1348 C 751 1333 763 1319 776 1306 C 789 1292 806 1286 827 1286 C 845 1286 861 1292 876 1304 C 891 1316 904 1332 916 1352 C 928 1372 938 1394 946 1419 C 954 1443 961 1468 966 1493 L 1079 1493 C 1055 1385 1020 1302 973 1246 C 925 1189 871 1161 811 1161 C 779 1161 750 1169 726 1185 C 701 1201 675 1228 649 1264 L 608 1319 C 603 1325 598 1332 592 1340 C 586 1347 580 1354 573 1360 C 566 1366 558 1370 550 1374 C 541 1378 532 1380 522 1380 C 503 1380 486 1374 471 1362 C 456 1350 443 1334 431 1314 C 419 1294 409 1272 401 1248 C 392 1223 385 1198 381 1174 L 266 1174 L 266 1174 Z" unicode="õ" />
<glyph horiz-adv-x="1063" d="M 971 608 C 971 564 966 517 956 469 C 946 421 931 373 911 327 C 891 280 866 236 836 194 C 806 152 772 115 732 83 C 692 51 648 26 599 8 C 549 -10 495 -20 436 -20 C 376 -20 323 -10 276 9 C 229 29 189 56 157 92 C 125 128 100 170 83 220 C 65 270 57 325 57 385 C 57 429 62 476 72 524 C 82 572 97 619 117 665 C 137 711 162 755 192 797 C 222 838 256 874 296 906 C 335 937 379 962 429 980 C 478 998 532 1008 592 1008 C 652 1008 706 998 753 978 C 800 958 840 931 872 896 C 904 861 929 819 946 770 C 962 720 971 666 971 608 Z M 813 604 C 813 644 808 682 799 716 C 790 750 776 780 758 806 C 740 831 716 851 688 865 C 659 879 625 887 586 887 C 547 887 511 879 478 865 C 445 851 415 831 387 806 C 359 781 335 752 314 720 C 292 687 274 652 260 615 C 245 578 234 540 226 502 C 218 463 215 425 215 389 C 215 347 219 309 228 274 C 237 238 251 208 270 183 C 289 157 313 137 342 123 C 370 109 404 102 444 102 C 482 102 517 109 550 124 C 583 138 613 158 641 183 C 668 207 692 236 714 270 C 735 303 753 338 768 375 C 782 412 793 450 801 490 C 809 529 813 567 813 604 Z M 577 1427 L 536 1237 L 373 1237 L 414 1427 L 577 1427 Z M 969 1427 L 928 1237 L 764 1237 L 805 1427 L 969 1427 Z" unicode="ö" />
<glyph horiz-adv-x="1106" d="M 100 647 L 1004 647 L 1004 516 L 100 516 L 100 647 Z M 461 244 L 647 244 L 647 41 L 461 41 L 461 244 Z M 461 1122 L 647 1122 L 647 918 L 461 918 L 461 1122 Z" unicode="÷" />
<glyph horiz-adv-x="1063" d="M 182 68 C 140 104 109 148 88 202 C 67 256 57 317 57 385 C 57 429 62 476 72 524 C 82 572 97 619 117 665 C 137 711 162 755 192 797 C 222 838 256 874 296 906 C 335 937 379 962 429 980 C 478 998 532 1008 592 1008 C 652 1008 707 997 756 977 L 858 1133 L 983 1133 L 848 918 C 888 882 918 838 939 786 C 960 733 971 674 971 608 C 971 564 966 517 956 469 C 946 421 931 373 911 327 C 891 280 866 236 836 194 C 806 152 772 115 732 83 C 692 51 648 26 599 8 C 549 -10 495 -20 436 -20 C 373 -20 318 -10 272 10 L 174 -145 L 47 -145 L 182 68 Z M 211 387 C 211 345 215 308 223 274 C 231 240 244 210 262 184 L 686 872 C 671 878 656 883 640 887 C 624 891 606 893 588 893 C 549 893 513 885 479 871 C 445 856 414 836 386 811 C 358 786 333 757 311 724 C 289 690 271 655 256 617 C 241 579 230 541 222 502 C 214 462 211 424 211 387 Z M 817 604 C 817 644 812 681 804 715 C 796 749 783 779 766 805 L 346 115 C 359 108 374 103 390 100 C 406 97 424 96 442 96 C 480 96 516 103 550 118 C 584 133 614 153 642 179 C 670 204 694 233 716 267 C 738 301 756 336 771 374 C 786 412 797 450 805 490 C 813 529 817 567 817 604 Z" unicode="ø" />
<glyph horiz-adv-x="1122" d="M 911 383 C 905 354 899 325 894 297 C 888 269 884 239 880 209 C 876 178 873 146 871 112 C 869 78 868 40 868 0 L 719 0 C 719 44 721 88 726 134 C 730 179 735 220 741 256 L 737 256 C 678 162 614 93 546 48 C 477 2 408 -20 338 -20 C 304 -20 272 -14 242 -4 C 212 5 185 21 162 43 C 138 64 120 91 106 124 C 92 156 86 195 86 240 C 86 255 86 270 88 286 C 90 301 93 319 97 340 C 101 360 106 385 112 413 C 118 441 126 476 135 518 L 233 989 L 389 989 L 293 522 C 285 484 278 451 272 425 C 266 398 262 375 258 355 C 254 335 251 318 249 303 C 247 288 246 274 246 260 C 246 212 256 174 278 145 C 300 116 333 102 377 102 C 419 102 462 115 507 143 C 551 170 593 206 633 250 C 672 294 706 343 736 399 C 766 455 787 511 799 569 L 887 989 L 1042 989 L 911 383 Z M 586 1493 L 803 1174 L 659 1174 L 383 1493 L 586 1493 Z" unicode="ù" />
<glyph horiz-adv-x="1122" d="M 911 383 C 905 354 899 325 894 297 C 888 269 884 239 880 209 C 876 178 873 146 871 112 C 869 78 868 40 868 0 L 719 0 C 719 44 721 88 726 134 C 730 179 735 220 741 256 L 737 256 C 678 162 614 93 546 48 C 477 2 408 -20 338 -20 C 304 -20 272 -14 242 -4 C 212 5 185 21 162 43 C 138 64 120 91 106 124 C 92 156 86 195 86 240 C 86 255 86 270 88 286 C 90 301 93 319 97 340 C 101 360 106 385 112 413 C 118 441 126 476 135 518 L 233 989 L 389 989 L 293 522 C 285 484 278 451 272 425 C 266 398 262 375 258 355 C 254 335 251 318 249 303 C 247 288 246 274 246 260 C 246 212 256 174 278 145 C 300 116 333 102 377 102 C 419 102 462 115 507 143 C 551 170 593 206 633 250 C 672 294 706 343 736 399 C 766 455 787 511 799 569 L 887 989 L 1042 989 L 911 383 Z M 965 1493 L 688 1174 L 545 1174 L 764 1493 L 965 1493 Z" unicode="ú" />
<glyph horiz-adv-x="1122" d="M 911 383 C 905 354 899 325 894 297 C 888 269 884 239 880 209 C 876 178 873 146 871 112 C 869 78 868 40 868 0 L 719 0 C 719 44 721 88 726 134 C 730 179 735 220 741 256 L 737 256 C 678 162 614 93 546 48 C 477 2 408 -20 338 -20 C 304 -20 272 -14 242 -4 C 212 5 185 21 162 43 C 138 64 120 91 106 124 C 92 156 86 195 86 240 C 86 255 86 270 88 286 C 90 301 93 319 97 340 C 101 360 106 385 112 413 C 118 441 126 476 135 518 L 233 989 L 389 989 L 293 522 C 285 484 278 451 272 425 C 266 398 262 375 258 355 C 254 335 251 318 249 303 C 247 288 246 274 246 260 C 246 212 256 174 278 145 C 300 116 333 102 377 102 C 419 102 462 115 507 143 C 551 170 593 206 633 250 C 672 294 706 343 736 399 C 766 455 787 511 799 569 L 887 989 L 1042 989 L 911 383 Z M 834 1493 L 975 1174 L 858 1174 L 733 1391 L 723 1391 L 504 1174 L 371 1174 L 647 1493 L 834 1493 Z" unicode="û" />
<glyph horiz-adv-x="1122" d="M 911 383 C 905 354 899 325 894 297 C 888 269 884 239 880 209 C 876 178 873 146 871 112 C 869 78 868 40 868 0 L 719 0 C 719 44 721 88 726 134 C 730 179 735 220 741 256 L 737 256 C 678 162 614 93 546 48 C 477 2 408 -20 338 -20 C 304 -20 272 -14 242 -4 C 212 5 185 21 162 43 C 138 64 120 91 106 124 C 92 156 86 195 86 240 C 86 255 86 270 88 286 C 90 301 93 319 97 340 C 101 360 106 385 112 413 C 118 441 126 476 135 518 L 233 989 L 389 989 L 293 522 C 285 484 278 451 272 425 C 266 398 262 375 258 355 C 254 335 251 318 249 303 C 247 288 246 274 246 260 C 246 212 256 174 278 145 C 300 116 333 102 377 102 C 419 102 462 115 507 143 C 551 170 593 206 633 250 C 672 294 706 343 736 399 C 766 455 787 511 799 569 L 887 989 L 1042 989 L 911 383 Z M 614 1427 L 573 1237 L 410 1237 L 451 1427 L 614 1427 Z M 1006 1427 L 965 1237 L 801 1237 L 842 1427 L 1006 1427 Z" unicode="ü" />
<glyph horiz-adv-x="981" d="M 117 989 L 283 989 L 393 373 C 397 343 401 313 405 282 C 409 250 412 220 416 190 L 424 190 L 836 989 L 1008 989 L 455 8 C 374 -132 290 -237 204 -306 C 118 -375 26 -410 -72 -410 C -73 -410 -76 -410 -82 -410 C -87 -410 -92 -410 -98 -410 C -104 -410 -109 -409 -114 -409 C -118 -409 -121 -408 -121 -408 L -96 -276 L -72 -276 C -42 -276 -12 -271 17 -262 C 46 -253 76 -237 107 -215 C 138 -193 170 -162 204 -123 C 237 -84 273 -35 311 25 L 117 989 Z M 908 1493 L 631 1174 L 488 1174 L 707 1493 L 908 1493 Z" unicode="ý" />
<glyph horiz-adv-x="1130" d="M -47 -410 L 350 1477 L 506 1477 L 352 768 L 356 768 C 380 804 407 836 435 866 C 463 896 493 921 524 943 C 555 964 588 980 622 992 C 656 1004 691 1010 727 1010 C 771 1010 813 1002 851 986 C 889 970 923 947 951 917 C 979 886 1000 848 1016 804 C 1032 760 1040 709 1040 653 C 1040 601 1034 548 1023 495 C 1012 441 996 390 976 340 C 955 290 930 244 900 200 C 870 156 837 117 801 85 C 764 53 724 27 681 8 C 637 -10 591 -20 543 -20 C 504 -20 469 -16 438 -8 C 407 0 379 11 354 27 C 329 42 306 61 286 84 C 266 106 247 132 231 162 L 227 162 L 109 -410 L -47 -410 Z M 700 887 C 658 887 615 875 572 852 C 528 828 488 796 451 756 C 413 716 380 669 352 615 C 323 561 303 504 291 444 L 260 299 C 289 236 323 187 363 153 C 403 119 454 102 518 102 C 554 102 587 109 619 125 C 651 141 680 162 707 189 C 733 215 757 246 779 282 C 800 318 818 356 833 397 C 847 437 859 479 867 522 C 875 565 879 607 879 649 C 879 679 876 709 870 738 C 864 766 854 792 840 814 C 826 836 808 853 785 867 C 762 880 734 887 700 887 Z" unicode="þ" />
<glyph horiz-adv-x="981" d="M 117 989 L 283 989 L 393 373 C 397 343 401 313 405 282 C 409 250 412 220 416 190 L 424 190 L 836 989 L 1008 989 L 455 8 C 374 -132 290 -237 204 -306 C 118 -375 26 -410 -72 -410 C -73 -410 -76 -410 -82 -410 C -87 -410 -92 -410 -98 -410 C -104 -410 -109 -409 -114 -409 C -118 -409 -121 -408 -121 -408 L -96 -276 L -72 -276 C -42 -276 -12 -271 17 -262 C 46 -253 76 -237 107 -215 C 138 -193 170 -162 204 -123 C 237 -84 273 -35 311 25 L 117 989 Z M 557 1427 L 516 1237 L 353 1237 L 394 1427 L 557 1427 Z M 949 1427 L 908 1237 L 744 1237 L 785 1427 L 949 1427 Z" unicode="ÿ" />
<glyph horiz-adv-x="1249" d="M 723 1389 L 874 1389 L 1100 0 L 934 0 L 872 393 L 328 393 L 115 0 L -66 0 L 723 1389 Z M 401 526 L 852 526 L 780 997 C 778 1009 776 1024 774 1040 C 772 1056 770 1073 768 1090 C 766 1107 764 1124 763 1140 C 761 1156 760 1171 760 1184 L 752 1184 C 746 1171 739 1156 731 1139 C 723 1122 714 1105 705 1088 C 696 1070 687 1054 679 1038 C 670 1022 663 1008 657 997 L 401 526 Z M 1110 1688 L 1086 1571 L 574 1571 L 598 1688 L 1110 1688 Z" unicode="Ā" />
<glyph horiz-adv-x="1116" d="M 721 0 C 722 48 725 98 730 152 C 735 205 744 264 758 328 L 754 328 C 726 278 696 231 664 189 C 632 146 598 109 562 78 C 526 47 489 23 449 6 C 409 -11 368 -20 324 -20 C 283 -20 245 -12 211 2 C 176 16 146 38 120 67 C 94 96 74 132 60 175 C 46 217 39 267 39 324 C 39 380 46 437 60 493 C 74 549 94 602 120 653 C 145 703 175 750 210 794 C 245 838 283 876 324 908 C 365 940 408 965 454 983 C 500 1001 546 1010 594 1010 C 656 1010 710 994 755 962 C 799 930 832 885 854 827 L 858 827 L 893 989 L 1038 989 L 907 383 C 893 317 882 252 876 190 C 870 128 866 64 864 0 L 721 0 Z M 817 684 C 811 712 802 738 790 762 C 778 786 763 808 745 827 C 727 845 706 860 682 871 C 658 881 632 887 604 887 C 569 887 535 879 501 863 C 467 847 436 826 406 799 C 376 771 349 739 324 703 C 298 667 277 628 259 587 C 241 545 226 502 216 458 C 206 414 201 370 201 328 C 201 299 203 271 209 244 C 214 216 223 192 235 171 C 247 150 263 133 283 121 C 302 108 326 102 354 102 C 386 102 418 110 450 128 C 482 145 514 167 544 195 C 574 223 603 254 631 290 C 658 325 682 361 704 397 C 726 433 744 467 760 501 C 775 534 786 563 793 588 L 817 684 Z M 922 1360 L 897 1243 L 385 1243 L 410 1360 L 922 1360 Z" unicode="ā" />
<glyph horiz-adv-x="1249" d="M 723 1389 L 874 1389 L 1100 0 L 934 0 L 872 393 L 328 393 L 115 0 L -66 0 L 723 1389 Z M 401 526 L 852 526 L 780 997 C 778 1009 776 1024 774 1040 C 772 1056 770 1073 768 1090 C 766 1107 764 1124 763 1140 C 761 1156 760 1171 760 1184 L 752 1184 C 746 1171 739 1156 731 1139 C 723 1122 714 1105 705 1088 C 696 1070 687 1054 679 1038 C 670 1022 663 1008 657 997 L 401 526 Z M 721 1819 C 715 1797 712 1782 711 1772 C 709 1762 709 1753 709 1745 C 709 1709 719 1679 740 1657 C 760 1635 794 1624 840 1624 C 871 1624 898 1628 921 1638 C 944 1648 964 1661 980 1677 C 996 1693 1008 1711 1018 1731 C 1028 1751 1035 1772 1039 1794 L 1043 1819 L 1166 1819 L 1155 1772 C 1147 1734 1134 1699 1117 1667 C 1099 1635 1077 1606 1050 1582 C 1023 1557 991 1538 954 1524 C 917 1510 875 1503 828 1503 C 750 1503 691 1521 650 1558 C 608 1595 588 1646 588 1710 C 588 1719 588 1733 590 1752 C 592 1770 597 1793 607 1819 L 721 1819 Z" unicode="Ă" />
<glyph horiz-adv-x="1116" d="M 721 0 C 722 48 725 98 730 152 C 735 205 744 264 758 328 L 754 328 C 726 278 696 231 664 189 C 632 146 598 109 562 78 C 526 47 489 23 449 6 C 409 -11 368 -20 324 -20 C 283 -20 245 -12 211 2 C 176 16 146 38 120 67 C 94 96 74 132 60 175 C 46 217 39 267 39 324 C 39 380 46 437 60 493 C 74 549 94 602 120 653 C 145 703 175 750 210 794 C 245 838 283 876 324 908 C 365 940 408 965 454 983 C 500 1001 546 1010 594 1010 C 656 1010 710 994 755 962 C 799 930 832 885 854 827 L 858 827 L 893 989 L 1038 989 L 907 383 C 893 317 882 252 876 190 C 870 128 866 64 864 0 L 721 0 Z M 817 684 C 811 712 802 738 790 762 C 778 786 763 808 745 827 C 727 845 706 860 682 871 C 658 881 632 887 604 887 C 569 887 535 879 501 863 C 467 847 436 826 406 799 C 376 771 349 739 324 703 C 298 667 277 628 259 587 C 241 545 226 502 216 458 C 206 414 201 370 201 328 C 201 299 203 271 209 244 C 214 216 223 192 235 171 C 247 150 263 133 283 121 C 302 108 326 102 354 102 C 386 102 418 110 450 128 C 482 145 514 167 544 195 C 574 223 603 254 631 290 C 658 325 682 361 704 397 C 726 433 744 467 760 501 C 775 534 786 563 793 588 L 817 684 Z M 531 1493 C 525 1463 521 1441 519 1426 C 517 1411 516 1399 516 1389 C 516 1373 518 1359 523 1345 C 527 1331 535 1320 546 1310 C 556 1300 570 1292 587 1286 C 603 1280 623 1278 647 1278 C 677 1278 704 1282 727 1292 C 749 1302 769 1315 785 1331 C 801 1347 813 1365 823 1385 C 833 1405 840 1426 844 1448 L 852 1493 L 975 1493 L 961 1425 C 953 1390 941 1356 925 1324 C 908 1292 886 1263 860 1239 C 833 1214 801 1194 764 1179 C 726 1164 683 1157 635 1157 C 555 1157 495 1175 454 1213 C 413 1250 393 1299 393 1360 C 393 1374 394 1393 397 1415 C 400 1437 406 1463 416 1493 L 531 1493 Z" unicode="ă" />
<glyph horiz-adv-x="1249" d="M 905 -154 C 889 -166 876 -176 866 -186 C 855 -196 846 -205 839 -213 C 832 -221 827 -230 824 -239 C 820 -247 819 -257 819 -268 C 819 -282 821 -294 826 -304 C 830 -313 837 -320 845 -326 C 853 -332 862 -336 872 -338 C 882 -340 892 -342 903 -342 C 925 -342 948 -338 972 -331 C 995 -323 1014 -316 1030 -309 L 1020 -416 C 1001 -425 979 -433 955 -441 C 930 -449 902 -453 870 -453 C 841 -453 815 -449 791 -442 C 767 -435 747 -425 730 -411 C 713 -397 700 -381 690 -361 C 680 -341 676 -318 676 -293 C 676 -268 680 -246 689 -226 C 697 -206 709 -187 724 -169 C 739 -151 757 -133 778 -117 C 799 -101 822 -84 848 -68 L 936 -8 L 872 393 L 328 393 L 115 0 L -66 0 L 723 1389 L 874 1389 L 1100 0 L 905 -154 Z M 401 526 L 852 526 L 780 997 C 774 1030 770 1063 767 1097 C 763 1130 761 1159 760 1184 L 752 1184 C 746 1171 739 1156 731 1139 C 723 1122 714 1105 705 1088 C 696 1070 687 1054 679 1038 C 670 1022 663 1008 657 997 L 401 526 Z" unicode="Ą" />
<glyph horiz-adv-x="1116" d="M 670 -154 C 654 -166 641 -176 630 -186 C 619 -196 610 -205 603 -214 C 596 -222 591 -231 588 -240 C 585 -249 584 -260 584 -272 C 584 -285 586 -296 591 -305 C 596 -314 603 -321 612 -327 C 620 -332 630 -336 641 -338 C 651 -340 662 -342 674 -342 C 686 -342 699 -341 713 -339 C 726 -337 739 -334 752 -331 C 764 -327 776 -324 787 -320 C 797 -316 807 -313 815 -309 L 805 -416 C 786 -425 763 -433 735 -441 C 707 -449 676 -453 641 -453 C 579 -453 530 -438 494 -410 C 458 -382 440 -344 440 -297 C 440 -271 443 -248 451 -228 C 459 -208 470 -189 485 -171 C 500 -153 518 -136 539 -120 C 560 -103 584 -86 612 -68 L 721 6 C 722 53 725 103 730 155 C 735 207 744 265 758 328 L 754 328 C 726 278 696 231 664 189 C 632 146 598 109 562 78 C 526 47 489 23 449 6 C 409 -11 368 -20 324 -20 C 283 -20 245 -12 211 2 C 176 16 146 38 120 67 C 94 96 74 132 60 175 C 46 217 39 267 39 324 C 39 380 46 437 60 493 C 74 549 94 602 120 653 C 145 703 175 750 210 794 C 245 838 283 876 324 908 C 365 940 408 965 454 983 C 500 1001 546 1010 594 1010 C 656 1010 710 994 755 962 C 799 930 832 885 854 827 L 858 827 L 893 989 L 1038 989 L 907 383 C 893 318 882 255 876 193 C 870 131 866 66 864 0 L 670 -154 Z M 817 684 C 811 712 802 738 790 762 C 778 786 763 808 745 827 C 727 845 706 860 682 871 C 658 881 632 887 604 887 C 569 887 535 879 501 863 C 467 847 436 826 406 799 C 376 771 349 739 324 703 C 298 667 277 628 259 587 C 241 545 226 502 216 458 C 206 414 201 370 201 328 C 201 299 203 271 209 244 C 214 216 223 192 235 171 C 247 150 263 133 283 121 C 302 108 326 102 354 102 C 386 102 418 110 450 128 C 482 145 514 167 544 195 C 574 223 603 254 631 290 C 658 325 682 361 704 397 C 726 433 744 467 760 501 C 775 534 786 563 793 588 L 817 684 Z" unicode="ą" />
<glyph horiz-adv-x="1249" d="M 1249 1176 C 1223 1192 1194 1205 1163 1217 C 1132 1228 1101 1237 1069 1245 C 1037 1253 1005 1258 974 1262 C 942 1266 913 1268 887 1268 C 797 1268 715 1249 643 1212 C 570 1175 508 1126 456 1064 C 404 1002 365 931 337 851 C 309 771 295 688 295 602 C 295 520 307 448 332 388 C 356 328 390 278 432 238 C 474 198 523 169 579 150 C 635 130 694 121 758 121 C 782 121 809 122 837 125 C 865 128 894 133 924 139 C 953 145 982 152 1010 162 C 1038 171 1063 182 1087 195 L 1087 47 C 1063 36 1036 26 1007 18 C 978 10 948 3 918 -2 C 887 -8 856 -12 825 -15 C 794 -18 765 -20 737 -20 C 651 -20 570 -6 496 21 C 422 48 357 88 303 140 C 248 192 205 257 174 333 C 142 409 127 496 127 594 C 127 664 135 732 151 800 C 167 868 191 932 222 992 C 253 1052 291 1108 336 1159 C 381 1210 432 1254 489 1291 C 546 1328 609 1357 677 1378 C 745 1398 819 1409 897 1409 C 927 1409 958 1407 992 1404 C 1026 1400 1060 1395 1094 1388 C 1128 1381 1161 1372 1194 1362 C 1227 1351 1258 1339 1286 1325 L 1249 1176 Z M 1169 1839 L 909 1540 L 766 1540 L 972 1839 L 1169 1839 Z" unicode="Ć" />
<glyph horiz-adv-x="913" d="M 741 35 C 718 25 694 16 669 10 C 643 3 618 -2 592 -7 C 566 -11 541 -15 517 -17 C 492 -19 469 -20 449 -20 C 380 -20 321 -10 271 8 C 221 27 181 54 149 89 C 117 123 93 165 78 214 C 62 263 55 317 55 377 C 55 427 60 478 70 529 C 80 579 96 628 116 675 C 136 722 162 766 192 807 C 222 847 258 883 298 913 C 338 943 383 966 433 984 C 482 1001 536 1010 596 1010 C 619 1010 643 1008 667 1006 C 691 1003 715 999 738 994 C 761 988 783 982 804 974 C 825 966 844 956 860 946 L 827 817 C 811 827 794 836 774 844 C 754 852 734 858 713 864 C 691 870 670 874 648 878 C 626 881 605 883 586 883 C 524 883 470 868 424 838 C 378 808 339 770 309 722 C 278 674 255 621 240 561 C 224 501 217 442 217 383 C 217 336 223 295 236 261 C 248 226 266 197 288 174 C 310 151 337 134 368 123 C 399 111 433 106 469 106 C 493 106 518 107 543 111 C 568 115 592 120 616 126 C 639 132 661 140 683 148 C 704 156 723 165 741 174 L 741 35 Z M 897 1493 L 620 1174 L 477 1174 L 696 1493 L 897 1493 Z" unicode="ć" />
<glyph horiz-adv-x="1249" d="M 1249 1176 C 1223 1192 1194 1205 1163 1217 C 1132 1228 1101 1237 1069 1245 C 1037 1253 1005 1258 974 1262 C 942 1266 913 1268 887 1268 C 797 1268 715 1249 643 1212 C 570 1175 508 1126 456 1064 C 404 1002 365 931 337 851 C 309 771 295 688 295 602 C 295 520 307 448 332 388 C 356 328 390 278 432 238 C 474 198 523 169 579 150 C 635 130 694 121 758 121 C 782 121 809 122 837 125 C 865 128 894 133 924 139 C 953 145 982 152 1010 162 C 1038 171 1063 182 1087 195 L 1087 47 C 1063 36 1036 26 1007 18 C 978 10 948 3 918 -2 C 887 -8 856 -12 825 -15 C 794 -18 765 -20 737 -20 C 651 -20 570 -6 496 21 C 422 48 357 88 303 140 C 248 192 205 257 174 333 C 142 409 127 496 127 594 C 127 664 135 732 151 800 C 167 868 191 932 222 992 C 253 1052 291 1108 336 1159 C 381 1210 432 1254 489 1291 C 546 1328 609 1357 677 1378 C 745 1398 819 1409 897 1409 C 927 1409 958 1407 992 1404 C 1026 1400 1060 1395 1094 1388 C 1128 1381 1161 1372 1194 1362 C 1227 1351 1258 1339 1286 1325 L 1249 1176 Z M 1050 1839 L 1202 1540 L 1085 1540 L 950 1737 L 940 1737 L 719 1540 L 585 1540 L 864 1839 L 1050 1839 Z" unicode="Ĉ" />
<glyph horiz-adv-x="913" d="M 741 35 C 718 25 694 16 669 10 C 643 3 618 -2 592 -7 C 566 -11 541 -15 517 -17 C 492 -19 469 -20 449 -20 C 380 -20 321 -10 271 8 C 221 27 181 54 149 89 C 117 123 93 165 78 214 C 62 263 55 317 55 377 C 55 427 60 478 70 529 C 80 579 96 628 116 675 C 136 722 162 766 192 807 C 222 847 258 883 298 913 C 338 943 383 966 433 984 C 482 1001 536 1010 596 1010 C 619 1010 643 1008 667 1006 C 691 1003 715 999 738 994 C 761 988 783 982 804 974 C 825 966 844 956 860 946 L 827 817 C 811 827 794 836 774 844 C 754 852 734 858 713 864 C 691 870 670 874 648 878 C 626 881 605 883 586 883 C 524 883 470 868 424 838 C 378 808 339 770 309 722 C 278 674 255 621 240 561 C 224 501 217 442 217 383 C 217 336 223 295 236 261 C 248 226 266 197 288 174 C 310 151 337 134 368 123 C 399 111 433 106 469 106 C 493 106 518 107 543 111 C 568 115 592 120 616 126 C 639 132 661 140 683 148 C 704 156 723 165 741 174 L 741 35 Z M 766 1493 L 907 1174 L 790 1174 L 665 1391 L 655 1391 L 436 1174 L 303 1174 L 579 1493 L 766 1493 Z" unicode="ĉ" />
<glyph horiz-adv-x="1249" d="M 1249 1176 C 1223 1192 1194 1205 1163 1217 C 1132 1228 1101 1237 1069 1245 C 1037 1253 1005 1258 974 1262 C 942 1266 913 1268 887 1268 C 797 1268 715 1249 643 1212 C 570 1175 508 1126 456 1064 C 404 1002 365 931 337 851 C 309 771 295 688 295 602 C 295 520 307 448 332 388 C 356 328 390 278 432 238 C 474 198 523 169 579 150 C 635 130 694 121 758 121 C 782 121 809 122 837 125 C 865 128 894 133 924 139 C 953 145 982 152 1010 162 C 1038 171 1063 182 1087 195 L 1087 47 C 1063 36 1036 26 1007 18 C 978 10 948 3 918 -2 C 887 -8 856 -12 825 -15 C 794 -18 765 -20 737 -20 C 651 -20 570 -6 496 21 C 422 48 357 88 303 140 C 248 192 205 257 174 333 C 142 409 127 496 127 594 C 127 664 135 732 151 800 C 167 868 191 932 222 992 C 253 1052 291 1108 336 1159 C 381 1210 432 1254 489 1291 C 546 1328 609 1357 677 1378 C 745 1398 819 1409 897 1409 C 927 1409 958 1407 992 1404 C 1026 1400 1060 1395 1094 1388 C 1128 1381 1161 1372 1194 1362 C 1227 1351 1258 1339 1286 1325 L 1249 1176 Z M 1022 1759 L 981 1569 L 817 1569 L 858 1759 L 1022 1759 Z" unicode="Ċ" />
<glyph horiz-adv-x="913" d="M 741 35 C 718 25 694 16 669 10 C 643 3 618 -2 592 -7 C 566 -11 541 -15 517 -17 C 492 -19 469 -20 449 -20 C 380 -20 321 -10 271 8 C 221 27 181 54 149 89 C 117 123 93 165 78 214 C 62 263 55 317 55 377 C 55 427 60 478 70 529 C 80 579 96 628 116 675 C 136 722 162 766 192 807 C 222 847 258 883 298 913 C 338 943 383 966 433 984 C 482 1001 536 1010 596 1010 C 619 1010 643 1008 667 1006 C 691 1003 715 999 738 994 C 761 988 783 982 804 974 C 825 966 844 956 860 946 L 827 817 C 811 827 794 836 774 844 C 754 852 734 858 713 864 C 691 870 670 874 648 878 C 626 881 605 883 586 883 C 524 883 470 868 424 838 C 378 808 339 770 309 722 C 278 674 255 621 240 561 C 224 501 217 442 217 383 C 217 336 223 295 236 261 C 248 226 266 197 288 174 C 310 151 337 134 368 123 C 399 111 433 106 469 106 C 493 106 518 107 543 111 C 568 115 592 120 616 126 C 639 132 661 140 683 148 C 704 156 723 165 741 174 L 741 35 Z M 741 1427 L 700 1237 L 536 1237 L 577 1427 L 741 1427 Z" unicode="ċ" />
<glyph horiz-adv-x="1249" d="M 1249 1176 C 1223 1192 1194 1205 1163 1217 C 1132 1228 1101 1237 1069 1245 C 1037 1253 1005 1258 974 1262 C 942 1266 913 1268 887 1268 C 797 1268 715 1249 643 1212 C 570 1175 508 1126 456 1064 C 404 1002 365 931 337 851 C 309 771 295 688 295 602 C 295 520 307 448 332 388 C 356 328 390 278 432 238 C 474 198 523 169 579 150 C 635 130 694 121 758 121 C 782 121 809 122 837 125 C 865 128 894 133 924 139 C 953 145 982 152 1010 162 C 1038 171 1063 182 1087 195 L 1087 47 C 1063 36 1036 26 1007 18 C 978 10 948 3 918 -2 C 887 -8 856 -12 825 -15 C 794 -18 765 -20 737 -20 C 651 -20 570 -6 496 21 C 422 48 357 88 303 140 C 248 192 205 257 174 333 C 142 409 127 496 127 594 C 127 664 135 732 151 800 C 167 868 191 932 222 992 C 253 1052 291 1108 336 1159 C 381 1210 432 1254 489 1291 C 546 1328 609 1357 677 1378 C 745 1398 819 1409 897 1409 C 927 1409 958 1407 992 1404 C 1026 1400 1060 1395 1094 1388 C 1128 1381 1161 1372 1194 1362 C 1227 1351 1258 1339 1286 1325 L 1249 1176 Z M 800 1540 L 649 1839 L 766 1839 L 901 1642 L 911 1642 L 1132 1839 L 1265 1839 L 987 1540 L 800 1540 Z" unicode="Č" />
<glyph horiz-adv-x="913" d="M 741 35 C 718 25 694 16 669 10 C 643 3 618 -2 592 -7 C 566 -11 541 -15 517 -17 C 492 -19 469 -20 449 -20 C 380 -20 321 -10 271 8 C 221 27 181 54 149 89 C 117 123 93 165 78 214 C 62 263 55 317 55 377 C 55 427 60 478 70 529 C 80 579 96 628 116 675 C 136 722 162 766 192 807 C 222 847 258 883 298 913 C 338 943 383 966 433 984 C 482 1001 536 1010 596 1010 C 619 1010 643 1008 667 1006 C 691 1003 715 999 738 994 C 761 988 783 982 804 974 C 825 966 844 956 860 946 L 827 817 C 811 827 794 836 774 844 C 754 852 734 858 713 864 C 691 870 670 874 648 878 C 626 881 605 883 586 883 C 524 883 470 868 424 838 C 378 808 339 770 309 722 C 278 674 255 621 240 561 C 224 501 217 442 217 383 C 217 336 223 295 236 261 C 248 226 266 197 288 174 C 310 151 337 134 368 123 C 399 111 433 106 469 106 C 493 106 518 107 543 111 C 568 115 592 120 616 126 C 639 132 661 140 683 148 C 704 156 723 165 741 174 L 741 35 Z M 512 1174 L 364 1493 L 479 1493 L 612 1276 L 622 1276 L 845 1493 L 981 1493 L 698 1174 L 512 1174 Z" unicode="č" />
<glyph horiz-adv-x="1391" d="M 365 1389 C 373 1389 386 1390 402 1391 C 418 1391 436 1392 456 1393 C 476 1394 496 1395 518 1396 C 540 1396 560 1397 580 1397 C 690 1397 790 1383 880 1357 C 970 1330 1046 1290 1110 1238 C 1174 1185 1223 1119 1258 1041 C 1293 963 1311 872 1311 770 C 1311 704 1303 640 1289 576 C 1275 512 1252 452 1222 395 C 1191 337 1152 284 1105 235 C 1058 186 1002 144 936 108 C 870 72 795 44 711 24 C 627 4 532 -6 428 -6 C 396 -6 362 -5 326 -4 C 290 -2 256 -1 224 0 C 191 2 161 3 135 5 C 109 6 90 7 78 8 L 365 1389 Z M 264 133 C 293 129 326 127 364 125 C 402 123 437 123 469 123 C 579 123 676 140 760 176 C 844 212 914 259 971 319 C 1028 379 1071 447 1101 524 C 1130 600 1145 680 1145 762 C 1145 847 1130 921 1100 985 C 1070 1049 1029 1102 979 1144 C 928 1186 869 1217 803 1238 C 737 1259 668 1270 596 1270 C 576 1270 558 1269 542 1269 C 525 1268 509 1267 494 1266 L 264 133 Z M 737 1540 L 586 1839 L 703 1839 L 838 1642 L 848 1642 L 1069 1839 L 1202 1839 L 924 1540 L 737 1540 Z" unicode="Ď" />
<glyph horiz-adv-x="1143" d="M 926 383 C 920 354 914 325 908 297 C 902 269 898 239 894 209 C 890 178 886 146 884 112 C 882 78 881 40 881 0 L 733 0 C 733 44 735 88 740 134 C 745 179 750 220 756 256 L 752 256 C 640 72 509 -20 358 -20 C 314 -20 273 -12 236 3 C 199 19 167 42 140 73 C 113 103 92 141 77 187 C 62 232 55 284 55 344 C 55 394 60 446 72 499 C 83 551 99 602 121 652 C 143 701 169 747 200 791 C 230 835 265 873 304 905 C 343 937 386 963 432 982 C 478 1000 527 1010 580 1010 C 644 1010 699 995 745 965 C 791 935 829 891 860 834 L 864 834 L 1006 1493 L 1161 1493 L 926 383 Z M 393 102 C 425 102 457 109 489 123 C 520 137 550 157 579 182 C 608 206 635 235 661 267 C 686 299 709 332 729 368 C 749 404 767 440 781 476 C 795 512 806 547 813 580 L 836 690 C 823 718 809 744 793 768 C 777 792 759 812 739 830 C 719 848 696 862 671 872 C 645 882 617 887 586 887 C 548 887 512 879 479 863 C 445 847 415 826 388 799 C 360 772 336 741 315 705 C 293 669 275 632 261 592 C 247 552 236 511 228 469 C 220 427 217 386 217 348 C 217 316 220 285 226 255 C 232 225 242 199 256 177 C 270 154 288 136 310 122 C 332 108 360 102 393 102 Z M 1491 1493 L 1335 1100 L 1241 1100 L 1325 1493 L 1491 1493 Z" unicode="ď" />
<glyph horiz-adv-x="1405" d="M 76 784 L 250 784 L 377 1389 C 385 1389 398 1390 414 1391 C 430 1391 448 1392 468 1393 C 488 1394 508 1395 530 1396 C 552 1396 572 1397 592 1397 C 702 1397 802 1383 892 1357 C 982 1330 1058 1290 1122 1238 C 1186 1185 1235 1119 1270 1041 C 1305 963 1323 872 1323 770 C 1323 704 1315 640 1301 576 C 1287 512 1264 452 1234 395 C 1203 337 1164 284 1117 235 C 1070 186 1014 144 948 108 C 882 72 807 44 723 24 C 639 4 544 -6 440 -6 C 408 -6 374 -5 338 -4 C 302 -2 268 -1 236 0 C 203 2 173 3 147 5 C 121 6 102 7 90 8 L 223 649 L 45 649 L 76 784 Z M 408 784 L 723 784 L 694 649 L 381 649 L 276 133 C 305 129 338 127 376 125 C 414 123 449 123 481 123 C 591 123 688 140 772 176 C 856 212 927 259 984 319 C 1041 379 1084 447 1113 524 C 1142 600 1157 680 1157 762 C 1157 847 1142 921 1112 985 C 1082 1049 1041 1102 991 1144 C 940 1186 881 1217 815 1238 C 749 1259 680 1270 608 1270 C 588 1270 570 1269 554 1269 C 537 1268 521 1267 506 1266 L 408 784 Z" unicode="Đ" />
<glyph horiz-adv-x="1143" d="M 1114 1274 L 1272 1274 L 1251 1174 L 1094 1174 L 926 383 C 920 354 914 325 908 297 C 902 269 898 239 894 209 C 890 178 886 146 884 112 C 882 78 881 40 881 0 L 733 0 C 733 44 735 88 740 134 C 745 179 750 220 756 256 L 752 256 C 640 72 509 -20 358 -20 C 314 -20 273 -12 236 3 C 199 19 167 42 140 73 C 113 103 92 141 77 187 C 62 232 55 284 55 344 C 55 394 60 446 72 499 C 83 551 99 602 121 652 C 143 701 169 747 200 791 C 230 835 265 873 304 905 C 343 937 386 963 432 982 C 478 1000 527 1010 580 1010 C 644 1010 699 995 745 965 C 791 935 829 891 860 834 L 864 834 L 936 1174 L 616 1174 L 639 1274 L 958 1274 L 1006 1493 L 1161 1493 L 1114 1274 Z M 393 102 C 425 102 457 109 489 123 C 520 137 550 157 579 182 C 608 206 635 235 661 267 C 686 299 709 332 729 368 C 749 404 767 440 781 476 C 795 512 806 547 813 580 L 836 690 C 823 718 809 744 793 768 C 777 792 759 812 739 830 C 719 848 696 862 671 872 C 645 882 617 887 586 887 C 548 887 512 879 479 863 C 445 847 415 826 388 799 C 360 772 336 741 315 705 C 293 669 275 632 261 592 C 247 552 236 511 228 469 C 220 427 217 386 217 348 C 217 316 220 285 226 255 C 232 225 242 199 256 177 C 270 154 288 136 310 122 C 332 108 360 102 393 102 Z" unicode="đ" />
<glyph horiz-adv-x="1106" d="M 1143 1389 L 1116 1255 L 500 1255 L 399 784 L 942 784 L 913 649 L 373 649 L 264 133 L 926 133 L 895 0 L 74 0 L 371 1389 L 1143 1389 Z M 1063 1688 L 1039 1571 L 527 1571 L 551 1688 L 1063 1688 Z" unicode="Ē" />
<glyph horiz-adv-x="1022" d="M 795 53 C 743 32 688 15 632 1 C 576 -13 517 -20 457 -20 C 330 -20 233 12 166 78 C 99 143 66 240 66 369 C 66 419 71 469 82 521 C 92 572 108 621 128 669 C 148 717 174 761 204 803 C 234 844 268 880 307 911 C 345 942 388 966 435 984 C 482 1001 533 1010 588 1010 C 638 1010 684 1002 726 986 C 768 970 805 945 836 913 C 866 881 890 841 908 793 C 925 745 934 689 934 625 C 934 582 930 537 922 489 L 225 489 C 221 471 219 453 218 435 C 217 417 217 400 217 383 C 217 287 239 217 283 171 C 327 125 391 102 475 102 C 503 102 532 105 562 110 C 592 115 621 121 650 129 C 679 136 707 144 734 154 C 761 163 786 172 809 182 L 795 53 Z M 578 887 C 539 887 503 879 469 864 C 435 848 405 827 377 801 C 349 775 325 744 304 709 C 283 673 266 636 252 596 L 776 596 C 778 606 779 616 780 627 C 781 637 782 647 782 657 C 782 691 777 723 768 751 C 759 779 746 804 728 824 C 710 844 689 859 664 870 C 638 881 610 887 578 887 Z M 926 1360 L 901 1243 L 389 1243 L 414 1360 L 926 1360 Z" unicode="ē" />
<glyph horiz-adv-x="1106" d="M 1143 1389 L 1116 1255 L 500 1255 L 399 784 L 942 784 L 913 649 L 373 649 L 264 133 L 926 133 L 895 0 L 74 0 L 371 1389 L 1143 1389 Z M 674 1819 C 668 1797 665 1782 664 1772 C 662 1762 662 1753 662 1745 C 662 1709 672 1679 693 1657 C 713 1635 747 1624 793 1624 C 824 1624 851 1628 874 1638 C 897 1648 917 1661 933 1677 C 949 1693 961 1711 971 1731 C 981 1751 988 1772 992 1794 L 996 1819 L 1119 1819 L 1108 1772 C 1100 1734 1087 1699 1070 1667 C 1052 1635 1030 1606 1003 1582 C 976 1557 944 1538 907 1524 C 870 1510 828 1503 781 1503 C 703 1503 644 1521 603 1558 C 561 1595 541 1646 541 1710 C 541 1719 541 1733 543 1752 C 545 1770 550 1793 560 1819 L 674 1819 Z" unicode="Ĕ" />
<glyph horiz-adv-x="1022" d="M 795 53 C 743 32 688 15 632 1 C 576 -13 517 -20 457 -20 C 330 -20 233 12 166 78 C 99 143 66 240 66 369 C 66 419 71 469 82 521 C 92 572 108 621 128 669 C 148 717 174 761 204 803 C 234 844 268 880 307 911 C 345 942 388 966 435 984 C 482 1001 533 1010 588 1010 C 638 1010 684 1002 726 986 C 768 970 805 945 836 913 C 866 881 890 841 908 793 C 925 745 934 689 934 625 C 934 582 930 537 922 489 L 225 489 C 221 471 219 453 218 435 C 217 417 217 400 217 383 C 217 287 239 217 283 171 C 327 125 391 102 475 102 C 503 102 532 105 562 110 C 592 115 621 121 650 129 C 679 136 707 144 734 154 C 761 163 786 172 809 182 L 795 53 Z M 578 887 C 539 887 503 879 469 864 C 435 848 405 827 377 801 C 349 775 325 744 304 709 C 283 673 266 636 252 596 L 776 596 C 778 606 779 616 780 627 C 781 637 782 647 782 657 C 782 691 777 723 768 751 C 759 779 746 804 728 824 C 710 844 689 859 664 870 C 638 881 610 887 578 887 Z M 535 1493 C 529 1463 525 1441 523 1426 C 521 1411 520 1399 520 1389 C 520 1373 522 1359 527 1345 C 531 1331 539 1320 550 1310 C 560 1300 574 1292 591 1286 C 607 1280 627 1278 651 1278 C 681 1278 708 1282 731 1292 C 753 1302 773 1315 789 1331 C 805 1347 817 1365 827 1385 C 837 1405 844 1426 848 1448 L 856 1493 L 979 1493 L 965 1425 C 957 1390 945 1356 929 1324 C 912 1292 890 1263 864 1239 C 837 1214 805 1194 768 1179 C 730 1164 687 1157 639 1157 C 559 1157 499 1175 458 1213 C 417 1250 397 1299 397 1360 C 397 1374 398 1393 401 1415 C 404 1437 410 1463 420 1493 L 535 1493 Z" unicode="ĕ" />
<glyph horiz-adv-x="1106" d="M 1143 1389 L 1116 1255 L 500 1255 L 399 784 L 942 784 L 913 649 L 373 649 L 264 133 L 926 133 L 895 0 L 74 0 L 371 1389 L 1143 1389 Z M 906 1759 L 865 1569 L 701 1569 L 742 1759 L 906 1759 Z" unicode="Ė" />
<glyph horiz-adv-x="1022" d="M 795 53 C 743 32 688 15 632 1 C 576 -13 517 -20 457 -20 C 330 -20 233 12 166 78 C 99 143 66 240 66 369 C 66 419 71 469 82 521 C 92 572 108 621 128 669 C 148 717 174 761 204 803 C 234 844 268 880 307 911 C 345 942 388 966 435 984 C 482 1001 533 1010 588 1010 C 638 1010 684 1002 726 986 C 768 970 805 945 836 913 C 866 881 890 841 908 793 C 925 745 934 689 934 625 C 934 582 930 537 922 489 L 225 489 C 221 471 219 453 218 435 C 217 417 217 400 217 383 C 217 287 239 217 283 171 C 327 125 391 102 475 102 C 503 102 532 105 562 110 C 592 115 621 121 650 129 C 679 136 707 144 734 154 C 761 163 786 172 809 182 L 795 53 Z M 578 887 C 539 887 503 879 469 864 C 435 848 405 827 377 801 C 349 775 325 744 304 709 C 283 673 266 636 252 596 L 776 596 C 778 606 779 616 780 627 C 781 637 782 647 782 657 C 782 691 777 723 768 751 C 759 779 746 804 728 824 C 710 844 689 859 664 870 C 638 881 610 887 578 887 Z M 766 1427 L 725 1237 L 561 1237 L 602 1427 L 766 1427 Z" unicode="ė" />
<glyph horiz-adv-x="1106" d="M 1143 1389 L 1116 1255 L 500 1255 L 399 784 L 940 784 L 913 649 L 373 649 L 264 133 L 926 133 L 895 0 L 868 0 L 674 -154 C 657 -165 643 -175 632 -185 C 621 -194 612 -203 606 -212 C 599 -221 594 -230 592 -240 C 589 -249 588 -260 588 -272 C 588 -285 590 -296 595 -305 C 600 -314 607 -321 616 -327 C 624 -332 634 -336 645 -338 C 655 -340 666 -342 678 -342 C 690 -342 703 -341 717 -339 C 730 -337 743 -334 756 -331 C 768 -327 780 -324 791 -320 C 801 -316 811 -313 819 -309 L 809 -416 C 790 -425 767 -433 739 -441 C 711 -449 680 -453 645 -453 C 583 -453 534 -438 498 -410 C 462 -382 444 -344 444 -297 C 444 -271 447 -248 455 -228 C 463 -208 474 -189 489 -171 C 504 -153 522 -136 543 -120 C 564 -103 588 -86 616 -68 L 715 0 L 74 0 L 371 1389 L 1143 1389 Z" unicode="Ę" />
<glyph horiz-adv-x="1022" d="M 795 53 C 767 43 740 33 713 23 C 685 13 657 6 629 0 L 434 -154 C 418 -166 405 -176 395 -186 C 384 -196 375 -205 368 -214 C 361 -222 356 -231 353 -240 C 349 -249 348 -260 348 -272 C 348 -285 350 -296 355 -305 C 360 -314 367 -321 376 -327 C 384 -332 394 -336 405 -338 C 415 -340 426 -342 438 -342 C 450 -342 463 -341 477 -339 C 491 -337 504 -334 516 -331 C 528 -327 540 -324 551 -320 C 562 -316 572 -313 580 -309 L 569 -416 C 550 -425 527 -433 499 -441 C 471 -449 440 -453 406 -453 C 344 -453 295 -438 259 -410 C 223 -382 205 -344 205 -297 C 205 -271 208 -248 216 -228 C 224 -208 235 -189 250 -171 C 264 -153 282 -135 304 -119 C 325 -103 349 -86 377 -68 L 444 -23 L 444 -18 C 322 -16 228 16 163 81 C 98 146 66 242 66 369 C 66 419 71 469 82 521 C 92 572 108 621 128 669 C 148 717 174 761 204 803 C 234 844 268 880 307 911 C 345 942 388 966 435 984 C 482 1001 533 1010 588 1010 C 638 1010 684 1002 726 986 C 768 970 805 945 836 913 C 866 881 890 841 908 793 C 925 745 934 689 934 625 C 934 582 930 537 922 489 L 225 489 C 221 471 219 453 218 435 C 217 417 217 400 217 383 C 217 287 239 217 283 171 C 327 125 391 102 475 102 C 503 102 532 105 562 110 C 592 115 621 121 650 129 C 679 136 707 144 734 154 C 761 163 786 172 809 182 L 795 53 Z M 578 887 C 539 887 503 879 469 864 C 435 848 405 827 377 801 C 349 775 325 744 304 709 C 283 673 266 636 252 596 L 776 596 C 778 606 779 616 780 627 C 781 637 782 647 782 657 C 782 691 777 723 768 751 C 759 779 746 804 728 824 C 710 844 689 859 664 870 C 638 881 610 887 578 887 Z" unicode="ę" />
<glyph horiz-adv-x="1106" d="M 1143 1389 L 1116 1255 L 500 1255 L 399 784 L 942 784 L 913 649 L 373 649 L 264 133 L 926 133 L 895 0 L 74 0 L 371 1389 L 1143 1389 Z M 684 1540 L 533 1839 L 650 1839 L 785 1642 L 795 1642 L 1016 1839 L 1149 1839 L 871 1540 L 684 1540 Z" unicode="Ě" />
<glyph horiz-adv-x="1022" d="M 795 53 C 743 32 688 15 632 1 C 576 -13 517 -20 457 -20 C 330 -20 233 12 166 78 C 99 143 66 240 66 369 C 66 419 71 469 82 521 C 92 572 108 621 128 669 C 148 717 174 761 204 803 C 234 844 268 880 307 911 C 345 942 388 966 435 984 C 482 1001 533 1010 588 1010 C 638 1010 684 1002 726 986 C 768 970 805 945 836 913 C 866 881 890 841 908 793 C 925 745 934 689 934 625 C 934 582 930 537 922 489 L 225 489 C 221 471 219 453 218 435 C 217 417 217 400 217 383 C 217 287 239 217 283 171 C 327 125 391 102 475 102 C 503 102 532 105 562 110 C 592 115 621 121 650 129 C 679 136 707 144 734 154 C 761 163 786 172 809 182 L 795 53 Z M 578 887 C 539 887 503 879 469 864 C 435 848 405 827 377 801 C 349 775 325 744 304 709 C 283 673 266 636 252 596 L 776 596 C 778 606 779 616 780 627 C 781 637 782 647 782 657 C 782 691 777 723 768 751 C 759 779 746 804 728 824 C 710 844 689 859 664 870 C 638 881 610 887 578 887 Z M 537 1174 L 389 1493 L 504 1493 L 637 1276 L 647 1276 L 870 1493 L 1006 1493 L 723 1174 L 537 1174 Z" unicode="ě" />
<glyph horiz-adv-x="1409" d="M 805 743 L 1292 743 L 1143 25 C 1118 17 1091 10 1061 4 C 1031 -1 1001 -5 970 -9 C 939 -13 908 -15 878 -17 C 848 -19 820 -20 795 -20 C 696 -20 606 -7 524 18 C 442 44 372 82 313 134 C 254 186 208 250 176 327 C 143 404 127 494 127 598 C 127 674 136 746 154 816 C 172 886 197 951 231 1011 C 265 1071 306 1125 354 1174 C 402 1223 457 1265 517 1300 C 577 1334 643 1361 714 1380 C 785 1399 860 1409 940 1409 C 971 1409 1004 1407 1040 1404 C 1075 1401 1110 1397 1146 1391 C 1181 1385 1215 1377 1249 1369 C 1283 1361 1313 1351 1341 1341 L 1307 1196 C 1283 1208 1255 1218 1223 1227 C 1191 1236 1159 1244 1125 1250 C 1091 1256 1058 1260 1025 1263 C 991 1266 961 1268 934 1268 C 840 1268 753 1251 675 1217 C 597 1183 529 1137 473 1078 C 416 1018 372 948 340 867 C 308 786 293 698 293 604 C 293 522 305 450 329 389 C 353 327 387 276 431 236 C 475 196 528 165 591 145 C 653 125 723 115 801 115 C 818 115 837 115 857 116 C 877 117 896 118 915 120 C 934 122 952 124 968 126 C 984 128 998 130 1008 133 L 1104 608 L 774 608 L 805 743 Z M 1067 1839 L 1219 1540 L 1102 1540 L 967 1737 L 957 1737 L 736 1540 L 602 1540 L 881 1839 L 1067 1839 Z" unicode="Ĝ" />
<glyph horiz-adv-x="1001" d="M 1020 862 C 988 862 955 857 921 849 C 887 840 856 826 829 807 C 840 773 846 739 846 707 C 846 677 842 647 834 615 C 826 583 815 552 800 522 C 784 492 765 463 743 436 C 720 409 694 385 664 365 C 634 345 601 329 564 317 C 526 305 486 299 442 299 C 386 299 337 308 293 328 C 283 318 276 309 271 300 C 266 291 264 280 264 268 C 264 252 270 237 282 224 C 294 210 311 197 334 184 C 357 170 385 157 418 143 C 451 129 489 114 532 98 C 574 80 613 63 650 46 C 686 29 718 10 746 -10 C 773 -30 794 -54 810 -80 C 826 -106 834 -136 834 -172 C 834 -219 820 -259 792 -292 C 764 -325 728 -352 684 -372 C 640 -392 590 -407 534 -416 C 478 -425 421 -430 365 -430 C 296 -430 234 -424 179 -412 C 123 -400 76 -384 37 -362 C -1 -340 -31 -313 -52 -282 C -73 -250 -84 -215 -84 -176 C -84 -135 -74 -100 -55 -70 C -35 -40 -11 -15 16 6 C 44 27 75 45 108 61 C 141 76 171 90 199 102 C 175 120 157 140 144 160 C 131 180 125 204 125 231 C 125 258 131 283 143 307 C 155 330 177 354 209 379 C 179 405 156 437 140 475 C 124 513 117 554 117 598 C 117 642 125 689 142 737 C 159 785 184 830 218 870 C 252 910 294 944 344 970 C 394 996 452 1010 518 1010 C 576 1010 628 999 673 979 C 717 958 754 930 782 895 C 814 931 852 958 896 978 C 940 998 988 1008 1040 1008 L 1020 862 Z M 700 698 C 700 724 696 750 688 774 C 680 798 669 820 653 838 C 637 856 618 871 595 882 C 572 893 546 899 516 899 C 474 899 437 889 405 870 C 373 850 347 826 326 797 C 304 767 288 735 278 701 C 267 666 262 633 262 602 C 262 574 266 548 274 525 C 282 501 295 481 311 465 C 327 448 346 435 369 426 C 391 416 417 412 446 412 C 488 412 524 421 556 439 C 588 457 614 479 636 507 C 657 535 673 565 684 599 C 694 633 700 666 700 698 Z M 428 -10 C 404 0 382 8 360 16 C 338 24 318 33 299 43 C 267 31 236 17 208 3 C 179 -10 154 -26 132 -43 C 110 -59 93 -77 80 -97 C 67 -117 61 -138 61 -162 C 61 -210 88 -247 143 -275 C 197 -303 275 -317 375 -317 C 408 -317 442 -315 477 -311 C 512 -307 544 -300 573 -290 C 602 -280 626 -266 644 -248 C 662 -230 672 -208 672 -180 C 672 -162 667 -146 657 -133 C 647 -120 633 -107 613 -95 C 593 -83 567 -70 537 -57 C 506 -43 470 -28 428 -10 Z M 721 1493 L 862 1174 L 745 1174 L 620 1391 L 610 1391 L 391 1174 L 258 1174 L 534 1493 L 721 1493 Z" unicode="ĝ" />
<glyph horiz-adv-x="1409" d="M 805 743 L 1292 743 L 1143 25 C 1118 17 1091 10 1061 4 C 1031 -1 1001 -5 970 -9 C 939 -13 908 -15 878 -17 C 848 -19 820 -20 795 -20 C 696 -20 606 -7 524 18 C 442 44 372 82 313 134 C 254 186 208 250 176 327 C 143 404 127 494 127 598 C 127 674 136 746 154 816 C 172 886 197 951 231 1011 C 265 1071 306 1125 354 1174 C 402 1223 457 1265 517 1300 C 577 1334 643 1361 714 1380 C 785 1399 860 1409 940 1409 C 971 1409 1004 1407 1040 1404 C 1075 1401 1110 1397 1146 1391 C 1181 1385 1215 1377 1249 1369 C 1283 1361 1313 1351 1341 1341 L 1307 1196 C 1283 1208 1255 1218 1223 1227 C 1191 1236 1159 1244 1125 1250 C 1091 1256 1058 1260 1025 1263 C 991 1266 961 1268 934 1268 C 840 1268 753 1251 675 1217 C 597 1183 529 1137 473 1078 C 416 1018 372 948 340 867 C 308 786 293 698 293 604 C 293 522 305 450 329 389 C 353 327 387 276 431 236 C 475 196 528 165 591 145 C 653 125 723 115 801 115 C 818 115 837 115 857 116 C 877 117 896 118 915 120 C 934 122 952 124 968 126 C 984 128 998 130 1008 133 L 1104 608 L 774 608 L 805 743 Z M 807 1819 C 801 1797 798 1782 797 1772 C 795 1762 795 1753 795 1745 C 795 1709 805 1679 826 1657 C 846 1635 880 1624 926 1624 C 957 1624 984 1628 1007 1638 C 1030 1648 1050 1661 1066 1677 C 1082 1693 1094 1711 1104 1731 C 1114 1751 1121 1772 1125 1794 L 1129 1819 L 1252 1819 L 1241 1772 C 1233 1734 1220 1699 1203 1667 C 1185 1635 1163 1606 1136 1582 C 1109 1557 1077 1538 1040 1524 C 1003 1510 961 1503 914 1503 C 836 1503 777 1521 736 1558 C 694 1595 674 1646 674 1710 C 674 1719 674 1733 676 1752 C 678 1770 683 1793 693 1819 L 807 1819 Z" unicode="Ğ" />
<glyph horiz-adv-x="1001" d="M 1020 862 C 988 862 955 857 921 849 C 887 840 856 826 829 807 C 840 773 846 739 846 707 C 846 677 842 647 834 615 C 826 583 815 552 800 522 C 784 492 765 463 743 436 C 720 409 694 385 664 365 C 634 345 601 329 564 317 C 526 305 486 299 442 299 C 386 299 337 308 293 328 C 283 318 276 309 271 300 C 266 291 264 280 264 268 C 264 252 270 237 282 224 C 294 210 311 197 334 184 C 357 170 385 157 418 143 C 451 129 489 114 532 98 C 574 80 613 63 650 46 C 686 29 718 10 746 -10 C 773 -30 794 -54 810 -80 C 826 -106 834 -136 834 -172 C 834 -219 820 -259 792 -292 C 764 -325 728 -352 684 -372 C 640 -392 590 -407 534 -416 C 478 -425 421 -430 365 -430 C 296 -430 234 -424 179 -412 C 123 -400 76 -384 37 -362 C -1 -340 -31 -313 -52 -282 C -73 -250 -84 -215 -84 -176 C -84 -135 -74 -100 -55 -70 C -35 -40 -11 -15 16 6 C 44 27 75 45 108 61 C 141 76 171 90 199 102 C 175 120 157 140 144 160 C 131 180 125 204 125 231 C 125 258 131 283 143 307 C 155 330 177 354 209 379 C 179 405 156 437 140 475 C 124 513 117 554 117 598 C 117 642 125 689 142 737 C 159 785 184 830 218 870 C 252 910 294 944 344 970 C 394 996 452 1010 518 1010 C 576 1010 628 999 673 979 C 717 958 754 930 782 895 C 814 931 852 958 896 978 C 940 998 988 1008 1040 1008 L 1020 862 Z M 700 698 C 700 724 696 750 688 774 C 680 798 669 820 653 838 C 637 856 618 871 595 882 C 572 893 546 899 516 899 C 474 899 437 889 405 870 C 373 850 347 826 326 797 C 304 767 288 735 278 701 C 267 666 262 633 262 602 C 262 574 266 548 274 525 C 282 501 295 481 311 465 C 327 448 346 435 369 426 C 391 416 417 412 446 412 C 488 412 524 421 556 439 C 588 457 614 479 636 507 C 657 535 673 565 684 599 C 694 633 700 666 700 698 Z M 428 -10 C 404 0 382 8 360 16 C 338 24 318 33 299 43 C 267 31 236 17 208 3 C 179 -10 154 -26 132 -43 C 110 -59 93 -77 80 -97 C 67 -117 61 -138 61 -162 C 61 -210 88 -247 143 -275 C 197 -303 275 -317 375 -317 C 408 -317 442 -315 477 -311 C 512 -307 544 -300 573 -290 C 602 -280 626 -266 644 -248 C 662 -230 672 -208 672 -180 C 672 -162 667 -146 657 -133 C 647 -120 633 -107 613 -95 C 593 -83 567 -70 537 -57 C 506 -43 470 -28 428 -10 Z M 465 1493 C 459 1463 455 1441 453 1426 C 451 1411 450 1399 450 1389 C 450 1373 452 1359 457 1345 C 461 1331 469 1320 480 1310 C 490 1300 504 1292 521 1286 C 537 1280 557 1278 581 1278 C 611 1278 638 1282 661 1292 C 683 1302 703 1315 719 1331 C 735 1347 747 1365 757 1385 C 767 1405 774 1426 778 1448 L 786 1493 L 909 1493 L 895 1425 C 887 1390 875 1356 859 1324 C 842 1292 820 1263 794 1239 C 767 1214 735 1194 698 1179 C 660 1164 617 1157 569 1157 C 489 1157 429 1175 388 1213 C 347 1250 327 1299 327 1360 C 327 1374 328 1393 331 1415 C 334 1437 340 1463 350 1493 L 465 1493 Z" unicode="ğ" />
<glyph horiz-adv-x="1409" d="M 805 743 L 1292 743 L 1143 25 C 1118 17 1091 10 1061 4 C 1031 -1 1001 -5 970 -9 C 939 -13 908 -15 878 -17 C 848 -19 820 -20 795 -20 C 696 -20 606 -7 524 18 C 442 44 372 82 313 134 C 254 186 208 250 176 327 C 143 404 127 494 127 598 C 127 674 136 746 154 816 C 172 886 197 951 231 1011 C 265 1071 306 1125 354 1174 C 402 1223 457 1265 517 1300 C 577 1334 643 1361 714 1380 C 785 1399 860 1409 940 1409 C 971 1409 1004 1407 1040 1404 C 1075 1401 1110 1397 1146 1391 C 1181 1385 1215 1377 1249 1369 C 1283 1361 1313 1351 1341 1341 L 1307 1196 C 1283 1208 1255 1218 1223 1227 C 1191 1236 1159 1244 1125 1250 C 1091 1256 1058 1260 1025 1263 C 991 1266 961 1268 934 1268 C 840 1268 753 1251 675 1217 C 597 1183 529 1137 473 1078 C 416 1018 372 948 340 867 C 308 786 293 698 293 604 C 293 522 305 450 329 389 C 353 327 387 276 431 236 C 475 196 528 165 591 145 C 653 125 723 115 801 115 C 818 115 837 115 857 116 C 877 117 896 118 915 120 C 934 122 952 124 968 126 C 984 128 998 130 1008 133 L 1104 608 L 774 608 L 805 743 Z M 1039 1759 L 998 1569 L 834 1569 L 875 1759 L 1039 1759 Z" unicode="Ġ" />
<glyph horiz-adv-x="1001" d="M 1020 862 C 988 862 955 857 921 849 C 887 840 856 826 829 807 C 840 773 846 739 846 707 C 846 677 842 647 834 615 C 826 583 815 552 800 522 C 784 492 765 463 743 436 C 720 409 694 385 664 365 C 634 345 601 329 564 317 C 526 305 486 299 442 299 C 386 299 337 308 293 328 C 283 318 276 309 271 300 C 266 291 264 280 264 268 C 264 252 270 237 282 224 C 294 210 311 197 334 184 C 357 170 385 157 418 143 C 451 129 489 114 532 98 C 574 80 613 63 650 46 C 686 29 718 10 746 -10 C 773 -30 794 -54 810 -80 C 826 -106 834 -136 834 -172 C 834 -219 820 -259 792 -292 C 764 -325 728 -352 684 -372 C 640 -392 590 -407 534 -416 C 478 -425 421 -430 365 -430 C 296 -430 234 -424 179 -412 C 123 -400 76 -384 37 -362 C -1 -340 -31 -313 -52 -282 C -73 -250 -84 -215 -84 -176 C -84 -135 -74 -100 -55 -70 C -35 -40 -11 -15 16 6 C 44 27 75 45 108 61 C 141 76 171 90 199 102 C 175 120 157 140 144 160 C 131 180 125 204 125 231 C 125 258 131 283 143 307 C 155 330 177 354 209 379 C 179 405 156 437 140 475 C 124 513 117 554 117 598 C 117 642 125 689 142 737 C 159 785 184 830 218 870 C 252 910 294 944 344 970 C 394 996 452 1010 518 1010 C 576 1010 628 999 673 979 C 717 958 754 930 782 895 C 814 931 852 958 896 978 C 940 998 988 1008 1040 1008 L 1020 862 Z M 700 698 C 700 724 696 750 688 774 C 680 798 669 820 653 838 C 637 856 618 871 595 882 C 572 893 546 899 516 899 C 474 899 437 889 405 870 C 373 850 347 826 326 797 C 304 767 288 735 278 701 C 267 666 262 633 262 602 C 262 574 266 548 274 525 C 282 501 295 481 311 465 C 327 448 346 435 369 426 C 391 416 417 412 446 412 C 488 412 524 421 556 439 C 588 457 614 479 636 507 C 657 535 673 565 684 599 C 694 633 700 666 700 698 Z M 428 -10 C 404 0 382 8 360 16 C 338 24 318 33 299 43 C 267 31 236 17 208 3 C 179 -10 154 -26 132 -43 C 110 -59 93 -77 80 -97 C 67 -117 61 -138 61 -162 C 61 -210 88 -247 143 -275 C 197 -303 275 -317 375 -317 C 408 -317 442 -315 477 -311 C 512 -307 544 -300 573 -290 C 602 -280 626 -266 644 -248 C 662 -230 672 -208 672 -180 C 672 -162 667 -146 657 -133 C 647 -120 633 -107 613 -95 C 593 -83 567 -70 537 -57 C 506 -43 470 -28 428 -10 Z M 696 1427 L 655 1237 L 491 1237 L 532 1427 L 696 1427 Z" unicode="ġ" />
<glyph horiz-adv-x="1409" d="M 805 743 L 1292 743 L 1143 25 C 1118 17 1091 10 1061 4 C 1031 -1 1001 -5 970 -9 C 939 -13 908 -15 878 -17 C 848 -19 820 -20 795 -20 C 696 -20 606 -7 524 18 C 442 44 372 82 313 134 C 254 186 208 250 176 327 C 143 404 127 494 127 598 C 127 674 136 746 154 816 C 172 886 197 951 231 1011 C 265 1071 306 1125 354 1174 C 402 1223 457 1265 517 1300 C 577 1334 643 1361 714 1380 C 785 1399 860 1409 940 1409 C 971 1409 1004 1407 1040 1404 C 1075 1401 1110 1397 1146 1391 C 1181 1385 1215 1377 1249 1369 C 1283 1361 1313 1351 1341 1341 L 1307 1196 C 1283 1208 1255 1218 1223 1227 C 1191 1236 1159 1244 1125 1250 C 1091 1256 1058 1260 1025 1263 C 991 1266 961 1268 934 1268 C 840 1268 753 1251 675 1217 C 597 1183 529 1137 473 1078 C 416 1018 372 948 340 867 C 308 786 293 698 293 604 C 293 522 305 450 329 389 C 353 327 387 276 431 236 C 475 196 528 165 591 145 C 653 125 723 115 801 115 C 818 115 837 115 857 116 C 877 117 896 118 915 120 C 934 122 952 124 968 126 C 984 128 998 130 1008 133 L 1104 608 L 774 608 L 805 743 Z M 741 -113 L 459 -432 L 332 -432 L 555 -113 L 741 -113 Z" unicode="Ģ" />
<glyph horiz-adv-x="1001" d="M 410 1174 L 692 1493 L 819 1493 L 594 1174 L 410 1174 Z M 1020 862 C 988 862 955 857 921 849 C 887 840 856 826 829 807 C 840 773 846 739 846 707 C 846 677 842 647 834 615 C 826 583 815 552 800 522 C 784 492 765 463 743 436 C 720 409 694 385 664 365 C 634 345 601 329 564 317 C 526 305 486 299 442 299 C 386 299 337 308 293 328 C 283 318 276 309 271 300 C 266 291 264 280 264 268 C 264 252 270 237 282 224 C 294 210 311 197 334 184 C 357 170 385 157 418 143 C 451 129 489 114 532 98 C 574 80 613 63 650 46 C 686 29 718 10 746 -10 C 773 -30 794 -54 810 -80 C 826 -106 834 -136 834 -172 C 834 -219 820 -259 792 -292 C 764 -325 728 -352 684 -372 C 640 -392 590 -407 534 -416 C 478 -425 421 -430 365 -430 C 296 -430 234 -424 179 -412 C 123 -400 76 -384 37 -362 C -1 -340 -31 -313 -52 -282 C -73 -250 -84 -215 -84 -176 C -84 -135 -74 -100 -55 -70 C -35 -40 -11 -15 16 6 C 44 27 75 45 108 61 C 141 76 171 90 199 102 C 175 120 157 140 144 160 C 131 180 125 204 125 231 C 125 258 131 283 143 307 C 155 330 177 354 209 379 C 179 405 156 437 140 475 C 124 513 117 554 117 598 C 117 642 125 689 142 737 C 159 785 184 830 218 870 C 252 910 294 944 344 970 C 394 996 452 1010 518 1010 C 576 1010 628 999 673 979 C 717 958 754 930 782 895 C 814 931 852 958 896 978 C 940 998 988 1008 1040 1008 L 1020 862 Z M 700 698 C 700 724 696 750 688 774 C 680 798 669 820 653 838 C 637 856 618 871 595 882 C 572 893 546 899 516 899 C 474 899 437 889 405 870 C 373 850 347 826 326 797 C 304 767 288 735 278 701 C 267 666 262 633 262 602 C 262 574 266 548 274 525 C 282 501 295 481 311 465 C 327 448 346 435 369 426 C 391 416 417 412 446 412 C 488 412 524 421 556 439 C 588 457 614 479 636 507 C 657 535 673 565 684 599 C 694 633 700 666 700 698 Z M 428 -10 C 404 0 382 8 360 16 C 338 24 318 33 299 43 C 267 31 236 17 208 3 C 179 -10 154 -26 132 -43 C 110 -59 93 -77 80 -97 C 67 -117 61 -138 61 -162 C 61 -210 88 -247 143 -275 C 197 -303 275 -317 375 -317 C 408 -317 442 -315 477 -311 C 512 -307 544 -300 573 -290 C 602 -280 626 -266 644 -248 C 662 -230 672 -208 672 -180 C 672 -162 667 -146 657 -133 C 647 -120 633 -107 613 -95 C 593 -83 567 -70 537 -57 C 506 -43 470 -28 428 -10 Z" unicode="ģ" />
<glyph horiz-adv-x="1450" d="M 530 1389 L 399 784 L 1137 784 L 1268 1389 L 1425 1389 L 1128 0 L 971 0 L 1110 649 L 373 649 L 233 0 L 74 0 L 371 1389 L 530 1389 Z M 1079 1839 L 1231 1540 L 1114 1540 L 979 1737 L 969 1737 L 748 1540 L 614 1540 L 893 1839 L 1079 1839 Z" unicode="Ĥ" />
<glyph horiz-adv-x="1120" d="M 516 1493 L 362 776 L 367 776 C 418 851 476 909 540 949 C 604 989 672 1010 743 1010 C 778 1010 811 1004 843 994 C 874 984 901 968 924 947 C 947 926 965 900 979 868 C 992 836 999 798 999 756 C 999 739 998 722 996 706 C 994 690 991 671 987 650 C 983 628 977 603 971 575 C 965 546 958 511 950 471 L 852 0 L 696 0 L 793 467 C 800 503 807 534 813 560 C 819 586 824 608 828 628 C 832 648 835 665 837 681 C 839 697 840 712 840 727 C 840 775 829 813 807 843 C 785 872 751 887 705 887 C 677 887 648 881 620 870 C 591 859 563 844 535 826 C 507 807 481 785 457 760 C 432 735 410 709 390 681 C 370 653 353 625 339 597 C 325 568 315 540 309 514 L 199 0 L 43 0 L 360 1493 L 516 1493 Z M 688 1900 L 840 1601 L 723 1601 L 588 1798 L 578 1798 L 357 1601 L 223 1601 L 502 1900 L 688 1900 Z" unicode="ĥ" />
<glyph horiz-adv-x="1450" d="M 530 1389 L 475 1137 L 1212 1137 L 1268 1389 L 1425 1389 L 1370 1137 L 1548 1137 L 1524 1020 L 1346 1020 L 1128 0 L 971 0 L 1110 649 L 373 649 L 233 0 L 74 0 L 291 1020 L 113 1020 L 139 1137 L 315 1137 L 371 1389 L 530 1389 Z M 1137 784 L 1188 1020 L 451 1020 L 399 784 L 1137 784 Z" unicode="Ħ" />
<glyph horiz-adv-x="1120" d="M 516 1493 L 469 1274 L 786 1274 L 766 1174 L 446 1174 L 362 776 L 367 776 C 418 851 476 909 540 949 C 604 989 672 1010 743 1010 C 778 1010 811 1004 843 994 C 874 984 901 968 924 947 C 947 926 965 900 979 868 C 992 836 999 798 999 756 C 999 739 998 722 996 706 C 994 690 991 671 987 650 C 983 628 977 603 971 575 C 965 546 958 511 950 471 L 852 0 L 696 0 L 793 467 C 800 503 807 534 813 560 C 819 586 824 608 828 628 C 832 648 835 665 837 681 C 839 697 840 712 840 727 C 840 775 829 813 807 843 C 785 872 751 887 705 887 C 677 887 648 881 620 870 C 591 859 563 844 535 826 C 507 807 481 785 457 760 C 432 735 410 709 390 681 C 370 653 353 625 339 597 C 325 568 315 540 309 514 L 199 0 L 43 0 L 293 1174 L 131 1174 L 154 1274 L 313 1274 L 360 1493 L 516 1493 Z" unicode="ħ" />
<glyph horiz-adv-x="555" d="M 530 1389 L 233 0 L 74 0 L 371 1389 L 530 1389 Z M 117 1540 C 127 1584 140 1625 157 1663 C 174 1701 194 1733 218 1761 C 242 1788 268 1809 298 1824 C 328 1839 360 1847 395 1847 C 425 1847 452 1840 478 1826 C 503 1812 528 1788 553 1753 L 588 1704 C 598 1689 608 1676 620 1665 C 632 1654 647 1649 666 1649 C 684 1649 700 1654 716 1666 C 732 1677 746 1692 758 1710 C 770 1728 781 1748 790 1771 C 799 1793 806 1816 811 1839 L 926 1839 C 916 1793 903 1752 886 1715 C 869 1677 849 1645 825 1618 C 801 1590 774 1569 744 1554 C 714 1539 683 1532 649 1532 C 613 1532 584 1540 560 1557 C 536 1574 514 1597 494 1626 L 459 1675 C 455 1679 451 1685 446 1691 C 441 1697 435 1704 429 1710 C 422 1716 414 1721 406 1725 C 397 1729 387 1731 377 1731 C 359 1731 343 1725 328 1715 C 313 1704 299 1690 287 1673 C 275 1655 264 1635 255 1612 C 245 1588 238 1564 233 1540 L 117 1540 Z" unicode="Ĩ" />
<glyph horiz-adv-x="489" d="M 408 989 L 199 0 L 43 0 L 252 989 L 408 989 Z M -2 1174 C 21 1279 56 1361 103 1419 C 150 1477 205 1507 268 1507 C 304 1507 335 1497 360 1478 C 384 1459 408 1434 432 1403 L 473 1348 C 483 1333 495 1319 508 1306 C 521 1292 538 1286 559 1286 C 577 1286 593 1292 608 1304 C 623 1316 636 1332 648 1352 C 660 1372 670 1394 678 1419 C 686 1443 693 1468 698 1493 L 811 1493 C 787 1385 752 1302 705 1246 C 657 1189 603 1161 543 1161 C 511 1161 482 1169 458 1185 C 433 1201 407 1228 381 1264 L 340 1319 C 335 1325 330 1332 324 1340 C 318 1347 312 1354 305 1360 C 298 1366 290 1370 282 1374 C 273 1378 264 1380 254 1380 C 235 1380 218 1374 203 1362 C 188 1350 175 1334 163 1314 C 151 1294 141 1272 133 1248 C 124 1223 117 1198 113 1174 L -2 1174 Z" unicode="ĩ" />
<glyph horiz-adv-x="555" d="M 530 1389 L 233 0 L 74 0 L 371 1389 L 530 1389 Z M 766 1688 L 741 1571 L 229 1571 L 254 1688 L 766 1688 Z" unicode="Ī" />
<glyph horiz-adv-x="489" d="M 408 989 L 199 0 L 43 0 L 252 989 L 408 989 Z M 664 1360 L 639 1243 L 127 1243 L 152 1360 L 664 1360 Z" unicode="ī" />
<glyph horiz-adv-x="555" d="M 530 1389 L 233 0 L 74 0 L 371 1389 L 530 1389 Z M 377 1819 C 371 1797 368 1782 367 1772 C 365 1762 365 1753 365 1745 C 365 1709 375 1679 395 1657 C 415 1635 449 1624 496 1624 C 527 1624 554 1628 577 1638 C 600 1648 620 1661 636 1677 C 652 1693 664 1711 674 1731 C 683 1751 690 1772 694 1794 L 698 1819 L 821 1819 L 811 1772 C 803 1734 790 1699 773 1667 C 755 1635 733 1606 706 1582 C 679 1557 647 1538 610 1524 C 573 1510 531 1503 483 1503 C 406 1503 347 1521 306 1558 C 264 1595 244 1646 244 1710 C 244 1719 244 1733 246 1752 C 247 1770 252 1793 262 1819 L 377 1819 Z" unicode="Ĭ" />
</font>
</defs>
</svg>
