<?xml version="1.0" standalone="yes"?><svg version="1.1" xmlns = 'http://www.w3.org/2000/svg'><defs><font id='web' horiz-adv-x="1000">
<font-face font-family="web" descent="-410" cap-height="1434" units-per-em="2048" bbox="-266,-467,2779,2144" x-height="1024" ascent="1638" />
<missing-glyph horiz-adv-x="991" d="M 0 1389 L 991 1389 L 991 0 L 0 0 L 0 1389 Z M 152 129 L 840 129 L 840 1260 L 152 1260 L 152 129 Z" /><glyph horiz-adv-x="1024" d="M 872 635 L 872 512 L 152 512 L 152 635 L 872 635 Z" unicode="–" />
<glyph horiz-adv-x="2048" d="M 1896 635 L 1896 512 L 152 512 L 152 635 L 1896 635 Z" unicode="—" />
<glyph horiz-adv-x="494" d="M 96 928 L 276 1389 L 399 1389 L 276 928 L 96 928 Z" unicode="‘" />
<glyph horiz-adv-x="494" d="M 399 1389 L 217 928 L 96 928 L 219 1389 L 399 1389 Z" unicode="’" />
<glyph horiz-adv-x="451" d="M 381 221 L 201 -240 L 78 -240 L 203 221 L 381 221 Z" unicode="‚" />
<glyph horiz-adv-x="862" d="M 96 928 L 276 1389 L 399 1389 L 276 928 L 96 928 Z M 463 928 L 645 1389 L 766 1389 L 643 928 L 463 928 Z" unicode="“" />
<glyph horiz-adv-x="862" d="M 766 1389 L 586 928 L 463 928 L 586 1389 L 766 1389 Z M 399 1389 L 217 928 L 96 928 L 219 1389 L 399 1389 Z" unicode="”" />
<glyph horiz-adv-x="819" d="M 750 221 L 567 -240 L 446 -240 L 569 221 L 750 221 Z M 381 221 L 201 -240 L 78 -240 L 203 221 L 381 221 Z" unicode="„" />
<glyph horiz-adv-x="410" d="" unicode=" " />
<glyph horiz-adv-x="528" d="M 362 1389 L 319 461 L 209 461 L 166 1389 L 362 1389 Z M 358 223 L 358 0 L 170 0 L 170 223 L 358 223 Z" unicode="!" />
<glyph horiz-adv-x="754" d="M 291 1389 L 223 928 L 111 928 L 111 1389 L 291 1389 Z M 643 1389 L 575 928 L 463 928 L 463 1389 L 643 1389 Z" unicode="&#x22;" />
<glyph horiz-adv-x="1593" d="M 1432 274 L 1055 274 L 965 -147 L 844 -147 L 934 274 L 516 274 L 426 -147 L 301 -147 L 391 274 L 94 274 L 94 403 L 418 403 L 512 840 L 162 840 L 162 969 L 541 969 L 631 1389 L 754 1389 L 664 969 L 1081 969 L 1171 1389 L 1296 1389 L 1204 969 L 1501 969 L 1501 840 L 1178 840 L 1083 403 L 1432 403 L 1432 274 Z M 543 403 L 961 403 L 1055 840 L 637 840 L 543 403 Z" unicode="#" />
<glyph horiz-adv-x="1028" d="M 596 1552 L 596 1327 C 641 1325 689 1318 739 1308 C 789 1298 835 1282 877 1262 L 862 1116 C 840 1127 817 1137 793 1147 C 769 1156 743 1164 717 1171 C 691 1177 664 1182 637 1186 C 609 1190 583 1192 557 1192 C 520 1192 485 1187 452 1179 C 418 1171 389 1158 364 1141 C 338 1124 318 1102 303 1076 C 288 1049 281 1017 281 981 C 281 924 299 879 336 847 C 372 815 428 788 504 768 L 571 750 C 633 732 688 713 734 691 C 780 669 818 644 849 615 C 879 586 902 553 917 516 C 932 479 940 437 940 391 C 940 338 931 291 913 249 C 895 207 871 171 841 140 C 810 109 774 84 732 64 C 690 44 644 29 596 20 L 596 -236 L 455 -236 L 455 10 C 429 10 400 11 370 14 C 340 17 309 22 278 28 C 247 34 217 43 187 53 C 157 63 130 76 106 90 L 123 233 C 147 219 173 206 201 195 C 229 183 259 174 289 166 C 319 158 350 153 381 149 C 411 145 441 143 469 143 C 509 143 548 148 586 157 C 624 166 657 180 686 199 C 714 217 737 241 754 269 C 771 297 780 331 780 371 C 780 400 774 426 764 450 C 754 473 739 494 719 512 C 699 530 675 546 647 560 C 618 574 585 586 549 596 L 475 616 C 417 632 367 650 323 672 C 279 693 242 718 212 746 C 182 774 159 807 144 844 C 128 880 121 922 121 969 C 121 1021 129 1067 147 1107 C 165 1147 189 1181 220 1210 C 250 1238 286 1261 326 1279 C 366 1297 409 1309 455 1317 L 455 1552 L 596 1552 Z" unicode="$" />
<glyph horiz-adv-x="1896" d="M 780 954 C 780 896 772 841 756 790 C 740 739 718 694 688 656 C 658 618 621 587 577 565 C 533 543 484 532 428 532 C 376 532 328 542 286 562 C 244 582 208 609 178 645 C 148 681 126 723 110 773 C 94 822 86 876 86 936 C 86 994 93 1048 109 1100 C 125 1151 148 1196 178 1234 C 208 1272 245 1303 289 1326 C 333 1348 383 1360 440 1360 C 491 1360 537 1350 579 1330 C 621 1310 656 1282 686 1246 C 716 1210 739 1167 755 1117 C 771 1067 780 1013 780 954 Z M 637 954 C 637 998 632 1037 623 1073 C 613 1108 600 1138 583 1162 C 566 1186 545 1205 521 1219 C 497 1232 470 1239 440 1239 C 404 1239 373 1231 347 1216 C 321 1201 299 1180 281 1153 C 263 1126 250 1094 242 1057 C 233 1020 229 980 229 936 C 229 892 233 853 242 818 C 251 782 264 752 281 728 C 298 703 319 684 344 671 C 368 657 396 651 428 651 C 462 651 492 658 518 673 C 544 688 566 709 584 736 C 601 763 614 795 623 832 C 632 869 637 910 637 954 Z M 1233 1341 L 1372 1341 L 666 0 L 524 0 L 1233 1341 Z M 1810 410 C 1810 352 1802 297 1786 246 C 1770 194 1748 149 1718 111 C 1688 72 1651 41 1607 19 C 1563 -2 1514 -14 1458 -14 C 1406 -14 1359 -4 1317 16 C 1275 36 1239 63 1209 99 C 1179 135 1156 177 1140 227 C 1124 277 1116 331 1116 391 C 1116 449 1123 503 1139 555 C 1155 606 1178 651 1208 690 C 1238 728 1276 759 1320 781 C 1364 803 1414 815 1470 815 C 1522 815 1568 805 1610 785 C 1652 765 1687 737 1717 701 C 1747 665 1770 623 1786 573 C 1802 523 1810 469 1810 410 Z M 1667 410 C 1667 454 1662 493 1653 528 C 1644 563 1631 593 1614 618 C 1597 642 1576 661 1552 674 C 1528 687 1500 694 1470 694 C 1434 694 1404 686 1378 671 C 1352 656 1330 635 1313 608 C 1295 581 1282 549 1274 512 C 1266 475 1262 435 1262 391 C 1262 347 1266 308 1275 273 C 1283 237 1296 207 1313 183 C 1329 158 1350 139 1374 126 C 1398 112 1426 106 1458 106 C 1492 106 1523 113 1549 128 C 1575 143 1596 164 1614 191 C 1632 218 1645 250 1654 288 C 1662 325 1667 366 1667 410 Z" unicode="%" />
<glyph horiz-adv-x="1411" d="M 1161 0 L 985 184 C 923 122 855 73 780 37 C 705 0 622 -18 532 -18 C 476 -18 423 -10 374 4 C 325 19 283 41 247 71 C 211 100 182 136 162 180 C 141 223 131 273 131 330 C 131 384 140 431 159 473 C 177 515 202 552 233 584 C 263 616 298 645 337 669 C 376 693 416 715 457 735 C 433 757 411 780 389 804 C 367 827 348 852 332 878 C 315 904 301 932 291 962 C 281 992 276 1024 276 1059 C 276 1096 282 1133 296 1169 C 310 1205 331 1238 360 1267 C 388 1296 425 1319 470 1337 C 514 1355 567 1364 629 1364 C 684 1364 733 1356 777 1342 C 821 1327 858 1306 889 1280 C 919 1253 943 1221 959 1185 C 975 1149 983 1109 983 1067 C 983 1022 974 983 958 949 C 941 915 918 885 890 858 C 861 831 828 806 791 784 C 753 762 714 740 674 719 L 991 391 C 1032 447 1069 506 1102 568 C 1134 629 1163 689 1188 748 L 1339 748 C 1304 669 1266 591 1224 513 C 1182 435 1135 363 1083 295 L 1366 0 L 1161 0 Z M 553 104 C 617 104 678 119 736 151 C 794 183 847 224 897 276 L 541 649 C 504 628 470 607 440 586 C 409 564 382 541 360 517 C 338 493 320 466 308 438 C 295 409 289 377 289 342 C 289 305 296 272 310 243 C 324 213 343 188 367 168 C 391 147 419 131 451 120 C 483 109 517 104 553 104 Z M 424 1067 C 424 1042 428 1018 437 996 C 446 974 458 952 474 930 C 490 908 508 887 529 865 C 550 843 572 821 596 799 C 626 813 655 828 685 844 C 715 860 741 879 764 900 C 787 921 806 945 820 971 C 834 997 842 1026 842 1059 C 842 1083 837 1107 828 1130 C 819 1153 806 1173 788 1190 C 770 1207 747 1221 721 1231 C 694 1241 663 1247 629 1247 C 593 1247 563 1241 537 1231 C 511 1220 489 1206 473 1189 C 456 1172 444 1153 436 1132 C 428 1110 424 1089 424 1067 Z" unicode="&#x26;" />
<glyph horiz-adv-x="401" d="M 291 1389 L 223 928 L 111 928 L 111 1389 L 291 1389 Z" unicode="'" />
<glyph horiz-adv-x="635" d="M 586 1389 C 572 1375 554 1357 533 1334 C 511 1310 489 1282 466 1248 C 442 1214 419 1174 396 1130 C 373 1085 352 1035 334 979 C 316 923 301 861 289 793 C 277 725 272 652 272 573 C 272 492 278 417 290 347 C 302 277 317 213 336 155 C 355 97 377 44 401 -2 C 425 -49 448 -91 472 -127 C 496 -163 518 -194 539 -220 C 560 -245 578 -265 592 -279 L 422 -279 C 408 -263 390 -243 369 -217 C 347 -191 325 -160 302 -124 C 278 -88 255 -46 232 0 C 208 47 187 99 169 157 C 150 215 135 278 123 347 C 111 416 106 491 106 571 C 106 647 111 719 122 785 C 132 851 146 911 164 966 C 181 1021 201 1071 223 1116 C 245 1161 268 1201 291 1236 C 313 1271 335 1301 357 1327 C 379 1352 398 1373 414 1389 L 586 1389 Z" unicode="(" />
<glyph horiz-adv-x="635" d="M 221 1389 C 237 1373 255 1352 277 1327 C 298 1301 320 1271 343 1236 C 365 1201 388 1161 410 1116 C 432 1071 452 1021 470 966 C 487 911 501 851 512 785 C 522 719 528 647 528 571 C 528 491 522 416 510 347 C 498 278 483 215 465 157 C 447 99 426 47 403 0 C 379 -46 356 -88 333 -124 C 309 -160 287 -191 266 -217 C 244 -243 227 -263 213 -279 L 43 -279 C 57 -265 74 -245 96 -220 C 117 -194 140 -163 164 -127 C 188 -91 211 -49 235 -2 C 259 44 280 97 300 155 C 319 213 335 277 347 347 C 359 417 365 492 365 573 C 365 652 359 725 347 793 C 335 861 320 923 302 979 C 283 1035 262 1085 239 1130 C 215 1174 192 1214 169 1248 C 145 1282 123 1310 102 1334 C 80 1357 63 1375 49 1389 L 221 1389 Z" unicode=")" />
<glyph horiz-adv-x="920" d="M 401 1255 L 395 1579 L 526 1579 L 520 1255 L 821 1356 L 862 1237 L 551 1147 L 743 889 L 637 821 L 461 1079 L 285 821 L 178 889 L 371 1147 L 57 1237 L 102 1356 L 401 1255 Z" unicode="*" />
<glyph horiz-adv-x="1106" d="M 623 1122 L 623 649 L 1092 649 L 1092 516 L 623 516 L 623 41 L 479 41 L 479 516 L 12 516 L 12 649 L 479 649 L 479 1122 L 623 1122 Z" unicode="+" />
<glyph horiz-adv-x="471" d="M 401 223 L 186 -272 L 55 -272 L 211 223 L 401 223 Z" unicode="," />
<glyph horiz-adv-x="748" d="M 606 647 L 606 502 L 141 502 L 141 647 L 606 647 Z" unicode="-" />
<glyph horiz-adv-x="475" d="M 332 223 L 332 0 L 143 0 L 143 223 L 332 223 Z" unicode="." />
<glyph horiz-adv-x="893" d="M 825 1389 L 219 -279 L 66 -279 L 674 1389 L 825 1389 Z" unicode="/" />
<glyph horiz-adv-x="1223" d="M 1098 690 C 1098 592 1088 499 1068 413 C 1048 327 1017 251 976 187 C 935 123 883 72 820 35 C 757 -1 683 -20 598 -20 C 520 -20 451 -3 392 29 C 332 62 283 108 244 168 C 204 228 175 299 155 381 C 135 463 125 554 125 653 C 125 750 135 841 155 927 C 175 1013 206 1088 247 1152 C 288 1216 340 1266 403 1304 C 465 1341 539 1360 625 1360 C 703 1360 772 1343 831 1310 C 890 1276 939 1230 979 1171 C 1019 1111 1048 1041 1068 959 C 1088 877 1098 787 1098 690 Z M 934 684 C 934 765 927 839 914 905 C 901 971 882 1028 856 1075 C 830 1121 797 1157 758 1183 C 719 1208 673 1221 621 1221 C 563 1221 513 1206 471 1178 C 429 1149 395 1109 369 1058 C 342 1007 322 947 310 878 C 297 808 291 733 291 653 C 291 572 297 499 310 433 C 322 367 341 311 367 265 C 393 218 425 182 465 157 C 504 131 550 119 604 119 C 662 119 711 133 753 162 C 795 191 829 231 856 282 C 882 333 902 393 915 462 C 927 530 934 604 934 684 Z" unicode="0" />
<glyph horiz-adv-x="702" d="M 354 0 L 354 1176 L 92 1077 L 61 1212 L 422 1341 L 508 1341 L 508 0 L 354 0 Z" unicode="1" />
<glyph horiz-adv-x="1067" d="M 113 111 L 487 506 C 521 542 554 578 586 614 C 618 650 646 686 671 724 C 695 762 715 801 730 841 C 744 881 752 925 752 971 C 752 1004 747 1036 738 1067 C 728 1098 713 1126 693 1150 C 673 1174 646 1193 614 1207 C 582 1221 542 1229 496 1229 C 458 1229 422 1224 389 1215 C 356 1205 326 1193 298 1179 C 270 1164 244 1148 222 1130 C 199 1112 179 1094 162 1077 L 113 1194 C 131 1213 152 1232 178 1252 C 203 1272 232 1290 265 1306 C 298 1322 335 1335 377 1345 C 419 1355 465 1360 516 1360 C 582 1360 640 1351 690 1333 C 740 1315 781 1289 815 1257 C 848 1224 873 1184 890 1138 C 906 1092 915 1041 915 985 C 915 931 907 880 892 833 C 877 786 856 740 828 694 C 800 648 765 602 725 555 C 685 508 639 458 588 406 L 324 133 L 956 133 L 956 0 L 113 0 L 113 111 Z" unicode="2" />
<glyph horiz-adv-x="1057" d="M 143 1243 C 161 1257 182 1271 206 1285 C 229 1299 255 1311 284 1322 C 313 1333 345 1342 381 1349 C 417 1356 457 1360 502 1360 C 561 1360 614 1353 661 1340 C 708 1327 748 1308 780 1283 C 812 1257 837 1226 855 1189 C 872 1152 881 1109 881 1061 C 881 1017 874 977 860 942 C 846 906 827 875 803 849 C 779 823 750 801 718 784 C 685 767 650 755 614 748 L 614 743 C 657 737 698 726 738 709 C 777 692 811 669 841 640 C 871 610 894 575 912 533 C 929 491 938 443 938 389 C 938 320 924 260 897 209 C 870 158 833 116 787 82 C 741 48 687 22 625 5 C 563 -11 498 -20 430 -20 C 404 -20 377 -18 349 -16 C 321 -13 293 -9 265 -4 C 237 0 209 7 182 15 C 154 23 128 32 104 43 L 121 184 C 166 163 213 146 263 133 C 312 119 368 113 430 113 C 474 113 517 118 559 128 C 601 138 638 155 670 177 C 702 199 727 227 747 262 C 766 296 776 338 776 387 C 776 433 767 473 750 507 C 733 541 710 569 681 591 C 651 613 617 629 579 640 C 540 651 499 657 457 657 C 442 657 426 656 410 655 C 394 654 378 653 362 651 C 346 649 330 648 316 646 C 302 644 289 643 279 643 L 266 774 L 395 786 C 445 791 489 800 529 813 C 569 825 602 842 630 863 C 658 884 679 909 694 939 C 709 969 717 1003 717 1042 C 717 1075 711 1103 701 1127 C 691 1151 676 1170 657 1185 C 637 1199 614 1210 587 1217 C 560 1223 530 1227 496 1227 C 456 1227 420 1223 387 1216 C 354 1209 324 1200 298 1189 C 271 1178 247 1166 227 1154 C 207 1141 190 1129 176 1118 L 143 1243 Z" unicode="3" />
<glyph horiz-adv-x="1153" d="M 854 324 L 854 0 L 696 0 L 696 324 L 61 324 L 61 430 L 657 1339 L 854 1339 L 854 444 L 1075 444 L 1075 324 L 854 324 Z M 211 444 L 696 444 L 696 987 C 696 1025 696 1059 697 1090 C 697 1121 698 1154 700 1188 L 694 1188 L 211 444 Z" unicode="4" />
<glyph horiz-adv-x="1069" d="M 233 1339 L 889 1339 L 889 1206 L 360 1206 L 309 805 C 341 825 378 841 421 853 C 463 864 507 870 553 870 C 611 870 664 860 714 842 C 763 823 806 796 842 760 C 878 724 906 679 927 627 C 947 575 958 515 958 449 C 958 371 944 303 917 245 C 890 186 853 137 806 98 C 759 58 704 29 641 9 C 577 -10 510 -20 438 -20 C 416 -20 393 -19 367 -17 C 341 -15 315 -11 287 -7 C 259 -3 232 2 205 10 C 177 18 151 27 127 39 L 129 184 C 178 160 231 143 287 131 C 343 119 396 113 446 113 C 496 113 542 119 585 133 C 627 146 664 166 696 194 C 727 221 752 255 770 297 C 788 339 797 388 797 444 C 797 539 771 612 719 662 C 667 712 594 737 500 737 C 451 737 406 729 366 715 C 326 701 287 680 250 653 L 150 688 L 233 1339 Z" unicode="5" />
<glyph horiz-adv-x="1169" d="M 946 1169 C 932 1177 915 1184 895 1191 C 875 1198 855 1204 833 1210 C 811 1215 788 1219 765 1222 C 741 1225 718 1227 696 1227 C 631 1227 574 1212 524 1184 C 474 1156 432 1116 398 1065 C 363 1014 336 953 317 882 C 297 810 286 731 283 645 L 287 645 C 335 707 390 756 453 792 C 515 828 586 846 666 846 C 714 846 763 838 811 823 C 859 808 903 784 941 752 C 979 720 1009 678 1033 628 C 1057 577 1069 516 1069 446 C 1069 376 1057 313 1034 256 C 1011 199 979 150 939 109 C 898 68 850 36 794 14 C 738 -8 677 -20 612 -20 C 579 -20 544 -16 507 -9 C 470 -2 433 9 397 27 C 361 45 326 69 293 99 C 260 129 231 167 206 214 C 180 260 160 316 145 381 C 130 445 123 521 123 608 C 123 718 135 819 161 911 C 186 1003 223 1082 273 1148 C 322 1214 383 1266 456 1304 C 528 1341 612 1360 707 1360 C 731 1360 757 1358 783 1355 C 809 1352 834 1348 858 1343 C 882 1338 904 1332 924 1326 C 944 1319 961 1312 975 1305 L 946 1169 Z M 641 713 C 571 713 506 696 447 663 C 387 630 334 584 287 524 C 290 464 298 412 311 368 C 323 324 339 287 357 257 C 375 227 394 202 416 183 C 438 164 460 149 483 139 C 506 129 529 122 551 118 C 573 114 593 113 612 113 C 656 113 697 121 734 137 C 770 153 802 175 828 204 C 854 233 874 268 888 308 C 902 348 909 393 909 442 C 909 493 901 536 885 571 C 869 605 849 633 824 654 C 798 675 770 690 738 699 C 706 708 673 713 641 713 Z" unicode="6" />
<glyph horiz-adv-x="973" d="M 350 0 L 186 0 L 737 1206 L 88 1206 L 88 1339 L 907 1339 L 907 1229 L 350 0 Z" unicode="7" />
<glyph horiz-adv-x="1161" d="M 1004 1022 C 1004 984 997 949 985 917 C 972 884 954 854 931 828 C 907 802 879 778 846 758 C 812 738 775 721 735 709 L 735 705 C 775 691 814 674 852 654 C 889 633 922 608 950 579 C 978 550 1000 517 1017 479 C 1033 441 1042 399 1042 352 C 1042 297 1031 247 1010 201 C 988 155 957 116 917 84 C 876 51 827 25 769 7 C 711 -10 645 -20 571 -20 C 501 -20 439 -11 384 5 C 328 22 281 46 242 78 C 203 110 173 148 152 192 C 131 236 121 286 121 340 C 121 383 128 423 143 459 C 158 495 179 528 206 557 C 233 586 265 612 303 634 C 341 656 382 676 428 692 L 428 696 C 390 708 355 723 323 743 C 290 763 262 786 238 813 C 214 839 195 869 181 903 C 167 937 160 974 160 1016 C 160 1066 170 1113 190 1155 C 210 1197 238 1234 275 1264 C 311 1294 356 1318 408 1335 C 460 1351 518 1360 582 1360 C 645 1360 703 1351 755 1335 C 807 1318 851 1295 888 1265 C 925 1235 954 1200 974 1159 C 994 1117 1004 1072 1004 1022 Z M 883 344 C 883 382 873 415 855 445 C 837 474 813 500 783 523 C 753 546 720 567 682 585 C 644 603 605 619 567 635 C 533 622 498 607 464 591 C 430 575 399 555 372 533 C 345 510 323 484 306 454 C 289 424 281 388 281 348 C 281 312 288 278 303 248 C 317 217 338 190 364 168 C 390 146 422 128 459 116 C 495 104 536 98 580 98 C 626 98 667 104 705 118 C 742 131 774 149 800 172 C 826 194 847 220 861 250 C 875 280 883 311 883 344 Z M 317 1024 C 317 992 323 963 336 939 C 349 914 368 892 393 872 C 417 852 447 833 481 817 C 515 800 554 784 598 768 C 628 779 658 792 688 806 C 718 820 744 837 768 857 C 791 876 810 899 824 925 C 838 951 846 982 846 1018 C 846 1050 839 1080 827 1108 C 814 1135 796 1158 773 1178 C 749 1198 721 1213 689 1224 C 657 1235 621 1241 582 1241 C 542 1241 506 1235 474 1224 C 441 1213 413 1198 390 1178 C 366 1158 348 1135 336 1109 C 323 1083 317 1054 317 1024 Z" unicode="8" />
<glyph horiz-adv-x="1169" d="M 221 170 C 235 162 252 155 272 149 C 292 142 313 136 335 131 C 357 125 379 121 403 118 C 426 114 449 113 471 113 C 536 113 594 127 644 155 C 694 183 736 223 771 275 C 805 326 832 387 852 459 C 871 530 883 609 887 696 L 883 696 C 833 632 776 582 714 547 C 652 511 582 494 504 494 C 454 494 405 501 357 516 C 309 531 266 555 228 587 C 190 619 159 661 135 711 C 111 761 100 822 100 893 C 100 961 111 1024 135 1082 C 158 1139 190 1188 231 1230 C 271 1271 319 1303 375 1326 C 431 1348 491 1360 557 1360 C 590 1360 625 1356 663 1349 C 700 1342 737 1330 773 1312 C 809 1294 844 1270 877 1240 C 910 1210 939 1171 964 1125 C 989 1078 1009 1022 1024 958 C 1039 893 1047 817 1047 731 C 1047 621 1034 521 1009 429 C 983 337 946 257 897 191 C 847 124 786 72 714 35 C 641 -1 557 -20 463 -20 C 437 -20 411 -18 385 -16 C 359 -13 334 -9 310 -4 C 286 0 265 6 245 13 C 225 19 209 27 197 35 L 221 170 Z M 528 627 C 597 627 661 643 721 677 C 781 710 835 756 883 815 C 879 875 870 926 858 970 C 846 1014 831 1051 813 1082 C 795 1112 775 1137 753 1156 C 731 1175 708 1190 685 1200 C 662 1210 639 1217 617 1221 C 594 1225 573 1227 555 1227 C 510 1227 470 1219 434 1203 C 398 1187 367 1164 341 1135 C 315 1106 296 1071 282 1031 C 268 990 262 945 262 897 C 262 845 269 802 285 768 C 300 734 320 706 345 685 C 370 664 398 649 430 640 C 462 631 494 627 528 627 Z" unicode="9" />
<glyph horiz-adv-x="475" d="M 332 989 L 332 766 L 143 766 L 143 989 L 332 989 Z M 332 223 L 332 0 L 143 0 L 143 223 L 332 223 Z" unicode=":" />
<glyph horiz-adv-x="471" d="M 328 989 L 328 766 L 139 766 L 139 989 L 328 989 Z M 362 223 L 147 -272 L 18 -272 L 174 223 L 362 223 Z" unicode=";" />
<glyph horiz-adv-x="1106" d="M 1051 1116 L 1051 956 L 381 653 L 233 592 L 233 569 L 381 516 L 1051 213 L 1051 53 L 53 535 L 53 629 L 1051 1116 Z" unicode="&#x3C;" />
<glyph horiz-adv-x="1106" d="M 1051 881 L 1051 750 L 53 750 L 53 881 L 1051 881 Z M 1051 414 L 1051 283 L 53 283 L 53 414 L 1051 414 Z" unicode="=" />
<glyph horiz-adv-x="1106" d="M 1051 629 L 1051 535 L 53 53 L 53 213 L 723 516 L 870 569 L 870 592 L 723 653 L 53 956 L 53 1116 L 1051 629 Z" unicode="&#x3E;" />
<glyph horiz-adv-x="920" d="M 266 223 L 453 223 L 453 0 L 266 0 L 266 223 Z M 283 561 C 283 601 289 636 302 665 C 314 694 331 720 352 742 C 372 764 396 784 422 801 C 448 818 476 835 504 852 C 528 866 550 880 572 895 C 594 910 613 927 629 945 C 645 963 657 983 667 1005 C 677 1027 682 1053 682 1081 C 682 1113 675 1142 662 1166 C 648 1190 630 1211 606 1227 C 582 1243 553 1256 520 1264 C 487 1272 451 1276 412 1276 C 389 1276 363 1274 335 1272 C 306 1269 277 1265 248 1260 C 218 1254 190 1248 163 1240 C 135 1232 112 1222 92 1212 L 78 1350 C 96 1360 119 1368 147 1376 C 174 1384 203 1390 233 1395 C 263 1399 294 1403 325 1405 C 356 1407 385 1409 412 1409 C 472 1409 528 1402 580 1390 C 632 1377 678 1357 717 1331 C 756 1305 787 1272 810 1232 C 832 1192 844 1144 844 1090 C 844 1042 836 1001 821 967 C 805 933 785 903 761 877 C 737 851 710 828 680 809 C 650 789 620 771 592 754 C 572 742 553 729 534 716 C 515 703 498 689 483 673 C 468 657 456 639 447 619 C 438 599 434 577 434 553 L 434 461 L 283 461 L 283 561 Z" unicode="?" />
<glyph horiz-adv-x="1868" d="M 1393 985 L 1208 420 C 1204 410 1202 401 1200 392 C 1198 383 1198 374 1198 365 C 1198 345 1201 329 1207 316 C 1213 302 1220 291 1230 283 C 1240 274 1251 268 1264 264 C 1276 260 1289 258 1303 258 C 1345 258 1387 270 1430 294 C 1472 318 1511 353 1546 397 C 1581 441 1610 493 1632 555 C 1654 616 1665 684 1665 758 C 1665 834 1650 904 1621 969 C 1592 1034 1551 1090 1498 1138 C 1445 1186 1381 1223 1306 1251 C 1231 1278 1148 1292 1057 1292 C 985 1292 915 1283 847 1267 C 779 1250 714 1226 654 1195 C 594 1163 538 1125 488 1080 C 437 1034 393 983 357 925 C 321 867 292 804 272 736 C 252 667 242 594 242 516 C 242 440 251 370 270 308 C 289 246 315 190 348 140 C 381 90 420 47 465 10 C 510 -26 558 -57 610 -81 C 661 -105 715 -124 771 -136 C 827 -148 882 -154 938 -154 C 982 -154 1027 -150 1075 -143 C 1123 -136 1169 -127 1214 -116 C 1258 -105 1300 -93 1338 -79 C 1376 -65 1408 -51 1434 -37 L 1473 -135 C 1447 -150 1413 -166 1373 -182 C 1333 -198 1288 -212 1240 -225 C 1192 -238 1141 -249 1088 -257 C 1034 -265 982 -270 930 -270 C 866 -270 802 -262 737 -248 C 671 -234 608 -212 547 -184 C 486 -156 429 -120 375 -77 C 321 -33 275 17 235 75 C 195 133 163 198 140 271 C 117 344 106 425 106 514 C 106 604 118 688 142 768 C 166 847 199 920 242 986 C 284 1052 335 1112 394 1164 C 453 1216 518 1261 589 1297 C 659 1333 734 1361 813 1380 C 892 1399 973 1409 1057 1409 C 1167 1409 1268 1392 1358 1359 C 1448 1325 1524 1280 1588 1222 C 1652 1164 1701 1095 1736 1017 C 1770 939 1788 854 1788 764 C 1788 701 1781 642 1767 588 C 1753 533 1734 483 1710 437 C 1686 391 1657 350 1624 314 C 1591 278 1556 247 1518 222 C 1480 197 1441 178 1400 165 C 1359 151 1318 145 1278 145 C 1250 145 1223 148 1199 156 C 1174 163 1153 174 1135 189 C 1117 204 1103 223 1093 245 C 1083 267 1078 292 1079 322 C 1033 265 985 222 933 192 C 881 162 828 147 776 147 C 742 147 710 153 679 166 C 647 178 619 198 595 224 C 570 250 550 283 536 323 C 521 363 514 411 514 467 C 514 519 521 570 535 618 C 549 666 567 710 591 751 C 614 792 641 829 672 863 C 703 896 736 924 771 948 C 805 972 840 990 876 1003 C 912 1015 946 1022 979 1022 C 1009 1022 1036 1016 1061 1006 C 1085 995 1107 981 1126 963 C 1145 945 1161 925 1174 902 C 1186 878 1196 854 1202 829 L 1253 985 L 1393 985 Z M 815 279 C 854 279 896 291 940 316 C 984 340 1027 378 1071 430 L 1157 694 C 1153 719 1147 743 1137 767 C 1127 791 1114 812 1099 830 C 1084 848 1067 863 1047 874 C 1027 885 1006 891 983 891 C 951 891 916 881 879 862 C 841 842 807 815 776 780 C 744 744 718 702 697 652 C 676 602 666 546 666 485 C 666 449 669 419 677 393 C 684 367 694 346 708 329 C 721 312 737 299 755 291 C 773 283 793 279 815 279 Z" unicode="@" />
<glyph horiz-adv-x="1317" d="M 215 0 L 47 0 L 590 1389 L 727 1389 L 1268 0 L 1085 0 L 938 393 L 362 393 L 215 0 Z M 412 526 L 889 526 L 715 997 C 710 1009 705 1024 699 1040 C 693 1056 688 1073 682 1090 C 676 1107 671 1124 667 1140 C 662 1156 658 1171 655 1184 L 647 1184 C 643 1171 639 1157 635 1142 C 631 1126 626 1110 621 1094 C 615 1078 610 1061 604 1045 C 598 1028 593 1012 588 997 L 412 526 Z" unicode="A" />
<glyph horiz-adv-x="1217" d="M 190 1384 C 244 1387 300 1390 358 1392 C 415 1394 474 1395 535 1395 C 611 1395 679 1388 741 1375 C 803 1362 856 1342 900 1315 C 944 1287 978 1253 1002 1211 C 1026 1169 1038 1120 1038 1063 C 1038 1016 1030 974 1015 936 C 1000 898 980 866 954 838 C 928 810 899 788 866 771 C 832 754 798 743 762 737 L 762 733 C 801 728 841 718 882 704 C 923 690 960 669 994 641 C 1027 613 1054 577 1076 535 C 1097 493 1108 441 1108 381 C 1108 317 1095 261 1069 213 C 1043 165 1007 124 960 92 C 912 59 855 34 787 18 C 719 2 643 -6 559 -6 C 494 -6 431 -5 371 -4 C 310 -2 250 0 190 4 L 190 1384 Z M 940 385 C 940 432 929 473 909 508 C 889 542 861 571 827 593 C 792 615 752 632 707 643 C 662 653 615 659 565 659 L 350 659 L 350 127 C 391 125 429 123 464 123 C 499 123 531 123 559 123 C 615 123 667 128 714 138 C 760 148 800 164 834 186 C 868 207 894 234 912 267 C 930 300 940 339 940 385 Z M 350 786 L 565 786 C 617 786 663 792 702 806 C 740 819 772 837 797 860 C 822 882 841 909 853 940 C 865 970 872 1003 872 1038 C 872 1117 843 1175 787 1211 C 730 1247 646 1266 535 1266 C 509 1266 480 1265 450 1265 C 419 1265 386 1264 350 1262 L 350 786 Z" unicode="B" />
<glyph horiz-adv-x="1307" d="M 1186 1167 C 1135 1197 1077 1221 1011 1240 C 945 1258 877 1268 807 1268 C 725 1268 652 1253 587 1223 C 522 1193 467 1151 422 1098 C 376 1045 341 983 317 911 C 293 839 281 760 281 676 C 281 591 293 515 317 447 C 341 379 376 321 420 273 C 464 225 518 188 581 162 C 643 136 713 123 791 123 C 832 123 873 126 913 132 C 953 138 991 146 1027 156 C 1063 166 1096 179 1126 193 C 1156 207 1183 222 1206 238 L 1223 86 C 1200 70 1173 56 1142 43 C 1111 30 1077 19 1040 10 C 1002 0 963 -6 921 -12 C 879 -17 835 -20 791 -20 C 687 -20 593 -3 509 30 C 425 64 354 111 296 172 C 237 233 192 306 160 391 C 128 476 113 570 113 672 C 113 776 129 872 161 962 C 193 1052 240 1130 300 1196 C 360 1262 434 1314 520 1352 C 606 1390 703 1409 811 1409 C 845 1409 879 1407 915 1404 C 950 1400 985 1395 1019 1388 C 1053 1380 1085 1371 1116 1360 C 1147 1349 1176 1336 1202 1321 L 1186 1167 Z" unicode="C" />
<glyph horiz-adv-x="1415" d="M 190 1384 C 240 1387 290 1390 340 1392 C 390 1394 435 1395 475 1395 C 549 1395 620 1389 690 1379 C 760 1368 825 1351 887 1328 C 948 1304 1004 1274 1055 1238 C 1106 1202 1150 1158 1187 1108 C 1223 1057 1252 998 1272 932 C 1292 865 1303 790 1303 707 C 1303 595 1284 495 1248 407 C 1211 319 1157 244 1087 183 C 1016 121 929 74 826 42 C 723 10 605 -6 473 -6 C 429 -6 384 -5 336 -3 C 288 -1 240 0 190 4 L 190 1384 Z M 350 129 C 386 125 418 123 446 123 C 474 123 503 123 532 123 C 614 123 692 135 765 159 C 838 183 902 220 957 268 C 1011 316 1055 377 1087 449 C 1119 521 1135 606 1135 702 C 1135 771 1126 833 1109 889 C 1092 944 1069 993 1039 1035 C 1009 1077 973 1112 933 1142 C 893 1172 849 1196 803 1215 C 756 1234 707 1248 656 1257 C 605 1265 554 1270 504 1270 C 480 1270 455 1269 428 1269 C 400 1269 374 1268 350 1266 L 350 129 Z" unicode="D" />
<glyph horiz-adv-x="1128" d="M 350 784 L 909 784 L 909 649 L 350 649 L 350 133 L 1036 133 L 1036 0 L 190 0 L 190 1389 L 985 1389 L 985 1255 L 350 1255 L 350 784 Z" unicode="E" />
<glyph horiz-adv-x="1016" d="M 969 1389 L 969 1255 L 350 1255 L 350 780 L 860 780 L 860 647 L 350 647 L 350 0 L 190 0 L 190 1389 L 969 1389 Z" unicode="F" />
<glyph horiz-adv-x="1434" d="M 774 743 L 1270 743 L 1270 61 C 1244 48 1213 37 1177 27 C 1141 17 1103 8 1063 1 C 1023 -5 982 -10 941 -14 C 900 -18 861 -20 825 -20 C 714 -20 615 -3 527 30 C 439 64 364 111 303 172 C 241 233 194 306 162 391 C 129 476 113 570 113 674 C 113 777 129 873 162 963 C 195 1052 243 1130 306 1196 C 368 1262 445 1314 537 1352 C 628 1390 732 1409 848 1409 C 878 1409 911 1407 946 1404 C 980 1401 1015 1397 1050 1391 C 1085 1385 1119 1377 1152 1368 C 1185 1359 1215 1349 1243 1337 L 1227 1186 C 1199 1198 1170 1209 1138 1219 C 1106 1229 1073 1238 1039 1245 C 1005 1252 971 1258 937 1262 C 903 1266 870 1268 838 1268 C 750 1268 671 1253 602 1223 C 532 1193 474 1151 427 1098 C 379 1045 343 982 318 910 C 293 837 281 758 281 674 C 281 589 293 513 318 445 C 342 377 378 319 425 271 C 471 223 528 186 596 160 C 663 134 739 121 825 121 C 849 121 874 122 900 124 C 926 126 952 128 978 132 C 1003 135 1027 139 1051 144 C 1074 148 1094 154 1112 160 L 1112 608 L 774 608 L 774 743 Z" unicode="G" />
<glyph horiz-adv-x="1468" d="M 350 1389 L 350 784 L 1118 784 L 1118 1389 L 1276 1389 L 1276 0 L 1118 0 L 1118 649 L 350 649 L 350 0 L 190 0 L 190 1389 L 350 1389 Z" unicode="H" />
<glyph horiz-adv-x="541" d="M 350 1389 L 350 0 L 190 0 L 190 1389 L 350 1389 Z" unicode="I" />
<glyph horiz-adv-x="930" d="M 59 184 C 73 176 91 169 113 162 C 134 155 157 149 181 143 C 205 137 230 132 256 128 C 282 124 306 123 330 123 C 370 123 406 129 440 141 C 473 153 502 172 526 199 C 550 226 568 261 582 304 C 595 347 602 400 602 463 L 602 1389 L 760 1389 L 760 455 C 760 373 749 302 729 242 C 708 182 679 133 641 94 C 603 55 557 26 504 8 C 450 -10 391 -20 326 -20 C 302 -20 276 -18 250 -16 C 223 -14 197 -10 172 -6 C 146 -1 122 4 100 11 C 78 18 59 27 43 37 L 59 184 Z" unicode="J" />
<glyph horiz-adv-x="1305" d="M 633 827 L 1309 0 L 1094 0 L 516 719 L 350 565 L 350 0 L 190 0 L 190 1389 L 350 1389 L 350 745 L 1012 1389 L 1223 1389 L 633 827 Z" unicode="K" />
<glyph horiz-adv-x="1024" d="M 350 1389 L 350 133 L 979 133 L 979 0 L 190 0 L 190 1389 L 350 1389 Z" unicode="L" />
<glyph horiz-adv-x="1782" d="M 231 1389 L 432 1389 L 887 215 L 895 215 L 1348 1389 L 1550 1389 L 1618 0 L 1458 0 L 1421 872 C 1419 906 1419 937 1419 966 C 1419 994 1419 1021 1419 1047 C 1419 1072 1419 1096 1419 1120 C 1419 1144 1420 1168 1421 1192 L 1413 1192 L 954 0 L 819 0 L 362 1192 L 354 1192 C 354 1168 355 1144 355 1120 C 355 1096 356 1072 356 1047 C 356 1021 355 994 355 966 C 354 937 353 906 352 872 L 315 0 L 164 0 L 231 1389 Z" unicode="M" />
<glyph horiz-adv-x="1475" d="M 190 1389 L 338 1389 L 983 487 C 995 469 1007 450 1021 430 C 1035 409 1048 388 1061 368 C 1074 347 1086 327 1097 309 C 1107 291 1116 276 1124 264 L 1133 264 C 1131 289 1129 313 1128 335 C 1126 357 1125 379 1125 401 C 1124 423 1124 445 1124 467 C 1124 489 1124 513 1124 539 L 1124 1389 L 1284 1389 L 1284 0 L 1139 0 L 492 901 C 480 918 467 937 454 958 C 440 978 427 999 414 1019 C 401 1039 389 1059 378 1077 C 367 1095 358 1111 350 1124 L 342 1124 C 344 1098 345 1075 346 1053 C 347 1031 348 1009 349 987 C 349 965 350 942 350 920 C 350 898 350 874 350 850 L 350 0 L 190 0 L 190 1389 Z" unicode="N" />
<glyph horiz-adv-x="1524" d="M 1411 711 C 1411 610 1396 515 1366 427 C 1336 338 1293 260 1237 194 C 1180 128 1111 75 1030 37 C 948 0 856 -20 752 -20 C 655 -20 567 -2 489 31 C 410 65 343 113 287 175 C 231 237 188 310 158 396 C 128 481 113 575 113 678 C 113 744 119 809 133 871 C 146 933 165 992 191 1046 C 217 1100 248 1149 286 1194 C 324 1238 367 1276 416 1308 C 464 1340 518 1364 578 1382 C 638 1400 702 1409 772 1409 C 868 1409 956 1391 1035 1357 C 1113 1323 1180 1275 1236 1213 C 1292 1151 1335 1078 1365 992 C 1395 906 1411 813 1411 711 Z M 1243 711 C 1243 795 1232 871 1210 940 C 1188 1008 1156 1067 1116 1115 C 1075 1163 1025 1201 967 1228 C 909 1254 844 1268 772 1268 C 692 1268 622 1253 561 1223 C 500 1193 449 1151 407 1098 C 365 1045 334 983 313 911 C 291 839 281 761 281 678 C 281 594 291 517 313 449 C 335 380 366 321 407 273 C 447 225 497 187 555 161 C 613 134 679 121 752 121 C 830 121 900 136 961 166 C 1022 196 1073 237 1115 290 C 1157 343 1188 406 1210 478 C 1232 550 1243 627 1243 711 Z" unicode="O" />
<glyph horiz-adv-x="1114" d="M 190 0 L 190 1384 C 217 1386 246 1387 276 1389 C 306 1390 336 1391 366 1392 C 396 1393 424 1394 451 1394 C 478 1394 502 1395 522 1395 C 604 1395 679 1387 745 1371 C 811 1355 867 1331 914 1298 C 960 1265 996 1223 1021 1172 C 1046 1120 1059 1059 1059 989 C 1059 919 1046 859 1022 807 C 998 755 963 711 919 677 C 874 643 820 617 757 600 C 694 583 624 575 547 575 C 535 575 521 575 506 575 C 490 575 474 576 456 577 C 438 577 420 578 402 579 C 384 579 366 580 350 582 L 350 0 L 190 0 Z M 350 709 C 366 708 384 707 402 707 C 420 707 437 707 454 707 C 471 707 487 707 502 707 C 517 707 530 707 541 707 C 654 707 741 730 801 776 C 861 822 891 892 891 985 C 891 1077 860 1147 798 1195 C 736 1242 644 1266 520 1266 C 496 1266 470 1265 441 1265 C 412 1265 382 1264 350 1262 L 350 709 Z" unicode="P" />
<glyph horiz-adv-x="1524" d="M 113 662 C 113 768 127 866 157 957 C 187 1048 230 1127 286 1194 C 342 1261 411 1314 493 1352 C 574 1390 666 1409 770 1409 C 867 1409 955 1391 1034 1357 C 1113 1323 1180 1275 1236 1214 C 1292 1152 1335 1079 1365 994 C 1395 909 1411 816 1411 715 C 1411 635 1401 558 1382 484 C 1362 410 1333 342 1293 281 C 1253 219 1204 167 1144 123 C 1084 79 1014 49 934 31 L 934 27 L 1419 -72 L 1403 -223 L 647 -14 C 463 36 328 117 242 229 C 156 341 113 485 113 662 Z M 1243 707 C 1243 791 1232 867 1210 936 C 1188 1004 1157 1063 1116 1113 C 1075 1162 1025 1200 967 1227 C 909 1254 843 1268 770 1268 C 692 1268 622 1252 561 1222 C 500 1192 449 1150 408 1097 C 366 1043 335 980 313 908 C 291 836 281 758 281 674 C 281 588 292 511 315 442 C 337 372 369 313 411 265 C 452 216 502 178 560 152 C 618 126 682 113 754 113 C 832 113 901 128 962 159 C 1023 189 1074 231 1116 285 C 1157 338 1188 401 1210 473 C 1232 545 1243 623 1243 707 Z" unicode="Q" />
<glyph horiz-adv-x="1231" d="M 190 0 L 190 1384 C 221 1386 253 1387 287 1389 C 321 1390 353 1391 385 1392 C 417 1393 446 1394 474 1394 C 502 1394 525 1395 545 1395 C 627 1395 699 1387 763 1371 C 827 1355 880 1332 924 1300 C 968 1268 1001 1229 1024 1182 C 1047 1134 1059 1079 1059 1016 C 1059 958 1049 907 1030 863 C 1010 819 985 781 953 750 C 921 718 885 693 844 674 C 803 654 761 641 719 633 L 1217 0 L 1016 0 L 547 608 L 350 608 L 350 0 L 190 0 Z M 350 735 L 555 735 C 606 735 652 740 694 751 C 735 762 770 779 800 801 C 829 823 851 851 867 885 C 883 919 891 958 891 1004 C 891 1092 861 1157 801 1201 C 741 1244 658 1266 551 1266 C 519 1266 487 1265 455 1265 C 423 1265 388 1264 350 1262 L 350 735 Z" unicode="R" />
<glyph horiz-adv-x="1098" d="M 129 213 C 153 197 181 182 211 170 C 241 158 273 147 305 139 C 337 131 370 124 403 120 C 436 115 468 113 498 113 C 543 113 586 118 628 129 C 669 139 705 156 737 178 C 768 200 793 227 812 260 C 830 292 840 331 840 375 C 840 437 819 489 779 529 C 738 569 676 601 594 625 L 516 647 C 454 665 399 685 352 709 C 304 732 264 759 232 790 C 200 820 175 855 159 895 C 143 935 135 980 135 1030 C 135 1094 147 1149 172 1197 C 197 1245 231 1284 274 1316 C 317 1348 367 1371 424 1387 C 481 1403 542 1411 606 1411 C 632 1411 659 1409 687 1407 C 715 1404 744 1400 772 1395 C 800 1389 828 1382 855 1374 C 881 1365 906 1355 930 1343 L 915 1194 C 893 1206 869 1216 843 1226 C 817 1236 791 1244 764 1251 C 736 1258 708 1264 680 1268 C 652 1272 624 1274 596 1274 C 555 1274 516 1269 480 1260 C 444 1251 412 1237 384 1219 C 356 1200 335 1176 319 1147 C 303 1118 295 1084 295 1044 C 295 1012 300 984 311 960 C 321 935 337 913 358 894 C 379 874 405 857 436 843 C 466 829 501 816 541 805 L 612 784 C 672 766 727 746 775 723 C 823 700 864 673 898 641 C 931 609 956 573 974 532 C 992 490 1001 443 1001 389 C 1001 321 987 261 960 209 C 933 157 896 114 850 80 C 804 45 750 19 689 1 C 627 -16 562 -25 494 -25 C 466 -25 435 -23 403 -20 C 370 -17 337 -12 303 -5 C 269 1 235 10 203 21 C 170 31 140 45 113 61 L 129 213 Z" unicode="S" />
<glyph horiz-adv-x="1090" d="M 25 1389 L 1065 1389 L 1065 1255 L 625 1255 L 625 0 L 465 0 L 465 1255 L 25 1255 L 25 1389 Z" unicode="T" />
<glyph horiz-adv-x="1419" d="M 717 119 C 787 119 843 127 887 145 C 931 162 967 186 995 217 C 1015 239 1032 265 1045 295 C 1058 325 1068 358 1076 395 C 1083 431 1088 471 1091 514 C 1094 557 1096 603 1096 653 L 1096 1389 L 1251 1389 L 1251 610 C 1251 557 1249 510 1246 468 C 1242 426 1237 388 1231 355 C 1225 321 1217 291 1207 264 C 1197 237 1186 212 1174 190 C 1150 150 1122 116 1090 89 C 1057 62 1021 40 981 24 C 941 7 898 -4 852 -12 C 806 -19 759 -23 711 -23 C 665 -23 620 -19 576 -13 C 531 -6 488 5 448 21 C 408 37 370 58 336 86 C 302 113 272 148 248 190 C 234 213 222 238 212 266 C 202 293 194 324 188 358 C 182 392 177 429 174 471 C 171 512 170 558 170 610 L 170 1389 L 328 1389 L 328 653 C 328 601 329 553 332 509 C 335 465 341 425 349 389 C 357 353 367 320 381 292 C 394 263 411 238 432 217 C 462 185 499 160 545 144 C 591 127 648 119 717 119 Z" unicode="U" />
<glyph horiz-adv-x="1317" d="M 1270 1389 L 727 0 L 590 0 L 49 1389 L 231 1389 L 602 391 C 613 360 624 328 635 296 C 645 263 654 233 662 205 L 670 205 C 673 217 677 231 682 247 C 686 263 691 279 697 295 C 702 311 707 328 713 345 C 718 361 723 377 729 391 L 1102 1389 L 1270 1389 Z" unicode="V" />
<glyph horiz-adv-x="1907" d="M 950 1188 C 944 1150 936 1113 927 1075 C 917 1037 906 994 893 946 L 618 0 L 453 0 L 72 1389 L 250 1389 L 494 442 C 505 396 515 354 523 314 C 531 274 537 237 543 201 L 551 201 C 554 223 558 244 562 263 C 566 282 570 301 575 320 C 579 338 584 357 590 377 C 595 397 601 418 608 442 L 879 1389 L 1038 1389 L 1309 442 C 1319 404 1329 365 1339 327 C 1349 289 1358 247 1366 201 L 1374 201 C 1379 237 1385 274 1393 314 C 1400 354 1409 396 1421 442 L 1667 1389 L 1833 1389 L 1452 0 L 1286 0 L 1014 946 C 1006 972 1000 995 994 1017 C 988 1039 983 1059 979 1079 C 974 1099 970 1117 967 1135 C 963 1153 960 1170 958 1188 L 950 1188 Z" unicode="W" />
<glyph horiz-adv-x="1219" d="M 291 1389 L 614 848 L 938 1389 L 1130 1389 L 709 735 L 1180 0 L 977 0 L 604 625 L 231 0 L 43 0 L 510 735 L 86 1389 L 291 1389 Z" unicode="X" />
<glyph horiz-adv-x="1106" d="M 6 1389 L 195 1389 L 557 743 L 922 1389 L 1100 1389 L 631 602 L 631 0 L 473 0 L 473 602 L 6 1389 Z" unicode="Y" />
<glyph horiz-adv-x="1124" d="M 72 111 L 840 1255 L 147 1255 L 147 1389 L 1030 1389 L 1030 1278 L 264 133 L 1057 133 L 1057 0 L 72 0 L 72 111 Z" unicode="Z" />
<glyph horiz-adv-x="688" d="M 604 1280 L 324 1280 L 324 -170 L 604 -170 L 604 -279 L 172 -279 L 172 1389 L 604 1389 L 604 1280 Z" unicode="[" />
<glyph horiz-adv-x="893" d="M 219 1389 L 825 -279 L 674 -279 L 66 1389 L 219 1389 Z" unicode="\" />
<glyph horiz-adv-x="688" d="M 84 1389 L 516 1389 L 516 -279 L 84 -279 L 84 -170 L 367 -170 L 367 1280 L 84 1280 L 84 1389 Z" unicode="]" />
<glyph horiz-adv-x="1106" d="M 598 1339 L 1081 438 L 913 438 L 633 1012 L 561 1157 L 541 1157 L 473 1012 L 193 438 L 25 438 L 504 1339 L 598 1339 Z" unicode="^" />
<glyph horiz-adv-x="1024" d="M 1034 -109 L 1034 -233 L -10 -233 L -10 -109 L 1034 -109 Z" unicode="_" />
<glyph horiz-adv-x="840" d="M 332 1493 L 551 1174 L 406 1174 L 129 1493 L 332 1493 Z" unicode="`" />
<glyph horiz-adv-x="1004" d="M 143 918 C 184 944 234 966 293 984 C 351 1001 419 1010 496 1010 C 564 1010 621 1002 667 987 C 713 972 749 950 777 922 C 804 893 823 857 835 815 C 846 773 852 724 852 670 L 852 268 C 852 212 854 163 859 121 C 864 79 871 38 881 0 L 737 0 C 729 26 724 53 720 81 C 716 109 713 140 711 174 L 707 174 C 687 142 665 115 640 91 C 614 67 586 48 556 32 C 526 16 494 4 460 -4 C 426 -12 392 -16 358 -16 C 316 -16 277 -10 242 1 C 206 13 176 30 150 52 C 124 74 103 101 89 134 C 75 166 68 204 68 246 C 68 296 79 342 103 384 C 127 425 164 461 215 492 C 266 522 331 548 411 568 C 491 588 586 602 698 610 L 698 657 C 698 692 694 724 688 752 C 682 780 670 803 654 823 C 638 842 616 857 588 867 C 560 877 525 883 483 883 C 423 883 367 874 313 857 C 259 840 213 819 176 795 L 143 918 Z M 399 96 C 433 96 468 102 504 116 C 539 130 571 149 600 174 C 628 199 652 229 670 264 C 688 299 698 338 698 381 L 698 512 C 610 501 537 488 477 474 C 417 459 369 442 333 422 C 296 402 269 378 253 352 C 237 325 229 294 229 260 C 229 234 233 210 242 190 C 250 170 262 153 277 139 C 292 125 310 114 331 107 C 351 99 374 96 399 96 Z" unicode="a" />
<glyph horiz-adv-x="1147" d="M 166 1493 L 322 1493 L 322 823 L 326 823 C 358 879 400 923 452 957 C 504 991 565 1008 633 1008 C 657 1008 685 1005 715 1000 C 745 994 776 985 808 971 C 839 957 869 937 899 913 C 928 889 954 858 977 820 C 999 782 1018 736 1032 683 C 1046 629 1053 567 1053 496 C 1053 424 1046 361 1032 307 C 1018 253 999 208 976 170 C 953 132 927 100 898 76 C 868 52 838 33 807 19 C 776 5 745 -4 715 -10 C 685 -15 657 -18 633 -18 C 565 -18 503 -1 448 32 C 392 65 349 110 317 166 L 313 166 L 305 0 L 158 0 L 166 197 L 166 1493 Z M 608 887 C 571 887 535 879 501 864 C 467 848 436 828 410 803 C 383 778 362 749 346 717 C 330 685 322 652 322 618 L 322 371 C 322 336 330 302 346 270 C 362 238 384 209 411 184 C 437 159 468 139 502 124 C 536 109 572 102 608 102 C 634 102 664 107 697 117 C 730 127 761 147 790 176 C 818 204 842 244 862 296 C 881 347 891 414 891 496 C 891 550 886 597 877 637 C 868 677 856 712 841 741 C 826 770 809 794 789 813 C 769 831 749 846 728 857 C 707 868 686 876 666 880 C 645 884 626 887 608 887 Z" unicode="b" />
<glyph horiz-adv-x="952" d="M 864 66 C 847 54 829 43 809 33 C 789 23 766 14 742 6 C 718 -2 691 -8 661 -13 C 631 -17 599 -20 563 -20 C 501 -20 441 -11 384 5 C 327 21 277 49 233 88 C 189 126 155 178 129 242 C 103 306 90 385 90 479 C 90 579 104 662 133 730 C 161 798 199 852 245 894 C 291 936 342 965 400 983 C 457 1001 515 1010 573 1010 C 627 1010 677 1004 723 992 C 769 980 812 965 850 948 L 838 815 C 824 824 807 833 787 841 C 767 849 746 857 724 863 C 701 869 677 873 653 877 C 629 881 605 883 582 883 C 540 883 500 876 461 863 C 421 850 386 828 356 798 C 325 767 300 726 282 676 C 263 625 254 562 254 487 C 254 411 263 349 282 300 C 300 251 325 212 355 183 C 385 154 419 134 457 123 C 495 111 533 106 571 106 C 600 106 628 108 655 114 C 682 119 707 126 731 135 C 755 143 777 153 797 164 C 817 175 834 187 850 199 L 864 66 Z" unicode="c" />
<glyph horiz-adv-x="1147" d="M 981 1493 L 981 197 L 989 0 L 831 0 L 825 166 L 821 166 C 805 138 785 112 763 90 C 740 67 715 48 688 32 C 660 16 631 3 600 -5 C 569 -13 537 -18 504 -18 C 479 -18 451 -15 421 -10 C 391 -4 360 5 330 19 C 300 33 270 52 242 76 C 213 100 187 130 165 168 C 143 206 125 251 112 303 C 98 355 92 417 92 489 C 92 562 99 626 113 680 C 127 734 146 781 170 819 C 194 857 221 889 251 914 C 281 938 313 957 345 971 C 377 985 408 994 439 1000 C 470 1005 498 1008 524 1008 C 590 1008 647 992 697 961 C 747 929 788 888 821 836 L 825 836 L 825 1493 L 981 1493 Z M 545 887 C 527 887 508 884 487 880 C 466 876 445 868 423 858 C 401 847 381 832 361 813 C 341 794 323 770 307 740 C 291 710 279 675 270 634 C 260 592 256 544 256 489 C 256 435 260 389 269 349 C 277 309 289 275 303 247 C 317 218 333 194 352 176 C 370 157 390 142 410 131 C 430 120 451 112 471 108 C 491 104 510 102 528 102 C 564 102 600 109 636 124 C 672 139 704 159 732 184 C 760 209 782 238 799 270 C 816 302 825 336 825 371 L 825 618 C 825 652 817 685 802 717 C 786 749 766 778 740 803 C 714 828 684 848 650 864 C 616 879 581 887 545 887 Z" unicode="d" />
<glyph horiz-adv-x="1040" d="M 905 57 C 859 33 809 15 754 1 C 699 -13 641 -20 580 -20 C 548 -20 514 -17 478 -13 C 442 -9 405 0 369 12 C 333 24 298 42 264 65 C 230 87 201 117 175 154 C 149 190 129 235 113 287 C 97 339 90 401 90 473 C 90 563 102 641 127 709 C 151 776 185 832 227 877 C 269 921 317 955 372 977 C 427 999 485 1010 547 1010 C 575 1010 605 1007 636 1001 C 666 995 696 986 726 973 C 755 960 783 943 810 921 C 836 899 859 871 879 839 C 899 806 914 767 926 722 C 938 677 944 625 944 567 C 944 553 943 540 943 527 C 942 513 941 499 940 485 L 242 485 C 242 431 247 385 258 345 C 268 305 282 271 300 243 C 318 214 338 191 361 173 C 384 155 408 140 433 130 C 458 119 483 112 508 108 C 533 104 557 102 580 102 C 606 102 632 104 660 108 C 687 112 714 117 741 125 C 767 133 793 142 819 152 C 844 162 867 174 889 186 L 905 57 Z M 539 887 C 503 887 469 880 437 868 C 405 856 376 837 351 813 C 325 789 304 758 286 722 C 268 686 256 644 248 596 L 786 596 C 787 648 781 692 768 729 C 754 765 736 795 713 819 C 690 842 663 859 633 870 C 603 881 571 887 539 887 Z" unicode="e" />
<glyph horiz-adv-x="711" d="M 57 989 L 272 989 L 272 1204 C 272 1250 276 1292 286 1330 C 295 1368 310 1400 332 1427 C 354 1454 382 1475 417 1490 C 452 1505 495 1513 547 1513 C 581 1513 609 1511 633 1507 C 657 1503 679 1499 700 1495 L 700 1364 C 682 1368 661 1371 636 1375 C 610 1378 587 1380 567 1380 C 515 1380 479 1365 459 1336 C 438 1307 428 1262 428 1202 L 428 989 L 700 989 L 700 870 L 428 870 L 428 0 L 272 0 L 272 870 L 57 870 L 57 989 Z" unicode="f" />
<glyph horiz-adv-x="1087" d="M 133 668 C 133 713 141 756 158 798 C 175 839 200 875 233 907 C 265 938 305 963 351 982 C 397 1000 450 1010 510 1010 C 570 1010 624 1000 674 980 C 723 960 765 932 799 897 C 827 931 863 958 905 978 C 947 998 995 1008 1047 1008 L 1047 866 C 1013 866 979 862 945 854 C 911 846 881 832 856 813 C 866 791 874 768 880 744 C 886 720 889 694 889 668 C 889 620 880 576 862 534 C 844 492 819 456 786 425 C 753 393 713 369 666 351 C 619 333 566 324 508 324 C 466 324 428 328 393 337 C 358 345 327 358 299 375 C 282 357 270 338 264 318 C 257 297 254 278 254 262 C 254 233 262 211 279 195 C 296 179 321 167 353 159 C 385 151 423 145 469 143 C 514 140 565 138 623 137 C 653 136 685 135 719 133 C 753 131 786 128 818 123 C 850 117 880 110 909 100 C 937 90 962 76 984 59 C 1006 42 1023 21 1036 -4 C 1048 -30 1055 -61 1055 -98 C 1055 -140 1047 -177 1032 -210 C 1017 -242 996 -271 970 -296 C 944 -320 913 -341 879 -358 C 844 -375 807 -389 767 -400 C 727 -410 686 -418 644 -423 C 602 -427 560 -430 520 -430 C 447 -430 383 -424 328 -412 C 273 -400 227 -383 191 -362 C 154 -341 126 -316 108 -287 C 89 -258 80 -227 80 -193 C 80 -145 97 -100 131 -60 C 165 -19 213 13 276 39 L 276 43 C 254 49 233 57 214 68 C 194 79 177 93 163 109 C 149 125 137 143 129 164 C 121 185 117 209 117 236 C 117 276 126 313 144 349 C 162 384 186 416 215 444 C 188 474 168 508 154 547 C 140 585 133 626 133 668 Z M 412 10 C 388 2 366 -8 345 -20 C 324 -32 306 -46 290 -62 C 274 -77 261 -94 252 -112 C 242 -130 238 -149 238 -170 C 238 -191 243 -211 255 -229 C 266 -247 283 -262 307 -275 C 331 -288 361 -298 398 -306 C 434 -313 478 -317 530 -317 C 576 -317 621 -313 665 -306 C 709 -298 748 -287 783 -271 C 817 -255 845 -235 867 -210 C 888 -185 899 -155 899 -119 C 899 -87 889 -62 870 -45 C 850 -28 821 -16 781 -8 C 741 0 691 4 630 6 C 568 8 496 9 412 10 Z M 512 436 C 549 436 582 442 610 454 C 638 466 662 483 681 504 C 700 525 714 549 724 577 C 734 605 739 634 739 666 C 739 698 733 729 723 757 C 713 785 698 810 678 831 C 658 852 634 869 606 881 C 578 893 546 899 510 899 C 471 899 437 892 409 879 C 381 865 357 848 339 826 C 321 804 307 778 298 749 C 289 720 285 690 285 659 C 285 625 290 595 300 568 C 310 540 325 517 345 497 C 365 477 389 462 417 452 C 445 441 476 436 512 436 Z" unicode="g" />
<glyph horiz-adv-x="1116" d="M 319 1493 L 319 827 L 324 827 C 365 891 412 938 464 967 C 516 995 576 1010 643 1010 C 701 1010 751 1001 793 984 C 834 966 868 942 894 912 C 920 881 939 845 951 803 C 963 761 969 716 969 668 L 969 0 L 815 0 L 815 662 C 815 692 811 721 805 748 C 798 775 787 799 771 819 C 755 839 735 855 710 867 C 684 879 653 885 616 885 C 582 885 547 877 512 863 C 476 849 444 830 416 806 C 387 782 364 754 346 722 C 328 690 319 657 319 623 L 319 0 L 164 0 L 164 1493 L 319 1493 Z" unicode="h" />
<glyph horiz-adv-x="487" d="M 322 989 L 322 0 L 166 0 L 166 989 L 322 989 Z M 326 1427 L 326 1237 L 162 1237 L 162 1427 L 326 1427 Z" unicode="i" />
<glyph horiz-adv-x="496" d="M 332 989 L 332 -102 C 332 -148 327 -191 318 -229 C 308 -267 293 -300 271 -327 C 249 -354 221 -375 185 -390 C 149 -404 105 -412 53 -412 C 45 -412 35 -412 24 -412 C 13 -412 5 -411 0 -410 L 0 -276 L 35 -276 C 86 -276 122 -261 144 -233 C 165 -205 176 -160 176 -100 L 176 989 L 332 989 Z M 336 1427 L 336 1237 L 172 1237 L 172 1427 L 336 1427 Z" unicode="j" />
<glyph horiz-adv-x="1016" d="M 948 989 L 547 610 L 1016 0 L 819 0 L 434 508 L 319 399 L 319 0 L 164 0 L 164 1493 L 319 1493 L 319 561 L 754 989 L 948 989 Z" unicode="k" />
<glyph horiz-adv-x="500" d="M 328 1493 L 328 0 L 172 0 L 172 1493 L 328 1493 Z" unicode="l" />
<glyph horiz-adv-x="1722" d="M 793 680 C 793 704 789 729 783 754 C 776 778 765 800 750 820 C 734 839 714 855 689 867 C 664 879 633 885 596 885 C 564 885 532 877 500 863 C 468 849 438 829 412 805 C 385 781 363 753 347 721 C 330 689 322 657 322 623 L 322 0 L 166 0 L 166 780 L 158 989 L 307 989 L 313 819 L 317 819 C 351 875 395 921 450 957 C 505 992 569 1010 641 1010 C 680 1010 716 1005 749 995 C 781 985 810 971 835 954 C 860 937 881 917 898 895 C 915 872 928 848 936 823 L 940 823 C 978 885 1022 931 1073 963 C 1123 994 1184 1010 1255 1010 C 1311 1010 1360 1001 1401 983 C 1441 965 1474 941 1500 911 C 1526 880 1545 844 1557 802 C 1569 760 1575 716 1575 668 L 1575 0 L 1419 0 L 1419 662 C 1419 692 1415 720 1409 747 C 1403 774 1392 798 1377 818 C 1362 838 1342 855 1317 867 C 1292 879 1261 885 1225 885 C 1193 885 1160 877 1128 863 C 1095 849 1065 829 1039 805 C 1012 781 990 753 973 721 C 956 689 948 657 948 623 L 948 0 L 793 0 L 793 680 Z" unicode="m" />
<glyph horiz-adv-x="1118" d="M 815 662 C 815 692 811 721 805 748 C 799 775 788 799 772 819 C 756 839 736 855 711 867 C 685 879 654 885 616 885 C 582 885 547 878 513 864 C 478 850 446 831 418 807 C 390 783 367 756 349 724 C 331 692 322 659 322 623 L 322 0 L 166 0 L 166 780 L 158 989 L 307 989 L 313 819 L 317 819 C 359 885 407 933 463 964 C 518 994 580 1010 649 1010 C 705 1010 754 1001 795 984 C 835 966 869 942 895 912 C 921 881 940 845 952 803 C 964 761 971 716 971 668 L 971 0 L 815 0 L 815 662 Z" unicode="n" />
<glyph horiz-adv-x="1110" d="M 1020 508 C 1020 438 1010 371 991 307 C 971 243 942 187 903 139 C 864 91 815 52 757 23 C 699 -5 631 -20 553 -20 C 478 -20 412 -7 354 18 C 296 44 248 79 208 125 C 168 171 138 225 118 287 C 98 349 88 416 88 489 C 88 561 98 628 119 691 C 139 754 170 809 210 856 C 250 903 299 940 358 967 C 417 994 485 1008 561 1008 C 633 1008 697 995 754 971 C 811 947 859 913 899 869 C 938 825 968 772 989 711 C 1009 649 1020 582 1020 508 Z M 858 508 C 858 564 851 615 838 661 C 824 707 805 747 780 781 C 755 814 724 840 688 859 C 652 877 611 887 565 887 C 514 887 469 876 430 855 C 391 833 358 804 332 768 C 306 732 286 689 272 641 C 258 593 252 541 252 487 C 252 433 258 382 272 335 C 285 288 304 247 330 213 C 356 178 387 151 424 131 C 461 111 503 102 551 102 C 603 102 648 113 686 136 C 724 158 756 188 782 226 C 807 264 826 307 839 356 C 851 405 858 456 858 508 Z" unicode="o" />
<glyph horiz-adv-x="1147" d="M 166 793 L 158 989 L 305 989 L 313 811 L 317 811 C 352 871 397 919 451 955 C 505 990 566 1008 635 1008 C 659 1008 686 1005 716 1000 C 746 994 776 985 807 971 C 838 957 868 938 898 914 C 927 890 953 859 976 821 C 999 783 1018 737 1032 684 C 1046 630 1053 568 1053 496 C 1053 424 1046 361 1032 307 C 1018 253 999 208 976 170 C 953 132 927 100 898 76 C 868 52 838 33 807 19 C 776 5 746 -4 716 -10 C 686 -15 659 -18 635 -18 C 601 -18 568 -13 537 -5 C 506 2 478 14 452 29 C 426 44 402 62 381 83 C 359 104 341 128 326 154 L 322 154 L 322 -410 L 166 -410 L 166 793 Z M 608 887 C 571 887 535 879 501 864 C 467 848 436 828 410 803 C 383 778 362 749 346 717 C 330 685 322 652 322 618 L 322 371 C 322 336 330 302 346 270 C 362 238 384 209 411 184 C 437 159 468 139 502 124 C 536 109 572 102 608 102 C 634 102 664 107 697 117 C 730 127 761 147 790 176 C 818 204 842 244 862 296 C 881 347 891 414 891 496 C 891 550 886 597 877 637 C 868 677 856 712 841 741 C 826 770 809 794 789 813 C 769 831 749 846 728 857 C 707 868 686 876 666 880 C 645 884 626 887 608 887 Z" unicode="p" />
<glyph horiz-adv-x="1147" d="M 825 -410 L 825 166 L 821 166 C 805 138 785 112 763 90 C 741 67 716 48 689 32 C 662 16 633 3 602 -5 C 570 -13 538 -18 504 -18 C 479 -18 452 -15 422 -10 C 392 -4 361 5 331 19 C 301 33 271 52 242 76 C 213 100 187 132 165 170 C 143 208 125 253 112 307 C 98 361 92 424 92 496 C 92 568 99 630 113 684 C 127 737 146 783 170 821 C 193 859 220 890 250 914 C 280 938 311 957 343 971 C 374 985 405 994 436 1000 C 466 1005 494 1008 518 1008 C 588 1008 649 991 702 957 C 754 923 797 879 829 823 L 834 823 L 840 989 L 989 989 L 981 793 L 981 -410 L 825 -410 Z M 547 887 C 520 887 490 881 456 871 C 422 861 391 841 361 813 C 331 785 306 745 286 694 C 266 643 256 577 256 496 C 256 414 265 347 284 296 C 302 244 325 204 353 176 C 381 147 410 127 442 117 C 474 107 503 102 530 102 C 566 102 602 109 638 124 C 673 139 704 159 732 184 C 760 209 782 238 799 270 C 816 302 825 336 825 371 L 825 618 C 825 652 817 685 802 717 C 786 749 766 778 740 803 C 714 828 685 848 651 864 C 617 879 583 887 547 887 Z" unicode="q" />
<glyph horiz-adv-x="692" d="M 307 989 L 313 799 L 317 799 C 333 831 351 859 369 885 C 387 911 406 933 427 952 C 448 970 471 985 496 995 C 521 1005 549 1010 580 1010 C 593 1010 607 1008 622 1006 C 637 1004 652 1000 668 995 L 649 838 C 643 840 636 843 628 845 C 620 847 611 848 602 850 C 593 851 584 852 575 853 C 566 853 559 854 553 854 C 525 854 498 845 471 829 C 443 813 419 791 397 764 C 375 737 357 706 343 671 C 329 635 322 599 322 561 L 322 0 L 166 0 L 166 758 L 158 989 L 307 989 Z" unicode="r" />
<glyph horiz-adv-x="860" d="M 106 182 C 145 159 190 140 241 126 C 291 111 343 104 395 104 C 425 104 454 106 482 112 C 510 118 535 127 557 140 C 579 153 596 170 609 192 C 622 213 629 239 629 270 C 629 312 615 346 588 370 C 560 394 521 414 469 430 L 401 451 C 347 467 301 484 265 502 C 228 520 198 541 175 563 C 152 585 136 610 126 637 C 116 663 111 693 111 727 C 111 776 120 818 140 854 C 159 890 185 919 217 942 C 249 965 285 982 327 993 C 369 1004 412 1010 457 1010 C 477 1010 498 1009 520 1007 C 542 1005 564 1002 586 998 C 608 994 629 989 650 983 C 670 977 689 970 707 963 L 692 831 C 658 845 620 858 579 870 C 537 881 495 887 451 887 C 423 887 398 884 374 879 C 350 873 330 865 312 853 C 294 841 281 827 271 809 C 261 791 256 769 256 743 C 256 720 260 701 268 685 C 276 669 287 656 302 645 C 316 633 334 624 355 616 C 375 608 398 600 424 592 L 485 573 C 527 560 566 546 602 530 C 638 514 668 495 694 473 C 719 451 739 424 753 394 C 767 364 774 328 774 287 C 774 235 763 189 742 151 C 720 113 692 81 656 56 C 620 31 579 12 533 0 C 486 -11 437 -18 387 -18 C 365 -18 342 -16 317 -14 C 291 -12 265 -8 239 -3 C 212 1 186 8 160 17 C 134 25 111 36 90 49 L 106 182 Z" unicode="s" />
<glyph horiz-adv-x="770" d="M 37 989 L 252 989 L 252 1296 L 406 1296 L 406 989 L 705 989 L 705 870 L 406 870 L 406 274 C 406 218 417 178 441 152 C 464 126 503 113 557 113 C 567 113 579 113 592 114 C 605 114 618 115 632 117 C 645 118 658 119 671 121 C 683 123 695 125 705 127 L 705 2 C 681 -3 656 -8 628 -13 C 600 -17 568 -20 532 -20 C 479 -20 435 -13 399 1 C 363 15 335 35 313 61 C 291 87 275 118 266 154 C 256 190 252 230 252 274 L 252 870 L 37 870 L 37 989 Z" unicode="t" />
<glyph horiz-adv-x="1118" d="M 952 989 L 952 211 L 961 0 L 811 0 L 805 172 L 801 172 C 763 114 718 68 664 34 C 610 0 546 -16 471 -16 C 413 -16 363 -7 322 9 C 281 26 248 50 222 80 C 196 110 177 145 165 187 C 153 228 147 273 147 322 L 147 989 L 301 989 L 301 328 C 301 298 304 269 311 242 C 317 214 328 190 344 170 C 359 150 379 134 405 122 C 431 110 462 104 500 104 C 534 104 568 111 604 125 C 639 139 671 158 700 182 C 728 206 752 234 770 266 C 788 298 797 333 797 371 L 797 989 L 952 989 Z" unicode="u" />
<glyph horiz-adv-x="991" d="M 436 373 C 448 337 460 303 470 271 C 480 239 489 211 496 186 L 504 186 C 510 211 518 240 528 273 C 538 306 549 339 561 373 L 784 989 L 946 989 L 559 0 L 434 0 L 45 989 L 213 989 L 436 373 Z" unicode="v" />
<glyph horiz-adv-x="1503" d="M 803 618 C 789 658 779 691 772 719 C 765 747 760 772 756 795 L 748 795 C 742 771 736 744 728 714 C 720 683 710 651 700 618 L 498 0 L 354 0 L 63 989 L 221 989 L 387 389 C 387 385 390 375 394 359 C 398 343 403 326 408 307 C 413 288 418 270 423 253 C 427 235 430 223 432 215 L 440 215 C 442 227 445 240 449 255 C 453 270 457 285 461 301 C 465 317 469 332 473 348 C 477 363 481 377 485 389 L 682 989 L 821 989 L 1016 389 C 1020 377 1024 363 1028 348 C 1032 332 1037 317 1041 301 C 1045 285 1048 270 1052 255 C 1056 240 1059 227 1063 215 L 1071 215 L 1114 389 L 1282 989 L 1440 989 L 1149 0 L 1006 0 L 803 618 L 803 618 Z" unicode="w" />
<glyph horiz-adv-x="977" d="M 260 989 L 492 631 L 725 989 L 905 989 L 575 524 L 938 0 L 748 0 L 483 420 L 215 0 L 41 0 L 397 524 L 68 989 L 260 989 Z" unicode="x" />
<glyph horiz-adv-x="997" d="M 43 989 L 209 989 L 438 373 C 447 347 455 325 461 308 C 467 291 472 276 476 264 C 480 252 484 240 488 229 C 492 217 496 204 500 190 L 506 190 L 788 989 L 950 989 L 563 -4 C 536 -67 508 -124 478 -174 C 448 -224 416 -267 382 -302 C 348 -337 311 -364 271 -382 C 231 -400 187 -410 141 -410 C 133 -410 123 -410 113 -410 C 103 -410 95 -409 90 -408 L 90 -276 L 125 -276 C 183 -276 236 -252 284 -206 C 331 -160 378 -86 424 16 L 43 989 Z" unicode="y" />
<glyph horiz-adv-x="881" d="M 76 106 L 612 864 L 137 864 L 137 989 L 793 989 L 793 883 L 256 125 L 813 125 L 813 0 L 76 0 L 76 106 Z" unicode="z" />
<glyph horiz-adv-x="774" d="M 690 1280 L 610 1280 C 596 1280 580 1278 562 1276 C 544 1273 527 1267 512 1257 C 496 1247 483 1232 473 1213 C 462 1193 457 1167 457 1135 L 457 795 C 457 769 452 744 444 720 C 435 696 423 675 408 656 C 392 637 374 621 353 608 C 332 595 309 586 285 582 L 285 578 C 309 572 332 563 353 549 C 374 535 392 519 408 500 C 423 481 435 460 444 437 C 452 413 457 389 457 365 L 457 -4 C 457 -40 462 -68 473 -90 C 483 -112 496 -128 512 -140 C 527 -152 544 -160 562 -164 C 580 -168 596 -170 610 -170 L 690 -170 L 690 -279 L 561 -279 C 535 -279 507 -275 477 -268 C 447 -261 418 -248 391 -228 C 364 -208 342 -180 324 -144 C 306 -108 297 -62 297 -6 L 297 377 C 297 395 294 412 288 428 C 282 444 275 458 265 470 C 255 482 243 492 230 500 C 216 507 202 511 188 512 L 53 512 L 53 639 L 188 639 C 202 639 216 643 230 651 C 243 658 255 668 265 680 C 275 692 282 707 288 723 C 294 739 297 756 297 776 L 297 1137 C 297 1193 306 1237 324 1271 C 342 1304 364 1329 391 1347 C 418 1365 447 1376 477 1381 C 507 1386 535 1389 561 1389 L 690 1389 L 690 1280 Z" unicode="{" />
<glyph horiz-adv-x="805" d="M 317 1720 L 487 1720 L 487 -328 L 317 -328 L 317 1720 Z" unicode="|" />
<glyph horiz-adv-x="774" d="M 84 1389 L 213 1389 C 229 1389 247 1388 267 1386 C 287 1384 306 1379 326 1373 C 345 1367 364 1358 382 1347 C 400 1335 417 1320 431 1302 C 445 1283 456 1260 464 1233 C 472 1206 477 1174 477 1137 L 477 770 C 477 751 480 734 486 718 C 492 702 500 688 510 676 C 520 664 531 655 545 649 C 558 642 572 639 588 639 L 721 639 L 721 512 L 588 512 C 572 512 558 508 545 501 C 531 493 520 483 510 471 C 500 459 492 444 486 428 C 480 412 477 395 477 377 L 477 -6 C 477 -44 472 -77 464 -105 C 456 -133 445 -157 431 -177 C 417 -197 400 -214 382 -227 C 364 -240 345 -250 326 -258 C 306 -266 287 -271 267 -274 C 247 -277 229 -279 213 -279 L 84 -279 L 84 -170 L 164 -170 C 178 -170 194 -168 212 -164 C 230 -160 246 -152 262 -140 C 277 -128 290 -111 301 -89 C 311 -67 317 -39 317 -4 L 317 365 C 317 389 321 413 330 437 C 338 460 350 481 366 500 C 381 519 399 535 420 549 C 441 563 464 572 489 578 L 489 582 C 464 586 441 595 420 608 C 399 621 381 637 366 656 C 350 675 338 696 330 720 C 321 744 317 769 317 795 L 317 1135 C 317 1167 311 1193 301 1213 C 290 1232 277 1247 262 1257 C 246 1267 230 1273 212 1276 C 194 1278 178 1280 164 1280 L 84 1280 L 84 1389 Z" unicode="}" />
<glyph horiz-adv-x="1106" d="M 96 401 C 96 457 102 508 116 554 C 129 600 148 639 172 672 C 196 704 225 729 259 747 C 293 765 330 774 371 774 C 392 774 411 771 429 766 C 447 760 464 753 480 743 C 496 733 511 720 527 706 C 543 692 560 675 578 657 L 633 600 C 640 592 648 584 656 576 C 664 568 672 560 682 554 C 691 548 701 542 712 538 C 722 534 734 532 748 532 C 770 532 789 538 805 551 C 821 564 835 581 845 603 C 855 624 863 648 869 676 C 874 704 877 732 877 762 L 1012 762 C 1012 706 1005 655 991 609 C 977 563 958 523 934 491 C 910 458 881 433 848 415 C 814 397 778 389 739 389 C 717 389 698 391 680 397 C 662 402 645 409 629 419 C 612 429 596 441 580 455 C 564 469 547 486 530 504 L 475 561 C 467 569 460 577 452 585 C 444 593 436 600 427 607 C 418 614 408 620 397 624 C 386 628 374 631 362 631 C 340 631 320 624 304 612 C 287 599 273 582 262 561 C 251 540 243 516 237 488 C 231 460 229 431 229 401 L 96 401 L 96 401 Z" unicode="~" />
<glyph horiz-adv-x="885" d="M 629 1008 C 629 1028 626 1048 622 1067 C 617 1085 609 1102 598 1116 C 586 1130 571 1142 553 1150 C 534 1158 511 1163 483 1163 C 457 1163 432 1157 406 1147 C 380 1136 356 1121 335 1103 C 313 1084 296 1062 282 1037 C 268 1011 262 984 262 954 L 262 492 L 121 492 L 121 1100 L 113 1262 L 248 1262 L 254 1130 L 258 1130 C 290 1183 327 1221 368 1244 C 409 1266 456 1278 510 1278 C 555 1278 594 1271 627 1257 C 660 1243 687 1225 709 1201 C 730 1177 746 1148 756 1116 C 766 1083 772 1048 772 1010 L 772 492 L 629 492 L 629 1008 Z" unicode="ⁿ" />
<glyph horiz-adv-x="864" d="M 786 279 C 786 219 778 162 762 109 C 746 55 722 9 692 -30 C 661 -70 623 -101 579 -125 C 534 -148 483 -160 426 -160 C 373 -160 325 -149 282 -129 C 239 -108 202 -79 172 -42 C 141 -5 117 38 101 90 C 84 142 76 198 76 260 C 76 320 84 376 100 429 C 116 482 140 529 171 569 C 202 609 240 640 285 663 C 329 686 380 698 438 698 C 490 698 538 687 581 667 C 624 646 661 617 691 580 C 721 543 745 499 761 448 C 777 396 786 340 786 279 Z M 641 279 C 641 324 636 365 627 402 C 617 438 604 469 587 495 C 569 521 548 540 523 554 C 498 568 470 575 438 575 C 402 575 371 567 345 551 C 318 535 296 514 278 486 C 260 458 246 424 237 386 C 227 347 223 305 223 260 C 223 214 227 173 237 137 C 246 100 259 69 277 43 C 294 17 315 -2 340 -16 C 365 -30 394 -37 426 -37 C 461 -37 492 -29 519 -13 C 545 2 568 24 586 52 C 604 80 617 113 627 152 C 636 190 641 233 641 279 Z" unicode="₀" />
<glyph horiz-adv-x="518" d="M 236 -147 L 236 541 L 68 487 L 41 606 L 295 684 L 375 684 L 375 -147 L 236 -147 Z" unicode="₁" />
<glyph horiz-adv-x="715" d="M 74 -49 L 315 186 C 333 204 352 222 371 241 C 390 260 407 280 422 301 C 437 321 449 343 459 366 C 468 389 473 414 473 440 C 473 460 470 478 464 496 C 458 513 449 528 437 541 C 424 554 408 564 389 572 C 369 580 346 584 319 584 C 295 584 273 581 253 576 C 232 571 212 564 194 556 C 176 548 159 538 144 528 C 128 518 114 508 102 498 L 76 612 C 91 623 107 634 125 644 C 142 654 161 664 183 672 C 204 680 227 686 253 691 C 278 695 306 698 338 698 C 428 698 498 677 547 636 C 596 595 621 535 621 457 C 621 425 616 395 607 367 C 598 339 585 311 567 283 C 549 255 526 227 499 198 C 471 168 439 136 403 102 L 260 -33 L 639 -33 L 639 -147 L 74 -147 L 74 -49 Z" unicode="₂" />
<glyph horiz-adv-x="700" d="M 88 641 C 100 647 114 653 129 660 C 144 667 161 673 179 679 C 197 684 217 688 239 692 C 261 696 285 698 313 698 C 398 698 465 681 514 649 C 563 616 588 568 588 506 C 588 478 583 453 573 432 C 563 410 550 392 534 377 C 518 362 499 350 479 341 C 459 331 438 324 418 319 L 418 315 C 445 310 471 303 496 293 C 521 283 543 269 562 252 C 581 234 596 213 608 189 C 619 164 625 135 625 102 C 625 58 616 20 598 -12 C 580 -44 556 -72 526 -94 C 496 -116 460 -132 420 -143 C 379 -154 336 -160 291 -160 C 257 -160 220 -157 180 -151 C 140 -145 104 -136 72 -123 L 86 -2 C 116 -14 147 -25 181 -33 C 214 -41 249 -45 285 -45 C 311 -45 337 -42 361 -36 C 385 -30 405 -22 423 -11 C 441 0 455 15 465 33 C 475 51 481 72 481 98 C 481 123 476 145 466 163 C 456 181 442 195 425 207 C 407 218 387 226 364 232 C 341 237 317 240 291 240 C 281 240 270 239 258 239 C 246 238 234 237 223 236 C 211 235 201 234 191 233 C 181 232 172 231 166 231 L 156 346 L 250 352 C 317 356 365 371 395 396 C 425 421 440 451 440 487 C 440 522 428 547 404 562 C 380 576 349 584 309 584 C 285 584 262 581 242 577 C 222 573 203 568 187 562 C 171 556 156 549 144 543 C 132 537 122 532 115 528 L 88 641 Z" unicode="₃" />
<glyph horiz-adv-x="770" d="M 598 37 L 598 -147 L 461 -147 L 461 37 L 53 37 L 53 137 L 424 686 L 598 686 L 598 145 L 733 145 L 733 37 L 598 37 Z M 176 145 L 461 145 L 461 387 C 461 421 461 451 461 478 C 461 505 461 534 463 565 L 459 565 L 176 145 Z" unicode="₄" />
<glyph horiz-adv-x="721" d="M 150 686 L 606 686 L 606 571 L 258 571 L 231 362 C 257 377 283 388 309 394 C 335 400 359 403 383 403 C 421 403 457 396 490 384 C 523 372 552 354 576 331 C 600 308 618 280 632 247 C 646 214 653 177 653 135 C 653 87 644 45 626 9 C 608 -27 583 -58 552 -83 C 520 -108 483 -127 440 -140 C 396 -153 349 -160 299 -160 C 285 -160 269 -159 251 -158 C 233 -157 214 -155 195 -153 C 175 -150 156 -146 137 -142 C 118 -137 101 -131 86 -125 L 86 -2 C 121 -16 158 -27 196 -34 C 234 -41 269 -45 301 -45 C 331 -45 360 -41 386 -35 C 412 -28 434 -17 453 -3 C 471 10 486 29 496 51 C 506 73 512 99 512 129 C 512 179 497 217 467 245 C 437 273 394 287 338 287 C 311 287 284 282 256 273 C 228 263 200 247 172 225 L 92 254 L 150 686 Z" unicode="₅" />
<glyph horiz-adv-x="793" d="M 645 547 C 635 551 623 556 610 560 C 597 564 583 568 569 572 C 554 575 539 578 523 580 C 507 582 491 584 477 584 C 435 584 399 576 369 561 C 338 545 312 524 291 498 C 270 471 253 439 241 402 C 229 365 221 325 217 283 L 221 283 C 255 315 291 339 329 356 C 367 372 409 381 455 381 C 489 381 522 376 555 366 C 587 356 616 341 642 321 C 668 300 689 274 705 242 C 721 210 729 173 729 129 C 729 86 721 47 705 12 C 689 -23 668 -53 641 -79 C 613 -105 581 -125 543 -139 C 505 -153 464 -160 420 -160 C 396 -160 372 -157 346 -153 C 320 -149 294 -141 269 -130 C 243 -119 219 -104 196 -85 C 172 -66 152 -42 134 -13 C 116 15 102 50 92 91 C 81 131 76 179 76 233 C 76 301 84 363 102 420 C 119 476 145 525 179 567 C 213 608 256 640 307 663 C 357 686 416 698 483 698 C 501 698 520 697 538 695 C 556 693 573 691 589 689 C 605 686 619 683 633 679 C 646 675 657 672 666 668 L 645 547 Z M 434 262 C 394 262 357 255 321 241 C 285 227 252 206 221 180 C 225 131 234 92 249 63 C 263 33 280 11 300 -5 C 319 -21 339 -31 361 -37 C 382 -42 402 -45 420 -45 C 446 -45 470 -40 491 -32 C 511 -23 529 -11 543 3 C 557 18 568 36 576 57 C 584 77 588 100 588 125 C 588 153 583 175 575 193 C 566 211 554 225 540 235 C 526 245 509 252 491 256 C 472 260 453 262 434 262 Z" unicode="₆" />
<glyph horiz-adv-x="662" d="M 254 -147 L 109 -147 L 467 571 L 55 571 L 55 686 L 616 686 L 616 588 L 254 -147 Z" unicode="₇" />
<glyph horiz-adv-x="793" d="M 690 479 C 690 437 674 399 642 366 C 610 333 567 309 514 295 L 514 291 C 536 285 560 276 584 266 C 608 256 629 242 649 226 C 669 209 685 189 698 166 C 710 142 717 115 717 84 C 717 47 709 14 693 -16 C 677 -46 655 -71 627 -93 C 598 -114 563 -130 523 -142 C 482 -154 437 -160 387 -160 C 339 -160 296 -154 258 -143 C 220 -132 187 -117 160 -97 C 132 -77 111 -52 96 -24 C 81 4 74 36 74 72 C 74 100 79 126 90 148 C 101 170 116 189 134 206 C 152 223 174 238 198 250 C 222 262 248 273 276 281 L 276 285 C 252 291 230 300 209 312 C 188 324 169 338 153 354 C 137 370 124 388 114 408 C 104 428 100 451 100 475 C 100 509 107 539 122 567 C 136 594 157 617 183 637 C 209 656 240 671 276 682 C 312 692 351 698 395 698 C 437 698 477 692 513 682 C 549 671 581 656 607 637 C 633 618 653 595 668 568 C 682 541 690 511 690 479 Z M 573 78 C 573 100 566 118 553 134 C 540 150 524 163 505 175 C 486 186 466 196 444 205 C 422 213 401 221 383 229 C 369 224 352 218 333 212 C 313 206 295 197 278 186 C 261 175 247 161 235 144 C 223 127 217 106 217 82 C 217 61 221 42 230 25 C 239 8 252 -6 268 -18 C 284 -30 302 -40 324 -47 C 345 -53 368 -57 393 -57 C 419 -57 443 -53 465 -46 C 487 -38 506 -28 522 -16 C 538 -3 550 11 559 27 C 568 43 573 60 573 78 Z M 244 483 C 244 467 247 452 255 440 C 262 428 273 416 287 406 C 301 395 318 385 339 375 C 359 365 383 356 410 346 C 425 352 441 358 457 365 C 473 371 488 380 502 390 C 516 400 527 411 536 425 C 544 439 549 455 549 475 C 549 493 545 509 537 524 C 529 539 518 552 504 562 C 490 572 473 581 455 587 C 436 593 416 596 395 596 C 373 596 353 593 335 587 C 316 581 300 573 287 563 C 273 553 263 541 255 527 C 247 513 244 499 244 483 Z" unicode="₈" />
<glyph horiz-adv-x="793" d="M 147 -10 C 157 -14 168 -18 181 -22 C 194 -26 208 -30 223 -34 C 238 -37 253 -40 269 -42 C 285 -44 300 -45 315 -45 C 355 -45 391 -37 421 -22 C 451 -7 477 13 498 40 C 519 66 536 98 548 135 C 560 172 569 212 573 256 L 569 256 C 536 224 501 199 463 183 C 425 166 383 158 336 158 C 302 158 269 162 237 172 C 204 181 175 196 149 216 C 123 236 101 263 85 295 C 69 327 61 365 61 410 C 61 452 69 491 85 527 C 101 562 123 592 151 618 C 179 643 212 663 251 677 C 289 691 331 698 377 698 C 399 698 423 695 449 691 C 474 687 499 679 524 668 C 549 657 573 642 596 623 C 619 604 639 580 657 551 C 675 521 689 486 699 446 C 709 405 715 357 715 303 C 715 235 706 173 689 117 C 671 61 645 12 611 -29 C 577 -70 534 -102 483 -125 C 432 -148 373 -160 307 -160 C 289 -160 271 -159 253 -157 C 235 -155 219 -153 203 -150 C 187 -147 173 -144 160 -140 C 146 -136 135 -133 127 -129 L 147 -10 Z M 358 276 C 397 276 434 283 470 297 C 505 311 539 331 571 358 C 567 409 557 450 542 480 C 526 510 509 532 489 548 C 469 563 448 573 428 577 C 407 581 389 584 375 584 C 347 584 323 579 302 571 C 281 562 263 550 249 535 C 234 520 223 502 216 481 C 208 459 205 436 205 412 C 205 385 209 363 218 345 C 226 327 238 313 252 303 C 266 293 283 286 301 282 C 319 278 338 276 358 276 Z" unicode="₉" />
<glyph horiz-adv-x="410" d="" unicode=" " />
<glyph horiz-adv-x="528" d="M 209 528 L 319 528 L 362 -399 L 166 -399 L 209 528 Z M 170 766 L 170 989 L 358 989 L 358 766 L 170 766 Z" unicode="¡" />
<glyph horiz-adv-x="952" d="M 621 1198 L 621 971 C 659 967 694 960 727 950 C 759 940 791 928 821 915 L 809 786 C 795 795 780 804 762 812 C 744 820 724 827 704 833 C 684 839 662 843 640 847 C 617 850 595 852 573 852 C 535 852 499 845 463 833 C 427 821 394 800 366 770 C 338 740 315 701 298 653 C 280 604 272 543 272 471 C 272 399 280 339 297 292 C 314 245 336 208 364 180 C 391 152 422 132 457 121 C 491 109 527 104 563 104 C 589 104 615 106 640 111 C 665 116 689 123 711 131 C 733 139 754 149 772 160 C 790 170 807 181 821 193 L 834 61 C 808 43 778 27 744 13 C 710 0 669 -10 621 -16 L 621 -236 L 481 -236 L 481 -16 C 430 -10 382 2 338 22 C 293 42 254 71 221 109 C 187 147 161 195 142 253 C 122 311 113 382 113 465 C 113 549 123 621 144 681 C 164 741 192 791 226 831 C 260 871 300 902 344 924 C 388 946 433 961 481 969 L 481 1198 L 621 1198 Z" unicode="¢" />
<glyph horiz-adv-x="1180" d="M 100 758 L 383 758 L 383 1030 C 383 1087 392 1136 412 1178 C 431 1220 457 1254 491 1281 C 525 1308 564 1328 610 1341 C 655 1353 704 1360 756 1360 C 780 1360 807 1358 835 1355 C 863 1351 891 1347 918 1341 C 944 1335 969 1329 993 1321 C 1017 1313 1037 1304 1053 1294 L 1036 1155 C 1020 1165 1000 1175 978 1184 C 956 1193 932 1201 908 1207 C 883 1213 858 1218 832 1222 C 806 1225 781 1227 758 1227 C 725 1227 695 1223 668 1215 C 641 1207 618 1194 599 1177 C 580 1160 565 1139 555 1113 C 544 1087 539 1057 539 1022 L 539 758 L 924 758 L 924 627 L 539 627 C 539 563 535 509 527 464 C 519 419 506 378 489 342 C 471 306 449 271 422 239 C 394 206 362 171 324 133 L 1055 133 L 1055 0 L 135 0 L 135 111 C 168 143 197 173 222 199 C 247 225 269 251 287 276 C 305 300 321 325 333 349 C 345 373 354 398 362 426 C 369 453 374 483 377 516 C 380 548 382 585 383 627 L 100 627 L 100 758 Z" unicode="£" />
<glyph horiz-adv-x="1307" d="M 307 291 C 263 335 230 388 207 450 C 183 512 172 583 172 662 C 172 738 184 810 208 876 C 232 942 267 999 315 1047 L 121 1341 L 248 1409 L 432 1130 C 464 1147 499 1161 537 1171 C 575 1181 615 1186 659 1186 C 700 1186 739 1181 775 1173 C 811 1164 845 1152 877 1137 L 1059 1409 L 1186 1341 L 993 1055 C 1036 1009 1070 955 1094 893 C 1118 831 1130 761 1130 684 C 1130 606 1118 535 1094 469 C 1070 403 1035 347 989 299 L 1190 0 L 1063 -70 L 877 217 C 843 198 807 184 769 174 C 730 164 688 160 643 160 C 601 160 562 164 526 172 C 490 180 456 193 424 211 L 242 -70 L 117 0 L 307 291 Z M 643 283 C 697 283 745 293 787 313 C 829 333 864 362 892 398 C 920 434 942 476 957 525 C 971 574 979 627 979 684 C 979 741 971 793 957 839 C 942 885 921 925 893 958 C 865 991 832 1016 793 1034 C 753 1052 709 1061 659 1061 C 605 1061 557 1050 515 1030 C 473 1010 437 982 409 946 C 380 910 358 868 344 820 C 329 771 322 718 322 662 C 322 604 329 551 344 505 C 358 458 379 418 407 385 C 435 352 468 327 508 309 C 548 291 593 283 643 283 Z" unicode="¤" />
<glyph horiz-adv-x="1397" d="M 1278 477 L 776 477 L 776 0 L 621 0 L 621 477 L 121 477 L 121 590 L 610 590 L 496 793 L 121 793 L 121 905 L 432 905 L 190 1339 L 377 1339 L 705 711 L 1034 1339 L 1210 1339 L 965 905 L 1278 905 L 1278 793 L 901 793 L 786 590 L 1278 590 L 1278 477 Z" unicode="¥" />
<glyph horiz-adv-x="805" d="M 317 1569 L 487 1569 L 487 850 L 317 850 L 317 1569 Z M 317 545 L 487 545 L 487 -174 L 317 -174 L 317 545 Z" unicode="¦" />
<glyph horiz-adv-x="1219" d="M 283 -172 C 335 -189 389 -204 445 -217 C 501 -229 556 -236 612 -236 C 646 -236 678 -233 707 -227 C 735 -221 760 -211 780 -198 C 800 -185 816 -168 827 -148 C 838 -128 844 -104 844 -76 C 844 -42 835 -15 819 6 C 803 28 780 46 752 61 C 723 76 689 89 650 100 C 610 111 568 123 522 135 C 488 143 454 152 419 163 C 384 174 350 187 317 202 C 283 217 252 235 223 255 C 193 275 168 298 146 325 C 124 352 106 383 93 418 C 80 453 74 493 74 537 C 74 577 80 614 93 648 C 105 682 123 713 146 741 C 169 769 197 793 230 813 C 262 833 298 848 338 858 L 338 862 C 322 872 306 883 292 896 C 278 908 265 923 255 940 C 245 957 236 976 230 997 C 224 1018 221 1042 221 1069 C 221 1113 229 1153 247 1189 C 265 1225 290 1255 324 1281 C 358 1306 399 1325 447 1339 C 495 1353 550 1360 612 1360 C 640 1360 669 1358 699 1356 C 729 1353 758 1349 788 1344 C 817 1339 845 1333 873 1326 C 900 1319 925 1311 948 1303 L 936 1171 C 883 1188 829 1203 773 1216 C 717 1228 662 1235 606 1235 C 571 1235 539 1231 511 1225 C 483 1219 458 1209 438 1196 C 418 1183 402 1167 391 1147 C 380 1127 375 1103 375 1075 C 375 1041 383 1014 399 992 C 415 970 438 952 466 937 C 494 922 528 909 568 898 C 607 887 650 876 696 864 C 729 856 763 846 799 835 C 834 824 868 811 902 796 C 935 781 966 764 996 744 C 1025 724 1051 700 1073 673 C 1095 646 1112 615 1125 581 C 1138 546 1145 507 1145 463 C 1145 421 1138 382 1124 347 C 1110 311 1092 280 1068 253 C 1044 225 1016 202 984 183 C 952 164 917 150 881 141 L 881 137 C 915 115 943 88 965 55 C 986 22 997 -19 997 -70 C 997 -114 988 -154 970 -190 C 952 -226 927 -256 893 -281 C 859 -306 818 -325 770 -339 C 722 -353 667 -360 606 -360 C 578 -360 550 -358 520 -356 C 490 -353 460 -349 430 -344 C 400 -339 372 -333 345 -326 C 317 -319 292 -311 270 -303 L 283 -172 Z M 760 221 C 790 225 818 233 846 245 C 873 257 897 272 918 292 C 938 311 955 334 967 362 C 979 389 985 421 985 457 C 985 501 974 538 953 569 C 932 599 900 626 857 650 C 814 673 760 694 694 714 C 628 734 549 754 459 776 C 428 772 399 764 372 752 C 344 740 320 725 300 706 C 279 686 263 663 251 636 C 239 609 233 578 233 543 C 233 498 243 460 264 429 C 285 398 317 371 360 347 C 403 323 458 302 524 282 C 590 262 669 242 760 221 Z" unicode="§" />
<glyph horiz-adv-x="840" d="M 307 1427 L 307 1237 L 143 1237 L 143 1427 L 307 1427 Z M 698 1427 L 698 1237 L 535 1237 L 535 1427 L 698 1427 Z" unicode="¨" />
<glyph horiz-adv-x="1919" d="M 944 -264 C 866 -264 792 -254 721 -235 C 650 -215 584 -188 522 -152 C 460 -116 403 -74 353 -24 C 302 25 258 80 222 141 C 186 202 158 268 138 338 C 118 408 109 482 109 559 C 109 637 119 713 140 785 C 161 857 190 925 228 988 C 266 1051 311 1108 364 1160 C 416 1212 475 1256 539 1293 C 603 1329 671 1358 744 1378 C 817 1398 893 1409 971 1409 C 1047 1409 1121 1399 1192 1379 C 1262 1359 1328 1332 1390 1296 C 1452 1260 1508 1218 1558 1168 C 1608 1118 1652 1062 1688 1001 C 1724 940 1752 874 1772 804 C 1792 733 1802 660 1802 584 C 1802 505 1791 429 1771 357 C 1750 285 1721 217 1683 155 C 1645 92 1600 35 1548 -16 C 1495 -68 1437 -112 1374 -149 C 1310 -185 1242 -214 1170 -234 C 1097 -254 1022 -264 944 -264 Z M 944 -160 C 1011 -160 1076 -151 1139 -133 C 1202 -115 1261 -90 1316 -58 C 1370 -26 1420 12 1465 58 C 1510 103 1549 153 1581 208 C 1613 263 1638 322 1656 385 C 1674 448 1683 514 1683 582 C 1683 648 1674 712 1657 774 C 1640 835 1616 892 1585 946 C 1554 1000 1517 1049 1474 1093 C 1430 1137 1382 1174 1329 1206 C 1276 1237 1219 1261 1159 1279 C 1098 1296 1035 1305 969 1305 C 901 1305 836 1296 774 1278 C 712 1260 653 1234 598 1202 C 543 1170 493 1131 448 1086 C 402 1040 363 990 331 935 C 299 880 274 821 256 758 C 238 694 229 629 229 561 C 229 494 237 430 254 369 C 271 307 295 250 327 197 C 358 143 395 95 439 51 C 483 7 531 -30 584 -62 C 636 -93 693 -117 754 -134 C 815 -151 878 -160 944 -160 Z M 1268 823 C 1252 833 1234 842 1214 852 C 1193 862 1171 870 1148 877 C 1124 884 1100 890 1075 894 C 1049 898 1024 901 999 901 C 955 901 914 894 875 881 C 835 868 800 848 770 822 C 739 795 715 762 697 722 C 679 682 670 636 670 582 C 670 528 678 482 696 443 C 714 404 737 372 767 347 C 797 321 831 302 870 290 C 909 278 950 272 993 272 C 1055 272 1110 280 1158 296 C 1206 312 1246 329 1278 348 L 1292 227 C 1274 218 1256 209 1236 201 C 1216 193 1193 185 1169 179 C 1144 172 1117 166 1088 162 C 1058 158 1026 156 991 156 C 928 156 868 165 812 183 C 756 201 706 227 664 263 C 621 298 587 342 562 394 C 536 446 524 506 524 575 C 524 647 537 710 564 766 C 591 821 627 867 671 905 C 715 942 765 970 822 989 C 878 1008 937 1018 997 1018 C 1049 1018 1099 1010 1147 996 C 1195 982 1240 964 1282 944 L 1268 823 Z" unicode="©" />
<glyph horiz-adv-x="815" d="M 127 1208 C 159 1231 197 1248 241 1260 C 285 1272 336 1278 393 1278 C 451 1278 500 1272 539 1260 C 577 1248 608 1231 631 1209 C 654 1187 670 1159 680 1126 C 689 1092 694 1054 694 1012 L 694 707 C 694 661 696 621 701 589 C 706 556 713 524 721 492 L 588 492 C 581 512 576 533 573 556 C 570 579 569 601 569 623 L 565 623 C 551 599 534 578 515 560 C 495 542 474 527 451 515 C 428 503 404 494 378 488 C 352 482 327 479 301 479 C 267 479 235 483 206 493 C 176 502 151 515 129 533 C 107 551 90 572 78 598 C 65 624 59 653 59 686 C 59 725 68 761 87 794 C 106 826 136 854 176 878 C 216 901 268 919 331 932 C 394 945 469 952 557 952 L 557 1001 C 557 1026 554 1049 549 1069 C 544 1089 535 1106 522 1120 C 509 1134 491 1144 469 1152 C 446 1159 417 1163 383 1163 C 341 1163 299 1157 258 1145 C 216 1133 182 1117 156 1096 L 127 1208 Z M 340 582 C 362 582 385 586 411 594 C 436 602 459 614 481 632 C 503 649 521 671 535 698 C 549 725 557 757 557 795 L 557 862 C 488 862 431 857 387 849 C 342 840 306 828 280 813 C 254 798 235 781 225 762 C 214 742 209 722 209 702 C 209 664 221 634 245 613 C 269 592 300 582 340 582 Z" unicode="ª" />
<glyph horiz-adv-x="1055" d="M 489 901 L 250 573 L 489 246 L 338 246 L 96 518 L 96 629 L 338 901 L 489 901 Z M 928 901 L 688 573 L 928 246 L 776 246 L 535 518 L 535 629 L 776 901 L 928 901 Z" unicode="«" />
<glyph horiz-adv-x="1106" d="M 1049 907 L 1049 256 L 905 256 L 905 774 L 55 774 L 55 907 L 1049 907 Z" unicode="¬" />
<glyph horiz-adv-x="1057" d="M 522 610 C 456 610 395 622 337 646 C 279 670 228 704 185 747 C 141 789 107 839 82 897 C 57 954 45 1015 45 1081 C 45 1148 58 1211 84 1270 C 110 1329 145 1381 190 1425 C 234 1469 286 1503 346 1529 C 406 1554 469 1567 537 1567 C 603 1567 664 1554 722 1530 C 780 1505 830 1471 873 1429 C 916 1386 950 1336 975 1278 C 999 1220 1012 1159 1012 1094 C 1012 1026 999 963 973 905 C 947 846 912 795 868 751 C 824 707 772 673 713 648 C 653 622 590 610 522 610 Z M 522 688 C 578 688 630 698 679 720 C 728 741 771 770 807 807 C 843 843 872 886 894 936 C 915 985 926 1038 926 1094 C 926 1148 915 1199 895 1247 C 875 1295 847 1337 812 1373 C 777 1409 736 1437 688 1458 C 640 1478 589 1489 535 1489 C 479 1489 427 1478 379 1457 C 330 1435 287 1406 251 1369 C 215 1332 186 1289 165 1240 C 143 1190 133 1138 133 1083 C 133 1028 143 977 163 929 C 183 881 211 839 247 803 C 282 767 323 739 370 719 C 417 698 468 688 522 688 Z M 330 1362 L 543 1362 C 607 1362 656 1348 692 1322 C 727 1295 745 1258 745 1212 C 745 1191 741 1172 734 1156 C 726 1140 716 1125 704 1113 C 692 1101 677 1091 661 1083 C 645 1075 628 1069 610 1065 L 791 834 L 662 834 L 500 1049 L 434 1049 L 434 834 L 330 834 L 330 1362 Z M 532 1126 C 568 1126 594 1133 611 1148 C 628 1163 637 1183 637 1208 C 637 1229 627 1247 609 1261 C 591 1275 564 1282 528 1282 L 434 1282 L 434 1126 L 532 1126 Z" unicode="®" />
<glyph horiz-adv-x="840" d="M 676 1360 L 676 1243 L 164 1243 L 164 1360 L 676 1360 Z" unicode="¯" />
<glyph horiz-adv-x="860" d="M 756 1090 C 756 1045 747 1003 730 963 C 713 923 690 888 660 858 C 630 828 596 804 556 786 C 516 768 474 760 430 760 C 385 760 343 768 304 786 C 264 804 230 828 200 858 C 170 888 147 923 130 963 C 112 1003 104 1045 104 1090 C 104 1134 112 1177 130 1217 C 147 1257 170 1292 200 1322 C 230 1352 264 1375 304 1393 C 343 1410 385 1419 430 1419 C 474 1419 516 1410 556 1393 C 596 1375 630 1352 660 1322 C 690 1292 713 1257 730 1217 C 747 1177 756 1134 756 1090 Z M 627 1090 C 627 1118 621 1144 611 1169 C 601 1194 587 1216 569 1235 C 551 1253 531 1268 507 1279 C 483 1290 457 1296 430 1296 C 403 1296 378 1290 354 1279 C 330 1268 308 1253 290 1235 C 272 1216 257 1194 247 1169 C 236 1144 231 1118 231 1090 C 231 1062 236 1035 247 1010 C 257 985 272 963 290 944 C 308 925 330 910 354 899 C 378 888 403 883 430 883 C 457 883 483 888 507 899 C 531 910 551 925 569 944 C 587 963 601 985 611 1010 C 621 1035 627 1062 627 1090 Z" unicode="°" />
<glyph horiz-adv-x="1106" d="M 53 786 L 481 786 L 481 1184 L 623 1184 L 623 786 L 1051 786 L 1051 651 L 623 651 L 623 252 L 481 252 L 481 651 L 53 651 L 53 786 Z M 53 131 L 1051 131 L 1051 0 L 53 0 L 53 131 Z" unicode="±" />
<glyph horiz-adv-x="715" d="M 74 608 L 315 844 C 333 862 352 880 371 899 C 390 917 407 937 422 958 C 437 978 449 1000 459 1024 C 468 1047 473 1072 473 1098 C 473 1118 470 1136 464 1154 C 458 1171 449 1186 437 1199 C 424 1212 408 1222 389 1230 C 369 1237 346 1241 319 1241 C 295 1241 273 1238 253 1233 C 232 1228 212 1221 194 1213 C 176 1205 159 1195 144 1185 C 128 1175 114 1165 102 1155 L 76 1270 C 91 1281 107 1292 125 1302 C 142 1312 161 1322 183 1330 C 204 1338 227 1344 253 1349 C 278 1353 306 1356 338 1356 C 428 1356 498 1335 547 1294 C 596 1253 621 1193 621 1114 C 621 1082 616 1052 607 1024 C 598 996 585 968 567 940 C 549 912 526 884 499 855 C 471 826 439 794 403 760 L 260 625 L 639 625 L 639 510 L 74 510 L 74 608 Z" unicode="²" />
<glyph horiz-adv-x="700" d="M 88 1298 C 100 1304 114 1310 129 1317 C 144 1324 161 1330 179 1336 C 197 1342 217 1346 239 1350 C 261 1354 285 1356 313 1356 C 398 1356 465 1339 514 1306 C 563 1273 588 1225 588 1163 C 588 1135 583 1110 573 1089 C 563 1068 550 1050 534 1035 C 518 1020 499 1008 479 998 C 459 988 438 981 418 977 L 418 973 C 445 968 471 960 496 950 C 521 940 543 926 562 909 C 581 892 596 871 608 847 C 619 822 625 793 625 760 C 625 716 616 678 598 646 C 580 613 556 586 526 564 C 496 542 460 525 420 514 C 379 503 336 498 291 498 C 257 498 220 500 180 506 C 140 512 104 521 72 535 L 86 655 C 116 643 147 632 181 624 C 214 616 249 612 285 612 C 311 612 337 614 361 620 C 385 626 405 634 423 646 C 441 658 455 673 465 691 C 475 709 481 730 481 756 C 481 780 476 802 466 820 C 456 838 442 852 425 864 C 407 875 387 883 364 889 C 341 894 317 897 291 897 C 281 897 270 896 258 896 C 246 895 234 894 223 893 C 211 892 201 891 191 891 C 181 890 172 889 166 889 L 156 1004 L 250 1010 C 318 1015 366 1030 396 1054 C 425 1078 440 1109 440 1145 C 440 1179 428 1204 404 1219 C 380 1233 349 1241 309 1241 C 285 1241 262 1238 242 1234 C 222 1230 203 1225 187 1219 C 171 1213 156 1207 144 1201 C 132 1195 122 1190 115 1186 L 88 1298 Z" unicode="³" />
<glyph horiz-adv-x="840" d="M 713 1493 L 436 1174 L 291 1174 L 510 1493 L 713 1493 Z" unicode="´" />
<glyph horiz-adv-x="1116" d="M 979 989 L 979 211 L 987 0 L 838 0 L 834 172 L 829 172 C 811 142 791 116 770 93 C 748 69 725 50 699 34 C 673 18 644 5 612 -3 C 580 -11 545 -16 506 -16 C 488 -16 471 -14 455 -12 C 438 -10 422 -6 406 0 C 390 6 375 14 361 25 C 347 36 334 50 322 68 L 317 68 C 317 58 318 45 320 31 C 321 17 322 1 324 -15 C 325 -32 326 -49 328 -67 C 329 -85 330 -102 330 -119 L 330 -410 L 174 -410 L 174 989 L 330 989 L 330 328 C 330 298 333 269 339 242 C 345 214 356 190 372 170 C 387 150 407 134 433 122 C 458 110 490 104 528 104 C 562 104 597 111 632 125 C 667 139 699 158 727 182 C 755 206 778 234 796 266 C 814 298 823 333 823 371 L 823 989 L 979 989 Z" unicode="µ" />
<glyph horiz-adv-x="1331" d="M 1141 1391 L 1141 -451 L 991 -451 L 991 1266 L 676 1266 L 676 -451 L 524 -451 L 524 573 L 502 573 C 434 573 374 584 320 606 C 266 628 221 658 183 696 C 145 734 116 778 96 829 C 76 880 66 935 66 993 C 66 1051 76 1105 96 1154 C 116 1202 146 1244 184 1279 C 222 1314 267 1341 321 1361 C 375 1381 435 1391 502 1391 L 1141 1391 Z" unicode="¶" />
<glyph horiz-adv-x="487" d="M 356 702 L 356 465 L 129 465 L 129 702 L 356 702 Z" unicode="·" />
<glyph horiz-adv-x="840" d="M 487 6 L 487 -23 C 487 -30 488 -35 492 -39 C 496 -43 500 -47 504 -53 L 565 -117 C 571 -124 578 -132 586 -142 C 594 -152 601 -163 607 -175 C 613 -187 619 -201 623 -216 C 627 -230 629 -246 629 -264 C 629 -293 623 -319 612 -343 C 600 -366 584 -386 564 -402 C 544 -418 519 -431 490 -440 C 461 -448 429 -453 395 -453 C 361 -453 330 -449 302 -442 C 274 -434 250 -425 231 -414 L 246 -305 C 263 -316 284 -325 310 -332 C 335 -338 360 -342 385 -342 C 397 -342 409 -340 421 -338 C 433 -336 444 -332 454 -326 C 464 -320 472 -311 478 -301 C 484 -290 487 -276 487 -260 C 487 -240 482 -225 473 -213 C 464 -201 453 -189 440 -176 L 383 -121 C 375 -113 370 -107 367 -102 C 363 -96 362 -87 362 -74 L 362 6 L 487 6 Z" unicode="¸" />
<glyph horiz-adv-x="518" d="M 236 510 L 236 1198 L 68 1145 L 41 1264 L 295 1341 L 375 1341 L 375 510 L 236 510 Z" unicode="¹" />
<glyph horiz-adv-x="899" d="M 823 887 C 823 833 815 782 799 732 C 783 682 760 639 729 601 C 697 563 658 532 611 509 C 563 486 508 475 446 475 C 386 475 333 485 287 505 C 241 525 202 554 170 590 C 138 626 114 668 98 717 C 82 765 74 818 74 874 C 74 928 82 980 99 1029 C 115 1078 140 1121 172 1157 C 204 1193 244 1222 292 1244 C 339 1265 393 1276 455 1276 C 513 1276 564 1266 610 1247 C 655 1227 693 1200 725 1166 C 757 1132 781 1091 798 1043 C 814 995 823 943 823 887 Z M 676 887 C 676 927 671 965 661 999 C 651 1033 637 1063 619 1087 C 600 1111 577 1130 550 1144 C 523 1158 493 1165 459 1165 C 421 1165 387 1157 358 1141 C 328 1125 304 1104 284 1077 C 264 1050 248 1019 238 983 C 228 947 223 910 223 870 C 223 830 228 793 238 759 C 248 725 262 695 281 669 C 300 643 323 623 351 608 C 379 593 410 586 446 586 C 484 586 518 594 547 611 C 576 628 600 651 619 679 C 638 707 652 740 662 776 C 671 812 676 849 676 887 Z" unicode="º" />
<glyph horiz-adv-x="1055" d="M 717 901 L 958 629 L 958 518 L 717 246 L 565 246 L 805 573 L 565 901 L 717 901 Z M 279 901 L 520 629 L 520 518 L 279 246 L 127 246 L 367 573 L 127 901 L 279 901 Z" unicode="»" />
<glyph horiz-adv-x="1593" d="M 236 510 L 236 1198 L 68 1145 L 41 1264 L 295 1341 L 375 1341 L 375 510 L 236 510 Z M 1026 1339 L 1167 1339 L 406 0 L 264 0 L 1026 1339 Z M 1421 184 L 1421 0 L 1284 0 L 1284 184 L 877 184 L 877 285 L 1247 834 L 1421 834 L 1421 293 L 1556 293 L 1556 184 L 1421 184 Z M 999 293 L 1284 293 L 1284 535 C 1284 569 1284 599 1284 626 C 1284 652 1284 681 1286 713 L 1282 713 L 999 293 Z" unicode="¼" />
<glyph horiz-adv-x="1628" d="M 236 510 L 236 1198 L 68 1145 L 41 1264 L 295 1341 L 375 1341 L 375 510 L 236 510 Z M 1026 1339 L 1167 1339 L 406 0 L 264 0 L 1026 1339 Z M 987 98 L 1229 334 C 1247 352 1266 370 1285 389 C 1304 408 1321 428 1336 449 C 1350 469 1362 491 1372 514 C 1381 537 1386 562 1386 588 C 1386 608 1383 626 1377 644 C 1371 661 1362 676 1350 689 C 1337 702 1321 712 1302 720 C 1282 727 1259 731 1233 731 C 1209 731 1187 728 1167 723 C 1146 718 1126 711 1108 703 C 1090 695 1073 685 1057 675 C 1041 665 1028 655 1016 645 L 989 760 C 1004 771 1020 782 1038 792 C 1056 802 1075 812 1096 820 C 1117 828 1140 834 1166 839 C 1191 843 1219 846 1251 846 C 1342 846 1412 825 1461 784 C 1509 743 1534 683 1534 604 C 1534 572 1529 542 1521 514 C 1512 486 1499 458 1481 430 C 1463 402 1440 374 1413 345 C 1385 316 1353 284 1317 250 L 1174 115 L 1552 115 L 1552 0 L 987 0 L 987 98 Z" unicode="½" />
<glyph horiz-adv-x="1763" d="M 88 1298 C 100 1304 114 1310 129 1317 C 144 1324 161 1330 179 1336 C 197 1342 217 1346 239 1350 C 261 1354 285 1356 313 1356 C 398 1356 465 1339 514 1306 C 563 1273 588 1225 588 1163 C 588 1135 583 1110 573 1089 C 563 1068 550 1050 534 1035 C 518 1020 499 1008 479 998 C 459 988 438 981 418 977 L 418 973 C 445 968 471 960 496 950 C 521 940 543 926 562 909 C 581 892 596 871 608 847 C 619 822 625 793 625 760 C 625 716 616 678 598 646 C 580 613 556 586 526 564 C 496 542 460 525 420 514 C 379 503 336 498 291 498 C 257 498 220 500 180 506 C 140 512 104 521 72 535 L 86 655 C 116 643 147 632 181 624 C 214 616 249 612 285 612 C 311 612 337 614 361 620 C 385 626 405 634 423 646 C 441 658 455 673 465 691 C 475 709 481 730 481 756 C 481 780 476 802 466 820 C 456 838 442 852 425 864 C 407 875 387 883 364 889 C 341 894 317 897 291 897 C 281 897 270 896 258 896 C 246 895 234 894 223 893 C 211 892 201 891 191 891 C 181 890 172 889 166 889 L 156 1004 L 250 1010 C 318 1015 366 1030 396 1054 C 425 1078 440 1109 440 1145 C 440 1179 428 1204 404 1219 C 380 1233 349 1241 309 1241 C 285 1241 262 1238 242 1234 C 222 1230 203 1225 187 1219 C 171 1213 156 1207 144 1201 C 132 1195 122 1190 115 1186 L 88 1298 Z M 1196 1339 L 1337 1339 L 575 0 L 434 0 L 1196 1339 Z M 1591 184 L 1591 0 L 1454 0 L 1454 184 L 1047 184 L 1047 285 L 1417 834 L 1591 834 L 1591 293 L 1726 293 L 1726 184 L 1591 184 Z M 1169 293 L 1454 293 L 1454 535 C 1454 569 1454 599 1454 626 C 1454 652 1454 681 1456 713 L 1452 713 L 1169 293 Z" unicode="¾" />
<glyph horiz-adv-x="920" d="M 653 766 L 467 766 L 467 989 L 653 989 L 653 766 Z M 637 428 C 637 387 630 352 618 323 C 605 294 588 269 568 247 C 547 225 523 206 497 189 C 470 172 443 155 416 139 C 392 125 369 110 347 95 C 325 79 306 62 290 44 C 274 26 261 5 252 -16 C 242 -38 238 -64 238 -92 C 238 -124 244 -153 258 -177 C 271 -201 290 -222 314 -238 C 338 -254 366 -265 399 -273 C 432 -281 468 -285 508 -285 C 530 -285 556 -283 585 -281 C 613 -278 642 -274 672 -269 C 701 -264 729 -258 756 -250 C 783 -242 807 -233 827 -223 L 840 -360 C 821 -370 798 -378 771 -386 C 744 -394 715 -400 685 -405 C 655 -410 624 -414 593 -416 C 562 -418 534 -420 508 -420 C 448 -420 391 -413 339 -401 C 286 -388 240 -368 201 -342 C 161 -315 130 -281 108 -241 C 85 -201 74 -153 74 -98 C 74 -51 81 -11 97 23 C 113 57 133 86 158 112 C 182 138 210 160 240 180 C 270 200 299 218 328 236 C 347 248 366 260 385 273 C 404 286 421 300 436 316 C 450 332 462 349 471 369 C 480 388 485 410 485 436 L 485 528 L 637 528 L 637 428 Z" unicode="¿" />
<glyph horiz-adv-x="1317" d="M 215 0 L 47 0 L 590 1389 L 727 1389 L 1268 0 L 1085 0 L 938 393 L 362 393 L 215 0 Z M 412 526 L 889 526 L 715 997 C 710 1009 705 1024 699 1040 C 693 1056 688 1073 682 1090 C 676 1107 671 1124 667 1140 C 662 1156 658 1171 655 1184 L 647 1184 C 643 1171 639 1157 635 1142 C 631 1126 626 1110 621 1094 C 615 1078 610 1061 604 1045 C 598 1028 593 1012 588 997 L 412 526 Z M 580 1839 L 789 1540 L 644 1540 L 385 1839 L 580 1839 Z" unicode="À" />
<glyph horiz-adv-x="1317" d="M 215 0 L 47 0 L 590 1389 L 727 1389 L 1268 0 L 1085 0 L 938 393 L 362 393 L 215 0 Z M 412 526 L 889 526 L 715 997 C 710 1009 705 1024 699 1040 C 693 1056 688 1073 682 1090 C 676 1107 671 1124 667 1140 C 662 1156 658 1171 655 1184 L 647 1184 C 643 1171 639 1157 635 1142 C 631 1126 626 1110 621 1094 C 615 1078 610 1061 604 1045 C 598 1028 593 1012 588 997 L 412 526 Z M 932 1839 L 674 1540 L 529 1540 L 738 1839 L 932 1839 Z" unicode="Á" />
<glyph horiz-adv-x="1317" d="M 215 0 L 47 0 L 590 1389 L 727 1389 L 1268 0 L 1085 0 L 938 393 L 362 393 L 215 0 Z M 412 526 L 889 526 L 715 997 C 710 1009 705 1024 699 1040 C 693 1056 688 1073 682 1090 C 676 1107 671 1124 667 1140 C 662 1156 658 1171 655 1184 L 647 1184 C 643 1171 639 1157 635 1142 C 631 1126 626 1110 621 1094 C 615 1078 610 1061 604 1045 C 598 1028 593 1012 588 997 L 412 526 Z M 750 1839 L 967 1540 L 840 1540 L 664 1737 L 652 1737 L 474 1540 L 349 1540 L 566 1839 L 750 1839 Z" unicode="Â" />
<glyph horiz-adv-x="1317" d="M 215 0 L 47 0 L 590 1389 L 727 1389 L 1268 0 L 1085 0 L 938 393 L 362 393 L 215 0 Z M 412 526 L 889 526 L 715 997 C 710 1009 705 1024 699 1040 C 693 1056 688 1073 682 1090 C 676 1107 671 1124 667 1140 C 662 1156 658 1171 655 1184 L 647 1184 C 643 1171 639 1157 635 1142 C 631 1126 626 1110 621 1094 C 615 1078 610 1061 604 1045 C 598 1028 593 1012 588 997 L 412 526 Z M 285 1540 C 285 1587 290 1630 301 1668 C 312 1706 327 1738 347 1764 C 367 1790 390 1811 417 1825 C 443 1839 472 1847 504 1847 C 530 1847 558 1840 587 1827 C 616 1814 647 1789 680 1753 L 723 1704 C 728 1698 734 1691 741 1685 C 747 1679 755 1673 763 1668 C 771 1662 779 1658 788 1654 C 796 1650 806 1649 816 1649 C 832 1649 847 1654 860 1665 C 872 1675 883 1689 892 1707 C 900 1725 907 1745 911 1768 C 915 1790 918 1814 918 1839 L 1031 1839 C 1031 1792 1025 1750 1014 1712 C 1003 1674 988 1642 968 1616 C 948 1589 924 1568 897 1554 C 869 1539 839 1532 807 1532 C 777 1532 748 1539 721 1553 C 694 1567 666 1591 637 1624 L 594 1673 C 580 1688 566 1701 550 1713 C 534 1725 516 1731 498 1731 C 480 1731 465 1725 452 1714 C 439 1703 428 1689 420 1671 C 412 1653 406 1633 402 1610 C 398 1587 396 1564 396 1540 L 285 1540 L 285 1540 Z" unicode="Ã" />
<glyph horiz-adv-x="1317" d="M 215 0 L 47 0 L 590 1389 L 727 1389 L 1268 0 L 1085 0 L 938 393 L 362 393 L 215 0 Z M 412 526 L 889 526 L 715 997 C 710 1009 705 1024 699 1040 C 693 1056 688 1073 682 1090 C 676 1107 671 1124 667 1140 C 662 1156 658 1171 655 1184 L 647 1184 C 643 1171 639 1157 635 1142 C 631 1126 626 1110 621 1094 C 615 1078 610 1061 604 1045 C 598 1028 593 1012 588 997 L 412 526 Z M 545 1759 L 545 1569 L 381 1569 L 381 1759 L 545 1759 Z M 936 1759 L 936 1569 L 773 1569 L 773 1759 L 936 1759 Z" unicode="Ä" />
<glyph horiz-adv-x="1317" d="M 215 0 L 47 0 L 590 1389 L 727 1389 L 1268 0 L 1085 0 L 938 393 L 362 393 L 215 0 Z M 412 526 L 889 526 L 715 997 C 710 1009 705 1024 699 1040 C 693 1056 688 1073 682 1090 C 676 1107 671 1124 667 1140 C 662 1156 658 1171 655 1184 L 647 1184 C 643 1171 639 1157 635 1142 C 631 1126 626 1110 621 1094 C 615 1078 610 1061 604 1045 C 598 1028 593 1012 588 997 L 412 526 Z M 410 1698 C 410 1731 416 1762 429 1791 C 442 1820 460 1845 482 1867 C 504 1889 531 1906 561 1918 C 591 1930 624 1937 658 1937 C 692 1937 724 1930 754 1918 C 784 1906 811 1889 833 1867 C 855 1845 873 1820 886 1791 C 899 1762 906 1731 906 1698 C 906 1665 899 1634 886 1606 C 873 1577 855 1552 833 1531 C 811 1509 784 1492 754 1480 C 724 1468 692 1462 658 1462 C 624 1462 591 1468 561 1480 C 531 1492 504 1509 482 1531 C 460 1552 442 1577 429 1606 C 416 1634 410 1665 410 1698 Z M 658 1845 C 638 1845 619 1841 601 1833 C 583 1825 568 1815 555 1801 C 541 1787 531 1772 523 1754 C 515 1736 512 1718 512 1698 C 512 1678 515 1660 523 1642 C 531 1624 541 1609 555 1596 C 568 1583 583 1573 601 1565 C 619 1557 638 1554 658 1554 C 678 1554 696 1557 714 1565 C 731 1573 746 1583 759 1596 C 772 1609 782 1624 790 1642 C 797 1660 801 1678 801 1698 C 801 1718 797 1736 790 1754 C 782 1772 772 1787 759 1801 C 746 1815 731 1825 714 1833 C 696 1841 678 1845 658 1845 Z" unicode="Å" />
<glyph horiz-adv-x="1876" d="M 184 0 L 18 0 L 844 1389 L 1735 1389 L 1735 1255 L 1100 1255 L 1100 784 L 1659 784 L 1659 649 L 1100 649 L 1100 133 L 1786 133 L 1786 0 L 940 0 L 940 383 L 408 383 L 184 0 Z M 485 516 L 940 516 L 940 1276 L 926 1276 C 911 1247 893 1214 872 1176 C 850 1138 829 1101 809 1065 L 485 516 Z" unicode="Æ" />
<glyph horiz-adv-x="1307" d="M 1186 1167 C 1135 1197 1077 1221 1011 1240 C 945 1258 877 1268 807 1268 C 725 1268 652 1253 587 1223 C 522 1193 467 1151 422 1098 C 376 1045 341 983 317 911 C 293 839 281 760 281 676 C 281 591 293 515 317 447 C 341 379 376 321 420 273 C 464 225 518 188 581 162 C 643 136 713 123 791 123 C 832 123 873 126 913 132 C 953 138 991 146 1027 156 C 1063 166 1096 179 1126 193 C 1156 207 1183 222 1206 238 L 1223 86 C 1200 70 1173 56 1142 43 C 1111 30 1077 19 1040 10 C 1002 0 963 -6 921 -12 C 879 -17 835 -20 791 -20 L 774 -20 C 774 -28 775 -35 779 -39 C 782 -43 786 -47 791 -53 L 852 -117 C 858 -124 865 -132 873 -142 C 880 -152 887 -163 893 -175 C 899 -187 905 -201 909 -216 C 913 -230 915 -246 915 -264 C 915 -293 909 -319 898 -343 C 886 -366 870 -386 850 -402 C 830 -418 805 -431 777 -440 C 748 -448 716 -453 682 -453 C 648 -453 617 -449 589 -442 C 561 -434 537 -425 518 -414 L 532 -305 C 549 -316 570 -325 596 -332 C 622 -338 647 -342 672 -342 C 684 -342 696 -340 708 -338 C 720 -336 731 -332 741 -326 C 751 -320 759 -311 765 -301 C 771 -290 774 -276 774 -260 C 774 -240 769 -225 760 -213 C 751 -201 740 -189 727 -176 L 670 -121 C 662 -113 657 -107 654 -102 C 650 -96 649 -87 649 -74 L 649 -8 C 565 6 490 32 424 71 C 358 110 302 159 256 218 C 210 276 174 344 150 421 C 125 498 113 582 113 672 C 113 776 129 872 161 962 C 193 1052 240 1130 300 1196 C 360 1262 434 1314 520 1352 C 606 1390 703 1409 811 1409 C 845 1409 879 1407 915 1404 C 950 1400 985 1395 1019 1388 C 1053 1380 1085 1371 1116 1360 C 1147 1349 1176 1336 1202 1321 L 1186 1167 Z" unicode="Ç" />
<glyph horiz-adv-x="1128" d="M 350 784 L 909 784 L 909 649 L 350 649 L 350 133 L 1036 133 L 1036 0 L 190 0 L 190 1389 L 985 1389 L 985 1255 L 350 1255 L 350 784 Z M 510 1839 L 719 1540 L 574 1540 L 315 1839 L 510 1839 Z" unicode="È" />
<glyph horiz-adv-x="1128" d="M 350 784 L 909 784 L 909 649 L 350 649 L 350 133 L 1036 133 L 1036 0 L 190 0 L 190 1389 L 985 1389 L 985 1255 L 350 1255 L 350 784 Z M 862 1839 L 604 1540 L 459 1540 L 668 1839 L 862 1839 Z" unicode="É" />
<glyph horiz-adv-x="1128" d="M 350 784 L 909 784 L 909 649 L 350 649 L 350 133 L 1036 133 L 1036 0 L 190 0 L 190 1389 L 985 1389 L 985 1255 L 350 1255 L 350 784 Z M 680 1839 L 897 1540 L 770 1540 L 594 1737 L 582 1737 L 404 1540 L 279 1540 L 496 1839 L 680 1839 Z" unicode="Ê" />
<glyph horiz-adv-x="1128" d="M 350 784 L 909 784 L 909 649 L 350 649 L 350 133 L 1036 133 L 1036 0 L 190 0 L 190 1389 L 985 1389 L 985 1255 L 350 1255 L 350 784 Z M 475 1759 L 475 1569 L 311 1569 L 311 1759 L 475 1759 Z M 866 1759 L 866 1569 L 703 1569 L 703 1759 L 866 1759 Z" unicode="Ë" />
<glyph horiz-adv-x="541" d="M 350 1389 L 350 0 L 190 0 L 190 1389 L 350 1389 Z M 193 1839 L 401 1540 L 256 1540 L -2 1839 L 193 1839 Z" unicode="Ì" />
<glyph horiz-adv-x="541" d="M 350 1389 L 350 0 L 190 0 L 190 1389 L 350 1389 Z M 545 1839 L 287 1540 L 141 1540 L 350 1839 L 545 1839 Z" unicode="Í" />
<glyph horiz-adv-x="541" d="M 350 1389 L 350 0 L 190 0 L 190 1389 L 350 1389 Z M 362 1839 L 580 1540 L 453 1540 L 276 1737 L 264 1737 L 86 1540 L -39 1540 L 178 1839 L 362 1839 Z" unicode="Î" />
<glyph horiz-adv-x="541" d="M 350 1389 L 350 0 L 190 0 L 190 1389 L 350 1389 Z M 158 1759 L 158 1569 L -6 1569 L -6 1759 L 158 1759 Z M 549 1759 L 549 1569 L 385 1569 L 385 1759 L 549 1759 Z" unicode="Ï" />
<glyph horiz-adv-x="1438" d="M 31 784 L 213 784 L 213 1384 C 262 1387 312 1390 362 1392 C 412 1394 458 1395 498 1395 C 572 1395 643 1389 713 1379 C 783 1368 848 1351 910 1328 C 971 1304 1027 1274 1078 1238 C 1128 1202 1172 1158 1209 1108 C 1245 1057 1274 998 1294 932 C 1314 865 1325 790 1325 707 C 1325 595 1306 495 1270 407 C 1233 319 1179 244 1109 183 C 1038 121 951 74 849 42 C 746 10 628 -6 496 -6 C 452 -6 407 -5 359 -3 C 311 -1 262 0 213 4 L 213 649 L 31 649 L 31 784 Z M 373 784 L 696 784 L 696 649 L 373 649 L 373 129 C 409 125 441 123 469 123 C 497 123 526 123 555 123 C 637 123 715 135 788 159 C 861 183 925 220 980 268 C 1034 316 1077 377 1109 449 C 1141 521 1157 606 1157 702 C 1157 771 1148 833 1131 889 C 1114 944 1091 993 1061 1035 C 1031 1077 995 1112 955 1142 C 915 1172 871 1196 825 1215 C 778 1234 729 1248 678 1257 C 627 1265 576 1270 526 1270 C 502 1270 477 1269 450 1269 C 423 1269 397 1268 373 1266 L 373 784 Z" unicode="Ð" />
<glyph horiz-adv-x="1475" d="M 190 1389 L 338 1389 L 983 487 C 995 469 1007 450 1021 430 C 1035 409 1048 388 1061 368 C 1074 347 1086 327 1097 309 C 1107 291 1116 276 1124 264 L 1133 264 C 1131 289 1129 313 1128 335 C 1126 357 1125 379 1125 401 C 1124 423 1124 445 1124 467 C 1124 489 1124 513 1124 539 L 1124 1389 L 1284 1389 L 1284 0 L 1139 0 L 492 901 C 480 918 467 937 454 958 C 440 978 427 999 414 1019 C 401 1039 389 1059 378 1077 C 367 1095 358 1111 350 1124 L 342 1124 C 344 1098 345 1075 346 1053 C 347 1031 348 1009 349 987 C 349 965 350 942 350 920 C 350 898 350 874 350 850 L 350 0 L 190 0 L 190 1389 Z M 364 1540 C 364 1587 369 1630 380 1668 C 391 1706 406 1738 426 1764 C 446 1790 469 1811 496 1825 C 522 1839 551 1847 583 1847 C 609 1847 637 1840 666 1827 C 695 1814 726 1789 759 1753 L 802 1704 C 807 1698 813 1691 820 1685 C 826 1679 834 1673 842 1668 C 850 1662 858 1658 867 1654 C 875 1650 885 1649 895 1649 C 911 1649 926 1654 939 1665 C 951 1675 962 1689 971 1707 C 979 1725 986 1745 990 1768 C 994 1790 997 1814 997 1839 L 1110 1839 C 1110 1792 1104 1750 1093 1712 C 1082 1674 1067 1642 1047 1616 C 1027 1589 1003 1568 976 1554 C 948 1539 918 1532 886 1532 C 856 1532 827 1539 800 1553 C 773 1567 745 1591 716 1624 L 673 1673 C 659 1688 645 1701 629 1713 C 613 1725 595 1731 577 1731 C 559 1731 544 1725 531 1714 C 518 1703 507 1689 499 1671 C 491 1653 485 1633 481 1610 C 477 1587 475 1564 475 1540 L 364 1540 L 364 1540 Z" unicode="Ñ" />
<glyph horiz-adv-x="1524" d="M 1411 711 C 1411 610 1396 515 1366 427 C 1336 338 1293 260 1237 194 C 1180 128 1111 75 1030 37 C 948 0 856 -20 752 -20 C 655 -20 567 -2 489 31 C 410 65 343 113 287 175 C 231 237 188 310 158 396 C 128 481 113 575 113 678 C 113 744 119 809 133 871 C 146 933 165 992 191 1046 C 217 1100 248 1149 286 1194 C 324 1238 367 1276 416 1308 C 464 1340 518 1364 578 1382 C 638 1400 702 1409 772 1409 C 868 1409 956 1391 1035 1357 C 1113 1323 1180 1275 1236 1213 C 1292 1151 1335 1078 1365 992 C 1395 906 1411 813 1411 711 Z M 1243 711 C 1243 795 1232 871 1210 940 C 1188 1008 1156 1067 1116 1115 C 1075 1163 1025 1201 967 1228 C 909 1254 844 1268 772 1268 C 692 1268 622 1253 561 1223 C 500 1193 449 1151 407 1098 C 365 1045 334 983 313 911 C 291 839 281 761 281 678 C 281 594 291 517 313 449 C 335 380 366 321 407 273 C 447 225 497 187 555 161 C 613 134 679 121 752 121 C 830 121 900 136 961 166 C 1022 196 1073 237 1115 290 C 1157 343 1188 406 1210 478 C 1232 550 1243 627 1243 711 Z M 682 1839 L 891 1540 L 746 1540 L 487 1839 L 682 1839 Z" unicode="Ò" />
<glyph horiz-adv-x="1524" d="M 1411 711 C 1411 610 1396 515 1366 427 C 1336 338 1293 260 1237 194 C 1180 128 1111 75 1030 37 C 948 0 856 -20 752 -20 C 655 -20 567 -2 489 31 C 410 65 343 113 287 175 C 231 237 188 310 158 396 C 128 481 113 575 113 678 C 113 744 119 809 133 871 C 146 933 165 992 191 1046 C 217 1100 248 1149 286 1194 C 324 1238 367 1276 416 1308 C 464 1340 518 1364 578 1382 C 638 1400 702 1409 772 1409 C 868 1409 956 1391 1035 1357 C 1113 1323 1180 1275 1236 1213 C 1292 1151 1335 1078 1365 992 C 1395 906 1411 813 1411 711 Z M 1243 711 C 1243 795 1232 871 1210 940 C 1188 1008 1156 1067 1116 1115 C 1075 1163 1025 1201 967 1228 C 909 1254 844 1268 772 1268 C 692 1268 622 1253 561 1223 C 500 1193 449 1151 407 1098 C 365 1045 334 983 313 911 C 291 839 281 761 281 678 C 281 594 291 517 313 449 C 335 380 366 321 407 273 C 447 225 497 187 555 161 C 613 134 679 121 752 121 C 830 121 900 136 961 166 C 1022 196 1073 237 1115 290 C 1157 343 1188 406 1210 478 C 1232 550 1243 627 1243 711 Z M 1034 1839 L 776 1540 L 631 1540 L 840 1839 L 1034 1839 Z" unicode="Ó" />
<glyph horiz-adv-x="1524" d="M 1411 711 C 1411 610 1396 515 1366 427 C 1336 338 1293 260 1237 194 C 1180 128 1111 75 1030 37 C 948 0 856 -20 752 -20 C 655 -20 567 -2 489 31 C 410 65 343 113 287 175 C 231 237 188 310 158 396 C 128 481 113 575 113 678 C 113 744 119 809 133 871 C 146 933 165 992 191 1046 C 217 1100 248 1149 286 1194 C 324 1238 367 1276 416 1308 C 464 1340 518 1364 578 1382 C 638 1400 702 1409 772 1409 C 868 1409 956 1391 1035 1357 C 1113 1323 1180 1275 1236 1213 C 1292 1151 1335 1078 1365 992 C 1395 906 1411 813 1411 711 Z M 1243 711 C 1243 795 1232 871 1210 940 C 1188 1008 1156 1067 1116 1115 C 1075 1163 1025 1201 967 1228 C 909 1254 844 1268 772 1268 C 692 1268 622 1253 561 1223 C 500 1193 449 1151 407 1098 C 365 1045 334 983 313 911 C 291 839 281 761 281 678 C 281 594 291 517 313 449 C 335 380 366 321 407 273 C 447 225 497 187 555 161 C 613 134 679 121 752 121 C 830 121 900 136 961 166 C 1022 196 1073 237 1115 290 C 1157 343 1188 406 1210 478 C 1232 550 1243 627 1243 711 Z M 852 1839 L 1069 1540 L 942 1540 L 766 1737 L 754 1737 L 576 1540 L 451 1540 L 668 1839 L 852 1839 Z" unicode="Ô" />
<glyph horiz-adv-x="1524" d="M 1411 711 C 1411 610 1396 515 1366 427 C 1336 338 1293 260 1237 194 C 1180 128 1111 75 1030 37 C 948 0 856 -20 752 -20 C 655 -20 567 -2 489 31 C 410 65 343 113 287 175 C 231 237 188 310 158 396 C 128 481 113 575 113 678 C 113 744 119 809 133 871 C 146 933 165 992 191 1046 C 217 1100 248 1149 286 1194 C 324 1238 367 1276 416 1308 C 464 1340 518 1364 578 1382 C 638 1400 702 1409 772 1409 C 868 1409 956 1391 1035 1357 C 1113 1323 1180 1275 1236 1213 C 1292 1151 1335 1078 1365 992 C 1395 906 1411 813 1411 711 Z M 1243 711 C 1243 795 1232 871 1210 940 C 1188 1008 1156 1067 1116 1115 C 1075 1163 1025 1201 967 1228 C 909 1254 844 1268 772 1268 C 692 1268 622 1253 561 1223 C 500 1193 449 1151 407 1098 C 365 1045 334 983 313 911 C 291 839 281 761 281 678 C 281 594 291 517 313 449 C 335 380 366 321 407 273 C 447 225 497 187 555 161 C 613 134 679 121 752 121 C 830 121 900 136 961 166 C 1022 196 1073 237 1115 290 C 1157 343 1188 406 1210 478 C 1232 550 1243 627 1243 711 Z M 387 1540 C 387 1587 392 1630 403 1668 C 414 1706 429 1738 449 1764 C 469 1790 492 1811 519 1825 C 545 1839 574 1847 606 1847 C 632 1847 660 1840 689 1827 C 718 1814 749 1789 782 1753 L 825 1704 C 830 1698 836 1691 843 1685 C 849 1679 857 1673 865 1668 C 873 1662 881 1658 890 1654 C 898 1650 908 1649 918 1649 C 934 1649 949 1654 962 1665 C 974 1675 985 1689 994 1707 C 1002 1725 1009 1745 1013 1768 C 1017 1790 1020 1814 1020 1839 L 1133 1839 C 1133 1792 1127 1750 1116 1712 C 1105 1674 1090 1642 1070 1616 C 1050 1589 1026 1568 999 1554 C 971 1539 941 1532 909 1532 C 879 1532 850 1539 823 1553 C 796 1567 768 1591 739 1624 L 696 1673 C 682 1688 668 1701 652 1713 C 636 1725 618 1731 600 1731 C 582 1731 567 1725 554 1714 C 541 1703 530 1689 522 1671 C 514 1653 508 1633 504 1610 C 500 1587 498 1564 498 1540 L 387 1540 L 387 1540 Z" unicode="Õ" />
<glyph horiz-adv-x="1524" d="M 1411 711 C 1411 610 1396 515 1366 427 C 1336 338 1293 260 1237 194 C 1180 128 1111 75 1030 37 C 948 0 856 -20 752 -20 C 655 -20 567 -2 489 31 C 410 65 343 113 287 175 C 231 237 188 310 158 396 C 128 481 113 575 113 678 C 113 744 119 809 133 871 C 146 933 165 992 191 1046 C 217 1100 248 1149 286 1194 C 324 1238 367 1276 416 1308 C 464 1340 518 1364 578 1382 C 638 1400 702 1409 772 1409 C 868 1409 956 1391 1035 1357 C 1113 1323 1180 1275 1236 1213 C 1292 1151 1335 1078 1365 992 C 1395 906 1411 813 1411 711 Z M 1243 711 C 1243 795 1232 871 1210 940 C 1188 1008 1156 1067 1116 1115 C 1075 1163 1025 1201 967 1228 C 909 1254 844 1268 772 1268 C 692 1268 622 1253 561 1223 C 500 1193 449 1151 407 1098 C 365 1045 334 983 313 911 C 291 839 281 761 281 678 C 281 594 291 517 313 449 C 335 380 366 321 407 273 C 447 225 497 187 555 161 C 613 134 679 121 752 121 C 830 121 900 136 961 166 C 1022 196 1073 237 1115 290 C 1157 343 1188 406 1210 478 C 1232 550 1243 627 1243 711 Z M 647 1759 L 647 1569 L 483 1569 L 483 1759 L 647 1759 Z M 1038 1759 L 1038 1569 L 875 1569 L 875 1759 L 1038 1759 Z" unicode="Ö" />
<glyph horiz-adv-x="1106" d="M 49 174 L 455 580 L 47 989 L 147 1090 L 557 680 L 958 1085 L 1055 991 L 651 586 L 1059 178 L 958 76 L 549 485 L 143 80 L 49 174 Z" unicode="×" />
<glyph horiz-adv-x="1524" d="M 434 57 C 383 85 338 119 298 161 C 258 203 225 250 197 303 C 169 356 148 414 134 477 C 120 540 113 607 113 678 C 113 744 119 809 133 871 C 146 933 165 992 191 1046 C 217 1100 248 1149 286 1194 C 324 1238 367 1276 416 1308 C 464 1340 518 1364 578 1382 C 638 1400 702 1409 772 1409 C 806 1409 839 1406 871 1402 C 903 1397 935 1390 965 1382 L 1026 1534 L 1169 1534 L 1090 1329 C 1140 1301 1184 1266 1224 1225 C 1264 1183 1297 1136 1325 1084 C 1353 1031 1374 973 1389 911 C 1403 848 1411 781 1411 711 C 1411 610 1396 515 1366 427 C 1336 338 1293 260 1237 194 C 1180 128 1111 75 1030 37 C 948 0 856 -20 752 -20 C 716 -20 683 -17 651 -13 C 619 -8 589 -2 559 6 L 500 -145 L 354 -145 L 434 57 Z M 272 678 C 272 564 291 464 330 379 C 369 293 424 228 496 182 L 909 1257 C 867 1269 821 1276 772 1276 C 692 1276 620 1260 558 1230 C 496 1200 443 1158 401 1104 C 359 1050 327 987 305 914 C 283 841 272 762 272 678 Z M 1249 711 C 1249 824 1230 923 1192 1007 C 1154 1091 1100 1156 1030 1202 L 618 129 C 638 123 660 118 683 116 C 705 114 728 113 752 113 C 832 113 903 128 965 158 C 1027 188 1079 230 1121 284 C 1163 338 1194 401 1216 474 C 1238 546 1249 625 1249 711 Z" unicode="Ø" />
<glyph horiz-adv-x="1419" d="M 717 119 C 787 119 843 127 887 145 C 931 162 967 186 995 217 C 1015 239 1032 265 1045 295 C 1058 325 1068 358 1076 395 C 1083 431 1088 471 1091 514 C 1094 557 1096 603 1096 653 L 1096 1389 L 1251 1389 L 1251 610 C 1251 557 1249 510 1246 468 C 1242 426 1237 388 1231 355 C 1225 321 1217 291 1207 264 C 1197 237 1186 212 1174 190 C 1150 150 1122 116 1090 89 C 1057 62 1021 40 981 24 C 941 7 898 -4 852 -12 C 806 -19 759 -23 711 -23 C 665 -23 620 -19 576 -13 C 531 -6 488 5 448 21 C 408 37 370 58 336 86 C 302 113 272 148 248 190 C 234 213 222 238 212 266 C 202 293 194 324 188 358 C 182 392 177 429 174 471 C 171 512 170 558 170 610 L 170 1389 L 328 1389 L 328 653 C 328 601 329 553 332 509 C 335 465 341 425 349 389 C 357 353 367 320 381 292 C 394 263 411 238 432 217 C 462 185 499 160 545 144 C 591 127 648 119 717 119 Z M 631 1839 L 840 1540 L 695 1540 L 436 1839 L 631 1839 Z" unicode="Ù" />
<glyph horiz-adv-x="1419" d="M 717 119 C 787 119 843 127 887 145 C 931 162 967 186 995 217 C 1015 239 1032 265 1045 295 C 1058 325 1068 358 1076 395 C 1083 431 1088 471 1091 514 C 1094 557 1096 603 1096 653 L 1096 1389 L 1251 1389 L 1251 610 C 1251 557 1249 510 1246 468 C 1242 426 1237 388 1231 355 C 1225 321 1217 291 1207 264 C 1197 237 1186 212 1174 190 C 1150 150 1122 116 1090 89 C 1057 62 1021 40 981 24 C 941 7 898 -4 852 -12 C 806 -19 759 -23 711 -23 C 665 -23 620 -19 576 -13 C 531 -6 488 5 448 21 C 408 37 370 58 336 86 C 302 113 272 148 248 190 C 234 213 222 238 212 266 C 202 293 194 324 188 358 C 182 392 177 429 174 471 C 171 512 170 558 170 610 L 170 1389 L 328 1389 L 328 653 C 328 601 329 553 332 509 C 335 465 341 425 349 389 C 357 353 367 320 381 292 C 394 263 411 238 432 217 C 462 185 499 160 545 144 C 591 127 648 119 717 119 Z M 983 1839 L 725 1540 L 580 1540 L 789 1839 L 983 1839 Z" unicode="Ú" />
<glyph horiz-adv-x="1419" d="M 717 119 C 787 119 843 127 887 145 C 931 162 967 186 995 217 C 1015 239 1032 265 1045 295 C 1058 325 1068 358 1076 395 C 1083 431 1088 471 1091 514 C 1094 557 1096 603 1096 653 L 1096 1389 L 1251 1389 L 1251 610 C 1251 557 1249 510 1246 468 C 1242 426 1237 388 1231 355 C 1225 321 1217 291 1207 264 C 1197 237 1186 212 1174 190 C 1150 150 1122 116 1090 89 C 1057 62 1021 40 981 24 C 941 7 898 -4 852 -12 C 806 -19 759 -23 711 -23 C 665 -23 620 -19 576 -13 C 531 -6 488 5 448 21 C 408 37 370 58 336 86 C 302 113 272 148 248 190 C 234 213 222 238 212 266 C 202 293 194 324 188 358 C 182 392 177 429 174 471 C 171 512 170 558 170 610 L 170 1389 L 328 1389 L 328 653 C 328 601 329 553 332 509 C 335 465 341 425 349 389 C 357 353 367 320 381 292 C 394 263 411 238 432 217 C 462 185 499 160 545 144 C 591 127 648 119 717 119 Z M 801 1839 L 1018 1540 L 891 1540 L 715 1737 L 703 1737 L 525 1540 L 400 1540 L 617 1839 L 801 1839 Z" unicode="Û" />
<glyph horiz-adv-x="1419" d="M 717 119 C 787 119 843 127 887 145 C 931 162 967 186 995 217 C 1015 239 1032 265 1045 295 C 1058 325 1068 358 1076 395 C 1083 431 1088 471 1091 514 C 1094 557 1096 603 1096 653 L 1096 1389 L 1251 1389 L 1251 610 C 1251 557 1249 510 1246 468 C 1242 426 1237 388 1231 355 C 1225 321 1217 291 1207 264 C 1197 237 1186 212 1174 190 C 1150 150 1122 116 1090 89 C 1057 62 1021 40 981 24 C 941 7 898 -4 852 -12 C 806 -19 759 -23 711 -23 C 665 -23 620 -19 576 -13 C 531 -6 488 5 448 21 C 408 37 370 58 336 86 C 302 113 272 148 248 190 C 234 213 222 238 212 266 C 202 293 194 324 188 358 C 182 392 177 429 174 471 C 171 512 170 558 170 610 L 170 1389 L 328 1389 L 328 653 C 328 601 329 553 332 509 C 335 465 341 425 349 389 C 357 353 367 320 381 292 C 394 263 411 238 432 217 C 462 185 499 160 545 144 C 591 127 648 119 717 119 Z M 596 1759 L 596 1569 L 432 1569 L 432 1759 L 596 1759 Z M 987 1759 L 987 1569 L 824 1569 L 824 1759 L 987 1759 Z" unicode="Ü" />
<glyph horiz-adv-x="1106" d="M 6 1389 L 195 1389 L 557 743 L 922 1389 L 1100 1389 L 631 602 L 631 0 L 473 0 L 473 602 L 6 1389 Z M 825 1839 L 567 1540 L 422 1540 L 631 1839 L 825 1839 Z" unicode="Ý" />
<glyph horiz-adv-x="1214" d="M 350 1389 L 350 1122 C 396 1123 439 1124 479 1125 C 519 1125 556 1126 590 1126 C 672 1126 747 1117 813 1101 C 879 1084 935 1058 981 1024 C 1027 990 1063 946 1088 893 C 1113 839 1126 776 1126 702 C 1126 629 1114 566 1090 512 C 1066 458 1031 413 987 377 C 942 341 888 314 825 296 C 762 278 692 270 614 270 C 598 270 580 270 559 270 C 538 270 516 271 492 272 C 468 272 444 273 420 274 C 395 275 372 277 350 279 L 350 0 L 190 0 L 190 1389 L 350 1389 Z M 350 406 C 373 404 397 403 422 403 C 446 402 470 401 493 401 C 516 401 538 401 558 401 C 578 401 596 401 610 401 C 724 401 810 425 869 475 C 928 525 958 599 958 698 C 958 896 835 995 590 995 C 556 995 519 994 479 994 C 439 994 396 993 350 991 L 350 406 Z" unicode="Þ" />
<glyph horiz-adv-x="1120" d="M 539 139 C 551 133 564 128 579 124 C 594 120 610 116 626 113 C 642 109 659 107 676 105 C 693 103 709 102 725 102 C 753 102 778 105 802 111 C 826 117 846 127 863 141 C 880 155 893 172 903 193 C 913 213 918 238 918 268 C 918 296 913 321 905 345 C 897 368 886 390 872 412 C 858 433 843 454 826 474 C 809 494 792 514 776 535 L 733 588 C 707 619 685 647 667 672 C 649 696 634 719 622 740 C 610 760 602 779 596 797 C 590 814 588 831 588 848 C 588 869 592 888 600 905 C 608 921 618 937 630 952 C 642 967 656 982 670 998 C 684 1013 697 1029 709 1047 C 721 1065 732 1085 740 1107 C 748 1129 752 1156 752 1186 C 752 1214 748 1240 740 1265 C 732 1290 719 1312 702 1330 C 685 1348 664 1363 638 1374 C 612 1385 582 1391 547 1391 C 467 1391 409 1363 373 1308 C 337 1252 319 1170 319 1061 L 319 0 L 164 0 L 164 1061 C 164 1129 170 1190 184 1246 C 198 1302 220 1349 250 1389 C 280 1428 319 1458 367 1480 C 415 1502 475 1513 545 1513 C 603 1513 654 1505 699 1490 C 744 1474 782 1453 813 1425 C 843 1397 867 1365 883 1328 C 899 1290 907 1250 907 1206 C 907 1173 902 1144 894 1118 C 886 1092 875 1069 863 1049 C 850 1028 836 1009 822 993 C 807 977 793 961 781 947 C 768 932 757 918 749 904 C 741 890 737 876 737 862 C 737 840 746 816 766 789 C 786 761 812 728 844 688 L 885 637 C 915 599 941 566 964 536 C 986 506 1005 477 1020 450 C 1035 423 1046 396 1054 370 C 1061 343 1065 314 1065 283 C 1065 231 1055 186 1037 148 C 1018 110 993 78 961 54 C 929 29 892 11 850 0 C 808 -12 763 -18 717 -18 C 687 -18 655 -15 619 -11 C 583 -6 551 2 524 14 L 539 139 Z" unicode="ß" />
<glyph horiz-adv-x="1004" d="M 143 918 C 184 944 234 966 293 984 C 351 1001 419 1010 496 1010 C 564 1010 621 1002 667 987 C 713 972 749 950 777 922 C 804 893 823 857 835 815 C 846 773 852 724 852 670 L 852 268 C 852 212 854 163 859 121 C 864 79 871 38 881 0 L 737 0 C 729 26 724 53 720 81 C 716 109 713 140 711 174 L 707 174 C 687 142 665 115 640 91 C 614 67 586 48 556 32 C 526 16 494 4 460 -4 C 426 -12 392 -16 358 -16 C 316 -16 277 -10 242 1 C 206 13 176 30 150 52 C 124 74 103 101 89 134 C 75 166 68 204 68 246 C 68 296 79 342 103 384 C 127 425 164 461 215 492 C 266 522 331 548 411 568 C 491 588 586 602 698 610 L 698 657 C 698 692 694 724 688 752 C 682 780 670 803 654 823 C 638 842 616 857 588 867 C 560 877 525 883 483 883 C 423 883 367 874 313 857 C 259 840 213 819 176 795 L 143 918 Z M 399 96 C 433 96 468 102 504 116 C 539 130 571 149 600 174 C 628 199 652 229 670 264 C 688 299 698 338 698 381 L 698 512 C 610 501 537 488 477 474 C 417 459 369 442 333 422 C 296 402 269 378 253 352 C 237 325 229 294 229 260 C 229 234 233 210 242 190 C 250 170 262 153 277 139 C 292 125 310 114 331 107 C 351 99 374 96 399 96 Z M 404 1493 L 623 1174 L 478 1174 L 201 1493 L 404 1493 Z" unicode="à" />
<glyph horiz-adv-x="1004" d="M 143 918 C 184 944 234 966 293 984 C 351 1001 419 1010 496 1010 C 564 1010 621 1002 667 987 C 713 972 749 950 777 922 C 804 893 823 857 835 815 C 846 773 852 724 852 670 L 852 268 C 852 212 854 163 859 121 C 864 79 871 38 881 0 L 737 0 C 729 26 724 53 720 81 C 716 109 713 140 711 174 L 707 174 C 687 142 665 115 640 91 C 614 67 586 48 556 32 C 526 16 494 4 460 -4 C 426 -12 392 -16 358 -16 C 316 -16 277 -10 242 1 C 206 13 176 30 150 52 C 124 74 103 101 89 134 C 75 166 68 204 68 246 C 68 296 79 342 103 384 C 127 425 164 461 215 492 C 266 522 331 548 411 568 C 491 588 586 602 698 610 L 698 657 C 698 692 694 724 688 752 C 682 780 670 803 654 823 C 638 842 616 857 588 867 C 560 877 525 883 483 883 C 423 883 367 874 313 857 C 259 840 213 819 176 795 L 143 918 Z M 399 96 C 433 96 468 102 504 116 C 539 130 571 149 600 174 C 628 199 652 229 670 264 C 688 299 698 338 698 381 L 698 512 C 610 501 537 488 477 474 C 417 459 369 442 333 422 C 296 402 269 378 253 352 C 237 325 229 294 229 260 C 229 234 233 210 242 190 C 250 170 262 153 277 139 C 292 125 310 114 331 107 C 351 99 374 96 399 96 Z M 785 1493 L 508 1174 L 363 1174 L 582 1493 L 785 1493 Z" unicode="á" />
<glyph horiz-adv-x="1004" d="M 143 918 C 184 944 234 966 293 984 C 351 1001 419 1010 496 1010 C 564 1010 621 1002 667 987 C 713 972 749 950 777 922 C 804 893 823 857 835 815 C 846 773 852 724 852 670 L 852 268 C 852 212 854 163 859 121 C 864 79 871 38 881 0 L 737 0 C 729 26 724 53 720 81 C 716 109 713 140 711 174 L 707 174 C 687 142 665 115 640 91 C 614 67 586 48 556 32 C 526 16 494 4 460 -4 C 426 -12 392 -16 358 -16 C 316 -16 277 -10 242 1 C 206 13 176 30 150 52 C 124 74 103 101 89 134 C 75 166 68 204 68 246 C 68 296 79 342 103 384 C 127 425 164 461 215 492 C 266 522 331 548 411 568 C 491 588 586 602 698 610 L 698 657 C 698 692 694 724 688 752 C 682 780 670 803 654 823 C 638 842 616 857 588 867 C 560 877 525 883 483 883 C 423 883 367 874 313 857 C 259 840 213 819 176 795 L 143 918 Z M 399 96 C 433 96 468 102 504 116 C 539 130 571 149 600 174 C 628 199 652 229 670 264 C 688 299 698 338 698 381 L 698 512 C 610 501 537 488 477 474 C 417 459 369 442 333 422 C 296 402 269 378 253 352 C 237 325 229 294 229 260 C 229 234 233 210 242 190 C 250 170 262 153 277 139 C 292 125 310 114 331 107 C 351 99 374 96 399 96 Z M 584 1493 L 795 1174 L 668 1174 L 498 1391 L 486 1391 L 314 1174 L 189 1174 L 400 1493 L 584 1493 Z" unicode="â" />
<glyph horiz-adv-x="1004" d="M 143 918 C 184 944 234 966 293 984 C 351 1001 419 1010 496 1010 C 564 1010 621 1002 667 987 C 713 972 749 950 777 922 C 804 893 823 857 835 815 C 846 773 852 724 852 670 L 852 268 C 852 212 854 163 859 121 C 864 79 871 38 881 0 L 737 0 C 729 26 724 53 720 81 C 716 109 713 140 711 174 L 707 174 C 687 142 665 115 640 91 C 614 67 586 48 556 32 C 526 16 494 4 460 -4 C 426 -12 392 -16 358 -16 C 316 -16 277 -10 242 1 C 206 13 176 30 150 52 C 124 74 103 101 89 134 C 75 166 68 204 68 246 C 68 296 79 342 103 384 C 127 425 164 461 215 492 C 266 522 331 548 411 568 C 491 588 586 602 698 610 L 698 657 C 698 692 694 724 688 752 C 682 780 670 803 654 823 C 638 842 616 857 588 867 C 560 877 525 883 483 883 C 423 883 367 874 313 857 C 259 840 213 819 176 795 L 143 918 Z M 399 96 C 433 96 468 102 504 116 C 539 130 571 149 600 174 C 628 199 652 229 670 264 C 688 299 698 338 698 381 L 698 512 C 610 501 537 488 477 474 C 417 459 369 442 333 422 C 296 402 269 378 253 352 C 237 325 229 294 229 260 C 229 234 233 210 242 190 C 250 170 262 153 277 139 C 292 125 310 114 331 107 C 351 99 374 96 399 96 Z M 119 1174 C 119 1224 124 1270 135 1311 C 145 1352 160 1387 179 1416 C 198 1445 221 1467 247 1483 C 273 1499 301 1507 332 1507 C 366 1507 396 1497 422 1479 C 448 1461 477 1435 508 1403 L 559 1348 C 573 1332 589 1318 605 1305 C 621 1292 638 1286 656 1286 C 672 1286 686 1292 698 1304 C 710 1316 721 1332 729 1352 C 737 1371 744 1393 749 1418 C 753 1442 756 1467 756 1493 L 865 1493 C 865 1443 859 1397 849 1356 C 838 1315 823 1280 804 1251 C 784 1222 761 1200 735 1184 C 708 1168 679 1161 647 1161 C 614 1161 585 1169 559 1187 C 533 1205 504 1230 473 1264 L 422 1319 C 408 1333 395 1346 381 1357 C 367 1368 350 1374 332 1374 C 314 1374 298 1368 285 1357 C 272 1346 261 1331 253 1313 C 244 1295 238 1274 234 1250 C 230 1226 228 1200 228 1174 L 119 1174 L 119 1174 Z" unicode="ã" />
<glyph horiz-adv-x="1004" d="M 143 918 C 184 944 234 966 293 984 C 351 1001 419 1010 496 1010 C 564 1010 621 1002 667 987 C 713 972 749 950 777 922 C 804 893 823 857 835 815 C 846 773 852 724 852 670 L 852 268 C 852 212 854 163 859 121 C 864 79 871 38 881 0 L 737 0 C 729 26 724 53 720 81 C 716 109 713 140 711 174 L 707 174 C 687 142 665 115 640 91 C 614 67 586 48 556 32 C 526 16 494 4 460 -4 C 426 -12 392 -16 358 -16 C 316 -16 277 -10 242 1 C 206 13 176 30 150 52 C 124 74 103 101 89 134 C 75 166 68 204 68 246 C 68 296 79 342 103 384 C 127 425 164 461 215 492 C 266 522 331 548 411 568 C 491 588 586 602 698 610 L 698 657 C 698 692 694 724 688 752 C 682 780 670 803 654 823 C 638 842 616 857 588 867 C 560 877 525 883 483 883 C 423 883 367 874 313 857 C 259 840 213 819 176 795 L 143 918 Z M 399 96 C 433 96 468 102 504 116 C 539 130 571 149 600 174 C 628 199 652 229 670 264 C 688 299 698 338 698 381 L 698 512 C 610 501 537 488 477 474 C 417 459 369 442 333 422 C 296 402 269 378 253 352 C 237 325 229 294 229 260 C 229 234 233 210 242 190 C 250 170 262 153 277 139 C 292 125 310 114 331 107 C 351 99 374 96 399 96 Z M 379 1427 L 379 1237 L 215 1237 L 215 1427 L 379 1427 Z M 770 1427 L 770 1237 L 607 1237 L 607 1427 L 770 1427 Z" unicode="ä" />
<glyph horiz-adv-x="1004" d="M 143 918 C 184 944 234 966 293 984 C 351 1001 419 1010 496 1010 C 564 1010 621 1002 667 987 C 713 972 749 950 777 922 C 804 893 823 857 835 815 C 846 773 852 724 852 670 L 852 268 C 852 212 854 163 859 121 C 864 79 871 38 881 0 L 737 0 C 729 26 724 53 720 81 C 716 109 713 140 711 174 L 707 174 C 687 142 665 115 640 91 C 614 67 586 48 556 32 C 526 16 494 4 460 -4 C 426 -12 392 -16 358 -16 C 316 -16 277 -10 242 1 C 206 13 176 30 150 52 C 124 74 103 101 89 134 C 75 166 68 204 68 246 C 68 296 79 342 103 384 C 127 425 164 461 215 492 C 266 522 331 548 411 568 C 491 588 586 602 698 610 L 698 657 C 698 692 694 724 688 752 C 682 780 670 803 654 823 C 638 842 616 857 588 867 C 560 877 525 883 483 883 C 423 883 367 874 313 857 C 259 840 213 819 176 795 L 143 918 Z M 399 96 C 433 96 468 102 504 116 C 539 130 571 149 600 174 C 628 199 652 229 670 264 C 688 299 698 338 698 381 L 698 512 C 610 501 537 488 477 474 C 417 459 369 442 333 422 C 296 402 269 378 253 352 C 237 325 229 294 229 260 C 229 234 233 210 242 190 C 250 170 262 153 277 139 C 292 125 310 114 331 107 C 351 99 374 96 399 96 Z M 244 1372 C 244 1405 250 1436 263 1465 C 276 1494 294 1519 316 1541 C 338 1563 365 1580 395 1593 C 425 1605 458 1612 492 1612 C 526 1612 558 1605 588 1593 C 618 1580 645 1563 667 1541 C 689 1519 707 1494 720 1465 C 733 1436 740 1405 740 1372 C 740 1339 733 1308 720 1280 C 707 1251 689 1226 667 1205 C 645 1184 618 1167 588 1155 C 558 1143 526 1137 492 1137 C 458 1137 425 1143 395 1155 C 365 1167 338 1184 316 1205 C 294 1226 276 1251 263 1280 C 250 1308 244 1339 244 1372 Z M 492 1520 C 472 1520 453 1516 435 1508 C 417 1500 402 1489 389 1476 C 375 1462 365 1447 357 1429 C 349 1411 346 1392 346 1372 C 346 1352 349 1334 357 1317 C 365 1299 375 1284 389 1271 C 402 1258 417 1248 435 1240 C 453 1232 472 1229 492 1229 C 512 1229 530 1232 548 1240 C 565 1248 580 1258 593 1271 C 606 1284 616 1299 624 1317 C 631 1334 635 1352 635 1372 C 635 1392 631 1411 624 1429 C 616 1447 606 1462 593 1476 C 580 1489 565 1500 548 1508 C 530 1516 512 1520 492 1520 Z" unicode="å" />
<glyph horiz-adv-x="1661" d="M 1526 57 C 1480 33 1430 15 1375 1 C 1319 -13 1262 -20 1204 -20 C 1170 -20 1133 -17 1093 -11 C 1052 -5 1012 5 972 22 C 932 38 895 62 861 92 C 827 122 800 161 780 209 L 776 209 C 734 132 682 75 618 39 C 554 2 481 -16 399 -16 C 351 -16 307 -10 269 1 C 230 13 197 30 169 52 C 141 74 120 101 106 133 C 91 165 84 201 84 242 C 84 296 95 344 119 388 C 143 431 180 468 231 498 C 282 528 348 552 428 568 C 508 584 604 592 717 592 L 717 657 C 717 691 713 723 707 751 C 701 779 689 802 673 822 C 657 842 634 857 606 867 C 578 877 542 883 498 883 C 438 883 381 874 328 857 C 274 840 229 819 193 795 L 160 918 C 201 944 250 966 308 984 C 366 1001 434 1010 514 1010 C 556 1010 595 1007 629 1001 C 663 995 694 985 720 971 C 746 957 768 940 787 919 C 805 897 821 872 834 842 L 838 842 C 857 872 879 898 903 920 C 927 941 954 958 982 972 C 1010 985 1039 995 1070 1001 C 1100 1007 1131 1010 1163 1010 C 1207 1010 1252 1003 1300 990 C 1347 976 1390 953 1430 920 C 1469 886 1501 841 1527 783 C 1552 725 1565 653 1565 565 C 1565 551 1564 538 1564 525 C 1563 511 1562 497 1561 483 L 868 483 L 868 455 C 871 384 884 326 906 280 C 928 234 955 198 987 172 C 1019 146 1055 127 1093 117 C 1131 107 1168 102 1204 102 C 1229 102 1255 104 1282 108 C 1308 112 1335 117 1362 125 C 1388 133 1414 142 1439 152 C 1464 162 1487 174 1509 186 L 1526 57 Z M 1151 887 C 1116 887 1082 881 1049 870 C 1016 859 987 842 961 818 C 935 794 913 763 897 726 C 880 688 870 644 868 592 L 1407 592 C 1408 644 1402 688 1389 726 C 1375 763 1357 794 1333 818 C 1309 842 1282 859 1250 870 C 1218 881 1185 887 1151 887 Z M 420 96 C 454 96 488 103 524 117 C 559 131 591 150 620 174 C 648 198 672 227 690 260 C 708 292 717 327 717 365 L 717 483 C 627 483 551 477 491 467 C 431 456 382 441 346 421 C 310 401 284 377 269 349 C 253 321 246 290 246 256 C 246 232 250 210 258 190 C 266 170 278 154 293 140 C 308 126 326 115 348 107 C 370 99 394 96 420 96 Z" unicode="æ" />
<glyph horiz-adv-x="952" d="M 864 66 C 848 55 830 45 811 35 C 792 25 771 16 749 8 C 726 0 701 -5 674 -11 C 646 -16 616 -19 584 -20 C 584 -28 585 -35 589 -39 C 592 -43 596 -47 600 -53 L 662 -117 C 668 -124 675 -132 683 -142 C 690 -152 697 -163 703 -175 C 709 -187 715 -201 719 -216 C 723 -230 725 -246 725 -264 C 725 -293 719 -319 708 -343 C 696 -366 680 -386 660 -402 C 640 -418 615 -431 587 -440 C 558 -448 526 -453 492 -453 C 458 -453 427 -449 399 -442 C 371 -434 347 -425 328 -414 L 342 -305 C 359 -316 380 -325 406 -332 C 431 -338 456 -342 481 -342 C 493 -342 505 -340 517 -338 C 529 -336 541 -332 551 -326 C 561 -320 569 -311 575 -301 C 581 -290 584 -276 584 -260 C 584 -240 579 -225 570 -213 C 561 -201 550 -189 537 -176 L 479 -121 C 471 -113 466 -107 463 -102 C 460 -96 459 -87 459 -74 L 459 -12 C 407 -4 359 11 315 33 C 270 55 231 85 198 124 C 164 163 138 212 119 270 C 99 328 90 398 90 479 C 90 579 104 662 133 730 C 161 798 199 852 245 894 C 291 936 342 965 400 983 C 457 1001 515 1010 573 1010 C 627 1010 677 1004 723 992 C 769 980 812 965 850 948 L 838 815 C 824 824 807 833 787 841 C 767 849 746 857 724 863 C 701 869 677 873 653 877 C 629 881 605 883 582 883 C 540 883 500 876 461 863 C 421 850 386 828 356 798 C 325 767 300 726 282 676 C 263 625 254 562 254 487 C 254 411 263 349 282 300 C 300 251 325 212 355 183 C 385 154 419 134 457 123 C 495 111 533 106 571 106 C 600 106 628 108 655 114 C 682 119 707 126 731 135 C 755 143 777 153 797 164 C 817 175 834 187 850 199 L 864 66 Z" unicode="ç" />
<glyph horiz-adv-x="1040" d="M 905 57 C 859 33 809 15 754 1 C 699 -13 641 -20 580 -20 C 548 -20 514 -17 478 -13 C 442 -9 405 0 369 12 C 333 24 298 42 264 65 C 230 87 201 117 175 154 C 149 190 129 235 113 287 C 97 339 90 401 90 473 C 90 563 102 641 127 709 C 151 776 185 832 227 877 C 269 921 317 955 372 977 C 427 999 485 1010 547 1010 C 575 1010 605 1007 636 1001 C 666 995 696 986 726 973 C 755 960 783 943 810 921 C 836 899 859 871 879 839 C 899 806 914 767 926 722 C 938 677 944 625 944 567 C 944 553 943 540 943 527 C 942 513 941 499 940 485 L 242 485 C 242 431 247 385 258 345 C 268 305 282 271 300 243 C 318 214 338 191 361 173 C 384 155 408 140 433 130 C 458 119 483 112 508 108 C 533 104 557 102 580 102 C 606 102 632 104 660 108 C 687 112 714 117 741 125 C 767 133 793 142 819 152 C 844 162 867 174 889 186 L 905 57 Z M 539 887 C 503 887 469 880 437 868 C 405 856 376 837 351 813 C 325 789 304 758 286 722 C 268 686 256 644 248 596 L 786 596 C 787 648 781 692 768 729 C 754 765 736 795 713 819 C 690 842 663 859 633 870 C 603 881 571 887 539 887 Z M 465 1493 L 684 1174 L 539 1174 L 262 1493 L 465 1493 Z" unicode="è" />
<glyph horiz-adv-x="1040" d="M 905 57 C 859 33 809 15 754 1 C 699 -13 641 -20 580 -20 C 548 -20 514 -17 478 -13 C 442 -9 405 0 369 12 C 333 24 298 42 264 65 C 230 87 201 117 175 154 C 149 190 129 235 113 287 C 97 339 90 401 90 473 C 90 563 102 641 127 709 C 151 776 185 832 227 877 C 269 921 317 955 372 977 C 427 999 485 1010 547 1010 C 575 1010 605 1007 636 1001 C 666 995 696 986 726 973 C 755 960 783 943 810 921 C 836 899 859 871 879 839 C 899 806 914 767 926 722 C 938 677 944 625 944 567 C 944 553 943 540 943 527 C 942 513 941 499 940 485 L 242 485 C 242 431 247 385 258 345 C 268 305 282 271 300 243 C 318 214 338 191 361 173 C 384 155 408 140 433 130 C 458 119 483 112 508 108 C 533 104 557 102 580 102 C 606 102 632 104 660 108 C 687 112 714 117 741 125 C 767 133 793 142 819 152 C 844 162 867 174 889 186 L 905 57 Z M 539 887 C 503 887 469 880 437 868 C 405 856 376 837 351 813 C 325 789 304 758 286 722 C 268 686 256 644 248 596 L 786 596 C 787 648 781 692 768 729 C 754 765 736 795 713 819 C 690 842 663 859 633 870 C 603 881 571 887 539 887 Z M 846 1493 L 569 1174 L 424 1174 L 643 1493 L 846 1493 Z" unicode="é" />
<glyph horiz-adv-x="1040" d="M 905 57 C 859 33 809 15 754 1 C 699 -13 641 -20 580 -20 C 548 -20 514 -17 478 -13 C 442 -9 405 0 369 12 C 333 24 298 42 264 65 C 230 87 201 117 175 154 C 149 190 129 235 113 287 C 97 339 90 401 90 473 C 90 563 102 641 127 709 C 151 776 185 832 227 877 C 269 921 317 955 372 977 C 427 999 485 1010 547 1010 C 575 1010 605 1007 636 1001 C 666 995 696 986 726 973 C 755 960 783 943 810 921 C 836 899 859 871 879 839 C 899 806 914 767 926 722 C 938 677 944 625 944 567 C 944 553 943 540 943 527 C 942 513 941 499 940 485 L 242 485 C 242 431 247 385 258 345 C 268 305 282 271 300 243 C 318 214 338 191 361 173 C 384 155 408 140 433 130 C 458 119 483 112 508 108 C 533 104 557 102 580 102 C 606 102 632 104 660 108 C 687 112 714 117 741 125 C 767 133 793 142 819 152 C 844 162 867 174 889 186 L 905 57 Z M 539 887 C 503 887 469 880 437 868 C 405 856 376 837 351 813 C 325 789 304 758 286 722 C 268 686 256 644 248 596 L 786 596 C 787 648 781 692 768 729 C 754 765 736 795 713 819 C 690 842 663 859 633 870 C 603 881 571 887 539 887 Z M 645 1493 L 856 1174 L 729 1174 L 559 1391 L 547 1391 L 375 1174 L 250 1174 L 461 1493 L 645 1493 Z" unicode="ê" />
<glyph horiz-adv-x="1040" d="M 905 57 C 859 33 809 15 754 1 C 699 -13 641 -20 580 -20 C 548 -20 514 -17 478 -13 C 442 -9 405 0 369 12 C 333 24 298 42 264 65 C 230 87 201 117 175 154 C 149 190 129 235 113 287 C 97 339 90 401 90 473 C 90 563 102 641 127 709 C 151 776 185 832 227 877 C 269 921 317 955 372 977 C 427 999 485 1010 547 1010 C 575 1010 605 1007 636 1001 C 666 995 696 986 726 973 C 755 960 783 943 810 921 C 836 899 859 871 879 839 C 899 806 914 767 926 722 C 938 677 944 625 944 567 C 944 553 943 540 943 527 C 942 513 941 499 940 485 L 242 485 C 242 431 247 385 258 345 C 268 305 282 271 300 243 C 318 214 338 191 361 173 C 384 155 408 140 433 130 C 458 119 483 112 508 108 C 533 104 557 102 580 102 C 606 102 632 104 660 108 C 687 112 714 117 741 125 C 767 133 793 142 819 152 C 844 162 867 174 889 186 L 905 57 Z M 539 887 C 503 887 469 880 437 868 C 405 856 376 837 351 813 C 325 789 304 758 286 722 C 268 686 256 644 248 596 L 786 596 C 787 648 781 692 768 729 C 754 765 736 795 713 819 C 690 842 663 859 633 870 C 603 881 571 887 539 887 Z M 440 1427 L 440 1237 L 276 1237 L 276 1427 L 440 1427 Z M 831 1427 L 831 1237 L 668 1237 L 668 1427 L 831 1427 Z" unicode="ë" />
<glyph horiz-adv-x="487" d="M 322 989 L 322 0 L 166 0 L 166 989 L 322 989 Z M 156 1493 L 373 1174 L 229 1174 L -47 1493 L 156 1493 Z" unicode="ì" />
<glyph horiz-adv-x="487" d="M 322 989 L 322 0 L 166 0 L 166 989 L 322 989 Z M 535 1493 L 260 1174 L 115 1174 L 334 1493 L 535 1493 Z" unicode="í" />
<glyph horiz-adv-x="487" d="M 322 989 L 322 0 L 166 0 L 166 989 L 322 989 Z M 336 1493 L 545 1174 L 420 1174 L 248 1391 L 238 1391 L 66 1174 L -59 1174 L 150 1493 L 336 1493 Z" unicode="î" />
<glyph horiz-adv-x="487" d="M 322 989 L 322 0 L 166 0 L 166 989 L 322 989 Z M 131 1427 L 131 1237 L -33 1237 L -33 1427 L 131 1427 Z M 522 1427 L 522 1237 L 358 1237 L 358 1427 L 522 1427 Z" unicode="ï" />
<glyph horiz-adv-x="1114" d="M 268 1223 L 565 1294 C 486 1356 402 1403 313 1434 L 406 1518 C 462 1495 517 1468 569 1437 C 621 1406 671 1371 717 1331 L 969 1393 L 989 1303 L 791 1253 C 826 1213 858 1168 886 1120 C 914 1072 939 1019 959 962 C 979 904 994 842 1005 775 C 1016 708 1022 636 1022 559 C 1022 472 1012 393 992 322 C 972 251 942 190 902 140 C 862 89 813 50 754 22 C 695 -6 627 -20 549 -20 C 476 -20 411 -7 354 17 C 297 41 249 76 210 121 C 171 165 141 219 121 281 C 100 343 90 411 90 485 C 90 560 100 630 121 694 C 142 758 172 813 211 859 C 250 905 298 942 354 968 C 410 994 474 1008 545 1008 C 619 1008 682 993 732 964 C 782 934 821 895 848 846 L 852 846 C 833 920 806 988 770 1050 C 734 1112 693 1169 647 1219 L 291 1133 L 268 1223 Z M 553 102 C 604 102 649 113 687 135 C 725 157 757 186 783 224 C 809 261 828 304 841 354 C 853 404 860 456 860 512 C 860 569 853 621 840 667 C 826 713 807 753 781 785 C 755 817 724 842 688 860 C 651 878 609 887 563 887 C 512 887 467 876 429 856 C 390 836 357 808 331 772 C 305 736 285 693 272 645 C 258 597 252 545 252 489 C 252 432 258 380 272 333 C 286 285 306 244 332 210 C 358 176 389 149 426 130 C 463 111 505 102 553 102 Z" unicode="ð" />
<glyph horiz-adv-x="1118" d="M 815 662 C 815 692 811 721 805 748 C 799 775 788 799 772 819 C 756 839 736 855 711 867 C 685 879 654 885 616 885 C 582 885 547 878 513 864 C 478 850 446 831 418 807 C 390 783 367 756 349 724 C 331 692 322 659 322 623 L 322 0 L 166 0 L 166 780 L 158 989 L 307 989 L 313 819 L 317 819 C 359 885 407 933 463 964 C 518 994 580 1010 649 1010 C 705 1010 754 1001 795 984 C 835 966 869 942 895 912 C 921 881 940 845 952 803 C 964 761 971 716 971 668 L 971 0 L 815 0 L 815 662 Z M 184 1174 C 184 1224 189 1270 200 1311 C 210 1352 225 1387 244 1416 C 263 1445 286 1467 312 1483 C 338 1499 366 1507 397 1507 C 431 1507 461 1497 487 1479 C 513 1461 542 1435 573 1403 L 624 1348 C 638 1332 654 1318 670 1305 C 686 1292 703 1286 721 1286 C 737 1286 751 1292 763 1304 C 775 1316 786 1332 794 1352 C 802 1371 809 1393 814 1418 C 818 1442 821 1467 821 1493 L 930 1493 C 930 1443 924 1397 914 1356 C 903 1315 888 1280 869 1251 C 849 1222 826 1200 800 1184 C 773 1168 744 1161 712 1161 C 679 1161 650 1169 624 1187 C 598 1205 569 1230 538 1264 L 487 1319 C 473 1333 460 1346 446 1357 C 432 1368 415 1374 397 1374 C 379 1374 363 1368 350 1357 C 337 1346 326 1331 318 1313 C 309 1295 303 1274 299 1250 C 295 1226 293 1200 293 1174 L 184 1174 L 184 1174 Z" unicode="ñ" />
<glyph horiz-adv-x="1110" d="M 1020 508 C 1020 438 1010 371 991 307 C 971 243 942 187 903 139 C 864 91 815 52 757 23 C 699 -5 631 -20 553 -20 C 478 -20 412 -7 354 18 C 296 44 248 79 208 125 C 168 171 138 225 118 287 C 98 349 88 416 88 489 C 88 561 98 628 119 691 C 139 754 170 809 210 856 C 250 903 299 940 358 967 C 417 994 485 1008 561 1008 C 633 1008 697 995 754 971 C 811 947 859 913 899 869 C 938 825 968 772 989 711 C 1009 649 1020 582 1020 508 Z M 858 508 C 858 564 851 615 838 661 C 824 707 805 747 780 781 C 755 814 724 840 688 859 C 652 877 611 887 565 887 C 514 887 469 876 430 855 C 391 833 358 804 332 768 C 306 732 286 689 272 641 C 258 593 252 541 252 487 C 252 433 258 382 272 335 C 285 288 304 247 330 213 C 356 178 387 151 424 131 C 461 111 503 102 551 102 C 603 102 648 113 686 136 C 724 158 756 188 782 226 C 807 264 826 307 839 356 C 851 405 858 456 858 508 Z M 465 1493 L 684 1174 L 539 1174 L 262 1493 L 465 1493 Z" unicode="ò" />
<glyph horiz-adv-x="1110" d="M 1020 508 C 1020 438 1010 371 991 307 C 971 243 942 187 903 139 C 864 91 815 52 757 23 C 699 -5 631 -20 553 -20 C 478 -20 412 -7 354 18 C 296 44 248 79 208 125 C 168 171 138 225 118 287 C 98 349 88 416 88 489 C 88 561 98 628 119 691 C 139 754 170 809 210 856 C 250 903 299 940 358 967 C 417 994 485 1008 561 1008 C 633 1008 697 995 754 971 C 811 947 859 913 899 869 C 938 825 968 772 989 711 C 1009 649 1020 582 1020 508 Z M 858 508 C 858 564 851 615 838 661 C 824 707 805 747 780 781 C 755 814 724 840 688 859 C 652 877 611 887 565 887 C 514 887 469 876 430 855 C 391 833 358 804 332 768 C 306 732 286 689 272 641 C 258 593 252 541 252 487 C 252 433 258 382 272 335 C 285 288 304 247 330 213 C 356 178 387 151 424 131 C 461 111 503 102 551 102 C 603 102 648 113 686 136 C 724 158 756 188 782 226 C 807 264 826 307 839 356 C 851 405 858 456 858 508 Z M 846 1493 L 569 1174 L 424 1174 L 643 1493 L 846 1493 Z" unicode="ó" />
<glyph horiz-adv-x="1110" d="M 1020 508 C 1020 438 1010 371 991 307 C 971 243 942 187 903 139 C 864 91 815 52 757 23 C 699 -5 631 -20 553 -20 C 478 -20 412 -7 354 18 C 296 44 248 79 208 125 C 168 171 138 225 118 287 C 98 349 88 416 88 489 C 88 561 98 628 119 691 C 139 754 170 809 210 856 C 250 903 299 940 358 967 C 417 994 485 1008 561 1008 C 633 1008 697 995 754 971 C 811 947 859 913 899 869 C 938 825 968 772 989 711 C 1009 649 1020 582 1020 508 Z M 858 508 C 858 564 851 615 838 661 C 824 707 805 747 780 781 C 755 814 724 840 688 859 C 652 877 611 887 565 887 C 514 887 469 876 430 855 C 391 833 358 804 332 768 C 306 732 286 689 272 641 C 258 593 252 541 252 487 C 252 433 258 382 272 335 C 285 288 304 247 330 213 C 356 178 387 151 424 131 C 461 111 503 102 551 102 C 603 102 648 113 686 136 C 724 158 756 188 782 226 C 807 264 826 307 839 356 C 851 405 858 456 858 508 Z M 645 1493 L 856 1174 L 729 1174 L 559 1391 L 547 1391 L 375 1174 L 250 1174 L 461 1493 L 645 1493 Z" unicode="ô" />
<glyph horiz-adv-x="1110" d="M 1020 508 C 1020 438 1010 371 991 307 C 971 243 942 187 903 139 C 864 91 815 52 757 23 C 699 -5 631 -20 553 -20 C 478 -20 412 -7 354 18 C 296 44 248 79 208 125 C 168 171 138 225 118 287 C 98 349 88 416 88 489 C 88 561 98 628 119 691 C 139 754 170 809 210 856 C 250 903 299 940 358 967 C 417 994 485 1008 561 1008 C 633 1008 697 995 754 971 C 811 947 859 913 899 869 C 938 825 968 772 989 711 C 1009 649 1020 582 1020 508 Z M 858 508 C 858 564 851 615 838 661 C 824 707 805 747 780 781 C 755 814 724 840 688 859 C 652 877 611 887 565 887 C 514 887 469 876 430 855 C 391 833 358 804 332 768 C 306 732 286 689 272 641 C 258 593 252 541 252 487 C 252 433 258 382 272 335 C 285 288 304 247 330 213 C 356 178 387 151 424 131 C 461 111 503 102 551 102 C 603 102 648 113 686 136 C 724 158 756 188 782 226 C 807 264 826 307 839 356 C 851 405 858 456 858 508 Z M 180 1174 C 180 1224 185 1270 196 1311 C 206 1352 221 1387 240 1416 C 259 1445 282 1467 308 1483 C 334 1499 362 1507 393 1507 C 427 1507 457 1497 483 1479 C 509 1461 538 1435 569 1403 L 620 1348 C 634 1332 650 1318 666 1305 C 682 1292 699 1286 717 1286 C 733 1286 747 1292 759 1304 C 771 1316 782 1332 790 1352 C 798 1371 805 1393 810 1418 C 814 1442 817 1467 817 1493 L 926 1493 C 926 1443 920 1397 910 1356 C 899 1315 884 1280 865 1251 C 845 1222 822 1200 796 1184 C 769 1168 740 1161 708 1161 C 675 1161 646 1169 620 1187 C 594 1205 565 1230 534 1264 L 483 1319 C 469 1333 456 1346 442 1357 C 428 1368 411 1374 393 1374 C 375 1374 359 1368 346 1357 C 333 1346 322 1331 314 1313 C 305 1295 299 1274 295 1250 C 291 1226 289 1200 289 1174 L 180 1174 L 180 1174 Z" unicode="õ" />
<glyph horiz-adv-x="1110" d="M 1020 508 C 1020 438 1010 371 991 307 C 971 243 942 187 903 139 C 864 91 815 52 757 23 C 699 -5 631 -20 553 -20 C 478 -20 412 -7 354 18 C 296 44 248 79 208 125 C 168 171 138 225 118 287 C 98 349 88 416 88 489 C 88 561 98 628 119 691 C 139 754 170 809 210 856 C 250 903 299 940 358 967 C 417 994 485 1008 561 1008 C 633 1008 697 995 754 971 C 811 947 859 913 899 869 C 938 825 968 772 989 711 C 1009 649 1020 582 1020 508 Z M 858 508 C 858 564 851 615 838 661 C 824 707 805 747 780 781 C 755 814 724 840 688 859 C 652 877 611 887 565 887 C 514 887 469 876 430 855 C 391 833 358 804 332 768 C 306 732 286 689 272 641 C 258 593 252 541 252 487 C 252 433 258 382 272 335 C 285 288 304 247 330 213 C 356 178 387 151 424 131 C 461 111 503 102 551 102 C 603 102 648 113 686 136 C 724 158 756 188 782 226 C 807 264 826 307 839 356 C 851 405 858 456 858 508 Z M 440 1427 L 440 1237 L 276 1237 L 276 1427 L 440 1427 Z M 831 1427 L 831 1237 L 668 1237 L 668 1427 L 831 1427 Z" unicode="ö" />
<glyph horiz-adv-x="1106" d="M 100 647 L 1004 647 L 1004 516 L 100 516 L 100 647 Z M 461 244 L 647 244 L 647 41 L 461 41 L 461 244 Z M 461 1122 L 647 1122 L 647 918 L 461 918 L 461 1122 Z" unicode="÷" />
<glyph horiz-adv-x="1110" d="M 311 39 C 238 82 183 143 145 221 C 107 299 88 388 88 489 C 88 561 98 628 119 691 C 139 754 170 809 210 856 C 250 903 299 940 358 967 C 417 994 485 1008 561 1008 C 587 1008 613 1006 638 1002 C 662 998 686 993 709 987 L 768 1133 L 879 1133 L 803 946 C 873 904 926 846 964 771 C 1001 695 1020 608 1020 508 C 1020 438 1010 371 991 307 C 971 243 942 187 903 139 C 864 91 815 52 757 23 C 699 -5 631 -20 553 -20 C 525 -20 498 -18 474 -14 C 450 -10 426 -6 403 0 L 346 -145 L 238 -145 L 311 39 Z M 246 487 C 246 417 256 353 278 296 C 300 238 331 192 371 158 L 655 879 C 641 883 627 886 612 889 C 597 891 581 893 565 893 C 513 893 468 882 428 861 C 388 839 355 810 328 773 C 301 736 281 693 267 644 C 253 594 246 542 246 487 Z M 864 508 C 864 578 853 641 833 697 C 812 752 782 796 743 829 L 459 109 C 473 103 487 99 503 97 C 518 95 534 94 551 94 C 603 94 648 105 688 128 C 727 151 760 182 786 221 C 812 259 831 303 844 353 C 857 403 864 454 864 508 Z" unicode="ø" />
<glyph horiz-adv-x="1118" d="M 952 989 L 952 211 L 961 0 L 811 0 L 805 172 L 801 172 C 763 114 718 68 664 34 C 610 0 546 -16 471 -16 C 413 -16 363 -7 322 9 C 281 26 248 50 222 80 C 196 110 177 145 165 187 C 153 228 147 273 147 322 L 147 989 L 301 989 L 301 328 C 301 298 304 269 311 242 C 317 214 328 190 344 170 C 359 150 379 134 405 122 C 431 110 462 104 500 104 C 534 104 568 111 604 125 C 639 139 671 158 700 182 C 728 206 752 234 770 266 C 788 298 797 333 797 371 L 797 989 L 952 989 Z M 469 1493 L 688 1174 L 543 1174 L 266 1493 L 469 1493 Z" unicode="ù" />
<glyph horiz-adv-x="1118" d="M 952 989 L 952 211 L 961 0 L 811 0 L 805 172 L 801 172 C 763 114 718 68 664 34 C 610 0 546 -16 471 -16 C 413 -16 363 -7 322 9 C 281 26 248 50 222 80 C 196 110 177 145 165 187 C 153 228 147 273 147 322 L 147 989 L 301 989 L 301 328 C 301 298 304 269 311 242 C 317 214 328 190 344 170 C 359 150 379 134 405 122 C 431 110 462 104 500 104 C 534 104 568 111 604 125 C 639 139 671 158 700 182 C 728 206 752 234 770 266 C 788 298 797 333 797 371 L 797 989 L 952 989 Z M 850 1493 L 573 1174 L 428 1174 L 647 1493 L 850 1493 Z" unicode="ú" />
<glyph horiz-adv-x="1118" d="M 952 989 L 952 211 L 961 0 L 811 0 L 805 172 L 801 172 C 763 114 718 68 664 34 C 610 0 546 -16 471 -16 C 413 -16 363 -7 322 9 C 281 26 248 50 222 80 C 196 110 177 145 165 187 C 153 228 147 273 147 322 L 147 989 L 301 989 L 301 328 C 301 298 304 269 311 242 C 317 214 328 190 344 170 C 359 150 379 134 405 122 C 431 110 462 104 500 104 C 534 104 568 111 604 125 C 639 139 671 158 700 182 C 728 206 752 234 770 266 C 788 298 797 333 797 371 L 797 989 L 952 989 Z M 649 1493 L 860 1174 L 733 1174 L 563 1391 L 551 1391 L 379 1174 L 254 1174 L 465 1493 L 649 1493 Z" unicode="û" />
<glyph horiz-adv-x="1118" d="M 952 989 L 952 211 L 961 0 L 811 0 L 805 172 L 801 172 C 763 114 718 68 664 34 C 610 0 546 -16 471 -16 C 413 -16 363 -7 322 9 C 281 26 248 50 222 80 C 196 110 177 145 165 187 C 153 228 147 273 147 322 L 147 989 L 301 989 L 301 328 C 301 298 304 269 311 242 C 317 214 328 190 344 170 C 359 150 379 134 405 122 C 431 110 462 104 500 104 C 534 104 568 111 604 125 C 639 139 671 158 700 182 C 728 206 752 234 770 266 C 788 298 797 333 797 371 L 797 989 L 952 989 Z M 444 1427 L 444 1237 L 280 1237 L 280 1427 L 444 1427 Z M 835 1427 L 835 1237 L 672 1237 L 672 1427 L 835 1427 Z" unicode="ü" />
<glyph horiz-adv-x="997" d="M 43 989 L 209 989 L 438 373 C 447 347 455 325 461 308 C 467 291 472 276 476 264 C 480 252 484 240 488 229 C 492 217 496 204 500 190 L 506 190 L 788 989 L 950 989 L 563 -4 C 536 -67 508 -124 478 -174 C 448 -224 416 -267 382 -302 C 348 -337 311 -364 271 -382 C 231 -400 187 -410 141 -410 C 133 -410 123 -410 113 -410 C 103 -410 95 -409 90 -408 L 90 -276 L 125 -276 C 183 -276 236 -252 284 -206 C 331 -160 378 -86 424 16 L 43 989 Z M 791 1493 L 514 1174 L 369 1174 L 588 1493 L 791 1493 Z" unicode="ý" />
<glyph horiz-adv-x="1143" d="M 164 1493 L 319 1493 L 319 836 L 324 836 C 356 888 399 929 451 961 C 503 992 564 1008 633 1008 C 657 1008 684 1005 714 1000 C 744 994 774 985 805 971 C 836 957 866 937 896 913 C 925 889 951 858 974 820 C 997 782 1016 736 1030 683 C 1044 629 1051 567 1051 496 C 1051 424 1044 361 1030 307 C 1016 253 997 208 974 170 C 951 132 925 100 896 76 C 866 52 836 33 805 19 C 774 5 744 -4 714 -10 C 684 -15 657 -18 633 -18 C 564 -18 503 -2 451 29 C 398 60 356 102 324 154 L 319 154 L 319 -410 L 164 -410 L 164 1493 Z M 889 496 C 889 550 884 597 875 637 C 866 677 854 712 839 741 C 824 770 807 794 787 813 C 767 831 747 846 726 857 C 705 868 684 876 664 880 C 643 884 624 887 606 887 C 570 887 534 879 500 864 C 465 848 434 828 408 803 C 381 778 359 749 343 717 C 327 685 319 652 319 618 L 319 371 C 319 336 327 302 343 270 C 359 238 381 209 408 184 C 434 159 465 139 500 124 C 534 109 570 102 606 102 C 632 102 662 107 695 117 C 728 127 759 147 788 176 C 816 204 840 244 860 296 C 879 347 889 414 889 496 Z" unicode="þ" />
<glyph horiz-adv-x="997" d="M 43 989 L 209 989 L 438 373 C 447 347 455 325 461 308 C 467 291 472 276 476 264 C 480 252 484 240 488 229 C 492 217 496 204 500 190 L 506 190 L 788 989 L 950 989 L 563 -4 C 536 -67 508 -124 478 -174 C 448 -224 416 -267 382 -302 C 348 -337 311 -364 271 -382 C 231 -400 187 -410 141 -410 C 133 -410 123 -410 113 -410 C 103 -410 95 -409 90 -408 L 90 -276 L 125 -276 C 183 -276 236 -252 284 -206 C 331 -160 378 -86 424 16 L 43 989 Z M 385 1427 L 385 1237 L 221 1237 L 221 1427 L 385 1427 Z M 776 1427 L 776 1237 L 613 1237 L 613 1427 L 776 1427 Z" unicode="ÿ" />
<glyph horiz-adv-x="1317" d="M 215 0 L 47 0 L 590 1389 L 727 1389 L 1268 0 L 1085 0 L 938 393 L 362 393 L 215 0 Z M 412 526 L 889 526 L 715 997 C 710 1009 705 1024 699 1040 C 693 1056 688 1073 682 1090 C 676 1107 671 1124 667 1140 C 662 1156 658 1171 655 1184 L 647 1184 C 643 1171 639 1157 635 1142 C 631 1126 626 1110 621 1094 C 615 1078 610 1061 604 1045 C 598 1028 593 1012 588 997 L 412 526 Z M 914 1688 L 914 1571 L 402 1571 L 402 1688 L 914 1688 Z" unicode="Ā" />
<glyph horiz-adv-x="1004" d="M 143 918 C 184 944 234 966 293 984 C 351 1001 419 1010 496 1010 C 564 1010 621 1002 667 987 C 713 972 749 950 777 922 C 804 893 823 857 835 815 C 846 773 852 724 852 670 L 852 268 C 852 212 854 163 859 121 C 864 79 871 38 881 0 L 737 0 C 729 26 724 53 720 81 C 716 109 713 140 711 174 L 707 174 C 687 142 665 115 640 91 C 614 67 586 48 556 32 C 526 16 494 4 460 -4 C 426 -12 392 -16 358 -16 C 316 -16 277 -10 242 1 C 206 13 176 30 150 52 C 124 74 103 101 89 134 C 75 166 68 204 68 246 C 68 296 79 342 103 384 C 127 425 164 461 215 492 C 266 522 331 548 411 568 C 491 588 586 602 698 610 L 698 657 C 698 692 694 724 688 752 C 682 780 670 803 654 823 C 638 842 616 857 588 867 C 560 877 525 883 483 883 C 423 883 367 874 313 857 C 259 840 213 819 176 795 L 143 918 Z M 399 96 C 433 96 468 102 504 116 C 539 130 571 149 600 174 C 628 199 652 229 670 264 C 688 299 698 338 698 381 L 698 512 C 610 501 537 488 477 474 C 417 459 369 442 333 422 C 296 402 269 378 253 352 C 237 325 229 294 229 260 C 229 234 233 210 242 190 C 250 170 262 153 277 139 C 292 125 310 114 331 107 C 351 99 374 96 399 96 Z M 748 1360 L 748 1243 L 236 1243 L 236 1360 L 748 1360 Z" unicode="ā" />
<glyph horiz-adv-x="1317" d="M 215 0 L 47 0 L 590 1389 L 727 1389 L 1268 0 L 1085 0 L 938 393 L 362 393 L 215 0 Z M 412 526 L 889 526 L 715 997 C 710 1009 705 1024 699 1040 C 693 1056 688 1073 682 1090 C 676 1107 671 1124 667 1140 C 662 1156 658 1171 655 1184 L 647 1184 C 643 1171 639 1157 635 1142 C 631 1126 626 1110 621 1094 C 615 1078 610 1061 604 1045 C 598 1028 593 1012 588 997 L 412 526 Z M 498 1819 L 498 1794 C 498 1770 500 1747 506 1727 C 512 1706 521 1688 533 1673 C 545 1657 562 1645 582 1637 C 602 1628 628 1624 658 1624 C 688 1624 713 1628 733 1638 C 753 1648 770 1661 783 1677 C 796 1693 805 1711 811 1731 C 817 1751 820 1772 820 1794 L 820 1819 L 940 1819 L 940 1772 C 940 1736 934 1701 922 1669 C 910 1636 892 1607 868 1583 C 844 1559 815 1539 780 1525 C 745 1510 704 1503 658 1503 C 612 1503 571 1510 537 1524 C 502 1538 473 1557 449 1581 C 425 1605 408 1634 396 1667 C 384 1699 379 1734 379 1772 L 379 1819 L 498 1819 Z" unicode="Ă" />
<glyph horiz-adv-x="1004" d="M 143 918 C 184 944 234 966 293 984 C 351 1001 419 1010 496 1010 C 564 1010 621 1002 667 987 C 713 972 749 950 777 922 C 804 893 823 857 835 815 C 846 773 852 724 852 670 L 852 268 C 852 212 854 163 859 121 C 864 79 871 38 881 0 L 737 0 C 729 26 724 53 720 81 C 716 109 713 140 711 174 L 707 174 C 687 142 665 115 640 91 C 614 67 586 48 556 32 C 526 16 494 4 460 -4 C 426 -12 392 -16 358 -16 C 316 -16 277 -10 242 1 C 206 13 176 30 150 52 C 124 74 103 101 89 134 C 75 166 68 204 68 246 C 68 296 79 342 103 384 C 127 425 164 461 215 492 C 266 522 331 548 411 568 C 491 588 586 602 698 610 L 698 657 C 698 692 694 724 688 752 C 682 780 670 803 654 823 C 638 842 616 857 588 867 C 560 877 525 883 483 883 C 423 883 367 874 313 857 C 259 840 213 819 176 795 L 143 918 Z M 399 96 C 433 96 468 102 504 116 C 539 130 571 149 600 174 C 628 199 652 229 670 264 C 688 299 698 338 698 381 L 698 512 C 610 501 537 488 477 474 C 417 459 369 442 333 422 C 296 402 269 378 253 352 C 237 325 229 294 229 260 C 229 234 233 210 242 190 C 250 170 262 153 277 139 C 292 125 310 114 331 107 C 351 99 374 96 399 96 Z M 332 1493 L 332 1448 C 332 1424 334 1401 340 1381 C 346 1360 355 1342 367 1327 C 379 1311 396 1299 416 1291 C 436 1282 462 1278 492 1278 C 522 1278 547 1282 567 1292 C 587 1302 604 1315 617 1331 C 630 1347 639 1365 645 1385 C 651 1405 654 1426 654 1448 L 654 1493 L 774 1493 L 774 1425 C 774 1389 768 1354 756 1322 C 744 1290 726 1261 702 1237 C 678 1213 649 1193 614 1179 C 579 1164 538 1157 492 1157 C 446 1157 405 1164 371 1178 C 336 1192 307 1211 283 1235 C 259 1259 242 1287 230 1320 C 218 1352 213 1387 213 1425 L 213 1493 L 332 1493 Z" unicode="ă" />
<glyph horiz-adv-x="1317" d="M 1102 -154 C 1083 -171 1068 -187 1058 -202 C 1047 -216 1042 -234 1042 -256 C 1042 -272 1045 -286 1051 -297 C 1057 -308 1064 -317 1074 -324 C 1084 -330 1095 -335 1107 -338 C 1119 -340 1131 -342 1143 -342 C 1165 -342 1187 -338 1209 -331 C 1231 -323 1248 -316 1262 -309 L 1276 -416 C 1258 -425 1238 -433 1215 -441 C 1191 -449 1163 -453 1130 -453 C 1097 -453 1067 -448 1039 -439 C 1011 -430 987 -417 967 -401 C 947 -385 931 -365 920 -342 C 908 -318 903 -292 903 -264 C 903 -243 906 -224 912 -207 C 918 -189 926 -173 937 -157 C 947 -141 960 -126 976 -112 C 991 -98 1008 -83 1028 -68 L 1092 -16 L 938 393 L 362 393 L 215 0 L 47 0 L 590 1389 L 727 1389 L 1268 0 L 1102 -154 Z M 412 526 L 889 526 L 715 997 C 713 1003 709 1013 704 1028 C 698 1043 693 1060 687 1079 C 681 1097 675 1116 669 1135 C 663 1154 658 1170 655 1184 L 647 1184 C 643 1171 639 1157 635 1142 C 631 1126 626 1110 621 1094 C 615 1078 610 1061 604 1045 C 598 1028 593 1012 588 997 L 412 526 Z" unicode="Ą" />
<glyph horiz-adv-x="1004" d="M 715 -154 C 695 -172 680 -188 670 -203 C 660 -217 655 -234 655 -254 C 655 -271 658 -285 664 -296 C 670 -307 679 -316 689 -323 C 699 -330 710 -335 723 -338 C 735 -340 748 -342 762 -342 C 787 -342 812 -338 837 -331 C 862 -323 881 -316 895 -309 L 909 -416 C 891 -425 869 -433 843 -441 C 817 -449 786 -453 752 -453 C 716 -453 684 -448 656 -439 C 627 -430 602 -417 581 -401 C 560 -385 544 -365 533 -342 C 521 -318 516 -292 516 -264 C 516 -243 519 -224 525 -207 C 531 -189 539 -173 550 -157 C 560 -141 573 -126 589 -112 C 604 -98 621 -83 641 -68 L 735 8 C 729 33 724 59 720 85 C 716 111 713 141 711 174 L 707 174 C 687 142 665 115 640 91 C 614 67 586 48 556 32 C 526 16 494 4 460 -4 C 426 -12 392 -16 358 -16 C 316 -16 277 -10 242 1 C 206 13 176 30 150 52 C 124 74 103 101 89 134 C 75 166 68 204 68 246 C 68 296 79 342 103 384 C 127 425 164 461 215 492 C 266 522 331 548 411 568 C 491 588 586 602 698 610 L 698 657 C 698 692 694 724 688 752 C 682 780 670 803 654 823 C 638 842 616 857 588 867 C 560 877 525 883 483 883 C 423 883 367 874 313 857 C 259 840 213 819 176 795 L 143 918 C 184 944 234 966 293 984 C 351 1001 419 1010 496 1010 C 564 1010 621 1002 667 987 C 713 972 749 950 777 922 C 804 893 823 857 835 815 C 846 773 852 724 852 670 L 852 268 C 852 240 852 215 853 191 C 854 167 856 145 858 123 C 860 101 863 81 867 61 C 871 41 875 20 881 0 L 715 -154 Z M 399 96 C 433 96 468 102 504 116 C 539 130 571 149 600 174 C 628 199 652 229 670 264 C 688 299 698 338 698 381 L 698 512 C 610 501 537 488 477 474 C 417 459 369 442 333 422 C 296 402 269 378 253 352 C 237 325 229 294 229 260 C 229 234 233 210 242 190 C 250 170 262 153 277 139 C 292 125 310 114 331 107 C 351 99 374 96 399 96 Z" unicode="ą" />
<glyph horiz-adv-x="1307" d="M 1186 1167 C 1135 1197 1077 1221 1011 1240 C 945 1258 877 1268 807 1268 C 725 1268 652 1253 587 1223 C 522 1193 467 1151 422 1098 C 376 1045 341 983 317 911 C 293 839 281 760 281 676 C 281 591 293 515 317 447 C 341 379 376 321 420 273 C 464 225 518 188 581 162 C 643 136 713 123 791 123 C 832 123 873 126 913 132 C 953 138 991 146 1027 156 C 1063 166 1096 179 1126 193 C 1156 207 1183 222 1206 238 L 1223 86 C 1200 70 1173 56 1142 43 C 1111 30 1077 19 1040 10 C 1002 0 963 -6 921 -12 C 879 -17 835 -20 791 -20 C 687 -20 593 -3 509 30 C 425 64 354 111 296 172 C 237 233 192 306 160 391 C 128 476 113 570 113 672 C 113 776 129 872 161 962 C 193 1052 240 1130 300 1196 C 360 1262 434 1314 520 1352 C 606 1390 703 1409 811 1409 C 845 1409 879 1407 915 1404 C 950 1400 985 1395 1019 1388 C 1053 1380 1085 1371 1116 1360 C 1147 1349 1176 1336 1202 1321 L 1186 1167 Z M 1038 1839 L 780 1540 L 635 1540 L 844 1839 L 1038 1839 Z" unicode="Ć" />
<glyph horiz-adv-x="952" d="M 864 66 C 847 54 829 43 809 33 C 789 23 766 14 742 6 C 718 -2 691 -8 661 -13 C 631 -17 599 -20 563 -20 C 501 -20 441 -11 384 5 C 327 21 277 49 233 88 C 189 126 155 178 129 242 C 103 306 90 385 90 479 C 90 579 104 662 133 730 C 161 798 199 852 245 894 C 291 936 342 965 400 983 C 457 1001 515 1010 573 1010 C 627 1010 677 1004 723 992 C 769 980 812 965 850 948 L 838 815 C 824 824 807 833 787 841 C 767 849 746 857 724 863 C 701 869 677 873 653 877 C 629 881 605 883 582 883 C 540 883 500 876 461 863 C 421 850 386 828 356 798 C 325 767 300 726 282 676 C 263 625 254 562 254 487 C 254 411 263 349 282 300 C 300 251 325 212 355 183 C 385 154 419 134 457 123 C 495 111 533 106 571 106 C 600 106 628 108 655 114 C 682 119 707 126 731 135 C 755 143 777 153 797 164 C 817 175 834 187 850 199 L 864 66 Z M 838 1493 L 561 1174 L 416 1174 L 635 1493 L 838 1493 Z" unicode="ć" />
<glyph horiz-adv-x="1307" d="M 1186 1167 C 1135 1197 1077 1221 1011 1240 C 945 1258 877 1268 807 1268 C 725 1268 652 1253 587 1223 C 522 1193 467 1151 422 1098 C 376 1045 341 983 317 911 C 293 839 281 760 281 676 C 281 591 293 515 317 447 C 341 379 376 321 420 273 C 464 225 518 188 581 162 C 643 136 713 123 791 123 C 832 123 873 126 913 132 C 953 138 991 146 1027 156 C 1063 166 1096 179 1126 193 C 1156 207 1183 222 1206 238 L 1223 86 C 1200 70 1173 56 1142 43 C 1111 30 1077 19 1040 10 C 1002 0 963 -6 921 -12 C 879 -17 835 -20 791 -20 C 687 -20 593 -3 509 30 C 425 64 354 111 296 172 C 237 233 192 306 160 391 C 128 476 113 570 113 672 C 113 776 129 872 161 962 C 193 1052 240 1130 300 1196 C 360 1262 434 1314 520 1352 C 606 1390 703 1409 811 1409 C 845 1409 879 1407 915 1404 C 950 1400 985 1395 1019 1388 C 1053 1380 1085 1371 1116 1360 C 1147 1349 1176 1336 1202 1321 L 1186 1167 Z M 856 1839 L 1073 1540 L 946 1540 L 770 1737 L 758 1737 L 580 1540 L 455 1540 L 672 1839 L 856 1839 Z" unicode="Ĉ" />
<glyph horiz-adv-x="952" d="M 864 66 C 847 54 829 43 809 33 C 789 23 766 14 742 6 C 718 -2 691 -8 661 -13 C 631 -17 599 -20 563 -20 C 501 -20 441 -11 384 5 C 327 21 277 49 233 88 C 189 126 155 178 129 242 C 103 306 90 385 90 479 C 90 579 104 662 133 730 C 161 798 199 852 245 894 C 291 936 342 965 400 983 C 457 1001 515 1010 573 1010 C 627 1010 677 1004 723 992 C 769 980 812 965 850 948 L 838 815 C 824 824 807 833 787 841 C 767 849 746 857 724 863 C 701 869 677 873 653 877 C 629 881 605 883 582 883 C 540 883 500 876 461 863 C 421 850 386 828 356 798 C 325 767 300 726 282 676 C 263 625 254 562 254 487 C 254 411 263 349 282 300 C 300 251 325 212 355 183 C 385 154 419 134 457 123 C 495 111 533 106 571 106 C 600 106 628 108 655 114 C 682 119 707 126 731 135 C 755 143 777 153 797 164 C 817 175 834 187 850 199 L 864 66 Z M 637 1493 L 848 1174 L 721 1174 L 551 1391 L 539 1391 L 367 1174 L 242 1174 L 453 1493 L 637 1493 Z" unicode="ĉ" />
<glyph horiz-adv-x="1307" d="M 1186 1167 C 1135 1197 1077 1221 1011 1240 C 945 1258 877 1268 807 1268 C 725 1268 652 1253 587 1223 C 522 1193 467 1151 422 1098 C 376 1045 341 983 317 911 C 293 839 281 760 281 676 C 281 591 293 515 317 447 C 341 379 376 321 420 273 C 464 225 518 188 581 162 C 643 136 713 123 791 123 C 832 123 873 126 913 132 C 953 138 991 146 1027 156 C 1063 166 1096 179 1126 193 C 1156 207 1183 222 1206 238 L 1223 86 C 1200 70 1173 56 1142 43 C 1111 30 1077 19 1040 10 C 1002 0 963 -6 921 -12 C 879 -17 835 -20 791 -20 C 687 -20 593 -3 509 30 C 425 64 354 111 296 172 C 237 233 192 306 160 391 C 128 476 113 570 113 672 C 113 776 129 872 161 962 C 193 1052 240 1130 300 1196 C 360 1262 434 1314 520 1352 C 606 1390 703 1409 811 1409 C 845 1409 879 1407 915 1404 C 950 1400 985 1395 1019 1388 C 1053 1380 1085 1371 1116 1360 C 1147 1349 1176 1336 1202 1321 L 1186 1167 Z M 846 1759 L 846 1569 L 682 1569 L 682 1759 L 846 1759 Z" unicode="Ċ" />
<glyph horiz-adv-x="952" d="M 864 66 C 847 54 829 43 809 33 C 789 23 766 14 742 6 C 718 -2 691 -8 661 -13 C 631 -17 599 -20 563 -20 C 501 -20 441 -11 384 5 C 327 21 277 49 233 88 C 189 126 155 178 129 242 C 103 306 90 385 90 479 C 90 579 104 662 133 730 C 161 798 199 852 245 894 C 291 936 342 965 400 983 C 457 1001 515 1010 573 1010 C 627 1010 677 1004 723 992 C 769 980 812 965 850 948 L 838 815 C 824 824 807 833 787 841 C 767 849 746 857 724 863 C 701 869 677 873 653 877 C 629 881 605 883 582 883 C 540 883 500 876 461 863 C 421 850 386 828 356 798 C 325 767 300 726 282 676 C 263 625 254 562 254 487 C 254 411 263 349 282 300 C 300 251 325 212 355 183 C 385 154 419 134 457 123 C 495 111 533 106 571 106 C 600 106 628 108 655 114 C 682 119 707 126 731 135 C 755 143 777 153 797 164 C 817 175 834 187 850 199 L 864 66 Z M 627 1427 L 627 1237 L 463 1237 L 463 1427 L 627 1427 Z" unicode="ċ" />
<glyph horiz-adv-x="1307" d="M 1186 1167 C 1135 1197 1077 1221 1011 1240 C 945 1258 877 1268 807 1268 C 725 1268 652 1253 587 1223 C 522 1193 467 1151 422 1098 C 376 1045 341 983 317 911 C 293 839 281 760 281 676 C 281 591 293 515 317 447 C 341 379 376 321 420 273 C 464 225 518 188 581 162 C 643 136 713 123 791 123 C 832 123 873 126 913 132 C 953 138 991 146 1027 156 C 1063 166 1096 179 1126 193 C 1156 207 1183 222 1206 238 L 1223 86 C 1200 70 1173 56 1142 43 C 1111 30 1077 19 1040 10 C 1002 0 963 -6 921 -12 C 879 -17 835 -20 791 -20 C 687 -20 593 -3 509 30 C 425 64 354 111 296 172 C 237 233 192 306 160 391 C 128 476 113 570 113 672 C 113 776 129 872 161 962 C 193 1052 240 1130 300 1196 C 360 1262 434 1314 520 1352 C 606 1390 703 1409 811 1409 C 845 1409 879 1407 915 1404 C 950 1400 985 1395 1019 1388 C 1053 1380 1085 1371 1116 1360 C 1147 1349 1176 1336 1202 1321 L 1186 1167 Z M 672 1540 L 455 1839 L 580 1839 L 758 1642 L 770 1642 L 946 1839 L 1073 1839 L 856 1540 L 672 1540 Z" unicode="Č" />
<glyph horiz-adv-x="952" d="M 864 66 C 847 54 829 43 809 33 C 789 23 766 14 742 6 C 718 -2 691 -8 661 -13 C 631 -17 599 -20 563 -20 C 501 -20 441 -11 384 5 C 327 21 277 49 233 88 C 189 126 155 178 129 242 C 103 306 90 385 90 479 C 90 579 104 662 133 730 C 161 798 199 852 245 894 C 291 936 342 965 400 983 C 457 1001 515 1010 573 1010 C 627 1010 677 1004 723 992 C 769 980 812 965 850 948 L 838 815 C 824 824 807 833 787 841 C 767 849 746 857 724 863 C 701 869 677 873 653 877 C 629 881 605 883 582 883 C 540 883 500 876 461 863 C 421 850 386 828 356 798 C 325 767 300 726 282 676 C 263 625 254 562 254 487 C 254 411 263 349 282 300 C 300 251 325 212 355 183 C 385 154 419 134 457 123 C 495 111 533 106 571 106 C 600 106 628 108 655 114 C 682 119 707 126 731 135 C 755 143 777 153 797 164 C 817 175 834 187 850 199 L 864 66 Z M 453 1174 L 236 1493 L 361 1493 L 539 1276 L 551 1276 L 727 1493 L 854 1493 L 637 1174 L 453 1174 Z" unicode="č" />
<glyph horiz-adv-x="1415" d="M 190 1384 C 240 1387 290 1390 340 1392 C 390 1394 435 1395 475 1395 C 549 1395 620 1389 690 1379 C 760 1368 825 1351 887 1328 C 948 1304 1004 1274 1055 1238 C 1106 1202 1150 1158 1187 1108 C 1223 1057 1252 998 1272 932 C 1292 865 1303 790 1303 707 C 1303 595 1284 495 1248 407 C 1211 319 1157 244 1087 183 C 1016 121 929 74 826 42 C 723 10 605 -6 473 -6 C 429 -6 384 -5 336 -3 C 288 -1 240 0 190 4 L 190 1384 Z M 350 129 C 386 125 418 123 446 123 C 474 123 503 123 532 123 C 614 123 692 135 765 159 C 838 183 902 220 957 268 C 1011 316 1055 377 1087 449 C 1119 521 1135 606 1135 702 C 1135 771 1126 833 1109 889 C 1092 944 1069 993 1039 1035 C 1009 1077 973 1112 933 1142 C 893 1172 849 1196 803 1215 C 756 1234 707 1248 656 1257 C 605 1265 554 1270 504 1270 C 480 1270 455 1269 428 1269 C 400 1269 374 1268 350 1266 L 350 129 Z M 615 1540 L 398 1839 L 523 1839 L 701 1642 L 713 1642 L 889 1839 L 1016 1839 L 799 1540 L 615 1540 Z" unicode="Ď" />
<glyph horiz-adv-x="1147" d="M 981 1493 L 981 197 L 989 0 L 831 0 L 825 166 L 821 166 C 805 138 785 112 763 90 C 740 67 715 48 688 32 C 660 16 631 3 600 -5 C 569 -13 537 -18 504 -18 C 479 -18 451 -15 421 -10 C 391 -4 360 5 330 19 C 300 33 270 52 242 76 C 213 100 187 130 165 168 C 143 206 125 251 112 303 C 98 355 92 417 92 489 C 92 562 99 626 113 680 C 127 734 146 781 170 819 C 194 857 221 889 251 914 C 281 938 313 957 345 971 C 377 985 408 994 439 1000 C 470 1005 498 1008 524 1008 C 590 1008 647 992 697 961 C 747 929 788 888 821 836 L 825 836 L 825 1493 L 981 1493 Z M 545 887 C 527 887 508 884 487 880 C 466 876 445 868 423 858 C 401 847 381 832 361 813 C 341 794 323 770 307 740 C 291 710 279 675 270 634 C 260 592 256 544 256 489 C 256 435 260 389 269 349 C 277 309 289 275 303 247 C 317 218 333 194 352 176 C 370 157 390 142 410 131 C 430 120 451 112 471 108 C 491 104 510 102 528 102 C 564 102 600 109 636 124 C 672 139 704 159 732 184 C 760 209 782 238 799 270 C 816 302 825 336 825 371 L 825 618 C 825 652 817 685 802 717 C 786 749 766 778 740 803 C 714 828 684 848 650 864 C 616 879 581 887 545 887 Z M 1309 1493 L 1239 1100 L 1143 1100 L 1143 1493 L 1309 1493 Z" unicode="ď" />
<glyph horiz-adv-x="1438" d="M 31 784 L 213 784 L 213 1384 C 262 1387 312 1390 362 1392 C 412 1394 458 1395 498 1395 C 572 1395 643 1389 713 1379 C 783 1368 848 1351 910 1328 C 971 1304 1027 1274 1078 1238 C 1128 1202 1172 1158 1209 1108 C 1245 1057 1274 998 1294 932 C 1314 865 1325 790 1325 707 C 1325 595 1306 495 1270 407 C 1233 319 1179 244 1109 183 C 1038 121 951 74 849 42 C 746 10 628 -6 496 -6 C 452 -6 407 -5 359 -3 C 311 -1 262 0 213 4 L 213 649 L 31 649 L 31 784 Z M 373 784 L 696 784 L 696 649 L 373 649 L 373 129 C 409 125 441 123 469 123 C 497 123 526 123 555 123 C 637 123 715 135 788 159 C 861 183 925 220 980 268 C 1034 316 1077 377 1109 449 C 1141 521 1157 606 1157 702 C 1157 771 1148 833 1131 889 C 1114 944 1091 993 1061 1035 C 1031 1077 995 1112 955 1142 C 915 1172 871 1196 825 1215 C 778 1234 729 1248 678 1257 C 627 1265 576 1270 526 1270 C 502 1270 477 1269 450 1269 C 423 1269 397 1268 373 1266 L 373 784 Z" unicode="Đ" />
<glyph horiz-adv-x="1157" d="M 981 1493 L 981 1274 L 1141 1274 L 1141 1174 L 981 1174 L 981 197 L 989 0 L 831 0 L 825 166 L 821 166 C 805 138 785 112 763 90 C 740 67 715 48 688 32 C 660 16 631 3 600 -5 C 569 -13 537 -18 504 -18 C 479 -18 451 -15 421 -10 C 391 -4 360 5 330 19 C 300 33 270 52 242 76 C 213 100 187 130 165 168 C 143 206 125 251 112 303 C 98 355 92 417 92 489 C 92 562 99 626 113 680 C 127 734 146 781 170 819 C 194 857 221 889 251 914 C 281 938 313 957 345 971 C 377 985 408 994 439 1000 C 470 1005 498 1008 524 1008 C 590 1008 647 992 697 961 C 747 929 788 888 821 836 L 825 836 L 825 1174 L 506 1174 L 506 1274 L 825 1274 L 825 1493 L 981 1493 Z M 545 887 C 527 887 508 884 487 880 C 466 876 445 868 423 858 C 401 847 381 832 361 813 C 341 794 323 770 307 740 C 291 710 279 675 270 634 C 260 592 256 544 256 489 C 256 435 260 389 269 349 C 277 309 289 275 303 247 C 317 218 333 194 352 176 C 370 157 390 142 410 131 C 430 120 451 112 471 108 C 491 104 510 102 528 102 C 564 102 600 109 636 124 C 672 139 704 159 732 184 C 760 209 782 238 799 270 C 816 302 825 336 825 371 L 825 618 C 825 652 817 685 802 717 C 786 749 766 778 740 803 C 714 828 684 848 650 864 C 616 879 581 887 545 887 Z" unicode="đ" />
<glyph horiz-adv-x="1128" d="M 350 784 L 909 784 L 909 649 L 350 649 L 350 133 L 1036 133 L 1036 0 L 190 0 L 190 1389 L 985 1389 L 985 1255 L 350 1255 L 350 784 Z M 844 1688 L 844 1571 L 332 1571 L 332 1688 L 844 1688 Z" unicode="Ē" />
<glyph horiz-adv-x="1040" d="M 905 57 C 859 33 809 15 754 1 C 699 -13 641 -20 580 -20 C 548 -20 514 -17 478 -13 C 442 -9 405 0 369 12 C 333 24 298 42 264 65 C 230 87 201 117 175 154 C 149 190 129 235 113 287 C 97 339 90 401 90 473 C 90 563 102 641 127 709 C 151 776 185 832 227 877 C 269 921 317 955 372 977 C 427 999 485 1010 547 1010 C 575 1010 605 1007 636 1001 C 666 995 696 986 726 973 C 755 960 783 943 810 921 C 836 899 859 871 879 839 C 899 806 914 767 926 722 C 938 677 944 625 944 567 C 944 553 943 540 943 527 C 942 513 941 499 940 485 L 242 485 C 242 431 247 385 258 345 C 268 305 282 271 300 243 C 318 214 338 191 361 173 C 384 155 408 140 433 130 C 458 119 483 112 508 108 C 533 104 557 102 580 102 C 606 102 632 104 660 108 C 687 112 714 117 741 125 C 767 133 793 142 819 152 C 844 162 867 174 889 186 L 905 57 Z M 539 887 C 503 887 469 880 437 868 C 405 856 376 837 351 813 C 325 789 304 758 286 722 C 268 686 256 644 248 596 L 786 596 C 787 648 781 692 768 729 C 754 765 736 795 713 819 C 690 842 663 859 633 870 C 603 881 571 887 539 887 Z M 809 1360 L 809 1243 L 297 1243 L 297 1360 L 809 1360 Z" unicode="ē" />
<glyph horiz-adv-x="1128" d="M 350 784 L 909 784 L 909 649 L 350 649 L 350 133 L 1036 133 L 1036 0 L 190 0 L 190 1389 L 985 1389 L 985 1255 L 350 1255 L 350 784 Z M 428 1819 L 428 1794 C 428 1770 430 1747 436 1727 C 442 1706 451 1688 463 1673 C 475 1657 492 1645 512 1637 C 532 1628 558 1624 588 1624 C 618 1624 643 1628 663 1638 C 683 1648 700 1661 713 1677 C 726 1693 735 1711 741 1731 C 747 1751 750 1772 750 1794 L 750 1819 L 870 1819 L 870 1772 C 870 1736 864 1701 852 1669 C 840 1636 822 1607 798 1583 C 774 1559 745 1539 710 1525 C 675 1510 634 1503 588 1503 C 542 1503 501 1510 467 1524 C 432 1538 403 1557 379 1581 C 355 1605 338 1634 326 1667 C 314 1699 309 1734 309 1772 L 309 1819 L 428 1819 Z" unicode="Ĕ" />
<glyph horiz-adv-x="1040" d="M 905 57 C 859 33 809 15 754 1 C 699 -13 641 -20 580 -20 C 548 -20 514 -17 478 -13 C 442 -9 405 0 369 12 C 333 24 298 42 264 65 C 230 87 201 117 175 154 C 149 190 129 235 113 287 C 97 339 90 401 90 473 C 90 563 102 641 127 709 C 151 776 185 832 227 877 C 269 921 317 955 372 977 C 427 999 485 1010 547 1010 C 575 1010 605 1007 636 1001 C 666 995 696 986 726 973 C 755 960 783 943 810 921 C 836 899 859 871 879 839 C 899 806 914 767 926 722 C 938 677 944 625 944 567 C 944 553 943 540 943 527 C 942 513 941 499 940 485 L 242 485 C 242 431 247 385 258 345 C 268 305 282 271 300 243 C 318 214 338 191 361 173 C 384 155 408 140 433 130 C 458 119 483 112 508 108 C 533 104 557 102 580 102 C 606 102 632 104 660 108 C 687 112 714 117 741 125 C 767 133 793 142 819 152 C 844 162 867 174 889 186 L 905 57 Z M 539 887 C 503 887 469 880 437 868 C 405 856 376 837 351 813 C 325 789 304 758 286 722 C 268 686 256 644 248 596 L 786 596 C 787 648 781 692 768 729 C 754 765 736 795 713 819 C 690 842 663 859 633 870 C 603 881 571 887 539 887 Z M 393 1493 L 393 1448 C 393 1424 395 1401 401 1381 C 407 1360 416 1342 428 1327 C 440 1311 457 1299 477 1291 C 497 1282 523 1278 553 1278 C 583 1278 608 1282 628 1292 C 648 1302 665 1315 678 1331 C 691 1347 700 1365 706 1385 C 712 1405 715 1426 715 1448 L 715 1493 L 835 1493 L 835 1425 C 835 1389 829 1354 817 1322 C 805 1290 787 1261 763 1237 C 739 1213 710 1193 675 1179 C 640 1164 599 1157 553 1157 C 507 1157 466 1164 432 1178 C 397 1192 368 1211 344 1235 C 320 1259 303 1287 291 1320 C 279 1352 274 1387 274 1425 L 274 1493 L 393 1493 Z" unicode="ĕ" />
<glyph horiz-adv-x="1128" d="M 350 784 L 909 784 L 909 649 L 350 649 L 350 133 L 1036 133 L 1036 0 L 190 0 L 190 1389 L 985 1389 L 985 1255 L 350 1255 L 350 784 Z M 670 1759 L 670 1569 L 506 1569 L 506 1759 L 670 1759 Z" unicode="Ė" />
<glyph horiz-adv-x="1040" d="M 905 57 C 859 33 809 15 754 1 C 699 -13 641 -20 580 -20 C 548 -20 514 -17 478 -13 C 442 -9 405 0 369 12 C 333 24 298 42 264 65 C 230 87 201 117 175 154 C 149 190 129 235 113 287 C 97 339 90 401 90 473 C 90 563 102 641 127 709 C 151 776 185 832 227 877 C 269 921 317 955 372 977 C 427 999 485 1010 547 1010 C 575 1010 605 1007 636 1001 C 666 995 696 986 726 973 C 755 960 783 943 810 921 C 836 899 859 871 879 839 C 899 806 914 767 926 722 C 938 677 944 625 944 567 C 944 553 943 540 943 527 C 942 513 941 499 940 485 L 242 485 C 242 431 247 385 258 345 C 268 305 282 271 300 243 C 318 214 338 191 361 173 C 384 155 408 140 433 130 C 458 119 483 112 508 108 C 533 104 557 102 580 102 C 606 102 632 104 660 108 C 687 112 714 117 741 125 C 767 133 793 142 819 152 C 844 162 867 174 889 186 L 905 57 Z M 539 887 C 503 887 469 880 437 868 C 405 856 376 837 351 813 C 325 789 304 758 286 722 C 268 686 256 644 248 596 L 786 596 C 787 648 781 692 768 729 C 754 765 736 795 713 819 C 690 842 663 859 633 870 C 603 881 571 887 539 887 Z M 635 1427 L 635 1237 L 471 1237 L 471 1427 L 635 1427 Z" unicode="ė" />
<glyph horiz-adv-x="1128" d="M 350 784 L 909 784 L 909 649 L 350 649 L 350 133 L 1036 133 L 1036 0 L 1008 0 L 842 -154 C 822 -172 807 -188 797 -203 C 787 -217 782 -234 782 -254 C 782 -271 785 -285 791 -296 C 797 -307 806 -316 816 -323 C 826 -330 837 -335 850 -338 C 862 -340 875 -342 889 -342 C 914 -342 939 -338 964 -331 C 989 -323 1008 -316 1022 -309 L 1036 -416 C 1018 -425 996 -433 970 -441 C 944 -449 913 -453 879 -453 C 843 -453 811 -448 783 -439 C 754 -430 729 -417 708 -401 C 687 -385 671 -365 660 -342 C 648 -318 643 -292 643 -264 C 643 -243 646 -224 652 -207 C 658 -189 666 -173 677 -157 C 687 -141 700 -126 716 -112 C 731 -98 748 -83 768 -68 L 852 0 L 190 0 L 190 1389 L 985 1389 L 985 1255 L 350 1255 L 350 784 Z" unicode="Ę" />
<glyph horiz-adv-x="1040" d="M 905 57 C 881 45 857 34 832 24 C 806 14 780 6 752 0 L 586 -154 C 566 -172 551 -188 541 -203 C 531 -217 526 -234 526 -254 C 526 -271 529 -285 535 -296 C 541 -307 550 -316 560 -323 C 570 -330 581 -335 594 -338 C 606 -340 619 -342 633 -342 C 658 -342 683 -338 708 -331 C 733 -323 752 -316 766 -309 L 780 -416 C 762 -425 740 -433 714 -441 C 688 -449 657 -453 623 -453 C 587 -453 555 -448 527 -439 C 498 -430 473 -417 452 -401 C 431 -385 415 -365 404 -342 C 392 -318 387 -292 387 -264 C 387 -243 389 -224 395 -207 C 401 -189 409 -173 420 -157 C 430 -141 443 -126 459 -112 C 475 -98 492 -83 512 -68 L 569 -23 L 569 -18 C 537 -18 504 -15 468 -11 C 432 -6 397 2 362 15 C 326 27 292 45 260 68 C 227 91 198 121 173 157 C 147 193 127 237 112 289 C 97 341 90 402 90 473 C 90 563 102 641 127 709 C 151 776 185 832 227 877 C 269 921 317 955 372 977 C 427 999 485 1010 547 1010 C 575 1010 605 1007 636 1001 C 666 995 696 986 726 973 C 755 960 783 943 810 921 C 836 899 859 871 879 839 C 899 806 914 767 926 722 C 938 677 944 625 944 567 C 944 553 943 540 943 527 C 942 513 941 499 940 485 L 242 485 C 242 431 247 385 258 345 C 268 305 282 271 300 243 C 318 214 338 191 361 173 C 384 155 408 140 433 130 C 458 119 483 112 508 108 C 533 104 557 102 580 102 C 606 102 632 104 660 108 C 687 112 714 117 741 125 C 767 133 793 142 819 152 C 844 162 867 174 889 186 L 905 57 Z M 539 887 C 503 887 469 880 437 868 C 405 856 376 837 351 813 C 325 789 304 758 286 722 C 268 686 256 644 248 596 L 786 596 C 787 648 781 692 768 729 C 754 765 736 795 713 819 C 690 842 663 859 633 870 C 603 881 571 887 539 887 Z" unicode="ę" />
<glyph horiz-adv-x="1128" d="M 350 784 L 909 784 L 909 649 L 350 649 L 350 133 L 1036 133 L 1036 0 L 190 0 L 190 1389 L 985 1389 L 985 1255 L 350 1255 L 350 784 Z M 496 1540 L 279 1839 L 404 1839 L 582 1642 L 594 1642 L 770 1839 L 897 1839 L 680 1540 L 496 1540 Z" unicode="Ě" />
<glyph horiz-adv-x="1040" d="M 905 57 C 859 33 809 15 754 1 C 699 -13 641 -20 580 -20 C 548 -20 514 -17 478 -13 C 442 -9 405 0 369 12 C 333 24 298 42 264 65 C 230 87 201 117 175 154 C 149 190 129 235 113 287 C 97 339 90 401 90 473 C 90 563 102 641 127 709 C 151 776 185 832 227 877 C 269 921 317 955 372 977 C 427 999 485 1010 547 1010 C 575 1010 605 1007 636 1001 C 666 995 696 986 726 973 C 755 960 783 943 810 921 C 836 899 859 871 879 839 C 899 806 914 767 926 722 C 938 677 944 625 944 567 C 944 553 943 540 943 527 C 942 513 941 499 940 485 L 242 485 C 242 431 247 385 258 345 C 268 305 282 271 300 243 C 318 214 338 191 361 173 C 384 155 408 140 433 130 C 458 119 483 112 508 108 C 533 104 557 102 580 102 C 606 102 632 104 660 108 C 687 112 714 117 741 125 C 767 133 793 142 819 152 C 844 162 867 174 889 186 L 905 57 Z M 539 887 C 503 887 469 880 437 868 C 405 856 376 837 351 813 C 325 789 304 758 286 722 C 268 686 256 644 248 596 L 786 596 C 787 648 781 692 768 729 C 754 765 736 795 713 819 C 690 842 663 859 633 870 C 603 881 571 887 539 887 Z M 461 1174 L 244 1493 L 369 1493 L 547 1276 L 559 1276 L 735 1493 L 862 1493 L 645 1174 L 461 1174 Z" unicode="ě" />
<glyph horiz-adv-x="1434" d="M 774 743 L 1270 743 L 1270 61 C 1244 48 1213 37 1177 27 C 1141 17 1103 8 1063 1 C 1023 -5 982 -10 941 -14 C 900 -18 861 -20 825 -20 C 714 -20 615 -3 527 30 C 439 64 364 111 303 172 C 241 233 194 306 162 391 C 129 476 113 570 113 674 C 113 777 129 873 162 963 C 195 1052 243 1130 306 1196 C 368 1262 445 1314 537 1352 C 628 1390 732 1409 848 1409 C 878 1409 911 1407 946 1404 C 980 1401 1015 1397 1050 1391 C 1085 1385 1119 1377 1152 1368 C 1185 1359 1215 1349 1243 1337 L 1227 1186 C 1199 1198 1170 1209 1138 1219 C 1106 1229 1073 1238 1039 1245 C 1005 1252 971 1258 937 1262 C 903 1266 870 1268 838 1268 C 750 1268 671 1253 602 1223 C 532 1193 474 1151 427 1098 C 379 1045 343 982 318 910 C 293 837 281 758 281 674 C 281 589 293 513 318 445 C 342 377 378 319 425 271 C 471 223 528 186 596 160 C 663 134 739 121 825 121 C 849 121 874 122 900 124 C 926 126 952 128 978 132 C 1003 135 1027 139 1051 144 C 1074 148 1094 154 1112 160 L 1112 608 L 774 608 L 774 743 Z M 881 1839 L 1098 1540 L 971 1540 L 795 1737 L 783 1737 L 605 1540 L 480 1540 L 697 1839 L 881 1839 Z" unicode="Ĝ" />
<glyph horiz-adv-x="1087" d="M 133 668 C 133 713 141 756 158 798 C 175 839 200 875 233 907 C 265 938 305 963 351 982 C 397 1000 450 1010 510 1010 C 570 1010 624 1000 674 980 C 723 960 765 932 799 897 C 827 931 863 958 905 978 C 947 998 995 1008 1047 1008 L 1047 866 C 1013 866 979 862 945 854 C 911 846 881 832 856 813 C 866 791 874 768 880 744 C 886 720 889 694 889 668 C 889 620 880 576 862 534 C 844 492 819 456 786 425 C 753 393 713 369 666 351 C 619 333 566 324 508 324 C 466 324 428 328 393 337 C 358 345 327 358 299 375 C 282 357 270 338 264 318 C 257 297 254 278 254 262 C 254 233 262 211 279 195 C 296 179 321 167 353 159 C 385 151 423 145 469 143 C 514 140 565 138 623 137 C 653 136 685 135 719 133 C 753 131 786 128 818 123 C 850 117 880 110 909 100 C 937 90 962 76 984 59 C 1006 42 1023 21 1036 -4 C 1048 -30 1055 -61 1055 -98 C 1055 -140 1047 -177 1032 -210 C 1017 -242 996 -271 970 -296 C 944 -320 913 -341 879 -358 C 844 -375 807 -389 767 -400 C 727 -410 686 -418 644 -423 C 602 -427 560 -430 520 -430 C 447 -430 383 -424 328 -412 C 273 -400 227 -383 191 -362 C 154 -341 126 -316 108 -287 C 89 -258 80 -227 80 -193 C 80 -145 97 -100 131 -60 C 165 -19 213 13 276 39 L 276 43 C 254 49 233 57 214 68 C 194 79 177 93 163 109 C 149 125 137 143 129 164 C 121 185 117 209 117 236 C 117 276 126 313 144 349 C 162 384 186 416 215 444 C 188 474 168 508 154 547 C 140 585 133 626 133 668 Z M 412 10 C 388 2 366 -8 345 -20 C 324 -32 306 -46 290 -62 C 274 -77 261 -94 252 -112 C 242 -130 238 -149 238 -170 C 238 -191 243 -211 255 -229 C 266 -247 283 -262 307 -275 C 331 -288 361 -298 398 -306 C 434 -313 478 -317 530 -317 C 576 -317 621 -313 665 -306 C 709 -298 748 -287 783 -271 C 817 -255 845 -235 867 -210 C 888 -185 899 -155 899 -119 C 899 -87 889 -62 870 -45 C 850 -28 821 -16 781 -8 C 741 0 691 4 630 6 C 568 8 496 9 412 10 Z M 512 436 C 549 436 582 442 610 454 C 638 466 662 483 681 504 C 700 525 714 549 724 577 C 734 605 739 634 739 666 C 739 698 733 729 723 757 C 713 785 698 810 678 831 C 658 852 634 869 606 881 C 578 893 546 899 510 899 C 471 899 437 892 409 879 C 381 865 357 848 339 826 C 321 804 307 778 298 749 C 289 720 285 690 285 659 C 285 625 290 595 300 568 C 310 540 325 517 345 497 C 365 477 389 462 417 452 C 445 441 476 436 512 436 Z M 633 1493 L 844 1174 L 717 1174 L 547 1391 L 535 1391 L 363 1174 L 238 1174 L 449 1493 L 633 1493 Z" unicode="ĝ" />
<glyph horiz-adv-x="1434" d="M 774 743 L 1270 743 L 1270 61 C 1244 48 1213 37 1177 27 C 1141 17 1103 8 1063 1 C 1023 -5 982 -10 941 -14 C 900 -18 861 -20 825 -20 C 714 -20 615 -3 527 30 C 439 64 364 111 303 172 C 241 233 194 306 162 391 C 129 476 113 570 113 674 C 113 777 129 873 162 963 C 195 1052 243 1130 306 1196 C 368 1262 445 1314 537 1352 C 628 1390 732 1409 848 1409 C 878 1409 911 1407 946 1404 C 980 1401 1015 1397 1050 1391 C 1085 1385 1119 1377 1152 1368 C 1185 1359 1215 1349 1243 1337 L 1227 1186 C 1199 1198 1170 1209 1138 1219 C 1106 1229 1073 1238 1039 1245 C 1005 1252 971 1258 937 1262 C 903 1266 870 1268 838 1268 C 750 1268 671 1253 602 1223 C 532 1193 474 1151 427 1098 C 379 1045 343 982 318 910 C 293 837 281 758 281 674 C 281 589 293 513 318 445 C 342 377 378 319 425 271 C 471 223 528 186 596 160 C 663 134 739 121 825 121 C 849 121 874 122 900 124 C 926 126 952 128 978 132 C 1003 135 1027 139 1051 144 C 1074 148 1094 154 1112 160 L 1112 608 L 774 608 L 774 743 Z M 629 1819 L 629 1794 C 629 1770 631 1747 637 1727 C 643 1706 652 1688 664 1673 C 676 1657 693 1645 713 1637 C 733 1628 759 1624 789 1624 C 819 1624 844 1628 864 1638 C 884 1648 901 1661 914 1677 C 927 1693 936 1711 942 1731 C 948 1751 951 1772 951 1794 L 951 1819 L 1071 1819 L 1071 1772 C 1071 1736 1065 1701 1053 1669 C 1041 1636 1023 1607 999 1583 C 975 1559 946 1539 911 1525 C 876 1510 835 1503 789 1503 C 743 1503 702 1510 668 1524 C 633 1538 604 1557 580 1581 C 556 1605 539 1634 527 1667 C 515 1699 510 1734 510 1772 L 510 1819 L 629 1819 Z" unicode="Ğ" />
<glyph horiz-adv-x="1087" d="M 133 668 C 133 713 141 756 158 798 C 175 839 200 875 233 907 C 265 938 305 963 351 982 C 397 1000 450 1010 510 1010 C 570 1010 624 1000 674 980 C 723 960 765 932 799 897 C 827 931 863 958 905 978 C 947 998 995 1008 1047 1008 L 1047 866 C 1013 866 979 862 945 854 C 911 846 881 832 856 813 C 866 791 874 768 880 744 C 886 720 889 694 889 668 C 889 620 880 576 862 534 C 844 492 819 456 786 425 C 753 393 713 369 666 351 C 619 333 566 324 508 324 C 466 324 428 328 393 337 C 358 345 327 358 299 375 C 282 357 270 338 264 318 C 257 297 254 278 254 262 C 254 233 262 211 279 195 C 296 179 321 167 353 159 C 385 151 423 145 469 143 C 514 140 565 138 623 137 C 653 136 685 135 719 133 C 753 131 786 128 818 123 C 850 117 880 110 909 100 C 937 90 962 76 984 59 C 1006 42 1023 21 1036 -4 C 1048 -30 1055 -61 1055 -98 C 1055 -140 1047 -177 1032 -210 C 1017 -242 996 -271 970 -296 C 944 -320 913 -341 879 -358 C 844 -375 807 -389 767 -400 C 727 -410 686 -418 644 -423 C 602 -427 560 -430 520 -430 C 447 -430 383 -424 328 -412 C 273 -400 227 -383 191 -362 C 154 -341 126 -316 108 -287 C 89 -258 80 -227 80 -193 C 80 -145 97 -100 131 -60 C 165 -19 213 13 276 39 L 276 43 C 254 49 233 57 214 68 C 194 79 177 93 163 109 C 149 125 137 143 129 164 C 121 185 117 209 117 236 C 117 276 126 313 144 349 C 162 384 186 416 215 444 C 188 474 168 508 154 547 C 140 585 133 626 133 668 Z M 412 10 C 388 2 366 -8 345 -20 C 324 -32 306 -46 290 -62 C 274 -77 261 -94 252 -112 C 242 -130 238 -149 238 -170 C 238 -191 243 -211 255 -229 C 266 -247 283 -262 307 -275 C 331 -288 361 -298 398 -306 C 434 -313 478 -317 530 -317 C 576 -317 621 -313 665 -306 C 709 -298 748 -287 783 -271 C 817 -255 845 -235 867 -210 C 888 -185 899 -155 899 -119 C 899 -87 889 -62 870 -45 C 850 -28 821 -16 781 -8 C 741 0 691 4 630 6 C 568 8 496 9 412 10 Z M 512 436 C 549 436 582 442 610 454 C 638 466 662 483 681 504 C 700 525 714 549 724 577 C 734 605 739 634 739 666 C 739 698 733 729 723 757 C 713 785 698 810 678 831 C 658 852 634 869 606 881 C 578 893 546 899 510 899 C 471 899 437 892 409 879 C 381 865 357 848 339 826 C 321 804 307 778 298 749 C 289 720 285 690 285 659 C 285 625 290 595 300 568 C 310 540 325 517 345 497 C 365 477 389 462 417 452 C 445 441 476 436 512 436 Z M 381 1493 L 381 1448 C 381 1424 383 1401 389 1381 C 395 1360 404 1342 416 1327 C 428 1311 445 1299 465 1291 C 485 1282 511 1278 541 1278 C 571 1278 596 1282 616 1292 C 636 1302 653 1315 666 1331 C 679 1347 688 1365 694 1385 C 700 1405 703 1426 703 1448 L 703 1493 L 823 1493 L 823 1425 C 823 1389 817 1354 805 1322 C 793 1290 775 1261 751 1237 C 727 1213 698 1193 663 1179 C 628 1164 587 1157 541 1157 C 495 1157 454 1164 420 1178 C 385 1192 356 1211 332 1235 C 308 1259 291 1287 279 1320 C 267 1352 262 1387 262 1425 L 262 1493 L 381 1493 Z" unicode="ğ" />
<glyph horiz-adv-x="1434" d="M 774 743 L 1270 743 L 1270 61 C 1244 48 1213 37 1177 27 C 1141 17 1103 8 1063 1 C 1023 -5 982 -10 941 -14 C 900 -18 861 -20 825 -20 C 714 -20 615 -3 527 30 C 439 64 364 111 303 172 C 241 233 194 306 162 391 C 129 476 113 570 113 674 C 113 777 129 873 162 963 C 195 1052 243 1130 306 1196 C 368 1262 445 1314 537 1352 C 628 1390 732 1409 848 1409 C 878 1409 911 1407 946 1404 C 980 1401 1015 1397 1050 1391 C 1085 1385 1119 1377 1152 1368 C 1185 1359 1215 1349 1243 1337 L 1227 1186 C 1199 1198 1170 1209 1138 1219 C 1106 1229 1073 1238 1039 1245 C 1005 1252 971 1258 937 1262 C 903 1266 870 1268 838 1268 C 750 1268 671 1253 602 1223 C 532 1193 474 1151 427 1098 C 379 1045 343 982 318 910 C 293 837 281 758 281 674 C 281 589 293 513 318 445 C 342 377 378 319 425 271 C 471 223 528 186 596 160 C 663 134 739 121 825 121 C 849 121 874 122 900 124 C 926 126 952 128 978 132 C 1003 135 1027 139 1051 144 C 1074 148 1094 154 1112 160 L 1112 608 L 774 608 L 774 743 Z M 871 1759 L 871 1569 L 707 1569 L 707 1759 L 871 1759 Z" unicode="Ġ" />
<glyph horiz-adv-x="1087" d="M 133 668 C 133 713 141 756 158 798 C 175 839 200 875 233 907 C 265 938 305 963 351 982 C 397 1000 450 1010 510 1010 C 570 1010 624 1000 674 980 C 723 960 765 932 799 897 C 827 931 863 958 905 978 C 947 998 995 1008 1047 1008 L 1047 866 C 1013 866 979 862 945 854 C 911 846 881 832 856 813 C 866 791 874 768 880 744 C 886 720 889 694 889 668 C 889 620 880 576 862 534 C 844 492 819 456 786 425 C 753 393 713 369 666 351 C 619 333 566 324 508 324 C 466 324 428 328 393 337 C 358 345 327 358 299 375 C 282 357 270 338 264 318 C 257 297 254 278 254 262 C 254 233 262 211 279 195 C 296 179 321 167 353 159 C 385 151 423 145 469 143 C 514 140 565 138 623 137 C 653 136 685 135 719 133 C 753 131 786 128 818 123 C 850 117 880 110 909 100 C 937 90 962 76 984 59 C 1006 42 1023 21 1036 -4 C 1048 -30 1055 -61 1055 -98 C 1055 -140 1047 -177 1032 -210 C 1017 -242 996 -271 970 -296 C 944 -320 913 -341 879 -358 C 844 -375 807 -389 767 -400 C 727 -410 686 -418 644 -423 C 602 -427 560 -430 520 -430 C 447 -430 383 -424 328 -412 C 273 -400 227 -383 191 -362 C 154 -341 126 -316 108 -287 C 89 -258 80 -227 80 -193 C 80 -145 97 -100 131 -60 C 165 -19 213 13 276 39 L 276 43 C 254 49 233 57 214 68 C 194 79 177 93 163 109 C 149 125 137 143 129 164 C 121 185 117 209 117 236 C 117 276 126 313 144 349 C 162 384 186 416 215 444 C 188 474 168 508 154 547 C 140 585 133 626 133 668 Z M 412 10 C 388 2 366 -8 345 -20 C 324 -32 306 -46 290 -62 C 274 -77 261 -94 252 -112 C 242 -130 238 -149 238 -170 C 238 -191 243 -211 255 -229 C 266 -247 283 -262 307 -275 C 331 -288 361 -298 398 -306 C 434 -313 478 -317 530 -317 C 576 -317 621 -313 665 -306 C 709 -298 748 -287 783 -271 C 817 -255 845 -235 867 -210 C 888 -185 899 -155 899 -119 C 899 -87 889 -62 870 -45 C 850 -28 821 -16 781 -8 C 741 0 691 4 630 6 C 568 8 496 9 412 10 Z M 512 436 C 549 436 582 442 610 454 C 638 466 662 483 681 504 C 700 525 714 549 724 577 C 734 605 739 634 739 666 C 739 698 733 729 723 757 C 713 785 698 810 678 831 C 658 852 634 869 606 881 C 578 893 546 899 510 899 C 471 899 437 892 409 879 C 381 865 357 848 339 826 C 321 804 307 778 298 749 C 289 720 285 690 285 659 C 285 625 290 595 300 568 C 310 540 325 517 345 497 C 365 477 389 462 417 452 C 445 441 476 436 512 436 Z M 623 1427 L 623 1237 L 459 1237 L 459 1427 L 623 1427 Z" unicode="ġ" />
<glyph horiz-adv-x="1434" d="M 774 743 L 1270 743 L 1270 61 C 1244 48 1213 37 1177 27 C 1141 17 1103 8 1063 1 C 1023 -5 982 -10 941 -14 C 900 -18 861 -20 825 -20 C 714 -20 615 -3 527 30 C 439 64 364 111 303 172 C 241 233 194 306 162 391 C 129 476 113 570 113 674 C 113 777 129 873 162 963 C 195 1052 243 1130 306 1196 C 368 1262 445 1314 537 1352 C 628 1390 732 1409 848 1409 C 878 1409 911 1407 946 1404 C 980 1401 1015 1397 1050 1391 C 1085 1385 1119 1377 1152 1368 C 1185 1359 1215 1349 1243 1337 L 1227 1186 C 1199 1198 1170 1209 1138 1219 C 1106 1229 1073 1238 1039 1245 C 1005 1252 971 1258 937 1262 C 903 1266 870 1268 838 1268 C 750 1268 671 1253 602 1223 C 532 1193 474 1151 427 1098 C 379 1045 343 982 318 910 C 293 837 281 758 281 674 C 281 589 293 513 318 445 C 342 377 378 319 425 271 C 471 223 528 186 596 160 C 663 134 739 121 825 121 C 849 121 874 122 900 124 C 926 126 952 128 978 132 C 1003 135 1027 139 1051 144 C 1074 148 1094 154 1112 160 L 1112 608 L 774 608 L 774 743 Z M 920 -113 L 705 -432 L 578 -432 L 736 -113 L 920 -113 Z" unicode="Ģ" />
<glyph horiz-adv-x="1087" d="M 401 1174 L 616 1493 L 743 1493 L 588 1174 L 401 1174 Z M 133 668 C 133 713 141 756 158 798 C 175 839 200 875 233 907 C 265 938 305 963 351 982 C 397 1000 450 1010 510 1010 C 570 1010 624 1000 674 980 C 723 960 765 932 799 897 C 827 931 863 958 905 978 C 947 998 995 1008 1047 1008 L 1047 866 C 1013 866 979 862 945 854 C 911 846 881 832 856 813 C 866 791 874 768 880 744 C 886 720 889 694 889 668 C 889 620 880 576 862 534 C 844 492 819 456 786 425 C 753 393 713 369 666 351 C 619 333 566 324 508 324 C 466 324 428 328 393 337 C 358 345 327 358 299 375 C 282 357 270 338 264 318 C 257 297 254 278 254 262 C 254 233 262 211 279 195 C 296 179 321 167 353 159 C 385 151 423 145 469 143 C 514 140 565 138 623 137 C 653 136 685 135 719 133 C 753 131 786 128 818 123 C 850 117 880 110 909 100 C 937 90 962 76 984 59 C 1006 42 1023 21 1036 -4 C 1048 -30 1055 -61 1055 -98 C 1055 -140 1047 -177 1032 -210 C 1017 -242 996 -271 970 -296 C 944 -320 913 -341 879 -358 C 844 -375 807 -389 767 -400 C 727 -410 686 -418 644 -423 C 602 -427 560 -430 520 -430 C 447 -430 383 -424 328 -412 C 273 -400 227 -383 191 -362 C 154 -341 126 -316 108 -287 C 89 -258 80 -227 80 -193 C 80 -145 97 -100 131 -60 C 165 -19 213 13 276 39 L 276 43 C 254 49 233 57 214 68 C 194 79 177 93 163 109 C 149 125 137 143 129 164 C 121 185 117 209 117 236 C 117 276 126 313 144 349 C 162 384 186 416 215 444 C 188 474 168 508 154 547 C 140 585 133 626 133 668 Z M 412 10 C 388 2 366 -8 345 -20 C 324 -32 306 -46 290 -62 C 274 -77 261 -94 252 -112 C 242 -130 238 -149 238 -170 C 238 -191 243 -211 255 -229 C 266 -247 283 -262 307 -275 C 331 -288 361 -298 398 -306 C 434 -313 478 -317 530 -317 C 576 -317 621 -313 665 -306 C 709 -298 748 -287 783 -271 C 817 -255 845 -235 867 -210 C 888 -185 899 -155 899 -119 C 899 -87 889 -62 870 -45 C 850 -28 821 -16 781 -8 C 741 0 691 4 630 6 C 568 8 496 9 412 10 Z M 512 436 C 549 436 582 442 610 454 C 638 466 662 483 681 504 C 700 525 714 549 724 577 C 734 605 739 634 739 666 C 739 698 733 729 723 757 C 713 785 698 810 678 831 C 658 852 634 869 606 881 C 578 893 546 899 510 899 C 471 899 437 892 409 879 C 381 865 357 848 339 826 C 321 804 307 778 298 749 C 289 720 285 690 285 659 C 285 625 290 595 300 568 C 310 540 325 517 345 497 C 365 477 389 462 417 452 C 445 441 476 436 512 436 Z" unicode="ģ" />
<glyph horiz-adv-x="1468" d="M 350 1389 L 350 784 L 1118 784 L 1118 1389 L 1276 1389 L 1276 0 L 1118 0 L 1118 649 L 350 649 L 350 0 L 190 0 L 190 1389 L 350 1389 Z M 825 1839 L 1042 1540 L 915 1540 L 739 1737 L 727 1737 L 549 1540 L 424 1540 L 641 1839 L 825 1839 Z" unicode="Ĥ" />
<glyph horiz-adv-x="1116" d="M 319 1493 L 319 827 L 324 827 C 365 891 412 938 464 967 C 516 995 576 1010 643 1010 C 701 1010 751 1001 793 984 C 834 966 868 942 894 912 C 920 881 939 845 951 803 C 963 761 969 716 969 668 L 969 0 L 815 0 L 815 662 C 815 692 811 721 805 748 C 798 775 787 799 771 819 C 755 839 735 855 710 867 C 684 879 653 885 616 885 C 582 885 547 877 512 863 C 476 849 444 830 416 806 C 387 782 364 754 346 722 C 328 690 319 657 319 623 L 319 0 L 164 0 L 164 1493 L 319 1493 Z M 412 1900 L 629 1601 L 502 1601 L 326 1798 L 314 1798 L 136 1601 L 11 1601 L 228 1900 L 412 1900 Z" unicode="ĥ" />
<glyph horiz-adv-x="1481" d="M 356 1389 L 356 1137 L 1124 1137 L 1124 1389 L 1282 1389 L 1282 1137 L 1470 1137 L 1470 1020 L 1282 1020 L 1282 0 L 1124 0 L 1124 649 L 356 649 L 356 0 L 197 0 L 197 1020 L 8 1020 L 8 1137 L 197 1137 L 197 1389 L 356 1389 Z M 1124 784 L 1124 1020 L 356 1020 L 356 784 L 1124 784 Z" unicode="Ħ" />
<glyph horiz-adv-x="1130" d="M 334 1493 L 334 1274 L 651 1274 L 651 1174 L 334 1174 L 334 827 L 338 827 C 379 891 426 938 478 967 C 530 995 590 1010 657 1010 C 715 1010 765 1001 807 984 C 848 966 882 942 908 912 C 934 881 953 845 965 803 C 977 761 983 716 983 668 L 983 0 L 829 0 L 829 662 C 829 692 825 721 819 748 C 812 775 801 799 786 819 C 770 839 750 855 725 867 C 699 879 668 885 631 885 C 597 885 562 877 527 863 C 491 849 459 830 431 806 C 402 782 379 754 361 722 C 343 690 334 657 334 623 L 334 0 L 178 0 L 178 1174 L 18 1174 L 18 1274 L 178 1274 L 178 1493 L 334 1493 Z" unicode="ħ" />
<glyph horiz-adv-x="541" d="M 350 1389 L 350 0 L 190 0 L 190 1389 L 350 1389 Z M -102 1540 C -102 1587 -96 1630 -85 1668 C -74 1706 -59 1738 -39 1764 C -19 1790 3 1811 30 1825 C 56 1839 85 1847 117 1847 C 143 1847 171 1840 200 1827 C 228 1814 259 1789 293 1753 L 336 1704 C 340 1698 346 1691 353 1685 C 359 1679 367 1673 375 1668 C 383 1662 391 1658 400 1654 C 408 1650 418 1649 428 1649 C 444 1649 459 1654 472 1665 C 485 1675 496 1689 504 1707 C 512 1725 519 1745 523 1768 C 527 1790 530 1814 530 1839 L 643 1839 C 643 1792 637 1750 626 1712 C 615 1674 600 1642 580 1616 C 560 1589 537 1568 510 1554 C 482 1539 452 1532 420 1532 C 390 1532 361 1539 334 1553 C 306 1567 278 1591 250 1624 L 207 1673 C 193 1688 178 1701 162 1713 C 146 1725 129 1731 111 1731 C 93 1731 78 1725 65 1714 C 52 1703 41 1689 33 1671 C 24 1653 18 1633 14 1610 C 10 1587 8 1564 8 1540 L -102 1540 Z" unicode="Ĩ" />
<glyph horiz-adv-x="487" d="M 322 989 L 322 0 L 166 0 L 166 989 L 322 989 Z M -129 1174 C -129 1224 -123 1270 -113 1311 C -102 1352 -87 1387 -68 1416 C -49 1445 -27 1467 -1 1483 C 25 1499 53 1507 84 1507 C 118 1507 148 1497 174 1479 C 200 1461 229 1435 260 1403 L 311 1348 C 325 1332 341 1318 357 1305 C 373 1292 390 1286 408 1286 C 424 1286 438 1292 450 1304 C 462 1316 473 1332 481 1352 C 489 1371 496 1393 501 1418 C 505 1442 508 1467 508 1493 L 616 1493 C 616 1443 610 1397 600 1356 C 589 1315 574 1280 555 1251 C 535 1222 512 1200 486 1184 C 460 1168 431 1161 399 1161 C 366 1161 337 1169 311 1187 C 285 1205 256 1230 225 1264 L 174 1319 C 160 1333 147 1346 133 1357 C 119 1368 102 1374 84 1374 C 66 1374 50 1368 37 1357 C 24 1346 13 1331 5 1313 C -3 1295 -10 1274 -14 1250 C -18 1226 -20 1200 -20 1174 L -129 1174 Z" unicode="ĩ" />
<glyph horiz-adv-x="541" d="M 350 1389 L 350 0 L 190 0 L 190 1389 L 350 1389 Z M 526 1688 L 526 1571 L 14 1571 L 14 1688 L 526 1688 Z" unicode="Ī" />
<glyph horiz-adv-x="487" d="M 322 989 L 322 0 L 166 0 L 166 989 L 322 989 Z M 500 1360 L 500 1243 L -12 1243 L -12 1360 L 500 1360 Z" unicode="ī" />
<glyph horiz-adv-x="541" d="M 350 1389 L 350 0 L 190 0 L 190 1389 L 350 1389 Z M 111 1819 L 111 1794 C 111 1770 113 1747 119 1727 C 124 1706 133 1688 146 1673 C 158 1657 175 1645 195 1637 C 215 1628 240 1624 270 1624 C 300 1624 325 1628 345 1638 C 365 1648 382 1661 395 1677 C 408 1693 417 1711 423 1731 C 429 1751 432 1772 432 1794 L 432 1819 L 553 1819 L 553 1772 C 553 1736 547 1701 535 1669 C 523 1636 505 1607 481 1583 C 457 1559 428 1539 393 1525 C 357 1510 316 1503 270 1503 C 224 1503 183 1510 149 1524 C 114 1538 85 1557 62 1581 C 38 1605 21 1634 9 1667 C -2 1699 -8 1734 -8 1772 L -8 1819 L 111 1819 Z" unicode="Ĭ" />
<glyph horiz-adv-x="487" d="M 322 989 L 322 0 L 166 0 L 166 989 L 322 989 Z M 82 1493 L 82 1448 C 82 1424 84 1401 90 1381 C 96 1360 105 1342 118 1327 C 131 1311 148 1299 168 1291 C 188 1282 214 1278 244 1278 C 273 1278 298 1282 319 1292 C 339 1302 356 1315 369 1331 C 382 1347 391 1365 397 1385 C 403 1405 406 1426 406 1448 L 406 1493 L 526 1493 L 526 1425 C 526 1389 520 1354 508 1322 C 496 1290 478 1261 454 1237 C 430 1213 400 1193 365 1179 C 330 1164 290 1157 244 1157 C 198 1157 157 1164 122 1178 C 87 1192 58 1211 35 1235 C 11 1259 -5 1287 -17 1320 C -29 1352 -35 1387 -35 1425 L -35 1493 L 82 1493 Z" unicode="ĭ" />
<glyph horiz-adv-x="541" d="M 184 -154 C 164 -172 150 -188 140 -203 C 130 -217 125 -234 125 -254 C 125 -271 128 -285 134 -296 C 140 -307 148 -316 158 -323 C 168 -330 179 -335 192 -338 C 204 -340 217 -342 231 -342 C 243 -342 256 -341 270 -339 C 283 -337 295 -334 307 -331 C 319 -327 330 -324 340 -320 C 350 -316 358 -313 365 -309 L 379 -416 C 361 -425 339 -433 313 -441 C 287 -449 256 -453 221 -453 C 186 -453 154 -448 125 -439 C 96 -430 71 -417 51 -401 C 30 -385 14 -365 3 -342 C -8 -318 -14 -292 -14 -264 C -14 -243 -11 -224 -5 -207 C 1 -189 9 -173 20 -157 C 30 -141 43 -126 59 -112 C 74 -98 91 -83 111 -68 L 190 -4 L 190 1389 L 350 1389 L 350 0 L 184 -154 Z" unicode="Į" />
<glyph horiz-adv-x="487" d="M 156 -154 C 136 -172 121 -188 111 -203 C 101 -217 96 -234 96 -254 C 96 -271 99 -285 105 -296 C 111 -307 120 -316 130 -323 C 140 -330 151 -335 164 -338 C 176 -340 189 -342 203 -342 C 228 -342 253 -338 278 -331 C 303 -323 322 -316 336 -309 L 350 -416 C 332 -425 310 -433 284 -441 C 258 -449 227 -453 193 -453 C 157 -453 125 -448 97 -439 C 68 -430 43 -417 22 -401 C 1 -385 -14 -365 -26 -342 C -37 -318 -43 -292 -43 -264 C -43 -243 -40 -224 -34 -207 C -28 -189 -19 -173 -9 -157 C 1 -141 14 -126 30 -112 C 45 -98 62 -83 82 -68 L 166 0 L 166 989 L 322 989 L 322 0 L 156 -154 Z M 326 1427 L 326 1237 L 162 1237 L 162 1427 L 326 1427 Z" unicode="į" />
<glyph horiz-adv-x="541" d="M 350 1759 L 350 1569 L 190 1569 L 190 1759 L 350 1759 Z M 350 1389 L 350 0 L 190 0 L 190 1389 L 350 1389 Z" unicode="İ" />
<glyph horiz-adv-x="487" d="M 322 989 L 322 0 L 166 0 L 166 989 L 322 989 Z" unicode="ı" />
<glyph horiz-adv-x="1470" d="M 350 1389 L 350 0 L 190 0 L 190 1389 L 350 1389 Z M 600 184 C 614 176 632 169 654 162 C 675 155 698 149 722 143 C 746 137 771 132 797 128 C 823 124 847 123 871 123 C 911 123 947 129 981 141 C 1014 153 1043 172 1067 199 C 1091 226 1109 261 1123 304 C 1136 347 1143 400 1143 463 L 1143 1389 L 1301 1389 L 1301 455 C 1301 373 1290 302 1270 242 C 1249 182 1220 133 1182 94 C 1144 55 1098 26 1045 8 C 991 -10 932 -20 867 -20 C 843 -20 817 -18 791 -16 C 764 -14 738 -10 713 -6 C 687 -1 663 4 641 11 C 619 18 600 27 584 37 L 600 184 Z" unicode="Ĳ" />
<glyph horiz-adv-x="967" d="M 322 989 L 322 0 L 166 0 L 166 989 L 322 989 Z M 326 1427 L 326 1237 L 162 1237 L 162 1427 L 326 1427 Z M 803 989 L 803 -102 C 803 -148 798 -191 789 -229 C 779 -267 764 -300 742 -327 C 720 -354 692 -375 656 -390 C 620 -404 576 -412 524 -412 C 516 -412 506 -412 495 -412 C 484 -412 476 -411 471 -410 L 471 -276 L 506 -276 C 557 -276 593 -261 615 -233 C 636 -205 647 -160 647 -100 L 647 989 L 803 989 Z M 807 1427 L 807 1237 L 643 1237 L 643 1427 L 807 1427 Z" unicode="ĳ" />
<glyph horiz-adv-x="930" d="M 59 184 C 73 176 91 169 113 162 C 134 155 157 149 181 143 C 205 137 230 132 256 128 C 282 124 306 123 330 123 C 370 123 406 129 440 141 C 473 153 502 172 526 199 C 550 226 568 261 582 304 C 595 347 602 400 602 463 L 602 1389 L 760 1389 L 760 455 C 760 373 749 302 729 242 C 708 182 679 133 641 94 C 603 55 557 26 504 8 C 450 -10 391 -20 326 -20 C 302 -20 276 -18 250 -16 C 223 -14 197 -10 172 -6 C 146 -1 122 4 100 11 C 78 18 59 27 43 37 L 59 184 Z M 772 1839 L 989 1540 L 862 1540 L 686 1737 L 674 1737 L 496 1540 L 371 1540 L 588 1839 L 772 1839 Z" unicode="Ĵ" />
<glyph horiz-adv-x="496" d="M 332 989 L 332 -102 C 332 -148 327 -191 318 -229 C 308 -267 293 -300 271 -327 C 249 -354 221 -375 185 -390 C 149 -404 105 -412 53 -412 C 45 -412 35 -412 24 -412 C 13 -412 5 -411 0 -410 L 0 -276 L 35 -276 C 86 -276 122 -261 144 -233 C 165 -205 176 -160 176 -100 L 176 989 L 332 989 Z M 340 1493 L 551 1174 L 424 1174 L 254 1391 L 242 1391 L 70 1174 L -55 1174 L 156 1493 L 340 1493 Z" unicode="ĵ" />
<glyph horiz-adv-x="1305" d="M 633 827 L 1309 0 L 1094 0 L 516 719 L 350 565 L 350 0 L 190 0 L 190 1389 L 350 1389 L 350 745 L 1012 1389 L 1223 1389 L 633 827 Z M 817 -113 L 602 -432 L 475 -432 L 633 -113 L 817 -113 Z" unicode="Ķ" />
<glyph horiz-adv-x="1016" d="M 948 989 L 547 610 L 1016 0 L 819 0 L 434 508 L 319 399 L 319 0 L 164 0 L 164 1493 L 319 1493 L 319 561 L 754 989 L 948 989 Z M 680 -113 L 465 -432 L 338 -432 L 496 -113 L 680 -113 Z" unicode="ķ" />
<glyph horiz-adv-x="1016" d="M 948 989 L 547 610 L 1016 0 L 819 0 L 434 508 L 319 399 L 319 0 L 164 0 L 164 989 L 319 989 L 319 561 L 754 989 L 948 989 Z" unicode="ĸ" />
<glyph horiz-adv-x="1024" d="M 350 1389 L 350 133 L 979 133 L 979 0 L 190 0 L 190 1389 L 350 1389 Z M 544 1839 L 286 1540 L 141 1540 L 350 1839 L 544 1839 Z" unicode="Ĺ" />
<glyph horiz-adv-x="500" d="M 328 1493 L 328 0 L 172 0 L 172 1493 L 328 1493 Z M 524 1901 L 266 1602 L 121 1602 L 330 1901 L 524 1901 Z" unicode="ĺ" />
<glyph horiz-adv-x="1024" d="M 350 1389 L 350 133 L 979 133 L 979 0 L 190 0 L 190 1389 L 350 1389 Z M 678 -113 L 463 -432 L 336 -432 L 494 -113 L 678 -113 Z" unicode="Ļ" />
<glyph horiz-adv-x="500" d="M 328 1493 L 328 0 L 172 0 L 172 1493 L 328 1493 Z M 381 -113 L 166 -432 L 39 -432 L 197 -113 L 381 -113 Z" unicode="ļ" />
<glyph horiz-adv-x="1024" d="M 350 1389 L 350 133 L 979 133 L 979 0 L 190 0 L 190 1389 L 350 1389 Z M 862 1491 L 791 1098 L 696 1098 L 696 1491 L 862 1491 Z" unicode="Ľ" />
<glyph horiz-adv-x="500" d="M 328 1493 L 328 0 L 172 0 L 172 1493 L 328 1493 Z M 657 1493 L 588 1100 L 492 1100 L 492 1493 L 657 1493 Z" unicode="ľ" />
<glyph horiz-adv-x="1024" d="M 350 1389 L 350 133 L 979 133 L 979 0 L 190 0 L 190 1389 L 350 1389 Z M 852 831 L 852 641 L 688 641 L 688 831 L 852 831 Z" unicode="Ŀ" />
<glyph horiz-adv-x="590" d="M 328 1493 L 328 0 L 172 0 L 172 1493 L 328 1493 Z M 623 815 L 623 625 L 459 625 L 459 815 L 623 815 Z" unicode="ŀ" />
<glyph horiz-adv-x="1051" d="M 377 1389 L 377 791 L 745 948 L 745 805 L 377 647 L 377 133 L 1006 133 L 1006 0 L 217 0 L 217 580 L 33 502 L 33 645 L 217 723 L 217 1389 L 377 1389 Z" unicode="Ł" />
<glyph horiz-adv-x="592" d="M 51 608 L 215 729 L 215 1493 L 371 1493 L 371 844 L 555 981 L 555 823 L 371 686 L 371 0 L 215 0 L 215 569 L 51 449 L 51 608 Z" unicode="ł" />
<glyph horiz-adv-x="1475" d="M 190 1389 L 338 1389 L 983 487 C 995 469 1007 450 1021 430 C 1035 409 1048 388 1061 368 C 1074 347 1086 327 1097 309 C 1107 291 1116 276 1124 264 L 1133 264 C 1131 289 1129 313 1128 335 C 1126 357 1125 379 1125 401 C 1124 423 1124 445 1124 467 C 1124 489 1124 513 1124 539 L 1124 1389 L 1284 1389 L 1284 0 L 1139 0 L 492 901 C 480 918 467 937 454 958 C 440 978 427 999 414 1019 C 401 1039 389 1059 378 1077 C 367 1095 358 1111 350 1124 L 342 1124 C 344 1098 345 1075 346 1053 C 347 1031 348 1009 349 987 C 349 965 350 942 350 920 C 350 898 350 874 350 850 L 350 0 L 190 0 L 190 1389 Z M 1011 1839 L 753 1540 L 608 1540 L 817 1839 L 1011 1839 Z" unicode="Ń" />
</font>
</defs>
</svg>
