<?xml version="1.0" standalone="yes"?><svg version="1.1" xmlns = 'http://www.w3.org/2000/svg'><defs><font id='web' horiz-adv-x="1000">
<font-face font-family="web" descent="-410" cap-height="1434" units-per-em="2048" bbox="-242,-467,3039,2124" x-height="1024" ascent="1638" />
<missing-glyph horiz-adv-x="1024" d="M 0 1389 L 1024 1389 L 1024 0 L 0 0 L 0 1389 Z M 254 215 L 770 215 L 770 1174 L 254 1174 L 254 215 Z" /><glyph horiz-adv-x="1024" d="M 891 686 L 891 481 L 133 481 L 133 686 L 891 686 Z" unicode="–" />
<glyph horiz-adv-x="2048" d="M 1915 686 L 1915 481 L 133 481 L 133 686 L 1915 686 Z" unicode="—" />
<glyph horiz-adv-x="559" d="M 78 862 L 287 1389 L 481 1389 L 358 862 L 78 862 Z" unicode="‘" />
<glyph horiz-adv-x="555" d="M 481 1389 L 272 862 L 78 862 L 201 1389 L 481 1389 Z" unicode="’" />
<glyph horiz-adv-x="528" d="M 471 295 L 260 -231 L 66 -231 L 188 295 L 471 295 Z" unicode="‚" />
<glyph horiz-adv-x="1014" d="M 78 862 L 287 1389 L 481 1389 L 358 862 L 78 862 Z M 532 862 L 741 1389 L 936 1389 L 813 862 L 532 862 Z" unicode="“" />
<glyph horiz-adv-x="1010" d="M 936 1389 L 727 862 L 532 862 L 655 1389 L 936 1389 Z M 481 1389 L 272 862 L 78 862 L 201 1389 L 481 1389 Z" unicode="”" />
<glyph horiz-adv-x="983" d="M 926 295 L 715 -231 L 520 -231 L 643 295 L 926 295 Z M 471 295 L 260 -231 L 66 -231 L 188 295 L 471 295 Z" unicode="„" />
<glyph horiz-adv-x="410" d="" unicode=" " />
<glyph horiz-adv-x="600" d="M 465 1389 L 389 516 L 209 516 L 133 1389 L 465 1389 Z M 444 297 L 444 0 L 158 0 L 158 297 L 444 297 Z" unicode="!" />
<glyph horiz-adv-x="901" d="M 383 1389 L 289 862 L 106 862 L 106 1389 L 383 1389 Z M 811 1389 L 717 862 L 535 862 L 535 1389 L 811 1389 Z" unicode="&#x22;" />
<glyph horiz-adv-x="1587" d="M 1436 244 L 1079 244 L 993 -162 L 813 -162 L 899 244 L 530 244 L 444 -162 L 264 -162 L 350 244 L 82 244 L 82 428 L 391 428 L 471 803 L 154 803 L 154 987 L 512 987 L 598 1389 L 776 1389 L 690 987 L 1059 987 L 1145 1389 L 1327 1389 L 1241 987 L 1505 987 L 1505 803 L 1200 803 L 1120 428 L 1436 428 L 1436 244 Z M 569 428 L 938 428 L 1018 803 L 649 803 L 569 428 Z" unicode="#" />
<glyph horiz-adv-x="1069" d="M 651 1546 L 651 1331 C 696 1327 742 1320 790 1310 C 838 1300 882 1285 922 1266 L 899 1049 C 877 1059 853 1068 827 1078 C 801 1087 774 1095 746 1102 C 718 1108 689 1113 661 1117 C 632 1121 604 1122 578 1122 C 548 1122 519 1119 493 1113 C 466 1107 443 1098 423 1086 C 403 1074 388 1058 377 1038 C 365 1018 360 995 360 967 C 360 947 363 930 369 914 C 375 898 386 883 400 870 C 414 856 432 844 455 833 C 477 822 505 813 539 805 L 614 786 C 742 755 836 710 898 651 C 960 591 991 512 991 414 C 991 359 982 310 965 267 C 947 223 923 186 893 154 C 863 122 827 95 785 74 C 743 53 699 37 651 27 L 651 -225 L 440 -225 L 440 10 C 412 11 384 14 354 18 C 324 22 295 27 265 34 C 235 40 205 48 177 58 C 148 68 121 79 96 92 L 121 315 C 148 300 177 287 208 275 C 239 263 271 254 303 246 C 335 238 366 231 398 227 C 429 223 459 221 487 221 C 521 221 552 224 582 230 C 611 236 636 246 658 260 C 679 273 696 290 708 311 C 720 332 727 357 727 387 C 727 425 713 458 686 486 C 658 514 612 536 547 553 L 467 573 C 401 589 345 610 299 635 C 253 660 215 689 186 721 C 157 753 136 788 123 826 C 110 864 104 906 104 950 C 104 1004 112 1051 130 1093 C 147 1135 171 1171 201 1201 C 231 1231 266 1256 307 1276 C 348 1295 392 1309 440 1319 L 440 1546 L 651 1546 Z" unicode="$" />
<glyph horiz-adv-x="2081" d="M 838 936 C 838 874 829 817 812 763 C 794 709 769 661 736 621 C 703 580 663 548 615 524 C 567 500 513 489 453 489 C 395 489 343 499 297 521 C 250 542 210 572 178 610 C 145 648 120 693 102 745 C 84 797 76 855 76 918 C 76 979 84 1037 102 1091 C 119 1145 144 1193 177 1234 C 210 1274 251 1306 299 1330 C 347 1354 401 1366 463 1366 C 519 1366 571 1355 617 1334 C 663 1312 703 1283 736 1245 C 768 1207 793 1161 811 1109 C 829 1056 838 998 838 936 Z M 612 938 C 612 1012 599 1071 573 1115 C 547 1158 511 1180 463 1180 C 435 1180 411 1173 391 1161 C 371 1148 354 1130 341 1107 C 328 1084 318 1056 312 1024 C 306 992 303 956 303 918 C 303 844 315 785 340 741 C 364 697 402 676 453 676 C 480 676 504 682 524 695 C 544 708 560 726 573 749 C 586 772 596 800 602 832 C 608 864 612 899 612 938 Z M 1235 1346 L 1473 1346 L 846 0 L 608 0 L 1235 1346 Z M 2005 434 C 2005 372 1996 314 1979 260 C 1961 206 1936 158 1903 118 C 1869 77 1829 45 1781 21 C 1733 -2 1678 -14 1618 -14 C 1561 -14 1509 -3 1463 17 C 1417 38 1377 68 1344 106 C 1311 144 1286 189 1268 242 C 1250 294 1241 352 1241 416 C 1241 477 1249 535 1267 589 C 1284 643 1309 691 1343 732 C 1376 772 1417 804 1465 828 C 1513 852 1568 864 1630 864 C 1686 864 1738 853 1784 832 C 1830 810 1870 781 1903 743 C 1935 705 1960 659 1978 607 C 1996 554 2005 496 2005 434 Z M 1778 436 C 1778 510 1765 569 1740 612 C 1714 654 1677 676 1628 676 C 1600 676 1576 669 1556 657 C 1536 644 1519 626 1506 603 C 1493 580 1483 553 1477 521 C 1471 489 1468 454 1468 416 C 1468 342 1480 282 1506 238 C 1531 194 1568 172 1618 172 C 1646 172 1670 178 1690 191 C 1710 204 1727 222 1740 246 C 1753 270 1763 298 1769 330 C 1775 362 1778 398 1778 436 Z" unicode="%" />
<glyph horiz-adv-x="1456" d="M 1122 0 L 997 135 C 936 87 869 50 797 23 C 725 -4 644 -18 555 -18 C 489 -18 429 -9 374 6 C 319 22 271 46 231 78 C 190 110 158 149 136 196 C 113 243 102 298 102 360 C 102 412 110 459 127 499 C 144 539 167 575 196 606 C 224 636 257 663 295 685 C 332 707 371 727 412 745 C 390 767 370 789 351 812 C 332 835 315 859 301 884 C 287 908 275 934 267 962 C 258 989 254 1019 254 1051 C 254 1089 261 1128 275 1166 C 289 1204 311 1238 342 1268 C 373 1298 414 1323 464 1342 C 514 1360 575 1370 647 1370 C 709 1370 766 1362 817 1347 C 868 1331 911 1310 947 1282 C 983 1254 1010 1221 1030 1182 C 1049 1143 1059 1100 1059 1053 C 1059 1007 1050 966 1033 932 C 1016 897 994 866 967 839 C 939 812 908 788 873 767 C 837 746 802 727 766 709 L 1010 455 C 1042 499 1070 545 1096 593 C 1121 641 1143 689 1163 737 L 1399 737 C 1365 660 1329 584 1289 509 C 1249 433 1205 363 1155 299 L 1430 0 L 1122 0 Z M 584 180 C 633 180 680 189 726 208 C 771 227 814 253 854 287 L 547 608 C 517 592 490 575 466 559 C 442 542 423 524 407 506 C 391 488 378 468 370 447 C 362 425 358 402 358 377 C 358 347 363 321 374 297 C 385 273 400 252 420 235 C 440 217 463 204 491 194 C 519 184 550 180 584 180 Z M 487 1053 C 487 1033 491 1014 499 996 C 507 977 517 959 531 941 C 545 923 561 905 579 887 C 597 869 615 852 635 834 C 661 845 685 857 709 871 C 733 884 754 899 772 916 C 790 932 804 951 815 972 C 825 992 831 1016 831 1042 C 831 1062 827 1082 819 1101 C 811 1119 800 1136 785 1150 C 770 1164 751 1175 729 1183 C 707 1191 681 1196 653 1196 C 624 1196 599 1191 579 1183 C 558 1175 541 1164 527 1151 C 513 1137 503 1122 497 1105 C 490 1088 487 1071 487 1053 Z" unicode="&#x26;" />
<glyph horiz-adv-x="473" d="M 383 1389 L 289 862 L 106 862 L 106 1389 L 383 1389 Z" unicode="'" />
<glyph horiz-adv-x="696" d="M 664 1389 C 650 1375 633 1356 613 1332 C 593 1308 571 1278 549 1243 C 526 1208 503 1168 481 1123 C 458 1077 437 1027 419 971 C 401 915 386 853 375 787 C 363 721 358 649 358 573 C 358 494 364 420 376 352 C 388 283 403 219 422 161 C 440 103 461 50 485 2 C 509 -46 532 -88 555 -125 C 578 -162 600 -193 620 -219 C 640 -245 657 -265 670 -279 L 395 -279 C 381 -263 364 -242 344 -216 C 324 -189 302 -157 280 -120 C 257 -82 234 -40 211 8 C 188 56 167 108 149 166 C 131 224 116 287 105 355 C 93 423 88 495 88 573 C 88 647 93 716 104 781 C 114 845 128 905 145 960 C 162 1015 181 1065 203 1111 C 225 1156 247 1196 269 1232 C 291 1268 313 1299 333 1325 C 353 1351 371 1372 387 1389 L 664 1389 Z" unicode="(" />
<glyph horiz-adv-x="696" d="M 309 1389 C 323 1372 341 1351 362 1325 C 382 1299 404 1268 426 1232 C 448 1196 470 1156 492 1111 C 514 1065 533 1015 550 960 C 567 905 581 845 592 781 C 602 716 608 647 608 573 C 608 495 602 423 591 355 C 579 287 564 224 546 166 C 528 108 507 56 484 8 C 461 -40 438 -82 416 -120 C 393 -157 371 -189 351 -216 C 331 -242 314 -263 301 -279 L 27 -279 C 39 -265 56 -245 76 -219 C 96 -193 117 -162 141 -125 C 164 -88 187 -46 211 2 C 234 50 255 103 274 161 C 292 219 308 283 320 352 C 332 420 338 494 338 573 C 338 649 332 721 321 787 C 309 853 294 915 276 971 C 258 1027 237 1077 215 1123 C 193 1168 170 1208 148 1243 C 125 1278 103 1308 83 1332 C 63 1356 46 1375 33 1389 L 309 1389 Z" unicode=")" />
<glyph horiz-adv-x="1008" d="M 414 1266 L 401 1579 L 608 1579 L 596 1266 L 885 1372 L 948 1184 L 649 1096 L 836 852 L 672 748 L 506 991 L 342 748 L 174 852 L 365 1096 L 59 1184 L 129 1372 L 414 1266 Z" unicode="*" />
<glyph horiz-adv-x="1145" d="M 682 1149 L 682 690 L 1133 690 L 1133 485 L 682 485 L 682 29 L 463 29 L 463 485 L 10 485 L 10 690 L 463 690 L 463 1149 L 682 1149 Z" unicode="+" />
<glyph horiz-adv-x="551" d="M 483 297 L 236 -268 L 33 -268 L 193 297 L 483 297 Z" unicode="," />
<glyph horiz-adv-x="778" d="M 651 707 L 651 461 L 127 461 L 127 707 L 651 707 Z" unicode="-" />
<glyph horiz-adv-x="539" d="M 414 297 L 414 0 L 127 0 L 127 297 L 414 297 Z" unicode="." />
<glyph horiz-adv-x="879" d="M 819 1389 L 313 -279 L 61 -279 L 565 1389 L 819 1389 Z" unicode="/" />
<glyph horiz-adv-x="1247" d="M 1145 692 C 1145 594 1134 501 1112 415 C 1090 328 1056 252 1012 188 C 968 124 912 73 846 36 C 779 -1 701 -20 612 -20 C 530 -20 457 -3 393 30 C 329 63 276 109 233 169 C 190 229 157 300 135 383 C 113 466 102 557 102 657 C 102 754 113 846 135 932 C 157 1018 190 1093 235 1157 C 279 1221 335 1272 401 1310 C 467 1347 545 1366 635 1366 C 717 1366 790 1349 854 1316 C 918 1282 971 1236 1014 1176 C 1057 1116 1090 1045 1112 963 C 1134 880 1145 790 1145 692 Z M 872 688 C 872 757 867 819 858 875 C 848 931 834 978 815 1018 C 795 1057 770 1087 740 1109 C 710 1130 673 1141 631 1141 C 585 1141 545 1129 513 1105 C 481 1081 454 1047 434 1004 C 414 961 399 910 390 851 C 381 791 377 727 377 657 C 377 589 381 527 390 472 C 399 416 413 369 433 330 C 452 290 477 260 507 239 C 537 217 573 207 616 207 C 662 207 702 219 735 244 C 767 268 794 302 814 346 C 834 389 849 440 858 499 C 867 557 872 620 872 688 Z" unicode="0" />
<glyph horiz-adv-x="754" d="M 326 0 L 326 1073 L 94 993 L 43 1219 L 440 1346 L 584 1346 L 584 0 L 326 0 Z" unicode="1" />
<glyph horiz-adv-x="1079" d="M 98 190 L 416 516 C 451 552 484 587 515 621 C 546 655 573 688 597 722 C 620 756 638 790 652 826 C 665 861 672 898 672 938 C 672 966 668 992 660 1018 C 652 1043 640 1065 624 1084 C 607 1103 585 1118 558 1130 C 531 1141 499 1147 461 1147 C 429 1147 398 1143 368 1135 C 338 1127 310 1117 284 1105 C 258 1093 234 1079 212 1064 C 190 1049 172 1034 156 1020 L 92 1225 C 112 1243 136 1260 163 1277 C 190 1293 221 1308 255 1322 C 289 1335 326 1346 368 1354 C 410 1362 456 1366 506 1366 C 578 1366 642 1357 698 1339 C 754 1321 800 1296 838 1262 C 875 1228 903 1188 923 1140 C 942 1092 952 1039 952 979 C 952 927 944 877 930 830 C 915 783 894 737 866 691 C 838 645 803 599 761 552 C 719 504 672 454 618 401 L 430 215 L 983 215 L 983 0 L 98 0 L 98 190 Z" unicode="2" />
<glyph horiz-adv-x="1085" d="M 123 1274 C 143 1285 166 1296 192 1307 C 217 1318 245 1328 276 1337 C 307 1345 341 1352 379 1358 C 416 1363 457 1366 502 1366 C 640 1366 746 1338 820 1283 C 893 1228 930 1149 930 1047 C 930 1005 924 968 912 936 C 900 903 884 874 864 849 C 844 823 820 802 793 784 C 765 766 736 753 705 743 L 705 741 C 741 733 777 721 811 703 C 845 685 876 662 902 634 C 928 605 949 571 965 531 C 981 491 989 445 989 393 C 989 323 974 262 945 210 C 915 158 876 115 826 81 C 776 47 717 21 651 5 C 584 -11 514 -20 440 -20 C 412 -20 384 -18 354 -16 C 324 -14 293 -10 263 -6 C 232 -1 202 4 172 12 C 142 20 114 29 88 39 L 113 260 C 157 241 203 225 253 212 C 303 199 357 193 416 193 C 456 193 494 196 530 204 C 566 212 597 224 624 241 C 650 258 671 280 687 307 C 703 334 711 367 711 406 C 711 440 704 469 692 494 C 680 519 663 540 641 557 C 619 574 592 587 562 595 C 532 603 499 608 463 608 C 449 608 433 607 415 606 C 397 605 378 604 360 602 C 342 600 324 599 308 597 C 291 595 277 594 266 594 L 252 797 L 410 809 C 488 815 548 834 592 867 C 635 899 657 946 657 1006 C 657 1056 641 1093 609 1117 C 577 1141 529 1153 465 1153 C 431 1153 398 1150 367 1144 C 336 1138 307 1130 281 1122 C 254 1113 230 1103 209 1093 C 188 1083 171 1073 158 1065 L 123 1274 Z" unicode="3" />
<glyph horiz-adv-x="1186" d="M 918 285 L 918 0 L 657 0 L 657 285 L 57 285 L 57 469 L 600 1346 L 918 1346 L 918 481 L 1118 481 L 1118 285 L 918 285 Z M 285 481 L 657 481 L 657 858 C 657 902 657 942 658 978 C 659 1014 660 1052 662 1092 L 655 1092 L 285 481 Z" unicode="4" />
<glyph horiz-adv-x="1087" d="M 207 1346 L 922 1346 L 922 1130 L 406 1130 L 367 815 C 397 835 433 851 477 863 C 521 875 564 881 608 881 C 663 881 714 871 762 852 C 810 833 851 806 886 770 C 921 734 949 689 969 637 C 989 585 999 525 999 459 C 999 379 984 309 956 249 C 927 189 887 139 837 99 C 787 59 727 30 658 10 C 588 -10 513 -20 432 -20 C 410 -20 386 -19 360 -18 C 334 -16 306 -14 278 -10 C 250 -6 221 0 193 6 C 164 12 137 21 111 31 L 111 254 C 135 244 161 235 189 227 C 217 219 244 213 272 208 C 299 203 326 199 352 197 C 378 194 403 193 426 193 C 472 193 513 198 551 209 C 589 220 621 237 647 259 C 673 281 694 308 709 340 C 723 372 731 410 731 453 C 731 525 711 580 671 619 C 631 658 574 678 502 678 C 456 678 415 670 379 655 C 343 640 311 620 283 596 L 121 635 L 207 1346 Z" unicode="5" />
<glyph horiz-adv-x="1200" d="M 989 1112 C 973 1118 956 1123 938 1129 C 919 1135 899 1140 879 1144 C 859 1148 838 1151 817 1153 C 796 1155 776 1157 756 1157 C 698 1157 647 1146 601 1126 C 555 1105 515 1075 483 1036 C 450 997 424 949 405 893 C 385 837 373 773 369 702 L 373 702 C 418 752 469 791 527 818 C 584 844 647 858 715 858 C 765 858 815 850 864 834 C 912 818 956 794 994 761 C 1032 728 1063 686 1087 635 C 1110 584 1122 523 1122 453 C 1122 382 1109 318 1085 260 C 1060 202 1026 152 982 110 C 938 68 886 36 826 14 C 765 -8 699 -20 627 -20 C 592 -20 555 -16 515 -9 C 475 -2 436 9 398 27 C 359 45 322 69 286 100 C 250 130 219 169 192 216 C 164 263 142 319 126 385 C 110 451 102 528 102 616 C 102 725 115 825 142 917 C 169 1009 209 1088 263 1155 C 317 1221 384 1273 464 1310 C 544 1347 638 1366 745 1366 C 769 1366 794 1364 820 1362 C 845 1360 869 1356 893 1352 C 917 1348 939 1343 959 1337 C 979 1331 996 1325 1010 1319 L 989 1112 Z M 643 651 C 593 651 544 640 497 619 C 449 598 407 568 371 528 C 375 458 385 402 403 358 C 421 314 442 280 467 255 C 492 230 519 213 547 204 C 575 194 603 190 629 190 C 663 190 694 196 722 208 C 750 220 773 238 793 260 C 812 282 827 308 838 339 C 848 369 854 403 854 440 C 854 480 848 513 836 540 C 824 567 808 589 788 605 C 768 621 745 633 720 640 C 694 647 669 651 643 651 Z" unicode="6" />
<glyph horiz-adv-x="989" d="M 424 0 L 152 0 L 659 1130 L 72 1130 L 72 1346 L 934 1346 L 934 1155 L 424 0 Z" unicode="7" />
<glyph horiz-adv-x="1214" d="M 1077 1020 C 1077 984 1071 951 1060 919 C 1049 887 1033 858 1013 832 C 992 805 967 781 937 761 C 907 741 874 725 838 713 L 838 709 C 873 697 907 681 940 661 C 973 641 1002 617 1028 589 C 1054 561 1074 528 1090 491 C 1106 453 1114 411 1114 365 C 1114 307 1102 255 1078 207 C 1054 159 1019 117 974 83 C 929 49 875 22 811 3 C 747 -15 676 -25 596 -25 C 521 -25 453 -16 392 1 C 331 19 279 44 236 77 C 192 109 159 149 135 195 C 111 241 100 293 100 350 C 100 392 106 431 120 467 C 133 503 152 535 177 564 C 201 592 231 617 265 639 C 299 661 337 680 379 696 L 379 700 C 346 710 315 725 286 744 C 257 763 232 786 210 813 C 188 839 170 869 158 903 C 145 937 139 974 139 1014 C 139 1067 150 1115 173 1159 C 195 1203 227 1240 269 1272 C 310 1303 359 1327 417 1344 C 475 1361 538 1370 608 1370 C 677 1370 740 1361 798 1344 C 855 1327 904 1303 946 1273 C 987 1242 1019 1205 1042 1162 C 1065 1119 1077 1072 1077 1020 Z M 842 365 C 842 395 834 422 819 446 C 804 469 785 490 761 508 C 737 526 711 542 682 556 C 652 570 623 583 594 596 C 570 586 546 576 520 564 C 494 552 471 537 450 520 C 428 502 410 482 396 458 C 382 434 375 405 375 371 C 375 341 380 313 392 288 C 404 263 420 242 441 224 C 462 206 487 191 515 181 C 543 171 574 166 608 166 C 642 166 673 171 702 182 C 730 193 755 208 776 226 C 796 244 812 266 824 290 C 836 314 842 339 842 365 Z M 399 1008 C 399 982 404 960 414 940 C 424 920 438 901 458 885 C 477 869 501 854 529 840 C 557 826 589 812 625 799 C 647 807 669 817 692 829 C 714 840 735 853 754 869 C 772 885 787 903 799 925 C 811 946 817 971 817 1001 C 817 1027 811 1052 801 1074 C 790 1096 775 1116 757 1132 C 738 1148 716 1160 690 1169 C 664 1177 636 1182 606 1182 C 576 1182 548 1177 523 1168 C 497 1159 475 1147 457 1131 C 439 1115 424 1097 414 1076 C 404 1055 399 1032 399 1008 Z" unicode="8" />
<glyph horiz-adv-x="1200" d="M 211 233 C 225 227 242 222 260 217 C 278 211 298 206 318 202 C 338 198 359 194 381 192 C 402 189 423 188 444 188 C 501 188 552 198 598 219 C 644 240 683 270 715 309 C 747 348 773 396 793 452 C 813 508 825 572 831 643 L 827 643 C 781 593 729 554 671 527 C 613 500 551 487 483 487 C 433 487 383 494 335 510 C 287 526 243 550 205 584 C 167 617 136 659 113 711 C 89 762 78 823 78 895 C 78 965 90 1030 115 1088 C 139 1146 174 1195 218 1236 C 262 1277 314 1309 374 1332 C 434 1354 499 1366 571 1366 C 606 1366 644 1362 684 1355 C 724 1348 763 1336 802 1318 C 841 1300 878 1275 914 1245 C 950 1215 981 1176 1009 1129 C 1036 1081 1058 1025 1074 959 C 1090 893 1098 817 1098 729 C 1098 620 1084 520 1057 428 C 1030 336 990 257 936 191 C 882 125 814 73 734 36 C 653 -1 559 -20 453 -20 C 428 -20 403 -18 378 -16 C 352 -14 328 -10 305 -6 C 281 -2 260 2 240 8 C 220 14 203 20 190 27 L 211 233 Z M 557 694 C 606 694 654 704 701 726 C 748 747 791 777 829 817 C 825 887 815 943 797 987 C 779 1031 758 1065 733 1090 C 708 1115 681 1132 653 1141 C 624 1150 597 1155 571 1155 C 536 1155 505 1149 477 1137 C 449 1125 426 1108 406 1086 C 386 1064 371 1037 361 1007 C 351 976 346 942 346 905 C 346 865 352 831 364 804 C 376 777 391 755 411 739 C 431 723 453 711 479 704 C 504 697 530 694 557 694 Z" unicode="9" />
<glyph horiz-adv-x="551" d="M 418 1030 L 418 733 L 133 733 L 133 1030 L 418 1030 Z M 418 297 L 418 0 L 133 0 L 133 297 L 418 297 Z" unicode=":" />
<glyph horiz-adv-x="559" d="M 426 1030 L 426 733 L 139 733 L 139 1030 L 426 1030 Z M 465 297 L 217 -268 L 16 -268 L 176 297 L 465 297 Z" unicode=";" />
<glyph horiz-adv-x="1145" d="M 1087 1149 L 1087 911 L 496 651 L 358 600 L 358 575 L 496 530 L 1087 268 L 1087 33 L 55 518 L 55 657 L 1087 1149 Z" unicode="&#x3C;" />
<glyph horiz-adv-x="1145" d="M 1087 934 L 1087 729 L 55 729 L 55 934 L 1087 934 Z M 1087 449 L 1087 244 L 55 244 L 55 449 L 1087 449 Z" unicode="=" />
<glyph horiz-adv-x="1145" d="M 1087 657 L 1087 518 L 55 33 L 55 268 L 649 530 L 786 575 L 786 600 L 649 651 L 55 911 L 55 1149 L 1087 657 Z" unicode="&#x3E;" />
<glyph horiz-adv-x="963" d="M 246 297 L 530 297 L 530 0 L 246 0 L 246 297 Z M 260 600 C 260 636 265 668 275 695 C 285 722 300 746 318 767 C 336 787 356 806 380 823 C 404 839 429 856 455 872 C 476 885 496 898 515 912 C 534 925 551 939 565 954 C 579 969 590 985 598 1003 C 606 1020 610 1039 610 1061 C 610 1083 605 1103 596 1120 C 587 1136 574 1150 558 1161 C 542 1172 522 1180 500 1186 C 477 1191 452 1194 424 1194 C 401 1194 375 1192 345 1189 C 315 1185 284 1181 254 1175 C 223 1169 194 1161 166 1153 C 138 1145 114 1136 96 1126 L 76 1348 C 96 1356 122 1364 152 1372 C 182 1380 214 1386 248 1392 C 282 1397 317 1401 353 1404 C 389 1407 423 1409 455 1409 C 517 1409 574 1403 628 1391 C 681 1379 727 1361 767 1336 C 807 1310 838 1278 861 1238 C 883 1198 895 1150 895 1094 C 895 1060 891 1030 883 1004 C 875 978 865 954 852 932 C 839 910 824 891 807 875 C 790 858 772 843 754 829 C 735 815 716 802 698 791 C 679 779 661 768 645 758 C 603 731 571 704 547 677 C 523 649 512 618 512 584 L 512 516 L 260 516 L 260 600 Z" unicode="?" />
<glyph horiz-adv-x="1884" d="M 1427 979 L 1255 451 C 1249 435 1245 421 1243 409 C 1240 396 1239 384 1239 373 C 1239 343 1247 321 1264 308 C 1280 295 1300 289 1323 289 C 1359 289 1396 300 1433 322 C 1469 344 1502 374 1531 414 C 1560 453 1584 500 1602 555 C 1620 610 1630 671 1630 737 C 1630 809 1616 877 1590 939 C 1563 1001 1525 1054 1475 1099 C 1425 1144 1366 1179 1296 1205 C 1226 1230 1149 1243 1063 1243 C 961 1243 863 1225 770 1190 C 676 1155 594 1105 523 1041 C 451 976 394 898 352 807 C 310 716 289 614 289 502 C 289 430 298 364 316 305 C 334 245 358 192 390 145 C 421 97 458 56 500 21 C 542 -13 588 -42 637 -66 C 685 -89 736 -106 789 -118 C 841 -129 894 -135 946 -135 C 988 -135 1033 -131 1079 -124 C 1125 -117 1171 -108 1215 -97 C 1259 -85 1300 -72 1339 -58 C 1378 -44 1412 -29 1440 -14 L 1493 -158 C 1465 -174 1431 -190 1390 -207 C 1348 -223 1303 -239 1254 -253 C 1205 -267 1153 -278 1099 -287 C 1045 -296 991 -301 938 -301 C 873 -301 807 -293 740 -279 C 673 -265 608 -243 546 -214 C 483 -184 424 -148 369 -104 C 313 -60 265 -8 224 51 C 182 110 150 177 126 252 C 102 326 90 409 90 500 C 90 592 102 678 126 759 C 150 839 185 913 229 981 C 273 1048 325 1108 385 1161 C 445 1214 512 1259 584 1296 C 656 1332 732 1360 813 1380 C 894 1399 977 1409 1063 1409 C 1177 1409 1280 1392 1372 1358 C 1464 1324 1543 1278 1609 1218 C 1675 1158 1725 1088 1761 1007 C 1797 926 1815 839 1815 745 C 1815 652 1800 568 1771 492 C 1741 416 1702 351 1653 297 C 1604 243 1548 201 1485 171 C 1421 141 1356 127 1288 127 C 1259 127 1232 130 1206 137 C 1180 143 1156 153 1136 167 C 1115 181 1098 198 1084 219 C 1070 240 1062 265 1059 295 C 1017 241 972 199 924 171 C 876 143 826 129 774 129 C 740 129 708 135 676 148 C 644 161 616 181 591 208 C 566 235 546 269 531 311 C 515 352 508 401 508 459 C 508 511 514 562 527 610 C 540 658 558 702 580 743 C 602 784 628 821 658 854 C 688 887 719 915 753 939 C 786 962 820 980 855 993 C 889 1005 923 1012 956 1012 C 982 1012 1007 1007 1030 998 C 1052 989 1073 977 1091 961 C 1109 945 1124 927 1138 906 C 1151 885 1162 863 1171 840 L 1217 979 L 1427 979 Z M 842 324 C 874 324 908 335 945 358 C 981 380 1017 419 1053 473 L 1114 659 C 1110 680 1103 700 1095 720 C 1086 739 1076 756 1064 770 C 1052 784 1038 796 1023 804 C 1007 812 991 817 973 817 C 947 817 919 809 891 794 C 862 778 835 756 811 728 C 787 700 767 665 751 625 C 735 584 727 539 727 489 C 727 433 737 392 757 365 C 777 337 806 324 842 324 Z" unicode="@" />
<glyph horiz-adv-x="1368" d="M 307 0 L 25 0 L 541 1389 L 829 1389 L 1341 0 L 1042 0 L 938 305 L 412 305 L 307 0 Z M 483 510 L 866 510 L 758 829 C 742 875 728 920 714 964 C 700 1008 689 1049 680 1087 L 672 1087 C 667 1069 661 1049 655 1027 C 648 1005 641 982 634 959 C 627 935 620 912 613 890 C 606 868 600 847 594 829 L 483 510 Z" unicode="A" />
<glyph horiz-adv-x="1260" d="M 168 1384 C 232 1388 298 1392 367 1396 C 435 1399 501 1401 563 1401 C 646 1401 721 1394 789 1380 C 856 1366 913 1344 961 1316 C 1008 1287 1044 1251 1070 1208 C 1095 1164 1108 1113 1108 1055 C 1108 1008 1100 966 1085 929 C 1070 892 1050 860 1025 833 C 1000 806 971 784 939 768 C 906 752 872 741 838 735 L 838 731 C 875 727 913 718 953 704 C 993 690 1029 669 1062 642 C 1094 614 1121 579 1142 537 C 1163 495 1174 443 1174 383 C 1174 321 1161 265 1135 216 C 1109 167 1072 126 1022 92 C 972 58 910 33 836 15 C 762 -3 678 -12 582 -12 C 519 -12 452 -10 382 -8 C 311 -5 240 -1 168 4 L 168 1384 Z M 887 401 C 887 439 879 471 864 499 C 848 527 827 550 801 568 C 774 586 742 599 706 608 C 670 616 631 621 590 621 L 434 621 L 434 197 C 465 195 494 193 521 193 C 547 193 568 193 584 193 C 630 193 672 197 710 205 C 747 213 779 226 805 244 C 831 261 852 283 866 309 C 880 335 887 365 887 401 Z M 434 807 L 582 807 C 626 807 664 812 696 822 C 728 832 754 847 775 865 C 795 883 811 905 821 930 C 831 955 836 982 836 1012 C 836 1076 813 1123 769 1155 C 724 1186 657 1202 569 1202 C 531 1202 486 1200 434 1196 L 434 807 Z" unicode="B" />
<glyph horiz-adv-x="1274" d="M 1161 1087 C 1137 1099 1112 1111 1085 1122 C 1057 1133 1029 1143 999 1151 C 969 1159 939 1165 908 1169 C 876 1173 845 1176 815 1176 C 746 1176 684 1163 630 1138 C 575 1112 529 1077 491 1033 C 453 989 423 936 403 876 C 383 815 373 750 373 680 C 373 611 382 548 402 491 C 422 434 450 385 487 344 C 524 303 569 271 622 249 C 674 226 734 215 801 215 C 837 215 873 217 909 223 C 945 228 979 235 1013 244 C 1046 253 1077 264 1106 276 C 1135 288 1160 301 1182 315 L 1200 70 C 1178 56 1153 44 1123 33 C 1093 22 1061 13 1026 5 C 990 -3 953 -9 913 -13 C 873 -17 833 -20 791 -20 C 683 -20 586 -2 500 31 C 414 65 340 113 280 175 C 219 236 172 309 140 395 C 108 480 92 574 92 676 C 92 780 108 876 142 966 C 175 1055 223 1132 285 1198 C 347 1264 423 1315 512 1353 C 600 1390 700 1409 811 1409 C 843 1409 875 1407 908 1404 C 941 1401 974 1397 1006 1391 C 1038 1385 1068 1377 1098 1367 C 1128 1357 1155 1346 1180 1333 L 1161 1087 Z" unicode="C" />
<glyph horiz-adv-x="1442" d="M 168 1384 C 196 1386 224 1388 254 1390 C 284 1392 313 1394 342 1396 C 370 1397 398 1398 425 1399 C 451 1400 476 1401 500 1401 C 576 1401 651 1395 723 1385 C 795 1374 862 1357 925 1334 C 988 1310 1046 1280 1098 1244 C 1150 1207 1194 1163 1232 1112 C 1269 1060 1298 1001 1319 934 C 1339 867 1350 791 1350 707 C 1350 595 1331 494 1294 406 C 1257 317 1202 242 1130 180 C 1057 118 967 70 859 37 C 751 4 627 -12 487 -12 C 439 -12 388 -10 334 -7 C 280 -3 224 0 168 4 L 168 1384 Z M 434 215 C 463 213 488 211 510 211 C 532 211 553 211 575 211 C 643 211 707 221 767 242 C 827 263 879 294 923 336 C 967 377 1001 428 1027 489 C 1052 549 1065 620 1065 700 C 1065 788 1050 862 1020 924 C 990 986 951 1036 903 1075 C 855 1113 800 1141 738 1159 C 676 1177 614 1186 551 1186 C 532 1186 512 1185 491 1185 C 470 1184 451 1183 434 1182 L 434 215 Z" unicode="D" />
<glyph horiz-adv-x="1145" d="M 434 819 L 958 819 L 958 608 L 434 608 L 434 211 L 1061 211 L 1061 0 L 168 0 L 168 1389 L 1020 1389 L 1020 1178 L 434 1178 L 434 819 Z" unicode="E" />
<glyph horiz-adv-x="1036" d="M 989 1389 L 989 1178 L 434 1178 L 434 809 L 903 809 L 903 598 L 434 598 L 434 0 L 168 0 L 168 1389 L 989 1389 Z" unicode="F" />
<glyph horiz-adv-x="1423" d="M 750 784 L 1286 784 L 1286 49 C 1258 38 1226 28 1188 20 C 1150 11 1111 4 1070 -2 C 1029 -8 988 -12 946 -15 C 904 -18 866 -20 831 -20 C 713 -20 608 -3 516 31 C 424 65 347 112 284 174 C 221 235 173 308 141 393 C 108 478 92 572 92 674 C 92 778 109 875 143 965 C 177 1055 226 1132 291 1198 C 356 1264 436 1315 530 1353 C 624 1390 732 1409 854 1409 C 884 1409 917 1407 952 1405 C 987 1402 1022 1398 1057 1393 C 1092 1388 1126 1382 1160 1374 C 1194 1366 1225 1358 1253 1348 L 1241 1110 C 1213 1120 1184 1130 1152 1140 C 1120 1149 1087 1157 1053 1164 C 1019 1170 985 1176 951 1180 C 917 1184 884 1186 854 1186 C 776 1186 706 1173 645 1149 C 584 1124 533 1089 492 1044 C 450 999 419 945 397 883 C 375 821 365 752 365 676 C 365 602 375 535 396 477 C 416 418 447 368 487 327 C 527 286 576 255 635 233 C 693 211 761 201 838 201 C 854 201 871 201 889 202 C 907 203 926 205 944 207 C 962 209 980 211 997 214 C 1013 216 1028 219 1040 223 L 1040 575 L 750 575 L 750 784 Z" unicode="G" />
<glyph horiz-adv-x="1477" d="M 434 1389 L 434 829 L 1042 829 L 1042 1389 L 1309 1389 L 1309 0 L 1042 0 L 1042 604 L 434 604 L 434 0 L 168 0 L 168 1389 L 434 1389 Z" unicode="H" />
<glyph horiz-adv-x="602" d="M 434 1389 L 434 0 L 168 0 L 168 1389 L 434 1389 Z" unicode="I" />
<glyph horiz-adv-x="903" d="M 55 258 C 67 252 83 247 101 242 C 119 236 139 231 159 227 C 179 222 200 218 222 215 C 243 212 263 211 283 211 C 313 211 341 215 367 225 C 393 234 415 249 433 270 C 451 291 466 319 476 354 C 486 388 492 431 492 483 L 492 1389 L 758 1389 L 758 467 C 758 381 747 308 727 247 C 706 185 676 135 638 96 C 600 56 554 27 500 8 C 446 -10 385 -20 319 -20 C 295 -20 270 -19 243 -17 C 216 -15 190 -11 164 -7 C 138 -3 113 2 91 8 C 68 14 49 22 33 31 L 55 258 Z" unicode="J" />
<glyph horiz-adv-x="1335" d="M 737 825 L 1346 0 L 1008 0 L 553 631 L 434 510 L 434 0 L 168 0 L 168 1389 L 434 1389 L 434 829 L 952 1389 L 1284 1389 L 737 825 Z" unicode="K" />
<glyph horiz-adv-x="1024" d="M 434 1389 L 434 217 L 985 217 L 985 0 L 168 0 L 168 1389 L 434 1389 Z" unicode="L" />
<glyph horiz-adv-x="1827" d="M 207 1389 L 559 1389 L 911 393 L 920 393 L 1272 1389 L 1620 1389 L 1690 0 L 1427 0 L 1401 684 C 1399 722 1398 758 1398 791 C 1397 824 1397 856 1397 886 C 1397 916 1397 945 1397 973 C 1397 1001 1398 1029 1399 1057 L 1391 1057 L 1022 0 L 801 0 L 430 1057 L 422 1057 C 422 1029 423 1001 423 973 C 423 945 424 917 424 887 C 424 857 423 826 423 793 C 422 759 421 723 420 684 L 395 0 L 137 0 L 207 1389 Z" unicode="M" />
<glyph horiz-adv-x="1477" d="M 168 1389 L 408 1389 L 895 686 C 907 667 920 647 934 625 C 948 603 961 582 975 561 C 989 540 1001 520 1013 501 C 1025 482 1034 466 1042 453 L 1051 453 C 1049 482 1047 510 1046 536 C 1044 562 1043 589 1043 615 C 1042 641 1042 667 1042 693 C 1042 719 1042 748 1042 778 L 1042 1389 L 1309 1389 L 1309 0 L 1071 0 L 582 707 C 568 724 555 743 541 764 C 527 785 513 806 500 827 C 486 848 474 868 463 887 C 451 906 442 922 434 936 L 426 936 C 428 906 429 877 430 851 C 431 825 432 799 433 773 C 433 747 434 720 434 694 C 434 668 434 640 434 610 L 434 0 L 168 0 L 168 1389 Z" unicode="N" />
<glyph horiz-adv-x="1522" d="M 1430 711 C 1430 610 1414 515 1384 427 C 1353 338 1308 260 1250 194 C 1192 128 1120 75 1036 37 C 952 0 856 -20 750 -20 C 650 -20 560 -2 479 31 C 398 65 329 113 272 175 C 214 237 170 310 139 396 C 107 481 92 575 92 678 C 92 744 98 809 112 871 C 126 933 146 992 173 1046 C 199 1100 232 1149 271 1194 C 310 1238 355 1276 405 1308 C 455 1340 510 1364 571 1382 C 632 1400 698 1409 770 1409 C 870 1409 960 1391 1041 1357 C 1122 1323 1191 1275 1249 1213 C 1307 1151 1351 1078 1383 992 C 1414 906 1430 813 1430 711 Z M 1149 713 C 1149 783 1140 847 1123 905 C 1105 962 1080 1011 1048 1052 C 1015 1092 975 1124 928 1146 C 881 1168 828 1180 770 1180 C 705 1180 648 1167 598 1142 C 548 1116 507 1081 473 1037 C 439 993 414 940 397 879 C 379 818 371 752 371 680 C 371 609 379 545 397 487 C 415 429 440 379 473 338 C 505 297 545 265 592 243 C 639 220 692 209 752 209 C 816 209 872 221 922 247 C 971 273 1012 308 1046 353 C 1080 398 1105 451 1123 513 C 1140 574 1149 641 1149 713 Z" unicode="O" />
<glyph horiz-adv-x="1163" d="M 168 0 L 168 1384 C 198 1386 232 1388 268 1390 C 304 1392 340 1394 376 1396 C 411 1397 444 1398 476 1399 C 507 1400 533 1401 555 1401 C 643 1401 722 1392 792 1375 C 862 1358 921 1332 970 1297 C 1019 1261 1057 1217 1083 1163 C 1109 1109 1122 1045 1122 971 C 1122 899 1109 837 1085 783 C 1061 729 1026 684 981 648 C 936 612 882 584 818 566 C 754 548 682 539 604 539 C 594 539 583 539 570 539 C 556 539 542 540 527 541 C 512 541 496 542 480 543 C 464 544 448 545 434 547 L 434 0 L 168 0 Z M 434 745 C 446 743 458 742 472 742 C 485 742 498 741 511 741 C 523 741 535 741 545 741 C 555 741 564 741 571 741 C 663 741 732 761 778 801 C 824 841 848 897 848 971 C 848 1043 824 1100 776 1140 C 728 1180 655 1200 557 1200 C 540 1200 521 1199 501 1199 C 481 1199 458 1198 434 1196 L 434 745 Z" unicode="P" />
<glyph horiz-adv-x="1528" d="M 94 662 C 94 768 109 866 140 957 C 170 1048 215 1127 273 1194 C 331 1261 401 1314 485 1352 C 569 1390 664 1409 770 1409 C 870 1409 960 1391 1042 1357 C 1124 1323 1193 1275 1251 1214 C 1309 1152 1353 1079 1385 994 C 1416 909 1432 816 1432 715 C 1432 644 1423 575 1407 507 C 1391 439 1366 377 1332 320 C 1298 262 1255 212 1203 168 C 1151 124 1090 90 1020 68 L 1020 63 L 1452 -16 L 1425 -246 L 641 -14 C 545 14 462 49 393 91 C 324 133 267 182 223 238 C 179 294 146 358 125 428 C 104 498 94 576 94 662 Z M 1151 709 C 1151 779 1142 843 1125 901 C 1107 959 1082 1008 1050 1050 C 1018 1091 978 1123 931 1146 C 884 1168 831 1180 772 1180 C 708 1180 651 1167 601 1141 C 551 1115 510 1080 476 1035 C 442 989 417 936 399 874 C 381 812 373 746 373 674 C 373 603 381 539 399 481 C 416 423 441 373 474 332 C 506 291 546 259 594 237 C 641 214 694 203 754 203 C 818 203 874 216 924 242 C 973 268 1014 303 1048 349 C 1082 394 1107 447 1125 509 C 1142 571 1151 637 1151 709 Z" unicode="Q" />
<glyph horiz-adv-x="1270" d="M 168 0 L 168 1384 C 198 1386 230 1388 266 1390 C 302 1392 337 1393 372 1395 C 407 1397 441 1398 473 1399 C 505 1400 533 1401 557 1401 C 653 1401 736 1392 808 1374 C 880 1356 939 1329 987 1295 C 1034 1261 1069 1219 1093 1169 C 1116 1119 1128 1063 1128 1001 C 1128 943 1118 892 1100 848 C 1081 804 1057 766 1027 734 C 997 702 964 676 926 656 C 888 636 851 622 813 614 L 1266 0 L 950 0 L 547 563 L 434 563 L 434 0 L 168 0 Z M 434 762 C 445 761 457 761 471 761 C 484 761 497 761 510 761 C 523 761 535 761 546 761 C 556 761 565 762 571 762 C 662 762 731 780 778 818 C 824 856 848 910 848 981 C 848 1051 825 1106 780 1144 C 734 1182 668 1202 582 1202 C 559 1202 536 1201 513 1200 C 489 1199 463 1198 434 1196 L 434 762 Z" unicode="R" />
<glyph horiz-adv-x="1128" d="M 123 301 C 151 285 182 270 215 257 C 247 244 280 233 314 224 C 347 215 380 208 413 204 C 446 199 478 197 508 197 C 546 197 581 200 613 208 C 645 216 672 227 696 243 C 720 259 738 278 752 302 C 765 325 772 353 772 385 C 772 429 757 467 729 500 C 700 532 652 557 586 575 L 500 598 C 429 616 369 639 319 665 C 269 691 229 721 198 755 C 167 789 144 826 130 867 C 116 908 109 953 109 1001 C 109 1073 122 1134 150 1186 C 177 1238 214 1280 261 1314 C 307 1347 361 1371 422 1387 C 482 1403 546 1411 614 1411 C 642 1411 671 1409 702 1407 C 732 1404 763 1400 795 1394 C 826 1388 857 1381 888 1373 C 918 1364 947 1353 975 1341 L 950 1110 C 926 1120 901 1130 874 1140 C 846 1150 818 1158 789 1166 C 759 1173 730 1179 700 1183 C 670 1187 640 1190 612 1190 C 580 1190 550 1187 522 1181 C 494 1175 469 1165 449 1151 C 428 1137 412 1120 400 1099 C 388 1077 383 1052 383 1022 C 383 976 398 939 428 911 C 458 882 506 859 573 842 L 653 821 C 717 804 774 784 824 760 C 874 736 915 708 949 675 C 983 642 1008 604 1025 561 C 1042 518 1051 469 1051 414 C 1051 339 1036 274 1007 219 C 978 164 939 118 889 82 C 839 46 782 19 717 1 C 651 -16 582 -25 510 -25 C 480 -25 448 -23 413 -20 C 378 -17 342 -12 306 -5 C 269 2 233 11 197 23 C 161 34 127 48 96 66 L 123 301 Z" unicode="S" />
<glyph horiz-adv-x="1104" d="M 25 1389 L 1079 1389 L 1079 1171 L 684 1171 L 684 0 L 420 0 L 420 1171 L 25 1171 L 25 1389 Z" unicode="T" />
<glyph horiz-adv-x="1444" d="M 729 215 C 778 215 820 221 854 234 C 888 246 917 264 940 287 C 960 305 977 327 990 352 C 1002 377 1012 405 1019 436 C 1026 467 1031 501 1034 538 C 1036 574 1038 613 1038 655 L 1038 1389 L 1296 1389 L 1296 641 C 1296 586 1294 537 1291 495 C 1287 452 1283 414 1277 381 C 1271 347 1263 318 1254 292 C 1245 266 1235 242 1223 221 C 1198 175 1168 137 1132 106 C 1096 75 1057 50 1014 32 C 970 13 924 0 875 -8 C 826 -16 776 -20 725 -20 C 675 -20 626 -16 578 -9 C 529 -1 483 11 439 30 C 395 48 354 73 317 104 C 280 134 249 173 223 221 C 210 243 199 268 189 296 C 179 324 171 355 165 389 C 159 423 154 460 151 502 C 148 544 147 590 147 641 L 147 1389 L 412 1389 L 412 655 C 412 611 413 570 416 533 C 418 496 423 462 431 432 C 438 402 448 374 461 350 C 474 326 491 305 512 287 C 536 263 566 245 602 233 C 637 221 679 215 729 215 Z" unicode="U" />
<glyph horiz-adv-x="1346" d="M 1319 1389 L 805 0 L 541 0 L 27 1389 L 326 1389 L 610 559 C 615 545 621 528 627 510 C 633 491 638 472 644 452 C 650 432 655 412 661 393 C 667 373 672 356 676 340 L 684 340 C 688 354 693 371 699 390 C 704 409 710 429 716 449 C 722 469 727 488 733 507 C 739 526 744 543 750 559 L 1036 1389 L 1319 1389 Z" unicode="V" />
<glyph horiz-adv-x="1937" d="M 967 1028 C 963 1002 958 978 954 956 C 950 934 945 912 941 890 C 936 868 931 846 925 824 C 919 802 913 778 907 754 L 700 0 L 408 0 L 53 1389 L 346 1389 L 518 614 C 540 513 557 422 567 340 L 575 340 C 579 365 584 389 589 411 C 593 433 598 455 604 477 C 609 498 615 520 621 542 C 627 564 633 588 641 614 L 852 1389 L 1104 1389 L 1315 614 C 1321 588 1328 565 1334 543 C 1340 521 1345 500 1350 479 C 1355 458 1360 436 1365 414 C 1369 392 1374 367 1380 340 L 1389 340 C 1391 355 1393 374 1397 397 C 1401 419 1405 443 1409 469 C 1413 494 1418 519 1424 545 C 1429 570 1434 593 1440 614 L 1612 1389 L 1884 1389 L 1530 0 L 1241 0 L 1036 754 C 1028 781 1022 806 1016 829 C 1010 852 1004 874 999 895 C 994 916 990 937 986 959 C 982 980 978 1003 975 1028 L 967 1028 Z" unicode="W" />
<glyph horiz-adv-x="1262" d="M 381 1389 L 641 920 L 901 1389 L 1206 1389 L 797 729 L 1235 0 L 913 0 L 618 541 L 326 0 L 29 0 L 465 729 L 55 1389 L 381 1389 Z" unicode="X" />
<glyph horiz-adv-x="1155" d="M -2 1389 L 301 1389 L 586 819 L 874 1389 L 1157 1389 L 709 573 L 709 0 L 444 0 L 444 573 L -2 1389 Z" unicode="Y" />
<glyph horiz-adv-x="1133" d="M 68 193 L 723 1171 L 131 1171 L 131 1389 L 1040 1389 L 1040 1196 L 385 217 L 1067 217 L 1067 0 L 68 0 L 68 193 Z" unicode="Z" />
<glyph horiz-adv-x="713" d="M 637 1214 L 406 1214 L 406 -104 L 637 -104 L 637 -279 L 152 -279 L 152 1389 L 637 1389 L 637 1214 Z" unicode="[" />
<glyph horiz-adv-x="879" d="M 313 1389 L 819 -279 L 565 -279 L 59 1389 L 313 1389 Z" unicode="\" />
<glyph horiz-adv-x="713" d="M 76 1389 L 559 1389 L 559 -279 L 76 -279 L 76 -104 L 309 -104 L 309 1214 L 76 1214 L 76 1389 Z" unicode="]" />
<glyph horiz-adv-x="1145" d="M 641 1346 L 1147 414 L 903 414 L 651 922 L 584 1069 L 559 1069 L 494 922 L 244 414 L 0 414 L 502 1346 L 641 1346 Z" unicode="^" />
<glyph horiz-adv-x="1024" d="M 1034 -82 L 1034 -287 L -10 -287 L -10 -82 L 1034 -82 Z" unicode="_" />
<glyph horiz-adv-x="840" d="M 381 1493 L 594 1180 L 375 1180 L 94 1493 L 381 1493 Z" unicode="`" />
<glyph horiz-adv-x="1069" d="M 137 975 C 157 985 181 994 208 1004 C 235 1013 265 1021 298 1029 C 330 1036 365 1042 403 1046 C 441 1050 480 1053 522 1053 C 606 1053 676 1044 730 1026 C 784 1008 826 982 857 950 C 888 918 910 879 922 835 C 934 790 940 741 940 688 L 940 279 C 940 249 940 222 942 197 C 943 172 945 148 948 126 C 950 104 954 82 958 62 C 962 41 966 20 971 0 L 733 0 C 727 23 722 47 718 71 C 714 95 711 122 709 150 L 705 150 C 671 97 626 56 568 27 C 510 -1 443 -16 369 -16 C 320 -16 276 -9 237 3 C 197 15 164 34 136 58 C 108 82 86 112 71 147 C 56 182 49 222 49 268 C 49 321 60 370 83 414 C 106 458 143 497 194 530 C 245 563 311 590 392 610 C 472 630 570 642 686 647 L 686 676 C 686 704 682 730 676 752 C 669 774 658 793 642 808 C 626 823 606 834 580 842 C 554 850 521 854 483 854 C 451 854 419 851 389 847 C 358 843 329 837 303 830 C 276 822 251 814 229 805 C 207 796 188 787 172 778 L 137 975 Z M 446 162 C 472 162 499 166 527 176 C 555 186 580 201 604 222 C 628 242 647 269 663 301 C 678 333 686 371 686 416 L 686 502 C 615 496 556 487 508 475 C 460 463 421 448 392 431 C 363 414 342 394 330 372 C 317 350 311 325 311 297 C 311 255 323 222 348 198 C 373 174 406 162 446 162 Z" unicode="a" />
<glyph horiz-adv-x="1192" d="M 141 1493 L 397 1493 L 397 885 L 401 885 C 431 935 470 974 518 1004 C 566 1034 621 1049 684 1049 C 709 1049 737 1046 769 1040 C 800 1034 832 1024 864 1010 C 896 996 927 976 957 951 C 987 925 1013 893 1037 854 C 1061 814 1080 767 1094 712 C 1108 657 1116 592 1116 518 C 1116 443 1108 378 1094 322 C 1080 266 1061 219 1037 179 C 1013 139 987 106 957 81 C 927 55 896 35 864 21 C 832 6 800 -3 769 -9 C 737 -15 709 -18 684 -18 C 620 -18 561 -2 509 27 C 457 57 415 99 385 152 L 381 152 L 373 0 L 131 0 L 141 193 L 141 1493 Z M 625 846 C 597 846 570 840 543 829 C 516 817 492 801 470 780 C 448 758 431 732 417 702 C 403 671 397 636 397 598 L 397 432 C 397 394 403 360 417 330 C 431 299 448 273 470 251 C 492 229 516 212 543 200 C 570 188 597 182 625 182 C 647 182 672 186 698 195 C 724 204 749 221 772 246 C 794 271 813 305 829 349 C 844 392 852 448 852 518 C 852 563 848 603 841 637 C 834 671 825 700 813 724 C 801 748 787 768 772 784 C 756 800 740 812 724 821 C 707 830 690 836 673 840 C 655 844 639 846 625 846 Z" unicode="b" />
<glyph horiz-adv-x="948" d="M 874 49 C 843 31 804 15 758 1 C 711 -12 654 -20 588 -20 C 514 -20 445 -9 382 11 C 319 32 265 64 219 107 C 173 150 137 205 111 271 C 85 337 72 416 72 506 C 72 602 86 684 115 753 C 144 821 183 878 231 922 C 279 966 335 998 399 1019 C 462 1040 528 1051 598 1051 C 646 1051 692 1046 736 1036 C 780 1026 822 1014 860 999 L 846 786 C 833 794 818 801 800 808 C 782 815 762 821 742 826 C 722 831 701 835 680 838 C 659 840 639 842 621 842 C 583 842 546 836 512 824 C 478 812 447 793 421 767 C 395 741 374 707 359 665 C 343 623 336 572 336 512 C 336 454 343 405 357 364 C 371 323 391 290 416 264 C 441 238 470 218 504 206 C 538 194 574 188 612 188 C 635 188 658 190 682 194 C 705 198 727 203 749 210 C 770 217 790 225 809 234 C 827 242 844 252 858 262 L 874 49 Z" unicode="c" />
<glyph horiz-adv-x="1192" d="M 1051 1493 L 1051 193 L 1061 0 L 811 0 L 803 152 L 799 152 C 767 99 726 57 674 27 C 622 -2 564 -18 502 -18 C 476 -18 448 -15 417 -9 C 385 -3 354 6 323 21 C 291 35 261 55 231 81 C 201 107 175 139 152 179 C 129 218 111 265 97 320 C 83 375 76 440 76 514 C 76 590 83 655 98 711 C 112 767 131 814 155 854 C 179 894 206 926 237 952 C 268 977 300 997 332 1011 C 364 1025 397 1035 429 1041 C 461 1046 490 1049 516 1049 C 576 1049 629 1035 675 1007 C 720 979 758 942 788 895 L 793 895 L 793 1493 L 1051 1493 Z M 569 846 C 547 846 522 841 496 833 C 469 825 444 809 421 785 C 398 761 379 727 363 684 C 347 640 340 584 340 514 C 340 446 347 391 361 348 C 375 305 393 271 415 247 C 437 222 460 205 486 196 C 512 186 536 182 559 182 C 586 182 613 188 641 200 C 669 212 694 229 717 251 C 739 273 758 299 772 330 C 786 360 793 394 793 432 L 793 598 C 793 636 786 671 773 702 C 760 732 743 758 722 780 C 701 801 677 817 651 829 C 624 840 597 846 569 846 Z" unicode="d" />
<glyph horiz-adv-x="1077" d="M 944 37 C 896 18 844 4 788 -5 C 731 -15 672 -20 610 -20 C 576 -20 539 -17 499 -13 C 459 -9 420 0 380 12 C 340 25 302 43 265 67 C 228 90 195 121 167 159 C 139 197 116 243 99 297 C 82 351 74 416 74 492 C 74 586 87 668 114 738 C 141 808 177 866 223 912 C 268 958 320 993 380 1016 C 439 1039 501 1051 567 1051 C 598 1051 631 1048 665 1042 C 699 1036 732 1025 764 1011 C 796 996 827 977 856 953 C 885 929 911 898 933 862 C 955 826 972 783 985 734 C 997 684 1004 627 1004 563 C 1004 546 1003 529 1002 512 C 1000 495 999 477 997 459 L 313 459 C 319 399 332 350 354 313 C 376 275 402 246 432 225 C 462 204 494 190 529 183 C 564 175 598 172 631 172 C 653 172 676 173 702 176 C 727 178 753 182 780 187 C 806 192 833 198 859 206 C 885 213 910 221 934 231 L 944 37 Z M 557 862 C 527 862 499 856 473 846 C 447 836 423 820 402 800 C 381 780 363 754 349 724 C 334 694 323 658 317 618 L 758 618 C 760 662 755 699 745 730 C 734 761 719 786 700 806 C 681 826 659 840 634 849 C 609 857 583 862 557 862 Z" unicode="e" />
<glyph horiz-adv-x="764" d="M 45 1030 L 246 1030 L 246 1186 C 246 1234 251 1278 263 1318 C 274 1358 292 1393 318 1423 C 344 1452 377 1475 419 1491 C 460 1507 511 1516 571 1516 C 607 1516 638 1514 666 1510 C 694 1506 722 1500 752 1493 L 752 1309 C 732 1312 710 1315 686 1317 C 662 1319 641 1321 623 1321 C 579 1321 548 1310 530 1288 C 512 1266 504 1233 504 1190 L 504 1030 L 752 1030 L 752 840 L 504 840 L 504 0 L 246 0 L 246 840 L 45 840 L 45 1030 Z" unicode="f" />
<glyph horiz-adv-x="1149" d="M 109 694 C 109 742 118 788 137 832 C 156 875 184 913 220 945 C 256 977 299 1003 351 1022 C 402 1041 460 1051 526 1051 C 586 1051 643 1042 698 1024 C 752 1006 800 980 842 946 C 876 982 916 1009 963 1028 C 1010 1047 1060 1057 1114 1057 L 1114 836 C 1082 837 1050 835 1019 831 C 988 827 961 819 938 807 C 943 789 947 771 951 753 C 954 734 956 715 956 696 C 956 644 945 596 925 552 C 905 508 876 470 839 438 C 801 406 756 381 704 363 C 651 345 592 336 528 336 C 466 336 410 344 360 360 C 352 348 346 336 342 324 C 338 312 336 300 336 289 C 336 265 343 247 358 235 C 372 222 394 212 424 206 C 453 199 490 194 535 192 C 580 190 633 188 694 186 C 725 185 757 183 791 181 C 824 179 856 174 888 168 C 920 162 950 153 978 141 C 1006 129 1030 114 1051 95 C 1072 76 1089 53 1101 25 C 1113 -2 1120 -35 1120 -74 C 1120 -120 1111 -161 1095 -197 C 1079 -233 1057 -264 1029 -290 C 1001 -316 968 -339 931 -357 C 893 -375 853 -389 811 -400 C 768 -410 724 -418 679 -423 C 634 -427 590 -430 547 -430 C 465 -430 394 -423 332 -410 C 270 -397 219 -379 178 -357 C 137 -334 106 -307 86 -277 C 65 -246 55 -213 55 -178 C 55 -132 72 -90 106 -52 C 140 -14 188 16 250 39 L 250 43 C 230 50 211 60 193 72 C 175 84 160 98 147 115 C 133 131 123 150 115 171 C 107 192 104 216 104 242 C 104 262 106 282 112 302 C 118 322 125 340 135 358 C 145 376 156 392 169 408 C 181 423 195 437 209 451 C 175 483 150 519 134 560 C 117 601 109 646 109 694 Z M 485 -6 C 459 -10 436 -16 415 -24 C 393 -32 375 -41 360 -52 C 344 -63 332 -76 324 -90 C 315 -104 311 -119 311 -137 C 311 -173 332 -202 374 -224 C 416 -246 483 -258 573 -258 C 611 -258 649 -255 685 -251 C 721 -246 753 -238 781 -227 C 808 -215 830 -200 847 -182 C 863 -163 872 -140 872 -113 C 872 -89 865 -69 851 -55 C 837 -41 814 -30 784 -23 C 753 -15 713 -11 664 -9 C 614 -7 555 -6 485 -6 Z M 530 508 C 560 508 586 512 609 522 C 632 532 651 545 667 562 C 682 579 693 599 701 621 C 709 643 713 666 713 692 C 713 718 708 743 700 766 C 692 789 680 809 664 826 C 648 843 628 856 606 866 C 583 876 558 881 530 881 C 499 881 472 875 450 865 C 427 855 408 841 393 823 C 378 805 367 785 359 762 C 351 738 348 714 348 688 C 348 660 352 636 361 614 C 369 592 382 573 398 557 C 414 541 433 529 455 521 C 477 512 502 508 530 508 Z" unicode="g" />
<glyph horiz-adv-x="1171" d="M 395 1493 L 395 885 L 399 885 C 417 912 437 936 458 957 C 479 977 502 995 527 1009 C 552 1023 580 1033 610 1040 C 640 1047 673 1051 711 1051 C 824 1051 908 1019 964 956 C 1019 893 1047 806 1047 694 L 1047 0 L 791 0 L 791 662 C 791 684 788 707 783 729 C 777 751 768 770 756 787 C 743 804 726 818 705 828 C 684 838 658 844 627 844 C 599 844 571 838 543 827 C 515 815 491 799 469 778 C 447 757 429 732 415 703 C 401 673 395 640 395 604 L 395 0 L 139 0 L 139 1493 L 395 1493 Z" unicode="h" />
<glyph horiz-adv-x="537" d="M 397 1030 L 397 0 L 141 0 L 141 1030 L 397 1030 Z M 401 1493 L 401 1260 L 137 1260 L 137 1493 L 401 1493 Z" unicode="i" />
<glyph horiz-adv-x="545" d="M 406 1030 L 406 -72 C 406 -123 400 -169 389 -211 C 377 -253 358 -288 332 -318 C 306 -348 271 -371 228 -387 C 185 -403 132 -412 70 -412 C 57 -412 43 -411 29 -411 C 14 -410 1 -409 -10 -408 L -10 -205 L 31 -205 C 75 -205 105 -192 123 -168 C 141 -143 150 -107 150 -59 L 150 1030 L 406 1030 Z M 410 1493 L 410 1260 L 145 1260 L 145 1493 L 410 1493 Z" unicode="j" />
<glyph horiz-adv-x="1090" d="M 1044 1030 L 659 627 L 1094 0 L 784 0 L 481 455 L 395 367 L 395 0 L 139 0 L 139 1493 L 395 1493 L 395 639 L 743 1030 L 1044 1030 Z" unicode="k" />
<glyph horiz-adv-x="547" d="M 401 1493 L 401 0 L 145 0 L 145 1493 L 401 1493 Z" unicode="l" />
<glyph horiz-adv-x="1784" d="M 772 662 C 772 685 769 708 763 730 C 757 752 748 771 736 788 C 723 805 706 819 686 829 C 665 839 640 844 610 844 C 584 844 559 838 534 827 C 508 815 485 799 465 778 C 445 757 428 732 416 703 C 403 673 397 640 397 604 L 397 0 L 141 0 L 141 813 L 131 1030 L 375 1030 L 381 868 L 385 868 C 401 894 420 918 441 940 C 461 962 485 982 511 998 C 537 1014 566 1027 598 1037 C 630 1046 665 1051 705 1051 C 781 1051 846 1034 899 1002 C 952 970 989 926 1010 870 L 1014 870 C 1032 898 1051 923 1071 946 C 1091 968 1114 987 1139 1003 C 1164 1018 1192 1030 1222 1038 C 1252 1046 1287 1051 1327 1051 C 1383 1051 1431 1042 1473 1026 C 1514 1009 1548 985 1576 954 C 1604 923 1624 886 1638 842 C 1652 798 1659 748 1659 694 L 1659 0 L 1403 0 L 1403 662 C 1403 685 1400 708 1395 730 C 1389 752 1380 771 1368 788 C 1356 805 1339 819 1319 829 C 1298 839 1273 844 1243 844 C 1217 844 1191 838 1165 827 C 1139 815 1116 799 1096 778 C 1076 757 1059 732 1047 703 C 1034 673 1028 640 1028 604 L 1028 0 L 772 0 L 772 662 Z" unicode="m" />
<glyph horiz-adv-x="1174" d="M 793 662 C 793 684 790 707 785 729 C 779 751 770 770 758 787 C 745 804 728 818 707 828 C 686 838 660 844 629 844 C 601 844 573 838 545 827 C 517 816 493 800 471 780 C 449 759 431 734 417 704 C 403 674 397 641 397 604 L 397 0 L 141 0 L 141 813 L 131 1030 L 375 1030 L 381 868 L 385 868 C 425 927 471 972 523 1004 C 575 1035 639 1051 715 1051 C 826 1051 909 1019 965 956 C 1021 893 1049 806 1049 694 L 1049 0 L 793 0 L 793 662 Z" unicode="n" />
<glyph horiz-adv-x="1151" d="M 1081 528 C 1081 456 1070 388 1049 322 C 1028 256 997 197 955 147 C 913 96 860 55 796 25 C 732 -4 658 -20 573 -20 C 492 -20 420 -6 358 21 C 296 48 243 85 201 133 C 159 180 127 236 105 301 C 83 365 72 435 72 510 C 72 584 83 653 105 719 C 127 785 160 842 203 891 C 246 939 299 978 363 1006 C 427 1034 500 1049 584 1049 C 662 1049 731 1036 793 1010 C 854 984 906 949 949 903 C 991 857 1024 802 1047 738 C 1069 674 1081 604 1081 528 Z M 819 528 C 819 576 814 620 804 660 C 794 700 779 734 759 762 C 739 790 715 812 686 828 C 657 844 624 852 586 852 C 544 852 508 843 477 825 C 445 807 419 782 397 751 C 375 720 359 684 348 642 C 337 600 332 554 332 506 C 332 459 337 415 348 375 C 358 335 374 300 394 271 C 414 241 440 218 470 201 C 500 184 534 176 573 176 C 615 176 651 185 682 205 C 713 224 739 250 759 283 C 779 315 794 353 804 395 C 814 437 819 482 819 528 Z" unicode="o" />
<glyph horiz-adv-x="1190" d="M 141 838 L 131 1030 L 373 1030 L 381 864 L 385 864 C 419 922 461 968 512 1000 C 563 1032 621 1049 686 1049 C 710 1049 738 1046 769 1041 C 799 1035 830 1025 862 1011 C 894 997 925 977 955 952 C 985 926 1012 894 1036 855 C 1059 815 1078 768 1092 713 C 1106 657 1114 592 1114 518 C 1114 443 1106 378 1092 322 C 1078 266 1059 219 1036 179 C 1012 139 985 107 955 82 C 925 56 894 36 862 21 C 830 6 798 -3 767 -9 C 735 -15 707 -18 682 -18 C 618 -18 562 -4 515 23 C 468 51 430 87 401 131 L 397 131 L 397 -410 L 141 -410 L 141 838 Z M 625 846 C 597 846 570 840 543 829 C 516 817 492 801 470 780 C 448 758 431 732 417 702 C 403 671 397 636 397 598 L 397 432 C 397 394 403 360 417 330 C 430 299 447 273 469 251 C 490 229 514 212 541 200 C 568 188 595 182 623 182 C 645 182 670 186 696 195 C 722 204 747 221 770 246 C 792 271 811 305 827 349 C 842 392 850 448 850 518 C 850 586 842 641 827 684 C 812 726 793 760 771 784 C 748 808 724 824 698 833 C 672 841 647 846 625 846 Z" unicode="p" />
<glyph horiz-adv-x="1190" d="M 793 -410 L 793 141 L 788 141 C 759 93 720 54 671 25 C 622 -3 566 -18 504 -18 C 478 -18 450 -15 419 -9 C 387 -3 356 6 324 21 C 292 36 262 56 232 82 C 202 107 175 139 152 179 C 129 219 111 266 97 322 C 83 378 76 443 76 518 C 76 592 83 657 97 713 C 111 768 131 815 155 855 C 179 894 206 926 237 952 C 267 977 299 997 331 1011 C 363 1025 394 1035 425 1041 C 456 1046 484 1049 510 1049 C 574 1049 632 1033 683 1002 C 733 971 775 928 807 874 L 811 874 L 819 1030 L 1061 1030 L 1051 838 L 1051 -410 L 793 -410 Z M 571 846 C 548 846 523 841 497 833 C 470 824 445 808 422 784 C 398 760 379 726 363 684 C 347 641 340 586 340 518 C 340 448 347 392 362 349 C 376 305 395 271 417 246 C 439 221 462 204 488 195 C 514 186 538 182 561 182 C 588 182 615 188 643 200 C 671 212 696 229 718 251 C 740 273 758 299 772 330 C 786 360 793 394 793 432 L 793 598 C 793 636 786 671 773 702 C 760 732 743 758 722 780 C 701 801 677 817 651 829 C 625 840 598 846 571 846 Z" unicode="q" />
<glyph horiz-adv-x="745" d="M 369 1030 L 377 850 L 381 850 C 395 878 411 905 427 931 C 443 956 462 978 483 997 C 504 1016 528 1031 556 1042 C 583 1053 615 1059 651 1059 C 662 1059 674 1058 688 1057 C 701 1056 714 1054 727 1051 L 702 795 C 688 798 672 800 652 802 C 632 804 616 805 604 805 C 574 805 547 798 522 785 C 496 772 474 754 456 730 C 438 706 423 677 413 643 C 402 609 397 571 397 530 L 397 0 L 141 0 L 141 801 L 131 1030 L 369 1030 Z" unicode="r" />
<glyph horiz-adv-x="911" d="M 102 254 C 150 229 201 208 256 192 C 311 176 365 168 418 168 C 443 168 466 170 488 175 C 510 179 529 186 545 196 C 561 206 573 218 582 234 C 591 250 596 269 596 291 C 596 321 586 346 567 364 C 547 382 517 397 475 410 L 403 430 C 345 446 296 464 256 484 C 216 504 184 526 160 550 C 135 574 117 602 106 632 C 95 662 90 697 90 735 C 90 792 101 841 123 882 C 145 922 174 955 210 981 C 246 1007 288 1025 335 1037 C 382 1049 431 1055 481 1055 C 503 1055 528 1053 554 1051 C 580 1049 605 1045 631 1041 C 657 1037 682 1031 706 1025 C 730 1019 753 1012 774 1004 L 754 803 C 735 809 715 816 693 823 C 671 830 649 837 626 843 C 602 849 579 854 555 858 C 531 862 507 864 483 864 C 439 864 403 856 375 840 C 347 824 334 796 334 758 C 334 726 345 702 367 686 C 389 670 423 656 471 643 L 535 625 C 579 611 621 597 659 581 C 697 565 729 546 757 523 C 785 499 806 471 822 437 C 838 403 846 363 846 315 C 846 255 834 204 810 162 C 786 119 755 84 715 57 C 675 29 630 9 579 -3 C 527 -16 474 -23 418 -23 C 394 -23 367 -21 338 -19 C 309 -16 280 -12 250 -6 C 220 0 190 6 161 15 C 131 24 104 35 80 49 L 102 254 Z" unicode="s" />
<glyph horiz-adv-x="813" d="M 31 1030 L 233 1030 L 233 1329 L 489 1329 L 489 1030 L 752 1030 L 752 840 L 489 840 L 489 336 C 489 288 499 251 519 227 C 539 202 575 190 627 190 C 646 190 667 191 690 193 C 712 195 733 197 752 201 L 752 0 C 726 -5 699 -10 669 -14 C 639 -18 607 -20 571 -20 C 507 -20 454 -12 411 4 C 367 20 332 42 306 71 C 280 100 261 135 250 175 C 238 215 233 259 233 307 L 233 840 L 31 840 L 31 1030 Z" unicode="t" />
<glyph horiz-adv-x="1174" d="M 1032 1030 L 1032 219 L 1042 0 L 797 0 L 791 158 L 786 158 C 768 132 749 108 728 86 C 707 64 683 46 657 30 C 631 14 601 2 569 -5 C 536 -13 499 -18 459 -18 C 402 -18 353 -10 311 6 C 269 22 235 45 207 76 C 179 106 159 143 145 187 C 131 231 125 280 125 336 L 125 1030 L 381 1030 L 381 367 C 381 343 383 321 389 299 C 394 277 403 258 416 241 C 428 224 445 211 466 201 C 486 191 512 186 543 186 C 571 186 598 191 626 201 C 654 211 679 226 701 246 C 723 266 741 290 755 319 C 769 347 776 380 776 418 L 776 1030 L 1032 1030 Z" unicode="u" />
<glyph horiz-adv-x="1071" d="M 475 502 C 490 451 503 410 513 378 C 523 346 531 320 537 299 L 545 299 C 552 325 561 357 571 394 C 581 430 592 466 604 502 L 778 1030 L 1047 1030 L 659 0 L 412 0 L 25 1030 L 303 1030 L 475 502 Z" unicode="v" />
<glyph horiz-adv-x="1612" d="M 862 520 C 854 546 848 568 844 587 C 839 605 835 622 831 637 C 827 652 824 666 821 680 C 818 694 815 709 813 727 L 805 727 C 801 711 798 695 795 680 C 791 664 788 648 784 632 C 780 616 775 598 771 580 C 766 562 761 542 756 520 L 606 0 L 336 0 L 43 1030 L 305 1030 L 430 541 C 432 529 435 514 439 498 C 443 482 447 464 452 446 C 456 427 461 407 466 387 C 470 367 475 347 479 328 L 487 328 C 491 342 495 359 499 377 C 503 395 507 413 511 432 C 515 451 520 470 525 489 C 529 507 534 525 539 543 L 682 1030 L 942 1030 L 1083 541 C 1092 507 1101 473 1110 441 C 1118 408 1127 370 1137 328 L 1145 328 C 1147 338 1150 353 1154 372 C 1158 391 1163 411 1168 432 C 1172 453 1177 473 1181 493 C 1185 513 1189 529 1192 541 L 1313 1032 L 1567 1032 L 1278 0 L 1012 0 L 862 520 L 862 520 Z" unicode="w" />
<glyph horiz-adv-x="1042" d="M 336 1030 L 524 709 L 715 1030 L 997 1030 L 672 539 L 1018 0 L 729 0 L 514 373 L 299 0 L 27 0 L 367 539 L 43 1030 L 336 1030 Z" unicode="x" />
<glyph horiz-adv-x="1075" d="M 25 1030 L 301 1030 L 479 502 C 489 470 498 443 505 423 C 511 403 517 386 521 372 C 525 358 529 345 532 335 C 534 325 537 313 541 301 L 549 301 L 776 1030 L 1044 1030 L 664 -4 C 636 -72 607 -132 577 -183 C 547 -234 515 -276 479 -310 C 443 -343 402 -368 356 -385 C 310 -401 256 -410 195 -410 C 175 -410 157 -409 140 -407 C 122 -405 109 -404 100 -403 L 100 -195 L 154 -195 C 183 -195 209 -191 233 -183 C 257 -175 279 -162 299 -144 C 319 -126 337 -102 354 -74 C 371 -45 388 -10 406 31 L 25 1030 Z" unicode="y" />
<glyph horiz-adv-x="909" d="M 66 172 L 535 831 L 113 831 L 113 1030 L 829 1030 L 829 858 L 360 199 L 848 199 L 848 0 L 66 0 L 66 172 Z" unicode="z" />
<glyph horiz-adv-x="813" d="M 737 1214 L 651 1214 C 639 1214 626 1212 612 1210 C 598 1208 585 1203 573 1195 C 561 1187 551 1177 543 1163 C 535 1149 532 1130 532 1108 L 532 795 C 532 769 527 744 519 720 C 510 696 498 675 483 656 C 467 637 449 621 428 608 C 407 595 384 586 360 582 L 360 578 C 384 572 407 563 428 549 C 449 535 467 519 483 500 C 498 481 510 460 519 437 C 527 413 532 389 532 365 L 532 16 C 532 -9 535 -29 543 -45 C 551 -60 561 -72 573 -81 C 585 -90 598 -96 612 -99 C 626 -102 639 -104 651 -104 L 737 -104 L 737 -279 L 559 -279 C 540 -279 520 -277 499 -274 C 477 -271 456 -266 434 -258 C 412 -250 392 -240 372 -227 C 352 -214 334 -197 319 -177 C 303 -157 291 -133 282 -105 C 272 -77 268 -44 268 -6 L 268 360 C 268 375 265 389 260 402 C 255 415 248 426 240 436 C 232 445 222 452 212 458 C 201 463 190 466 178 467 L 49 467 L 49 676 L 178 676 C 190 676 201 679 212 685 C 222 690 232 697 240 707 C 248 716 255 727 260 740 C 265 753 268 768 268 784 L 268 1137 C 268 1174 272 1206 282 1233 C 291 1260 303 1283 319 1302 C 334 1320 352 1335 372 1347 C 392 1358 412 1367 434 1373 C 456 1379 477 1384 499 1386 C 520 1388 540 1389 559 1389 L 737 1389 L 737 1214 Z" unicode="{" />
<glyph horiz-adv-x="848" d="M 299 1720 L 549 1720 L 549 -328 L 299 -328 L 299 1720 Z" unicode="|" />
<glyph horiz-adv-x="813" d="M 76 1389 L 254 1389 C 272 1389 293 1388 315 1386 C 337 1384 358 1379 380 1373 C 402 1367 423 1358 443 1347 C 463 1335 480 1320 496 1302 C 511 1283 523 1260 533 1233 C 542 1206 547 1174 547 1137 L 547 780 C 547 748 555 723 573 704 C 591 685 611 676 635 676 L 764 676 L 764 467 L 635 467 C 623 467 611 464 601 459 C 590 453 581 446 573 436 C 565 426 558 415 554 402 C 549 389 547 375 547 360 L 547 -6 C 547 -44 542 -77 533 -105 C 523 -133 511 -157 496 -177 C 480 -197 463 -214 443 -227 C 423 -240 402 -250 380 -258 C 358 -266 337 -271 315 -274 C 293 -277 272 -279 254 -279 L 76 -279 L 76 -104 L 162 -104 C 174 -104 188 -102 202 -99 C 216 -95 228 -89 240 -80 C 252 -71 261 -59 269 -44 C 277 -28 281 -8 281 16 L 281 365 C 281 389 285 413 294 437 C 302 460 314 481 330 500 C 345 519 363 535 384 549 C 405 563 428 572 453 578 L 453 582 C 428 586 405 595 384 608 C 363 621 345 637 330 656 C 314 675 302 696 294 720 C 285 744 281 769 281 795 L 281 1108 C 281 1130 277 1149 269 1163 C 261 1177 252 1187 240 1195 C 228 1203 216 1208 202 1210 C 188 1212 174 1214 162 1214 L 76 1214 L 76 1389 Z" unicode="}" />
<glyph horiz-adv-x="1145" d="M 88 395 C 88 465 95 526 111 578 C 127 629 148 671 176 704 C 203 737 235 761 272 777 C 309 793 349 801 393 801 C 418 801 441 798 461 793 C 481 787 499 780 517 771 C 534 761 551 750 567 737 C 583 723 599 708 616 692 L 668 643 C 674 637 680 631 687 625 C 694 618 702 612 711 607 C 719 601 728 597 738 593 C 748 589 758 588 770 588 C 786 588 801 592 814 602 C 826 612 837 625 845 642 C 853 659 860 679 864 703 C 868 727 870 752 870 780 L 1071 780 C 1071 710 1063 650 1048 599 C 1032 547 1011 505 984 472 C 957 438 925 413 888 397 C 850 381 810 373 766 373 C 742 373 721 375 702 380 C 682 384 664 391 647 401 C 629 410 612 421 596 435 C 580 448 563 463 545 481 L 494 530 C 490 534 484 539 478 546 C 472 552 464 559 456 565 C 448 571 438 577 428 581 C 417 585 405 588 393 588 C 375 588 359 583 346 573 C 333 563 322 550 314 533 C 306 516 299 496 295 472 C 291 448 289 423 289 395 L 88 395 L 88 395 Z" unicode="~" />
<glyph horiz-adv-x="963" d="M 631 1006 C 631 1021 629 1036 625 1051 C 621 1066 614 1080 605 1092 C 595 1104 583 1113 567 1121 C 551 1129 532 1133 510 1133 C 489 1133 468 1128 448 1120 C 428 1111 410 1099 394 1083 C 378 1067 365 1047 355 1024 C 345 1001 340 975 340 946 L 340 492 L 119 492 L 119 1124 L 109 1294 L 322 1294 L 326 1167 L 330 1167 C 360 1215 395 1251 435 1275 C 475 1299 524 1311 584 1311 C 672 1311 739 1286 784 1236 C 829 1186 852 1118 852 1032 L 852 492 L 631 492 L 631 1006 Z" unicode="ⁿ" />
<glyph horiz-adv-x="913" d="M 846 301 C 846 237 837 178 819 122 C 801 66 776 18 742 -24 C 708 -66 666 -99 617 -123 C 568 -147 513 -160 451 -160 C 393 -160 340 -149 293 -127 C 246 -105 206 -75 172 -36 C 138 3 113 50 95 104 C 77 158 68 217 68 283 C 68 345 76 405 94 461 C 112 517 137 565 171 607 C 205 649 246 682 295 706 C 344 730 400 743 463 743 C 521 743 573 732 620 710 C 667 688 707 658 741 619 C 774 580 800 533 818 479 C 836 425 846 365 846 301 Z M 616 303 C 616 341 612 376 606 408 C 599 439 589 466 576 488 C 562 510 546 527 527 539 C 507 551 485 557 461 557 C 433 557 409 550 389 536 C 369 522 352 503 338 479 C 324 455 314 426 307 393 C 300 359 297 323 297 283 C 297 244 300 209 307 178 C 313 146 323 119 336 97 C 349 75 365 57 385 45 C 404 33 426 27 451 27 C 478 27 502 34 523 48 C 543 62 560 81 574 106 C 588 130 598 159 605 193 C 612 227 616 263 616 303 Z" unicode="₀" />
<glyph horiz-adv-x="578" d="M 229 -147 L 229 508 L 74 463 L 33 647 L 326 729 L 449 729 L 449 -147 L 229 -147 Z" unicode="₁" />
<glyph horiz-adv-x="770" d="M 70 8 L 279 203 C 307 229 331 252 352 274 C 372 295 389 315 403 335 C 417 354 427 373 434 391 C 440 409 444 429 444 449 C 444 481 434 508 414 530 C 394 552 360 563 313 563 C 271 563 233 555 197 540 C 161 525 131 509 106 492 L 68 668 C 83 677 100 686 118 695 C 136 704 157 712 180 719 C 203 726 229 732 257 736 C 285 740 317 743 352 743 C 458 743 539 721 597 677 C 655 633 684 567 684 481 C 684 449 679 419 671 391 C 662 363 648 334 630 305 C 611 276 587 246 557 215 C 527 183 491 149 449 113 L 350 27 L 698 27 L 698 -147 L 70 -147 L 70 8 Z" unicode="₂" />
<glyph horiz-adv-x="768" d="M 78 696 C 108 706 143 717 185 727 C 227 737 278 743 338 743 C 441 743 521 724 577 687 C 633 650 662 597 662 528 C 662 500 657 476 649 456 C 641 436 630 418 616 403 C 602 388 586 375 568 365 C 550 354 532 345 514 338 L 514 334 C 537 328 560 319 583 308 C 605 297 625 283 643 265 C 661 247 675 226 686 202 C 696 177 702 148 702 115 C 702 69 691 28 671 -6 C 650 -40 622 -69 587 -92 C 551 -114 510 -131 463 -143 C 415 -154 365 -160 311 -160 C 293 -160 273 -159 253 -158 C 232 -156 211 -154 189 -152 C 167 -149 145 -145 123 -141 C 101 -136 81 -131 63 -125 L 84 49 C 118 37 151 28 185 20 C 219 12 255 8 295 8 C 347 8 388 16 420 34 C 451 51 467 79 467 119 C 467 156 453 183 425 200 C 397 216 361 225 315 225 C 305 225 293 224 280 224 C 267 223 254 222 240 221 C 226 220 214 219 202 219 C 190 218 180 217 172 217 L 160 383 L 281 389 C 333 392 370 403 394 422 C 418 440 430 464 430 494 C 430 522 419 542 399 554 C 379 566 349 573 309 573 C 286 573 264 571 244 568 C 223 564 204 560 186 555 C 168 550 153 545 139 540 C 125 535 114 531 106 528 L 78 696 Z" unicode="₃" />
<glyph horiz-adv-x="844" d="M 670 20 L 670 -147 L 451 -147 L 451 20 L 45 20 L 45 174 L 399 731 L 670 731 L 670 176 L 799 176 L 799 20 L 670 20 Z M 227 176 L 451 176 L 451 336 C 451 372 451 405 452 435 C 452 465 453 496 455 530 L 451 530 L 227 176 Z" unicode="₄" />
<glyph horiz-adv-x="780" d="M 141 731 L 664 731 L 664 555 L 307 555 L 285 383 C 309 399 336 411 364 417 C 392 423 419 426 444 426 C 483 426 520 420 554 408 C 588 396 617 378 642 355 C 666 332 686 304 700 270 C 714 236 721 198 721 156 C 721 104 710 58 690 18 C 670 -21 641 -54 605 -80 C 569 -106 525 -126 475 -140 C 425 -153 369 -160 309 -160 C 295 -160 278 -159 260 -158 C 241 -157 221 -155 201 -153 C 180 -151 159 -148 138 -144 C 116 -140 96 -135 78 -129 L 78 49 C 96 43 114 37 134 33 C 154 28 173 24 193 21 C 213 18 232 16 250 14 C 268 12 284 12 299 12 C 359 12 407 23 441 46 C 475 69 492 104 492 150 C 492 186 480 215 457 236 C 434 257 401 268 358 268 C 330 268 303 263 279 254 C 255 244 231 229 209 209 L 80 240 L 141 731 Z" unicode="₅" />
<glyph horiz-adv-x="862" d="M 713 547 C 691 554 665 560 635 565 C 605 570 575 573 547 573 C 509 573 476 567 446 556 C 416 545 390 529 368 509 C 346 488 328 463 316 435 C 303 406 295 374 293 338 L 297 338 C 329 364 364 384 402 397 C 439 409 478 416 518 416 C 554 416 590 410 626 400 C 661 389 692 373 720 351 C 747 329 769 301 786 268 C 802 234 811 195 811 150 C 811 103 802 60 784 22 C 766 -15 742 -48 711 -75 C 679 -102 642 -123 599 -138 C 555 -152 508 -160 457 -160 C 431 -160 403 -157 373 -153 C 343 -148 314 -140 286 -129 C 257 -117 229 -102 203 -82 C 177 -62 154 -36 134 -6 C 114 24 98 61 86 104 C 74 146 68 196 68 254 C 68 325 77 390 97 450 C 117 510 146 561 186 605 C 225 648 274 682 333 706 C 391 730 460 743 539 743 C 557 743 576 742 595 741 C 613 739 631 737 647 735 C 663 733 679 730 693 727 C 707 723 719 720 729 717 L 713 547 Z M 465 250 C 437 250 407 246 377 238 C 347 230 320 218 297 203 C 299 164 305 132 315 107 C 325 81 338 61 354 46 C 369 31 386 21 405 15 C 423 9 442 6 461 6 C 505 6 538 18 561 42 C 584 66 596 97 596 137 C 596 159 592 178 584 192 C 576 206 566 218 554 227 C 542 235 528 241 512 245 C 496 248 481 250 465 250 Z" unicode="₆" />
<glyph horiz-adv-x="711" d="M 324 -147 L 92 -147 L 438 555 L 49 555 L 49 731 L 670 731 L 670 573 L 324 -147 Z" unicode="₇" />
<glyph horiz-adv-x="879" d="M 786 510 C 786 488 782 468 774 448 C 766 428 755 410 741 393 C 727 376 709 361 689 348 C 669 335 646 325 621 317 L 621 313 C 641 307 663 299 686 289 C 708 278 729 264 748 246 C 767 228 783 208 795 184 C 807 160 813 132 813 100 C 813 60 804 24 786 -7 C 768 -39 742 -67 708 -91 C 674 -114 634 -132 587 -145 C 540 -157 488 -164 430 -164 C 376 -164 326 -158 282 -146 C 237 -134 199 -118 167 -96 C 135 -74 110 -48 92 -18 C 74 12 66 47 66 86 C 66 115 71 141 81 164 C 91 187 104 207 122 225 C 139 243 159 258 183 271 C 206 284 231 295 258 305 L 258 309 C 236 315 216 325 196 337 C 176 349 158 363 143 380 C 128 396 116 415 107 436 C 98 457 94 480 94 506 C 94 542 102 574 119 604 C 136 634 160 659 191 680 C 221 700 258 716 300 728 C 342 739 389 745 440 745 C 490 745 536 739 578 728 C 620 716 656 700 687 680 C 718 660 742 635 760 606 C 777 577 786 545 786 510 Z M 586 100 C 586 118 580 134 570 148 C 559 162 546 173 530 183 C 514 193 496 201 478 208 C 459 215 442 222 426 229 C 416 225 404 221 389 216 C 374 210 359 203 345 194 C 331 185 318 174 308 160 C 298 146 293 128 293 106 C 293 88 296 71 304 57 C 312 42 322 29 336 19 C 349 9 364 1 382 -5 C 400 -11 418 -14 438 -14 C 458 -14 478 -10 496 -4 C 514 1 529 10 543 21 C 556 31 566 43 574 57 C 582 71 586 85 586 100 Z M 311 504 C 311 476 323 454 347 436 C 371 418 406 400 453 383 C 465 387 477 393 491 399 C 504 405 516 412 528 421 C 540 429 549 440 557 452 C 565 464 569 478 569 496 C 569 511 565 525 558 537 C 551 549 541 560 529 569 C 517 578 503 585 487 590 C 471 595 454 598 436 598 C 419 598 403 595 388 591 C 373 586 360 579 348 571 C 336 562 327 552 321 541 C 314 529 311 517 311 504 Z" unicode="₈" />
<glyph horiz-adv-x="864" d="M 150 35 C 172 29 198 23 228 17 C 258 11 287 8 315 8 C 390 8 450 29 494 71 C 538 113 563 170 569 244 L 565 244 C 533 219 498 200 460 187 C 422 174 384 168 344 168 C 308 168 272 173 237 183 C 202 193 171 210 144 232 C 116 254 94 281 78 315 C 61 348 53 388 53 434 C 53 480 61 523 79 561 C 97 599 121 631 153 658 C 184 685 222 706 266 721 C 310 735 358 743 410 743 C 435 743 462 740 491 736 C 520 731 549 723 578 711 C 606 699 634 684 660 664 C 686 644 710 618 730 588 C 750 557 767 520 779 477 C 791 433 797 383 797 326 C 797 256 787 191 767 131 C 747 71 717 20 678 -22 C 638 -65 589 -99 530 -123 C 470 -147 402 -160 324 -160 C 286 -160 249 -157 215 -152 C 180 -146 153 -140 135 -133 L 150 35 Z M 397 334 C 425 334 453 338 483 346 C 513 354 540 365 565 381 C 563 421 556 453 545 479 C 534 504 521 524 505 538 C 489 552 473 561 455 567 C 437 572 419 575 403 575 C 359 575 326 563 303 539 C 279 515 268 484 268 444 C 268 422 271 403 279 389 C 286 375 296 364 308 356 C 320 348 333 342 349 339 C 365 335 381 334 397 334 Z" unicode="₉" />
<glyph horiz-adv-x="410" d="" unicode=" " />
<glyph horiz-adv-x="590" d="M 205 514 L 385 514 L 461 -358 L 127 -358 L 205 514 Z M 154 733 L 154 1030 L 440 1030 L 440 733 L 154 733 Z" unicode="¡" />
<glyph horiz-adv-x="971" d="M 664 1233 L 664 1018 C 698 1014 730 1007 762 997 C 793 987 823 977 852 965 L 840 756 C 826 764 810 772 792 780 C 773 787 753 793 733 799 C 713 805 692 809 671 812 C 650 815 630 817 612 817 C 576 817 542 811 510 799 C 478 787 450 769 426 744 C 402 718 383 685 369 645 C 355 605 348 556 348 498 C 348 443 354 396 367 357 C 380 317 398 285 421 260 C 443 234 470 216 502 204 C 533 192 567 186 604 186 C 626 186 649 188 673 192 C 696 196 718 201 740 208 C 762 215 782 223 801 233 C 819 242 836 252 850 262 L 864 51 C 840 37 812 24 779 12 C 746 0 708 -8 664 -14 L 664 -223 L 455 -223 L 455 -8 C 401 2 351 20 307 46 C 263 72 225 105 193 147 C 161 189 137 238 120 295 C 102 352 94 418 94 492 C 94 568 103 635 122 694 C 140 752 166 803 199 845 C 231 887 270 922 314 948 C 358 974 405 994 455 1006 L 455 1233 L 664 1233 Z" unicode="¢" />
<glyph horiz-adv-x="1206" d="M 88 793 L 350 793 L 350 1024 C 350 1084 361 1136 383 1179 C 405 1222 435 1257 473 1285 C 511 1313 556 1333 608 1346 C 659 1359 714 1366 772 1366 C 800 1366 829 1364 860 1361 C 890 1358 920 1354 950 1349 C 979 1343 1006 1337 1032 1330 C 1057 1323 1078 1315 1096 1307 L 1073 1087 C 1057 1096 1039 1105 1018 1113 C 996 1121 973 1128 949 1134 C 925 1140 900 1144 875 1148 C 849 1151 825 1153 803 1153 C 742 1153 694 1138 660 1108 C 625 1078 608 1030 608 963 L 608 793 L 969 793 L 969 592 L 608 592 C 606 542 602 500 596 466 C 589 431 579 400 566 372 C 552 344 535 317 515 293 C 494 269 469 243 440 215 L 1094 215 L 1094 0 L 133 0 L 133 190 C 174 228 208 262 235 292 C 262 321 284 350 300 379 C 316 407 328 438 335 471 C 342 504 346 544 348 592 L 88 592 L 88 793 Z" unicode="£" />
<glyph horiz-adv-x="1323" d="M 297 299 C 253 343 220 396 198 458 C 175 520 164 588 164 664 C 164 736 175 804 197 867 C 219 929 251 984 295 1032 L 111 1329 L 317 1423 L 483 1157 C 537 1180 599 1192 668 1192 C 698 1192 728 1189 756 1183 C 784 1177 812 1170 838 1161 L 1001 1423 L 1208 1329 L 1028 1042 C 1068 998 1099 946 1121 886 C 1143 826 1155 760 1155 688 C 1155 612 1143 541 1119 475 C 1095 409 1060 353 1014 305 L 1196 20 L 989 -74 L 825 190 C 799 180 772 173 743 168 C 713 162 683 160 651 160 C 622 160 594 162 567 166 C 540 170 515 176 492 186 L 328 -74 L 123 20 L 297 299 Z M 651 354 C 694 354 732 362 765 379 C 797 396 825 420 847 450 C 869 480 885 515 896 556 C 907 596 913 640 913 688 C 913 735 907 778 897 816 C 886 854 870 886 849 912 C 828 938 802 959 772 973 C 742 987 707 995 668 995 C 624 995 586 986 554 970 C 521 954 494 931 472 901 C 450 871 433 836 422 796 C 411 756 406 712 406 664 C 406 617 411 574 422 536 C 432 498 448 465 469 438 C 490 411 516 390 546 376 C 576 361 611 354 651 354 Z" unicode="¤" />
<glyph horiz-adv-x="1393" d="M 1290 471 L 825 471 L 825 0 L 567 0 L 567 471 L 102 471 L 102 610 L 539 610 L 455 772 L 102 772 L 102 913 L 381 913 L 156 1346 L 451 1346 L 705 797 L 963 1346 L 1239 1346 L 1012 913 L 1290 913 L 1290 772 L 938 772 L 852 610 L 1290 610 L 1290 471 Z" unicode="¥" />
<glyph horiz-adv-x="848" d="M 299 1569 L 549 1569 L 549 850 L 299 850 L 299 1569 Z M 299 545 L 549 545 L 549 -174 L 299 -174 L 299 545 Z" unicode="¦" />
<glyph horiz-adv-x="1282" d="M 274 -127 C 332 -146 391 -162 452 -175 C 513 -188 573 -195 631 -195 C 659 -195 684 -193 707 -189 C 730 -185 750 -178 767 -168 C 783 -158 796 -146 805 -131 C 814 -116 819 -98 819 -76 C 819 -47 811 -24 795 -6 C 779 12 756 27 727 39 C 698 51 664 63 624 73 C 584 83 540 94 492 106 C 460 114 427 123 394 135 C 360 146 328 159 297 175 C 265 191 236 209 208 230 C 180 250 156 274 136 301 C 116 328 100 359 88 393 C 76 427 70 465 70 508 C 70 544 75 578 85 611 C 95 644 110 674 130 702 C 150 729 174 753 203 774 C 231 795 264 812 301 825 L 301 829 C 271 850 246 878 227 914 C 208 949 199 992 199 1042 C 199 1094 210 1140 232 1181 C 254 1221 286 1256 326 1284 C 366 1312 415 1333 472 1348 C 529 1362 592 1370 662 1370 C 728 1370 792 1364 854 1352 C 915 1340 970 1325 1018 1307 L 997 1108 C 941 1128 883 1145 822 1159 C 761 1173 703 1180 647 1180 C 619 1180 594 1177 572 1173 C 550 1169 531 1162 515 1152 C 499 1142 486 1130 478 1115 C 469 1100 465 1082 465 1061 C 465 1032 473 1009 489 991 C 505 973 527 957 556 945 C 585 932 620 921 660 911 C 700 901 745 891 793 879 C 841 866 890 850 940 830 C 990 810 1035 785 1075 754 C 1115 723 1149 685 1175 640 C 1201 594 1214 540 1214 477 C 1214 438 1208 402 1197 368 C 1185 334 1169 304 1149 277 C 1129 250 1104 227 1076 207 C 1048 187 1017 171 983 160 L 983 156 C 1015 130 1040 100 1058 65 C 1076 30 1085 -11 1085 -59 C 1085 -110 1073 -156 1051 -196 C 1028 -236 996 -271 955 -299 C 914 -327 865 -348 807 -363 C 749 -377 686 -385 616 -385 C 548 -385 483 -379 421 -367 C 359 -355 303 -340 254 -322 L 274 -127 Z M 815 262 C 835 267 855 275 873 285 C 891 295 907 307 921 322 C 935 337 945 355 953 375 C 961 395 965 418 965 444 C 965 478 956 507 940 532 C 923 557 895 580 857 601 C 819 621 768 641 705 660 C 641 679 563 699 469 721 C 447 715 427 708 409 698 C 391 688 375 676 362 661 C 348 646 338 629 330 609 C 322 589 319 566 319 541 C 319 506 327 476 344 451 C 361 425 389 402 428 381 C 466 360 517 340 581 321 C 644 302 722 282 815 262 Z" unicode="§" />
<glyph horiz-adv-x="840" d="M 315 1493 L 315 1260 L 94 1260 L 94 1493 L 315 1493 Z M 748 1493 L 748 1260 L 526 1260 L 526 1493 L 748 1493 Z" unicode="¨" />
<glyph horiz-adv-x="1913" d="M 948 -297 C 866 -297 789 -287 715 -267 C 641 -247 573 -218 510 -182 C 446 -146 389 -102 337 -51 C 285 0 241 56 205 119 C 169 181 141 249 121 321 C 101 393 92 468 92 547 C 92 626 102 702 122 776 C 142 850 171 918 209 982 C 247 1046 292 1104 345 1156 C 397 1208 456 1253 521 1291 C 586 1329 656 1358 731 1378 C 806 1398 885 1409 967 1409 C 1047 1409 1124 1399 1197 1379 C 1270 1359 1338 1330 1401 1294 C 1464 1257 1521 1213 1572 1162 C 1623 1110 1666 1053 1702 991 C 1738 928 1765 860 1785 788 C 1805 716 1815 641 1815 563 C 1815 483 1805 406 1785 333 C 1765 259 1736 191 1699 127 C 1662 63 1617 5 1565 -46 C 1513 -98 1454 -143 1390 -180 C 1326 -217 1256 -246 1182 -266 C 1107 -286 1029 -297 948 -297 Z M 948 -145 C 1014 -145 1077 -136 1137 -120 C 1197 -103 1252 -79 1304 -49 C 1356 -18 1403 18 1445 61 C 1487 104 1522 152 1552 204 C 1582 256 1605 313 1621 373 C 1637 433 1645 495 1645 561 C 1645 656 1627 746 1593 830 C 1559 914 1511 988 1451 1052 C 1390 1115 1318 1165 1235 1202 C 1152 1238 1062 1257 965 1257 C 899 1257 837 1248 777 1231 C 717 1214 661 1190 609 1159 C 557 1127 509 1090 467 1047 C 425 1003 388 955 358 903 C 328 851 304 795 288 735 C 272 675 264 613 264 549 C 264 484 272 422 288 363 C 304 303 326 248 356 197 C 385 145 420 99 462 57 C 503 15 549 -21 600 -51 C 650 -81 705 -104 764 -120 C 822 -136 884 -145 948 -145 Z M 1253 768 C 1237 777 1219 785 1201 793 C 1182 801 1162 807 1142 813 C 1121 819 1100 823 1079 826 C 1058 829 1038 831 1018 831 C 983 831 950 825 918 814 C 886 803 857 786 833 764 C 808 742 788 714 774 680 C 759 646 752 607 752 563 C 752 519 759 480 774 448 C 788 416 808 389 832 368 C 856 347 885 332 917 322 C 949 312 982 307 1016 307 C 1066 307 1112 313 1155 326 C 1198 338 1236 351 1268 365 L 1288 186 C 1254 172 1214 159 1167 147 C 1120 135 1063 129 997 129 C 931 129 870 138 812 157 C 754 176 703 204 659 240 C 615 276 580 321 554 375 C 528 428 516 489 516 559 C 516 631 529 694 556 750 C 582 806 618 853 662 891 C 706 929 758 958 817 978 C 875 998 937 1008 1001 1008 C 1051 1008 1099 1002 1145 990 C 1191 978 1234 964 1276 948 L 1253 768 Z" unicode="©" />
<glyph horiz-adv-x="895" d="M 133 1255 C 172 1272 215 1286 262 1296 C 309 1306 364 1311 426 1311 C 494 1311 550 1304 595 1292 C 640 1280 676 1261 703 1237 C 730 1213 749 1183 761 1148 C 772 1112 778 1072 778 1026 L 778 713 C 778 667 780 626 785 592 C 789 558 796 524 805 492 L 598 492 C 592 510 587 528 584 547 C 581 566 579 585 578 604 L 573 604 C 550 564 516 533 472 511 C 428 489 377 479 319 479 C 279 479 244 484 212 494 C 180 504 152 518 129 538 C 106 557 88 581 76 609 C 63 637 57 669 57 705 C 57 747 66 785 85 820 C 104 854 134 884 174 909 C 214 933 266 952 330 965 C 393 978 469 984 559 983 L 559 1016 C 559 1036 556 1054 551 1070 C 545 1086 536 1099 524 1110 C 511 1120 494 1128 474 1133 C 453 1138 427 1141 397 1141 C 373 1141 350 1139 328 1137 C 305 1134 283 1130 263 1125 C 243 1120 224 1114 207 1108 C 190 1102 176 1095 164 1087 L 133 1255 Z M 389 627 C 404 627 421 629 441 635 C 461 640 479 650 497 664 C 514 678 529 697 541 721 C 553 745 559 775 559 813 L 559 858 C 503 860 456 857 420 850 C 384 843 355 833 334 821 C 313 808 299 794 291 778 C 283 762 279 745 279 729 C 279 698 289 673 309 655 C 329 636 356 627 389 627 Z" unicode="ª" />
<glyph horiz-adv-x="1147" d="M 528 911 L 330 584 L 528 256 L 281 256 L 84 522 L 84 645 L 281 911 L 528 911 Z M 1034 911 L 834 584 L 1034 256 L 786 256 L 588 522 L 588 645 L 786 911 L 1034 911 Z" unicode="«" />
<glyph horiz-adv-x="1145" d="M 1090 944 L 1090 231 L 872 231 L 872 739 L 55 739 L 55 944 L 1090 944 Z" unicode="¬" />
<glyph horiz-adv-x="1092" d="M 541 598 C 473 598 409 610 350 636 C 290 661 238 695 194 739 C 150 782 115 833 89 892 C 63 950 51 1013 51 1081 C 51 1150 64 1215 91 1275 C 117 1335 154 1388 200 1433 C 246 1478 299 1514 360 1540 C 421 1566 486 1579 555 1579 C 621 1579 684 1566 743 1541 C 802 1515 854 1481 898 1437 C 942 1393 976 1342 1002 1283 C 1027 1224 1040 1161 1040 1094 C 1040 1025 1026 960 1000 900 C 974 840 938 787 893 743 C 847 698 794 663 734 637 C 674 611 609 598 541 598 Z M 541 692 C 595 692 647 702 695 723 C 743 744 786 773 822 809 C 858 845 887 888 908 937 C 929 986 940 1038 940 1094 C 940 1148 930 1198 910 1246 C 890 1293 862 1334 827 1370 C 792 1405 751 1433 704 1454 C 657 1474 607 1485 553 1485 C 499 1485 447 1474 399 1453 C 351 1431 308 1402 272 1366 C 236 1329 207 1286 186 1237 C 164 1188 154 1136 154 1081 C 154 1027 164 976 184 929 C 204 882 232 841 267 806 C 302 770 343 742 390 722 C 437 702 487 692 541 692 Z M 334 1366 L 553 1366 C 627 1366 682 1352 720 1324 C 757 1296 776 1258 776 1210 C 776 1188 772 1169 765 1152 C 758 1135 749 1120 737 1108 C 725 1095 712 1085 697 1077 C 681 1069 665 1063 649 1059 L 819 829 L 657 829 L 512 1034 L 471 1034 L 471 829 L 334 829 L 334 1366 Z M 545 1133 C 578 1133 601 1139 615 1152 C 628 1165 635 1181 635 1200 C 635 1220 628 1237 614 1250 C 600 1263 577 1270 545 1270 L 471 1270 L 471 1133 L 545 1133 Z" unicode="®" />
<glyph horiz-adv-x="840" d="M 696 1440 L 696 1270 L 143 1270 L 143 1440 L 696 1440 Z" unicode="¯" />
<glyph horiz-adv-x="874" d="M 791 1067 C 791 1019 781 973 763 930 C 745 886 720 848 688 816 C 656 784 619 758 576 739 C 533 720 487 711 438 711 C 389 711 343 720 300 739 C 257 758 220 784 188 816 C 156 848 130 886 112 930 C 93 973 84 1019 84 1067 C 84 1115 93 1160 112 1203 C 130 1245 156 1283 188 1315 C 220 1347 257 1372 300 1391 C 343 1409 389 1419 438 1419 C 487 1419 533 1409 576 1391 C 619 1372 656 1347 688 1315 C 720 1283 745 1245 763 1203 C 781 1160 791 1115 791 1067 Z M 610 1065 C 610 1089 605 1112 597 1134 C 588 1156 576 1175 560 1191 C 544 1207 526 1220 505 1230 C 484 1240 462 1245 438 1245 C 414 1245 392 1240 371 1230 C 350 1220 332 1207 316 1191 C 300 1175 287 1156 278 1134 C 268 1112 264 1089 264 1065 C 264 1041 268 1018 278 996 C 287 974 300 955 316 939 C 332 922 350 909 371 899 C 392 889 414 885 438 885 C 462 885 484 889 505 899 C 526 909 544 922 560 939 C 576 955 588 974 597 996 C 605 1018 610 1041 610 1065 Z" unicode="°" />
<glyph horiz-adv-x="1145" d="M 55 887 L 465 887 L 465 1253 L 682 1253 L 682 887 L 1087 887 L 1087 682 L 682 682 L 682 311 L 465 311 L 465 682 L 55 682 L 55 887 Z M 55 203 L 1087 203 L 1087 0 L 55 0 L 55 203 Z" unicode="±" />
<glyph horiz-adv-x="770" d="M 70 625 L 279 819 C 307 845 331 868 352 890 C 372 912 389 932 403 951 C 417 970 427 989 434 1007 C 440 1025 444 1045 444 1065 C 444 1097 434 1125 414 1147 C 394 1169 360 1180 313 1180 C 292 1180 272 1177 253 1173 C 233 1169 215 1163 197 1157 C 179 1150 163 1142 148 1134 C 132 1125 118 1116 106 1108 L 68 1284 C 83 1293 100 1302 118 1311 C 136 1320 157 1328 180 1336 C 203 1343 229 1349 257 1353 C 285 1357 317 1360 352 1360 C 458 1360 539 1338 597 1294 C 655 1250 684 1184 684 1098 C 684 1066 679 1036 671 1008 C 662 980 648 951 630 922 C 611 893 587 863 557 831 C 527 799 491 765 449 729 L 350 643 L 698 643 L 698 469 L 70 469 L 70 625 Z" unicode="²" />
<glyph horiz-adv-x="768" d="M 78 1313 C 108 1323 143 1333 185 1344 C 227 1354 278 1360 338 1360 C 441 1360 521 1341 577 1304 C 633 1266 662 1213 662 1145 C 662 1117 657 1093 649 1073 C 641 1052 630 1034 616 1019 C 602 1004 586 991 568 981 C 550 970 532 961 514 954 L 514 950 C 537 944 560 936 583 925 C 605 914 625 900 643 882 C 661 864 675 843 686 818 C 696 793 702 764 702 731 C 702 685 691 644 671 610 C 650 576 622 547 587 525 C 551 502 510 485 463 474 C 415 462 365 457 311 457 C 293 457 273 457 253 459 C 232 460 211 462 189 465 C 167 467 145 471 123 476 C 101 480 81 486 63 492 L 84 666 C 118 654 151 645 185 637 C 219 629 255 625 295 625 C 347 625 388 633 420 650 C 451 667 467 695 467 735 C 467 772 453 799 425 816 C 397 833 361 842 315 842 C 305 842 293 841 280 841 C 267 840 254 839 240 838 C 226 837 214 836 202 836 C 190 835 180 834 172 834 L 160 999 L 281 1006 C 333 1009 370 1020 394 1039 C 418 1057 430 1081 430 1110 C 430 1163 389 1190 309 1190 C 286 1190 264 1188 244 1184 C 223 1180 204 1176 186 1172 C 168 1167 153 1162 139 1157 C 125 1151 114 1147 106 1145 L 78 1313 Z" unicode="³" />
<glyph horiz-adv-x="840" d="M 748 1493 L 467 1180 L 248 1180 L 461 1493 L 748 1493 Z" unicode="´" />
<glyph horiz-adv-x="1171" d="M 1055 1030 L 1055 219 L 1065 0 L 821 0 L 815 158 L 811 158 C 794 132 776 108 757 88 C 738 67 717 49 693 35 C 669 21 643 10 614 2 C 585 -6 552 -10 516 -10 C 495 -10 474 -7 454 -3 C 433 1 413 14 395 35 L 391 35 C 392 14 395 -13 399 -48 C 403 -82 406 -118 406 -156 L 406 -410 L 147 -410 L 147 1030 L 406 1030 L 406 367 C 406 343 408 321 413 299 C 418 277 427 258 439 241 C 451 224 468 211 489 201 C 509 191 535 186 567 186 C 595 186 623 191 651 201 C 679 211 704 226 726 246 C 748 266 766 290 780 319 C 794 347 801 380 801 418 L 801 1030 L 1055 1030 Z" unicode="µ" />
<glyph horiz-adv-x="1413" d="M 1239 1391 L 1239 -451 L 1022 -451 L 1022 1210 L 750 1210 L 750 -451 L 532 -451 L 532 520 L 510 520 C 440 520 378 531 323 555 C 267 578 220 610 181 650 C 142 690 112 738 92 793 C 71 847 61 906 61 969 C 61 1031 71 1087 92 1139 C 112 1191 142 1235 182 1273 C 222 1310 270 1339 327 1360 C 384 1380 449 1391 522 1391 L 1239 1391 Z" unicode="¶" />
<glyph horiz-adv-x="545" d="M 432 723 L 432 414 L 113 414 L 113 723 L 432 723 Z" unicode="·" />
<glyph horiz-adv-x="840" d="M 522 14 L 522 -12 C 522 -18 523 -23 526 -27 C 528 -31 532 -35 537 -39 L 596 -104 C 611 -120 625 -141 637 -165 C 649 -189 655 -218 655 -252 C 655 -284 648 -313 635 -338 C 622 -363 604 -384 580 -401 C 556 -418 528 -431 495 -440 C 462 -448 425 -453 385 -453 C 343 -453 307 -449 277 -441 C 247 -433 221 -424 201 -414 L 215 -270 C 231 -279 253 -287 279 -294 C 305 -301 330 -305 356 -305 C 365 -305 375 -304 385 -303 C 395 -301 404 -298 412 -294 C 420 -289 426 -282 432 -274 C 437 -265 440 -254 440 -240 C 440 -223 436 -210 429 -201 C 421 -191 412 -180 401 -168 L 350 -117 C 344 -111 340 -106 337 -100 C 333 -94 332 -86 332 -74 L 332 14 L 522 14 Z" unicode="¸" />
<glyph horiz-adv-x="578" d="M 229 469 L 229 1124 L 74 1079 L 33 1264 L 326 1346 L 449 1346 L 449 469 L 229 469 Z" unicode="¹" />
<glyph horiz-adv-x="948" d="M 881 903 C 881 847 872 794 856 743 C 839 691 814 646 780 606 C 746 566 703 535 652 511 C 601 487 541 475 473 475 C 407 475 350 485 300 507 C 250 528 207 557 173 595 C 138 632 112 676 94 726 C 76 776 68 831 68 889 C 68 946 77 1000 95 1051 C 113 1102 139 1147 174 1185 C 209 1223 252 1253 303 1275 C 354 1297 413 1309 479 1309 C 541 1309 598 1298 648 1278 C 698 1258 740 1230 774 1194 C 808 1158 835 1115 853 1065 C 871 1015 881 961 881 903 Z M 649 903 C 649 935 645 966 639 994 C 632 1022 622 1046 608 1067 C 594 1087 577 1103 556 1115 C 535 1127 511 1133 483 1133 C 453 1133 426 1126 403 1113 C 380 1099 361 1081 345 1059 C 329 1037 318 1011 310 981 C 302 951 299 919 299 885 C 299 853 302 822 309 794 C 316 766 327 741 341 719 C 355 697 373 680 395 668 C 417 655 442 649 471 649 C 503 649 530 656 552 671 C 574 685 593 704 607 728 C 621 752 632 779 639 809 C 645 839 649 871 649 903 Z" unicode="º" />
<glyph horiz-adv-x="1147" d="M 866 911 L 1063 645 L 1063 522 L 866 256 L 618 256 L 817 584 L 618 911 L 866 911 Z M 360 911 L 557 645 L 557 522 L 360 256 L 113 256 L 313 584 L 113 911 L 360 911 Z" unicode="»" />
<glyph horiz-adv-x="1788" d="M 229 469 L 229 1124 L 74 1079 L 33 1264 L 326 1346 L 449 1346 L 449 469 L 229 469 Z M 1016 1339 L 1262 1339 L 580 0 L 336 0 L 1016 1339 Z M 1614 168 L 1614 0 L 1395 0 L 1395 168 L 989 168 L 989 322 L 1343 879 L 1614 879 L 1614 324 L 1743 324 L 1743 168 L 1614 168 Z M 1171 324 L 1395 324 L 1395 483 C 1395 519 1395 552 1396 582 C 1396 612 1397 644 1399 678 L 1395 678 L 1171 324 Z" unicode="¼" />
<glyph horiz-adv-x="1802" d="M 229 469 L 229 1124 L 74 1079 L 33 1264 L 326 1346 L 449 1346 L 449 469 L 229 469 Z M 1016 1339 L 1262 1339 L 580 0 L 336 0 L 1016 1339 Z M 1102 156 L 1311 350 C 1339 376 1363 399 1384 421 C 1404 443 1422 463 1436 482 C 1450 501 1460 520 1467 538 C 1473 556 1477 576 1477 596 C 1477 612 1474 628 1469 642 C 1464 656 1456 668 1446 678 C 1436 688 1422 696 1406 702 C 1389 708 1369 711 1346 711 C 1325 711 1305 708 1286 704 C 1266 700 1248 694 1230 688 C 1212 681 1196 673 1180 665 C 1164 656 1151 647 1139 639 L 1100 815 C 1115 824 1132 833 1150 842 C 1168 851 1189 859 1212 867 C 1235 874 1261 880 1289 884 C 1317 888 1349 891 1384 891 C 1490 891 1571 869 1629 825 C 1687 781 1716 715 1716 629 C 1716 597 1711 567 1703 539 C 1694 511 1680 482 1662 453 C 1643 424 1619 394 1589 362 C 1559 330 1523 296 1481 260 L 1382 174 L 1731 174 L 1731 0 L 1102 0 L 1102 156 Z" unicode="½" />
<glyph horiz-adv-x="1978" d="M 78 1313 C 108 1323 143 1333 185 1344 C 227 1354 278 1360 338 1360 C 441 1360 521 1341 577 1304 C 633 1266 662 1213 662 1145 C 662 1117 657 1093 649 1073 C 641 1052 630 1034 616 1019 C 602 1004 586 991 568 981 C 550 970 532 961 514 954 L 514 950 C 537 944 560 936 583 925 C 605 914 625 900 643 882 C 661 864 675 843 686 818 C 696 793 702 764 702 731 C 702 685 691 644 671 610 C 650 576 622 547 587 525 C 551 502 510 485 463 474 C 415 462 365 457 311 457 C 293 457 273 457 253 459 C 232 460 211 462 189 465 C 167 467 145 471 123 476 C 101 480 81 486 63 492 L 84 666 C 118 654 151 645 185 637 C 219 629 255 625 295 625 C 347 625 388 633 420 650 C 451 667 467 695 467 735 C 467 772 453 799 425 816 C 397 833 361 842 315 842 C 305 842 293 841 280 841 C 267 840 254 839 240 838 C 226 837 214 836 202 836 C 190 835 180 834 172 834 L 160 999 L 281 1006 C 333 1009 370 1020 394 1039 C 418 1057 430 1081 430 1110 C 430 1163 389 1190 309 1190 C 286 1190 264 1188 244 1184 C 223 1180 204 1176 186 1172 C 168 1167 153 1162 139 1157 C 125 1151 114 1147 106 1145 L 78 1313 Z M 1206 1339 L 1452 1339 L 770 0 L 526 0 L 1206 1339 Z M 1804 168 L 1804 0 L 1585 0 L 1585 168 L 1180 168 L 1180 322 L 1534 879 L 1804 879 L 1804 324 L 1933 324 L 1933 168 L 1804 168 Z M 1362 324 L 1585 324 L 1585 483 C 1585 519 1585 552 1586 582 C 1586 612 1587 644 1589 678 L 1585 678 L 1362 324 Z" unicode="¾" />
<glyph horiz-adv-x="958" d="M 717 733 L 430 733 L 430 1030 L 717 1030 L 717 733 Z M 702 430 C 702 394 696 362 685 335 C 674 308 660 284 642 264 C 624 243 603 224 579 207 C 555 190 531 174 506 158 C 484 144 464 131 446 118 C 427 104 411 90 397 76 C 383 62 372 46 364 29 C 356 11 352 -7 352 -29 C 352 -74 369 -108 403 -130 C 437 -152 482 -164 539 -164 C 561 -164 587 -162 617 -159 C 647 -155 677 -150 708 -144 C 738 -138 768 -130 796 -122 C 824 -113 847 -104 866 -94 L 887 -315 C 865 -325 840 -333 810 -341 C 780 -349 747 -355 713 -361 C 679 -367 644 -371 608 -374 C 572 -377 538 -379 506 -379 C 444 -379 387 -373 334 -361 C 280 -349 234 -331 195 -305 C 155 -279 124 -247 102 -207 C 79 -167 68 -118 68 -61 C 68 -12 76 29 92 64 C 108 99 129 129 153 155 C 177 180 204 202 234 221 C 263 239 291 257 317 274 C 358 301 390 328 414 355 C 437 381 449 412 449 446 L 449 514 L 702 514 L 702 430 Z" unicode="¿" />
<glyph horiz-adv-x="1368" d="M 307 0 L 25 0 L 541 1389 L 829 1389 L 1341 0 L 1042 0 L 938 305 L 412 305 L 307 0 Z M 483 510 L 866 510 L 758 829 C 742 875 728 920 714 964 C 700 1008 689 1049 680 1087 L 672 1087 C 667 1069 661 1049 655 1027 C 648 1005 641 982 634 959 C 627 935 620 912 613 890 C 606 868 600 847 594 829 L 483 510 Z M 651 1827 L 856 1528 L 637 1528 L 371 1827 L 651 1827 Z" unicode="À" />
<glyph horiz-adv-x="1368" d="M 307 0 L 25 0 L 541 1389 L 829 1389 L 1341 0 L 1042 0 L 938 305 L 412 305 L 307 0 Z M 483 510 L 866 510 L 758 829 C 742 875 728 920 714 964 C 700 1008 689 1049 680 1087 L 672 1087 C 667 1069 661 1049 655 1027 C 648 1005 641 982 634 959 C 627 935 620 912 613 890 C 606 868 600 847 594 829 L 483 510 Z M 995 1827 L 729 1528 L 510 1528 L 715 1827 L 995 1827 Z" unicode="Á" />
<glyph horiz-adv-x="1368" d="M 307 0 L 25 0 L 541 1389 L 829 1389 L 1341 0 L 1042 0 L 938 305 L 412 305 L 307 0 Z M 483 510 L 866 510 L 758 829 C 742 875 728 920 714 964 C 700 1008 689 1049 680 1087 L 672 1087 C 667 1069 661 1049 655 1027 C 648 1005 641 982 634 959 C 627 935 620 912 613 890 C 606 868 600 847 594 829 L 483 510 Z M 811 1827 L 1026 1528 L 848 1528 L 688 1692 L 676 1692 L 514 1528 L 338 1528 L 553 1827 L 811 1827 Z" unicode="Â" />
<glyph horiz-adv-x="1368" d="M 307 0 L 25 0 L 541 1389 L 829 1389 L 1341 0 L 1042 0 L 938 305 L 412 305 L 307 0 Z M 483 510 L 866 510 L 758 829 C 742 875 728 920 714 964 C 700 1008 689 1049 680 1087 L 672 1087 C 667 1069 661 1049 655 1027 C 648 1005 641 982 634 959 C 627 935 620 912 613 890 C 606 868 600 847 594 829 L 483 510 Z M 291 1528 C 291 1582 297 1628 309 1668 C 321 1707 338 1739 360 1765 C 382 1791 407 1810 437 1822 C 466 1834 498 1841 532 1841 C 566 1841 596 1834 624 1821 C 651 1808 681 1787 713 1757 L 753 1718 C 762 1708 774 1698 788 1688 C 802 1678 817 1673 835 1673 C 863 1673 883 1687 897 1716 C 910 1744 917 1781 917 1827 L 1077 1827 C 1077 1773 1070 1727 1058 1687 C 1046 1647 1029 1615 1007 1589 C 985 1563 960 1543 931 1530 C 901 1517 869 1511 835 1511 C 796 1511 763 1518 735 1534 C 707 1549 680 1569 653 1595 L 614 1632 C 604 1641 592 1651 578 1662 C 564 1673 548 1679 530 1679 C 516 1679 504 1675 494 1667 C 484 1659 475 1649 468 1635 C 461 1621 456 1605 453 1587 C 449 1569 448 1549 448 1528 L 291 1528 L 291 1528 Z" unicode="Ã" />
<glyph horiz-adv-x="1368" d="M 307 0 L 25 0 L 541 1389 L 829 1389 L 1341 0 L 1042 0 L 938 305 L 412 305 L 307 0 Z M 483 510 L 866 510 L 758 829 C 742 875 728 920 714 964 C 700 1008 689 1049 680 1087 L 672 1087 C 667 1069 661 1049 655 1027 C 648 1005 641 982 634 959 C 627 935 620 912 613 890 C 606 868 600 847 594 829 L 483 510 Z M 577 1774 L 577 1540 L 356 1540 L 356 1774 L 577 1774 Z M 1010 1774 L 1010 1540 L 788 1540 L 788 1774 L 1010 1774 Z" unicode="Ä" />
<glyph horiz-adv-x="1368" d="M 307 0 L 25 0 L 541 1389 L 829 1389 L 1341 0 L 1042 0 L 938 305 L 412 305 L 307 0 Z M 483 510 L 866 510 L 758 829 C 742 875 728 920 714 964 C 700 1008 689 1049 680 1087 L 672 1087 C 667 1069 661 1049 655 1027 C 648 1005 641 982 634 959 C 627 935 620 912 613 890 C 606 868 600 847 594 829 L 483 510 Z M 420 1708 C 420 1742 426 1773 440 1803 C 453 1833 471 1859 495 1881 C 518 1903 546 1921 578 1934 C 610 1947 644 1954 682 1954 C 719 1954 753 1947 785 1934 C 817 1921 844 1903 868 1881 C 891 1859 909 1833 922 1803 C 935 1773 942 1742 942 1708 C 942 1674 935 1642 922 1612 C 909 1582 891 1555 868 1533 C 844 1511 817 1493 785 1481 C 753 1468 719 1462 682 1462 C 644 1462 610 1468 578 1481 C 546 1493 518 1511 495 1533 C 471 1555 453 1582 440 1612 C 426 1642 420 1674 420 1708 Z M 682 1835 C 664 1835 648 1831 632 1825 C 616 1818 603 1809 592 1797 C 580 1785 571 1772 565 1757 C 558 1741 555 1725 555 1708 C 555 1690 558 1674 565 1658 C 571 1642 580 1629 592 1618 C 603 1606 616 1597 632 1591 C 648 1584 664 1581 682 1581 C 699 1581 715 1584 730 1591 C 745 1597 758 1606 770 1618 C 781 1629 790 1642 797 1658 C 803 1674 807 1690 807 1708 C 807 1725 803 1741 797 1757 C 790 1772 781 1785 770 1797 C 758 1809 745 1818 730 1825 C 715 1831 699 1835 682 1835 Z" unicode="Å" />
<glyph horiz-adv-x="1929" d="M 279 0 L -8 0 L 821 1389 L 1802 1389 L 1802 1178 L 1217 1178 L 1217 819 L 1741 819 L 1741 608 L 1217 608 L 1217 211 L 1845 211 L 1845 0 L 952 0 L 952 305 L 453 305 L 279 0 Z M 569 510 L 952 510 L 952 1178 L 938 1178 C 927 1157 915 1134 903 1110 C 890 1085 877 1059 863 1033 C 849 1007 836 981 822 955 C 808 929 794 905 782 883 L 569 510 Z" unicode="Æ" />
<glyph horiz-adv-x="1274" d="M 1161 1087 C 1137 1099 1112 1111 1085 1122 C 1057 1133 1029 1143 999 1151 C 969 1159 939 1165 908 1169 C 876 1173 845 1176 815 1176 C 746 1176 684 1163 630 1138 C 575 1112 529 1077 491 1033 C 453 989 423 936 403 876 C 383 815 373 750 373 680 C 373 611 382 548 402 491 C 422 434 450 385 487 344 C 524 303 569 271 622 249 C 674 226 734 215 801 215 C 837 215 873 217 909 223 C 945 228 979 235 1013 244 C 1046 253 1077 264 1106 276 C 1135 288 1160 301 1182 315 L 1200 70 C 1178 56 1153 44 1124 33 C 1094 22 1062 13 1027 5 C 992 -3 955 -9 915 -13 C 875 -17 835 -20 793 -20 C 794 -23 796 -26 798 -29 C 800 -32 803 -35 807 -39 L 866 -104 C 881 -120 895 -141 907 -165 C 919 -189 926 -218 926 -252 C 926 -284 919 -313 906 -338 C 893 -363 875 -384 851 -401 C 827 -418 799 -431 766 -440 C 732 -448 695 -453 655 -453 C 613 -453 577 -449 547 -441 C 517 -433 491 -424 471 -414 L 485 -270 C 501 -279 523 -287 549 -294 C 575 -301 601 -305 627 -305 C 636 -305 646 -304 656 -303 C 666 -301 675 -298 683 -294 C 691 -289 697 -282 703 -274 C 708 -265 711 -254 711 -240 C 711 -223 707 -210 700 -201 C 692 -191 683 -180 672 -168 L 621 -117 C 615 -111 611 -106 607 -100 C 603 -94 602 -86 602 -74 L 602 0 C 522 18 450 47 387 87 C 324 127 271 177 227 236 C 183 294 150 361 127 435 C 103 509 92 590 92 676 C 92 780 108 876 142 966 C 175 1055 223 1132 285 1198 C 347 1264 423 1315 512 1353 C 600 1390 700 1409 811 1409 C 843 1409 875 1407 908 1404 C 941 1401 974 1397 1006 1391 C 1038 1385 1068 1377 1098 1367 C 1128 1357 1155 1346 1180 1333 L 1161 1087 Z" unicode="Ç" />
<glyph horiz-adv-x="1145" d="M 434 819 L 958 819 L 958 608 L 434 608 L 434 211 L 1061 211 L 1061 0 L 168 0 L 168 1389 L 1020 1389 L 1020 1178 L 434 1178 L 434 819 Z M 561 1827 L 766 1528 L 547 1528 L 281 1827 L 561 1827 Z" unicode="È" />
<glyph horiz-adv-x="1145" d="M 434 819 L 958 819 L 958 608 L 434 608 L 434 211 L 1061 211 L 1061 0 L 168 0 L 168 1389 L 1020 1389 L 1020 1178 L 434 1178 L 434 819 Z M 905 1827 L 639 1528 L 420 1528 L 625 1827 L 905 1827 Z" unicode="É" />
<glyph horiz-adv-x="1145" d="M 434 819 L 958 819 L 958 608 L 434 608 L 434 211 L 1061 211 L 1061 0 L 168 0 L 168 1389 L 1020 1389 L 1020 1178 L 434 1178 L 434 819 Z M 721 1827 L 936 1528 L 758 1528 L 598 1692 L 586 1692 L 424 1528 L 248 1528 L 463 1827 L 721 1827 Z" unicode="Ê" />
<glyph horiz-adv-x="1145" d="M 434 819 L 958 819 L 958 608 L 434 608 L 434 211 L 1061 211 L 1061 0 L 168 0 L 168 1389 L 1020 1389 L 1020 1178 L 434 1178 L 434 819 Z M 487 1774 L 487 1540 L 266 1540 L 266 1774 L 487 1774 Z M 920 1774 L 920 1540 L 698 1540 L 698 1774 L 920 1774 Z" unicode="Ë" />
<glyph horiz-adv-x="602" d="M 434 1389 L 434 0 L 168 0 L 168 1389 L 434 1389 Z M 270 1827 L 475 1528 L 256 1528 L -10 1827 L 270 1827 Z" unicode="Ì" />
<glyph horiz-adv-x="602" d="M 434 1389 L 434 0 L 168 0 L 168 1389 L 434 1389 Z M 614 1827 L 348 1528 L 129 1528 L 334 1827 L 614 1827 Z" unicode="Í" />
<glyph horiz-adv-x="602" d="M 434 1389 L 434 0 L 168 0 L 168 1389 L 434 1389 Z M 430 1827 L 645 1528 L 467 1528 L 307 1692 L 295 1692 L 133 1528 L -43 1528 L 172 1827 L 430 1827 Z" unicode="Î" />
<glyph horiz-adv-x="602" d="M 434 1389 L 434 0 L 168 0 L 168 1389 L 434 1389 Z M 197 1774 L 197 1540 L -25 1540 L -25 1774 L 197 1774 Z M 629 1774 L 629 1540 L 408 1540 L 408 1774 L 629 1774 Z" unicode="Ï" />
<glyph horiz-adv-x="1475" d="M 14 815 L 201 815 L 201 1384 C 229 1386 257 1388 287 1390 C 316 1392 345 1394 374 1396 C 402 1397 430 1398 457 1399 C 483 1400 508 1401 532 1401 C 608 1401 683 1395 755 1385 C 827 1374 894 1357 957 1334 C 1020 1310 1078 1280 1130 1244 C 1182 1207 1226 1163 1264 1112 C 1301 1060 1330 1001 1351 934 C 1371 867 1382 791 1382 707 C 1382 595 1363 494 1326 406 C 1289 317 1234 242 1162 180 C 1089 118 999 70 892 37 C 784 4 660 -12 520 -12 C 472 -12 421 -10 367 -7 C 313 -3 257 0 201 4 L 201 612 L 14 612 L 14 815 Z M 467 815 L 735 815 L 735 612 L 467 612 L 467 215 C 495 213 521 211 543 211 C 565 211 586 211 608 211 C 676 211 740 221 800 242 C 860 263 912 294 956 336 C 1000 377 1034 428 1060 489 C 1085 549 1098 620 1098 700 C 1098 788 1083 862 1053 924 C 1023 986 984 1036 936 1075 C 888 1113 833 1141 771 1159 C 709 1177 647 1186 584 1186 C 565 1186 545 1185 524 1185 C 503 1184 484 1183 467 1182 L 467 815 Z" unicode="Ð" />
<glyph horiz-adv-x="1477" d="M 168 1389 L 408 1389 L 895 686 C 907 667 920 647 934 625 C 948 603 961 582 975 561 C 989 540 1001 520 1013 501 C 1025 482 1034 466 1042 453 L 1051 453 C 1049 482 1047 510 1046 536 C 1044 562 1043 589 1043 615 C 1042 641 1042 667 1042 693 C 1042 719 1042 748 1042 778 L 1042 1389 L 1309 1389 L 1309 0 L 1071 0 L 582 707 C 568 724 555 743 541 764 C 527 785 513 806 500 827 C 486 848 474 868 463 887 C 451 906 442 922 434 936 L 426 936 C 428 906 429 877 430 851 C 431 825 432 799 433 773 C 433 747 434 720 434 694 C 434 668 434 640 434 610 L 434 0 L 168 0 L 168 1389 Z M 344 1528 C 344 1582 350 1628 362 1668 C 374 1707 391 1739 413 1765 C 435 1791 460 1810 490 1822 C 519 1834 551 1841 585 1841 C 619 1841 649 1834 677 1821 C 704 1808 734 1787 766 1757 L 806 1718 C 815 1708 827 1698 841 1688 C 855 1678 870 1673 888 1673 C 916 1673 936 1687 950 1716 C 963 1744 970 1781 970 1827 L 1130 1827 C 1130 1773 1123 1727 1111 1687 C 1099 1647 1082 1615 1060 1589 C 1038 1563 1013 1543 984 1530 C 954 1517 922 1511 888 1511 C 849 1511 816 1518 788 1534 C 760 1549 733 1569 706 1595 L 667 1632 C 657 1641 645 1651 631 1662 C 617 1673 601 1679 583 1679 C 569 1679 557 1675 547 1667 C 537 1659 528 1649 521 1635 C 514 1621 509 1605 506 1587 C 502 1569 501 1549 501 1528 L 344 1528 L 344 1528 Z" unicode="Ñ" />
<glyph horiz-adv-x="1522" d="M 1430 711 C 1430 610 1414 515 1384 427 C 1353 338 1308 260 1250 194 C 1192 128 1120 75 1036 37 C 952 0 856 -20 750 -20 C 650 -20 560 -2 479 31 C 398 65 329 113 272 175 C 214 237 170 310 139 396 C 107 481 92 575 92 678 C 92 744 98 809 112 871 C 126 933 146 992 173 1046 C 199 1100 232 1149 271 1194 C 310 1238 355 1276 405 1308 C 455 1340 510 1364 571 1382 C 632 1400 698 1409 770 1409 C 870 1409 960 1391 1041 1357 C 1122 1323 1191 1275 1249 1213 C 1307 1151 1351 1078 1383 992 C 1414 906 1430 813 1430 711 Z M 1149 713 C 1149 783 1140 847 1123 905 C 1105 962 1080 1011 1048 1052 C 1015 1092 975 1124 928 1146 C 881 1168 828 1180 770 1180 C 705 1180 648 1167 598 1142 C 548 1116 507 1081 473 1037 C 439 993 414 940 397 879 C 379 818 371 752 371 680 C 371 609 379 545 397 487 C 415 429 440 379 473 338 C 505 297 545 265 592 243 C 639 220 692 209 752 209 C 816 209 872 221 922 247 C 971 273 1012 308 1046 353 C 1080 398 1105 451 1123 513 C 1140 574 1149 641 1149 713 Z M 727 1827 L 932 1528 L 713 1528 L 447 1827 L 727 1827 Z" unicode="Ò" />
<glyph horiz-adv-x="1522" d="M 1430 711 C 1430 610 1414 515 1384 427 C 1353 338 1308 260 1250 194 C 1192 128 1120 75 1036 37 C 952 0 856 -20 750 -20 C 650 -20 560 -2 479 31 C 398 65 329 113 272 175 C 214 237 170 310 139 396 C 107 481 92 575 92 678 C 92 744 98 809 112 871 C 126 933 146 992 173 1046 C 199 1100 232 1149 271 1194 C 310 1238 355 1276 405 1308 C 455 1340 510 1364 571 1382 C 632 1400 698 1409 770 1409 C 870 1409 960 1391 1041 1357 C 1122 1323 1191 1275 1249 1213 C 1307 1151 1351 1078 1383 992 C 1414 906 1430 813 1430 711 Z M 1149 713 C 1149 783 1140 847 1123 905 C 1105 962 1080 1011 1048 1052 C 1015 1092 975 1124 928 1146 C 881 1168 828 1180 770 1180 C 705 1180 648 1167 598 1142 C 548 1116 507 1081 473 1037 C 439 993 414 940 397 879 C 379 818 371 752 371 680 C 371 609 379 545 397 487 C 415 429 440 379 473 338 C 505 297 545 265 592 243 C 639 220 692 209 752 209 C 816 209 872 221 922 247 C 971 273 1012 308 1046 353 C 1080 398 1105 451 1123 513 C 1140 574 1149 641 1149 713 Z M 1071 1827 L 805 1528 L 586 1528 L 791 1827 L 1071 1827 Z" unicode="Ó" />
<glyph horiz-adv-x="1522" d="M 1430 711 C 1430 610 1414 515 1384 427 C 1353 338 1308 260 1250 194 C 1192 128 1120 75 1036 37 C 952 0 856 -20 750 -20 C 650 -20 560 -2 479 31 C 398 65 329 113 272 175 C 214 237 170 310 139 396 C 107 481 92 575 92 678 C 92 744 98 809 112 871 C 126 933 146 992 173 1046 C 199 1100 232 1149 271 1194 C 310 1238 355 1276 405 1308 C 455 1340 510 1364 571 1382 C 632 1400 698 1409 770 1409 C 870 1409 960 1391 1041 1357 C 1122 1323 1191 1275 1249 1213 C 1307 1151 1351 1078 1383 992 C 1414 906 1430 813 1430 711 Z M 1149 713 C 1149 783 1140 847 1123 905 C 1105 962 1080 1011 1048 1052 C 1015 1092 975 1124 928 1146 C 881 1168 828 1180 770 1180 C 705 1180 648 1167 598 1142 C 548 1116 507 1081 473 1037 C 439 993 414 940 397 879 C 379 818 371 752 371 680 C 371 609 379 545 397 487 C 415 429 440 379 473 338 C 505 297 545 265 592 243 C 639 220 692 209 752 209 C 816 209 872 221 922 247 C 971 273 1012 308 1046 353 C 1080 398 1105 451 1123 513 C 1140 574 1149 641 1149 713 Z M 887 1827 L 1102 1528 L 924 1528 L 764 1692 L 752 1692 L 590 1528 L 414 1528 L 629 1827 L 887 1827 Z" unicode="Ô" />
<glyph horiz-adv-x="1522" d="M 1430 711 C 1430 610 1414 515 1384 427 C 1353 338 1308 260 1250 194 C 1192 128 1120 75 1036 37 C 952 0 856 -20 750 -20 C 650 -20 560 -2 479 31 C 398 65 329 113 272 175 C 214 237 170 310 139 396 C 107 481 92 575 92 678 C 92 744 98 809 112 871 C 126 933 146 992 173 1046 C 199 1100 232 1149 271 1194 C 310 1238 355 1276 405 1308 C 455 1340 510 1364 571 1382 C 632 1400 698 1409 770 1409 C 870 1409 960 1391 1041 1357 C 1122 1323 1191 1275 1249 1213 C 1307 1151 1351 1078 1383 992 C 1414 906 1430 813 1430 711 Z M 1149 713 C 1149 783 1140 847 1123 905 C 1105 962 1080 1011 1048 1052 C 1015 1092 975 1124 928 1146 C 881 1168 828 1180 770 1180 C 705 1180 648 1167 598 1142 C 548 1116 507 1081 473 1037 C 439 993 414 940 397 879 C 379 818 371 752 371 680 C 371 609 379 545 397 487 C 415 429 440 379 473 338 C 505 297 545 265 592 243 C 639 220 692 209 752 209 C 816 209 872 221 922 247 C 971 273 1012 308 1046 353 C 1080 398 1105 451 1123 513 C 1140 574 1149 641 1149 713 Z M 367 1528 C 367 1582 373 1628 385 1668 C 397 1707 414 1739 436 1765 C 458 1791 483 1810 513 1822 C 542 1834 574 1841 608 1841 C 642 1841 672 1834 700 1821 C 727 1808 757 1787 789 1757 L 829 1718 C 838 1708 850 1698 864 1688 C 878 1678 893 1673 911 1673 C 939 1673 959 1687 973 1716 C 986 1744 993 1781 993 1827 L 1153 1827 C 1153 1773 1146 1727 1134 1687 C 1122 1647 1105 1615 1083 1589 C 1061 1563 1036 1543 1007 1530 C 977 1517 945 1511 911 1511 C 872 1511 839 1518 811 1534 C 783 1549 756 1569 729 1595 L 690 1632 C 680 1641 668 1651 654 1662 C 640 1673 624 1679 606 1679 C 592 1679 580 1675 570 1667 C 560 1659 551 1649 544 1635 C 537 1621 532 1605 529 1587 C 525 1569 524 1549 524 1528 L 367 1528 L 367 1528 Z" unicode="Õ" />
<glyph horiz-adv-x="1522" d="M 1430 711 C 1430 610 1414 515 1384 427 C 1353 338 1308 260 1250 194 C 1192 128 1120 75 1036 37 C 952 0 856 -20 750 -20 C 650 -20 560 -2 479 31 C 398 65 329 113 272 175 C 214 237 170 310 139 396 C 107 481 92 575 92 678 C 92 744 98 809 112 871 C 126 933 146 992 173 1046 C 199 1100 232 1149 271 1194 C 310 1238 355 1276 405 1308 C 455 1340 510 1364 571 1382 C 632 1400 698 1409 770 1409 C 870 1409 960 1391 1041 1357 C 1122 1323 1191 1275 1249 1213 C 1307 1151 1351 1078 1383 992 C 1414 906 1430 813 1430 711 Z M 1149 713 C 1149 783 1140 847 1123 905 C 1105 962 1080 1011 1048 1052 C 1015 1092 975 1124 928 1146 C 881 1168 828 1180 770 1180 C 705 1180 648 1167 598 1142 C 548 1116 507 1081 473 1037 C 439 993 414 940 397 879 C 379 818 371 752 371 680 C 371 609 379 545 397 487 C 415 429 440 379 473 338 C 505 297 545 265 592 243 C 639 220 692 209 752 209 C 816 209 872 221 922 247 C 971 273 1012 308 1046 353 C 1080 398 1105 451 1123 513 C 1140 574 1149 641 1149 713 Z M 653 1774 L 653 1540 L 432 1540 L 432 1774 L 653 1774 Z M 1086 1774 L 1086 1540 L 864 1540 L 864 1774 L 1086 1774 Z" unicode="Ö" />
<glyph horiz-adv-x="1145" d="M 37 201 L 424 586 L 35 973 L 186 1124 L 575 739 L 958 1122 L 1106 977 L 721 592 L 1110 203 L 958 51 L 571 440 L 184 53 L 37 201 Z" unicode="×" />
<glyph horiz-adv-x="1522" d="M 399 72 C 351 100 308 135 270 177 C 232 218 199 264 173 316 C 147 368 127 424 113 485 C 99 545 92 610 92 678 C 92 744 98 809 112 871 C 126 933 146 992 173 1046 C 199 1100 232 1149 271 1194 C 310 1238 355 1276 405 1308 C 455 1340 510 1364 571 1382 C 632 1400 698 1409 770 1409 C 830 1409 886 1403 940 1391 L 1001 1534 L 1212 1534 L 1120 1317 C 1168 1287 1212 1252 1250 1211 C 1288 1169 1321 1123 1348 1071 C 1374 1019 1395 963 1409 903 C 1423 842 1430 778 1430 711 C 1430 610 1414 515 1384 427 C 1353 338 1308 260 1250 194 C 1192 128 1120 75 1036 37 C 952 0 856 -20 750 -20 C 689 -20 632 -14 580 -2 L 520 -145 L 309 -145 L 399 72 Z M 365 680 C 365 591 377 513 403 446 C 429 378 466 324 514 283 L 870 1176 C 840 1184 806 1188 770 1188 C 704 1188 646 1175 596 1149 C 546 1123 503 1088 469 1043 C 435 997 409 944 391 882 C 373 820 365 752 365 680 Z M 1157 713 C 1157 800 1144 877 1118 943 C 1092 1009 1056 1062 1008 1104 L 653 211 C 668 207 684 205 701 203 C 717 201 734 201 752 201 C 817 201 875 214 925 240 C 975 266 1018 302 1052 348 C 1086 394 1112 448 1130 510 C 1148 572 1157 640 1157 713 Z" unicode="Ø" />
<glyph horiz-adv-x="1444" d="M 729 215 C 778 215 820 221 854 234 C 888 246 917 264 940 287 C 960 305 977 327 990 352 C 1002 377 1012 405 1019 436 C 1026 467 1031 501 1034 538 C 1036 574 1038 613 1038 655 L 1038 1389 L 1296 1389 L 1296 641 C 1296 586 1294 537 1291 495 C 1287 452 1283 414 1277 381 C 1271 347 1263 318 1254 292 C 1245 266 1235 242 1223 221 C 1198 175 1168 137 1132 106 C 1096 75 1057 50 1014 32 C 970 13 924 0 875 -8 C 826 -16 776 -20 725 -20 C 675 -20 626 -16 578 -9 C 529 -1 483 11 439 30 C 395 48 354 73 317 104 C 280 134 249 173 223 221 C 210 243 199 268 189 296 C 179 324 171 355 165 389 C 159 423 154 460 151 502 C 148 544 147 590 147 641 L 147 1389 L 412 1389 L 412 655 C 412 611 413 570 416 533 C 418 496 423 462 431 432 C 438 402 448 374 461 350 C 474 326 491 305 512 287 C 536 263 566 245 602 233 C 637 221 679 215 729 215 Z M 690 1827 L 895 1528 L 676 1528 L 410 1827 L 690 1827 Z" unicode="Ù" />
<glyph horiz-adv-x="1444" d="M 729 215 C 778 215 820 221 854 234 C 888 246 917 264 940 287 C 960 305 977 327 990 352 C 1002 377 1012 405 1019 436 C 1026 467 1031 501 1034 538 C 1036 574 1038 613 1038 655 L 1038 1389 L 1296 1389 L 1296 641 C 1296 586 1294 537 1291 495 C 1287 452 1283 414 1277 381 C 1271 347 1263 318 1254 292 C 1245 266 1235 242 1223 221 C 1198 175 1168 137 1132 106 C 1096 75 1057 50 1014 32 C 970 13 924 0 875 -8 C 826 -16 776 -20 725 -20 C 675 -20 626 -16 578 -9 C 529 -1 483 11 439 30 C 395 48 354 73 317 104 C 280 134 249 173 223 221 C 210 243 199 268 189 296 C 179 324 171 355 165 389 C 159 423 154 460 151 502 C 148 544 147 590 147 641 L 147 1389 L 412 1389 L 412 655 C 412 611 413 570 416 533 C 418 496 423 462 431 432 C 438 402 448 374 461 350 C 474 326 491 305 512 287 C 536 263 566 245 602 233 C 637 221 679 215 729 215 Z M 1034 1827 L 768 1528 L 549 1528 L 754 1827 L 1034 1827 Z" unicode="Ú" />
<glyph horiz-adv-x="1444" d="M 729 215 C 778 215 820 221 854 234 C 888 246 917 264 940 287 C 960 305 977 327 990 352 C 1002 377 1012 405 1019 436 C 1026 467 1031 501 1034 538 C 1036 574 1038 613 1038 655 L 1038 1389 L 1296 1389 L 1296 641 C 1296 586 1294 537 1291 495 C 1287 452 1283 414 1277 381 C 1271 347 1263 318 1254 292 C 1245 266 1235 242 1223 221 C 1198 175 1168 137 1132 106 C 1096 75 1057 50 1014 32 C 970 13 924 0 875 -8 C 826 -16 776 -20 725 -20 C 675 -20 626 -16 578 -9 C 529 -1 483 11 439 30 C 395 48 354 73 317 104 C 280 134 249 173 223 221 C 210 243 199 268 189 296 C 179 324 171 355 165 389 C 159 423 154 460 151 502 C 148 544 147 590 147 641 L 147 1389 L 412 1389 L 412 655 C 412 611 413 570 416 533 C 418 496 423 462 431 432 C 438 402 448 374 461 350 C 474 326 491 305 512 287 C 536 263 566 245 602 233 C 637 221 679 215 729 215 Z M 850 1827 L 1065 1528 L 887 1528 L 727 1692 L 715 1692 L 553 1528 L 377 1528 L 592 1827 L 850 1827 Z" unicode="Û" />
<glyph horiz-adv-x="1444" d="M 729 215 C 778 215 820 221 854 234 C 888 246 917 264 940 287 C 960 305 977 327 990 352 C 1002 377 1012 405 1019 436 C 1026 467 1031 501 1034 538 C 1036 574 1038 613 1038 655 L 1038 1389 L 1296 1389 L 1296 641 C 1296 586 1294 537 1291 495 C 1287 452 1283 414 1277 381 C 1271 347 1263 318 1254 292 C 1245 266 1235 242 1223 221 C 1198 175 1168 137 1132 106 C 1096 75 1057 50 1014 32 C 970 13 924 0 875 -8 C 826 -16 776 -20 725 -20 C 675 -20 626 -16 578 -9 C 529 -1 483 11 439 30 C 395 48 354 73 317 104 C 280 134 249 173 223 221 C 210 243 199 268 189 296 C 179 324 171 355 165 389 C 159 423 154 460 151 502 C 148 544 147 590 147 641 L 147 1389 L 412 1389 L 412 655 C 412 611 413 570 416 533 C 418 496 423 462 431 432 C 438 402 448 374 461 350 C 474 326 491 305 512 287 C 536 263 566 245 602 233 C 637 221 679 215 729 215 Z M 616 1774 L 616 1540 L 395 1540 L 395 1774 L 616 1774 Z M 1049 1774 L 1049 1540 L 827 1540 L 827 1774 L 1049 1774 Z" unicode="Ü" />
<glyph horiz-adv-x="1155" d="M -2 1389 L 301 1389 L 586 819 L 874 1389 L 1157 1389 L 709 573 L 709 0 L 444 0 L 444 573 L -2 1389 Z M 889 1827 L 623 1528 L 404 1528 L 609 1827 L 889 1827 Z" unicode="Ý" />
<glyph horiz-adv-x="1249" d="M 434 1389 L 434 1139 C 470 1140 503 1141 534 1142 C 564 1142 592 1143 618 1143 C 706 1143 784 1134 854 1117 C 924 1099 983 1072 1032 1036 C 1081 1000 1119 954 1145 898 C 1171 842 1184 776 1184 700 C 1184 626 1171 562 1147 506 C 1123 450 1088 404 1043 367 C 998 329 944 301 880 282 C 816 263 745 254 666 254 C 653 254 637 254 619 254 C 601 254 581 255 560 256 C 539 256 518 257 496 258 C 474 259 453 260 434 262 L 434 0 L 168 0 L 168 1389 L 434 1389 Z M 434 459 C 452 458 471 457 491 457 C 510 457 528 457 546 457 C 564 457 580 457 595 457 C 610 457 623 457 633 457 C 725 457 795 478 841 520 C 887 562 911 622 911 700 C 911 778 887 839 839 881 C 791 923 718 944 621 944 C 593 944 565 943 535 943 C 505 943 471 942 434 940 L 434 459 Z" unicode="Þ" />
<glyph horiz-adv-x="1204" d="M 584 215 C 595 210 608 206 623 202 C 637 198 652 194 668 191 C 684 188 699 186 715 184 C 731 182 746 182 760 182 C 805 182 841 191 868 211 C 895 231 909 263 909 307 C 909 327 905 347 899 365 C 893 383 884 401 873 419 C 862 436 849 453 835 471 C 820 488 804 506 788 526 L 741 582 C 715 612 693 640 675 664 C 657 688 643 711 632 731 C 621 751 613 769 609 786 C 604 802 602 818 602 834 C 602 854 605 873 613 889 C 620 905 629 920 640 934 C 650 948 662 961 675 975 C 687 989 699 1004 710 1021 C 720 1037 729 1056 737 1076 C 744 1096 748 1121 748 1149 C 748 1173 744 1196 738 1218 C 731 1239 721 1258 707 1274 C 693 1290 676 1302 656 1311 C 635 1320 610 1325 582 1325 C 520 1325 473 1302 442 1256 C 410 1210 395 1138 395 1040 L 395 0 L 139 0 L 139 1051 C 139 1120 146 1183 161 1241 C 175 1298 200 1347 234 1388 C 268 1428 312 1460 367 1482 C 422 1504 490 1516 571 1516 C 639 1516 698 1508 750 1492 C 802 1476 845 1455 880 1427 C 915 1399 942 1365 960 1327 C 978 1288 987 1246 987 1200 C 987 1169 983 1142 976 1119 C 969 1096 960 1076 950 1058 C 939 1040 927 1023 915 1009 C 903 995 891 981 881 969 C 870 957 861 945 854 933 C 847 921 844 909 844 897 C 844 877 852 855 870 829 C 887 803 914 767 952 723 L 993 674 C 1025 635 1051 600 1073 569 C 1094 538 1111 509 1124 482 C 1136 455 1145 429 1151 405 C 1156 380 1159 354 1159 328 C 1159 266 1148 214 1126 170 C 1104 126 1075 91 1039 63 C 1002 35 960 14 913 1 C 865 -11 816 -18 764 -18 C 749 -18 733 -17 716 -16 C 698 -15 681 -13 663 -11 C 645 -8 628 -5 612 -1 C 595 3 580 8 567 14 L 584 215 Z" unicode="ß" />
<glyph horiz-adv-x="1069" d="M 137 975 C 157 985 181 994 208 1004 C 235 1013 265 1021 298 1029 C 330 1036 365 1042 403 1046 C 441 1050 480 1053 522 1053 C 606 1053 676 1044 730 1026 C 784 1008 826 982 857 950 C 888 918 910 879 922 835 C 934 790 940 741 940 688 L 940 279 C 940 249 940 222 942 197 C 943 172 945 148 948 126 C 950 104 954 82 958 62 C 962 41 966 20 971 0 L 733 0 C 727 23 722 47 718 71 C 714 95 711 122 709 150 L 705 150 C 671 97 626 56 568 27 C 510 -1 443 -16 369 -16 C 320 -16 276 -9 237 3 C 197 15 164 34 136 58 C 108 82 86 112 71 147 C 56 182 49 222 49 268 C 49 321 60 370 83 414 C 106 458 143 497 194 530 C 245 563 311 590 392 610 C 472 630 570 642 686 647 L 686 676 C 686 704 682 730 676 752 C 669 774 658 793 642 808 C 626 823 606 834 580 842 C 554 850 521 854 483 854 C 451 854 419 851 389 847 C 358 843 329 837 303 830 C 276 822 251 814 229 805 C 207 796 188 787 172 778 L 137 975 Z M 446 162 C 472 162 499 166 527 176 C 555 186 580 201 604 222 C 628 242 647 269 663 301 C 678 333 686 371 686 416 L 686 502 C 615 496 556 487 508 475 C 460 463 421 448 392 431 C 363 414 342 394 330 372 C 317 350 311 325 311 297 C 311 255 323 222 348 198 C 373 174 406 162 446 162 Z M 487 1493 L 700 1180 L 481 1180 L 200 1493 L 487 1493 Z" unicode="à" />
<glyph horiz-adv-x="1069" d="M 137 975 C 157 985 181 994 208 1004 C 235 1013 265 1021 298 1029 C 330 1036 365 1042 403 1046 C 441 1050 480 1053 522 1053 C 606 1053 676 1044 730 1026 C 784 1008 826 982 857 950 C 888 918 910 879 922 835 C 934 790 940 741 940 688 L 940 279 C 940 249 940 222 942 197 C 943 172 945 148 948 126 C 950 104 954 82 958 62 C 962 41 966 20 971 0 L 733 0 C 727 23 722 47 718 71 C 714 95 711 122 709 150 L 705 150 C 671 97 626 56 568 27 C 510 -1 443 -16 369 -16 C 320 -16 276 -9 237 3 C 197 15 164 34 136 58 C 108 82 86 112 71 147 C 56 182 49 222 49 268 C 49 321 60 370 83 414 C 106 458 143 497 194 530 C 245 563 311 590 392 610 C 472 630 570 642 686 647 L 686 676 C 686 704 682 730 676 752 C 669 774 658 793 642 808 C 626 823 606 834 580 842 C 554 850 521 854 483 854 C 451 854 419 851 389 847 C 358 843 329 837 303 830 C 276 822 251 814 229 805 C 207 796 188 787 172 778 L 137 975 Z M 446 162 C 472 162 499 166 527 176 C 555 186 580 201 604 222 C 628 242 647 269 663 301 C 678 333 686 371 686 416 L 686 502 C 615 496 556 487 508 475 C 460 463 421 448 392 431 C 363 414 342 394 330 372 C 317 350 311 325 311 297 C 311 255 323 222 348 198 C 373 174 406 162 446 162 Z M 854 1493 L 573 1180 L 354 1180 L 567 1493 L 854 1493 Z" unicode="á" />
<glyph horiz-adv-x="1069" d="M 137 975 C 157 985 181 994 208 1004 C 235 1013 265 1021 298 1029 C 330 1036 365 1042 403 1046 C 441 1050 480 1053 522 1053 C 606 1053 676 1044 730 1026 C 784 1008 826 982 857 950 C 888 918 910 879 922 835 C 934 790 940 741 940 688 L 940 279 C 940 249 940 222 942 197 C 943 172 945 148 948 126 C 950 104 954 82 958 62 C 962 41 966 20 971 0 L 733 0 C 727 23 722 47 718 71 C 714 95 711 122 709 150 L 705 150 C 671 97 626 56 568 27 C 510 -1 443 -16 369 -16 C 320 -16 276 -9 237 3 C 197 15 164 34 136 58 C 108 82 86 112 71 147 C 56 182 49 222 49 268 C 49 321 60 370 83 414 C 106 458 143 497 194 530 C 245 563 311 590 392 610 C 472 630 570 642 686 647 L 686 676 C 686 704 682 730 676 752 C 669 774 658 793 642 808 C 626 823 606 834 580 842 C 554 850 521 854 483 854 C 451 854 419 851 389 847 C 358 843 329 837 303 830 C 276 822 251 814 229 805 C 207 796 188 787 172 778 L 137 975 Z M 446 162 C 472 162 499 166 527 176 C 555 186 580 201 604 222 C 628 242 647 269 663 301 C 678 333 686 371 686 416 L 686 502 C 615 496 556 487 508 475 C 460 463 421 448 392 431 C 363 414 342 394 330 372 C 317 350 311 325 311 297 C 311 255 323 222 348 198 C 373 174 406 162 446 162 Z M 655 1493 L 870 1180 L 692 1180 L 532 1356 L 520 1356 L 358 1180 L 182 1180 L 397 1493 L 655 1493 Z" unicode="â" />
<glyph horiz-adv-x="1069" d="M 137 975 C 157 985 181 994 208 1004 C 235 1013 265 1021 298 1029 C 330 1036 365 1042 403 1046 C 441 1050 480 1053 522 1053 C 606 1053 676 1044 730 1026 C 784 1008 826 982 857 950 C 888 918 910 879 922 835 C 934 790 940 741 940 688 L 940 279 C 940 249 940 222 942 197 C 943 172 945 148 948 126 C 950 104 954 82 958 62 C 962 41 966 20 971 0 L 733 0 C 727 23 722 47 718 71 C 714 95 711 122 709 150 L 705 150 C 671 97 626 56 568 27 C 510 -1 443 -16 369 -16 C 320 -16 276 -9 237 3 C 197 15 164 34 136 58 C 108 82 86 112 71 147 C 56 182 49 222 49 268 C 49 321 60 370 83 414 C 106 458 143 497 194 530 C 245 563 311 590 392 610 C 472 630 570 642 686 647 L 686 676 C 686 704 682 730 676 752 C 669 774 658 793 642 808 C 626 823 606 834 580 842 C 554 850 521 854 483 854 C 451 854 419 851 389 847 C 358 843 329 837 303 830 C 276 822 251 814 229 805 C 207 796 188 787 172 778 L 137 975 Z M 446 162 C 472 162 499 166 527 176 C 555 186 580 201 604 222 C 628 242 647 269 663 301 C 678 333 686 371 686 416 L 686 502 C 615 496 556 487 508 475 C 460 463 421 448 392 431 C 363 414 342 394 330 372 C 317 350 311 325 311 297 C 311 255 323 222 348 198 C 373 174 406 162 446 162 Z M 145 1180 C 145 1236 150 1285 162 1327 C 174 1369 190 1403 211 1430 C 232 1457 257 1477 285 1491 C 313 1504 344 1511 378 1511 C 394 1511 410 1509 424 1506 C 438 1502 452 1497 466 1490 C 479 1482 492 1473 506 1462 C 519 1450 534 1437 550 1421 L 593 1378 C 603 1368 616 1357 631 1346 C 645 1334 661 1329 677 1329 C 689 1329 701 1333 711 1342 C 721 1350 729 1362 735 1377 C 741 1392 746 1410 750 1430 C 753 1450 755 1471 755 1493 L 905 1493 C 905 1437 899 1388 887 1346 C 875 1304 859 1270 839 1242 C 818 1214 793 1194 765 1181 C 737 1167 706 1161 673 1161 C 661 1161 648 1162 635 1164 C 622 1166 609 1171 595 1177 C 581 1183 566 1192 550 1204 C 534 1216 517 1231 499 1249 L 456 1292 C 446 1302 434 1312 421 1322 C 408 1332 393 1337 376 1337 C 362 1337 350 1333 340 1325 C 330 1317 321 1306 315 1292 C 309 1278 304 1261 301 1242 C 297 1223 296 1202 296 1180 L 145 1180 L 145 1180 Z" unicode="ã" />
<glyph horiz-adv-x="1069" d="M 137 975 C 157 985 181 994 208 1004 C 235 1013 265 1021 298 1029 C 330 1036 365 1042 403 1046 C 441 1050 480 1053 522 1053 C 606 1053 676 1044 730 1026 C 784 1008 826 982 857 950 C 888 918 910 879 922 835 C 934 790 940 741 940 688 L 940 279 C 940 249 940 222 942 197 C 943 172 945 148 948 126 C 950 104 954 82 958 62 C 962 41 966 20 971 0 L 733 0 C 727 23 722 47 718 71 C 714 95 711 122 709 150 L 705 150 C 671 97 626 56 568 27 C 510 -1 443 -16 369 -16 C 320 -16 276 -9 237 3 C 197 15 164 34 136 58 C 108 82 86 112 71 147 C 56 182 49 222 49 268 C 49 321 60 370 83 414 C 106 458 143 497 194 530 C 245 563 311 590 392 610 C 472 630 570 642 686 647 L 686 676 C 686 704 682 730 676 752 C 669 774 658 793 642 808 C 626 823 606 834 580 842 C 554 850 521 854 483 854 C 451 854 419 851 389 847 C 358 843 329 837 303 830 C 276 822 251 814 229 805 C 207 796 188 787 172 778 L 137 975 Z M 446 162 C 472 162 499 166 527 176 C 555 186 580 201 604 222 C 628 242 647 269 663 301 C 678 333 686 371 686 416 L 686 502 C 615 496 556 487 508 475 C 460 463 421 448 392 431 C 363 414 342 394 330 372 C 317 350 311 325 311 297 C 311 255 323 222 348 198 C 373 174 406 162 446 162 Z M 421 1493 L 421 1260 L 200 1260 L 200 1493 L 421 1493 Z M 854 1493 L 854 1260 L 632 1260 L 632 1493 L 854 1493 Z" unicode="ä" />
<glyph horiz-adv-x="1069" d="M 137 975 C 157 985 181 994 208 1004 C 235 1013 265 1021 298 1029 C 330 1036 365 1042 403 1046 C 441 1050 480 1053 522 1053 C 606 1053 676 1044 730 1026 C 784 1008 826 982 857 950 C 888 918 910 879 922 835 C 934 790 940 741 940 688 L 940 279 C 940 249 940 222 942 197 C 943 172 945 148 948 126 C 950 104 954 82 958 62 C 962 41 966 20 971 0 L 733 0 C 727 23 722 47 718 71 C 714 95 711 122 709 150 L 705 150 C 671 97 626 56 568 27 C 510 -1 443 -16 369 -16 C 320 -16 276 -9 237 3 C 197 15 164 34 136 58 C 108 82 86 112 71 147 C 56 182 49 222 49 268 C 49 321 60 370 83 414 C 106 458 143 497 194 530 C 245 563 311 590 392 610 C 472 630 570 642 686 647 L 686 676 C 686 704 682 730 676 752 C 669 774 658 793 642 808 C 626 823 606 834 580 842 C 554 850 521 854 483 854 C 451 854 419 851 389 847 C 358 843 329 837 303 830 C 276 822 251 814 229 805 C 207 796 188 787 172 778 L 137 975 Z M 446 162 C 472 162 499 166 527 176 C 555 186 580 201 604 222 C 628 242 647 269 663 301 C 678 333 686 371 686 416 L 686 502 C 615 496 556 487 508 475 C 460 463 421 448 392 431 C 363 414 342 394 330 372 C 317 350 311 325 311 297 C 311 255 323 222 348 198 C 373 174 406 162 446 162 Z M 264 1389 C 264 1423 270 1454 284 1484 C 297 1514 315 1540 339 1562 C 362 1584 390 1601 422 1614 C 454 1627 488 1634 526 1634 C 563 1634 597 1627 629 1614 C 661 1601 688 1584 712 1562 C 735 1540 753 1514 766 1484 C 779 1454 786 1423 786 1389 C 786 1355 779 1323 766 1293 C 753 1263 735 1237 712 1215 C 688 1193 661 1175 629 1162 C 597 1149 563 1143 526 1143 C 488 1143 454 1149 422 1162 C 390 1175 362 1193 339 1215 C 315 1237 297 1263 284 1293 C 270 1323 264 1355 264 1389 Z M 526 1516 C 508 1516 492 1512 476 1506 C 460 1499 447 1490 436 1478 C 424 1466 415 1453 409 1438 C 402 1422 399 1406 399 1389 C 399 1371 402 1355 409 1339 C 415 1323 424 1310 436 1299 C 447 1287 460 1278 476 1272 C 492 1265 508 1262 526 1262 C 543 1262 559 1265 574 1272 C 589 1278 602 1287 614 1299 C 625 1310 634 1323 641 1339 C 647 1355 651 1371 651 1389 C 651 1406 647 1422 641 1438 C 634 1453 625 1466 614 1478 C 602 1490 589 1499 574 1506 C 559 1512 543 1516 526 1516 Z" unicode="å" />
<glyph horiz-adv-x="1710" d="M 1577 37 C 1529 18 1477 4 1420 -5 C 1362 -15 1303 -20 1243 -20 C 1209 -20 1170 -17 1128 -13 C 1085 -8 1043 1 1001 16 C 959 30 919 51 881 78 C 843 105 811 141 786 186 L 782 186 C 742 118 689 67 625 34 C 560 0 485 -16 401 -16 C 347 -16 300 -9 258 3 C 216 15 181 34 152 58 C 123 82 101 111 86 146 C 70 181 63 221 63 266 C 63 322 74 373 98 418 C 121 462 158 500 209 532 C 259 564 325 588 406 605 C 486 621 584 630 700 631 L 700 676 C 700 704 696 730 690 752 C 683 774 672 793 656 808 C 640 823 620 834 594 842 C 568 850 536 854 498 854 C 466 854 434 851 404 847 C 373 843 344 837 317 830 C 290 822 265 814 243 805 C 221 796 202 787 186 778 L 152 975 C 172 985 195 994 223 1004 C 250 1013 280 1021 313 1029 C 345 1036 381 1042 419 1046 C 457 1050 497 1053 539 1053 C 625 1053 695 1042 750 1022 C 805 1001 849 968 883 922 L 885 922 C 926 968 974 1001 1028 1021 C 1082 1041 1139 1051 1198 1051 C 1230 1051 1263 1048 1297 1042 C 1331 1036 1364 1025 1396 1011 C 1428 996 1459 977 1488 953 C 1517 929 1543 898 1565 862 C 1587 826 1604 783 1617 734 C 1629 684 1636 627 1636 563 C 1636 530 1634 495 1630 459 L 948 459 L 948 455 C 954 396 967 348 989 312 C 1011 275 1037 246 1067 226 C 1097 205 1129 191 1164 183 C 1199 175 1233 172 1266 172 C 1286 172 1309 173 1334 176 C 1359 178 1385 182 1411 187 C 1437 192 1464 198 1491 206 C 1517 213 1543 221 1567 231 L 1577 37 Z M 465 162 C 489 162 514 166 542 175 C 569 183 594 197 618 215 C 642 233 661 257 677 285 C 692 313 700 347 700 387 L 700 477 C 627 477 567 472 519 463 C 471 454 432 441 403 425 C 374 409 354 389 342 367 C 330 344 324 319 324 293 C 324 255 336 223 362 199 C 387 174 421 162 465 162 Z M 1186 862 C 1156 862 1127 857 1101 847 C 1074 837 1050 822 1029 802 C 1007 782 989 756 975 726 C 961 695 952 659 948 618 L 1391 618 C 1393 662 1388 699 1378 730 C 1367 761 1352 786 1333 806 C 1313 826 1291 840 1265 849 C 1239 857 1213 862 1186 862 Z" unicode="æ" />
<glyph horiz-adv-x="948" d="M 874 49 C 844 31 806 16 762 2 C 718 -11 664 -18 600 -20 C 601 -23 603 -26 605 -29 C 607 -32 610 -35 614 -39 L 674 -104 C 689 -120 703 -141 715 -165 C 727 -189 733 -218 733 -252 C 733 -284 726 -313 713 -338 C 700 -363 682 -384 658 -401 C 634 -418 606 -431 573 -440 C 540 -448 503 -453 463 -453 C 421 -453 385 -449 355 -441 C 324 -433 299 -424 279 -414 L 293 -270 C 309 -279 331 -287 357 -294 C 383 -301 408 -305 434 -305 C 443 -305 453 -304 463 -303 C 473 -301 482 -298 490 -294 C 498 -289 504 -282 510 -274 C 515 -265 518 -254 518 -240 C 518 -223 514 -210 507 -201 C 499 -191 490 -180 479 -168 L 428 -117 C 422 -111 418 -106 415 -100 C 411 -94 410 -86 410 -74 L 410 2 C 359 16 313 36 271 64 C 229 92 194 126 165 168 C 135 210 112 259 96 315 C 80 371 72 434 72 506 C 72 602 86 684 115 753 C 144 821 183 878 231 922 C 279 966 335 998 399 1019 C 462 1040 528 1051 598 1051 C 646 1051 692 1046 736 1036 C 780 1026 822 1014 860 999 L 846 786 C 833 794 818 801 800 808 C 782 815 762 821 742 826 C 722 831 701 835 680 838 C 659 840 639 842 621 842 C 583 842 546 836 512 824 C 478 812 447 793 421 767 C 395 741 374 707 359 665 C 343 623 336 572 336 512 C 336 454 343 405 357 364 C 371 323 391 290 416 264 C 441 238 470 218 504 206 C 538 194 574 188 612 188 C 635 188 658 190 682 194 C 705 198 727 203 749 210 C 770 217 790 225 809 234 C 827 242 844 252 858 262 L 874 49 Z" unicode="ç" />
<glyph horiz-adv-x="1077" d="M 944 37 C 896 18 844 4 788 -5 C 731 -15 672 -20 610 -20 C 576 -20 539 -17 499 -13 C 459 -9 420 0 380 12 C 340 25 302 43 265 67 C 228 90 195 121 167 159 C 139 197 116 243 99 297 C 82 351 74 416 74 492 C 74 586 87 668 114 738 C 141 808 177 866 223 912 C 268 958 320 993 380 1016 C 439 1039 501 1051 567 1051 C 598 1051 631 1048 665 1042 C 699 1036 732 1025 764 1011 C 796 996 827 977 856 953 C 885 929 911 898 933 862 C 955 826 972 783 985 734 C 997 684 1004 627 1004 563 C 1004 546 1003 529 1002 512 C 1000 495 999 477 997 459 L 313 459 C 319 399 332 350 354 313 C 376 275 402 246 432 225 C 462 204 494 190 529 183 C 564 175 598 172 631 172 C 653 172 676 173 702 176 C 727 178 753 182 780 187 C 806 192 833 198 859 206 C 885 213 910 221 934 231 L 944 37 Z M 557 862 C 527 862 499 856 473 846 C 447 836 423 820 402 800 C 381 780 363 754 349 724 C 334 694 323 658 317 618 L 758 618 C 760 662 755 699 745 730 C 734 761 719 786 700 806 C 681 826 659 840 634 849 C 609 857 583 862 557 862 Z M 522 1493 L 735 1180 L 516 1180 L 235 1493 L 522 1493 Z" unicode="è" />
<glyph horiz-adv-x="1077" d="M 944 37 C 896 18 844 4 788 -5 C 731 -15 672 -20 610 -20 C 576 -20 539 -17 499 -13 C 459 -9 420 0 380 12 C 340 25 302 43 265 67 C 228 90 195 121 167 159 C 139 197 116 243 99 297 C 82 351 74 416 74 492 C 74 586 87 668 114 738 C 141 808 177 866 223 912 C 268 958 320 993 380 1016 C 439 1039 501 1051 567 1051 C 598 1051 631 1048 665 1042 C 699 1036 732 1025 764 1011 C 796 996 827 977 856 953 C 885 929 911 898 933 862 C 955 826 972 783 985 734 C 997 684 1004 627 1004 563 C 1004 546 1003 529 1002 512 C 1000 495 999 477 997 459 L 313 459 C 319 399 332 350 354 313 C 376 275 402 246 432 225 C 462 204 494 190 529 183 C 564 175 598 172 631 172 C 653 172 676 173 702 176 C 727 178 753 182 780 187 C 806 192 833 198 859 206 C 885 213 910 221 934 231 L 944 37 Z M 557 862 C 527 862 499 856 473 846 C 447 836 423 820 402 800 C 381 780 363 754 349 724 C 334 694 323 658 317 618 L 758 618 C 760 662 755 699 745 730 C 734 761 719 786 700 806 C 681 826 659 840 634 849 C 609 857 583 862 557 862 Z M 889 1493 L 608 1180 L 389 1180 L 602 1493 L 889 1493 Z" unicode="é" />
<glyph horiz-adv-x="1077" d="M 944 37 C 896 18 844 4 788 -5 C 731 -15 672 -20 610 -20 C 576 -20 539 -17 499 -13 C 459 -9 420 0 380 12 C 340 25 302 43 265 67 C 228 90 195 121 167 159 C 139 197 116 243 99 297 C 82 351 74 416 74 492 C 74 586 87 668 114 738 C 141 808 177 866 223 912 C 268 958 320 993 380 1016 C 439 1039 501 1051 567 1051 C 598 1051 631 1048 665 1042 C 699 1036 732 1025 764 1011 C 796 996 827 977 856 953 C 885 929 911 898 933 862 C 955 826 972 783 985 734 C 997 684 1004 627 1004 563 C 1004 546 1003 529 1002 512 C 1000 495 999 477 997 459 L 313 459 C 319 399 332 350 354 313 C 376 275 402 246 432 225 C 462 204 494 190 529 183 C 564 175 598 172 631 172 C 653 172 676 173 702 176 C 727 178 753 182 780 187 C 806 192 833 198 859 206 C 885 213 910 221 934 231 L 944 37 Z M 557 862 C 527 862 499 856 473 846 C 447 836 423 820 402 800 C 381 780 363 754 349 724 C 334 694 323 658 317 618 L 758 618 C 760 662 755 699 745 730 C 734 761 719 786 700 806 C 681 826 659 840 634 849 C 609 857 583 862 557 862 Z M 690 1493 L 905 1180 L 727 1180 L 567 1356 L 555 1356 L 393 1180 L 217 1180 L 432 1493 L 690 1493 Z" unicode="ê" />
<glyph horiz-adv-x="1077" d="M 944 37 C 896 18 844 4 788 -5 C 731 -15 672 -20 610 -20 C 576 -20 539 -17 499 -13 C 459 -9 420 0 380 12 C 340 25 302 43 265 67 C 228 90 195 121 167 159 C 139 197 116 243 99 297 C 82 351 74 416 74 492 C 74 586 87 668 114 738 C 141 808 177 866 223 912 C 268 958 320 993 380 1016 C 439 1039 501 1051 567 1051 C 598 1051 631 1048 665 1042 C 699 1036 732 1025 764 1011 C 796 996 827 977 856 953 C 885 929 911 898 933 862 C 955 826 972 783 985 734 C 997 684 1004 627 1004 563 C 1004 546 1003 529 1002 512 C 1000 495 999 477 997 459 L 313 459 C 319 399 332 350 354 313 C 376 275 402 246 432 225 C 462 204 494 190 529 183 C 564 175 598 172 631 172 C 653 172 676 173 702 176 C 727 178 753 182 780 187 C 806 192 833 198 859 206 C 885 213 910 221 934 231 L 944 37 Z M 557 862 C 527 862 499 856 473 846 C 447 836 423 820 402 800 C 381 780 363 754 349 724 C 334 694 323 658 317 618 L 758 618 C 760 662 755 699 745 730 C 734 761 719 786 700 806 C 681 826 659 840 634 849 C 609 857 583 862 557 862 Z M 456 1493 L 456 1260 L 235 1260 L 235 1493 L 456 1493 Z M 889 1493 L 889 1260 L 667 1260 L 667 1493 L 889 1493 Z" unicode="ë" />
<glyph horiz-adv-x="537" d="M 397 1030 L 397 0 L 141 0 L 141 1030 L 397 1030 Z M 229 1493 L 442 1180 L 225 1180 L -55 1493 L 229 1493 Z" unicode="ì" />
<glyph horiz-adv-x="537" d="M 397 1030 L 397 0 L 141 0 L 141 1030 L 397 1030 Z M 596 1493 L 315 1180 L 96 1180 L 309 1493 L 596 1493 Z" unicode="í" />
<glyph horiz-adv-x="537" d="M 397 1030 L 397 0 L 141 0 L 141 1030 L 397 1030 Z M 397 1493 L 612 1180 L 434 1180 L 274 1356 L 262 1356 L 100 1180 L -76 1180 L 141 1493 L 397 1493 Z" unicode="î" />
<glyph horiz-adv-x="537" d="M 397 1030 L 397 0 L 141 0 L 141 1030 L 397 1030 Z M 164 1493 L 164 1260 L -57 1260 L -57 1493 L 164 1493 Z M 596 1493 L 596 1260 L 375 1260 L 375 1493 L 596 1493 Z" unicode="ï" />
<glyph horiz-adv-x="1157" d="M 240 1251 L 510 1311 C 474 1335 437 1357 400 1377 C 362 1397 325 1413 289 1427 L 451 1528 C 503 1507 553 1483 603 1456 C 652 1429 699 1398 745 1362 L 997 1419 L 1026 1298 L 852 1260 C 886 1220 918 1177 946 1130 C 974 1083 999 1032 1019 976 C 1039 920 1054 861 1065 797 C 1075 733 1081 664 1081 590 C 1081 496 1070 411 1048 336 C 1026 261 994 197 952 144 C 909 91 856 50 793 22 C 730 -5 657 -20 575 -20 C 495 -20 424 -7 362 18 C 300 44 247 80 204 126 C 161 172 128 228 106 292 C 83 356 72 427 72 504 C 72 582 83 653 107 719 C 130 785 163 841 205 889 C 247 937 297 974 356 1000 C 414 1026 479 1040 551 1040 C 583 1040 613 1037 639 1031 C 665 1025 688 1018 708 1008 C 728 998 746 987 761 974 C 776 961 789 948 801 934 L 805 934 C 788 985 764 1034 734 1080 C 704 1126 669 1170 629 1210 L 268 1130 L 240 1251 Z M 573 176 C 615 176 651 185 682 204 C 713 223 739 249 759 281 C 779 313 794 351 804 394 C 814 437 819 483 819 532 C 819 581 814 625 804 665 C 794 704 779 737 759 765 C 739 793 714 814 685 829 C 655 844 622 852 584 852 C 542 852 506 843 475 826 C 444 809 418 785 397 755 C 376 724 360 688 350 646 C 339 604 334 559 334 510 C 334 460 339 415 349 374 C 359 333 375 298 395 269 C 415 239 440 216 470 200 C 500 184 534 176 573 176 Z" unicode="ð" />
<glyph horiz-adv-x="1174" d="M 793 662 C 793 684 790 707 785 729 C 779 751 770 770 758 787 C 745 804 728 818 707 828 C 686 838 660 844 629 844 C 601 844 573 838 545 827 C 517 816 493 800 471 780 C 449 759 431 734 417 704 C 403 674 397 641 397 604 L 397 0 L 141 0 L 141 813 L 131 1030 L 375 1030 L 381 868 L 385 868 C 425 927 471 972 523 1004 C 575 1035 639 1051 715 1051 C 826 1051 909 1019 965 956 C 1021 893 1049 806 1049 694 L 1049 0 L 793 0 L 793 662 Z M 205 1180 C 205 1236 210 1285 222 1327 C 234 1369 250 1403 271 1430 C 292 1457 317 1477 345 1491 C 373 1504 404 1511 438 1511 C 454 1511 470 1509 484 1506 C 498 1502 512 1497 526 1490 C 539 1482 552 1473 566 1462 C 579 1450 594 1437 610 1421 L 653 1378 C 663 1368 676 1357 691 1346 C 705 1334 721 1329 737 1329 C 749 1329 761 1333 771 1342 C 781 1350 789 1362 795 1377 C 801 1392 806 1410 810 1430 C 813 1450 815 1471 815 1493 L 965 1493 C 965 1437 959 1388 947 1346 C 935 1304 919 1270 899 1242 C 878 1214 853 1194 825 1181 C 797 1167 766 1161 733 1161 C 721 1161 708 1162 695 1164 C 682 1166 669 1171 655 1177 C 641 1183 626 1192 610 1204 C 594 1216 577 1231 559 1249 L 516 1292 C 506 1302 494 1312 481 1322 C 468 1332 453 1337 436 1337 C 422 1337 410 1333 400 1325 C 390 1317 381 1306 375 1292 C 369 1278 364 1261 361 1242 C 357 1223 356 1202 356 1180 L 205 1180 L 205 1180 Z" unicode="ñ" />
<glyph horiz-adv-x="1151" d="M 1081 528 C 1081 456 1070 388 1049 322 C 1028 256 997 197 955 147 C 913 96 860 55 796 25 C 732 -4 658 -20 573 -20 C 492 -20 420 -6 358 21 C 296 48 243 85 201 133 C 159 180 127 236 105 301 C 83 365 72 435 72 510 C 72 584 83 653 105 719 C 127 785 160 842 203 891 C 246 939 299 978 363 1006 C 427 1034 500 1049 584 1049 C 662 1049 731 1036 793 1010 C 854 984 906 949 949 903 C 991 857 1024 802 1047 738 C 1069 674 1081 604 1081 528 Z M 819 528 C 819 576 814 620 804 660 C 794 700 779 734 759 762 C 739 790 715 812 686 828 C 657 844 624 852 586 852 C 544 852 508 843 477 825 C 445 807 419 782 397 751 C 375 720 359 684 348 642 C 337 600 332 554 332 506 C 332 459 337 415 348 375 C 358 335 374 300 394 271 C 414 241 440 218 470 201 C 500 184 534 176 573 176 C 615 176 651 185 682 205 C 713 224 739 250 759 283 C 779 315 794 353 804 395 C 814 437 819 482 819 528 Z M 537 1493 L 750 1180 L 531 1180 L 250 1493 L 537 1493 Z" unicode="ò" />
<glyph horiz-adv-x="1151" d="M 1081 528 C 1081 456 1070 388 1049 322 C 1028 256 997 197 955 147 C 913 96 860 55 796 25 C 732 -4 658 -20 573 -20 C 492 -20 420 -6 358 21 C 296 48 243 85 201 133 C 159 180 127 236 105 301 C 83 365 72 435 72 510 C 72 584 83 653 105 719 C 127 785 160 842 203 891 C 246 939 299 978 363 1006 C 427 1034 500 1049 584 1049 C 662 1049 731 1036 793 1010 C 854 984 906 949 949 903 C 991 857 1024 802 1047 738 C 1069 674 1081 604 1081 528 Z M 819 528 C 819 576 814 620 804 660 C 794 700 779 734 759 762 C 739 790 715 812 686 828 C 657 844 624 852 586 852 C 544 852 508 843 477 825 C 445 807 419 782 397 751 C 375 720 359 684 348 642 C 337 600 332 554 332 506 C 332 459 337 415 348 375 C 358 335 374 300 394 271 C 414 241 440 218 470 201 C 500 184 534 176 573 176 C 615 176 651 185 682 205 C 713 224 739 250 759 283 C 779 315 794 353 804 395 C 814 437 819 482 819 528 Z M 904 1493 L 623 1180 L 404 1180 L 617 1493 L 904 1493 Z" unicode="ó" />
<glyph horiz-adv-x="1151" d="M 1081 528 C 1081 456 1070 388 1049 322 C 1028 256 997 197 955 147 C 913 96 860 55 796 25 C 732 -4 658 -20 573 -20 C 492 -20 420 -6 358 21 C 296 48 243 85 201 133 C 159 180 127 236 105 301 C 83 365 72 435 72 510 C 72 584 83 653 105 719 C 127 785 160 842 203 891 C 246 939 299 978 363 1006 C 427 1034 500 1049 584 1049 C 662 1049 731 1036 793 1010 C 854 984 906 949 949 903 C 991 857 1024 802 1047 738 C 1069 674 1081 604 1081 528 Z M 819 528 C 819 576 814 620 804 660 C 794 700 779 734 759 762 C 739 790 715 812 686 828 C 657 844 624 852 586 852 C 544 852 508 843 477 825 C 445 807 419 782 397 751 C 375 720 359 684 348 642 C 337 600 332 554 332 506 C 332 459 337 415 348 375 C 358 335 374 300 394 271 C 414 241 440 218 470 201 C 500 184 534 176 573 176 C 615 176 651 185 682 205 C 713 224 739 250 759 283 C 779 315 794 353 804 395 C 814 437 819 482 819 528 Z M 705 1493 L 920 1180 L 742 1180 L 582 1356 L 570 1356 L 408 1180 L 232 1180 L 447 1493 L 705 1493 Z" unicode="ô" />
<glyph horiz-adv-x="1151" d="M 1081 528 C 1081 456 1070 388 1049 322 C 1028 256 997 197 955 147 C 913 96 860 55 796 25 C 732 -4 658 -20 573 -20 C 492 -20 420 -6 358 21 C 296 48 243 85 201 133 C 159 180 127 236 105 301 C 83 365 72 435 72 510 C 72 584 83 653 105 719 C 127 785 160 842 203 891 C 246 939 299 978 363 1006 C 427 1034 500 1049 584 1049 C 662 1049 731 1036 793 1010 C 854 984 906 949 949 903 C 991 857 1024 802 1047 738 C 1069 674 1081 604 1081 528 Z M 819 528 C 819 576 814 620 804 660 C 794 700 779 734 759 762 C 739 790 715 812 686 828 C 657 844 624 852 586 852 C 544 852 508 843 477 825 C 445 807 419 782 397 751 C 375 720 359 684 348 642 C 337 600 332 554 332 506 C 332 459 337 415 348 375 C 358 335 374 300 394 271 C 414 241 440 218 470 201 C 500 184 534 176 573 176 C 615 176 651 185 682 205 C 713 224 739 250 759 283 C 779 315 794 353 804 395 C 814 437 819 482 819 528 Z M 195 1180 C 195 1236 200 1285 212 1327 C 224 1369 240 1403 261 1430 C 282 1457 307 1477 335 1491 C 363 1504 394 1511 428 1511 C 444 1511 460 1509 474 1506 C 488 1502 502 1497 516 1490 C 529 1482 542 1473 556 1462 C 569 1450 584 1437 600 1421 L 643 1378 C 653 1368 666 1357 681 1346 C 695 1334 711 1329 727 1329 C 739 1329 751 1333 761 1342 C 771 1350 779 1362 785 1377 C 791 1392 796 1410 800 1430 C 803 1450 805 1471 805 1493 L 955 1493 C 955 1437 949 1388 937 1346 C 925 1304 909 1270 889 1242 C 868 1214 843 1194 815 1181 C 787 1167 756 1161 723 1161 C 711 1161 698 1162 685 1164 C 672 1166 659 1171 645 1177 C 631 1183 616 1192 600 1204 C 584 1216 567 1231 549 1249 L 506 1292 C 496 1302 484 1312 471 1322 C 458 1332 443 1337 426 1337 C 412 1337 400 1333 390 1325 C 380 1317 371 1306 365 1292 C 359 1278 354 1261 351 1242 C 347 1223 346 1202 346 1180 L 195 1180 L 195 1180 Z" unicode="õ" />
<glyph horiz-adv-x="1151" d="M 1081 528 C 1081 456 1070 388 1049 322 C 1028 256 997 197 955 147 C 913 96 860 55 796 25 C 732 -4 658 -20 573 -20 C 492 -20 420 -6 358 21 C 296 48 243 85 201 133 C 159 180 127 236 105 301 C 83 365 72 435 72 510 C 72 584 83 653 105 719 C 127 785 160 842 203 891 C 246 939 299 978 363 1006 C 427 1034 500 1049 584 1049 C 662 1049 731 1036 793 1010 C 854 984 906 949 949 903 C 991 857 1024 802 1047 738 C 1069 674 1081 604 1081 528 Z M 819 528 C 819 576 814 620 804 660 C 794 700 779 734 759 762 C 739 790 715 812 686 828 C 657 844 624 852 586 852 C 544 852 508 843 477 825 C 445 807 419 782 397 751 C 375 720 359 684 348 642 C 337 600 332 554 332 506 C 332 459 337 415 348 375 C 358 335 374 300 394 271 C 414 241 440 218 470 201 C 500 184 534 176 573 176 C 615 176 651 185 682 205 C 713 224 739 250 759 283 C 779 315 794 353 804 395 C 814 437 819 482 819 528 Z M 471 1493 L 471 1260 L 250 1260 L 250 1493 L 471 1493 Z M 904 1493 L 904 1260 L 682 1260 L 682 1493 L 904 1493 Z" unicode="ö" />
<glyph horiz-adv-x="1145" d="M 70 690 L 1075 690 L 1075 485 L 70 485 L 70 690 Z M 440 270 L 707 270 L 707 29 L 440 29 L 440 270 Z M 440 1149 L 707 1149 L 707 905 L 440 905 L 440 1149 Z" unicode="÷" />
<glyph horiz-adv-x="1151" d="M 293 53 C 257 75 225 103 198 135 C 170 167 147 203 129 242 C 110 281 96 323 86 368 C 76 413 72 460 72 510 C 72 584 83 653 105 719 C 127 785 160 842 203 891 C 246 939 299 978 363 1006 C 427 1034 500 1049 584 1049 C 607 1049 629 1047 651 1044 C 673 1041 694 1038 715 1034 L 776 1174 L 946 1174 L 862 975 C 932 931 986 870 1024 793 C 1062 716 1081 628 1081 528 C 1081 456 1070 388 1049 322 C 1028 256 997 197 955 147 C 913 96 860 55 796 25 C 732 -4 658 -20 573 -20 C 548 -20 524 -18 502 -16 C 480 -13 458 -9 438 -4 L 379 -145 L 211 -145 L 293 53 Z M 330 506 C 330 453 336 405 348 361 C 360 317 378 280 403 250 L 647 850 C 637 852 627 853 617 855 C 606 857 596 858 586 858 C 544 858 507 849 475 831 C 443 813 416 788 395 756 C 373 724 357 687 346 645 C 335 602 330 556 330 506 Z M 821 528 C 821 580 815 626 804 668 C 793 710 776 746 754 776 L 512 176 C 530 172 550 170 573 170 C 615 170 652 179 683 199 C 714 219 740 245 760 278 C 780 311 796 349 806 392 C 816 435 821 480 821 528 Z" unicode="ø" />
<glyph horiz-adv-x="1174" d="M 1032 1030 L 1032 219 L 1042 0 L 797 0 L 791 158 L 786 158 C 768 132 749 108 728 86 C 707 64 683 46 657 30 C 631 14 601 2 569 -5 C 536 -13 499 -18 459 -18 C 402 -18 353 -10 311 6 C 269 22 235 45 207 76 C 179 106 159 143 145 187 C 131 231 125 280 125 336 L 125 1030 L 381 1030 L 381 367 C 381 343 383 321 389 299 C 394 277 403 258 416 241 C 428 224 445 211 466 201 C 486 191 512 186 543 186 C 571 186 598 191 626 201 C 654 211 679 226 701 246 C 723 266 741 290 755 319 C 769 347 776 380 776 418 L 776 1030 L 1032 1030 Z M 547 1493 L 760 1180 L 541 1180 L 260 1493 L 547 1493 Z" unicode="ù" />
<glyph horiz-adv-x="1174" d="M 1032 1030 L 1032 219 L 1042 0 L 797 0 L 791 158 L 786 158 C 768 132 749 108 728 86 C 707 64 683 46 657 30 C 631 14 601 2 569 -5 C 536 -13 499 -18 459 -18 C 402 -18 353 -10 311 6 C 269 22 235 45 207 76 C 179 106 159 143 145 187 C 131 231 125 280 125 336 L 125 1030 L 381 1030 L 381 367 C 381 343 383 321 389 299 C 394 277 403 258 416 241 C 428 224 445 211 466 201 C 486 191 512 186 543 186 C 571 186 598 191 626 201 C 654 211 679 226 701 246 C 723 266 741 290 755 319 C 769 347 776 380 776 418 L 776 1030 L 1032 1030 Z M 914 1493 L 633 1180 L 414 1180 L 627 1493 L 914 1493 Z" unicode="ú" />
<glyph horiz-adv-x="1174" d="M 1032 1030 L 1032 219 L 1042 0 L 797 0 L 791 158 L 786 158 C 768 132 749 108 728 86 C 707 64 683 46 657 30 C 631 14 601 2 569 -5 C 536 -13 499 -18 459 -18 C 402 -18 353 -10 311 6 C 269 22 235 45 207 76 C 179 106 159 143 145 187 C 131 231 125 280 125 336 L 125 1030 L 381 1030 L 381 367 C 381 343 383 321 389 299 C 394 277 403 258 416 241 C 428 224 445 211 466 201 C 486 191 512 186 543 186 C 571 186 598 191 626 201 C 654 211 679 226 701 246 C 723 266 741 290 755 319 C 769 347 776 380 776 418 L 776 1030 L 1032 1030 Z M 715 1493 L 930 1180 L 752 1180 L 592 1356 L 580 1356 L 418 1180 L 242 1180 L 457 1493 L 715 1493 Z" unicode="û" />
<glyph horiz-adv-x="1174" d="M 1032 1030 L 1032 219 L 1042 0 L 797 0 L 791 158 L 786 158 C 768 132 749 108 728 86 C 707 64 683 46 657 30 C 631 14 601 2 569 -5 C 536 -13 499 -18 459 -18 C 402 -18 353 -10 311 6 C 269 22 235 45 207 76 C 179 106 159 143 145 187 C 131 231 125 280 125 336 L 125 1030 L 381 1030 L 381 367 C 381 343 383 321 389 299 C 394 277 403 258 416 241 C 428 224 445 211 466 201 C 486 191 512 186 543 186 C 571 186 598 191 626 201 C 654 211 679 226 701 246 C 723 266 741 290 755 319 C 769 347 776 380 776 418 L 776 1030 L 1032 1030 Z M 481 1493 L 481 1260 L 260 1260 L 260 1493 L 481 1493 Z M 914 1493 L 914 1260 L 692 1260 L 692 1493 L 914 1493 Z" unicode="ü" />
<glyph horiz-adv-x="1075" d="M 25 1030 L 301 1030 L 479 502 C 489 470 498 443 505 423 C 511 403 517 386 521 372 C 525 358 529 345 532 335 C 534 325 537 313 541 301 L 549 301 L 776 1030 L 1044 1030 L 664 -4 C 636 -72 607 -132 577 -183 C 547 -234 515 -276 479 -310 C 443 -343 402 -368 356 -385 C 310 -401 256 -410 195 -410 C 175 -410 157 -409 140 -407 C 122 -405 109 -404 100 -403 L 100 -195 L 154 -195 C 183 -195 209 -191 233 -183 C 257 -175 279 -162 299 -144 C 319 -126 337 -102 354 -74 C 371 -45 388 -10 406 31 L 25 1030 Z M 865 1493 L 584 1180 L 365 1180 L 578 1493 L 865 1493 Z" unicode="ý" />
<glyph horiz-adv-x="1190" d="M 139 1493 L 395 1493 L 395 897 L 399 897 C 430 945 470 982 518 1009 C 566 1035 622 1049 684 1049 C 709 1049 737 1046 768 1040 C 798 1034 830 1024 862 1010 C 894 996 925 976 955 951 C 985 925 1012 893 1036 854 C 1059 814 1078 767 1092 712 C 1106 657 1114 592 1114 518 C 1114 443 1106 378 1092 322 C 1078 266 1059 219 1035 179 C 1011 139 984 106 954 81 C 924 55 893 35 861 21 C 829 6 797 -3 765 -9 C 733 -15 705 -18 680 -18 C 617 -18 562 -4 514 23 C 466 51 428 87 399 131 L 395 131 L 395 -410 L 139 -410 L 139 1493 Z M 850 518 C 850 563 846 603 839 637 C 832 671 823 700 811 724 C 799 748 785 768 770 784 C 754 800 738 812 722 821 C 705 830 688 836 671 840 C 653 844 637 846 623 846 C 595 846 568 840 541 829 C 514 817 490 801 468 780 C 446 758 429 732 415 702 C 401 671 395 636 395 598 L 395 432 C 395 394 401 360 415 330 C 429 299 446 273 468 251 C 490 229 514 212 541 200 C 568 188 595 182 623 182 C 645 182 670 186 696 195 C 722 204 747 221 770 246 C 792 271 811 305 827 349 C 842 392 850 448 850 518 Z" unicode="þ" />
<glyph horiz-adv-x="1075" d="M 25 1030 L 301 1030 L 479 502 C 489 470 498 443 505 423 C 511 403 517 386 521 372 C 525 358 529 345 532 335 C 534 325 537 313 541 301 L 549 301 L 776 1030 L 1044 1030 L 664 -4 C 636 -72 607 -132 577 -183 C 547 -234 515 -276 479 -310 C 443 -343 402 -368 356 -385 C 310 -401 256 -410 195 -410 C 175 -410 157 -409 140 -407 C 122 -405 109 -404 100 -403 L 100 -195 L 154 -195 C 183 -195 209 -191 233 -183 C 257 -175 279 -162 299 -144 C 319 -126 337 -102 354 -74 C 371 -45 388 -10 406 31 L 25 1030 Z M 432 1493 L 432 1260 L 211 1260 L 211 1493 L 432 1493 Z M 865 1493 L 865 1260 L 643 1260 L 643 1493 L 865 1493 Z" unicode="ÿ" />
<glyph horiz-adv-x="1368" d="M 307 0 L 25 0 L 541 1389 L 829 1389 L 1341 0 L 1042 0 L 938 305 L 412 305 L 307 0 Z M 483 510 L 866 510 L 758 829 C 742 875 728 920 714 964 C 700 1008 689 1049 680 1087 L 672 1087 C 667 1069 661 1049 655 1027 C 648 1005 641 982 634 959 C 627 935 620 912 613 890 C 606 868 600 847 594 829 L 483 510 Z M 958 1716 L 958 1548 L 405 1548 L 405 1716 L 958 1716 Z" unicode="Ā" />
<glyph horiz-adv-x="1069" d="M 137 975 C 157 985 181 994 208 1004 C 235 1013 265 1021 298 1029 C 330 1036 365 1042 403 1046 C 441 1050 480 1053 522 1053 C 606 1053 676 1044 730 1026 C 784 1008 826 982 857 950 C 888 918 910 879 922 835 C 934 790 940 741 940 688 L 940 279 C 940 249 940 222 942 197 C 943 172 945 148 948 126 C 950 104 954 82 958 62 C 962 41 966 20 971 0 L 733 0 C 727 23 722 47 718 71 C 714 95 711 122 709 150 L 705 150 C 671 97 626 56 568 27 C 510 -1 443 -16 369 -16 C 320 -16 276 -9 237 3 C 197 15 164 34 136 58 C 108 82 86 112 71 147 C 56 182 49 222 49 268 C 49 321 60 370 83 414 C 106 458 143 497 194 530 C 245 563 311 590 392 610 C 472 630 570 642 686 647 L 686 676 C 686 704 682 730 676 752 C 669 774 658 793 642 808 C 626 823 606 834 580 842 C 554 850 521 854 483 854 C 451 854 419 851 389 847 C 358 843 329 837 303 830 C 276 822 251 814 229 805 C 207 796 188 787 172 778 L 137 975 Z M 446 162 C 472 162 499 166 527 176 C 555 186 580 201 604 222 C 628 242 647 269 663 301 C 678 333 686 371 686 416 L 686 502 C 615 496 556 487 508 475 C 460 463 421 448 392 431 C 363 414 342 394 330 372 C 317 350 311 325 311 297 C 311 255 323 222 348 198 C 373 174 406 162 446 162 Z M 802 1440 L 802 1270 L 249 1270 L 249 1440 L 802 1440 Z" unicode="ā" />
<glyph horiz-adv-x="1368" d="M 307 0 L 25 0 L 541 1389 L 829 1389 L 1341 0 L 1042 0 L 938 305 L 412 305 L 307 0 Z M 483 510 L 866 510 L 758 829 C 742 875 728 920 714 964 C 700 1008 689 1049 680 1087 L 672 1087 C 667 1069 661 1049 655 1027 C 648 1005 641 982 634 959 C 627 935 620 912 613 890 C 606 868 600 847 594 829 L 483 510 Z M 547 1812 L 547 1786 C 547 1766 549 1747 553 1729 C 557 1711 565 1696 576 1683 C 586 1670 600 1660 617 1653 C 634 1645 656 1642 682 1642 C 707 1642 728 1646 746 1655 C 763 1663 777 1674 787 1688 C 797 1702 805 1717 810 1734 C 814 1751 817 1768 817 1786 L 817 1812 L 981 1812 L 981 1765 C 981 1728 974 1693 962 1660 C 949 1626 930 1597 905 1572 C 879 1547 848 1527 811 1513 C 773 1498 730 1491 682 1491 C 633 1491 590 1498 553 1512 C 516 1526 485 1546 461 1571 C 436 1595 417 1624 405 1658 C 393 1691 387 1727 387 1765 L 387 1812 L 547 1812 Z" unicode="Ă" />
<glyph horiz-adv-x="1069" d="M 137 975 C 157 985 181 994 208 1004 C 235 1013 265 1021 298 1029 C 330 1036 365 1042 403 1046 C 441 1050 480 1053 522 1053 C 606 1053 676 1044 730 1026 C 784 1008 826 982 857 950 C 888 918 910 879 922 835 C 934 790 940 741 940 688 L 940 279 C 940 249 940 222 942 197 C 943 172 945 148 948 126 C 950 104 954 82 958 62 C 962 41 966 20 971 0 L 733 0 C 727 23 722 47 718 71 C 714 95 711 122 709 150 L 705 150 C 671 97 626 56 568 27 C 510 -1 443 -16 369 -16 C 320 -16 276 -9 237 3 C 197 15 164 34 136 58 C 108 82 86 112 71 147 C 56 182 49 222 49 268 C 49 321 60 370 83 414 C 106 458 143 497 194 530 C 245 563 311 590 392 610 C 472 630 570 642 686 647 L 686 676 C 686 704 682 730 676 752 C 669 774 658 793 642 808 C 626 823 606 834 580 842 C 554 850 521 854 483 854 C 451 854 419 851 389 847 C 358 843 329 837 303 830 C 276 822 251 814 229 805 C 207 796 188 787 172 778 L 137 975 Z M 446 162 C 472 162 499 166 527 176 C 555 186 580 201 604 222 C 628 242 647 269 663 301 C 678 333 686 371 686 416 L 686 502 C 615 496 556 487 508 475 C 460 463 421 448 392 431 C 363 414 342 394 330 372 C 317 350 311 325 311 297 C 311 255 323 222 348 198 C 373 174 406 162 446 162 Z M 391 1493 L 391 1452 C 391 1432 393 1413 397 1396 C 401 1378 409 1363 420 1350 C 430 1337 444 1327 461 1320 C 478 1312 500 1309 526 1309 C 551 1309 572 1313 590 1322 C 607 1330 621 1341 631 1355 C 641 1368 649 1383 654 1400 C 658 1417 661 1434 661 1452 L 661 1493 L 825 1493 L 825 1432 C 825 1395 818 1360 806 1327 C 793 1294 774 1265 749 1240 C 723 1214 692 1194 655 1179 C 617 1164 574 1157 526 1157 C 477 1157 434 1164 397 1178 C 360 1192 329 1212 305 1237 C 280 1261 261 1290 249 1324 C 237 1357 231 1393 231 1432 L 231 1493 L 391 1493 Z" unicode="ă" />
<glyph horiz-adv-x="1368" d="M 307 0 L 25 0 L 541 1389 L 829 1389 L 1341 0 L 1268 0 L 1098 -162 C 1085 -174 1075 -185 1068 -197 C 1060 -209 1057 -223 1057 -240 C 1057 -254 1059 -265 1065 -273 C 1070 -281 1077 -288 1085 -293 C 1093 -297 1102 -300 1112 -302 C 1122 -304 1131 -305 1141 -305 C 1162 -305 1183 -302 1205 -296 C 1226 -290 1243 -283 1255 -276 L 1272 -418 C 1254 -427 1232 -435 1205 -442 C 1177 -449 1145 -453 1108 -453 C 1068 -453 1032 -448 1000 -439 C 968 -430 940 -417 917 -401 C 894 -384 876 -363 863 -339 C 850 -315 844 -288 844 -258 C 844 -218 854 -183 875 -154 C 895 -125 922 -97 956 -70 L 1042 0 L 938 305 L 412 305 L 307 0 Z M 483 510 L 866 510 L 758 829 C 752 847 745 867 738 889 C 730 911 723 933 716 956 C 709 979 702 1002 696 1024 C 690 1046 684 1067 680 1087 L 672 1087 C 668 1071 662 1051 655 1027 C 648 1003 641 979 633 955 C 625 930 618 906 611 884 C 604 861 598 843 594 829 L 483 510 Z" unicode="Ą" />
<glyph horiz-adv-x="1069" d="M 801 -162 C 788 -174 778 -185 771 -197 C 763 -209 760 -223 760 -240 C 760 -254 762 -265 768 -273 C 774 -281 781 -288 790 -293 C 799 -297 809 -300 820 -302 C 831 -304 842 -305 852 -305 C 876 -305 900 -302 924 -296 C 948 -290 966 -283 979 -276 L 995 -418 C 977 -427 954 -435 924 -442 C 894 -449 859 -453 819 -453 C 778 -453 741 -448 708 -439 C 674 -430 646 -417 622 -401 C 598 -384 579 -363 566 -339 C 553 -315 547 -288 547 -258 C 547 -218 557 -183 578 -154 C 598 -125 625 -97 659 -70 L 735 -8 C 729 15 723 40 719 67 C 714 94 711 122 709 150 L 705 150 C 671 97 626 56 568 27 C 510 -1 443 -16 369 -16 C 320 -16 276 -9 237 3 C 197 15 164 34 136 58 C 108 82 86 112 71 147 C 56 182 49 222 49 268 C 49 321 60 370 83 414 C 106 458 143 497 194 530 C 245 563 311 590 392 610 C 472 630 570 642 686 647 L 686 676 C 686 704 682 730 676 752 C 669 774 658 793 642 808 C 626 823 606 834 580 842 C 554 850 521 854 483 854 C 451 854 419 851 389 847 C 358 843 329 837 303 830 C 276 822 251 814 229 805 C 207 796 188 787 172 778 L 137 975 C 157 985 181 994 208 1004 C 235 1013 265 1021 298 1029 C 330 1036 365 1042 403 1046 C 441 1050 480 1053 522 1053 C 606 1053 676 1044 730 1026 C 784 1008 826 982 857 950 C 888 918 910 879 922 835 C 934 790 940 741 940 688 L 940 279 C 940 223 942 174 947 131 C 952 88 960 44 971 0 L 801 -162 Z M 446 162 C 472 162 499 166 527 176 C 555 186 580 201 604 222 C 628 242 647 269 663 301 C 678 333 686 371 686 416 L 686 502 C 615 496 556 487 508 475 C 460 463 421 448 392 431 C 363 414 342 394 330 372 C 317 350 311 325 311 297 C 311 255 323 222 348 198 C 373 174 406 162 446 162 Z" unicode="ą" />
<glyph horiz-adv-x="1274" d="M 1161 1087 C 1137 1099 1112 1111 1085 1122 C 1057 1133 1029 1143 999 1151 C 969 1159 939 1165 908 1169 C 876 1173 845 1176 815 1176 C 746 1176 684 1163 630 1138 C 575 1112 529 1077 491 1033 C 453 989 423 936 403 876 C 383 815 373 750 373 680 C 373 611 382 548 402 491 C 422 434 450 385 487 344 C 524 303 569 271 622 249 C 674 226 734 215 801 215 C 837 215 873 217 909 223 C 945 228 979 235 1013 244 C 1046 253 1077 264 1106 276 C 1135 288 1160 301 1182 315 L 1200 70 C 1178 56 1153 44 1123 33 C 1093 22 1061 13 1026 5 C 990 -3 953 -9 913 -13 C 873 -17 833 -20 791 -20 C 683 -20 586 -2 500 31 C 414 65 340 113 280 175 C 219 236 172 309 140 395 C 108 480 92 574 92 676 C 92 780 108 876 142 966 C 175 1055 223 1132 285 1198 C 347 1264 423 1315 512 1353 C 600 1390 700 1409 811 1409 C 843 1409 875 1407 908 1404 C 941 1401 974 1397 1006 1391 C 1038 1385 1068 1377 1098 1367 C 1128 1357 1155 1346 1180 1333 L 1161 1087 Z M 1052 1827 L 786 1528 L 567 1528 L 772 1827 L 1052 1827 Z" unicode="Ć" />
<glyph horiz-adv-x="948" d="M 874 49 C 843 31 804 15 758 1 C 711 -12 654 -20 588 -20 C 514 -20 445 -9 382 11 C 319 32 265 64 219 107 C 173 150 137 205 111 271 C 85 337 72 416 72 506 C 72 602 86 684 115 753 C 144 821 183 878 231 922 C 279 966 335 998 399 1019 C 462 1040 528 1051 598 1051 C 646 1051 692 1046 736 1036 C 780 1026 822 1014 860 999 L 846 786 C 833 794 818 801 800 808 C 782 815 762 821 742 826 C 722 831 701 835 680 838 C 659 840 639 842 621 842 C 583 842 546 836 512 824 C 478 812 447 793 421 767 C 395 741 374 707 359 665 C 343 623 336 572 336 512 C 336 454 343 405 357 364 C 371 323 391 290 416 264 C 441 238 470 218 504 206 C 538 194 574 188 612 188 C 635 188 658 190 682 194 C 705 198 727 203 749 210 C 770 217 790 225 809 234 C 827 242 844 252 858 262 L 874 49 Z M 871 1493 L 590 1180 L 371 1180 L 584 1493 L 871 1493 Z" unicode="ć" />
<glyph horiz-adv-x="1274" d="M 1161 1087 C 1137 1099 1112 1111 1085 1122 C 1057 1133 1029 1143 999 1151 C 969 1159 939 1165 908 1169 C 876 1173 845 1176 815 1176 C 746 1176 684 1163 630 1138 C 575 1112 529 1077 491 1033 C 453 989 423 936 403 876 C 383 815 373 750 373 680 C 373 611 382 548 402 491 C 422 434 450 385 487 344 C 524 303 569 271 622 249 C 674 226 734 215 801 215 C 837 215 873 217 909 223 C 945 228 979 235 1013 244 C 1046 253 1077 264 1106 276 C 1135 288 1160 301 1182 315 L 1200 70 C 1178 56 1153 44 1123 33 C 1093 22 1061 13 1026 5 C 990 -3 953 -9 913 -13 C 873 -17 833 -20 791 -20 C 683 -20 586 -2 500 31 C 414 65 340 113 280 175 C 219 236 172 309 140 395 C 108 480 92 574 92 676 C 92 780 108 876 142 966 C 175 1055 223 1132 285 1198 C 347 1264 423 1315 512 1353 C 600 1390 700 1409 811 1409 C 843 1409 875 1407 908 1404 C 941 1401 974 1397 1006 1391 C 1038 1385 1068 1377 1098 1367 C 1128 1357 1155 1346 1180 1333 L 1161 1087 Z M 868 1827 L 1083 1528 L 905 1528 L 745 1692 L 733 1692 L 571 1528 L 395 1528 L 610 1827 L 868 1827 Z" unicode="Ĉ" />
<glyph horiz-adv-x="948" d="M 874 49 C 843 31 804 15 758 1 C 711 -12 654 -20 588 -20 C 514 -20 445 -9 382 11 C 319 32 265 64 219 107 C 173 150 137 205 111 271 C 85 337 72 416 72 506 C 72 602 86 684 115 753 C 144 821 183 878 231 922 C 279 966 335 998 399 1019 C 462 1040 528 1051 598 1051 C 646 1051 692 1046 736 1036 C 780 1026 822 1014 860 999 L 846 786 C 833 794 818 801 800 808 C 782 815 762 821 742 826 C 722 831 701 835 680 838 C 659 840 639 842 621 842 C 583 842 546 836 512 824 C 478 812 447 793 421 767 C 395 741 374 707 359 665 C 343 623 336 572 336 512 C 336 454 343 405 357 364 C 371 323 391 290 416 264 C 441 238 470 218 504 206 C 538 194 574 188 612 188 C 635 188 658 190 682 194 C 705 198 727 203 749 210 C 770 217 790 225 809 234 C 827 242 844 252 858 262 L 874 49 Z M 672 1493 L 887 1180 L 709 1180 L 549 1356 L 537 1356 L 375 1180 L 199 1180 L 414 1493 L 672 1493 Z" unicode="ĉ" />
<glyph horiz-adv-x="1274" d="M 1161 1087 C 1137 1099 1112 1111 1085 1122 C 1057 1133 1029 1143 999 1151 C 969 1159 939 1165 908 1169 C 876 1173 845 1176 815 1176 C 746 1176 684 1163 630 1138 C 575 1112 529 1077 491 1033 C 453 989 423 936 403 876 C 383 815 373 750 373 680 C 373 611 382 548 402 491 C 422 434 450 385 487 344 C 524 303 569 271 622 249 C 674 226 734 215 801 215 C 837 215 873 217 909 223 C 945 228 979 235 1013 244 C 1046 253 1077 264 1106 276 C 1135 288 1160 301 1182 315 L 1200 70 C 1178 56 1153 44 1123 33 C 1093 22 1061 13 1026 5 C 990 -3 953 -9 913 -13 C 873 -17 833 -20 791 -20 C 683 -20 586 -2 500 31 C 414 65 340 113 280 175 C 219 236 172 309 140 395 C 108 480 92 574 92 676 C 92 780 108 876 142 966 C 175 1055 223 1132 285 1198 C 347 1264 423 1315 512 1353 C 600 1390 700 1409 811 1409 C 843 1409 875 1407 908 1404 C 941 1401 974 1397 1006 1391 C 1038 1385 1068 1377 1098 1367 C 1128 1357 1155 1346 1180 1333 L 1161 1087 Z M 858 1774 L 858 1540 L 620 1540 L 620 1774 L 858 1774 Z" unicode="Ċ" />
<glyph horiz-adv-x="948" d="M 874 49 C 843 31 804 15 758 1 C 711 -12 654 -20 588 -20 C 514 -20 445 -9 382 11 C 319 32 265 64 219 107 C 173 150 137 205 111 271 C 85 337 72 416 72 506 C 72 602 86 684 115 753 C 144 821 183 878 231 922 C 279 966 335 998 399 1019 C 462 1040 528 1051 598 1051 C 646 1051 692 1046 736 1036 C 780 1026 822 1014 860 999 L 846 786 C 833 794 818 801 800 808 C 782 815 762 821 742 826 C 722 831 701 835 680 838 C 659 840 639 842 621 842 C 583 842 546 836 512 824 C 478 812 447 793 421 767 C 395 741 374 707 359 665 C 343 623 336 572 336 512 C 336 454 343 405 357 364 C 371 323 391 290 416 264 C 441 238 470 218 504 206 C 538 194 574 188 612 188 C 635 188 658 190 682 194 C 705 198 727 203 749 210 C 770 217 790 225 809 234 C 827 242 844 252 858 262 L 874 49 Z M 662 1493 L 662 1260 L 424 1260 L 424 1493 L 662 1493 Z" unicode="ċ" />
<glyph horiz-adv-x="1274" d="M 1161 1087 C 1137 1099 1112 1111 1085 1122 C 1057 1133 1029 1143 999 1151 C 969 1159 939 1165 908 1169 C 876 1173 845 1176 815 1176 C 746 1176 684 1163 630 1138 C 575 1112 529 1077 491 1033 C 453 989 423 936 403 876 C 383 815 373 750 373 680 C 373 611 382 548 402 491 C 422 434 450 385 487 344 C 524 303 569 271 622 249 C 674 226 734 215 801 215 C 837 215 873 217 909 223 C 945 228 979 235 1013 244 C 1046 253 1077 264 1106 276 C 1135 288 1160 301 1182 315 L 1200 70 C 1178 56 1153 44 1123 33 C 1093 22 1061 13 1026 5 C 990 -3 953 -9 913 -13 C 873 -17 833 -20 791 -20 C 683 -20 586 -2 500 31 C 414 65 340 113 280 175 C 219 236 172 309 140 395 C 108 480 92 574 92 676 C 92 780 108 876 142 966 C 175 1055 223 1132 285 1198 C 347 1264 423 1315 512 1353 C 600 1390 700 1409 811 1409 C 843 1409 875 1407 908 1404 C 941 1401 974 1397 1006 1391 C 1038 1385 1068 1377 1098 1367 C 1128 1357 1155 1346 1180 1333 L 1161 1087 Z M 610 1528 L 395 1827 L 571 1827 L 733 1663 L 745 1663 L 905 1827 L 1083 1827 L 868 1528 L 610 1528 Z" unicode="Č" />
<glyph horiz-adv-x="948" d="M 874 49 C 843 31 804 15 758 1 C 711 -12 654 -20 588 -20 C 514 -20 445 -9 382 11 C 319 32 265 64 219 107 C 173 150 137 205 111 271 C 85 337 72 416 72 506 C 72 602 86 684 115 753 C 144 821 183 878 231 922 C 279 966 335 998 399 1019 C 462 1040 528 1051 598 1051 C 646 1051 692 1046 736 1036 C 780 1026 822 1014 860 999 L 846 786 C 833 794 818 801 800 808 C 782 815 762 821 742 826 C 722 831 701 835 680 838 C 659 840 639 842 621 842 C 583 842 546 836 512 824 C 478 812 447 793 421 767 C 395 741 374 707 359 665 C 343 623 336 572 336 512 C 336 454 343 405 357 364 C 371 323 391 290 416 264 C 441 238 470 218 504 206 C 538 194 574 188 612 188 C 635 188 658 190 682 194 C 705 198 727 203 749 210 C 770 217 790 225 809 234 C 827 242 844 252 858 262 L 874 49 Z M 414 1180 L 199 1493 L 375 1493 L 537 1315 L 549 1315 L 709 1493 L 887 1493 L 672 1180 L 414 1180 Z" unicode="č" />
<glyph horiz-adv-x="1442" d="M 168 1384 C 196 1386 224 1388 254 1390 C 284 1392 313 1394 342 1396 C 370 1397 398 1398 425 1399 C 451 1400 476 1401 500 1401 C 576 1401 651 1395 723 1385 C 795 1374 862 1357 925 1334 C 988 1310 1046 1280 1098 1244 C 1150 1207 1194 1163 1232 1112 C 1269 1060 1298 1001 1319 934 C 1339 867 1350 791 1350 707 C 1350 595 1331 494 1294 406 C 1257 317 1202 242 1130 180 C 1057 118 967 70 859 37 C 751 4 627 -12 487 -12 C 439 -12 388 -10 334 -7 C 280 -3 224 0 168 4 L 168 1384 Z M 434 215 C 463 213 488 211 510 211 C 532 211 553 211 575 211 C 643 211 707 221 767 242 C 827 263 879 294 923 336 C 967 377 1001 428 1027 489 C 1052 549 1065 620 1065 700 C 1065 788 1050 862 1020 924 C 990 986 951 1036 903 1075 C 855 1113 800 1141 738 1159 C 676 1177 614 1186 551 1186 C 532 1186 512 1185 491 1185 C 470 1184 451 1183 434 1182 L 434 215 Z M 590 1528 L 375 1827 L 551 1827 L 713 1663 L 725 1663 L 885 1827 L 1063 1827 L 848 1528 L 590 1528 Z" unicode="Ď" />
<glyph horiz-adv-x="1192" d="M 1051 1493 L 1051 193 L 1061 0 L 811 0 L 803 152 L 799 152 C 767 99 726 57 674 27 C 622 -2 564 -18 502 -18 C 476 -18 448 -15 417 -9 C 385 -3 354 6 323 21 C 291 35 261 55 231 81 C 201 107 175 139 152 179 C 129 218 111 265 97 320 C 83 375 76 440 76 514 C 76 590 83 655 98 711 C 112 767 131 814 155 854 C 179 894 206 926 237 952 C 268 977 300 997 332 1011 C 364 1025 397 1035 429 1041 C 461 1046 490 1049 516 1049 C 576 1049 629 1035 675 1007 C 720 979 758 942 788 895 L 793 895 L 793 1493 L 1051 1493 Z M 569 846 C 547 846 522 841 496 833 C 469 825 444 809 421 785 C 398 761 379 727 363 684 C 347 640 340 584 340 514 C 340 446 347 391 361 348 C 375 305 393 271 415 247 C 437 222 460 205 486 196 C 512 186 536 182 559 182 C 586 182 613 188 641 200 C 669 212 694 229 717 251 C 739 273 758 299 772 330 C 786 360 793 394 793 432 L 793 598 C 793 636 786 671 773 702 C 760 732 743 758 722 780 C 701 801 677 817 651 829 C 624 840 597 846 569 846 Z M 1423 1493 L 1341 1079 L 1194 1079 L 1194 1493 L 1423 1493 Z" unicode="ď" />
<glyph horiz-adv-x="1475" d="M 14 815 L 201 815 L 201 1384 C 229 1386 257 1388 287 1390 C 316 1392 345 1394 374 1396 C 402 1397 430 1398 457 1399 C 483 1400 508 1401 532 1401 C 608 1401 683 1395 755 1385 C 827 1374 894 1357 957 1334 C 1020 1310 1078 1280 1130 1244 C 1182 1207 1226 1163 1264 1112 C 1301 1060 1330 1001 1351 934 C 1371 867 1382 791 1382 707 C 1382 595 1363 494 1326 406 C 1289 317 1234 242 1162 180 C 1089 118 999 70 892 37 C 784 4 660 -12 520 -12 C 472 -12 421 -10 367 -7 C 313 -3 257 0 201 4 L 201 612 L 14 612 L 14 815 Z M 467 815 L 735 815 L 735 612 L 467 612 L 467 215 C 495 213 521 211 543 211 C 565 211 586 211 608 211 C 676 211 740 221 800 242 C 860 263 912 294 956 336 C 1000 377 1034 428 1060 489 C 1085 549 1098 620 1098 700 C 1098 788 1083 862 1053 924 C 1023 986 984 1036 936 1075 C 888 1113 833 1141 771 1159 C 709 1177 647 1186 584 1186 C 565 1186 545 1185 524 1185 C 503 1184 484 1183 467 1182 L 467 815 Z" unicode="Đ" />
<glyph horiz-adv-x="1200" d="M 1051 1493 L 1051 1309 L 1208 1309 L 1208 1178 L 1051 1178 L 1051 193 L 1061 0 L 811 0 L 803 152 L 799 152 C 767 99 726 57 674 27 C 622 -2 564 -18 502 -18 C 476 -18 448 -15 417 -9 C 385 -3 354 6 323 21 C 291 35 261 55 231 81 C 201 107 175 139 152 179 C 129 218 111 265 97 320 C 83 375 76 440 76 514 C 76 590 83 655 98 711 C 112 767 131 814 155 854 C 179 894 206 926 237 952 C 268 977 300 997 332 1011 C 364 1025 397 1035 429 1041 C 461 1046 490 1049 516 1049 C 576 1049 629 1035 675 1007 C 720 979 758 942 788 895 L 793 895 L 793 1178 L 498 1178 L 498 1309 L 793 1309 L 793 1493 L 1051 1493 Z M 569 846 C 547 846 522 841 496 833 C 469 825 444 809 421 785 C 398 761 379 727 363 684 C 347 640 340 584 340 514 C 340 446 347 391 361 348 C 375 305 393 271 415 247 C 437 222 460 205 486 196 C 512 186 536 182 559 182 C 586 182 613 188 641 200 C 669 212 694 229 717 251 C 739 273 758 299 772 330 C 786 360 793 394 793 432 L 793 598 C 793 636 786 671 773 702 C 760 732 743 758 722 780 C 701 801 677 817 651 829 C 624 840 597 846 569 846 Z" unicode="đ" />
<glyph horiz-adv-x="1145" d="M 434 819 L 958 819 L 958 608 L 434 608 L 434 211 L 1061 211 L 1061 0 L 168 0 L 168 1389 L 1020 1389 L 1020 1178 L 434 1178 L 434 819 Z M 868 1716 L 868 1548 L 315 1548 L 315 1716 L 868 1716 Z" unicode="Ē" />
<glyph horiz-adv-x="1077" d="M 944 37 C 896 18 844 4 788 -5 C 731 -15 672 -20 610 -20 C 576 -20 539 -17 499 -13 C 459 -9 420 0 380 12 C 340 25 302 43 265 67 C 228 90 195 121 167 159 C 139 197 116 243 99 297 C 82 351 74 416 74 492 C 74 586 87 668 114 738 C 141 808 177 866 223 912 C 268 958 320 993 380 1016 C 439 1039 501 1051 567 1051 C 598 1051 631 1048 665 1042 C 699 1036 732 1025 764 1011 C 796 996 827 977 856 953 C 885 929 911 898 933 862 C 955 826 972 783 985 734 C 997 684 1004 627 1004 563 C 1004 546 1003 529 1002 512 C 1000 495 999 477 997 459 L 313 459 C 319 399 332 350 354 313 C 376 275 402 246 432 225 C 462 204 494 190 529 183 C 564 175 598 172 631 172 C 653 172 676 173 702 176 C 727 178 753 182 780 187 C 806 192 833 198 859 206 C 885 213 910 221 934 231 L 944 37 Z M 557 862 C 527 862 499 856 473 846 C 447 836 423 820 402 800 C 381 780 363 754 349 724 C 334 694 323 658 317 618 L 758 618 C 760 662 755 699 745 730 C 734 761 719 786 700 806 C 681 826 659 840 634 849 C 609 857 583 862 557 862 Z M 837 1440 L 837 1270 L 284 1270 L 284 1440 L 837 1440 Z" unicode="ē" />
<glyph horiz-adv-x="1145" d="M 434 819 L 958 819 L 958 608 L 434 608 L 434 211 L 1061 211 L 1061 0 L 168 0 L 168 1389 L 1020 1389 L 1020 1178 L 434 1178 L 434 819 Z M 457 1812 L 457 1786 C 457 1766 459 1747 463 1729 C 467 1711 475 1696 486 1683 C 496 1670 510 1660 527 1653 C 544 1645 566 1642 592 1642 C 617 1642 638 1646 656 1655 C 673 1663 687 1674 697 1688 C 707 1702 715 1717 720 1734 C 724 1751 727 1768 727 1786 L 727 1812 L 891 1812 L 891 1765 C 891 1728 884 1693 872 1660 C 859 1626 840 1597 815 1572 C 789 1547 758 1527 721 1513 C 683 1498 640 1491 592 1491 C 543 1491 500 1498 463 1512 C 426 1526 395 1546 371 1571 C 346 1595 327 1624 315 1658 C 303 1691 297 1727 297 1765 L 297 1812 L 457 1812 Z" unicode="Ĕ" />
<glyph horiz-adv-x="1077" d="M 944 37 C 896 18 844 4 788 -5 C 731 -15 672 -20 610 -20 C 576 -20 539 -17 499 -13 C 459 -9 420 0 380 12 C 340 25 302 43 265 67 C 228 90 195 121 167 159 C 139 197 116 243 99 297 C 82 351 74 416 74 492 C 74 586 87 668 114 738 C 141 808 177 866 223 912 C 268 958 320 993 380 1016 C 439 1039 501 1051 567 1051 C 598 1051 631 1048 665 1042 C 699 1036 732 1025 764 1011 C 796 996 827 977 856 953 C 885 929 911 898 933 862 C 955 826 972 783 985 734 C 997 684 1004 627 1004 563 C 1004 546 1003 529 1002 512 C 1000 495 999 477 997 459 L 313 459 C 319 399 332 350 354 313 C 376 275 402 246 432 225 C 462 204 494 190 529 183 C 564 175 598 172 631 172 C 653 172 676 173 702 176 C 727 178 753 182 780 187 C 806 192 833 198 859 206 C 885 213 910 221 934 231 L 944 37 Z M 557 862 C 527 862 499 856 473 846 C 447 836 423 820 402 800 C 381 780 363 754 349 724 C 334 694 323 658 317 618 L 758 618 C 760 662 755 699 745 730 C 734 761 719 786 700 806 C 681 826 659 840 634 849 C 609 857 583 862 557 862 Z M 426 1493 L 426 1452 C 426 1432 428 1413 432 1396 C 436 1378 444 1363 455 1350 C 465 1337 479 1327 496 1320 C 513 1312 535 1309 561 1309 C 586 1309 607 1313 625 1322 C 642 1330 656 1341 666 1355 C 676 1368 684 1383 689 1400 C 693 1417 696 1434 696 1452 L 696 1493 L 860 1493 L 860 1432 C 860 1395 853 1360 841 1327 C 828 1294 809 1265 784 1240 C 758 1214 727 1194 690 1179 C 652 1164 609 1157 561 1157 C 512 1157 469 1164 432 1178 C 395 1192 364 1212 340 1237 C 315 1261 296 1290 284 1324 C 272 1357 266 1393 266 1432 L 266 1493 L 426 1493 Z" unicode="ĕ" />
<glyph horiz-adv-x="1145" d="M 434 819 L 958 819 L 958 608 L 434 608 L 434 211 L 1061 211 L 1061 0 L 168 0 L 168 1389 L 1020 1389 L 1020 1178 L 434 1178 L 434 819 Z M 711 1774 L 711 1540 L 473 1540 L 473 1774 L 711 1774 Z" unicode="Ė" />
<glyph horiz-adv-x="1077" d="M 944 37 C 896 18 844 4 788 -5 C 731 -15 672 -20 610 -20 C 576 -20 539 -17 499 -13 C 459 -9 420 0 380 12 C 340 25 302 43 265 67 C 228 90 195 121 167 159 C 139 197 116 243 99 297 C 82 351 74 416 74 492 C 74 586 87 668 114 738 C 141 808 177 866 223 912 C 268 958 320 993 380 1016 C 439 1039 501 1051 567 1051 C 598 1051 631 1048 665 1042 C 699 1036 732 1025 764 1011 C 796 996 827 977 856 953 C 885 929 911 898 933 862 C 955 826 972 783 985 734 C 997 684 1004 627 1004 563 C 1004 546 1003 529 1002 512 C 1000 495 999 477 997 459 L 313 459 C 319 399 332 350 354 313 C 376 275 402 246 432 225 C 462 204 494 190 529 183 C 564 175 598 172 631 172 C 653 172 676 173 702 176 C 727 178 753 182 780 187 C 806 192 833 198 859 206 C 885 213 910 221 934 231 L 944 37 Z M 557 862 C 527 862 499 856 473 846 C 447 836 423 820 402 800 C 381 780 363 754 349 724 C 334 694 323 658 317 618 L 758 618 C 760 662 755 699 745 730 C 734 761 719 786 700 806 C 681 826 659 840 634 849 C 609 857 583 862 557 862 Z M 680 1493 L 680 1260 L 442 1260 L 442 1493 L 680 1493 Z" unicode="ė" />
<glyph horiz-adv-x="1145" d="M 434 819 L 958 819 L 958 608 L 434 608 L 434 211 L 1061 211 L 1061 0 L 1036 0 L 866 -162 C 854 -174 844 -185 836 -197 C 828 -209 825 -223 825 -240 C 825 -254 828 -265 834 -273 C 840 -281 847 -288 856 -293 C 865 -297 875 -300 886 -302 C 897 -304 908 -305 918 -305 C 942 -305 966 -302 990 -296 C 1014 -290 1032 -283 1044 -276 L 1061 -418 C 1043 -427 1020 -435 990 -442 C 960 -449 925 -453 885 -453 C 844 -453 807 -448 774 -439 C 740 -430 712 -417 688 -401 C 664 -384 645 -363 632 -339 C 618 -315 612 -288 612 -258 C 612 -218 622 -183 643 -154 C 663 -125 691 -97 725 -70 L 809 0 L 168 0 L 168 1389 L 1020 1389 L 1020 1178 L 434 1178 L 434 819 Z" unicode="Ę" />
<glyph horiz-adv-x="1077" d="M 944 37 C 928 31 912 25 896 20 C 880 14 863 10 846 6 L 670 -162 C 657 -174 647 -185 640 -197 C 632 -209 629 -223 629 -240 C 629 -254 631 -265 637 -273 C 643 -281 650 -288 659 -293 C 668 -297 678 -300 689 -302 C 700 -304 711 -305 721 -305 C 745 -305 769 -302 793 -296 C 817 -290 835 -283 848 -276 L 864 -418 C 846 -427 823 -435 793 -442 C 763 -449 728 -453 688 -453 C 647 -453 610 -448 577 -439 C 543 -430 515 -417 491 -401 C 467 -384 448 -363 435 -339 C 422 -315 416 -288 416 -258 C 416 -218 426 -183 446 -154 C 466 -124 493 -96 528 -70 L 588 -23 L 588 -18 C 554 -17 517 -14 479 -9 C 440 -4 402 4 364 18 C 326 31 289 49 254 73 C 219 97 188 128 162 166 C 135 204 114 249 98 303 C 82 356 74 419 74 492 C 74 586 87 668 114 738 C 141 808 177 866 223 912 C 268 958 320 993 380 1016 C 439 1039 501 1051 567 1051 C 601 1051 636 1047 673 1040 C 709 1033 745 1021 780 1003 C 814 985 846 962 876 933 C 906 904 931 868 952 824 C 972 780 987 728 996 668 C 1004 608 1005 538 997 459 L 313 459 C 319 399 332 350 354 313 C 376 275 402 246 432 225 C 462 204 494 190 529 183 C 564 175 598 172 631 172 C 653 172 676 173 702 176 C 727 178 753 182 780 187 C 806 192 833 198 859 206 C 885 213 910 221 934 231 L 944 37 Z M 557 862 C 527 862 499 856 473 846 C 447 836 423 820 402 800 C 381 780 363 754 349 724 C 334 694 323 658 317 618 L 758 618 C 760 662 755 699 745 730 C 734 761 719 786 700 806 C 681 826 659 840 634 849 C 609 857 583 862 557 862 Z" unicode="ę" />
<glyph horiz-adv-x="1145" d="M 434 819 L 958 819 L 958 608 L 434 608 L 434 211 L 1061 211 L 1061 0 L 168 0 L 168 1389 L 1020 1389 L 1020 1178 L 434 1178 L 434 819 Z M 463 1528 L 248 1827 L 424 1827 L 586 1663 L 598 1663 L 758 1827 L 936 1827 L 721 1528 L 463 1528 Z" unicode="Ě" />
<glyph horiz-adv-x="1077" d="M 944 37 C 896 18 844 4 788 -5 C 731 -15 672 -20 610 -20 C 576 -20 539 -17 499 -13 C 459 -9 420 0 380 12 C 340 25 302 43 265 67 C 228 90 195 121 167 159 C 139 197 116 243 99 297 C 82 351 74 416 74 492 C 74 586 87 668 114 738 C 141 808 177 866 223 912 C 268 958 320 993 380 1016 C 439 1039 501 1051 567 1051 C 598 1051 631 1048 665 1042 C 699 1036 732 1025 764 1011 C 796 996 827 977 856 953 C 885 929 911 898 933 862 C 955 826 972 783 985 734 C 997 684 1004 627 1004 563 C 1004 546 1003 529 1002 512 C 1000 495 999 477 997 459 L 313 459 C 319 399 332 350 354 313 C 376 275 402 246 432 225 C 462 204 494 190 529 183 C 564 175 598 172 631 172 C 653 172 676 173 702 176 C 727 178 753 182 780 187 C 806 192 833 198 859 206 C 885 213 910 221 934 231 L 944 37 Z M 557 862 C 527 862 499 856 473 846 C 447 836 423 820 402 800 C 381 780 363 754 349 724 C 334 694 323 658 317 618 L 758 618 C 760 662 755 699 745 730 C 734 761 719 786 700 806 C 681 826 659 840 634 849 C 609 857 583 862 557 862 Z M 432 1180 L 217 1493 L 393 1493 L 555 1315 L 567 1315 L 727 1493 L 905 1493 L 690 1180 L 432 1180 Z" unicode="ě" />
<glyph horiz-adv-x="1423" d="M 750 784 L 1286 784 L 1286 49 C 1258 38 1226 28 1188 20 C 1150 11 1111 4 1070 -2 C 1029 -8 988 -12 946 -15 C 904 -18 866 -20 831 -20 C 713 -20 608 -3 516 31 C 424 65 347 112 284 174 C 221 235 173 308 141 393 C 108 478 92 572 92 674 C 92 778 109 875 143 965 C 177 1055 226 1132 291 1198 C 356 1264 436 1315 530 1353 C 624 1390 732 1409 854 1409 C 884 1409 917 1407 952 1405 C 987 1402 1022 1398 1057 1393 C 1092 1388 1126 1382 1160 1374 C 1194 1366 1225 1358 1253 1348 L 1241 1110 C 1213 1120 1184 1130 1152 1140 C 1120 1149 1087 1157 1053 1164 C 1019 1170 985 1176 951 1180 C 917 1184 884 1186 854 1186 C 776 1186 706 1173 645 1149 C 584 1124 533 1089 492 1044 C 450 999 419 945 397 883 C 375 821 365 752 365 676 C 365 602 375 535 396 477 C 416 418 447 368 487 327 C 527 286 576 255 635 233 C 693 211 761 201 838 201 C 854 201 871 201 889 202 C 907 203 926 205 944 207 C 962 209 980 211 997 214 C 1013 216 1028 219 1040 223 L 1040 575 L 750 575 L 750 784 Z M 907 1827 L 1122 1528 L 944 1528 L 784 1692 L 772 1692 L 610 1528 L 434 1528 L 649 1827 L 907 1827 Z" unicode="Ĝ" />
<glyph horiz-adv-x="1149" d="M 109 694 C 109 742 118 788 137 832 C 156 875 184 913 220 945 C 256 977 299 1003 351 1022 C 402 1041 460 1051 526 1051 C 586 1051 643 1042 698 1024 C 752 1006 800 980 842 946 C 876 982 916 1009 963 1028 C 1010 1047 1060 1057 1114 1057 L 1114 836 C 1082 837 1050 835 1019 831 C 988 827 961 819 938 807 C 943 789 947 771 951 753 C 954 734 956 715 956 696 C 956 644 945 596 925 552 C 905 508 876 470 839 438 C 801 406 756 381 704 363 C 651 345 592 336 528 336 C 466 336 410 344 360 360 C 352 348 346 336 342 324 C 338 312 336 300 336 289 C 336 265 343 247 358 235 C 372 222 394 212 424 206 C 453 199 490 194 535 192 C 580 190 633 188 694 186 C 725 185 757 183 791 181 C 824 179 856 174 888 168 C 920 162 950 153 978 141 C 1006 129 1030 114 1051 95 C 1072 76 1089 53 1101 25 C 1113 -2 1120 -35 1120 -74 C 1120 -120 1111 -161 1095 -197 C 1079 -233 1057 -264 1029 -290 C 1001 -316 968 -339 931 -357 C 893 -375 853 -389 811 -400 C 768 -410 724 -418 679 -423 C 634 -427 590 -430 547 -430 C 465 -430 394 -423 332 -410 C 270 -397 219 -379 178 -357 C 137 -334 106 -307 86 -277 C 65 -246 55 -213 55 -178 C 55 -132 72 -90 106 -52 C 140 -14 188 16 250 39 L 250 43 C 230 50 211 60 193 72 C 175 84 160 98 147 115 C 133 131 123 150 115 171 C 107 192 104 216 104 242 C 104 262 106 282 112 302 C 118 322 125 340 135 358 C 145 376 156 392 169 408 C 181 423 195 437 209 451 C 175 483 150 519 134 560 C 117 601 109 646 109 694 Z M 485 -6 C 459 -10 436 -16 415 -24 C 393 -32 375 -41 360 -52 C 344 -63 332 -76 324 -90 C 315 -104 311 -119 311 -137 C 311 -173 332 -202 374 -224 C 416 -246 483 -258 573 -258 C 611 -258 649 -255 685 -251 C 721 -246 753 -238 781 -227 C 808 -215 830 -200 847 -182 C 863 -163 872 -140 872 -113 C 872 -89 865 -69 851 -55 C 837 -41 814 -30 784 -23 C 753 -15 713 -11 664 -9 C 614 -7 555 -6 485 -6 Z M 530 508 C 560 508 586 512 609 522 C 632 532 651 545 667 562 C 682 579 693 599 701 621 C 709 643 713 666 713 692 C 713 718 708 743 700 766 C 692 789 680 809 664 826 C 648 843 628 856 606 866 C 583 876 558 881 530 881 C 499 881 472 875 450 865 C 427 855 408 841 393 823 C 378 805 367 785 359 762 C 351 738 348 714 348 688 C 348 660 352 636 361 614 C 369 592 382 573 398 557 C 414 541 433 529 455 521 C 477 512 502 508 530 508 Z M 692 1493 L 907 1180 L 729 1180 L 569 1356 L 557 1356 L 395 1180 L 219 1180 L 434 1493 L 692 1493 Z" unicode="ĝ" />
<glyph horiz-adv-x="1423" d="M 750 784 L 1286 784 L 1286 49 C 1258 38 1226 28 1188 20 C 1150 11 1111 4 1070 -2 C 1029 -8 988 -12 946 -15 C 904 -18 866 -20 831 -20 C 713 -20 608 -3 516 31 C 424 65 347 112 284 174 C 221 235 173 308 141 393 C 108 478 92 572 92 674 C 92 778 109 875 143 965 C 177 1055 226 1132 291 1198 C 356 1264 436 1315 530 1353 C 624 1390 732 1409 854 1409 C 884 1409 917 1407 952 1405 C 987 1402 1022 1398 1057 1393 C 1092 1388 1126 1382 1160 1374 C 1194 1366 1225 1358 1253 1348 L 1241 1110 C 1213 1120 1184 1130 1152 1140 C 1120 1149 1087 1157 1053 1164 C 1019 1170 985 1176 951 1180 C 917 1184 884 1186 854 1186 C 776 1186 706 1173 645 1149 C 584 1124 533 1089 492 1044 C 450 999 419 945 397 883 C 375 821 365 752 365 676 C 365 602 375 535 396 477 C 416 418 447 368 487 327 C 527 286 576 255 635 233 C 693 211 761 201 838 201 C 854 201 871 201 889 202 C 907 203 926 205 944 207 C 962 209 980 211 997 214 C 1013 216 1028 219 1040 223 L 1040 575 L 750 575 L 750 784 Z M 643 1812 L 643 1786 C 643 1766 645 1747 649 1729 C 653 1711 661 1696 672 1683 C 682 1670 696 1660 713 1653 C 730 1645 752 1642 778 1642 C 803 1642 824 1646 842 1655 C 859 1663 873 1674 883 1688 C 893 1702 901 1717 906 1734 C 910 1751 913 1768 913 1786 L 913 1812 L 1077 1812 L 1077 1765 C 1077 1728 1070 1693 1058 1660 C 1045 1626 1026 1597 1001 1572 C 975 1547 944 1527 907 1513 C 869 1498 826 1491 778 1491 C 729 1491 686 1498 649 1512 C 612 1526 581 1546 557 1571 C 532 1595 513 1624 501 1658 C 489 1691 483 1727 483 1765 L 483 1812 L 643 1812 Z" unicode="Ğ" />
<glyph horiz-adv-x="1149" d="M 109 694 C 109 742 118 788 137 832 C 156 875 184 913 220 945 C 256 977 299 1003 351 1022 C 402 1041 460 1051 526 1051 C 586 1051 643 1042 698 1024 C 752 1006 800 980 842 946 C 876 982 916 1009 963 1028 C 1010 1047 1060 1057 1114 1057 L 1114 836 C 1082 837 1050 835 1019 831 C 988 827 961 819 938 807 C 943 789 947 771 951 753 C 954 734 956 715 956 696 C 956 644 945 596 925 552 C 905 508 876 470 839 438 C 801 406 756 381 704 363 C 651 345 592 336 528 336 C 466 336 410 344 360 360 C 352 348 346 336 342 324 C 338 312 336 300 336 289 C 336 265 343 247 358 235 C 372 222 394 212 424 206 C 453 199 490 194 535 192 C 580 190 633 188 694 186 C 725 185 757 183 791 181 C 824 179 856 174 888 168 C 920 162 950 153 978 141 C 1006 129 1030 114 1051 95 C 1072 76 1089 53 1101 25 C 1113 -2 1120 -35 1120 -74 C 1120 -120 1111 -161 1095 -197 C 1079 -233 1057 -264 1029 -290 C 1001 -316 968 -339 931 -357 C 893 -375 853 -389 811 -400 C 768 -410 724 -418 679 -423 C 634 -427 590 -430 547 -430 C 465 -430 394 -423 332 -410 C 270 -397 219 -379 178 -357 C 137 -334 106 -307 86 -277 C 65 -246 55 -213 55 -178 C 55 -132 72 -90 106 -52 C 140 -14 188 16 250 39 L 250 43 C 230 50 211 60 193 72 C 175 84 160 98 147 115 C 133 131 123 150 115 171 C 107 192 104 216 104 242 C 104 262 106 282 112 302 C 118 322 125 340 135 358 C 145 376 156 392 169 408 C 181 423 195 437 209 451 C 175 483 150 519 134 560 C 117 601 109 646 109 694 Z M 485 -6 C 459 -10 436 -16 415 -24 C 393 -32 375 -41 360 -52 C 344 -63 332 -76 324 -90 C 315 -104 311 -119 311 -137 C 311 -173 332 -202 374 -224 C 416 -246 483 -258 573 -258 C 611 -258 649 -255 685 -251 C 721 -246 753 -238 781 -227 C 808 -215 830 -200 847 -182 C 863 -163 872 -140 872 -113 C 872 -89 865 -69 851 -55 C 837 -41 814 -30 784 -23 C 753 -15 713 -11 664 -9 C 614 -7 555 -6 485 -6 Z M 530 508 C 560 508 586 512 609 522 C 632 532 651 545 667 562 C 682 579 693 599 701 621 C 709 643 713 666 713 692 C 713 718 708 743 700 766 C 692 789 680 809 664 826 C 648 843 628 856 606 866 C 583 876 558 881 530 881 C 499 881 472 875 450 865 C 427 855 408 841 393 823 C 378 805 367 785 359 762 C 351 738 348 714 348 688 C 348 660 352 636 361 614 C 369 592 382 573 398 557 C 414 541 433 529 455 521 C 477 512 502 508 530 508 Z M 428 1493 L 428 1452 C 428 1432 430 1413 434 1396 C 438 1378 446 1363 457 1350 C 467 1337 481 1327 498 1320 C 515 1312 537 1309 563 1309 C 588 1309 609 1313 627 1322 C 644 1330 658 1341 668 1355 C 678 1368 686 1383 691 1400 C 695 1417 698 1434 698 1452 L 698 1493 L 862 1493 L 862 1432 C 862 1395 855 1360 843 1327 C 830 1294 811 1265 786 1240 C 760 1214 729 1194 692 1179 C 654 1164 611 1157 563 1157 C 514 1157 471 1164 434 1178 C 397 1192 366 1212 342 1237 C 317 1261 298 1290 286 1324 C 274 1357 268 1393 268 1432 L 268 1493 L 428 1493 Z" unicode="ğ" />
<glyph horiz-adv-x="1423" d="M 750 784 L 1286 784 L 1286 49 C 1258 38 1226 28 1188 20 C 1150 11 1111 4 1070 -2 C 1029 -8 988 -12 946 -15 C 904 -18 866 -20 831 -20 C 713 -20 608 -3 516 31 C 424 65 347 112 284 174 C 221 235 173 308 141 393 C 108 478 92 572 92 674 C 92 778 109 875 143 965 C 177 1055 226 1132 291 1198 C 356 1264 436 1315 530 1353 C 624 1390 732 1409 854 1409 C 884 1409 917 1407 952 1405 C 987 1402 1022 1398 1057 1393 C 1092 1388 1126 1382 1160 1374 C 1194 1366 1225 1358 1253 1348 L 1241 1110 C 1213 1120 1184 1130 1152 1140 C 1120 1149 1087 1157 1053 1164 C 1019 1170 985 1176 951 1180 C 917 1184 884 1186 854 1186 C 776 1186 706 1173 645 1149 C 584 1124 533 1089 492 1044 C 450 999 419 945 397 883 C 375 821 365 752 365 676 C 365 602 375 535 396 477 C 416 418 447 368 487 327 C 527 286 576 255 635 233 C 693 211 761 201 838 201 C 854 201 871 201 889 202 C 907 203 926 205 944 207 C 962 209 980 211 997 214 C 1013 216 1028 219 1040 223 L 1040 575 L 750 575 L 750 784 Z M 897 1774 L 897 1540 L 659 1540 L 659 1774 L 897 1774 Z" unicode="Ġ" />
<glyph horiz-adv-x="1149" d="M 109 694 C 109 742 118 788 137 832 C 156 875 184 913 220 945 C 256 977 299 1003 351 1022 C 402 1041 460 1051 526 1051 C 586 1051 643 1042 698 1024 C 752 1006 800 980 842 946 C 876 982 916 1009 963 1028 C 1010 1047 1060 1057 1114 1057 L 1114 836 C 1082 837 1050 835 1019 831 C 988 827 961 819 938 807 C 943 789 947 771 951 753 C 954 734 956 715 956 696 C 956 644 945 596 925 552 C 905 508 876 470 839 438 C 801 406 756 381 704 363 C 651 345 592 336 528 336 C 466 336 410 344 360 360 C 352 348 346 336 342 324 C 338 312 336 300 336 289 C 336 265 343 247 358 235 C 372 222 394 212 424 206 C 453 199 490 194 535 192 C 580 190 633 188 694 186 C 725 185 757 183 791 181 C 824 179 856 174 888 168 C 920 162 950 153 978 141 C 1006 129 1030 114 1051 95 C 1072 76 1089 53 1101 25 C 1113 -2 1120 -35 1120 -74 C 1120 -120 1111 -161 1095 -197 C 1079 -233 1057 -264 1029 -290 C 1001 -316 968 -339 931 -357 C 893 -375 853 -389 811 -400 C 768 -410 724 -418 679 -423 C 634 -427 590 -430 547 -430 C 465 -430 394 -423 332 -410 C 270 -397 219 -379 178 -357 C 137 -334 106 -307 86 -277 C 65 -246 55 -213 55 -178 C 55 -132 72 -90 106 -52 C 140 -14 188 16 250 39 L 250 43 C 230 50 211 60 193 72 C 175 84 160 98 147 115 C 133 131 123 150 115 171 C 107 192 104 216 104 242 C 104 262 106 282 112 302 C 118 322 125 340 135 358 C 145 376 156 392 169 408 C 181 423 195 437 209 451 C 175 483 150 519 134 560 C 117 601 109 646 109 694 Z M 485 -6 C 459 -10 436 -16 415 -24 C 393 -32 375 -41 360 -52 C 344 -63 332 -76 324 -90 C 315 -104 311 -119 311 -137 C 311 -173 332 -202 374 -224 C 416 -246 483 -258 573 -258 C 611 -258 649 -255 685 -251 C 721 -246 753 -238 781 -227 C 808 -215 830 -200 847 -182 C 863 -163 872 -140 872 -113 C 872 -89 865 -69 851 -55 C 837 -41 814 -30 784 -23 C 753 -15 713 -11 664 -9 C 614 -7 555 -6 485 -6 Z M 530 508 C 560 508 586 512 609 522 C 632 532 651 545 667 562 C 682 579 693 599 701 621 C 709 643 713 666 713 692 C 713 718 708 743 700 766 C 692 789 680 809 664 826 C 648 843 628 856 606 866 C 583 876 558 881 530 881 C 499 881 472 875 450 865 C 427 855 408 841 393 823 C 378 805 367 785 359 762 C 351 738 348 714 348 688 C 348 660 352 636 361 614 C 369 592 382 573 398 557 C 414 541 433 529 455 521 C 477 512 502 508 530 508 Z M 682 1493 L 682 1260 L 444 1260 L 444 1493 L 682 1493 Z" unicode="ġ" />
<glyph horiz-adv-x="1423" d="M 750 784 L 1286 784 L 1286 49 C 1258 38 1226 28 1188 20 C 1150 11 1111 4 1070 -2 C 1029 -8 988 -12 946 -15 C 904 -18 866 -20 831 -20 C 713 -20 608 -3 516 31 C 424 65 347 112 284 174 C 221 235 173 308 141 393 C 108 478 92 572 92 674 C 92 778 109 875 143 965 C 177 1055 226 1132 291 1198 C 356 1264 436 1315 530 1353 C 624 1390 732 1409 854 1409 C 884 1409 917 1407 952 1405 C 987 1402 1022 1398 1057 1393 C 1092 1388 1126 1382 1160 1374 C 1194 1366 1225 1358 1253 1348 L 1241 1110 C 1213 1120 1184 1130 1152 1140 C 1120 1149 1087 1157 1053 1164 C 1019 1170 985 1176 951 1180 C 917 1184 884 1186 854 1186 C 776 1186 706 1173 645 1149 C 584 1124 533 1089 492 1044 C 450 999 419 945 397 883 C 375 821 365 752 365 676 C 365 602 375 535 396 477 C 416 418 447 368 487 327 C 527 286 576 255 635 233 C 693 211 761 201 838 201 C 854 201 871 201 889 202 C 907 203 926 205 944 207 C 962 209 980 211 997 214 C 1013 216 1028 219 1040 223 L 1040 575 L 750 575 L 750 784 Z M 968 -113 L 749 -426 L 542 -426 L 698 -113 L 968 -113 Z" unicode="Ģ" />
<glyph horiz-adv-x="1149" d="M 371 1180 L 594 1493 L 799 1493 L 641 1180 L 371 1180 Z M 109 694 C 109 742 118 788 137 832 C 156 875 184 913 220 945 C 256 977 299 1003 351 1022 C 402 1041 460 1051 526 1051 C 586 1051 643 1042 698 1024 C 752 1006 800 980 842 946 C 876 982 916 1009 963 1028 C 1010 1047 1060 1057 1114 1057 L 1114 836 C 1082 837 1050 835 1019 831 C 988 827 961 819 938 807 C 943 789 947 771 951 753 C 954 734 956 715 956 696 C 956 644 945 596 925 552 C 905 508 876 470 839 438 C 801 406 756 381 704 363 C 651 345 592 336 528 336 C 466 336 410 344 360 360 C 352 348 346 336 342 324 C 338 312 336 300 336 289 C 336 265 343 247 358 235 C 372 222 394 212 424 206 C 453 199 490 194 535 192 C 580 190 633 188 694 186 C 725 185 757 183 791 181 C 824 179 856 174 888 168 C 920 162 950 153 978 141 C 1006 129 1030 114 1051 95 C 1072 76 1089 53 1101 25 C 1113 -2 1120 -35 1120 -74 C 1120 -120 1111 -161 1095 -197 C 1079 -233 1057 -264 1029 -290 C 1001 -316 968 -339 931 -357 C 893 -375 853 -389 811 -400 C 768 -410 724 -418 679 -423 C 634 -427 590 -430 547 -430 C 465 -430 394 -423 332 -410 C 270 -397 219 -379 178 -357 C 137 -334 106 -307 86 -277 C 65 -246 55 -213 55 -178 C 55 -132 72 -90 106 -52 C 140 -14 188 16 250 39 L 250 43 C 230 50 211 60 193 72 C 175 84 160 98 147 115 C 133 131 123 150 115 171 C 107 192 104 216 104 242 C 104 262 106 282 112 302 C 118 322 125 340 135 358 C 145 376 156 392 169 408 C 181 423 195 437 209 451 C 175 483 150 519 134 560 C 117 601 109 646 109 694 Z M 485 -6 C 459 -10 436 -16 415 -24 C 393 -32 375 -41 360 -52 C 344 -63 332 -76 324 -90 C 315 -104 311 -119 311 -137 C 311 -173 332 -202 374 -224 C 416 -246 483 -258 573 -258 C 611 -258 649 -255 685 -251 C 721 -246 753 -238 781 -227 C 808 -215 830 -200 847 -182 C 863 -163 872 -140 872 -113 C 872 -89 865 -69 851 -55 C 837 -41 814 -30 784 -23 C 753 -15 713 -11 664 -9 C 614 -7 555 -6 485 -6 Z M 530 508 C 560 508 586 512 609 522 C 632 532 651 545 667 562 C 682 579 693 599 701 621 C 709 643 713 666 713 692 C 713 718 708 743 700 766 C 692 789 680 809 664 826 C 648 843 628 856 606 866 C 583 876 558 881 530 881 C 499 881 472 875 450 865 C 427 855 408 841 393 823 C 378 805 367 785 359 762 C 351 738 348 714 348 688 C 348 660 352 636 361 614 C 369 592 382 573 398 557 C 414 541 433 529 455 521 C 477 512 502 508 530 508 Z" unicode="ģ" />
<glyph horiz-adv-x="1477" d="M 434 1389 L 434 829 L 1042 829 L 1042 1389 L 1309 1389 L 1309 0 L 1042 0 L 1042 604 L 434 604 L 434 0 L 168 0 L 168 1389 L 434 1389 Z M 866 1827 L 1081 1528 L 903 1528 L 743 1692 L 731 1692 L 569 1528 L 393 1528 L 608 1827 L 866 1827 Z" unicode="Ĥ" />
<glyph horiz-adv-x="1171" d="M 395 1493 L 395 885 L 399 885 C 417 912 437 936 458 957 C 479 977 502 995 527 1009 C 552 1023 580 1033 610 1040 C 640 1047 673 1051 711 1051 C 824 1051 908 1019 964 956 C 1019 893 1047 806 1047 694 L 1047 0 L 791 0 L 791 662 C 791 684 788 707 783 729 C 777 751 768 770 756 787 C 743 804 726 818 705 828 C 684 838 658 844 627 844 C 599 844 571 838 543 827 C 515 815 491 799 469 778 C 447 757 429 732 415 703 C 401 673 395 640 395 604 L 395 0 L 139 0 L 139 1493 L 395 1493 Z M 475 1888 L 690 1589 L 512 1589 L 352 1753 L 340 1753 L 178 1589 L 2 1589 L 217 1888 L 475 1888 Z" unicode="ĥ" />
<glyph horiz-adv-x="1497" d="M 444 1389 L 444 1176 L 1053 1176 L 1053 1389 L 1319 1389 L 1319 1176 L 1499 1176 L 1499 1030 L 1319 1030 L 1319 0 L 1053 0 L 1053 604 L 444 604 L 444 0 L 178 0 L 178 1030 L -2 1030 L -2 1176 L 178 1176 L 178 1389 L 444 1389 Z M 1053 829 L 1053 1030 L 444 1030 L 444 829 L 1053 829 Z" unicode="Ħ" />
<glyph horiz-adv-x="1182" d="M 406 1493 L 406 1309 L 702 1309 L 702 1178 L 406 1178 L 406 885 L 410 885 C 428 912 447 936 468 957 C 489 977 512 995 537 1009 C 562 1023 590 1033 620 1040 C 650 1047 683 1051 721 1051 C 834 1051 918 1019 974 956 C 1029 893 1057 806 1057 694 L 1057 0 L 801 0 L 801 662 C 801 684 798 707 793 729 C 787 751 778 770 766 787 C 753 804 736 818 715 828 C 694 838 668 844 637 844 C 609 844 581 838 553 827 C 525 815 501 799 479 778 C 457 757 439 732 426 703 C 412 673 406 640 406 604 L 406 0 L 150 0 L 150 1178 L -8 1178 L -8 1309 L 150 1309 L 150 1493 L 406 1493 Z" unicode="ħ" />
<glyph horiz-adv-x="602" d="M 434 1389 L 434 0 L 168 0 L 168 1389 L 434 1389 Z M -92 1528 C -92 1582 -85 1628 -73 1668 C -61 1707 -44 1739 -22 1765 C 0 1791 25 1810 55 1822 C 84 1834 116 1841 150 1841 C 183 1841 213 1834 241 1821 C 268 1808 298 1787 330 1757 L 371 1718 C 380 1708 392 1698 406 1688 C 420 1678 435 1673 453 1673 C 480 1673 500 1687 514 1716 C 528 1744 535 1781 535 1827 L 694 1827 C 694 1773 687 1727 675 1687 C 663 1647 646 1615 625 1589 C 603 1563 578 1543 548 1530 C 518 1517 487 1511 453 1511 C 433 1511 415 1513 399 1517 C 383 1521 367 1526 353 1534 C 338 1541 324 1550 311 1560 C 297 1570 284 1582 270 1595 L 231 1632 C 221 1641 209 1651 195 1662 C 181 1673 165 1679 147 1679 C 133 1679 121 1675 111 1667 C 101 1659 92 1649 86 1635 C 79 1621 74 1605 71 1587 C 67 1569 66 1549 66 1528 L -92 1528 Z" unicode="Ĩ" />
<glyph horiz-adv-x="537" d="M 397 1030 L 397 0 L 141 0 L 141 1030 L 397 1030 Z M -111 1180 C -111 1237 -105 1286 -93 1328 C -81 1370 -64 1404 -44 1431 C -23 1458 1 1478 29 1491 C 57 1504 87 1511 119 1511 C 151 1511 181 1504 207 1491 C 233 1477 263 1454 295 1421 L 338 1378 C 347 1368 359 1357 374 1346 C 389 1334 405 1329 422 1329 C 434 1329 445 1333 455 1342 C 465 1350 473 1362 480 1377 C 486 1392 491 1410 495 1430 C 498 1450 500 1471 500 1493 L 649 1493 C 649 1437 643 1388 631 1346 C 619 1304 603 1270 583 1242 C 562 1214 537 1194 509 1181 C 481 1167 450 1161 416 1161 C 398 1161 381 1162 367 1166 C 352 1170 338 1175 325 1183 C 311 1191 298 1200 285 1211 C 272 1222 258 1235 244 1249 L 199 1292 C 189 1301 178 1311 165 1321 C 151 1331 136 1337 119 1337 C 105 1337 93 1333 83 1325 C 73 1317 64 1306 58 1292 C 51 1278 46 1261 43 1242 C 40 1223 39 1202 39 1180 L -111 1180 Z" unicode="ĩ" />
<glyph horiz-adv-x="602" d="M 434 1389 L 434 0 L 168 0 L 168 1389 L 434 1389 Z M 578 1716 L 578 1548 L 25 1548 L 25 1716 L 578 1716 Z" unicode="Ī" />
<glyph horiz-adv-x="537" d="M 397 1030 L 397 0 L 141 0 L 141 1030 L 397 1030 Z M 545 1440 L 545 1270 L -6 1270 L -6 1440 L 545 1440 Z" unicode="ī" />
<glyph horiz-adv-x="602" d="M 434 1389 L 434 0 L 168 0 L 168 1389 L 434 1389 Z M 166 1812 L 166 1786 C 166 1766 168 1747 172 1729 C 176 1711 184 1696 195 1683 C 205 1670 219 1660 237 1653 C 254 1645 275 1642 301 1642 C 326 1642 347 1646 365 1655 C 382 1663 396 1674 406 1688 C 416 1702 424 1717 429 1734 C 433 1751 436 1768 436 1786 L 436 1812 L 600 1812 L 600 1765 C 600 1728 593 1693 581 1660 C 568 1626 549 1597 524 1572 C 499 1547 468 1527 431 1513 C 393 1498 350 1491 301 1491 C 252 1491 209 1498 172 1512 C 135 1526 104 1546 80 1571 C 55 1595 36 1624 24 1658 C 12 1691 6 1727 6 1765 L 6 1812 L 166 1812 Z" unicode="Ĭ" />
<glyph horiz-adv-x="537" d="M 397 1030 L 397 0 L 141 0 L 141 1030 L 397 1030 Z M 135 1493 L 135 1452 C 135 1432 137 1413 141 1396 C 145 1378 153 1363 163 1350 C 173 1337 187 1327 204 1320 C 221 1312 242 1309 268 1309 C 294 1309 315 1313 332 1322 C 349 1330 363 1341 374 1355 C 384 1368 392 1383 396 1400 C 400 1417 403 1434 403 1452 L 403 1493 L 569 1493 L 569 1432 C 569 1395 562 1360 550 1327 C 537 1294 518 1265 493 1240 C 467 1214 436 1194 399 1179 C 361 1164 318 1157 268 1157 C 219 1157 176 1164 140 1178 C 103 1192 72 1212 48 1237 C 23 1261 4 1290 -8 1324 C -20 1357 -27 1393 -27 1432 L -27 1493 L 135 1493 Z" unicode="ĭ" />
<glyph horiz-adv-x="602" d="M 434 0 L 264 -162 C 252 -174 242 -185 234 -197 C 226 -209 223 -223 223 -240 C 223 -254 225 -265 231 -273 C 237 -281 244 -288 253 -293 C 262 -297 272 -300 283 -302 C 294 -304 305 -305 315 -305 C 340 -305 364 -302 388 -296 C 412 -290 430 -283 442 -276 L 459 -418 C 441 -427 418 -435 388 -442 C 358 -449 323 -453 283 -453 C 242 -453 205 -448 172 -439 C 138 -430 110 -417 86 -401 C 62 -384 43 -363 30 -339 C 16 -315 10 -288 10 -258 C 10 -218 20 -183 41 -154 C 61 -125 89 -97 123 -70 L 168 -33 L 168 1389 L 434 1389 L 434 0 Z" unicode="Į" />
<glyph horiz-adv-x="537" d="M 397 0 L 227 -162 C 215 -173 205 -185 197 -197 C 189 -209 186 -223 186 -240 C 186 -254 189 -265 195 -273 C 201 -281 208 -288 217 -293 C 226 -297 236 -300 247 -302 C 258 -304 269 -305 279 -305 C 303 -305 327 -302 351 -296 C 375 -290 393 -283 406 -276 L 422 -418 C 404 -427 381 -435 351 -442 C 321 -449 286 -453 246 -453 C 205 -453 168 -448 135 -439 C 101 -430 73 -417 49 -401 C 25 -384 6 -363 -7 -339 C -20 -315 -27 -288 -27 -258 C -27 -218 -16 -183 4 -154 C 24 -125 52 -97 86 -70 L 141 -25 L 141 1030 L 397 1030 L 397 0 Z M 401 1493 L 401 1260 L 137 1260 L 137 1493 L 401 1493 Z" unicode="į" />
<glyph horiz-adv-x="602" d="M 434 1774 L 434 1540 L 168 1540 L 168 1774 L 434 1774 Z M 434 1389 L 434 0 L 168 0 L 168 1389 L 434 1389 Z" unicode="İ" />
<glyph horiz-adv-x="537" d="M 397 1030 L 397 0 L 141 0 L 141 1030 L 397 1030 Z" unicode="ı" />
<glyph horiz-adv-x="1505" d="M 434 1389 L 434 0 L 168 0 L 168 1389 L 434 1389 Z M 657 258 C 669 252 685 247 703 242 C 721 236 741 231 761 227 C 781 222 802 218 824 215 C 845 212 865 211 885 211 C 915 211 943 215 969 225 C 995 234 1017 249 1035 270 C 1053 291 1068 319 1078 354 C 1088 388 1094 431 1094 483 L 1094 1389 L 1360 1389 L 1360 467 C 1360 381 1349 308 1329 247 C 1308 185 1278 135 1240 96 C 1202 56 1156 27 1102 8 C 1048 -10 987 -20 921 -20 C 897 -20 872 -19 845 -17 C 818 -15 792 -11 766 -7 C 740 -3 715 2 693 8 C 670 14 651 22 635 31 L 657 258 Z" unicode="Ĳ" />
<glyph horiz-adv-x="1081" d="M 397 1030 L 397 0 L 141 0 L 141 1030 L 397 1030 Z M 401 1493 L 401 1260 L 137 1260 L 137 1493 L 401 1493 Z M 943 1030 L 943 -72 C 943 -123 937 -169 926 -211 C 914 -253 895 -288 869 -318 C 843 -348 808 -371 765 -387 C 722 -403 669 -412 607 -412 C 594 -412 580 -411 566 -411 C 551 -410 538 -409 527 -408 L 527 -205 L 568 -205 C 612 -205 642 -192 660 -168 C 678 -143 687 -107 687 -59 L 687 1030 L 943 1030 Z M 947 1493 L 947 1260 L 682 1260 L 682 1493 L 947 1493 Z" unicode="ĳ" />
<glyph horiz-adv-x="903" d="M 55 258 C 67 252 83 247 101 242 C 119 236 139 231 159 227 C 179 222 200 218 222 215 C 243 212 263 211 283 211 C 313 211 341 215 367 225 C 393 234 415 249 433 270 C 451 291 466 319 476 354 C 486 388 492 431 492 483 L 492 1389 L 758 1389 L 758 467 C 758 381 747 308 727 247 C 706 185 676 135 638 96 C 600 56 554 27 500 8 C 446 -10 385 -20 319 -20 C 295 -20 270 -19 243 -17 C 216 -15 190 -11 164 -7 C 138 -3 113 2 91 8 C 68 14 49 22 33 31 L 55 258 Z M 754 1827 L 969 1528 L 791 1528 L 631 1692 L 618 1692 L 457 1528 L 281 1528 L 496 1827 L 754 1827 Z" unicode="Ĵ" />
<glyph horiz-adv-x="545" d="M 406 1030 L 406 -72 C 406 -123 400 -169 389 -211 C 377 -253 358 -288 332 -318 C 306 -348 271 -371 228 -387 C 185 -403 132 -412 70 -412 C 57 -412 43 -411 29 -411 C 14 -410 1 -409 -10 -408 L -10 -205 L 31 -205 C 75 -205 105 -192 123 -168 C 141 -143 150 -107 150 -59 L 150 1030 L 406 1030 Z M 401 1493 L 616 1180 L 438 1180 L 279 1356 L 266 1356 L 104 1180 L -72 1180 L 143 1493 L 401 1493 Z" unicode="ĵ" />
<glyph horiz-adv-x="1335" d="M 737 825 L 1346 0 L 1008 0 L 553 631 L 434 510 L 434 0 L 168 0 L 168 1389 L 434 1389 L 434 829 L 952 1389 L 1284 1389 L 737 825 Z M 864 -113 L 645 -426 L 438 -426 L 594 -113 L 864 -113 Z" unicode="Ķ" />
<glyph horiz-adv-x="1090" d="M 1044 1030 L 659 627 L 1094 0 L 784 0 L 481 455 L 395 367 L 395 0 L 139 0 L 139 1493 L 395 1493 L 395 639 L 743 1030 L 1044 1030 Z M 743 -113 L 524 -426 L 317 -426 L 473 -113 L 743 -113 Z" unicode="ķ" />
<glyph horiz-adv-x="1090" d="M 1044 1030 L 659 627 L 1094 0 L 784 0 L 481 455 L 395 367 L 395 0 L 139 0 L 139 1030 L 395 1030 L 395 639 L 743 1030 L 1044 1030 Z" unicode="ĸ" />
<glyph horiz-adv-x="1024" d="M 434 1389 L 434 217 L 985 217 L 985 0 L 168 0 L 168 1389 L 434 1389 Z M 614 1827 L 348 1528 L 129 1528 L 334 1827 L 614 1827 Z" unicode="Ĺ" />
<glyph horiz-adv-x="547" d="M 401 1493 L 401 0 L 145 0 L 145 1493 L 401 1493 Z M 586 1896 L 319 1597 L 100 1597 L 305 1896 L 586 1896 Z" unicode="ĺ" />
<glyph horiz-adv-x="1024" d="M 434 1389 L 434 217 L 985 217 L 985 0 L 168 0 L 168 1389 L 434 1389 Z M 729 -113 L 510 -426 L 303 -426 L 459 -113 L 729 -113 Z" unicode="Ļ" />
<glyph horiz-adv-x="547" d="M 401 1493 L 401 0 L 145 0 L 145 1493 L 401 1493 Z M 463 -113 L 244 -426 L 37 -426 L 193 -113 L 463 -113 Z" unicode="ļ" />
<glyph horiz-adv-x="1024" d="M 434 1389 L 434 217 L 985 217 L 985 0 L 168 0 L 168 1389 L 434 1389 Z M 936 1491 L 854 1077 L 707 1077 L 707 1491 L 936 1491 Z" unicode="Ľ" />
<glyph horiz-adv-x="547" d="M 401 1493 L 401 0 L 145 0 L 145 1493 L 401 1493 Z M 774 1493 L 692 1079 L 545 1079 L 545 1493 L 774 1493 Z" unicode="ľ" />
<glyph horiz-adv-x="1057" d="M 434 1389 L 434 217 L 985 217 L 985 0 L 168 0 L 168 1389 L 434 1389 Z M 940 848 L 940 614 L 702 614 L 702 848 L 940 848 Z" unicode="Ŀ" />
<glyph horiz-adv-x="715" d="M 401 1493 L 401 0 L 145 0 L 145 1493 L 401 1493 Z M 748 852 L 748 618 L 510 618 L 510 852 L 748 852 Z" unicode="ŀ" />
<glyph horiz-adv-x="1057" d="M 467 1389 L 467 860 L 795 999 L 795 788 L 467 649 L 467 217 L 1018 217 L 1018 0 L 201 0 L 201 535 L 14 457 L 14 668 L 201 745 L 201 1389 L 467 1389 Z" unicode="Ł" />
<glyph horiz-adv-x="657" d="M 39 618 L 199 729 L 199 1493 L 455 1493 L 455 909 L 633 1034 L 633 799 L 455 674 L 455 0 L 199 0 L 199 494 L 39 381 L 39 618 Z" unicode="ł" />
<glyph horiz-adv-x="1477" d="M 168 1389 L 408 1389 L 895 686 C 907 667 920 647 934 625 C 948 603 961 582 975 561 C 989 540 1001 520 1013 501 C 1025 482 1034 466 1042 453 L 1051 453 C 1049 482 1047 510 1046 536 C 1044 562 1043 589 1043 615 C 1042 641 1042 667 1042 693 C 1042 719 1042 748 1042 778 L 1042 1389 L 1309 1389 L 1309 0 L 1071 0 L 582 707 C 568 724 555 743 541 764 C 527 785 513 806 500 827 C 486 848 474 868 463 887 C 451 906 442 922 434 936 L 426 936 C 428 906 429 877 430 851 C 431 825 432 799 433 773 C 433 747 434 720 434 694 C 434 668 434 640 434 610 L 434 0 L 168 0 L 168 1389 Z M 1050 1827 L 784 1528 L 565 1528 L 770 1827 L 1050 1827 Z" unicode="Ń" />
<glyph horiz-adv-x="1174" d="M 793 662 C 793 684 790 707 785 729 C 779 751 770 770 758 787 C 745 804 728 818 707 828 C 686 838 660 844 629 844 C 601 844 573 838 545 827 C 517 816 493 800 471 780 C 449 759 431 734 417 704 C 403 674 397 641 397 604 L 397 0 L 141 0 L 141 813 L 131 1030 L 375 1030 L 381 868 L 385 868 C 425 927 471 972 523 1004 C 575 1035 639 1051 715 1051 C 826 1051 909 1019 965 956 C 1021 893 1049 806 1049 694 L 1049 0 L 793 0 L 793 662 Z M 914 1493 L 633 1180 L 414 1180 L 627 1493 L 914 1493 Z" unicode="ń" />
<glyph horiz-adv-x="1477" d="M 168 1389 L 408 1389 L 895 686 C 907 667 920 647 934 625 C 948 603 961 582 975 561 C 989 540 1001 520 1013 501 C 1025 482 1034 466 1042 453 L 1051 453 C 1049 482 1047 510 1046 536 C 1044 562 1043 589 1043 615 C 1042 641 1042 667 1042 693 C 1042 719 1042 748 1042 778 L 1042 1389 L 1309 1389 L 1309 0 L 1071 0 L 582 707 C 568 724 555 743 541 764 C 527 785 513 806 500 827 C 486 848 474 868 463 887 C 451 906 442 922 434 936 L 426 936 C 428 906 429 877 430 851 C 431 825 432 799 433 773 C 433 747 434 720 434 694 C 434 668 434 640 434 610 L 434 0 L 168 0 L 168 1389 Z M 907 -113 L 688 -426 L 481 -426 L 637 -113 L 907 -113 Z" unicode="Ņ" />
<glyph horiz-adv-x="1174" d="M 793 662 C 793 684 790 707 785 729 C 779 751 770 770 758 787 C 745 804 728 818 707 828 C 686 838 660 844 629 844 C 601 844 573 838 545 827 C 517 816 493 800 471 780 C 449 759 431 734 417 704 C 403 674 397 641 397 604 L 397 0 L 141 0 L 141 813 L 131 1030 L 375 1030 L 381 868 L 385 868 C 425 927 471 972 523 1004 C 575 1035 639 1051 715 1051 C 826 1051 909 1019 965 956 C 1021 893 1049 806 1049 694 L 1049 0 L 793 0 L 793 662 Z M 762 -113 L 543 -426 L 336 -426 L 492 -113 L 762 -113 Z" unicode="ņ" />
<glyph horiz-adv-x="1477" d="M 168 1389 L 408 1389 L 895 686 C 907 667 920 647 934 625 C 948 603 961 582 975 561 C 989 540 1001 520 1013 501 C 1025 482 1034 466 1042 453 L 1051 453 C 1049 482 1047 510 1046 536 C 1044 562 1043 589 1043 615 C 1042 641 1042 667 1042 693 C 1042 719 1042 748 1042 778 L 1042 1389 L 1309 1389 L 1309 0 L 1071 0 L 582 707 C 568 724 555 743 541 764 C 527 785 513 806 500 827 C 486 848 474 868 463 887 C 451 906 442 922 434 936 L 426 936 C 428 906 429 877 430 851 C 431 825 432 799 433 773 C 433 747 434 720 434 694 C 434 668 434 640 434 610 L 434 0 L 168 0 L 168 1389 Z M 608 1528 L 393 1827 L 569 1827 L 731 1663 L 743 1663 L 903 1827 L 1081 1827 L 866 1528 L 608 1528 Z" unicode="Ň" />
<glyph horiz-adv-x="1174" d="M 793 662 C 793 684 790 707 785 729 C 779 751 770 770 758 787 C 745 804 728 818 707 828 C 686 838 660 844 629 844 C 601 844 573 838 545 827 C 517 816 493 800 471 780 C 449 759 431 734 417 704 C 403 674 397 641 397 604 L 397 0 L 141 0 L 141 813 L 131 1030 L 375 1030 L 381 868 L 385 868 C 425 927 471 972 523 1004 C 575 1035 639 1051 715 1051 C 826 1051 909 1019 965 956 C 1021 893 1049 806 1049 694 L 1049 0 L 793 0 L 793 662 Z M 457 1180 L 242 1493 L 418 1493 L 580 1315 L 592 1315 L 752 1493 L 930 1493 L 715 1180 L 457 1180 Z" unicode="ň" />
</font>
</defs>
</svg>
