<?xml version="1.0" standalone="no"?><!DOCTYPE svg PUBLIC "-//W3C//DTD SVG 1.1//EN" "http://www.w3.org/Graphics/SVG/1.1/DTD/svg11.dtd" ><svg version="1.1" xmlns="http://www.w3.org/2000/svg"><defs><font horiz-adv-x="0" id="font"><font-face ascent="770" bbox="-151 -246 1360 957" cap-height="702" descent="-230" font-family="Copyright Klim Type Foundry" font-stretch="normal" font-style="normal" font-weight="600" units-per-em="1000" x-height="546" /><missing-glyph horiz-adv-x="197" /><glyph d="M448 217H194L167 147Q163 136 160 125.5Q157 115 157 107Q157 95 160 87.5Q163 80 171 74.5Q179 69 194 66.5Q209 64 232 63V0H7V63Q27 67 41.5 73.5Q56 80 64 100L276 627L242 705H428L686 100Q694 81 708 74Q722 67 744 63V0H413V63Q458 65 473 74.5Q488 84 488 107Q488 123 477 147ZM219 281H422L319 535Z" glyph-name="A" horiz-adv-x="751" unicode="A" /><glyph d="M408 600Q400 620 381.5 628.5Q363 637 319 639V702H993V515H925Q913 546 901 569Q889 592 874 607Q859 622 838 629.5Q817 637 787 637H671V395H765Q798 395 813.5 412.5Q829 430 837 475H896V247H837Q829 292 813.5 309.5Q798 327 765 327H671V132Q671 91 692 78Q713 65 756 65H796Q823 65 843.5 72Q864 79 882.5 95.5Q901 112 919.5 138Q938 164 962 202H1029L998 0H410V63Q435 64 451.5 67Q468 70 477.5 77.5Q487 85 490.5 98Q494 111 494 132V245H254L198 162Q185 144 180 129.5Q175 115 175 104Q175 92 178.5 84.5Q182 77 190.5 72.5Q199 68 214 66Q229 64 252 63V0H7V63Q27 67 39.5 74.5Q52 82 65 100ZM298 309H494V595Z" glyph-name="AE" horiz-adv-x="1057" unicode="&#198;" /><glyph d="M819 909 663 753H574L647 909ZM408 600Q400 620 381.5 628.5Q363 637 319 639V702H993V515H925Q913 546 901 569Q889 592 874 607Q859 622 838 629.5Q817 637 787 637H671V395H765Q798 395 813.5 412.5Q829 430 837 475H896V247H837Q829 292 813.5 309.5Q798 327 765 327H671V132Q671 91 692 78Q713 65 756 65H796Q823 65 843.5 72Q864 79 882.5 95.5Q901 112 919.5 138Q938 164 962 202H1029L998 0H410V63Q435 64 451.5 67Q468 70 477.5 77.5Q487 85 490.5 98Q494 111 494 132V245H254L198 162Q185 144 180 129.5Q175 115 175 104Q175 92 178.5 84.5Q182 77 190.5 72.5Q199 68 214 66Q229 64 252 63V0H7V63Q27 67 39.5 74.5Q52 82 65 100ZM298 309H494V595Z" glyph-name="AEacute" horiz-adv-x="1057" unicode="&#508;" /><glyph d="M448 217H194L167 147Q163 136 160 125.5Q157 115 157 107Q157 95 160 87.5Q163 80 171 74.5Q179 69 194 66.5Q209 64 232 63V0H7V63Q27 67 41.5 73.5Q56 80 64 100L276 627L242 705H428L686 100Q694 81 708 74Q722 67 744 63V0H413V63Q458 65 473 74.5Q488 84 488 107Q488 123 477 147ZM219 281H422L319 535ZM545 909 389 753H300L373 909Z" glyph-name="Aacute" horiz-adv-x="751" unicode="&#193;" /><glyph d="M448 217H194L167 147Q163 136 160 125.5Q157 115 157 107Q157 95 160 87.5Q163 80 171 74.5Q179 69 194 66.5Q209 64 232 63V0H7V63Q27 67 41.5 73.5Q56 80 64 100L276 627L242 705H428L686 100Q694 81 708 74Q722 67 744 63V0H413V63Q458 65 473 74.5Q488 84 488 107Q488 123 477 147ZM219 281H422L319 535ZM351 748Q276 748 234.5 792.5Q193 837 193 916H257Q260 892 269.5 876.5Q279 861 292 852Q305 843 320.5 839Q336 835 351 835Q366 835 381.5 839Q397 843 410 852Q423 861 432.5 876.5Q442 892 445 916H509Q509 837 467.5 792.5Q426 748 351 748Z" glyph-name="Abreve" horiz-adv-x="751" unicode="&#258;" /><glyph d="M448 217H194L167 147Q163 136 160 125.5Q157 115 157 107Q157 95 160 87.5Q163 80 171 74.5Q179 69 194 66.5Q209 64 232 63V0H7V63Q27 67 41.5 73.5Q56 80 64 100L276 627L242 705H428L686 100Q694 81 708 74Q722 67 744 63V0H413V63Q458 65 473 74.5Q488 84 488 107Q488 123 477 147ZM219 281H422L319 535ZM553 751H467L351 833L235 751H149L290 918H412Z" glyph-name="Acircumflex" horiz-adv-x="751" unicode="&#194;" /><glyph d="M448 217H194L167 147Q163 136 160 125.5Q157 115 157 107Q157 95 160 87.5Q163 80 171 74.5Q179 69 194 66.5Q209 64 232 63V0H7V63Q27 67 41.5 73.5Q56 80 64 100L276 627L242 705H428L686 100Q694 81 708 74Q722 67 744 63V0H413V63Q458 65 473 74.5Q488 84 488 107Q488 123 477 147ZM219 281H422L319 535ZM160 831Q160 865 184 889.5Q208 914 243 914Q278 914 302.5 889.5Q327 865 327 831Q327 797 302.5 772.5Q278 748 243 748Q208 748 184 772.5Q160 797 160 831ZM376 831Q376 848 382.5 863Q389 878 400.5 889.5Q412 901 426.5 907.5Q441 914 458 914Q494 914 518.5 889.5Q543 865 543 831Q543 797 518.5 772.5Q494 748 458 748Q441 748 426.5 754.5Q412 761 400.5 772.5Q389 784 382.5 799Q376 814 376 831Z" glyph-name="Adieresis" horiz-adv-x="751" unicode="&#196;" /><glyph d="M448 217H194L167 147Q163 136 160 125.5Q157 115 157 107Q157 95 160 87.5Q163 80 171 74.5Q179 69 194 66.5Q209 64 232 63V0H7V63Q27 67 41.5 73.5Q56 80 64 100L276 627L242 705H428L686 100Q694 81 708 74Q722 67 744 63V0H413V63Q458 65 473 74.5Q488 84 488 107Q488 123 477 147ZM219 281H422L319 535ZM336 909 409 753H320L164 909Z" glyph-name="Agrave" horiz-adv-x="751" unicode="&#192;" /><glyph d="M448 217H194L167 147Q163 136 160 125.5Q157 115 157 107Q157 95 160 87.5Q163 80 171 74.5Q179 69 194 66.5Q209 64 232 63V0H7V63Q27 67 41.5 73.5Q56 80 64 100L276 627L242 705H428L686 100Q694 81 708 74Q722 67 744 63V0H413V63Q458 65 473 74.5Q488 84 488 107Q488 123 477 147ZM219 281H422L319 535ZM196 860H506V763H196Z" glyph-name="Amacron" horiz-adv-x="751" unicode="&#256;" /><glyph d="M448 217H194L167 147Q163 136 160 125.5Q157 115 157 107Q157 95 160 87.5Q163 80 171 74.5Q179 69 194 66.5Q209 64 232 63V0H7V63Q27 67 41.5 73.5Q56 80 64 100L276 627L242 705H428L686 100Q694 81 708 74Q722 67 744 63V0H446Q420 -14 403.5 -36Q387 -58 387 -84Q387 -109 398.5 -123Q410 -137 433 -137Q450 -137 467.5 -132.5Q485 -128 508 -114L525 -140Q494 -175 462.5 -194Q431 -213 388 -213Q349 -213 319 -187Q289 -161 289 -113Q289 -68 319 -32Q349 4 418 36Q457 55 472.5 69.5Q488 84 488 107Q488 123 477 147ZM219 281H422L319 535Z" glyph-name="Aogonek" horiz-adv-x="751" unicode="&#260;" /><glyph d="M448 217H194L167 147Q163 136 160 125.5Q157 115 157 107Q157 95 160 87.5Q163 80 171 74.5Q179 69 194 66.5Q209 64 232 63V0H7V63Q27 67 41.5 73.5Q56 80 64 100L276 627L242 705H428L686 100Q694 81 708 74Q722 67 744 63V0H413V63Q458 65 473 74.5Q488 84 488 107Q488 123 477 147ZM219 281H422L319 535ZM242 841Q242 883 272.5 911.5Q303 940 351 940Q399 940 429.5 911.5Q460 883 460 841Q460 799 429.5 770.5Q399 742 351 742Q303 742 272.5 770.5Q242 799 242 841ZM398 841Q398 861 386 874Q374 887 351 887Q328 887 316 874Q304 861 304 841Q304 821 316 808Q328 795 351 795Q374 795 386 808Q398 821 398 841Z" glyph-name="Aring" horiz-adv-x="751" unicode="&#197;" /><glyph d="M448 217H194L167 147Q163 136 160 125.5Q157 115 157 107Q157 95 160 87.5Q163 80 171 74.5Q179 69 194 66.5Q209 64 232 63V0H7V63Q27 67 41.5 73.5Q56 80 64 100L276 627L242 705H428L686 100Q694 81 708 74Q722 67 744 63V0H413V63Q458 65 473 74.5Q488 84 488 107Q488 123 477 147ZM219 281H422L319 535ZM556 887Q536 842 520.5 814Q505 786 489.5 770.5Q474 755 457.5 749.5Q441 744 420 744Q399 744 380 753.5Q361 763 344 775Q327 787 311.5 796.5Q296 806 282 806Q259 806 245 790Q231 774 217 750L161 762Q181 807 197 835Q213 863 228 878.5Q243 894 260 899.5Q277 905 298 905Q322 905 341 895Q360 885 376.5 873.5Q393 862 407 852Q421 842 436 842Q458 842 472 858Q486 874 501 899Z" glyph-name="Atilde" horiz-adv-x="751" unicode="&#195;" /><glyph d="M32 63Q57 64 73 67Q89 70 98.5 77.5Q108 85 111.5 98Q115 111 115 132V570Q115 591 111.5 603.5Q108 616 98.5 623.5Q89 631 73 634.5Q57 638 32 639V702H399Q514 702 578 658Q642 614 642 526Q642 488 626.5 459.5Q611 431 585.5 411Q560 391 526.5 379Q493 367 457 363Q505 360 545.5 347.5Q586 335 615 313.5Q644 292 660.5 261Q677 230 677 190Q677 94 607.5 47Q538 0 404 0H32ZM293 327V130Q293 89 311 76Q329 63 371 63H379Q435 63 466.5 96Q498 129 498 192Q498 221 490 246Q482 271 464 289Q446 307 417 317Q388 327 346 327ZM293 635V393H332Q398 393 432.5 423.5Q467 454 467 520Q467 578 431 606.5Q395 635 327 635Z" glyph-name="B" horiz-adv-x="708" unicode="B" /><glyph d="M412 63Q477 63 513 107.5Q549 152 576 242H661L643 54Q597 24 535.5 7Q474 -10 395 -10Q310 -10 243 16Q176 42 130 88Q84 134 60 197.5Q36 261 36 337Q36 424 64.5 493Q93 562 142.5 611Q192 660 258 686Q324 712 400 712Q475 712 536 692.5Q597 673 635 640V479H551Q532 556 497 599.5Q462 643 397 643Q350 643 317.5 620Q285 597 265 558.5Q245 520 236.5 470Q228 420 228 366Q228 299 239.5 243.5Q251 188 274 148Q297 108 331.5 85.5Q366 63 412 63Z" glyph-name="C" horiz-adv-x="699" unicode="C" /><glyph d="M412 63Q477 63 513 107.5Q549 152 576 242H661L643 54Q597 24 535.5 7Q474 -10 395 -10Q310 -10 243 16Q176 42 130 88Q84 134 60 197.5Q36 261 36 337Q36 424 64.5 493Q93 562 142.5 611Q192 660 258 686Q324 712 400 712Q475 712 536 692.5Q597 673 635 640V479H551Q532 556 497 599.5Q462 643 397 643Q350 643 317.5 620Q285 597 265 558.5Q245 520 236.5 470Q228 420 228 366Q228 299 239.5 243.5Q251 188 274 148Q297 108 331.5 85.5Q366 63 412 63ZM583 909 427 753H338L411 909Z" glyph-name="Cacute" horiz-adv-x="699" unicode="&#262;" /><glyph d="M412 63Q477 63 513 107.5Q549 152 576 242H661L643 54Q597 24 535.5 7Q474 -10 395 -10Q310 -10 243 16Q176 42 130 88Q84 134 60 197.5Q36 261 36 337Q36 424 64.5 493Q93 562 142.5 611Q192 660 258 686Q324 712 400 712Q475 712 536 692.5Q597 673 635 640V479H551Q532 556 497 599.5Q462 643 397 643Q350 643 317.5 620Q285 597 265 558.5Q245 520 236.5 470Q228 420 228 366Q228 299 239.5 243.5Q251 188 274 148Q297 108 331.5 85.5Q366 63 412 63ZM455 754H333L192 921H278L394 839L510 921H596Z" glyph-name="Ccaron" horiz-adv-x="699" unicode="&#268;" /><glyph d="M280 -185Q334 -185 364.5 -175Q395 -165 395 -144Q395 -124 370.5 -116.5Q346 -109 309 -107L349 -8Q274 -1 216 27Q158 55 118 100.5Q78 146 57 206Q36 266 36 337Q36 424 64.5 493Q93 562 142.5 611Q192 660 258 686Q324 712 400 712Q475 712 536 692.5Q597 673 635 640V479H551Q532 556 497 599.5Q462 643 397 643Q350 643 317.5 620Q285 597 265 558.5Q245 520 236.5 470Q228 420 228 366Q228 299 239.5 243.5Q251 188 274 148Q297 108 331.5 85.5Q366 63 412 63Q477 63 513 107.5Q549 152 576 242H661L643 54Q597 24 535.5 7Q474 -10 395 -10L383 -45Q428 -49 455 -66.5Q482 -84 482 -122Q482 -149 466 -169.5Q450 -190 423.5 -203.5Q397 -217 362 -224Q327 -231 290 -231Z" glyph-name="Ccedilla" horiz-adv-x="699" unicode="&#199;" /><glyph d="M412 63Q477 63 513 107.5Q549 152 576 242H661L643 54Q597 24 535.5 7Q474 -10 395 -10Q310 -10 243 16Q176 42 130 88Q84 134 60 197.5Q36 261 36 337Q36 424 64.5 493Q93 562 142.5 611Q192 660 258 686Q324 712 400 712Q475 712 536 692.5Q597 673 635 640V479H551Q532 556 497 599.5Q462 643 397 643Q350 643 317.5 620Q285 597 265 558.5Q245 520 236.5 470Q228 420 228 366Q228 299 239.5 243.5Q251 188 274 148Q297 108 331.5 85.5Q366 63 412 63ZM596 751H510L394 833L278 751H192L333 918H455Z" glyph-name="Ccircumflex" horiz-adv-x="699" unicode="&#264;" /><glyph d="M395 748Q351 748 325.5 774.5Q300 801 300 837Q300 873 325.5 900Q351 927 395 927Q439 927 464.5 900Q490 873 490 837Q490 801 464.5 774.5Q439 748 395 748ZM412 63Q477 63 513 107.5Q549 152 576 242H661L643 54Q597 24 535.5 7Q474 -10 395 -10Q310 -10 243 16Q176 42 130 88Q84 134 60 197.5Q36 261 36 337Q36 424 64.5 493Q93 562 142.5 611Q192 660 258 686Q324 712 400 712Q475 712 536 692.5Q597 673 635 640V479H551Q532 556 497 599.5Q462 643 397 643Q350 643 317.5 620Q285 597 265 558.5Q245 520 236.5 470Q228 420 228 366Q228 299 239.5 243.5Q251 188 274 148Q297 108 331.5 85.5Q366 63 412 63Z" glyph-name="Cdotaccent" horiz-adv-x="699" unicode="&#266;" /><glyph d="M293 635V137Q293 93 310.5 80Q328 67 368 67H379Q469 67 518 136.5Q567 206 567 351Q567 414 552 466Q537 518 507 555.5Q477 593 432.5 614Q388 635 328 635ZM32 702H353Q451 702 526.5 678.5Q602 655 653.5 611Q705 567 731.5 504.5Q758 442 758 364Q758 278 731.5 210Q705 142 656 95.5Q607 49 538.5 24.5Q470 0 385 0H32V63Q57 64 73 67Q89 70 98.5 77.5Q108 85 111.5 98Q115 111 115 132V570Q115 591 111.5 603.5Q108 616 98.5 623.5Q89 631 73 634.5Q57 638 32 639Z" glyph-name="D" horiz-adv-x="793" unicode="D" /><glyph d="M452 754H330L189 921H275L391 839L507 921H593ZM293 635V137Q293 93 310.5 80Q328 67 368 67H379Q469 67 518 136.5Q567 206 567 351Q567 414 552 466Q537 518 507 555.5Q477 593 432.5 614Q388 635 328 635ZM32 702H353Q451 702 526.5 678.5Q602 655 653.5 611Q705 567 731.5 504.5Q758 442 758 364Q758 278 731.5 210Q705 142 656 95.5Q607 49 538.5 24.5Q470 0 385 0H32V63Q57 64 73 67Q89 70 98.5 77.5Q108 85 111.5 98Q115 111 115 132V570Q115 591 111.5 603.5Q108 616 98.5 623.5Q89 631 73 634.5Q57 638 32 639Z" glyph-name="Dcaron" horiz-adv-x="793" unicode="&#270;" /><glyph d="M39 395H123V570Q123 591 119.5 603.5Q116 616 106.5 623.5Q97 631 81 634.5Q65 638 40 639V702H361Q459 702 534.5 678.5Q610 655 661.5 611Q713 567 739.5 504.5Q766 442 766 364Q766 278 739.5 210Q713 142 664 95.5Q615 49 546.5 24.5Q478 0 393 0H40V63Q65 64 81 67Q97 70 106.5 77.5Q116 85 119.5 98Q123 111 123 132V329H39ZM301 635V395H432V329H301V137Q301 93 318.5 80Q336 67 376 67H387Q477 67 526 136.5Q575 206 575 351Q575 414 560 466Q545 518 515 555.5Q485 593 440.5 614Q396 635 336 635Z" glyph-name="Dcroat" horiz-adv-x="801" unicode="&#272;" /><glyph d="M458 247Q450 292 434.5 309.5Q419 327 386 327H293V132Q293 91 313.5 78Q334 65 377 65H417Q445 65 465.5 72Q486 79 504.5 95.5Q523 112 541.5 138Q560 164 584 202H650L619 0H32V63Q57 64 73 67Q89 70 98.5 77.5Q108 85 111.5 98Q115 111 115 132V570Q115 591 111.5 603.5Q108 616 98.5 623.5Q89 631 73 634.5Q57 638 32 639V702H614V515H546Q534 546 522.5 569Q511 592 495.5 607Q480 622 459.5 629.5Q439 637 409 637H293V395H386Q419 395 434.5 412.5Q450 430 458 475H518V247Z" glyph-name="E" horiz-adv-x="678" unicode="E" /><glyph d="M543 909 387 753H298L371 909ZM458 247Q450 292 434.5 309.5Q419 327 386 327H293V132Q293 91 313.5 78Q334 65 377 65H417Q445 65 465.5 72Q486 79 504.5 95.5Q523 112 541.5 138Q560 164 584 202H650L619 0H32V63Q57 64 73 67Q89 70 98.5 77.5Q108 85 111.5 98Q115 111 115 132V570Q115 591 111.5 603.5Q108 616 98.5 623.5Q89 631 73 634.5Q57 638 32 639V702H614V515H546Q534 546 522.5 569Q511 592 495.5 607Q480 622 459.5 629.5Q439 637 409 637H293V395H386Q419 395 434.5 412.5Q450 430 458 475H518V247Z" glyph-name="Eacute" horiz-adv-x="678" unicode="&#201;" /><glyph d="M350 748Q275 748 233.5 792.5Q192 837 192 916H256Q259 892 268.5 876.5Q278 861 291 852Q304 843 319.5 839Q335 835 350 835Q365 835 380.5 839Q396 843 409 852Q422 861 431.5 876.5Q441 892 444 916H508Q508 837 466.5 792.5Q425 748 350 748ZM458 247Q450 292 434.5 309.5Q419 327 386 327H293V132Q293 91 313.5 78Q334 65 377 65H417Q445 65 465.5 72Q486 79 504.5 95.5Q523 112 541.5 138Q560 164 584 202H650L619 0H32V63Q57 64 73 67Q89 70 98.5 77.5Q108 85 111.5 98Q115 111 115 132V570Q115 591 111.5 603.5Q108 616 98.5 623.5Q89 631 73 634.5Q57 638 32 639V702H614V515H546Q534 546 522.5 569Q511 592 495.5 607Q480 622 459.5 629.5Q439 637 409 637H293V395H386Q419 395 434.5 412.5Q450 430 458 475H518V247Z" glyph-name="Ebreve" horiz-adv-x="678" unicode="&#276;" /><glyph d="M411 754H289L148 921H234L350 839L466 921H552ZM458 247Q450 292 434.5 309.5Q419 327 386 327H293V132Q293 91 313.5 78Q334 65 377 65H417Q445 65 465.5 72Q486 79 504.5 95.5Q523 112 541.5 138Q560 164 584 202H650L619 0H32V63Q57 64 73 67Q89 70 98.5 77.5Q108 85 111.5 98Q115 111 115 132V570Q115 591 111.5 603.5Q108 616 98.5 623.5Q89 631 73 634.5Q57 638 32 639V702H614V515H546Q534 546 522.5 569Q511 592 495.5 607Q480 622 459.5 629.5Q439 637 409 637H293V395H386Q419 395 434.5 412.5Q450 430 458 475H518V247Z" glyph-name="Ecaron" horiz-adv-x="678" unicode="&#282;" /><glyph d="M458 247Q450 292 434.5 309.5Q419 327 386 327H293V132Q293 91 313.5 78Q334 65 377 65H417Q445 65 465.5 72Q486 79 504.5 95.5Q523 112 541.5 138Q560 164 584 202H650L619 0H32V63Q57 64 73 67Q89 70 98.5 77.5Q108 85 111.5 98Q115 111 115 132V570Q115 591 111.5 603.5Q108 616 98.5 623.5Q89 631 73 634.5Q57 638 32 639V702H614V515H546Q534 546 522.5 569Q511 592 495.5 607Q480 622 459.5 629.5Q439 637 409 637H293V395H386Q419 395 434.5 412.5Q450 430 458 475H518V247ZM552 751H466L350 833L234 751H148L289 918H411Z" glyph-name="Ecircumflex" horiz-adv-x="678" unicode="&#202;" /><glyph d="M159 831Q159 865 183 889.5Q207 914 242 914Q277 914 301.5 889.5Q326 865 326 831Q326 797 301.5 772.5Q277 748 242 748Q207 748 183 772.5Q159 797 159 831ZM375 831Q375 848 381.5 863Q388 878 399.5 889.5Q411 901 425.5 907.5Q440 914 457 914Q493 914 517.5 889.5Q542 865 542 831Q542 797 517.5 772.5Q493 748 457 748Q440 748 425.5 754.5Q411 761 399.5 772.5Q388 784 381.5 799Q375 814 375 831ZM458 247Q450 292 434.5 309.5Q419 327 386 327H293V132Q293 91 313.5 78Q334 65 377 65H417Q445 65 465.5 72Q486 79 504.5 95.5Q523 112 541.5 138Q560 164 584 202H650L619 0H32V63Q57 64 73 67Q89 70 98.5 77.5Q108 85 111.5 98Q115 111 115 132V570Q115 591 111.5 603.5Q108 616 98.5 623.5Q89 631 73 634.5Q57 638 32 639V702H614V515H546Q534 546 522.5 569Q511 592 495.5 607Q480 622 459.5 629.5Q439 637 409 637H293V395H386Q419 395 434.5 412.5Q450 430 458 475H518V247Z" glyph-name="Edieresis" horiz-adv-x="678" unicode="&#203;" /><glyph d="M351 748Q307 748 281.5 774.5Q256 801 256 837Q256 873 281.5 900Q307 927 351 927Q395 927 420.5 900Q446 873 446 837Q446 801 420.5 774.5Q395 748 351 748ZM458 247Q450 292 434.5 309.5Q419 327 386 327H293V132Q293 91 313.5 78Q334 65 377 65H417Q445 65 465.5 72Q486 79 504.5 95.5Q523 112 541.5 138Q560 164 584 202H650L619 0H32V63Q57 64 73 67Q89 70 98.5 77.5Q108 85 111.5 98Q115 111 115 132V570Q115 591 111.5 603.5Q108 616 98.5 623.5Q89 631 73 634.5Q57 638 32 639V702H614V515H546Q534 546 522.5 569Q511 592 495.5 607Q480 622 459.5 629.5Q439 637 409 637H293V395H386Q419 395 434.5 412.5Q450 430 458 475H518V247Z" glyph-name="Edotaccent" horiz-adv-x="678" unicode="&#278;" /><glyph d="M335 909 408 753H319L163 909ZM458 247Q450 292 434.5 309.5Q419 327 386 327H293V132Q293 91 313.5 78Q334 65 377 65H417Q445 65 465.5 72Q486 79 504.5 95.5Q523 112 541.5 138Q560 164 584 202H650L619 0H32V63Q57 64 73 67Q89 70 98.5 77.5Q108 85 111.5 98Q115 111 115 132V570Q115 591 111.5 603.5Q108 616 98.5 623.5Q89 631 73 634.5Q57 638 32 639V702H614V515H546Q534 546 522.5 569Q511 592 495.5 607Q480 622 459.5 629.5Q439 637 409 637H293V395H386Q419 395 434.5 412.5Q450 430 458 475H518V247Z" glyph-name="Egrave" horiz-adv-x="678" unicode="&#200;" /><glyph d="M195 860H505V763H195ZM458 247Q450 292 434.5 309.5Q419 327 386 327H293V132Q293 91 313.5 78Q334 65 377 65H417Q445 65 465.5 72Q486 79 504.5 95.5Q523 112 541.5 138Q560 164 584 202H650L619 0H32V63Q57 64 73 67Q89 70 98.5 77.5Q108 85 111.5 98Q115 111 115 132V570Q115 591 111.5 603.5Q108 616 98.5 623.5Q89 631 73 634.5Q57 638 32 639V702H614V515H546Q534 546 522.5 569Q511 592 495.5 607Q480 622 459.5 629.5Q439 637 409 637H293V395H386Q419 395 434.5 412.5Q450 430 458 475H518V247Z" glyph-name="Emacron" horiz-adv-x="678" unicode="&#274;" /><glyph d="M199 513V132Q199 91 219.5 78Q240 65 290 63V0H32V63Q57 64 73 67Q89 70 98.5 77.5Q108 85 111.5 98Q115 111 115 132V587Q103 603 94 612.5Q85 622 76 627.5Q67 633 56.5 635.5Q46 638 32 639V702H283L598 293V570Q598 611 577 624Q556 637 507 639V702H764V639Q739 638 723 634.5Q707 631 697.5 623.5Q688 616 684.5 603.5Q681 591 681 570V123Q681 83 677 52.5Q673 22 665 -2.5Q657 -27 645.5 -47Q634 -67 619 -85Q584 -127 549 -156.5Q514 -186 472 -209L439 -177L477 -120Q506 -79 521.5 -32Q537 15 537 84Z" glyph-name="Eng" horiz-adv-x="784" unicode="&#330;" /><glyph d="M458 247Q450 292 434.5 309.5Q419 327 386 327H293V132Q293 91 313.5 78Q334 65 377 65H417Q445 65 465.5 72Q486 79 504.5 95.5Q523 112 541.5 138Q560 164 584 202H650L619 0H539Q504 -20 485.5 -44.5Q467 -69 467 -96Q467 -113 477.5 -125Q488 -137 512 -137Q529 -137 546 -132.5Q563 -128 586 -114L604 -140Q572 -175 538 -195Q504 -215 462 -215Q423 -215 395 -193Q367 -171 367 -131Q367 -87 395.5 -55Q424 -23 466 0H32V63Q57 64 73 67Q89 70 98.5 77.5Q108 85 111.5 98Q115 111 115 132V570Q115 591 111.5 603.5Q108 616 98.5 623.5Q89 631 73 634.5Q57 638 32 639V702H614V515H546Q534 546 522.5 569Q511 592 495.5 607Q480 622 459.5 629.5Q439 637 409 637H293V395H386Q419 395 434.5 412.5Q450 430 458 475H518V247Z" glyph-name="Eogonek" horiz-adv-x="678" unicode="&#280;" /><glyph d="M39 395H123V570Q123 591 119.5 603.5Q116 616 106.5 623.5Q97 631 81 634.5Q65 638 40 639V702H361Q459 702 534.5 678.5Q610 655 661.5 611Q713 567 739.5 504.5Q766 442 766 364Q766 278 739.5 210Q713 142 664 95.5Q615 49 546.5 24.5Q478 0 393 0H40V63Q65 64 81 67Q97 70 106.5 77.5Q116 85 119.5 98Q123 111 123 132V329H39ZM301 635V395H432V329H301V137Q301 93 318.5 80Q336 67 376 67H387Q477 67 526 136.5Q575 206 575 351Q575 414 560 466Q545 518 515 555.5Q485 593 440.5 614Q396 635 336 635Z" glyph-name="Eth" horiz-adv-x="801" unicode="&#208;" /><glyph d="M27 438H121Q134 501 163.5 551.5Q193 602 235 638Q277 674 329.5 693Q382 712 442 712Q575 712 647 646V486H567Q550 561 521 601.5Q492 642 433 642Q400 642 376 626Q352 610 334.5 582.5Q317 555 306.5 518Q296 481 292 438H508L499 383H288V365Q288 353 288 341Q288 329 289 318H489L480 262H294Q300 219 311 183Q322 147 340 120.5Q358 94 383 79Q408 64 442 64Q501 64 537.5 103.5Q574 143 597 233H674L660 45Q618 18 558.5 4Q499 -10 436 -10Q369 -10 314.5 9Q260 28 219.5 63.5Q179 99 152.5 149Q126 199 116 262H27V318H111V338Q111 349 111 360.5Q111 372 113 383H27Z" glyph-name="Euro" horiz-adv-x="706" unicode="&#8364;" /><glyph d="M32 0V63Q57 64 73 67Q89 70 98.5 77.5Q108 85 111.5 98Q115 111 115 132V570Q115 591 111.5 603.5Q108 616 98.5 623.5Q89 631 73 634.5Q57 638 32 639V702H600V513H533Q521 544 509 567.5Q497 591 481.5 606.5Q466 622 445 629.5Q424 637 394 637H293V385H368Q402 385 417 403Q432 421 440 466H500V237H440Q432 283 417 301Q402 319 368 319H293V128Q293 108 300 95Q307 82 321 74.5Q335 67 357.5 63.5Q380 60 411 59V0Z" glyph-name="F" horiz-adv-x="625" unicode="F" /><glyph d="M36 337Q36 424 65.5 493Q95 562 145.5 611Q196 660 262.5 686Q329 712 404 712Q479 712 540 692.5Q601 673 640 640V479H556Q536 557 500 600Q464 643 401 643Q354 643 321 620Q288 597 267 558.5Q246 520 236 470Q226 420 226 366Q226 300 236.5 244.5Q247 189 269.5 148.5Q292 108 328 85.5Q364 63 416 63Q442 63 458 66.5Q474 70 493 80V211Q493 231 489.5 243.5Q486 256 476.5 263.5Q467 271 451.5 274Q436 277 412 278V342H736V278Q711 277 695.5 274Q680 271 671 263.5Q662 256 659 243.5Q656 231 656 211V63Q608 28 539.5 9.5Q471 -9 392 -9Q305 -9 238.5 17Q172 43 127 89Q82 135 59 198.5Q36 262 36 337Z" glyph-name="G" horiz-adv-x="760" unicode="G" /><glyph d="M398 748Q323 748 281.5 792.5Q240 837 240 916H304Q307 892 316.5 876.5Q326 861 339 852Q352 843 367.5 839Q383 835 398 835Q413 835 428.5 839Q444 843 457 852Q470 861 479.5 876.5Q489 892 492 916H556Q556 837 514.5 792.5Q473 748 398 748ZM36 337Q36 424 65.5 493Q95 562 145.5 611Q196 660 262.5 686Q329 712 404 712Q479 712 540 692.5Q601 673 640 640V479H556Q536 557 500 600Q464 643 401 643Q354 643 321 620Q288 597 267 558.5Q246 520 236 470Q226 420 226 366Q226 300 236.5 244.5Q247 189 269.5 148.5Q292 108 328 85.5Q364 63 416 63Q442 63 458 66.5Q474 70 493 80V211Q493 231 489.5 243.5Q486 256 476.5 263.5Q467 271 451.5 274Q436 277 412 278V342H736V278Q711 277 695.5 274Q680 271 671 263.5Q662 256 659 243.5Q656 231 656 211V63Q608 28 539.5 9.5Q471 -9 392 -9Q305 -9 238.5 17Q172 43 127 89Q82 135 59 198.5Q36 262 36 337Z" glyph-name="Gbreve" horiz-adv-x="760" unicode="&#286;" /><glyph d="M36 337Q36 424 65.5 493Q95 562 145.5 611Q196 660 262.5 686Q329 712 404 712Q479 712 540 692.5Q601 673 640 640V479H556Q536 557 500 600Q464 643 401 643Q354 643 321 620Q288 597 267 558.5Q246 520 236 470Q226 420 226 366Q226 300 236.5 244.5Q247 189 269.5 148.5Q292 108 328 85.5Q364 63 416 63Q442 63 458 66.5Q474 70 493 80V211Q493 231 489.5 243.5Q486 256 476.5 263.5Q467 271 451.5 274Q436 277 412 278V342H736V278Q711 277 695.5 274Q680 271 671 263.5Q662 256 659 243.5Q656 231 656 211V63Q608 28 539.5 9.5Q471 -9 392 -9Q305 -9 238.5 17Q172 43 127 89Q82 135 59 198.5Q36 262 36 337ZM602 751H516L400 833L284 751H198L339 918H461Z" glyph-name="Gcircumflex" horiz-adv-x="760" unicode="&#284;" /><glyph d="M368 -157Q345 -151 332.5 -137Q320 -123 320 -98Q320 -72 341 -54Q362 -36 400 -36Q445 -36 469.5 -62Q494 -88 494 -130Q494 -154 485 -175.5Q476 -197 456 -212.5Q436 -228 404.5 -237Q373 -246 327 -246V-203Q375 -203 399 -190Q423 -177 425 -157ZM36 337Q36 424 65.5 493Q95 562 145.5 611Q196 660 262.5 686Q329 712 404 712Q479 712 540 692.5Q601 673 640 640V479H556Q536 557 500 600Q464 643 401 643Q354 643 321 620Q288 597 267 558.5Q246 520 236 470Q226 420 226 366Q226 300 236.5 244.5Q247 189 269.5 148.5Q292 108 328 85.5Q364 63 416 63Q442 63 458 66.5Q474 70 493 80V211Q493 231 489.5 243.5Q486 256 476.5 263.5Q467 271 451.5 274Q436 277 412 278V342H736V278Q711 277 695.5 274Q680 271 671 263.5Q662 256 659 243.5Q656 231 656 211V63Q608 28 539.5 9.5Q471 -9 392 -9Q305 -9 238.5 17Q172 43 127 89Q82 135 59 198.5Q36 262 36 337Z" glyph-name="Gcommaaccent" horiz-adv-x="760" unicode="&#290;" /><glyph d="M401 748Q357 748 331.5 774.5Q306 801 306 837Q306 873 331.5 900Q357 927 401 927Q445 927 470.5 900Q496 873 496 837Q496 801 470.5 774.5Q445 748 401 748ZM36 337Q36 424 65.5 493Q95 562 145.5 611Q196 660 262.5 686Q329 712 404 712Q479 712 540 692.5Q601 673 640 640V479H556Q536 557 500 600Q464 643 401 643Q354 643 321 620Q288 597 267 558.5Q246 520 236 470Q226 420 226 366Q226 300 236.5 244.5Q247 189 269.5 148.5Q292 108 328 85.5Q364 63 416 63Q442 63 458 66.5Q474 70 493 80V211Q493 231 489.5 243.5Q486 256 476.5 263.5Q467 271 451.5 274Q436 277 412 278V342H736V278Q711 277 695.5 274Q680 271 671 263.5Q662 256 659 243.5Q656 231 656 211V63Q608 28 539.5 9.5Q471 -9 392 -9Q305 -9 238.5 17Q172 43 127 89Q82 135 59 198.5Q36 262 36 337Z" glyph-name="Gdotaccent" horiz-adv-x="760" unicode="&#288;" /><glyph d="M565 327H293V132Q293 111 297 98Q301 85 310.5 77.5Q320 70 336 67Q352 64 376 63V0H32V63Q57 64 73 67Q89 70 98.5 77.5Q108 85 111.5 98Q115 111 115 132V570Q115 591 111.5 603.5Q108 616 98.5 623.5Q89 631 73 634.5Q57 638 32 639V702H376V639Q352 638 336 634.5Q320 631 310.5 623.5Q301 616 297 603.5Q293 591 293 570V395H565V570Q565 591 561.5 603.5Q558 616 548.5 623.5Q539 631 523 634.5Q507 638 482 639V702H827V639Q802 638 785.5 634.5Q769 631 759.5 623.5Q750 616 746.5 603.5Q743 591 743 570V132Q743 111 746.5 98Q750 85 759.5 77.5Q769 70 785.5 67Q802 64 827 63V0H482V63Q507 64 523 67Q539 70 548.5 77.5Q558 85 561.5 98Q565 111 565 132Z" glyph-name="H" horiz-adv-x="858" unicode="H" /><glyph d="M39 522H123V570Q123 591 119.5 603.5Q116 616 106.5 623.5Q97 631 80.5 634.5Q64 638 39 639V702H384V639Q359 638 343 634.5Q327 631 317.5 623.5Q308 616 304.5 603.5Q301 591 301 570V522H573V570Q573 591 569 603.5Q565 616 555.5 623.5Q546 631 530 634.5Q514 638 490 639V702H834V639Q809 638 793 634.5Q777 631 767.5 623.5Q758 616 754.5 603.5Q751 591 751 570V522H834V457H751V132Q751 111 754.5 98Q758 85 767.5 77.5Q777 70 793 67Q809 64 834 63V0H490V63Q514 64 530 67Q546 70 555.5 77.5Q565 85 569 98Q573 111 573 132V293H301V132Q301 111 304.5 98Q308 85 317.5 77.5Q327 70 343 67Q359 64 384 63V0H39V63Q64 64 80.5 67Q97 70 106.5 77.5Q116 85 119.5 98Q123 111 123 132V457H39ZM573 361V457H301V361Z" glyph-name="Hbar" horiz-adv-x="874" unicode="&#294;" /><glyph d="M565 327H293V132Q293 111 297 98Q301 85 310.5 77.5Q320 70 336 67Q352 64 376 63V0H32V63Q57 64 73 67Q89 70 98.5 77.5Q108 85 111.5 98Q115 111 115 132V570Q115 591 111.5 603.5Q108 616 98.5 623.5Q89 631 73 634.5Q57 638 32 639V702H376V639Q352 638 336 634.5Q320 631 310.5 623.5Q301 616 297 603.5Q293 591 293 570V395H565V570Q565 591 561.5 603.5Q558 616 548.5 623.5Q539 631 523 634.5Q507 638 482 639V702H827V639Q802 638 785.5 634.5Q769 631 759.5 623.5Q750 616 746.5 603.5Q743 591 743 570V132Q743 111 746.5 98Q750 85 759.5 77.5Q769 70 785.5 67Q802 64 827 63V0H482V63Q507 64 523 67Q539 70 548.5 77.5Q558 85 561.5 98Q565 111 565 132ZM631 751H545L429 833L313 751H227L368 918H490Z" glyph-name="Hcircumflex" horiz-adv-x="858" unicode="&#292;" /><glyph d="M32 0V63Q57 64 73 67Q89 70 98.5 77.5Q108 85 111.5 98Q115 111 115 132V570Q115 591 111.5 603.5Q108 616 98.5 623.5Q89 631 73 634.5Q57 638 32 639V702H376V639Q351 638 335 634.5Q319 631 309.5 623.5Q300 616 296.5 603.5Q293 591 293 570V132Q293 111 296.5 98Q300 85 309.5 77.5Q319 70 335 67Q351 64 376 63V0Z" glyph-name="I" horiz-adv-x="408" unicode="I" /><glyph d="M32 0V63Q57 64 73 67Q89 70 98.5 77.5Q108 85 111.5 98Q115 111 115 132V570Q115 591 111.5 603.5Q108 616 98.5 623.5Q89 631 73 634.5Q57 638 32 639V702H376V639Q351 638 335 634.5Q319 631 309.5 623.5Q300 616 296.5 603.5Q293 591 293 570V132Q293 111 296.5 98Q300 85 309.5 77.5Q319 70 335 67Q351 64 376 63V0ZM397 909 241 753H152L225 909Z" glyph-name="Iacute" horiz-adv-x="408" unicode="&#205;" /><glyph d="M32 0V63Q57 64 73 67Q89 70 98.5 77.5Q108 85 111.5 98Q115 111 115 132V570Q115 591 111.5 603.5Q108 616 98.5 623.5Q89 631 73 634.5Q57 638 32 639V702H376V639Q351 638 335 634.5Q319 631 309.5 623.5Q300 616 296.5 603.5Q293 591 293 570V132Q293 111 296.5 98Q300 85 309.5 77.5Q319 70 335 67Q351 64 376 63V0ZM204 748Q129 748 87.5 792.5Q46 837 46 916H110Q113 892 122.5 876.5Q132 861 145 852Q158 843 173.5 839Q189 835 204 835Q219 835 234.5 839Q250 843 263 852Q276 861 285.5 876.5Q295 892 298 916H362Q362 837 320.5 792.5Q279 748 204 748Z" glyph-name="Ibreve" horiz-adv-x="408" unicode="&#300;" /><glyph d="M32 0V63Q57 64 73 67Q89 70 98.5 77.5Q108 85 111.5 98Q115 111 115 132V570Q115 591 111.5 603.5Q108 616 98.5 623.5Q89 631 73 634.5Q57 638 32 639V702H376V639Q351 638 335 634.5Q319 631 309.5 623.5Q300 616 296.5 603.5Q293 591 293 570V132Q293 111 296.5 98Q300 85 309.5 77.5Q319 70 335 67Q351 64 376 63V0ZM406 751H320L204 833L88 751H2L143 918H265Z" glyph-name="Icircumflex" horiz-adv-x="408" unicode="&#206;" /><glyph d="M32 0V63Q57 64 73 67Q89 70 98.5 77.5Q108 85 111.5 98Q115 111 115 132V570Q115 591 111.5 603.5Q108 616 98.5 623.5Q89 631 73 634.5Q57 638 32 639V702H376V639Q351 638 335 634.5Q319 631 309.5 623.5Q300 616 296.5 603.5Q293 591 293 570V132Q293 111 296.5 98Q300 85 309.5 77.5Q319 70 335 67Q351 64 376 63V0ZM13 831Q13 865 37 889.5Q61 914 96 914Q131 914 155.5 889.5Q180 865 180 831Q180 797 155.5 772.5Q131 748 96 748Q61 748 37 772.5Q13 797 13 831ZM229 831Q229 848 235.5 863Q242 878 253.5 889.5Q265 901 279.5 907.5Q294 914 311 914Q347 914 371.5 889.5Q396 865 396 831Q396 797 371.5 772.5Q347 748 311 748Q294 748 279.5 754.5Q265 761 253.5 772.5Q242 784 235.5 799Q229 814 229 831Z" glyph-name="Idieresis" horiz-adv-x="408" unicode="&#207;" /><glyph d="M32 0V63Q57 64 73 67Q89 70 98.5 77.5Q108 85 111.5 98Q115 111 115 132V570Q115 591 111.5 603.5Q108 616 98.5 623.5Q89 631 73 634.5Q57 638 32 639V702H376V639Q351 638 335 634.5Q319 631 309.5 623.5Q300 616 296.5 603.5Q293 591 293 570V132Q293 111 296.5 98Q300 85 309.5 77.5Q319 70 335 67Q351 64 376 63V0ZM205 748Q161 748 135.5 774.5Q110 801 110 837Q110 873 135.5 900Q161 927 205 927Q249 927 274.5 900Q300 873 300 837Q300 801 274.5 774.5Q249 748 205 748Z" glyph-name="Idotaccent" horiz-adv-x="408" unicode="&#304;" /><glyph d="M32 0V63Q57 64 73 67Q89 70 98.5 77.5Q108 85 111.5 98Q115 111 115 132V570Q115 591 111.5 603.5Q108 616 98.5 623.5Q89 631 73 634.5Q57 638 32 639V702H376V639Q351 638 335 634.5Q319 631 309.5 623.5Q300 616 296.5 603.5Q293 591 293 570V132Q293 111 296.5 98Q300 85 309.5 77.5Q319 70 335 67Q351 64 376 63V0ZM189 909 262 753H173L17 909Z" glyph-name="Igrave" horiz-adv-x="408" unicode="&#204;" /><glyph d="M32 0V63Q57 64 73 67Q89 70 98.5 77.5Q108 85 111.5 98Q115 111 115 132V570Q115 591 111.5 603.5Q108 616 98.5 623.5Q89 631 73 634.5Q57 638 32 639V702H376V639Q351 638 335 634.5Q319 631 309.5 623.5Q300 616 296.5 603.5Q293 591 293 570V132Q293 111 296.5 98Q300 85 309.5 77.5Q319 70 335 67Q351 64 376 63V0ZM49 860H359V763H49Z" glyph-name="Imacron" horiz-adv-x="408" unicode="&#298;" /><glyph d="M258 0Q223 -20 204.5 -44.5Q186 -69 186 -96Q186 -113 196.5 -125Q207 -137 231 -137Q248 -137 265 -132.5Q282 -128 305 -114L323 -140Q291 -175 257 -195Q223 -215 181 -215Q142 -215 114 -193Q86 -171 86 -131Q86 -87 114.5 -55Q143 -23 185 0H32V63Q57 64 73 67Q89 70 98.5 77.5Q108 85 111.5 98Q115 111 115 132V570Q115 591 111.5 603.5Q108 616 98.5 623.5Q89 631 73 634.5Q57 638 32 639V702H376V639Q351 638 335 634.5Q319 631 309.5 623.5Q300 616 296.5 603.5Q293 591 293 570V132Q293 111 296.5 98Q300 85 309.5 77.5Q319 70 335 67Q351 64 376 63V0Z" glyph-name="Iogonek" horiz-adv-x="408" unicode="&#302;" /><glyph d="M32 0V63Q57 64 73 67Q89 70 98.5 77.5Q108 85 111.5 98Q115 111 115 132V570Q115 591 111.5 603.5Q108 616 98.5 623.5Q89 631 73 634.5Q57 638 32 639V702H376V639Q351 638 335 634.5Q319 631 309.5 623.5Q300 616 296.5 603.5Q293 591 293 570V132Q293 111 296.5 98Q300 85 309.5 77.5Q319 70 335 67Q351 64 376 63V0ZM401 887Q381 842 365.5 814Q350 786 334.5 770.5Q319 755 302.5 749.5Q286 744 265 744Q244 744 225 753.5Q206 763 189 775Q172 787 156.5 796.5Q141 806 127 806Q104 806 90 790Q76 774 62 750L6 762Q26 807 42 835Q58 863 73 878.5Q88 894 105 899.5Q122 905 143 905Q167 905 186 895Q205 885 221.5 873.5Q238 862 252 852Q266 842 281 842Q303 842 317 858Q331 874 346 899Z" glyph-name="Itilde" horiz-adv-x="408" unicode="&#296;" /><glyph d="M492 221Q492 101 425 45.5Q358 -10 237 -10Q128 -10 68 28Q8 66 8 136Q8 168 21 188Q34 208 54 221H176V172Q176 121 190 87.5Q204 54 243 54Q285 54 299 89.5Q313 125 313 191V570Q313 591 309.5 603.5Q306 616 297 623.5Q288 631 272 634.5Q256 638 231 639V702H577V639Q552 638 535.5 634.5Q519 631 509.5 623.5Q500 616 496 603.5Q492 591 492 570Z" glyph-name="J" horiz-adv-x="594" unicode="J" /><glyph d="M492 221Q492 101 425 45.5Q358 -10 237 -10Q128 -10 68 28Q8 66 8 136Q8 168 21 188Q34 208 54 221H176V172Q176 121 190 87.5Q204 54 243 54Q285 54 299 89.5Q313 125 313 191V570Q313 591 309.5 603.5Q306 616 297 623.5Q288 631 272 634.5Q256 638 231 639V702H577V639Q552 638 535.5 634.5Q519 631 509.5 623.5Q500 616 496 603.5Q492 591 492 570ZM594 751H508L392 833L276 751H190L331 918H453Z" glyph-name="Jcircumflex" horiz-adv-x="594" unicode="&#308;" /><glyph d="M664 136Q679 114 691.5 99.5Q704 85 716.5 77Q729 69 742 65.5Q755 62 771 62V0H563Q540 15 519.5 38Q499 61 473 101L303 357L520 565Q533 577 540.5 586.5Q548 596 548 609Q548 621 536 629.5Q524 638 483 639V702H745V639Q713 638 696 628.5Q679 619 658 599L472 418ZM115 570Q115 591 111.5 603.5Q108 616 98.5 623.5Q89 631 73 634.5Q57 638 32 639V702H376V639Q352 638 336 634.5Q320 631 311 623.5Q302 616 298.5 603.5Q295 591 295 570V132Q295 111 298.5 98Q302 85 311 77.5Q320 70 336 67Q352 64 376 63V0H32V63Q57 64 73 67Q89 70 98.5 77.5Q108 85 111.5 98Q115 111 115 132Z" glyph-name="K" horiz-adv-x="775" unicode="K" /><glyph d="M371 -157Q348 -151 335.5 -137Q323 -123 323 -98Q323 -72 344 -54Q365 -36 403 -36Q448 -36 472.5 -62Q497 -88 497 -130Q497 -154 488 -175.5Q479 -197 459 -212.5Q439 -228 407.5 -237Q376 -246 330 -246V-203Q378 -203 402 -190Q426 -177 428 -157ZM664 136Q679 114 691.5 99.5Q704 85 716.5 77Q729 69 742 65.5Q755 62 771 62V0H563Q540 15 519.5 38Q499 61 473 101L303 357L520 565Q533 577 540.5 586.5Q548 596 548 609Q548 621 536 629.5Q524 638 483 639V702H745V639Q713 638 696 628.5Q679 619 658 599L472 418ZM115 570Q115 591 111.5 603.5Q108 616 98.5 623.5Q89 631 73 634.5Q57 638 32 639V702H376V639Q352 638 336 634.5Q320 631 311 623.5Q302 616 298.5 603.5Q295 591 295 570V132Q295 111 298.5 98Q302 85 311 77.5Q320 70 336 67Q352 64 376 63V0H32V63Q57 64 73 67Q89 70 98.5 77.5Q108 85 111.5 98Q115 111 115 132Z" glyph-name="Kcommaaccent" horiz-adv-x="775" unicode="&#310;" /><glyph d="M295 134Q295 93 313 80Q331 67 375 67H406Q431 67 449 74Q467 81 483.5 99Q500 117 519.5 149Q539 181 568 232H640L603 0H32V63Q57 64 73 67Q89 70 98.5 77.5Q108 85 111.5 98Q115 111 115 132V570Q115 610 98.5 623Q82 636 32 638V702H376V638Q352 637 336 634Q320 631 311 623.5Q302 616 298.5 603Q295 590 295 570Z" glyph-name="L" horiz-adv-x="652" unicode="L" /><glyph d="M417 909 261 753H172L245 909ZM295 134Q295 93 313 80Q331 67 375 67H406Q431 67 449 74Q467 81 483.5 99Q500 117 519.5 149Q539 181 568 232H640L603 0H32V63Q57 64 73 67Q89 70 98.5 77.5Q108 85 111.5 98Q115 111 115 132V570Q115 610 98.5 623Q82 636 32 638V702H376V638Q352 637 336 634Q320 631 311 623.5Q302 616 298.5 603Q295 590 295 570Z" glyph-name="Lacute" horiz-adv-x="652" unicode="&#313;" /><glyph d="M513 501H445L460 706H604ZM295 134Q295 93 313 80Q331 67 375 67H406Q431 67 449 74Q467 81 483.5 99Q500 117 519.5 149Q539 181 568 232H640L603 0H32V63Q57 64 73 67Q89 70 98.5 77.5Q108 85 111.5 98Q115 111 115 132V570Q115 610 98.5 623Q82 636 32 638V702H376V638Q352 637 336 634Q320 631 311 623.5Q302 616 298.5 603Q295 590 295 570Z" glyph-name="Lcaron" horiz-adv-x="652" unicode="&#317;" /><glyph d="M301 -157Q278 -151 265.5 -137Q253 -123 253 -98Q253 -72 274 -54Q295 -36 333 -36Q378 -36 402.5 -62Q427 -88 427 -130Q427 -154 418 -175.5Q409 -197 389 -212.5Q369 -228 337.5 -237Q306 -246 260 -246V-203Q308 -203 332 -190Q356 -177 358 -157ZM295 134Q295 93 313 80Q331 67 375 67H406Q431 67 449 74Q467 81 483.5 99Q500 117 519.5 149Q539 181 568 232H640L603 0H32V63Q57 64 73 67Q89 70 98.5 77.5Q108 85 111.5 98Q115 111 115 132V570Q115 610 98.5 623Q82 636 32 638V702H376V638Q352 637 336 634Q320 631 311 623.5Q302 616 298.5 603Q295 590 295 570Z" glyph-name="Lcommaaccent" horiz-adv-x="652" unicode="&#315;" /><glyph d="M295 134Q295 93 313 80Q331 67 375 67H406Q431 67 449 74Q467 81 483.5 99Q500 117 519.5 149Q539 181 568 232H640L603 0H32V63Q57 64 73 67Q89 70 98.5 77.5Q108 85 111.5 98Q115 111 115 132V570Q115 610 98.5 623Q82 636 32 638V702H376V638Q352 637 336 634Q320 631 311 623.5Q302 616 298.5 603Q295 590 295 570ZM544 316Q499 316 473.5 342.5Q448 369 448 405Q448 441 473.5 467.5Q499 494 544 494Q588 494 613 467.5Q638 441 638 405Q638 369 613 342.5Q588 316 544 316Z" glyph-name="Ldot" horiz-adv-x="652" unicode="&#319;" /><glyph d="M303 416 441 466V397L303 347V134Q303 93 321 80Q339 67 383 67H414Q439 67 457 74Q475 81 491.5 99Q508 117 527.5 149Q547 181 576 232H648L611 0H40V63Q65 64 81 67Q97 70 106.5 77.5Q116 85 119.5 98Q123 111 123 132V287L39 258V327L123 357V570Q123 610 106.5 623Q90 636 40 638V702H384V638Q360 637 344 634Q328 631 319 623.5Q310 616 306.5 603Q303 590 303 570Z" glyph-name="Lslash" horiz-adv-x="660" unicode="&#321;" /><glyph d="M666 498 487 0H417L226 499L180 152Q179 146 178.5 138Q178 130 178 127Q178 91 199 78.5Q220 66 273 63V0H9V63Q52 65 70 77Q88 89 93 124L156 566Q156 606 138.5 621.5Q121 637 71 639V702H338Q340 685 343 672Q346 659 353 640L501 249L640 640Q647 659 651 672Q655 685 657 702H918V639Q893 638 877 634Q861 630 851.5 621.5Q842 613 838.5 599.5Q835 586 835 566L897 124Q902 87 920.5 76Q939 65 981 63V0H622V63Q675 66 696 78.5Q717 91 717 127Q717 130 716.5 138Q716 146 715 152Z" glyph-name="M" horiz-adv-x="990" unicode="M" /><glyph d="M115 587Q103 603 94 612.5Q85 622 76 627.5Q67 633 56.5 635.5Q46 638 32 639V702H283L598 293V570Q598 611 577 624Q556 637 507 639V702H764V639Q739 638 723 634.5Q707 631 697.5 623.5Q688 616 684.5 603.5Q681 591 681 570V0H608L199 513V132Q199 91 219.5 78Q240 65 290 63V0H32V63Q57 64 73 67Q89 70 98.5 77.5Q108 85 111.5 98Q115 111 115 132Z" glyph-name="N" horiz-adv-x="784" unicode="N" /><glyph glyph-name="NULL" horiz-adv-x="0" /><glyph d="M591 909 435 753H346L419 909ZM115 587Q103 603 94 612.5Q85 622 76 627.5Q67 633 56.5 635.5Q46 638 32 639V702H283L598 293V570Q598 611 577 624Q556 637 507 639V702H764V639Q739 638 723 634.5Q707 631 697.5 623.5Q688 616 684.5 603.5Q681 591 681 570V0H608L199 513V132Q199 91 219.5 78Q240 65 290 63V0H32V63Q57 64 73 67Q89 70 98.5 77.5Q108 85 111.5 98Q115 111 115 132Z" glyph-name="Nacute" horiz-adv-x="784" unicode="&#323;" /><glyph d="M458 754H336L195 921H281L397 839L513 921H599ZM115 587Q103 603 94 612.5Q85 622 76 627.5Q67 633 56.5 635.5Q46 638 32 639V702H283L598 293V570Q598 611 577 624Q556 637 507 639V702H764V639Q739 638 723 634.5Q707 631 697.5 623.5Q688 616 684.5 603.5Q681 591 681 570V0H608L199 513V132Q199 91 219.5 78Q240 65 290 63V0H32V63Q57 64 73 67Q89 70 98.5 77.5Q108 85 111.5 98Q115 111 115 132Z" glyph-name="Ncaron" horiz-adv-x="784" unicode="&#327;" /><glyph d="M359 -157Q336 -151 323.5 -137Q311 -123 311 -98Q311 -72 332 -54Q353 -36 391 -36Q436 -36 460.5 -62Q485 -88 485 -130Q485 -154 476 -175.5Q467 -197 447 -212.5Q427 -228 395.5 -237Q364 -246 318 -246V-203Q366 -203 390 -190Q414 -177 416 -157ZM115 587Q103 603 94 612.5Q85 622 76 627.5Q67 633 56.5 635.5Q46 638 32 639V702H283L598 293V570Q598 611 577 624Q556 637 507 639V702H764V639Q739 638 723 634.5Q707 631 697.5 623.5Q688 616 684.5 603.5Q681 591 681 570V0H608L199 513V132Q199 91 219.5 78Q240 65 290 63V0H32V63Q57 64 73 67Q89 70 98.5 77.5Q108 85 111.5 98Q115 111 115 132Z" glyph-name="Ncommaaccent" horiz-adv-x="784" unicode="&#325;" /><glyph d="M598 887Q578 842 562.5 814Q547 786 531.5 770.5Q516 755 499.5 749.5Q483 744 462 744Q441 744 422 753.5Q403 763 386 775Q369 787 353.5 796.5Q338 806 324 806Q301 806 287 790Q273 774 259 750L203 762Q223 807 239 835Q255 863 270 878.5Q285 894 302 899.5Q319 905 340 905Q364 905 383 895Q402 885 418.5 873.5Q435 862 449 852Q463 842 478 842Q500 842 514 858Q528 874 543 899ZM115 587Q103 603 94 612.5Q85 622 76 627.5Q67 633 56.5 635.5Q46 638 32 639V702H283L598 293V570Q598 611 577 624Q556 637 507 639V702H764V639Q739 638 723 634.5Q707 631 697.5 623.5Q688 616 684.5 603.5Q681 591 681 570V0H608L199 513V132Q199 91 219.5 78Q240 65 290 63V0H32V63Q57 64 73 67Q89 70 98.5 77.5Q108 85 111.5 98Q115 111 115 132Z" glyph-name="Ntilde" horiz-adv-x="784" unicode="&#209;" /><glyph d="M393 60Q431 60 458.5 81.5Q486 103 503.5 140.5Q521 178 529 229Q537 280 537 338Q537 404 527 459.5Q517 515 496.5 555.5Q476 596 444 619Q412 642 369 642Q331 642 303.5 620.5Q276 599 258.5 561.5Q241 524 233 473Q225 422 225 364Q225 298 235 242Q245 186 265.5 145.5Q286 105 317.5 82.5Q349 60 393 60ZM389 712Q470 712 533 684Q596 656 639 608.5Q682 561 704.5 498Q727 435 727 365Q727 279 700 209.5Q673 140 625.5 91Q578 42 513 16Q448 -10 373 -10Q292 -10 229 18Q166 46 123 93.5Q80 141 58 204Q36 267 36 337Q36 423 63 492.5Q90 562 137.5 610.5Q185 659 249.5 685.5Q314 712 389 712Z" glyph-name="O" horiz-adv-x="762" unicode="O" /><glyph d="M440 0Q342 0 266.5 23.5Q191 47 140 91.5Q89 136 62.5 199Q36 262 36 341Q36 426 64.5 493Q93 560 144.5 606.5Q196 653 267 677.5Q338 702 423 702H983V515H915Q903 546 891.5 569Q880 592 864.5 607Q849 622 828 629.5Q807 637 777 637H662V395H755Q788 395 803.5 412.5Q819 430 827 475H886V247H827Q819 292 803.5 309.5Q788 327 755 327H662V132Q662 91 682.5 78Q703 65 746 65H786Q813 65 833.5 72Q854 79 872.5 95.5Q891 112 909.5 138Q928 164 952 202H1019L988 0ZM484 637H429Q384 637 347 619.5Q310 602 283 566.5Q256 531 241.5 477Q227 423 227 351Q227 288 242 235.5Q257 183 286.5 145Q316 107 361 86Q406 65 466 65H484Z" glyph-name="OE" horiz-adv-x="1047" unicode="&#338;" /><glyph d="M581 909 425 753H336L409 909ZM393 60Q431 60 458.5 81.5Q486 103 503.5 140.5Q521 178 529 229Q537 280 537 338Q537 404 527 459.5Q517 515 496.5 555.5Q476 596 444 619Q412 642 369 642Q331 642 303.5 620.5Q276 599 258.5 561.5Q241 524 233 473Q225 422 225 364Q225 298 235 242Q245 186 265.5 145.5Q286 105 317.5 82.5Q349 60 393 60ZM389 712Q470 712 533 684Q596 656 639 608.5Q682 561 704.5 498Q727 435 727 365Q727 279 700 209.5Q673 140 625.5 91Q578 42 513 16Q448 -10 373 -10Q292 -10 229 18Q166 46 123 93.5Q80 141 58 204Q36 267 36 337Q36 423 63 492.5Q90 562 137.5 610.5Q185 659 249.5 685.5Q314 712 389 712Z" glyph-name="Oacute" horiz-adv-x="762" unicode="&#211;" /><glyph d="M388 748Q313 748 271.5 792.5Q230 837 230 916H294Q297 892 306.5 876.5Q316 861 329 852Q342 843 357.5 839Q373 835 388 835Q403 835 418.5 839Q434 843 447 852Q460 861 469.5 876.5Q479 892 482 916H546Q546 837 504.5 792.5Q463 748 388 748ZM393 60Q431 60 458.5 81.5Q486 103 503.5 140.5Q521 178 529 229Q537 280 537 338Q537 404 527 459.5Q517 515 496.5 555.5Q476 596 444 619Q412 642 369 642Q331 642 303.5 620.5Q276 599 258.5 561.5Q241 524 233 473Q225 422 225 364Q225 298 235 242Q245 186 265.5 145.5Q286 105 317.5 82.5Q349 60 393 60ZM389 712Q470 712 533 684Q596 656 639 608.5Q682 561 704.5 498Q727 435 727 365Q727 279 700 209.5Q673 140 625.5 91Q578 42 513 16Q448 -10 373 -10Q292 -10 229 18Q166 46 123 93.5Q80 141 58 204Q36 267 36 337Q36 423 63 492.5Q90 562 137.5 610.5Q185 659 249.5 685.5Q314 712 389 712Z" glyph-name="Obreve" horiz-adv-x="762" unicode="&#334;" /><glyph d="M393 60Q431 60 458.5 81.5Q486 103 503.5 140.5Q521 178 529 229Q537 280 537 338Q537 404 527 459.5Q517 515 496.5 555.5Q476 596 444 619Q412 642 369 642Q331 642 303.5 620.5Q276 599 258.5 561.5Q241 524 233 473Q225 422 225 364Q225 298 235 242Q245 186 265.5 145.5Q286 105 317.5 82.5Q349 60 393 60ZM389 712Q470 712 533 684Q596 656 639 608.5Q682 561 704.5 498Q727 435 727 365Q727 279 700 209.5Q673 140 625.5 91Q578 42 513 16Q448 -10 373 -10Q292 -10 229 18Q166 46 123 93.5Q80 141 58 204Q36 267 36 337Q36 423 63 492.5Q90 562 137.5 610.5Q185 659 249.5 685.5Q314 712 389 712ZM590 751H504L388 833L272 751H186L327 918H449Z" glyph-name="Ocircumflex" horiz-adv-x="762" unicode="&#212;" /><glyph d="M196 831Q196 865 220 889.5Q244 914 279 914Q314 914 338.5 889.5Q363 865 363 831Q363 797 338.5 772.5Q314 748 279 748Q244 748 220 772.5Q196 797 196 831ZM412 831Q412 848 418.5 863Q425 878 436.5 889.5Q448 901 462.5 907.5Q477 914 494 914Q530 914 554.5 889.5Q579 865 579 831Q579 797 554.5 772.5Q530 748 494 748Q477 748 462.5 754.5Q448 761 436.5 772.5Q425 784 418.5 799Q412 814 412 831ZM393 60Q431 60 458.5 81.5Q486 103 503.5 140.5Q521 178 529 229Q537 280 537 338Q537 404 527 459.5Q517 515 496.5 555.5Q476 596 444 619Q412 642 369 642Q331 642 303.5 620.5Q276 599 258.5 561.5Q241 524 233 473Q225 422 225 364Q225 298 235 242Q245 186 265.5 145.5Q286 105 317.5 82.5Q349 60 393 60ZM389 712Q470 712 533 684Q596 656 639 608.5Q682 561 704.5 498Q727 435 727 365Q727 279 700 209.5Q673 140 625.5 91Q578 42 513 16Q448 -10 373 -10Q292 -10 229 18Q166 46 123 93.5Q80 141 58 204Q36 267 36 337Q36 423 63 492.5Q90 562 137.5 610.5Q185 659 249.5 685.5Q314 712 389 712Z" glyph-name="Odieresis" horiz-adv-x="762" unicode="&#214;" /><glyph d="M373 909 446 753H357L201 909ZM393 60Q431 60 458.5 81.5Q486 103 503.5 140.5Q521 178 529 229Q537 280 537 338Q537 404 527 459.5Q517 515 496.5 555.5Q476 596 444 619Q412 642 369 642Q331 642 303.5 620.5Q276 599 258.5 561.5Q241 524 233 473Q225 422 225 364Q225 298 235 242Q245 186 265.5 145.5Q286 105 317.5 82.5Q349 60 393 60ZM389 712Q470 712 533 684Q596 656 639 608.5Q682 561 704.5 498Q727 435 727 365Q727 279 700 209.5Q673 140 625.5 91Q578 42 513 16Q448 -10 373 -10Q292 -10 229 18Q166 46 123 93.5Q80 141 58 204Q36 267 36 337Q36 423 63 492.5Q90 562 137.5 610.5Q185 659 249.5 685.5Q314 712 389 712Z" glyph-name="Ograve" horiz-adv-x="762" unicode="&#210;" /><glyph d="M393 60Q431 60 458.5 81.5Q486 103 503.5 140.5Q521 178 529 229Q537 280 537 338Q537 404 527 459.5Q517 515 496.5 555.5Q476 596 444 619Q412 642 369 642Q331 642 303.5 620.5Q276 599 258.5 561.5Q241 524 233 473Q225 422 225 364Q225 298 235 242Q245 186 265.5 145.5Q286 105 317.5 82.5Q349 60 393 60ZM389 712Q470 712 533 684Q596 656 639 608.5Q682 561 704.5 498Q727 435 727 365Q727 279 700 209.5Q673 140 625.5 91Q578 42 513 16Q448 -10 373 -10Q292 -10 229 18Q166 46 123 93.5Q80 141 58 204Q36 267 36 337Q36 423 63 492.5Q90 562 137.5 610.5Q185 659 249.5 685.5Q314 712 389 712ZM465 909 329 753H251L318 909ZM651 909 515 753H437L504 909Z" glyph-name="Ohungarumlaut" horiz-adv-x="762" unicode="&#336;" /><glyph d="M233 860H543V763H233ZM393 60Q431 60 458.5 81.5Q486 103 503.5 140.5Q521 178 529 229Q537 280 537 338Q537 404 527 459.5Q517 515 496.5 555.5Q476 596 444 619Q412 642 369 642Q331 642 303.5 620.5Q276 599 258.5 561.5Q241 524 233 473Q225 422 225 364Q225 298 235 242Q245 186 265.5 145.5Q286 105 317.5 82.5Q349 60 393 60ZM389 712Q470 712 533 684Q596 656 639 608.5Q682 561 704.5 498Q727 435 727 365Q727 279 700 209.5Q673 140 625.5 91Q578 42 513 16Q448 -10 373 -10Q292 -10 229 18Q166 46 123 93.5Q80 141 58 204Q36 267 36 337Q36 423 63 492.5Q90 562 137.5 610.5Q185 659 249.5 685.5Q314 712 389 712Z" glyph-name="Omacron" horiz-adv-x="762" unicode="&#332;" /><glyph d="M598 648Q662 600 695.5 525.5Q729 451 729 365Q729 279 702 209.5Q675 140 627.5 91Q580 42 515.5 16Q451 -10 376 -10Q293 -10 229 19L179 -66L122 -36L173 51Q107 99 72.5 174Q38 249 38 337Q38 423 65 492.5Q92 562 139.5 610.5Q187 659 251.5 685.5Q316 712 391 712Q475 712 543 681L588 758L645 728ZM224 364Q224 251 249 180L486 585Q444 642 372 642Q334 642 306 620.5Q278 599 260 561.5Q242 524 233 473Q224 422 224 364ZM395 60Q433 60 461 81.5Q489 103 507 140.5Q525 178 534 229Q543 280 543 338Q543 443 520 515L284 113Q325 60 395 60Z" glyph-name="Oslash" horiz-adv-x="767" unicode="&#216;" /><glyph d="M598 648Q662 600 695.5 525.5Q729 451 729 365Q729 279 702 209.5Q675 140 627.5 91Q580 42 515.5 16Q451 -10 376 -10Q293 -10 229 19L179 -66L122 -36L173 51Q107 99 72.5 174Q38 249 38 337Q38 423 65 492.5Q92 562 139.5 610.5Q187 659 251.5 685.5Q316 712 391 712Q475 712 543 681L588 758L645 728ZM224 364Q224 251 249 180L486 585Q444 642 372 642Q334 642 306 620.5Q278 599 260 561.5Q242 524 233 473Q224 422 224 364ZM395 60Q433 60 461 81.5Q489 103 507 140.5Q525 178 534 229Q543 280 543 338Q543 443 520 515L284 113Q325 60 395 60ZM577 909 421 753H332L405 909Z" glyph-name="Oslashacute" horiz-adv-x="767" unicode="&#510;" /><glyph d="M585 887Q565 842 549.5 814Q534 786 518.5 770.5Q503 755 486.5 749.5Q470 744 449 744Q428 744 409 753.5Q390 763 373 775Q356 787 340.5 796.5Q325 806 311 806Q288 806 274 790Q260 774 246 750L190 762Q210 807 226 835Q242 863 257 878.5Q272 894 289 899.5Q306 905 327 905Q351 905 370 895Q389 885 405.5 873.5Q422 862 436 852Q450 842 465 842Q487 842 501 858Q515 874 530 899ZM393 60Q431 60 458.5 81.5Q486 103 503.5 140.5Q521 178 529 229Q537 280 537 338Q537 404 527 459.5Q517 515 496.5 555.5Q476 596 444 619Q412 642 369 642Q331 642 303.5 620.5Q276 599 258.5 561.5Q241 524 233 473Q225 422 225 364Q225 298 235 242Q245 186 265.5 145.5Q286 105 317.5 82.5Q349 60 393 60ZM389 712Q470 712 533 684Q596 656 639 608.5Q682 561 704.5 498Q727 435 727 365Q727 279 700 209.5Q673 140 625.5 91Q578 42 513 16Q448 -10 373 -10Q292 -10 229 18Q166 46 123 93.5Q80 141 58 204Q36 267 36 337Q36 423 63 492.5Q90 562 137.5 610.5Q185 659 249.5 685.5Q314 712 389 712Z" glyph-name="Otilde" horiz-adv-x="762" unicode="&#213;" /><glyph d="M295 272V132Q295 91 322 78.5Q349 66 411 63V0H32V63Q57 64 73 67Q89 70 98.5 77.5Q108 85 111.5 98Q115 111 115 132V570Q115 591 111.5 603.5Q108 616 98.5 623.5Q89 631 73 634.5Q57 638 32 639V702H376Q449 702 501 685Q553 668 587 639Q621 610 637 571Q653 532 653 488Q653 387 587 329.5Q521 272 379 272ZM295 334H333Q402 334 438.5 372.5Q475 411 475 487Q475 556 436 595.5Q397 635 327 635H295Z" glyph-name="P" horiz-adv-x="672" unicode="P" /><glyph d="M389 712Q470 712 533 684Q596 656 639 608.5Q682 561 704.5 498Q727 435 727 365Q727 293 708 233Q689 173 655 126.5Q621 80 574 48.5Q527 17 471 2L528 -44Q548 -61 565 -74.5Q582 -88 598.5 -97.5Q615 -107 632.5 -112Q650 -117 670 -118V-150Q632 -179 563 -179Q508 -179 460.5 -156Q413 -133 368 -74L318 -6Q250 3 197.5 34Q145 65 109 111Q73 157 54.5 215Q36 273 36 337Q36 423 63 492.5Q90 562 137.5 610.5Q185 659 249.5 685.5Q314 712 389 712ZM393 60Q431 60 458.5 81.5Q486 103 503.5 140.5Q521 178 529 229Q537 280 537 338Q537 404 527 459.5Q517 515 496.5 555.5Q476 596 444 619Q412 642 369 642Q331 642 303.5 620.5Q276 599 258.5 561.5Q241 524 233 473Q225 422 225 364Q225 298 235 242Q245 186 265.5 145.5Q286 105 317.5 82.5Q349 60 393 60Z" glyph-name="Q" horiz-adv-x="762" unicode="Q" /><glyph d="M292 635V356H322Q404 356 442 391Q480 426 480 499Q480 565 439.5 600Q399 635 323 635ZM386 702Q525 702 591.5 647Q658 592 658 499Q658 464 646 435Q634 406 613.5 383.5Q593 361 566 345Q539 329 508 322L633 135Q646 114 658 100.5Q670 87 682.5 78.5Q695 70 710 66.5Q725 63 744 63V0H532Q509 19 489.5 43.5Q470 68 448 106L336 292H292V132Q292 111 295.5 98Q299 85 308 77.5Q317 70 332.5 67Q348 64 373 63V0H32V63Q57 64 73 67Q89 70 98.5 77.5Q108 85 111.5 98Q115 111 115 132V570Q115 591 111.5 603.5Q108 616 98.5 623.5Q89 631 73 634Q57 637 32 637V702Z" glyph-name="R" horiz-adv-x="750" unicode="R" /><glyph d="M292 635V356H322Q404 356 442 391Q480 426 480 499Q480 565 439.5 600Q399 635 323 635ZM386 702Q525 702 591.5 647Q658 592 658 499Q658 464 646 435Q634 406 613.5 383.5Q593 361 566 345Q539 329 508 322L633 135Q646 114 658 100.5Q670 87 682.5 78.5Q695 70 710 66.5Q725 63 744 63V0H532Q509 19 489.5 43.5Q470 68 448 106L336 292H292V132Q292 111 295.5 98Q299 85 308 77.5Q317 70 332.5 67Q348 64 373 63V0H32V63Q57 64 73 67Q89 70 98.5 77.5Q108 85 111.5 98Q115 111 115 132V570Q115 591 111.5 603.5Q108 616 98.5 623.5Q89 631 73 634Q57 637 32 637V702ZM558 909 402 753H313L386 909Z" glyph-name="Racute" horiz-adv-x="750" unicode="&#340;" /><glyph d="M426 754H304L163 921H249L365 839L481 921H567ZM292 635V356H322Q404 356 442 391Q480 426 480 499Q480 565 439.5 600Q399 635 323 635ZM386 702Q525 702 591.5 647Q658 592 658 499Q658 464 646 435Q634 406 613.5 383.5Q593 361 566 345Q539 329 508 322L633 135Q646 114 658 100.5Q670 87 682.5 78.5Q695 70 710 66.5Q725 63 744 63V0H532Q509 19 489.5 43.5Q470 68 448 106L336 292H292V132Q292 111 295.5 98Q299 85 308 77.5Q317 70 332.5 67Q348 64 373 63V0H32V63Q57 64 73 67Q89 70 98.5 77.5Q108 85 111.5 98Q115 111 115 132V570Q115 591 111.5 603.5Q108 616 98.5 623.5Q89 631 73 634Q57 637 32 637V702Z" glyph-name="Rcaron" horiz-adv-x="750" unicode="&#344;" /><glyph d="M345 -157Q322 -151 309.5 -137Q297 -123 297 -98Q297 -72 318 -54Q339 -36 377 -36Q422 -36 446.5 -62Q471 -88 471 -130Q471 -154 462 -175.5Q453 -197 433 -212.5Q413 -228 381.5 -237Q350 -246 304 -246V-203Q352 -203 376 -190Q400 -177 402 -157ZM292 635V356H322Q404 356 442 391Q480 426 480 499Q480 565 439.5 600Q399 635 323 635ZM386 702Q525 702 591.5 647Q658 592 658 499Q658 464 646 435Q634 406 613.5 383.5Q593 361 566 345Q539 329 508 322L633 135Q646 114 658 100.5Q670 87 682.5 78.5Q695 70 710 66.5Q725 63 744 63V0H532Q509 19 489.5 43.5Q470 68 448 106L336 292H292V132Q292 111 295.5 98Q299 85 308 77.5Q317 70 332.5 67Q348 64 373 63V0H32V63Q57 64 73 67Q89 70 98.5 77.5Q108 85 111.5 98Q115 111 115 132V570Q115 591 111.5 603.5Q108 616 98.5 623.5Q89 631 73 634Q57 637 32 637V702Z" glyph-name="Rcommaaccent" horiz-adv-x="750" unicode="&#342;" /><glyph d="M289 -10Q214 -10 151.5 9.5Q89 29 52 57L42 224H129Q151 139 191 97Q231 55 302 55Q353 55 385 79Q417 103 417 151Q417 171 410 186.5Q403 202 386.5 215Q370 228 342 239.5Q314 251 272 263Q215 279 173 299Q131 319 103.5 345.5Q76 372 62.5 407.5Q49 443 49 490Q49 542 67.5 583Q86 624 119 652.5Q152 681 198 696.5Q244 712 300 712Q371 712 427 695Q483 678 521 651V498H446Q436 530 423 557.5Q410 585 392 605Q374 625 348.5 636.5Q323 648 288 648Q237 648 211 622Q185 596 185 560Q185 537 192.5 520Q200 503 216.5 490.5Q233 478 260.5 467Q288 456 329 445Q385 430 428 410.5Q471 391 500.5 363.5Q530 336 545 299Q560 262 560 211Q560 154 538.5 112.5Q517 71 480.5 44Q444 17 394.5 3.5Q345 -10 289 -10Z" glyph-name="S" horiz-adv-x="602" unicode="S" /><glyph d="M289 -10Q214 -10 151.5 9.5Q89 29 52 57L42 224H129Q151 139 191 97Q231 55 302 55Q353 55 385 79Q417 103 417 151Q417 171 410 186.5Q403 202 386.5 215Q370 228 342 239.5Q314 251 272 263Q215 279 173 299Q131 319 103.5 345.5Q76 372 62.5 407.5Q49 443 49 490Q49 542 67.5 583Q86 624 119 652.5Q152 681 198 696.5Q244 712 300 712Q371 712 427 695Q483 678 521 651V498H446Q436 530 423 557.5Q410 585 392 605Q374 625 348.5 636.5Q323 648 288 648Q237 648 211 622Q185 596 185 560Q185 537 192.5 520Q200 503 216.5 490.5Q233 478 260.5 467Q288 456 329 445Q385 430 428 410.5Q471 391 500.5 363.5Q530 336 545 299Q560 262 560 211Q560 154 538.5 112.5Q517 71 480.5 44Q444 17 394.5 3.5Q345 -10 289 -10ZM500 909 344 753H255L328 909Z" glyph-name="Sacute" horiz-adv-x="602" unicode="&#346;" /><glyph d="M289 -10Q214 -10 151.5 9.5Q89 29 52 57L42 224H129Q151 139 191 97Q231 55 302 55Q353 55 385 79Q417 103 417 151Q417 171 410 186.5Q403 202 386.5 215Q370 228 342 239.5Q314 251 272 263Q215 279 173 299Q131 319 103.5 345.5Q76 372 62.5 407.5Q49 443 49 490Q49 542 67.5 583Q86 624 119 652.5Q152 681 198 696.5Q244 712 300 712Q371 712 427 695Q483 678 521 651V498H446Q436 530 423 557.5Q410 585 392 605Q374 625 348.5 636.5Q323 648 288 648Q237 648 211 622Q185 596 185 560Q185 537 192.5 520Q200 503 216.5 490.5Q233 478 260.5 467Q288 456 329 445Q385 430 428 410.5Q471 391 500.5 363.5Q530 336 545 299Q560 262 560 211Q560 154 538.5 112.5Q517 71 480.5 44Q444 17 394.5 3.5Q345 -10 289 -10ZM362 754H240L99 921H185L301 839L417 921H503Z" glyph-name="Scaron" horiz-adv-x="602" unicode="&#352;" /><glyph d="M188 -185Q242 -185 272.5 -175Q303 -165 303 -144Q303 -124 278.5 -116.5Q254 -109 217 -107L257 -9Q191 -4 137.5 14Q84 32 52 57L42 224H129Q151 139 191 97Q231 55 302 55Q353 55 385 79Q417 103 417 151Q417 171 410 186.5Q403 202 386.5 215Q370 228 342 239.5Q314 251 272 263Q215 279 173 299Q131 319 103.5 345.5Q76 372 62.5 407.5Q49 443 49 490Q49 542 67.5 583Q86 624 119 652.5Q152 681 198 696.5Q244 712 300 712Q371 712 427 695Q483 678 521 651V498H446Q436 530 423 557.5Q410 585 392 605Q374 625 348.5 636.5Q323 648 288 648Q237 648 211 622Q185 596 185 560Q185 537 192.5 520Q200 503 216.5 490.5Q233 478 260.5 467Q288 456 329 445Q385 430 428 410.5Q471 391 500.5 363.5Q530 336 545 299Q560 262 560 211Q560 156 540 115.5Q520 75 485 47.5Q450 20 403.5 6Q357 -8 303 -10L291 -45Q336 -49 363 -66.5Q390 -84 390 -122Q390 -149 374 -169.5Q358 -190 331.5 -203.5Q305 -217 270 -224Q235 -231 198 -231Z" glyph-name="Scedilla" horiz-adv-x="602" unicode="&#350;" /><glyph d="M289 -10Q214 -10 151.5 9.5Q89 29 52 57L42 224H129Q151 139 191 97Q231 55 302 55Q353 55 385 79Q417 103 417 151Q417 171 410 186.5Q403 202 386.5 215Q370 228 342 239.5Q314 251 272 263Q215 279 173 299Q131 319 103.5 345.5Q76 372 62.5 407.5Q49 443 49 490Q49 542 67.5 583Q86 624 119 652.5Q152 681 198 696.5Q244 712 300 712Q371 712 427 695Q483 678 521 651V498H446Q436 530 423 557.5Q410 585 392 605Q374 625 348.5 636.5Q323 648 288 648Q237 648 211 622Q185 596 185 560Q185 537 192.5 520Q200 503 216.5 490.5Q233 478 260.5 467Q288 456 329 445Q385 430 428 410.5Q471 391 500.5 363.5Q530 336 545 299Q560 262 560 211Q560 154 538.5 112.5Q517 71 480.5 44Q444 17 394.5 3.5Q345 -10 289 -10ZM508 751H422L306 833L190 751H104L245 918H367Z" glyph-name="Scircumflex" horiz-adv-x="602" unicode="&#348;" /><glyph d="M269 -157Q246 -151 233.5 -137Q221 -123 221 -98Q221 -72 242 -54Q263 -36 301 -36Q346 -36 370.5 -62Q395 -88 395 -130Q395 -154 386 -175.5Q377 -197 357 -212.5Q337 -228 305.5 -237Q274 -246 228 -246V-203Q276 -203 300 -190Q324 -177 326 -157ZM289 -10Q214 -10 151.5 9.5Q89 29 52 57L42 224H129Q151 139 191 97Q231 55 302 55Q353 55 385 79Q417 103 417 151Q417 171 410 186.5Q403 202 386.5 215Q370 228 342 239.5Q314 251 272 263Q215 279 173 299Q131 319 103.5 345.5Q76 372 62.5 407.5Q49 443 49 490Q49 542 67.5 583Q86 624 119 652.5Q152 681 198 696.5Q244 712 300 712Q371 712 427 695Q483 678 521 651V498H446Q436 530 423 557.5Q410 585 392 605Q374 625 348.5 636.5Q323 648 288 648Q237 648 211 622Q185 596 185 560Q185 537 192.5 520Q200 503 216.5 490.5Q233 478 260.5 467Q288 456 329 445Q385 430 428 410.5Q471 391 500.5 363.5Q530 336 545 299Q560 262 560 211Q560 154 538.5 112.5Q517 71 480.5 44Q444 17 394.5 3.5Q345 -10 289 -10Z" glyph-name="Scommaaccent" horiz-adv-x="602" unicode="&#536;" /><glyph d="M674 702 689 471H619Q601 515 587 546.5Q573 578 557.5 598.5Q542 619 521.5 629Q501 639 471 639H440V132Q440 111 444.5 98Q449 85 459.5 77.5Q470 70 486.5 67Q503 64 528 63V0H174V63Q224 65 244 78Q264 91 264 132V639H232Q202 639 181.5 629Q161 619 145.5 598.5Q130 578 116 546.5Q102 515 84 471H15L30 702Z" glyph-name="T" horiz-adv-x="704" unicode="T" /><glyph d="M674 702 689 471H619Q601 515 587 546.5Q573 578 557.5 598.5Q542 619 521.5 629Q501 639 471 639H440V399H545V334H440V132Q440 111 444.5 98Q449 85 459.5 77.5Q470 70 486.5 67Q503 64 528 63V0H174V63Q224 65 244 78Q264 91 264 132V334H158V399H264V639H232Q202 639 181.5 629Q161 619 145.5 598.5Q130 578 116 546.5Q102 515 84 471H15L30 702Z" glyph-name="Tbar" horiz-adv-x="704" unicode="&#358;" /><glyph d="M413 754H291L150 921H236L352 839L468 921H554ZM674 702 689 471H619Q601 515 587 546.5Q573 578 557.5 598.5Q542 619 521.5 629Q501 639 471 639H440V132Q440 111 444.5 98Q449 85 459.5 77.5Q470 70 486.5 67Q503 64 528 63V0H174V63Q224 65 244 78Q264 91 264 132V639H232Q202 639 181.5 629Q161 619 145.5 598.5Q130 578 116 546.5Q102 515 84 471H15L30 702Z" glyph-name="Tcaron" horiz-adv-x="704" unicode="&#356;" /><glyph d="M314 -157Q291 -151 278.5 -137Q266 -123 266 -98Q266 -72 287 -54Q308 -36 346 -36Q391 -36 415.5 -62Q440 -88 440 -130Q440 -154 431 -175.5Q422 -197 402 -212.5Q382 -228 350.5 -237Q319 -246 273 -246V-203Q321 -203 345 -190Q369 -177 371 -157ZM674 702 689 471H619Q601 515 587 546.5Q573 578 557.5 598.5Q542 619 521.5 629Q501 639 471 639H440V132Q440 111 444.5 98Q449 85 459.5 77.5Q470 70 486.5 67Q503 64 528 63V0H174V63Q224 65 244 78Q264 91 264 132V639H232Q202 639 181.5 629Q161 619 145.5 598.5Q130 578 116 546.5Q102 515 84 471H15L30 702Z" glyph-name="Tcommaaccent" horiz-adv-x="704" unicode="&#354;" /><glyph d="M293 215H324Q394 215 434.5 246.5Q475 278 475 354Q475 423 431.5 455.5Q388 488 319 488H293ZM367 554Q440 554 493.5 539.5Q547 525 582.5 498.5Q618 472 635.5 435.5Q653 399 653 355Q653 153 371 153H293V132Q293 91 321 78.5Q349 66 411 63V0H32V63Q57 64 73 67Q89 70 98.5 77.5Q108 85 111.5 98Q115 111 115 132V570Q115 591 111.5 603.5Q108 616 98.5 623.5Q89 631 73 634.5Q57 638 32 639V702H376V639Q351 638 335 634.5Q319 631 309.5 623.5Q300 616 296.5 603.5Q293 591 293 570V554Z" glyph-name="Thorn" horiz-adv-x="677" unicode="&#222;" /><glyph d="M280 264Q280 182 311.5 134.5Q343 87 421 87Q458 87 488 95.5Q518 104 539.5 125.5Q561 147 573 182.5Q585 218 585 272V570Q585 611 564.5 624Q544 637 495 639V702H756V639Q731 638 715 634.5Q699 631 689.5 623.5Q680 616 676 603.5Q672 591 672 570V245Q672 180 650.5 132Q629 84 591.5 52.5Q554 21 504.5 5.5Q455 -10 398 -10Q257 -10 178.5 53.5Q100 117 100 246V570Q100 591 96.5 603.5Q93 616 84 623.5Q75 631 59 634.5Q43 638 18 639V702H361V639Q337 638 321 634.5Q305 631 296 623.5Q287 616 283.5 603.5Q280 591 280 570Z" glyph-name="U" horiz-adv-x="773" unicode="U" /><glyph d="M612 909 456 753H367L440 909ZM280 264Q280 182 311.5 134.5Q343 87 421 87Q458 87 488 95.5Q518 104 539.5 125.5Q561 147 573 182.5Q585 218 585 272V570Q585 611 564.5 624Q544 637 495 639V702H756V639Q731 638 715 634.5Q699 631 689.5 623.5Q680 616 676 603.5Q672 591 672 570V245Q672 180 650.5 132Q629 84 591.5 52.5Q554 21 504.5 5.5Q455 -10 398 -10Q257 -10 178.5 53.5Q100 117 100 246V570Q100 591 96.5 603.5Q93 616 84 623.5Q75 631 59 634.5Q43 638 18 639V702H361V639Q337 638 321 634.5Q305 631 296 623.5Q287 616 283.5 603.5Q280 591 280 570Z" glyph-name="Uacute" horiz-adv-x="773" unicode="&#218;" /><glyph d="M419 748Q344 748 302.5 792.5Q261 837 261 916H325Q328 892 337.5 876.5Q347 861 360 852Q373 843 388.5 839Q404 835 419 835Q434 835 449.5 839Q465 843 478 852Q491 861 500.5 876.5Q510 892 513 916H577Q577 837 535.5 792.5Q494 748 419 748ZM280 264Q280 182 311.5 134.5Q343 87 421 87Q458 87 488 95.5Q518 104 539.5 125.5Q561 147 573 182.5Q585 218 585 272V570Q585 611 564.5 624Q544 637 495 639V702H756V639Q731 638 715 634.5Q699 631 689.5 623.5Q680 616 676 603.5Q672 591 672 570V245Q672 180 650.5 132Q629 84 591.5 52.5Q554 21 504.5 5.5Q455 -10 398 -10Q257 -10 178.5 53.5Q100 117 100 246V570Q100 591 96.5 603.5Q93 616 84 623.5Q75 631 59 634.5Q43 638 18 639V702H361V639Q337 638 321 634.5Q305 631 296 623.5Q287 616 283.5 603.5Q280 591 280 570Z" glyph-name="Ubreve" horiz-adv-x="773" unicode="&#364;" /><glyph d="M280 264Q280 182 311.5 134.5Q343 87 421 87Q458 87 488 95.5Q518 104 539.5 125.5Q561 147 573 182.5Q585 218 585 272V570Q585 611 564.5 624Q544 637 495 639V702H756V639Q731 638 715 634.5Q699 631 689.5 623.5Q680 616 676 603.5Q672 591 672 570V245Q672 180 650.5 132Q629 84 591.5 52.5Q554 21 504.5 5.5Q455 -10 398 -10Q257 -10 178.5 53.5Q100 117 100 246V570Q100 591 96.5 603.5Q93 616 84 623.5Q75 631 59 634.5Q43 638 18 639V702H361V639Q337 638 321 634.5Q305 631 296 623.5Q287 616 283.5 603.5Q280 591 280 570ZM621 751H535L419 833L303 751H217L358 918H480Z" glyph-name="Ucircumflex" horiz-adv-x="773" unicode="&#219;" /><glyph d="M228 831Q228 865 252 889.5Q276 914 311 914Q346 914 370.5 889.5Q395 865 395 831Q395 797 370.5 772.5Q346 748 311 748Q276 748 252 772.5Q228 797 228 831ZM444 831Q444 848 450.5 863Q457 878 468.5 889.5Q480 901 494.5 907.5Q509 914 526 914Q562 914 586.5 889.5Q611 865 611 831Q611 797 586.5 772.5Q562 748 526 748Q509 748 494.5 754.5Q480 761 468.5 772.5Q457 784 450.5 799Q444 814 444 831ZM280 264Q280 182 311.5 134.5Q343 87 421 87Q458 87 488 95.5Q518 104 539.5 125.5Q561 147 573 182.5Q585 218 585 272V570Q585 611 564.5 624Q544 637 495 639V702H756V639Q731 638 715 634.5Q699 631 689.5 623.5Q680 616 676 603.5Q672 591 672 570V245Q672 180 650.5 132Q629 84 591.5 52.5Q554 21 504.5 5.5Q455 -10 398 -10Q257 -10 178.5 53.5Q100 117 100 246V570Q100 591 96.5 603.5Q93 616 84 623.5Q75 631 59 634.5Q43 638 18 639V702H361V639Q337 638 321 634.5Q305 631 296 623.5Q287 616 283.5 603.5Q280 591 280 570Z" glyph-name="Udieresis" horiz-adv-x="773" unicode="&#220;" /><glyph d="M404 909 477 753H388L232 909ZM280 264Q280 182 311.5 134.5Q343 87 421 87Q458 87 488 95.5Q518 104 539.5 125.5Q561 147 573 182.5Q585 218 585 272V570Q585 611 564.5 624Q544 637 495 639V702H756V639Q731 638 715 634.5Q699 631 689.5 623.5Q680 616 676 603.5Q672 591 672 570V245Q672 180 650.5 132Q629 84 591.5 52.5Q554 21 504.5 5.5Q455 -10 398 -10Q257 -10 178.5 53.5Q100 117 100 246V570Q100 591 96.5 603.5Q93 616 84 623.5Q75 631 59 634.5Q43 638 18 639V702H361V639Q337 638 321 634.5Q305 631 296 623.5Q287 616 283.5 603.5Q280 591 280 570Z" glyph-name="Ugrave" horiz-adv-x="773" unicode="&#217;" /><glyph d="M280 264Q280 182 311.5 134.5Q343 87 421 87Q458 87 488 95.5Q518 104 539.5 125.5Q561 147 573 182.5Q585 218 585 272V570Q585 611 564.5 624Q544 637 495 639V702H756V639Q731 638 715 634.5Q699 631 689.5 623.5Q680 616 676 603.5Q672 591 672 570V245Q672 180 650.5 132Q629 84 591.5 52.5Q554 21 504.5 5.5Q455 -10 398 -10Q257 -10 178.5 53.5Q100 117 100 246V570Q100 591 96.5 603.5Q93 616 84 623.5Q75 631 59 634.5Q43 638 18 639V702H361V639Q337 638 321 634.5Q305 631 296 623.5Q287 616 283.5 603.5Q280 591 280 570ZM497 909 361 753H283L350 909ZM683 909 547 753H469L536 909Z" glyph-name="Uhungarumlaut" horiz-adv-x="773" unicode="&#368;" /><glyph d="M264 860H574V763H264ZM280 264Q280 182 311.5 134.5Q343 87 421 87Q458 87 488 95.5Q518 104 539.5 125.5Q561 147 573 182.5Q585 218 585 272V570Q585 611 564.5 624Q544 637 495 639V702H756V639Q731 638 715 634.5Q699 631 689.5 623.5Q680 616 676 603.5Q672 591 672 570V245Q672 180 650.5 132Q629 84 591.5 52.5Q554 21 504.5 5.5Q455 -10 398 -10Q257 -10 178.5 53.5Q100 117 100 246V570Q100 591 96.5 603.5Q93 616 84 623.5Q75 631 59 634.5Q43 638 18 639V702H361V639Q337 638 321 634.5Q305 631 296 623.5Q287 616 283.5 603.5Q280 591 280 570Z" glyph-name="Umacron" horiz-adv-x="773" unicode="&#362;" /><glyph d="M280 264Q280 182 311.5 134.5Q343 87 421 87Q458 87 488 95.5Q518 104 539.5 125.5Q561 147 573 182.5Q585 218 585 272V570Q585 611 564.5 624Q544 637 495 639V702H756V639Q731 638 715 634.5Q699 631 689.5 623.5Q680 616 676 603.5Q672 591 672 570V245Q672 151 629.5 93Q587 35 518 10Q476 -12 453 -39Q430 -66 430 -95Q430 -112 440.5 -124Q451 -136 475 -136Q492 -136 509 -131.5Q526 -127 549 -113L567 -139Q535 -174 501 -194Q467 -214 425 -214Q386 -214 358 -192Q330 -170 330 -130Q330 -91 353 -62Q376 -33 411 -10H398Q257 -10 178.5 53.5Q100 117 100 246V570Q100 591 96.5 603.5Q93 616 84 623.5Q75 631 59 634.5Q43 638 18 639V702H361V639Q337 638 321 634.5Q305 631 296 623.5Q287 616 283.5 603.5Q280 591 280 570Z" glyph-name="Uogonek" horiz-adv-x="773" unicode="&#370;" /><glyph d="M280 264Q280 182 311.5 134.5Q343 87 421 87Q458 87 488 95.5Q518 104 539.5 125.5Q561 147 573 182.5Q585 218 585 272V570Q585 611 564.5 624Q544 637 495 639V702H756V639Q731 638 715 634.5Q699 631 689.5 623.5Q680 616 676 603.5Q672 591 672 570V245Q672 180 650.5 132Q629 84 591.5 52.5Q554 21 504.5 5.5Q455 -10 398 -10Q257 -10 178.5 53.5Q100 117 100 246V570Q100 591 96.5 603.5Q93 616 84 623.5Q75 631 59 634.5Q43 638 18 639V702H361V639Q337 638 321 634.5Q305 631 296 623.5Q287 616 283.5 603.5Q280 591 280 570ZM310 839Q310 881 340.5 909.5Q371 938 419 938Q467 938 497.5 909.5Q528 881 528 839Q528 797 497.5 768.5Q467 740 419 740Q371 740 340.5 768.5Q310 797 310 839ZM466 839Q466 859 454 872Q442 885 419 885Q396 885 384 872Q372 859 372 839Q372 819 384 806Q396 793 419 793Q442 793 454 806Q466 819 466 839Z" glyph-name="Uring" horiz-adv-x="773" unicode="&#366;" /><glyph d="M616 887Q596 842 580.5 814Q565 786 549.5 770.5Q534 755 517.5 749.5Q501 744 480 744Q459 744 440 753.5Q421 763 404 775Q387 787 371.5 796.5Q356 806 342 806Q319 806 305 790Q291 774 277 750L221 762Q241 807 257 835Q273 863 288 878.5Q303 894 320 899.5Q337 905 358 905Q382 905 401 895Q420 885 436.5 873.5Q453 862 467 852Q481 842 496 842Q518 842 532 858Q546 874 561 899ZM280 264Q280 182 311.5 134.5Q343 87 421 87Q458 87 488 95.5Q518 104 539.5 125.5Q561 147 573 182.5Q585 218 585 272V570Q585 611 564.5 624Q544 637 495 639V702H756V639Q731 638 715 634.5Q699 631 689.5 623.5Q680 616 676 603.5Q672 591 672 570V245Q672 180 650.5 132Q629 84 591.5 52.5Q554 21 504.5 5.5Q455 -10 398 -10Q257 -10 178.5 53.5Q100 117 100 246V570Q100 591 96.5 603.5Q93 616 84 623.5Q75 631 59 634.5Q43 638 18 639V702H361V639Q337 638 321 634.5Q305 631 296 623.5Q287 616 283.5 603.5Q280 591 280 570Z" glyph-name="Utilde" horiz-adv-x="773" unicode="&#360;" /><glyph d="M556 555Q566 580 566 595Q566 617 552 627Q538 637 492 639V702H724V639Q703 635 689 628.5Q675 622 666 602L408 -5H355L64 602Q55 622 41.5 628.5Q28 635 7 639V702H346V639Q300 637 285 627.5Q270 618 270 595Q270 580 280 555L428 234Z" glyph-name="V" horiz-adv-x="731" unicode="V" /><glyph d="M843 541Q850 561 854 574Q858 587 858 595Q858 617 844 627Q830 637 784 639V702H1010V639Q990 635 974.5 629Q959 623 951 602L725 -5H659L518 389L372 -5H308L64 602Q56 621 41.5 628Q27 635 7 639V702H330V639Q294 636 279 626.5Q264 617 264 595Q264 587 267.5 575.5Q271 564 277 547L391 246L481 492L444 602Q437 620 424.5 627.5Q412 635 392 639V702H706V639Q683 638 668.5 635Q654 632 646 627Q638 622 635 614Q632 606 632 595Q632 587 634.5 574Q637 561 645 538L739 252Z" glyph-name="W" horiz-adv-x="1017" unicode="W" /><glyph d="M735 909 579 753H490L563 909ZM843 541Q850 561 854 574Q858 587 858 595Q858 617 844 627Q830 637 784 639V702H1010V639Q990 635 974.5 629Q959 623 951 602L725 -5H659L518 389L372 -5H308L64 602Q56 621 41.5 628Q27 635 7 639V702H330V639Q294 636 279 626.5Q264 617 264 595Q264 587 267.5 575.5Q271 564 277 547L391 246L481 492L444 602Q437 620 424.5 627.5Q412 635 392 639V702H706V639Q683 638 668.5 635Q654 632 646 627Q638 622 635 614Q632 606 632 595Q632 587 634.5 574Q637 561 645 538L739 252Z" glyph-name="Wacute" horiz-adv-x="1017" unicode="&#7810;" /><glyph d="M843 541Q850 561 854 574Q858 587 858 595Q858 617 844 627Q830 637 784 639V702H1010V639Q990 635 974.5 629Q959 623 951 602L725 -5H659L518 389L372 -5H308L64 602Q56 621 41.5 628Q27 635 7 639V702H330V639Q294 636 279 626.5Q264 617 264 595Q264 587 267.5 575.5Q271 564 277 547L391 246L481 492L444 602Q437 620 424.5 627.5Q412 635 392 639V702H706V639Q683 638 668.5 635Q654 632 646 627Q638 622 635 614Q632 606 632 595Q632 587 634.5 574Q637 561 645 538L739 252ZM744 751H658L542 833L426 751H340L481 918H603Z" glyph-name="Wcircumflex" horiz-adv-x="1017" unicode="&#372;" /><glyph d="M350 831Q350 865 374 889.5Q398 914 433 914Q468 914 492.5 889.5Q517 865 517 831Q517 797 492.5 772.5Q468 748 433 748Q398 748 374 772.5Q350 797 350 831ZM566 831Q566 848 572.5 863Q579 878 590.5 889.5Q602 901 616.5 907.5Q631 914 648 914Q684 914 708.5 889.5Q733 865 733 831Q733 797 708.5 772.5Q684 748 648 748Q631 748 616.5 754.5Q602 761 590.5 772.5Q579 784 572.5 799Q566 814 566 831ZM843 541Q850 561 854 574Q858 587 858 595Q858 617 844 627Q830 637 784 639V702H1010V639Q990 635 974.5 629Q959 623 951 602L725 -5H659L518 389L372 -5H308L64 602Q56 621 41.5 628Q27 635 7 639V702H330V639Q294 636 279 626.5Q264 617 264 595Q264 587 267.5 575.5Q271 564 277 547L391 246L481 492L444 602Q437 620 424.5 627.5Q412 635 392 639V702H706V639Q683 638 668.5 635Q654 632 646 627Q638 622 635 614Q632 606 632 595Q632 587 634.5 574Q637 561 645 538L739 252Z" glyph-name="Wdieresis" horiz-adv-x="1017" unicode="&#7812;" /><glyph d="M527 909 600 753H511L355 909ZM843 541Q850 561 854 574Q858 587 858 595Q858 617 844 627Q830 637 784 639V702H1010V639Q990 635 974.5 629Q959 623 951 602L725 -5H659L518 389L372 -5H308L64 602Q56 621 41.5 628Q27 635 7 639V702H330V639Q294 636 279 626.5Q264 617 264 595Q264 587 267.5 575.5Q271 564 277 547L391 246L481 492L444 602Q437 620 424.5 627.5Q412 635 392 639V702H706V639Q683 638 668.5 635Q654 632 646 627Q638 622 635 614Q632 606 632 595Q632 587 634.5 574Q637 561 645 538L739 252Z" glyph-name="Wgrave" horiz-adv-x="1017" unicode="&#7808;" /><glyph d="M457 392 671 100Q682 84 698.5 74.5Q715 65 739 63V0H408V63Q441 63 452 70.5Q463 78 463 96Q463 111 440 140L334 284L217 141Q205 127 200 116Q195 105 195 96Q195 78 207.5 70.5Q220 63 257 63V0H7V63Q37 63 56.5 73.5Q76 84 88 100L286 347L99 602Q88 617 73.5 627Q59 637 36 639V702H373V639Q338 639 324.5 631.5Q311 624 311 607Q311 597 317.5 586.5Q324 576 335 561L413 455L498 561Q521 587 521 607Q521 624 508 631.5Q495 639 461 639V702H709V639Q681 639 663 629Q645 619 631 602Z" glyph-name="X" horiz-adv-x="745" unicode="X" /><glyph d="M515 542Q526 561 532 575Q538 589 538 600Q538 620 521 628.5Q504 637 466 639V702H695V639Q674 635 660.5 628.5Q647 622 636 602L441 261V132Q441 91 460 78Q479 65 529 63V0H177V63Q226 65 245.5 78Q265 91 265 132V262L64 602Q53 622 40.5 628.5Q28 635 7 639V702H336V639Q295 637 280.5 628.5Q266 620 266 600Q266 587 272 574Q278 561 288 542L400 341Z" glyph-name="Y" horiz-adv-x="701" unicode="Y" /><glyph d="M515 542Q526 561 532 575Q538 589 538 600Q538 620 521 628.5Q504 637 466 639V702H695V639Q674 635 660.5 628.5Q647 622 636 602L441 261V132Q441 91 460 78Q479 65 529 63V0H177V63Q226 65 245.5 78Q265 91 265 132V262L64 602Q53 622 40.5 628.5Q28 635 7 639V702H336V639Q295 637 280.5 628.5Q266 620 266 600Q266 587 272 574Q278 561 288 542L400 341ZM572 909 416 753H327L400 909Z" glyph-name="Yacute" horiz-adv-x="701" unicode="&#221;" /><glyph d="M515 542Q526 561 532 575Q538 589 538 600Q538 620 521 628.5Q504 637 466 639V702H695V639Q674 635 660.5 628.5Q647 622 636 602L441 261V132Q441 91 460 78Q479 65 529 63V0H177V63Q226 65 245.5 78Q265 91 265 132V262L64 602Q53 622 40.5 628.5Q28 635 7 639V702H336V639Q295 637 280.5 628.5Q266 620 266 600Q266 587 272 574Q278 561 288 542L400 341ZM581 751H495L379 833L263 751H177L318 918H440Z" glyph-name="Ycircumflex" horiz-adv-x="701" unicode="&#374;" /><glyph d="M515 542Q526 561 532 575Q538 589 538 600Q538 620 521 628.5Q504 637 466 639V702H695V639Q674 635 660.5 628.5Q647 622 636 602L441 261V132Q441 91 460 78Q479 65 529 63V0H177V63Q226 65 245.5 78Q265 91 265 132V262L64 602Q53 622 40.5 628.5Q28 635 7 639V702H336V639Q295 637 280.5 628.5Q266 620 266 600Q266 587 272 574Q278 561 288 542L400 341ZM188 831Q188 865 212 889.5Q236 914 271 914Q306 914 330.5 889.5Q355 865 355 831Q355 797 330.5 772.5Q306 748 271 748Q236 748 212 772.5Q188 797 188 831ZM404 831Q404 848 410.5 863Q417 878 428.5 889.5Q440 901 454.5 907.5Q469 914 486 914Q522 914 546.5 889.5Q571 865 571 831Q571 797 546.5 772.5Q522 748 486 748Q469 748 454.5 754.5Q440 761 428.5 772.5Q417 784 410.5 799Q404 814 404 831Z" glyph-name="Ydieresis" horiz-adv-x="701" unicode="&#376;" /><glyph d="M515 542Q526 561 532 575Q538 589 538 600Q538 620 521 628.5Q504 637 466 639V702H695V639Q674 635 660.5 628.5Q647 622 636 602L441 261V132Q441 91 460 78Q479 65 529 63V0H177V63Q226 65 245.5 78Q265 91 265 132V262L64 602Q53 622 40.5 628.5Q28 635 7 639V702H336V639Q295 637 280.5 628.5Q266 620 266 600Q266 587 272 574Q278 561 288 542L400 341ZM364 909 437 753H348L192 909Z" glyph-name="Ygrave" horiz-adv-x="701" unicode="&#7922;" /><glyph d="M387 67Q415 67 435 73Q455 79 473 96.5Q491 114 510 145Q529 176 556 227H623L589 0H23V43L395 634H254Q224 634 205 625Q186 616 172 599Q158 582 146.5 556Q135 530 119 497H56V702H606V658L237 67Z" glyph-name="Z" horiz-adv-x="643" unicode="Z" /><glyph d="M387 67Q415 67 435 73Q455 79 473 96.5Q491 114 510 145Q529 176 556 227H623L589 0H23V43L395 634H254Q224 634 205 625Q186 616 172 599Q158 582 146.5 556Q135 530 119 497H56V702H606V658L237 67ZM529 909 373 753H284L357 909Z" glyph-name="Zacute" horiz-adv-x="643" unicode="&#377;" /><glyph d="M397 754H275L134 921H220L336 839L452 921H538ZM387 67Q415 67 435 73Q455 79 473 96.5Q491 114 510 145Q529 176 556 227H623L589 0H23V43L395 634H254Q224 634 205 625Q186 616 172 599Q158 582 146.5 556Q135 530 119 497H56V702H606V658L237 67Z" glyph-name="Zcaron" horiz-adv-x="643" unicode="&#381;" /><glyph d="M336 748Q292 748 266.5 774.5Q241 801 241 837Q241 873 266.5 900Q292 927 336 927Q380 927 405.5 900Q431 873 431 837Q431 801 405.5 774.5Q380 748 336 748ZM387 67Q415 67 435 73Q455 79 473 96.5Q491 114 510 145Q529 176 556 227H623L589 0H23V43L395 634H254Q224 634 205 625Q186 616 172 599Q158 582 146.5 556Q135 530 119 497H56V702H606V658L237 67Z" glyph-name="Zdotaccent" horiz-adv-x="643" unicode="&#379;" /><glyph d="M267 94Q286 94 299.5 98.5Q313 103 328 113V281L252 251Q201 231 201 175Q201 137 218 115.5Q235 94 267 94ZM495 348Q495 346 495 330.5Q495 315 495 293Q495 271 494.5 246Q494 221 494 199Q494 177 494 161Q494 145 494 142Q494 118 500.5 102.5Q507 87 527 87Q533 87 546 88.5Q559 90 570 93L578 48Q552 23 516 6.5Q480 -10 441 -10Q398 -10 371 15Q344 40 331 81Q319 65 303.5 49Q288 33 268.5 20.5Q249 8 225 0.5Q201 -7 171 -7Q106 -7 68.5 31Q31 69 31 133Q31 166 42.5 190Q54 214 73 230.5Q92 247 116.5 258.5Q141 270 167 279L328 335V394Q328 450 313.5 474Q299 498 263 498Q234 498 220 480Q206 462 206 433Q206 416 207.5 400.5Q209 385 214 368L103 351Q83 359 74 377Q65 395 65 418Q65 453 81 479Q97 505 125.5 522Q154 539 193.5 547.5Q233 556 280 556Q332 556 372 546Q412 536 439.5 512Q467 488 481 448Q495 408 495 348Z" glyph-name="a" horiz-adv-x="580" unicode="a" /><glyph d="M267 94Q286 94 299.5 98.5Q313 103 328 113V281L252 251Q201 231 201 175Q201 137 218 115.5Q235 94 267 94ZM495 348Q495 346 495 330.5Q495 315 495 293Q495 271 494.5 246Q494 221 494 199Q494 177 494 161Q494 145 494 142Q494 118 500.5 102.5Q507 87 527 87Q533 87 546 88.5Q559 90 570 93L578 48Q552 23 516 6.5Q480 -10 441 -10Q398 -10 371 15Q344 40 331 81Q319 65 303.5 49Q288 33 268.5 20.5Q249 8 225 0.5Q201 -7 171 -7Q106 -7 68.5 31Q31 69 31 133Q31 166 42.5 190Q54 214 73 230.5Q92 247 116.5 258.5Q141 270 167 279L328 335V394Q328 450 313.5 474Q299 498 263 498Q234 498 220 480Q206 462 206 433Q206 416 207.5 400.5Q209 385 214 368L103 351Q83 359 74 377Q65 395 65 418Q65 453 81 479Q97 505 125.5 522Q154 539 193.5 547.5Q233 556 280 556Q332 556 372 546Q412 536 439.5 512Q467 488 481 448Q495 408 495 348ZM468 765 314 603H229L298 765Z" glyph-name="aacute" horiz-adv-x="580" unicode="&#225;" /><glyph d="M267 94Q286 94 299.5 98.5Q313 103 328 113V281L252 251Q201 231 201 175Q201 137 218 115.5Q235 94 267 94ZM495 348Q495 346 495 330.5Q495 315 495 293Q495 271 494.5 246Q494 221 494 199Q494 177 494 161Q494 145 494 142Q494 118 500.5 102.5Q507 87 527 87Q533 87 546 88.5Q559 90 570 93L578 48Q552 23 516 6.5Q480 -10 441 -10Q398 -10 371 15Q344 40 331 81Q319 65 303.5 49Q288 33 268.5 20.5Q249 8 225 0.5Q201 -7 171 -7Q106 -7 68.5 31Q31 69 31 133Q31 166 42.5 190Q54 214 73 230.5Q92 247 116.5 258.5Q141 270 167 279L328 335V394Q328 450 313.5 474Q299 498 263 498Q234 498 220 480Q206 462 206 433Q206 416 207.5 400.5Q209 385 214 368L103 351Q83 359 74 377Q65 395 65 418Q65 453 81 479Q97 505 125.5 522Q154 539 193.5 547.5Q233 556 280 556Q332 556 372 546Q412 536 439.5 512Q467 488 481 448Q495 408 495 348ZM281 601Q207 601 166.5 645.5Q126 690 126 771H190Q193 747 202 731Q211 715 223.5 705.5Q236 696 251 692Q266 688 281 688Q296 688 311.5 692Q327 696 339.5 705.5Q352 715 361 731Q370 747 373 771H437Q437 690 396.5 645.5Q356 601 281 601Z" glyph-name="abreve" horiz-adv-x="580" unicode="&#259;" /><glyph d="M267 94Q286 94 299.5 98.5Q313 103 328 113V281L252 251Q201 231 201 175Q201 137 218 115.5Q235 94 267 94ZM495 348Q495 346 495 330.5Q495 315 495 293Q495 271 494.5 246Q494 221 494 199Q494 177 494 161Q494 145 494 142Q494 118 500.5 102.5Q507 87 527 87Q533 87 546 88.5Q559 90 570 93L578 48Q552 23 516 6.5Q480 -10 441 -10Q398 -10 371 15Q344 40 331 81Q319 65 303.5 49Q288 33 268.5 20.5Q249 8 225 0.5Q201 -7 171 -7Q106 -7 68.5 31Q31 69 31 133Q31 166 42.5 190Q54 214 73 230.5Q92 247 116.5 258.5Q141 270 167 279L328 335V394Q328 450 313.5 474Q299 498 263 498Q234 498 220 480Q206 462 206 433Q206 416 207.5 400.5Q209 385 214 368L103 351Q83 359 74 377Q65 395 65 418Q65 453 81 479Q97 505 125.5 522Q154 539 193.5 547.5Q233 556 280 556Q332 556 372 546Q412 536 439.5 512Q467 488 481 448Q495 408 495 348ZM487 596H401L287 681L173 596H87L226 766H348Z" glyph-name="acircumflex" horiz-adv-x="580" unicode="&#226;" /><glyph d="M371 765 217 603H132L201 765Z" glyph-name="acute" horiz-adv-x="500" unicode="&#180;" /><glyph d="M372 909 216 753H127L200 909Z" glyph-name="acute.cap" horiz-adv-x="500" /><glyph d="M267 94Q286 94 299.5 98.5Q313 103 328 113V281L252 251Q201 231 201 175Q201 137 218 115.5Q235 94 267 94ZM495 348Q495 346 495 330.5Q495 315 495 293Q495 271 494.5 246Q494 221 494 199Q494 177 494 161Q494 145 494 142Q494 118 500.5 102.5Q507 87 527 87Q533 87 546 88.5Q559 90 570 93L578 48Q552 23 516 6.5Q480 -10 441 -10Q398 -10 371 15Q344 40 331 81Q319 65 303.5 49Q288 33 268.5 20.5Q249 8 225 0.5Q201 -7 171 -7Q106 -7 68.5 31Q31 69 31 133Q31 166 42.5 190Q54 214 73 230.5Q92 247 116.5 258.5Q141 270 167 279L328 335V394Q328 450 313.5 474Q299 498 263 498Q234 498 220 480Q206 462 206 433Q206 416 207.5 400.5Q209 385 214 368L103 351Q83 359 74 377Q65 395 65 418Q65 453 81 479Q97 505 125.5 522Q154 539 193.5 547.5Q233 556 280 556Q332 556 372 546Q412 536 439.5 512Q467 488 481 448Q495 408 495 348ZM97 688Q97 722 121 746.5Q145 771 180 771Q215 771 239.5 746.5Q264 722 264 688Q264 654 239.5 629.5Q215 605 180 605Q145 605 121 629.5Q97 654 97 688ZM311 688Q311 705 317.5 720Q324 735 335.5 746.5Q347 758 361.5 764.5Q376 771 393 771Q429 771 453.5 746.5Q478 722 478 688Q478 654 453.5 629.5Q429 605 393 605Q376 605 361.5 611.5Q347 618 335.5 629.5Q324 641 317.5 656Q311 671 311 688Z" glyph-name="adieresis" horiz-adv-x="580" unicode="&#228;" /><glyph d="M600 556Q653 556 693.5 538Q734 520 761 489Q788 458 802 416.5Q816 375 816 328V291H483Q483 212 527 166Q571 120 641 120Q691 120 726.5 138.5Q762 157 788 191L818 172Q798 90 739.5 40Q681 -10 587 -10Q516 -10 461.5 19Q407 48 375 101Q337 44 286 18.5Q235 -7 181 -7Q146 -7 118.5 4Q91 15 71.5 33.5Q52 52 41.5 77.5Q31 103 31 133Q31 166 42.5 190Q54 214 73.5 231.5Q93 249 118.5 260Q144 271 173 279L342 326L347 347Q345 422 326 460Q307 498 263 498Q234 498 220 480Q206 462 206 433Q206 416 207.5 400.5Q209 385 214 368L103 351Q83 359 74 377Q65 395 65 418Q65 453 81 479Q97 505 124.5 522Q152 539 189 547.5Q226 556 269 556Q333 556 371 540Q409 524 431 492Q465 523 508 539.5Q551 556 600 556ZM583 491Q560 491 543 479.5Q526 468 514 448.5Q502 429 495 403Q488 377 485 348H669Q668 412 647.5 451.5Q627 491 583 491ZM336 270 254 247Q201 231 201 167Q201 136 218 115Q235 94 267 94Q318 94 362 127Q336 184 336 255Z" glyph-name="ae" horiz-adv-x="852" unicode="&#230;" /><glyph d="M631 765 477 603H392L461 765ZM600 556Q653 556 693.5 538Q734 520 761 489Q788 458 802 416.5Q816 375 816 328V291H483Q483 212 527 166Q571 120 641 120Q691 120 726.5 138.5Q762 157 788 191L818 172Q798 90 739.5 40Q681 -10 587 -10Q516 -10 461.5 19Q407 48 375 101Q337 44 286 18.5Q235 -7 181 -7Q146 -7 118.5 4Q91 15 71.5 33.5Q52 52 41.5 77.5Q31 103 31 133Q31 166 42.5 190Q54 214 73.5 231.5Q93 249 118.5 260Q144 271 173 279L342 326L347 347Q345 422 326 460Q307 498 263 498Q234 498 220 480Q206 462 206 433Q206 416 207.5 400.5Q209 385 214 368L103 351Q83 359 74 377Q65 395 65 418Q65 453 81 479Q97 505 124.5 522Q152 539 189 547.5Q226 556 269 556Q333 556 371 540Q409 524 431 492Q465 523 508 539.5Q551 556 600 556ZM583 491Q560 491 543 479.5Q526 468 514 448.5Q502 429 495 403Q488 377 485 348H669Q668 412 647.5 451.5Q627 491 583 491ZM336 270 254 247Q201 231 201 167Q201 136 218 115Q235 94 267 94Q318 94 362 127Q336 184 336 255Z" glyph-name="aeacute" horiz-adv-x="852" unicode="&#509;" /><glyph d="M267 94Q286 94 299.5 98.5Q313 103 328 113V281L252 251Q201 231 201 175Q201 137 218 115.5Q235 94 267 94ZM495 348Q495 346 495 330.5Q495 315 495 293Q495 271 494.5 246Q494 221 494 199Q494 177 494 161Q494 145 494 142Q494 118 500.5 102.5Q507 87 527 87Q533 87 546 88.5Q559 90 570 93L578 48Q552 23 516 6.5Q480 -10 441 -10Q398 -10 371 15Q344 40 331 81Q319 65 303.5 49Q288 33 268.5 20.5Q249 8 225 0.5Q201 -7 171 -7Q106 -7 68.5 31Q31 69 31 133Q31 166 42.5 190Q54 214 73 230.5Q92 247 116.5 258.5Q141 270 167 279L328 335V394Q328 450 313.5 474Q299 498 263 498Q234 498 220 480Q206 462 206 433Q206 416 207.5 400.5Q209 385 214 368L103 351Q83 359 74 377Q65 395 65 418Q65 453 81 479Q97 505 125.5 522Q154 539 193.5 547.5Q233 556 280 556Q332 556 372 546Q412 536 439.5 512Q467 488 481 448Q495 408 495 348ZM276 765 344 603H260L106 765Z" glyph-name="agrave" horiz-adv-x="580" unicode="&#224;" /><glyph d="M267 94Q286 94 299.5 98.5Q313 103 328 113V281L252 251Q201 231 201 175Q201 137 218 115.5Q235 94 267 94ZM495 348Q495 346 495 330.5Q495 315 495 293Q495 271 494.5 246Q494 221 494 199Q494 177 494 161Q494 145 494 142Q494 118 500.5 102.5Q507 87 527 87Q533 87 546 88.5Q559 90 570 93L578 48Q552 23 516 6.5Q480 -10 441 -10Q398 -10 371 15Q344 40 331 81Q319 65 303.5 49Q288 33 268.5 20.5Q249 8 225 0.5Q201 -7 171 -7Q106 -7 68.5 31Q31 69 31 133Q31 166 42.5 190Q54 214 73 230.5Q92 247 116.5 258.5Q141 270 167 279L328 335V394Q328 450 313.5 474Q299 498 263 498Q234 498 220 480Q206 462 206 433Q206 416 207.5 400.5Q209 385 214 368L103 351Q83 359 74 377Q65 395 65 418Q65 453 81 479Q97 505 125.5 522Q154 539 193.5 547.5Q233 556 280 556Q332 556 372 546Q412 536 439.5 512Q467 488 481 448Q495 408 495 348ZM137 718H435V625H137Z" glyph-name="amacron" horiz-adv-x="580" unicode="&#257;" /><glyph d="M16 184Q16 223 28.5 253Q41 283 63.5 306Q86 329 116.5 346Q147 363 184 377Q174 390 163 405Q152 420 143 438.5Q134 457 128 479Q122 501 122 527Q122 569 137.5 603Q153 637 181.5 661Q210 685 250 698.5Q290 712 340 712Q434 712 489 671.5Q544 631 544 562Q544 530 530.5 505Q517 480 494 459.5Q471 439 440 424Q409 409 375 397L535 208Q543 227 548 247.5Q553 268 553 289Q553 316 542.5 327Q532 338 506 338V399H718V338Q691 338 673.5 335Q656 332 645 323.5Q634 315 627.5 301Q621 287 616 266Q602 210 573 163L615 115Q639 87 661 75Q683 63 717 63V0H518Q501 11 486 22.5Q471 34 458 46Q416 20 367 5Q318 -10 265 -10Q212 -10 167 3Q122 16 88 40.5Q54 65 35 101Q16 137 16 184ZM333 72Q376 72 417 90Q405 102 393 119L211 343Q191 323 182 294Q173 265 173 233Q173 197 184.5 167Q196 137 217 116Q238 95 267.5 83.5Q297 72 333 72ZM269 582Q269 561 275.5 542Q282 523 292 505Q302 487 315 470.5Q328 454 341 438L346 431Q379 452 394 485.5Q409 519 409 567Q409 604 390.5 628Q372 652 339 652Q306 652 287.5 632.5Q269 613 269 582Z" glyph-name="ampersand" horiz-adv-x="740" unicode="&amp;" /><glyph d="M495 348Q495 346 495 330.5Q495 315 495 293Q495 271 494.5 246Q494 221 494 199Q494 177 494 161Q494 145 494 142Q494 118 500.5 102.5Q507 87 527 87Q533 87 546 88.5Q559 90 570 93L578 48Q550 31 522.5 16Q495 1 472.5 -15.5Q450 -32 436 -51.5Q422 -71 422 -96Q422 -113 432.5 -125Q443 -137 466 -137Q483 -137 500.5 -132.5Q518 -128 540 -114L558 -140Q526 -175 492.5 -195Q459 -215 416 -215Q377 -215 349 -193Q321 -171 321 -131Q321 -89 346.5 -58.5Q372 -28 411 -5Q381 3 361 25.5Q341 48 331 81Q319 65 303.5 49Q288 33 268.5 20.5Q249 8 225 0.5Q201 -7 171 -7Q106 -7 68.5 31Q31 69 31 133Q31 166 42.5 190Q54 214 73 230.5Q92 247 116.5 258.5Q141 270 167 279L328 335V394Q328 450 313.5 474Q299 498 263 498Q234 498 220 480Q206 462 206 433Q206 416 207.5 400.5Q209 385 214 368L103 351Q83 359 74 377Q65 395 65 418Q65 453 81 479Q97 505 125.5 522Q154 539 193.5 547.5Q233 556 280 556Q332 556 372 546Q412 536 439.5 512Q467 488 481 448Q495 408 495 348ZM267 94Q286 94 299.5 98.5Q313 103 328 113V281L252 251Q201 231 201 175Q201 137 218 115.5Q235 94 267 94Z" glyph-name="aogonek" horiz-adv-x="580" unicode="&#261;" /><glyph d="M76 465Q110 487 140 496.5Q170 506 198 506Q228 506 253 499.5Q278 493 302.5 485.5Q327 478 352.5 472Q378 466 407 466Q436 466 466.5 475Q497 484 532 507V422Q497 399 466.5 390Q436 381 407 381Q378 381 352.5 387Q327 393 302.5 400.5Q278 408 253 414.5Q228 421 198 421Q170 421 140 411.5Q110 402 76 379ZM76 314Q110 337 140 346Q170 355 198 355Q228 355 253 349Q278 343 302.5 335.5Q327 328 352.5 322Q378 316 407 316Q436 316 466.5 324.5Q497 333 532 356V272Q497 249 466.5 240Q436 231 407 231Q378 231 352.5 237Q327 243 302.5 250Q278 257 253 263Q228 269 198 269Q170 269 140 260Q110 251 76 230Z" glyph-name="approxequal" horiz-adv-x="607" unicode="&#8776;" /><glyph d="M267 94Q286 94 299.5 98.5Q313 103 328 113V281L252 251Q201 231 201 175Q201 137 218 115.5Q235 94 267 94ZM495 348Q495 346 495 330.5Q495 315 495 293Q495 271 494.5 246Q494 221 494 199Q494 177 494 161Q494 145 494 142Q494 118 500.5 102.5Q507 87 527 87Q533 87 546 88.5Q559 90 570 93L578 48Q552 23 516 6.5Q480 -10 441 -10Q398 -10 371 15Q344 40 331 81Q319 65 303.5 49Q288 33 268.5 20.5Q249 8 225 0.5Q201 -7 171 -7Q106 -7 68.5 31Q31 69 31 133Q31 166 42.5 190Q54 214 73 230.5Q92 247 116.5 258.5Q141 270 167 279L328 335V394Q328 450 313.5 474Q299 498 263 498Q234 498 220 480Q206 462 206 433Q206 416 207.5 400.5Q209 385 214 368L103 351Q83 359 74 377Q65 395 65 418Q65 453 81 479Q97 505 125.5 522Q154 539 193.5 547.5Q233 556 280 556Q332 556 372 546Q412 536 439.5 512Q467 488 481 448Q495 408 495 348ZM175 694Q175 736 205.5 764.5Q236 793 284 793Q332 793 362.5 764.5Q393 736 393 694Q393 652 362.5 623.5Q332 595 284 595Q236 595 205.5 623.5Q175 652 175 694ZM331 694Q331 714 319 727Q307 740 284 740Q261 740 249 727Q237 714 237 694Q237 674 249 661Q261 648 284 648Q307 648 319 661Q331 674 331 694Z" glyph-name="aring" horiz-adv-x="580" unicode="&#229;" /><glyph d="M297 770 444 480H337L242 677L147 480H40L187 770Z" glyph-name="asciicircum" horiz-adv-x="484" unicode="^" /><glyph d="M518 422Q504 374 487 341Q470 308 449 288Q428 268 404 259Q380 250 354 250Q333 250 311.5 259.5Q290 269 269.5 281Q249 293 229.5 302.5Q210 312 192 312Q144 312 107 252L50 269Q77 365 119 402.5Q161 440 214 440Q235 440 256.5 430.5Q278 421 298.5 409Q319 397 338.5 387.5Q358 378 375 378Q424 378 460 438Z" glyph-name="asciitilde" horiz-adv-x="568" unicode="~" /><glyph d="M265 528 296 360H192L221 527L92 417L40 508L200 565L40 622L92 713L222 602L192 770H296L265 603L395 713L447 622L287 565L447 508L395 417Z" glyph-name="asterisk" horiz-adv-x="487" unicode="*" /><glyph d="M606 77Q569 77 546 90Q523 103 511.5 125Q500 147 498.5 176Q497 205 504 236H499Q485 205 467 176.5Q449 148 427 126Q405 104 380.5 90.5Q356 77 328 77Q283 77 254 111Q225 145 225 205Q225 257 244.5 308.5Q264 360 298.5 401.5Q333 443 379.5 468.5Q426 494 479 494Q511 494 533 482Q555 470 567 456L640 487H692L659 394L608 209Q604 195 603 181Q602 167 605 156Q608 145 615.5 138Q623 131 636 131Q662 131 687.5 146Q713 161 733 191Q753 221 765 265Q777 309 777 367Q777 423 757 473Q737 523 699.5 561Q662 599 607.5 621Q553 643 485 643Q404 643 339 613.5Q274 584 227.5 531.5Q181 479 156 407Q131 335 131 250Q131 169 158 108.5Q185 48 231.5 7Q278 -34 341 -54.5Q404 -75 475 -75Q517 -75 552 -70.5Q587 -66 619 -57Q651 -48 681 -35Q711 -22 743 -5L761 -37Q709 -82 635 -109.5Q561 -137 462 -137Q377 -137 302 -111Q227 -85 171 -35.5Q115 14 82.5 85Q50 156 50 246Q50 341 82.5 422.5Q115 504 172.5 564Q230 624 310 658.5Q390 693 485 693Q572 693 640.5 666.5Q709 640 756.5 595Q804 550 829 491Q854 432 854 367Q854 290 831 235Q808 180 772 145Q736 110 692 93.5Q648 77 606 77ZM388 164Q406 164 427 183.5Q448 203 468 236.5Q488 270 505.5 315.5Q523 361 534 412Q527 429 518.5 438Q510 447 494 447Q464 447 439 424.5Q414 402 395 368.5Q376 335 365.5 294.5Q355 254 355 218Q355 192 363 178Q371 164 388 164Z" glyph-name="at" horiz-adv-x="904" unicode="@" /><glyph d="M267 94Q286 94 299.5 98.5Q313 103 328 113V281L252 251Q201 231 201 175Q201 137 218 115.5Q235 94 267 94ZM495 348Q495 346 495 330.5Q495 315 495 293Q495 271 494.5 246Q494 221 494 199Q494 177 494 161Q494 145 494 142Q494 118 500.5 102.5Q507 87 527 87Q533 87 546 88.5Q559 90 570 93L578 48Q552 23 516 6.5Q480 -10 441 -10Q398 -10 371 15Q344 40 331 81Q319 65 303.5 49Q288 33 268.5 20.5Q249 8 225 0.5Q201 -7 171 -7Q106 -7 68.5 31Q31 69 31 133Q31 166 42.5 190Q54 214 73 230.5Q92 247 116.5 258.5Q141 270 167 279L328 335V394Q328 450 313.5 474Q299 498 263 498Q234 498 220 480Q206 462 206 433Q206 416 207.5 400.5Q209 385 214 368L103 351Q83 359 74 377Q65 395 65 418Q65 453 81 479Q97 505 125.5 522Q154 539 193.5 547.5Q233 556 280 556Q332 556 372 546Q412 536 439.5 512Q467 488 481 448Q495 408 495 348ZM493 755Q473 710 457.5 682Q442 654 426.5 638.5Q411 623 394.5 617.5Q378 612 357 612Q336 612 317 621.5Q298 631 281 643Q264 655 248.5 664.5Q233 674 219 674Q196 674 182 658Q168 642 154 618L98 629Q118 674 134 702.5Q150 731 165 746.5Q180 762 197 767.5Q214 773 235 773Q259 773 278 763Q297 753 313.5 741.5Q330 730 344 720Q358 710 373 710Q395 710 409 726Q423 742 438 767Z" glyph-name="atilde" horiz-adv-x="580" unicode="&#227;" /><glyph d="M14 686V720L210 761H242V461Q266 503 306 529.5Q346 556 403 556Q501 556 558 488.5Q615 421 615 301Q615 228 592.5 170.5Q570 113 530 73Q490 33 436.5 11.5Q383 -10 322 -10Q250 -10 184 6.5Q118 23 73 58V632ZM324 54Q352 54 374 68.5Q396 83 411.5 109Q427 135 435 171Q443 207 443 250Q443 342 408.5 396Q374 450 314 450Q273 450 242 430V161Q242 109 260.5 81.5Q279 54 324 54Z" glyph-name="b" horiz-adv-x="649" unicode="b" /><glyph d="M38 770H136L409 -125H311Z" glyph-name="backslash" horiz-adv-x="433" unicode="\" /><glyph d="M193 -141H100V770H193Z" glyph-name="bar" horiz-adv-x="293" unicode="|" /><glyph d="M50 331Q86 339 109.5 361Q133 383 133 431V642Q133 702 184.5 736Q236 770 346 770V732Q328 730 311 723.5Q294 717 280.5 705.5Q267 694 259 676.5Q251 659 251 634V427Q251 376 230.5 353Q210 330 160 315Q210 300 230.5 277Q251 254 251 203V-4Q251 -29 259 -46.5Q267 -64 280.5 -75.5Q294 -87 311 -93.5Q328 -100 346 -102V-141Q236 -141 184.5 -107Q133 -73 133 -13V199Q133 247 109.5 269Q86 291 50 299Z" glyph-name="braceleft" horiz-adv-x="383" unicode="{" /><glyph d="M333 299Q297 291 273.5 269Q250 247 250 199V-13Q250 -73 198 -107Q146 -141 37 -141V-102Q55 -100 71.5 -93.5Q88 -87 101.5 -75.5Q115 -64 123 -46.5Q131 -29 131 -4V203Q131 254 151.5 277Q172 300 222 315Q172 330 151.5 353Q131 376 131 427V634Q131 659 123 676.5Q115 694 101.5 705.5Q88 717 71.5 723.5Q55 730 37 732V770Q146 770 198 736Q250 702 250 642V431Q250 383 273.5 361Q297 339 333 331Z" glyph-name="braceright" horiz-adv-x="383" unicode="}" /><glyph d="M198 -33Q198 -53 204.5 -64Q211 -75 224.5 -81Q238 -87 259.5 -89Q281 -91 311 -93V-141H85V770H311V722Q281 720 259.5 718Q238 716 224.5 710Q211 704 204.5 692.5Q198 681 198 662Z" glyph-name="bracketleft" horiz-adv-x="348" unicode="[" /><glyph d="M150 662Q150 681 143.5 692.5Q137 704 123.5 710Q110 716 88.5 718Q67 720 37 722V770H263V-141H37V-93Q67 -91 88.5 -89Q110 -87 123.5 -81Q137 -75 143.5 -64Q150 -53 150 -33Z" glyph-name="bracketright" horiz-adv-x="348" unicode="]" /><glyph d="M256 601Q182 601 141.5 645.5Q101 690 101 771H165Q168 747 177 731Q186 715 198.5 705.5Q211 696 226 692Q241 688 256 688Q271 688 286.5 692Q302 696 314.5 705.5Q327 715 336 731Q345 747 348 771H412Q412 690 371.5 645.5Q331 601 256 601Z" glyph-name="breve" horiz-adv-x="500" unicode="&#728;" /><glyph d="M250 748Q175 748 133.5 792.5Q92 837 92 916H156Q159 892 168.5 876.5Q178 861 191 852Q204 843 219.5 839Q235 835 250 835Q265 835 280.5 839Q296 843 309 852Q322 861 331.5 876.5Q341 892 344 916H408Q408 837 366.5 792.5Q325 748 250 748Z" glyph-name="breve.cap" horiz-adv-x="500" /><glyph d="M51 307Q51 339 63 367.5Q75 396 96 417.5Q117 439 144.5 451.5Q172 464 204 464Q236 464 264 451.5Q292 439 312.5 417.5Q333 396 345 367.5Q357 339 357 307Q357 275 345 247Q333 219 312.5 198Q292 177 264 164.5Q236 152 204 152Q172 152 144.5 164.5Q117 177 96 198Q75 219 63 247Q51 275 51 307Z" glyph-name="bullet" horiz-adv-x="408" unicode="&#8226;" /><glyph d="M187 323Q187 277 196.5 239.5Q206 202 225.5 175Q245 148 273.5 133Q302 118 340 118Q384 118 419 138Q454 158 480 193L511 172Q485 77 426 33.5Q367 -10 280 -10Q226 -10 181 8.5Q136 27 103.5 61.5Q71 96 52.5 144.5Q34 193 34 253Q34 317 54 372.5Q74 428 110.5 469Q147 510 198.5 533Q250 556 314 556Q353 556 387.5 547Q422 538 448 520Q474 502 489 475.5Q504 449 504 415Q504 385 492 366.5Q480 348 462 340H374V389Q374 433 358.5 461Q343 489 301 489Q278 489 257 478Q236 467 220.5 445.5Q205 424 196 393Q187 362 187 323Z" glyph-name="c" horiz-adv-x="535" unicode="c" /><glyph d="M489 765 335 603H250L319 765ZM187 323Q187 277 196.5 239.5Q206 202 225.5 175Q245 148 273.5 133Q302 118 340 118Q384 118 419 138Q454 158 480 193L511 172Q485 77 426 33.5Q367 -10 280 -10Q226 -10 181 8.5Q136 27 103.5 61.5Q71 96 52.5 144.5Q34 193 34 253Q34 317 54 372.5Q74 428 110.5 469Q147 510 198.5 533Q250 556 314 556Q353 556 387.5 547Q422 538 448 520Q474 502 489 475.5Q504 449 504 415Q504 385 492 366.5Q480 348 462 340H374V389Q374 433 358.5 461Q343 489 301 489Q278 489 257 478Q236 467 220.5 445.5Q205 424 196 393Q187 362 187 323Z" glyph-name="cacute" horiz-adv-x="535" unicode="&#263;" /><glyph d="M311 604H189L50 774H136L250 689L364 774H450Z" glyph-name="caron" horiz-adv-x="500" unicode="&#711;" /><glyph d="M259 560H191L206 765H350Z" glyph-name="caron.Slovak" horiz-adv-x="500" /><glyph d="M311 754H189L48 921H134L250 839L366 921H452Z" glyph-name="caron.cap" horiz-adv-x="500" /><glyph d="M359 604H237L98 774H184L298 689L412 774H498ZM187 323Q187 277 196.5 239.5Q206 202 225.5 175Q245 148 273.5 133Q302 118 340 118Q384 118 419 138Q454 158 480 193L511 172Q485 77 426 33.5Q367 -10 280 -10Q226 -10 181 8.5Q136 27 103.5 61.5Q71 96 52.5 144.5Q34 193 34 253Q34 317 54 372.5Q74 428 110.5 469Q147 510 198.5 533Q250 556 314 556Q353 556 387.5 547Q422 538 448 520Q474 502 489 475.5Q504 449 504 415Q504 385 492 366.5Q480 348 462 340H374V389Q374 433 358.5 461Q343 489 301 489Q278 489 257 478Q236 467 220.5 445.5Q205 424 196 393Q187 362 187 323Z" glyph-name="ccaron" horiz-adv-x="535" unicode="&#269;" /><glyph d="M174 -185Q228 -185 258.5 -175Q289 -165 289 -144Q289 -124 264.5 -116.5Q240 -109 203 -107L243 -8Q197 -2 158.5 19Q120 40 92.5 73.5Q65 107 49.5 152.5Q34 198 34 253Q34 317 54 372.5Q74 428 110.5 469Q147 510 198.5 533Q250 556 314 556Q353 556 387.5 547Q422 538 448 520Q474 502 489 475.5Q504 449 504 415Q504 385 492 366.5Q480 348 462 340H374V389Q374 433 358.5 461Q343 489 301 489Q278 489 257 478Q236 467 220.5 445.5Q205 424 196 393Q187 362 187 323Q187 277 196.5 239.5Q206 202 225.5 175Q245 148 273.5 133Q302 118 340 118Q384 118 419 138Q454 158 480 193L511 172Q486 79 429 35.5Q372 -8 289 -10L277 -45Q322 -49 349 -66.5Q376 -84 376 -122Q376 -149 360 -169.5Q344 -190 317.5 -203.5Q291 -217 256 -224Q221 -231 184 -231Z" glyph-name="ccedilla" horiz-adv-x="535" unicode="&#231;" /><glyph d="M498 596H412L298 681L184 596H98L237 766H359ZM187 323Q187 277 196.5 239.5Q206 202 225.5 175Q245 148 273.5 133Q302 118 340 118Q384 118 419 138Q454 158 480 193L511 172Q485 77 426 33.5Q367 -10 280 -10Q226 -10 181 8.5Q136 27 103.5 61.5Q71 96 52.5 144.5Q34 193 34 253Q34 317 54 372.5Q74 428 110.5 469Q147 510 198.5 533Q250 556 314 556Q353 556 387.5 547Q422 538 448 520Q474 502 489 475.5Q504 449 504 415Q504 385 492 366.5Q480 348 462 340H374V389Q374 433 358.5 461Q343 489 301 489Q278 489 257 478Q236 467 220.5 445.5Q205 424 196 393Q187 362 187 323Z" glyph-name="ccircumflex" horiz-adv-x="535" unicode="&#265;" /><glyph d="M187 323Q187 277 196.5 239.5Q206 202 225.5 175Q245 148 273.5 133Q302 118 340 118Q384 118 419 138Q454 158 480 193L511 172Q485 77 426 33.5Q367 -10 280 -10Q226 -10 181 8.5Q136 27 103.5 61.5Q71 96 52.5 144.5Q34 193 34 253Q34 317 54 372.5Q74 428 110.5 469Q147 510 198.5 533Q250 556 314 556Q353 556 387.5 547Q422 538 448 520Q474 502 489 475.5Q504 449 504 415Q504 385 492 366.5Q480 348 462 340H374V389Q374 433 358.5 461Q343 489 301 489Q278 489 257 478Q236 467 220.5 445.5Q205 424 196 393Q187 362 187 323ZM299 601Q254 601 228.5 627.5Q203 654 203 690Q203 726 228.5 752.5Q254 779 299 779Q343 779 368 752.5Q393 726 393 690Q393 654 368 627.5Q343 601 299 601Z" glyph-name="cdotaccent" horiz-adv-x="535" unicode="&#267;" /><glyph d="M227 0Q142 21 90 88Q38 155 38 259Q38 327 60.5 383Q83 439 122.5 479Q162 519 216 541Q270 563 333 564L354 676H410L388 560Q422 556 450 545.5Q478 535 498.5 518.5Q519 502 530.5 479.5Q542 457 542 427Q542 398 528 382Q514 366 494 358H423V400Q423 476 376 495L305 122Q332 114 361 114Q415 114 450 136.5Q485 159 513 195L552 175Q526 81 463 35.5Q400 -10 306 -10Q299 -10 293 -9.5Q287 -9 281 -9L261 -115H206ZM189 319Q189 200 255 148L322 504H321Q293 504 269 492Q245 480 227 456.5Q209 433 199 398.5Q189 364 189 319Z" glyph-name="cent" horiz-adv-x="586" unicode="&#162;" /><glyph d="M450 596H364L250 681L136 596H50L189 766H311Z" glyph-name="circumflex" horiz-adv-x="500" unicode="&#710;" /><glyph d="M452 751H366L250 833L134 751H48L189 918H311Z" glyph-name="circumflex.cap" horiz-adv-x="500" /><glyph d="M50 90Q50 135 79 163Q108 191 150 191Q171 191 189.5 183.5Q208 176 221.5 162.5Q235 149 243 130.5Q251 112 251 90Q251 68 243 50Q235 32 221.5 18.5Q208 5 189.5 -2.5Q171 -10 150 -10Q108 -10 79 18Q50 46 50 90ZM50 393Q50 438 79 466Q108 494 150 494Q171 494 189.5 486.5Q208 479 221.5 465.5Q235 452 243 433.5Q251 415 251 393Q251 371 243 353Q235 335 221.5 321.5Q208 308 189.5 300.5Q171 293 150 293Q108 293 79 321Q50 349 50 393Z" glyph-name="colon" horiz-adv-x="301" unicode=":" /><glyph d="M125 10Q95 16 78.5 37.5Q62 59 62 94Q62 129 85.5 154.5Q109 180 152 180Q200 180 229 149Q258 118 258 60Q258 -25 208 -78.5Q158 -132 55 -136V-78Q108 -73 137.5 -51.5Q167 -30 167 10Z" glyph-name="comma" horiz-adv-x="301" unicode="," /><glyph d="M207 -157Q184 -151 171.5 -137Q159 -123 159 -98Q159 -72 180 -54Q201 -36 239 -36Q284 -36 308.5 -62Q333 -88 333 -130Q333 -154 324 -175.5Q315 -197 295 -212.5Q275 -228 243.5 -237Q212 -246 166 -246V-203Q214 -203 238 -190Q262 -177 264 -157Z" glyph-name="commaaccent" horiz-adv-x="500" /><glyph d="M284 718Q307 713 320 699Q333 685 333 659Q333 633 311.5 615Q290 597 252 597Q208 597 183.5 623.5Q159 650 159 691Q159 715 168 736.5Q177 758 196.5 773.5Q216 789 248 798Q280 807 325 807V765Q277 765 253 752Q229 739 227 718Z" glyph-name="commaturn" horiz-adv-x="500" /><glyph d="M82 351Q82 285 105 226Q128 167 170 123.5Q212 80 270 54.5Q328 29 398 29Q468 29 526 54.5Q584 80 626 123.5Q668 167 691 226Q714 285 714 351Q714 417 691 476Q668 535 626 578.5Q584 622 526 647.5Q468 673 398 673Q328 673 270 647.5Q212 622 170 578.5Q128 535 105 476Q82 417 82 351ZM40 351Q40 426 66.5 491.5Q93 557 140.5 606Q188 655 254 683.5Q320 712 398 712Q476 712 542 683.5Q608 655 655.5 606Q703 557 729.5 491.5Q756 426 756 351Q756 276 729.5 210.5Q703 145 655.5 96Q608 47 542 18.5Q476 -10 398 -10Q320 -10 254 18.5Q188 47 140.5 96Q93 145 66.5 210.5Q40 276 40 351ZM424 190Q443 190 456 198Q469 206 478.5 219.5Q488 233 495 251.5Q502 270 509 291H569L560 179Q533 162 497 151.5Q461 141 415 141Q365 141 325.5 156Q286 171 259 198Q232 225 217.5 262.5Q203 300 203 344Q203 395 220 435.5Q237 476 266 504.5Q295 533 334 548.5Q373 564 417 564Q462 564 497 552.5Q532 541 555 522V426H496Q487 464 469.5 491Q452 518 417 518Q390 518 372.5 505Q355 492 345 470Q335 448 331 418Q327 388 327 355Q327 320 333 290Q339 260 351 238Q363 216 381.5 203Q400 190 424 190Z" glyph-name="copyright" horiz-adv-x="796" unicode="&#169;" /><glyph d="M407 86Q382 43 343 16.5Q304 -10 241 -10Q195 -10 157 7.5Q119 25 91.5 58Q64 91 49 138Q34 185 34 245Q34 318 55 374.5Q76 431 113 470Q150 509 200.5 529.5Q251 550 310 550Q342 550 367.5 542Q393 534 407 520V632L348 686V720L545 761H576V138Q576 112 584 99.5Q592 87 617 85H642V23L440 -10H407ZM325 488Q296 488 274 474Q252 460 237 434.5Q222 409 214 373.5Q206 338 206 295Q206 205 240 150.5Q274 96 336 96Q356 96 374 101.5Q392 107 407 116V381Q407 435 388 461.5Q369 488 325 488Z" glyph-name="d" horiz-adv-x="665" unicode="d" /><glyph d="M218 585 198 758H295L274 585L449 605V512L274 531L295 228H198L219 531L45 512V605Z" glyph-name="dagger" horiz-adv-x="494" unicode="&#8224;" /><glyph d="M47 536V629L220 609L200 758H297L276 609L451 629V536L276 555V431L451 450V357L276 377L297 228H200L220 377L47 357V450L221 431V555Z" glyph-name="daggerdbl" horiz-adv-x="498" unicode="&#8225;" /><glyph d="M710 560H642L657 765H801ZM407 86Q382 43 343 16.5Q304 -10 241 -10Q195 -10 157 7.5Q119 25 91.5 58Q64 91 49 138Q34 185 34 245Q34 318 55 374.5Q76 431 113 470Q150 509 200.5 529.5Q251 550 310 550Q342 550 367.5 542Q393 534 407 520V632L348 686V720L545 761H576V138Q576 112 584 99.5Q592 87 617 85H642V23L440 -10H407ZM325 488Q296 488 274 474Q252 460 237 434.5Q222 409 214 373.5Q206 338 206 295Q206 205 240 150.5Q274 96 336 96Q356 96 374 101.5Q392 107 407 116V381Q407 435 388 461.5Q369 488 325 488Z" glyph-name="dcaron" horiz-adv-x="680" unicode="&#271;" /><glyph d="M576 578V138Q576 112 584 99.5Q592 87 617 85H642V23L440 -10H407V86Q382 43 343 16.5Q304 -10 241 -10Q195 -10 157 7.5Q119 25 91.5 58Q64 91 49 138Q34 185 34 245Q34 318 56 372Q78 426 114.5 461.5Q151 497 198 514.5Q245 532 296 532Q334 532 364 521Q394 510 407 494V578H284V627H407V683H348V726L545 761H576V627H642V578ZM325 470Q268 470 237 425.5Q206 381 206 295Q206 205 240 150.5Q274 96 336 96Q356 96 374 101.5Q392 107 407 116V363Q407 417 388 443.5Q369 470 325 470Z" glyph-name="dcroat" horiz-adv-x="670" unicode="&#273;" /><glyph d="M96 553Q96 511 120.5 483.5Q145 456 187 456Q229 456 253.5 483.5Q278 511 278 553Q278 595 253.5 622.5Q229 650 187 650Q145 650 120.5 622.5Q96 595 96 553ZM26 553Q26 587 38.5 616Q51 645 72.5 666.5Q94 688 123.5 700Q153 712 187 712Q221 712 250 700Q279 688 301 666.5Q323 645 335.5 616Q348 587 348 553Q348 519 335.5 490Q323 461 301 439.5Q279 418 250 406Q221 394 187 394Q153 394 123.5 406Q94 418 72.5 439.5Q51 461 38.5 490Q26 519 26 553Z" glyph-name="degree" horiz-adv-x="374" unicode="&#176;" /><glyph d="M59 688Q59 722 83 746.5Q107 771 142 771Q177 771 201.5 746.5Q226 722 226 688Q226 654 201.5 629.5Q177 605 142 605Q107 605 83 629.5Q59 654 59 688ZM273 688Q273 705 279.5 720Q286 735 297.5 746.5Q309 758 323.5 764.5Q338 771 355 771Q391 771 415.5 746.5Q440 722 440 688Q440 654 415.5 629.5Q391 605 355 605Q338 605 323.5 611.5Q309 618 297.5 629.5Q286 641 279.5 656Q273 671 273 688Z" glyph-name="dieresis" horiz-adv-x="500" unicode="&#168;" /><glyph d="M58 831Q58 865 82 889.5Q106 914 141 914Q176 914 200.5 889.5Q225 865 225 831Q225 797 200.5 772.5Q176 748 141 748Q106 748 82 772.5Q58 797 58 831ZM274 831Q274 848 280.5 863Q287 878 298.5 889.5Q310 901 324.5 907.5Q339 914 356 914Q392 914 416.5 889.5Q441 865 441 831Q441 797 416.5 772.5Q392 748 356 748Q339 748 324.5 754.5Q310 761 298.5 772.5Q287 784 280.5 799Q274 814 274 831Z" glyph-name="dieresis.cap" horiz-adv-x="500" /><glyph d="M70 409H525V322H70ZM230 184Q230 213 249.5 232Q269 251 296 251Q325 251 345 232Q365 213 365 184Q365 155 345 135Q325 115 296 115Q269 115 249.5 135Q230 155 230 184ZM230 548Q230 576 249.5 595.5Q269 615 296 615Q325 615 345 595.5Q365 576 365 548Q365 520 345 499.5Q325 479 296 479Q269 479 249.5 499.5Q230 520 230 548Z" glyph-name="divide" horiz-adv-x="596" unicode="&#247;" /><glyph d="M200 -3Q152 5 112.5 20.5Q73 36 47 56L37 223H121Q139 107 213 69L249 272L229 279Q139 308 91.5 356.5Q44 405 44 490Q44 541 62.5 582.5Q81 624 114 652.5Q147 681 193 696.5Q239 712 294 712Q302 712 310.5 711.5Q319 711 327 711L346 814H399L379 705Q421 697 455.5 683.5Q490 670 515 652V499H443Q435 544 417.5 578.5Q400 613 366 632L332 437L368 425Q410 411 444 393Q478 375 502 349.5Q526 324 539 290.5Q552 257 552 212Q552 155 531 113Q510 71 473 44Q436 17 387 3.5Q338 -10 281 -10Q273 -10 266.5 -9.5Q260 -9 252 -9L234 -113H181ZM299 256 263 54Q271 52 279 52Q287 52 296 52Q347 52 379 77.5Q411 103 411 150Q411 187 388.5 211Q366 235 310 253ZM179 560Q179 518 202 495.5Q225 473 271 459L282 455L316 648Q301 651 283 651Q232 651 205.5 624Q179 597 179 560Z" glyph-name="dollar" horiz-adv-x="589" unicode="$" /><glyph d="M251 601Q206 601 180.5 627.5Q155 654 155 690Q155 726 180.5 752.5Q206 779 251 779Q295 779 320 752.5Q345 726 345 690Q345 654 320 627.5Q295 601 251 601Z" glyph-name="dotaccent" horiz-adv-x="500" unicode="&#729;" /><glyph d="M250 748Q206 748 180.5 774.5Q155 801 155 837Q155 873 180.5 900Q206 927 250 927Q294 927 319.5 900Q345 873 345 837Q345 801 319.5 774.5Q294 748 250 748Z" glyph-name="dotaccent.cap" horiz-adv-x="500" /><glyph d="M267 118Q267 101 270.5 90.5Q274 80 282 74.5Q290 69 302 66Q314 63 331 61V0H34V61Q50 63 62.5 66Q75 69 82.5 74.5Q90 80 94 90.5Q98 101 98 118V422L39 477V506L235 557H267Z" glyph-name="dotlessi" horiz-adv-x="357" unicode="&#305;" /><glyph d="M248 123Q248 83 243.5 52.5Q239 22 231 -2.5Q223 -27 211.5 -47Q200 -67 185 -85Q150 -127 113.5 -156.5Q77 -186 35 -209L1 -177L40 -113Q67 -71 72.5 -24Q78 23 78 85V422L20 477V506L217 557H248Z" glyph-name="dotlessj" horiz-adv-x="312" unicode="&#567;" /><glyph d="M301 556Q354 556 394.5 538Q435 520 462 489Q489 458 503 416.5Q517 375 517 328V291H184Q184 212 228 166Q272 120 342 120Q392 120 427.5 138.5Q463 157 489 191L519 172Q499 90 440.5 40Q382 -10 288 -10Q232 -10 185.5 9Q139 28 105.5 62.5Q72 97 53 146Q34 195 34 255Q34 323 55 378.5Q76 434 112 473.5Q148 513 196.5 534.5Q245 556 301 556ZM284 491Q261 491 244 479.5Q227 468 215 448.5Q203 429 196 403Q189 377 186 348H370Q369 412 348.5 451.5Q328 491 284 491Z" glyph-name="e" horiz-adv-x="553" unicode="e" /><glyph d="M479 765 325 603H240L309 765ZM301 556Q354 556 394.5 538Q435 520 462 489Q489 458 503 416.5Q517 375 517 328V291H184Q184 212 228 166Q272 120 342 120Q392 120 427.5 138.5Q463 157 489 191L519 172Q499 90 440.5 40Q382 -10 288 -10Q232 -10 185.5 9Q139 28 105.5 62.5Q72 97 53 146Q34 195 34 255Q34 323 55 378.5Q76 434 112 473.5Q148 513 196.5 534.5Q245 556 301 556ZM284 491Q261 491 244 479.5Q227 468 215 448.5Q203 429 196 403Q189 377 186 348H370Q369 412 348.5 451.5Q328 491 284 491Z" glyph-name="eacute" horiz-adv-x="553" unicode="&#233;" /><glyph d="M301 556Q354 556 394.5 538Q435 520 462 489Q489 458 503 416.5Q517 375 517 328V291H184Q184 212 228 166Q272 120 342 120Q392 120 427.5 138.5Q463 157 489 191L519 172Q499 90 440.5 40Q382 -10 288 -10Q232 -10 185.5 9Q139 28 105.5 62.5Q72 97 53 146Q34 195 34 255Q34 323 55 378.5Q76 434 112 473.5Q148 513 196.5 534.5Q245 556 301 556ZM284 491Q261 491 244 479.5Q227 468 215 448.5Q203 429 196 403Q189 377 186 348H370Q369 412 348.5 451.5Q328 491 284 491ZM293 601Q219 601 178.5 645.5Q138 690 138 771H202Q205 747 214 731Q223 715 235.5 705.5Q248 696 263 692Q278 688 293 688Q308 688 323.5 692Q339 696 351.5 705.5Q364 715 373 731Q382 747 385 771H449Q449 690 408.5 645.5Q368 601 293 601Z" glyph-name="ebreve" horiz-adv-x="553" unicode="&#277;" /><glyph d="M354 604H232L93 774H179L293 689L407 774H493ZM301 556Q354 556 394.5 538Q435 520 462 489Q489 458 503 416.5Q517 375 517 328V291H184Q184 212 228 166Q272 120 342 120Q392 120 427.5 138.5Q463 157 489 191L519 172Q499 90 440.5 40Q382 -10 288 -10Q232 -10 185.5 9Q139 28 105.5 62.5Q72 97 53 146Q34 195 34 255Q34 323 55 378.5Q76 434 112 473.5Q148 513 196.5 534.5Q245 556 301 556ZM284 491Q261 491 244 479.5Q227 468 215 448.5Q203 429 196 403Q189 377 186 348H370Q369 412 348.5 451.5Q328 491 284 491Z" glyph-name="ecaron" horiz-adv-x="553" unicode="&#283;" /><glyph d="M496 596H410L296 681L182 596H96L235 766H357ZM301 556Q354 556 394.5 538Q435 520 462 489Q489 458 503 416.5Q517 375 517 328V291H184Q184 212 228 166Q272 120 342 120Q392 120 427.5 138.5Q463 157 489 191L519 172Q499 90 440.5 40Q382 -10 288 -10Q232 -10 185.5 9Q139 28 105.5 62.5Q72 97 53 146Q34 195 34 255Q34 323 55 378.5Q76 434 112 473.5Q148 513 196.5 534.5Q245 556 301 556ZM284 491Q261 491 244 479.5Q227 468 215 448.5Q203 429 196 403Q189 377 186 348H370Q369 412 348.5 451.5Q328 491 284 491Z" glyph-name="ecircumflex" horiz-adv-x="553" unicode="&#234;" /><glyph d="M106 688Q106 722 130 746.5Q154 771 189 771Q224 771 248.5 746.5Q273 722 273 688Q273 654 248.5 629.5Q224 605 189 605Q154 605 130 629.5Q106 654 106 688ZM320 688Q320 705 326.5 720Q333 735 344.5 746.5Q356 758 370.5 764.5Q385 771 402 771Q438 771 462.5 746.5Q487 722 487 688Q487 654 462.5 629.5Q438 605 402 605Q385 605 370.5 611.5Q356 618 344.5 629.5Q333 641 326.5 656Q320 671 320 688ZM301 556Q354 556 394.5 538Q435 520 462 489Q489 458 503 416.5Q517 375 517 328V291H184Q184 212 228 166Q272 120 342 120Q392 120 427.5 138.5Q463 157 489 191L519 172Q499 90 440.5 40Q382 -10 288 -10Q232 -10 185.5 9Q139 28 105.5 62.5Q72 97 53 146Q34 195 34 255Q34 323 55 378.5Q76 434 112 473.5Q148 513 196.5 534.5Q245 556 301 556ZM284 491Q261 491 244 479.5Q227 468 215 448.5Q203 429 196 403Q189 377 186 348H370Q369 412 348.5 451.5Q328 491 284 491Z" glyph-name="edieresis" horiz-adv-x="553" unicode="&#235;" /><glyph d="M301 556Q354 556 394.5 538Q435 520 462 489Q489 458 503 416.5Q517 375 517 328V291H184Q184 212 228 166Q272 120 342 120Q392 120 427.5 138.5Q463 157 489 191L519 172Q499 90 440.5 40Q382 -10 288 -10Q232 -10 185.5 9Q139 28 105.5 62.5Q72 97 53 146Q34 195 34 255Q34 323 55 378.5Q76 434 112 473.5Q148 513 196.5 534.5Q245 556 301 556ZM284 491Q261 491 244 479.5Q227 468 215 448.5Q203 429 196 403Q189 377 186 348H370Q369 412 348.5 451.5Q328 491 284 491ZM293 601Q248 601 222.5 627.5Q197 654 197 690Q197 726 222.5 752.5Q248 779 293 779Q337 779 362 752.5Q387 726 387 690Q387 654 362 627.5Q337 601 293 601Z" glyph-name="edotaccent" horiz-adv-x="553" unicode="&#279;" /><glyph d="M301 556Q354 556 394.5 538Q435 520 462 489Q489 458 503 416.5Q517 375 517 328V291H184Q184 212 228 166Q272 120 342 120Q392 120 427.5 138.5Q463 157 489 191L519 172Q499 90 440.5 40Q382 -10 288 -10Q232 -10 185.5 9Q139 28 105.5 62.5Q72 97 53 146Q34 195 34 255Q34 323 55 378.5Q76 434 112 473.5Q148 513 196.5 534.5Q245 556 301 556ZM284 491Q261 491 244 479.5Q227 468 215 448.5Q203 429 196 403Q189 377 186 348H370Q369 412 348.5 451.5Q328 491 284 491ZM279 765 347 603H263L109 765Z" glyph-name="egrave" horiz-adv-x="553" unicode="&#232;" /><glyph d="M537 548Q537 518 526 494Q515 470 496 452.5Q477 435 452.5 423Q428 411 400 405L418 397Q490 365 528 320.5Q566 276 566 205Q566 155 547.5 115.5Q529 76 494.5 48Q460 20 411.5 5Q363 -10 302 -10Q241 -10 192 2Q143 14 108.5 36.5Q74 59 55 92Q36 125 36 167Q36 199 47 224Q58 249 77.5 267.5Q97 286 123.5 298.5Q150 311 181 318L172 323Q121 346 90 390Q59 434 59 499Q59 548 76 587.5Q93 627 125 655Q157 683 201.5 697.5Q246 712 302 712Q356 712 399.5 700.5Q443 689 473.5 668Q504 647 520.5 616.5Q537 586 537 548ZM217 299Q193 282 180 252.5Q167 223 167 185Q167 127 203 90.5Q239 54 302 54Q356 54 391 79Q426 104 426 151Q426 187 403.5 209.5Q381 232 343 248ZM357 425Q382 442 397 472Q412 502 412 541Q412 589 382.5 618.5Q353 648 302 648Q251 648 223.5 622.5Q196 597 196 557Q196 522 216.5 500Q237 478 276 461Z" glyph-name="eight" horiz-adv-x="603" unicode="8" /><glyph d="M50 90Q50 135 79 163Q108 191 150 191Q171 191 189.5 183.5Q208 176 221.5 162.5Q235 149 243 130.5Q251 112 251 90Q251 68 243 50Q235 32 221.5 18.5Q208 5 189.5 -2.5Q171 -10 150 -10Q108 -10 79 18Q50 46 50 90ZM351 90Q351 135 380 163Q409 191 451 191Q472 191 490.5 183.5Q509 176 522.5 162.5Q536 149 544 130.5Q552 112 552 90Q552 68 544 50Q536 32 522.5 18.5Q509 5 490.5 -2.5Q472 -10 451 -10Q409 -10 380 18Q351 46 351 90ZM651 90Q651 112 659 130.5Q667 149 680.5 162.5Q694 176 712.5 183.5Q731 191 752 191Q773 191 791.5 183.5Q810 176 823.5 162.5Q837 149 845 130.5Q853 112 853 90Q853 68 845 50Q837 32 823.5 18.5Q810 5 791.5 -2.5Q773 -10 752 -10Q731 -10 712.5 -2.5Q694 5 680.5 18.5Q667 32 659 50Q651 68 651 90Z" glyph-name="ellipsis" horiz-adv-x="902" unicode="&#8230;" /><glyph d="M301 556Q354 556 394.5 538Q435 520 462 489Q489 458 503 416.5Q517 375 517 328V291H184Q184 212 228 166Q272 120 342 120Q392 120 427.5 138.5Q463 157 489 191L519 172Q499 90 440.5 40Q382 -10 288 -10Q232 -10 185.5 9Q139 28 105.5 62.5Q72 97 53 146Q34 195 34 255Q34 323 55 378.5Q76 434 112 473.5Q148 513 196.5 534.5Q245 556 301 556ZM284 491Q261 491 244 479.5Q227 468 215 448.5Q203 429 196 403Q189 377 186 348H370Q369 412 348.5 451.5Q328 491 284 491ZM144 718H442V625H144Z" glyph-name="emacron" horiz-adv-x="553" unicode="&#275;" /><glyph d="M950 264H50V346H950Z" glyph-name="emdash" horiz-adv-x="1000" unicode="&#8212;" /><glyph d="M50 264V346H530V264Z" glyph-name="endash" horiz-adv-x="580" unicode="&#8211;" /><glyph d="M440 376Q440 411 425.5 428.5Q411 446 373 446Q342 446 315.5 439Q289 432 267 422V118Q267 101 270 90.5Q273 80 280 74.5Q287 69 298.5 66Q310 63 327 61V0H34V61Q50 63 62.5 66Q75 69 82.5 74.5Q90 80 94 90.5Q98 101 98 118V419L39 473V506L235 560H267V452Q283 470 302.5 488.5Q322 507 346 522Q370 537 398.5 546.5Q427 556 459 556Q531 556 570 516.5Q609 477 609 392V123Q609 83 604.5 52.5Q600 22 592 -2.5Q584 -27 572.5 -47Q561 -67 546 -85Q511 -127 474.5 -156.5Q438 -186 396 -209L362 -177L402 -113Q428 -71 434 -24Q440 23 440 85Z" glyph-name="eng" horiz-adv-x="674" unicode="&#331;" /><glyph d="M301 556Q354 556 394.5 538Q435 520 462 489Q489 458 503 416.5Q517 375 517 328V291H184Q184 212 228 166Q272 120 342 120Q392 120 427.5 138.5Q463 157 489 191L519 172Q505 115 472 72.5Q439 30 388 9Q349 -13 327 -40Q305 -67 305 -96Q305 -113 315.5 -125Q326 -137 349 -137Q366 -137 383.5 -132.5Q401 -128 424 -114L441 -140Q410 -175 376 -195Q342 -215 299 -215Q261 -215 233 -193Q205 -171 205 -131Q205 -93 227 -63Q249 -33 284 -10Q229 -9 183 10Q137 29 104 63.5Q71 98 52.5 146.5Q34 195 34 255Q34 323 55 378.5Q76 434 112 473.5Q148 513 196.5 534.5Q245 556 301 556ZM284 491Q261 491 244 479.5Q227 468 215 448.5Q203 429 196 403Q189 377 186 348H370Q369 412 348.5 451.5Q328 491 284 491Z" glyph-name="eogonek" horiz-adv-x="553" unicode="&#281;" /><glyph d="M76 326H532V243H76ZM76 489H532V407H76Z" glyph-name="equal" horiz-adv-x="607" unicode="=" /><glyph d="M140 614 269 664Q203 713 119 737L140 776Q208 765 263.5 746Q319 727 365 701L482 746L500 703L413 669Q459 636 491.5 595.5Q524 555 544.5 511Q565 467 574.5 420Q584 373 584 326Q584 248 565.5 186Q547 124 511 80.5Q475 37 423 13.5Q371 -10 305 -10Q243 -10 193 11Q143 32 108 68.5Q73 105 53.5 155Q34 205 34 264Q34 329 55 379.5Q76 430 111.5 464.5Q147 499 192.5 517Q238 535 287 535Q329 535 357.5 521Q386 507 407 485Q393 523 368.5 560Q344 597 310 629L158 571ZM321 57Q344 57 362 71Q380 85 392 110.5Q404 136 410 170.5Q416 205 416 247Q416 298 408.5 341.5Q401 385 386.5 416Q372 447 351 464.5Q330 482 303 482Q255 482 231 432.5Q207 383 207 299Q207 248 214.5 203.5Q222 159 236.5 126.5Q251 94 272.5 75.5Q294 57 321 57Z" glyph-name="eth" horiz-adv-x="618" unicode="&#240;" /><glyph d="M67 88Q67 109 74.5 127Q82 145 95.5 158.5Q109 172 126 179.5Q143 187 163 187Q204 187 231.5 158.5Q259 130 259 88Q259 48 231.5 19.5Q204 -9 163 -9Q143 -9 126 -1.5Q109 6 95.5 19.5Q82 33 74.5 50.5Q67 68 67 88ZM203 233H124L68 702H259Z" glyph-name="exclam" horiz-adv-x="327" unicode="!" /><glyph d="M67 453Q67 473 74.5 490.5Q82 508 95.5 521.5Q109 535 126 542.5Q143 550 163 550Q204 550 231.5 521.5Q259 493 259 453Q259 432 251.5 413.5Q244 395 231 381.5Q218 368 200.5 360.5Q183 353 163 353Q143 353 126 360.5Q109 368 95.5 381.5Q82 395 74.5 413.5Q67 432 67 453ZM259 -162H68L124 307H203Z" glyph-name="exclamdown" horiz-adv-x="327" unicode="&#161;" /><glyph d="M271 117Q271 100 275.5 90.5Q280 81 290 75.5Q300 70 315.5 67Q331 64 353 61V0H38V61Q55 63 67 66Q79 69 87 74.5Q95 80 98.5 90.5Q102 101 102 118V475H26V532L102 551V560Q102 617 120 656.5Q138 696 168.5 721Q199 746 240.5 757.5Q282 769 329 769Q404 769 441.5 745.5Q479 722 479 677Q479 654 468.5 639.5Q458 625 444 615H362V651Q362 677 355 695.5Q348 714 322 714Q294 714 281.5 692Q269 670 269 628V546H388V475H271Z" glyph-name="f" horiz-adv-x="406" unicode="f" /><glyph d="M443 638Q428 669 403.5 691Q379 713 344 713Q269 713 269 622V546H372V475H271V118Q271 101 274 90.5Q277 80 284 74.5Q291 69 302.5 66Q314 63 331 61V0H38V61Q54 63 66.5 66Q79 69 86.5 74.5Q94 80 98 90.5Q102 101 102 118V475H26V532L102 551V560Q102 617 122 656.5Q142 696 173.5 721Q205 746 244.5 757.5Q284 769 323 769Q365 769 405.5 759Q446 749 475 733L581 761H612V461Q636 503 676 529.5Q716 556 773 556Q871 556 928 488.5Q985 421 985 301Q985 228 962.5 170.5Q940 113 900 73Q860 33 806.5 11.5Q753 -10 692 -10Q620 -10 554 6.5Q488 23 443 58ZM694 54Q722 54 744 68.5Q766 83 781.5 109Q797 135 805 171Q813 207 813 250Q813 342 778.5 396Q744 450 684 450Q643 450 612 430V161Q612 109 630.5 81.5Q649 54 694 54Z" glyph-name="f_b" horiz-adv-x="1019" /><glyph d="M785 638Q770 669 745.5 691Q721 713 686 713Q611 713 611 622V546H714V475H612V118Q612 101 615 90.5Q618 80 625 74.5Q632 69 643.5 66Q655 63 672 61V0H383V61Q400 63 411.5 66Q423 69 430 74.5Q437 80 440 90.5Q443 101 443 118V475H271V118Q271 101 274 90.5Q277 80 284 74.5Q291 69 302.5 66Q314 63 331 61V0H38V61Q54 63 66.5 66Q79 69 86.5 74.5Q94 80 98 90.5Q102 101 102 118V475H26V532L102 551V558Q102 606 121.5 642.5Q141 679 173.5 704.5Q206 730 247.5 743Q289 756 333 756Q387 756 427.5 740.5Q468 725 493 701Q526 737 572 753Q618 769 665 769Q707 769 747 759Q787 749 816 733L922 761H954V461Q978 503 1018 529.5Q1058 556 1115 556Q1213 556 1269.5 488.5Q1326 421 1326 301Q1326 228 1303.5 170.5Q1281 113 1241.5 73Q1202 33 1148.5 11.5Q1095 -10 1033 -10Q961 -10 895.5 6.5Q830 23 785 58ZM1036 54Q1064 54 1086 68.5Q1108 83 1123 109Q1138 135 1146 171Q1154 207 1154 250Q1154 342 1119.5 396Q1085 450 1025 450Q1005 450 986.5 445Q968 440 954 430V161Q954 109 972.5 81.5Q991 54 1036 54ZM443 560Q443 591 449 617Q441 632 430.5 646Q420 660 407 671Q394 682 378.5 688.5Q363 695 346 695Q269 695 269 604V546H443Z" glyph-name="f_f_b" horiz-adv-x="1361" /><glyph d="M785 638Q770 669 745.5 691Q721 713 686 713Q611 713 611 622V546H714V475H612V118Q612 101 615 90.5Q618 80 625 74.5Q632 69 643.5 66Q655 63 672 61V0H383V61Q400 63 411.5 66Q423 69 430 74.5Q437 80 440 90.5Q443 101 443 118V475H271V118Q271 101 274 90.5Q277 80 284 74.5Q291 69 302.5 66Q314 63 331 61V0H38V61Q54 63 66.5 66Q79 69 86.5 74.5Q94 80 98 90.5Q102 101 102 118V475H26V532L102 551V558Q102 606 121.5 642.5Q141 679 173.5 704.5Q206 730 247.5 743Q289 756 333 756Q387 756 427.5 740.5Q468 725 493 701Q526 737 572 753Q618 769 665 769Q707 769 747 759Q787 749 816 733L922 761H954V452Q970 470 990 488.5Q1010 507 1034 522Q1058 537 1086 546.5Q1114 556 1146 556Q1218 556 1257.5 516.5Q1297 477 1297 392V118Q1297 101 1300.5 90.5Q1304 80 1311.5 74.5Q1319 69 1331 66Q1343 63 1360 61V0H1068V61Q1085 63 1096.5 66Q1108 69 1115 74.5Q1122 80 1125 90.5Q1128 101 1128 118V376Q1128 411 1113 428.5Q1098 446 1060 446Q1029 446 1002.5 439Q976 432 954 422V118Q954 101 957 90.5Q960 80 967 74.5Q974 69 985.5 66Q997 63 1014 61V0H725V61Q742 63 753.5 66Q765 69 772 74.5Q779 80 782 90.5Q785 101 785 118ZM443 560Q443 591 449 617Q441 632 430.5 646Q420 660 407 671Q394 682 378.5 688.5Q363 695 346 695Q269 695 269 604V546H443Z" glyph-name="f_f_h" horiz-adv-x="1381" /><glyph d="M612 475V118Q612 101 615 90.5Q618 80 625 74.5Q632 69 643.5 66Q655 63 672 61V0H383V61Q400 63 411.5 66Q423 69 430 74.5Q437 80 440 90.5Q443 101 443 118V475H271V118Q271 101 274 90.5Q277 80 284 74.5Q291 69 302.5 66Q314 63 331 61V0H38V61Q54 63 66.5 66Q79 69 86.5 74.5Q94 80 98 90.5Q102 101 102 118V475H26V532L102 551V558Q102 606 121.5 642.5Q141 679 173.5 704.5Q206 730 247.5 743Q289 756 333 756Q389 756 430.5 739.5Q472 723 497 697Q535 735 589.5 752Q644 769 704 769Q789 769 834 745.5Q879 722 879 677Q879 654 868.5 639Q858 624 844 614H742V650Q742 679 730 696.5Q718 714 689 714Q657 714 634 684Q611 654 611 597V546H881L917 559H954V124Q954 84 949.5 53.5Q945 23 937 -1Q929 -25 917.5 -45Q906 -65 891 -83Q856 -125 819.5 -154.5Q783 -184 741 -207L707 -175L746 -112Q773 -69 778.5 -22Q784 25 784 87V475ZM443 559Q443 574 445 588Q447 602 450 615Q443 630 432 644.5Q421 659 407.5 670Q394 681 378.5 688Q363 695 346 695Q269 695 269 604V546H443Z" glyph-name="f_f_j" horiz-adv-x="1018" /><glyph d="M785 638Q770 669 745.5 691Q721 713 686 713Q611 713 611 622V546H714V475H612V118Q612 101 615 90.5Q618 80 625 74.5Q632 69 643.5 66Q655 63 672 61V0H383V61Q400 63 411.5 66Q423 69 430 74.5Q437 80 440 90.5Q443 101 443 118V475H271V118Q271 101 274 90.5Q277 80 284 74.5Q291 69 302.5 66Q314 63 331 61V0H38V61Q54 63 66.5 66Q79 69 86.5 74.5Q94 80 98 90.5Q102 101 102 118V475H26V532L102 551V558Q102 606 121.5 642.5Q141 679 173.5 704.5Q206 730 247.5 743Q289 756 333 756Q387 756 427.5 740.5Q468 725 493 701Q526 737 572 753Q618 769 665 769Q707 769 747 759Q787 749 816 733L922 761H954V118Q954 101 957.5 90.5Q961 80 969 74.5Q977 69 989 66Q1001 63 1018 61V0H725V61Q742 63 753.5 66Q765 69 772 74.5Q779 80 782 90.5Q785 101 785 118ZM1096 419Q1106 430 1113.5 438.5Q1121 447 1121 455Q1121 471 1106.5 476Q1092 481 1055 486V546H1312V486Q1283 478 1261.5 471Q1240 464 1222 446L1119 346L1332 47V0H1158L961 290ZM443 560Q443 591 449 617Q441 632 430.5 646Q420 660 407 671Q394 682 378.5 688.5Q363 695 346 695Q269 695 269 604V546H443Z" glyph-name="f_f_k" horiz-adv-x="1341" /><glyph d="M443 638Q428 669 403.5 691Q379 713 344 713Q269 713 269 622V546H372V475H271V118Q271 101 274 90.5Q277 80 284 74.5Q291 69 302.5 66Q314 63 331 61V0H38V61Q54 63 66.5 66Q79 69 86.5 74.5Q94 80 98 90.5Q102 101 102 118V475H26V532L102 551V560Q102 617 122 656.5Q142 696 173.5 721Q205 746 244.5 757.5Q284 769 323 769Q365 769 405.5 759Q446 749 475 733L581 761H612V452Q628 470 648.5 488.5Q669 507 693 522Q717 537 745 546.5Q773 556 805 556Q877 556 916 516.5Q955 477 955 392V118Q955 101 958.5 90.5Q962 80 970 74.5Q978 69 990 66Q1002 63 1019 61V0H726V61Q743 63 754.5 66Q766 69 773 74.5Q780 80 783 90.5Q786 101 786 118V376Q786 411 771 428.5Q756 446 718 446Q687 446 661 439Q635 432 612 422V118Q612 101 615 90.5Q618 80 625.5 74.5Q633 69 644 66Q655 63 672 61V0H383V61Q400 63 411.5 66Q423 69 430 74.5Q437 80 440 90.5Q443 101 443 118Z" glyph-name="f_h" horiz-adv-x="1040" /><glyph d="M271 475V118Q271 101 274 90.5Q277 80 284 74.5Q291 69 302.5 66Q314 63 331 61V0H38V61Q54 63 66.5 66Q79 69 86.5 74.5Q94 80 98 90.5Q102 101 102 118V475H26V532L102 551V559Q102 614 124.5 654Q147 694 183.5 719.5Q220 745 267 757Q314 769 363 769Q447 769 492 745.5Q537 722 537 677Q537 654 527 639Q517 624 503 614H401V650Q401 679 389 696.5Q377 714 348 714Q316 714 292.5 684Q269 654 269 597V546H539L576 559H612V124Q612 84 608 53.5Q604 23 596 -1Q588 -25 576.5 -45Q565 -65 550 -83Q515 -125 478 -154.5Q441 -184 399 -207L366 -175L405 -112Q432 -69 437.5 -22Q443 25 443 87V475Z" glyph-name="f_j" horiz-adv-x="677" /><glyph d="M755 419Q765 430 772 438.5Q779 447 779 455Q779 471 765 476Q751 481 714 486V546H970V486Q941 478 920 471Q899 464 880 446L777 346L990 47V0H816L620 290ZM443 638Q428 669 403.5 691Q379 713 344 713Q269 713 269 622V546H372V475H271V118Q271 101 274 90.5Q277 80 284 74.5Q291 69 302.5 66Q314 63 331 61V0H38V61Q54 63 66.5 66Q79 69 86.5 74.5Q94 80 98 90.5Q102 101 102 118V475H26V532L102 551V560Q102 617 122 656.5Q142 696 173.5 721Q205 746 244.5 757.5Q284 769 323 769Q365 769 405.5 759Q446 749 475 733L581 761H612V118Q612 101 616 90.5Q620 80 627.5 74.5Q635 69 647 66Q659 63 676 61V0H383V61Q400 63 411.5 66Q423 69 430 74.5Q437 80 440 90.5Q443 101 443 118Z" glyph-name="f_k" horiz-adv-x="999" /><glyph d="M333 756Q387 756 427 740.5Q467 725 492 701Q524 736 570.5 752.5Q617 769 671 769Q746 769 783 745.5Q820 722 820 677Q820 654 810 639.5Q800 625 786 615H704V651Q704 677 696.5 695.5Q689 714 663 714Q636 714 623.5 692Q611 670 611 628V546H730V475H612V117Q612 100 616.5 90.5Q621 81 631 75.5Q641 70 657 67Q673 64 695 61V0H383V61Q400 63 411.5 66Q423 69 430 74.5Q437 80 440 90.5Q443 101 443 118V475H271V118Q271 101 274 90.5Q277 80 284 74.5Q291 69 302.5 66Q314 63 331 61V0H38V61Q54 63 66.5 66Q79 69 86.5 74.5Q94 80 98 90.5Q102 101 102 118V475H26V532L102 551V558Q102 606 121.5 642.5Q141 679 173.5 704.5Q206 730 247.5 743Q289 756 333 756ZM443 560Q443 591 449 617Q441 632 430.5 646Q420 660 407 671Q394 682 378.5 688.5Q363 695 346 695Q269 695 269 604V546H443Z" glyph-name="ff" horiz-adv-x="747" unicode="&#64256;" /><glyph d="M333 756Q389 756 430.5 739.5Q472 723 497 697Q535 735 589.5 752Q644 769 704 769Q789 769 834 745.5Q879 722 879 677Q879 654 868.5 639Q858 624 844 614H742V650Q742 679 730 696.5Q718 714 689 714Q657 714 634 684Q611 654 611 597V546H881L917 559H954V118Q954 101 957.5 90.5Q961 80 969 74.5Q977 69 989 66Q1001 63 1018 61V0H725V61Q742 63 753.5 66Q765 69 772 74.5Q779 80 782 90.5Q785 101 785 118V475H612V118Q612 101 615 90.5Q618 80 625 74.5Q632 69 643.5 66Q655 63 672 61V0H383V61Q400 63 411.5 66Q423 69 430 74.5Q437 80 440 90.5Q443 101 443 118V475H271V118Q271 101 274 90.5Q277 80 284 74.5Q291 69 302.5 66Q314 63 331 61V0H38V61Q54 63 66.5 66Q79 69 86.5 74.5Q94 80 98 90.5Q102 101 102 118V475H26V532L102 551V558Q102 606 121.5 642.5Q141 679 173.5 704.5Q206 730 247.5 743Q289 756 333 756ZM269 546H443V559Q443 574 445 588Q447 602 450 615Q443 630 432 644.5Q421 659 407.5 670Q394 681 378.5 688Q363 695 346 695Q269 695 269 604Z" glyph-name="ffi" horiz-adv-x="1044" unicode="&#64259;" /><glyph d="M102 558Q102 606 121.5 642.5Q141 679 173.5 704.5Q206 730 247.5 743Q289 756 333 756Q387 756 427.5 740.5Q468 725 493 701Q526 737 572 753Q618 769 665 769Q707 769 747 759Q787 749 816 733L922 761H954V118Q954 101 957.5 90.5Q961 80 969 74.5Q977 69 989 66Q1001 63 1018 61V0H725V61Q742 63 753.5 66Q765 69 772 74.5Q779 80 782 90.5Q785 101 785 118V638Q770 669 745.5 691Q721 713 686 713Q611 713 611 622V546H714V475H612V118Q612 101 615 90.5Q618 80 625 74.5Q632 69 643.5 66Q655 63 672 61V0H383V61Q400 63 411.5 66Q423 69 430 74.5Q437 80 440 90.5Q443 101 443 118V475H271V118Q271 101 274 90.5Q277 80 284 74.5Q291 69 302.5 66Q314 63 331 61V0H38V61Q54 63 66.5 66Q79 69 86.5 74.5Q94 80 98 90.5Q102 101 102 118V475H26V532L102 551ZM443 560Q443 591 449 617Q441 632 430.5 646Q420 660 407 671Q394 682 378.5 688.5Q363 695 346 695Q269 695 269 604V546H443Z" glyph-name="ffl" horiz-adv-x="1044" unicode="&#64260;" /><glyph d="M38 0V61Q54 63 66.5 66Q79 69 86.5 74.5Q94 80 98 90.5Q102 101 102 118V475H26V532L102 551V559Q102 614 124.5 654Q147 694 183.5 719.5Q220 745 267 757Q314 769 363 769Q447 769 492 745.5Q537 722 537 677Q537 654 527 639Q517 624 503 614H401V650Q401 679 389 696.5Q377 714 348 714Q316 714 292.5 684Q269 654 269 597V546H539L576 559H612V118Q612 101 615.5 90.5Q619 80 627 74.5Q635 69 647 66Q659 63 676 61V0H383V61Q400 63 411.5 66Q423 69 430 74.5Q437 80 440 90.5Q443 101 443 118V475H271V118Q271 101 274 90.5Q277 80 284 74.5Q291 69 302.5 66Q314 63 331 61V0Z" glyph-name="fi" horiz-adv-x="703" unicode="&#64257;" /><glyph d="M478 547H166L153 463Q233 461 300 447Q367 433 415.5 403Q464 373 491 327Q518 281 518 217Q518 163 499 120.5Q480 78 446 49.5Q412 21 365 6Q318 -9 263 -9Q205 -9 161 2.5Q117 14 87 33.5Q57 53 41.5 79.5Q26 106 26 136Q26 165 40.5 185.5Q55 206 72 214H173V185Q173 52 279 52Q330 52 355 80.5Q380 109 380 153Q380 231 303.5 273.5Q227 316 71 316L135 702H478Z" glyph-name="five" horiz-adv-x="555" unicode="5" /><glyph d="M102 475H26V532L102 551V560Q102 617 122 656.5Q142 696 173.5 721Q205 746 244.5 757.5Q284 769 323 769Q365 769 405.5 759Q446 749 475 733L581 761H612V118Q612 101 616 90.5Q620 80 627.5 74.5Q635 69 647 66Q659 63 676 61V0H383V61Q400 63 411.5 66Q423 69 430 74.5Q437 80 440 90.5Q443 101 443 118V638Q428 669 403.5 691Q379 713 344 713Q269 713 269 622V546H372V475H271V118Q271 101 274 90.5Q277 80 284 74.5Q291 69 302.5 66Q314 63 331 61V0H38V61Q54 63 66.5 66Q79 69 86.5 74.5Q94 80 98 90.5Q102 101 102 118Z" glyph-name="fl" horiz-adv-x="702" unicode="&#64258;" /><glyph d="M62 351H154L160 402Q177 556 235.5 634Q294 712 407 712Q434 712 459 707Q484 702 503.5 691.5Q523 681 534.5 664Q546 647 546 623Q546 600 534.5 583Q523 566 499 558H444Q444 579 442.5 598.5Q441 618 436.5 632.5Q432 647 424 655.5Q416 664 402 664Q380 664 370 645Q360 626 357 599L328 351H440L435 293H322L304 136Q287 -17 228.5 -95.5Q170 -174 57 -174Q30 -174 5 -169Q-20 -164 -39.5 -153.5Q-59 -143 -70.5 -126Q-82 -109 -82 -85Q-82 -62 -70.5 -44.5Q-59 -27 -35 -19H20Q20 -40 21.5 -59.5Q23 -79 27.5 -94Q32 -109 40.5 -117.5Q49 -126 63 -126Q84 -126 94 -106.5Q104 -87 107 -61L147 293H55Z" glyph-name="florin" horiz-adv-x="548" unicode="&#402;" /><glyph d="M336 254V554L104 254ZM336 181H9V240L363 702H495V254H620V181H495V132Q495 112 498.5 99Q502 86 511.5 78.5Q521 71 537 67.5Q553 64 579 63V0H250V63Q275 64 292 67.5Q309 71 318.5 78.5Q328 86 332 99Q336 112 336 132Z" glyph-name="four" horiz-adv-x="643" unicode="4" /><glyph d="M353 772H434L-70 0H-151Z" glyph-name="fraction" horiz-adv-x="283" unicode="&#8260;" /><glyph d="M280 195Q254 195 227 198.5Q200 202 175 210Q160 193 153 182Q146 171 146 158Q146 135 173 135H411Q496 135 538 97Q580 59 580 -8Q580 -55 558 -92Q536 -129 495.5 -154.5Q455 -180 399 -193.5Q343 -207 274 -207Q155 -207 87.5 -178Q20 -149 20 -89Q20 -70 28.5 -55.5Q37 -41 50 -30.5Q63 -20 79 -13Q95 -6 110 -2Q79 9 59.5 33Q40 57 40 96Q40 135 66.5 164.5Q93 194 144 223Q102 243 75.5 278Q49 313 49 367Q49 411 67 446Q85 481 116.5 505.5Q148 530 192 543Q236 556 287 556Q317 556 341.5 552Q366 548 386 542L570 550V463H528L445 481V475Q477 459 495.5 433.5Q514 408 514 370Q514 329 496.5 296.5Q479 264 447.5 241.5Q416 219 373.5 207Q331 195 280 195ZM136 -24Q125 -36 125 -61Q125 -106 167 -127.5Q209 -149 280 -149Q315 -149 346 -144.5Q377 -140 400 -130.5Q423 -121 436 -105Q449 -89 449 -66Q449 -43 433 -33.5Q417 -24 391 -24ZM287 249Q322 249 336.5 279Q351 309 351 361Q351 391 346 416.5Q341 442 331.5 460.5Q322 479 307.5 490Q293 501 274 501Q239 501 224.5 470.5Q210 440 210 389Q210 360 214.5 334.5Q219 309 229 290Q239 271 253 260Q267 249 287 249Z" glyph-name="g" horiz-adv-x="586" unicode="g" /><glyph d="M280 195Q254 195 227 198.5Q200 202 175 210Q160 193 153 182Q146 171 146 158Q146 135 173 135H411Q496 135 538 97Q580 59 580 -8Q580 -55 558 -92Q536 -129 495.5 -154.5Q455 -180 399 -193.5Q343 -207 274 -207Q155 -207 87.5 -178Q20 -149 20 -89Q20 -70 28.5 -55.5Q37 -41 50 -30.5Q63 -20 79 -13Q95 -6 110 -2Q79 9 59.5 33Q40 57 40 96Q40 135 66.5 164.5Q93 194 144 223Q102 243 75.5 278Q49 313 49 367Q49 411 67 446Q85 481 116.5 505.5Q148 530 192 543Q236 556 287 556Q317 556 341.5 552Q366 548 386 542L570 550V463H528L445 481V475Q477 459 495.5 433.5Q514 408 514 370Q514 329 496.5 296.5Q479 264 447.5 241.5Q416 219 373.5 207Q331 195 280 195ZM136 -24Q125 -36 125 -61Q125 -106 167 -127.5Q209 -149 280 -149Q315 -149 346 -144.5Q377 -140 400 -130.5Q423 -121 436 -105Q449 -89 449 -66Q449 -43 433 -33.5Q417 -24 391 -24ZM287 249Q322 249 336.5 279Q351 309 351 361Q351 391 346 416.5Q341 442 331.5 460.5Q322 479 307.5 490Q293 501 274 501Q239 501 224.5 470.5Q210 440 210 389Q210 360 214.5 334.5Q219 309 229 290Q239 271 253 260Q267 249 287 249ZM300 601Q226 601 185.5 645.5Q145 690 145 771H209Q212 747 221 731Q230 715 242.5 705.5Q255 696 270 692Q285 688 300 688Q315 688 330.5 692Q346 696 358.5 705.5Q371 715 380 731Q389 747 392 771H456Q456 690 415.5 645.5Q375 601 300 601Z" glyph-name="gbreve" horiz-adv-x="586" unicode="&#287;" /><glyph d="M501 596H415L301 681L187 596H101L240 766H362ZM280 195Q254 195 227 198.5Q200 202 175 210Q160 193 153 182Q146 171 146 158Q146 135 173 135H411Q496 135 538 97Q580 59 580 -8Q580 -55 558 -92Q536 -129 495.5 -154.5Q455 -180 399 -193.5Q343 -207 274 -207Q155 -207 87.5 -178Q20 -149 20 -89Q20 -70 28.5 -55.5Q37 -41 50 -30.5Q63 -20 79 -13Q95 -6 110 -2Q79 9 59.5 33Q40 57 40 96Q40 135 66.5 164.5Q93 194 144 223Q102 243 75.5 278Q49 313 49 367Q49 411 67 446Q85 481 116.5 505.5Q148 530 192 543Q236 556 287 556Q317 556 341.5 552Q366 548 386 542L570 550V463H528L445 481V475Q477 459 495.5 433.5Q514 408 514 370Q514 329 496.5 296.5Q479 264 447.5 241.5Q416 219 373.5 207Q331 195 280 195ZM136 -24Q125 -36 125 -61Q125 -106 167 -127.5Q209 -149 280 -149Q315 -149 346 -144.5Q377 -140 400 -130.5Q423 -121 436 -105Q449 -89 449 -66Q449 -43 433 -33.5Q417 -24 391 -24ZM287 249Q322 249 336.5 279Q351 309 351 361Q351 391 346 416.5Q341 442 331.5 460.5Q322 479 307.5 490Q293 501 274 501Q239 501 224.5 470.5Q210 440 210 389Q210 360 214.5 334.5Q219 309 229 290Q239 271 253 260Q267 249 287 249Z" glyph-name="gcircumflex" horiz-adv-x="586" unicode="&#285;" /><glyph d="M340 718Q363 713 376 699Q389 685 389 659Q389 633 367.5 615Q346 597 308 597Q264 597 239.5 623.5Q215 650 215 691Q215 715 224 736.5Q233 758 252.5 773.5Q272 789 304 798Q336 807 381 807V765Q333 765 309 752Q285 739 283 718ZM280 195Q254 195 227 198.5Q200 202 175 210Q160 193 153 182Q146 171 146 158Q146 135 173 135H411Q496 135 538 97Q580 59 580 -8Q580 -55 558 -92Q536 -129 495.5 -154.5Q455 -180 399 -193.5Q343 -207 274 -207Q155 -207 87.5 -178Q20 -149 20 -89Q20 -70 28.5 -55.5Q37 -41 50 -30.5Q63 -20 79 -13Q95 -6 110 -2Q79 9 59.5 33Q40 57 40 96Q40 135 66.5 164.5Q93 194 144 223Q102 243 75.5 278Q49 313 49 367Q49 411 67 446Q85 481 116.5 505.5Q148 530 192 543Q236 556 287 556Q317 556 341.5 552Q366 548 386 542L570 550V463H528L445 481V475Q477 459 495.5 433.5Q514 408 514 370Q514 329 496.5 296.5Q479 264 447.5 241.5Q416 219 373.5 207Q331 195 280 195ZM136 -24Q125 -36 125 -61Q125 -106 167 -127.5Q209 -149 280 -149Q315 -149 346 -144.5Q377 -140 400 -130.5Q423 -121 436 -105Q449 -89 449 -66Q449 -43 433 -33.5Q417 -24 391 -24ZM287 249Q322 249 336.5 279Q351 309 351 361Q351 391 346 416.5Q341 442 331.5 460.5Q322 479 307.5 490Q293 501 274 501Q239 501 224.5 470.5Q210 440 210 389Q210 360 214.5 334.5Q219 309 229 290Q239 271 253 260Q267 249 287 249Z" glyph-name="gcommaaccent" horiz-adv-x="586" unicode="&#291;" /><glyph d="M280 195Q254 195 227 198.5Q200 202 175 210Q160 193 153 182Q146 171 146 158Q146 135 173 135H411Q496 135 538 97Q580 59 580 -8Q580 -55 558 -92Q536 -129 495.5 -154.5Q455 -180 399 -193.5Q343 -207 274 -207Q155 -207 87.5 -178Q20 -149 20 -89Q20 -70 28.5 -55.5Q37 -41 50 -30.5Q63 -20 79 -13Q95 -6 110 -2Q79 9 59.5 33Q40 57 40 96Q40 135 66.5 164.5Q93 194 144 223Q102 243 75.5 278Q49 313 49 367Q49 411 67 446Q85 481 116.5 505.5Q148 530 192 543Q236 556 287 556Q317 556 341.5 552Q366 548 386 542L570 550V463H528L445 481V475Q477 459 495.5 433.5Q514 408 514 370Q514 329 496.5 296.5Q479 264 447.5 241.5Q416 219 373.5 207Q331 195 280 195ZM136 -24Q125 -36 125 -61Q125 -106 167 -127.5Q209 -149 280 -149Q315 -149 346 -144.5Q377 -140 400 -130.5Q423 -121 436 -105Q449 -89 449 -66Q449 -43 433 -33.5Q417 -24 391 -24ZM287 249Q322 249 336.5 279Q351 309 351 361Q351 391 346 416.5Q341 442 331.5 460.5Q322 479 307.5 490Q293 501 274 501Q239 501 224.5 470.5Q210 440 210 389Q210 360 214.5 334.5Q219 309 229 290Q239 271 253 260Q267 249 287 249ZM302 601Q257 601 231.5 627.5Q206 654 206 690Q206 726 231.5 752.5Q257 779 302 779Q346 779 371 752.5Q396 726 396 690Q396 654 371 627.5Q346 601 302 601Z" glyph-name="gdotaccent" horiz-adv-x="586" unicode="&#289;" /><glyph d="M487 443Q487 425 504 410.5Q521 396 569 370Q601 352 628.5 333.5Q656 315 676 292.5Q696 270 707 241Q718 212 718 173Q718 130 702 96Q686 62 658 38.5Q630 15 591 2.5Q552 -10 506 -10Q450 -10 409.5 6Q369 22 340 49L334 172H410Q420 113 445 82.5Q470 52 508 52Q540 52 558.5 68.5Q577 85 577 114Q577 130 572 143Q567 156 556 168.5Q545 181 526.5 193.5Q508 206 480 223Q418 259 386.5 293.5Q355 328 355 381Q355 406 364.5 425Q374 444 389 461Q404 478 420.5 494.5Q437 511 452 529.5Q467 548 476.5 570Q486 592 486 621Q486 663 463.5 689.5Q441 716 394 716Q337 716 303.5 674.5Q270 633 270 559V0H38V61Q55 63 67 66Q79 69 87 74.5Q95 80 98.5 90.5Q102 101 102 118V467H26V524L102 543Q111 603 138 646Q165 689 204 716.5Q243 744 291 756.5Q339 769 390 769Q436 769 477 760Q518 751 548.5 732.5Q579 714 596.5 686Q614 658 614 621Q614 595 604.5 575.5Q595 556 581 541Q567 526 550.5 514.5Q534 503 520 492Q506 481 496.5 469.5Q487 458 487 443Z" glyph-name="germandbls" horiz-adv-x="752" unicode="&#223;" /><glyph d="M299 765 367 603H283L129 765Z" glyph-name="grave" horiz-adv-x="500" unicode="`" /><glyph d="M299 909 372 753H283L127 909Z" glyph-name="grave.cap" horiz-adv-x="500" /><glyph d="M402 358 70 153V254L255 364L70 472V573L402 368Z" glyph-name="greater" horiz-adv-x="453" unicode="&gt;" /><glyph d="M412 404 80 223V321L252 408L80 496V595L412 414ZM412 102H80V189H412Z" glyph-name="greaterequal" horiz-adv-x="473" unicode="&#8805;" /><glyph d="M37 281 214 479H293L180 276L293 73H214L37 271ZM253 281 430 479H510L395 276L510 73H430L253 271Z" glyph-name="guillemotleft" horiz-adv-x="547" unicode="&#171;" /><glyph d="M293 271 118 73H37L151 276L37 479H118L293 281ZM510 271 333 73H254L368 276L254 479H333L510 281Z" glyph-name="guillemotright" horiz-adv-x="547" unicode="&#187;" /><glyph d="M37 281 214 479H293L180 276L293 73H214L37 271Z" glyph-name="guilsinglleft" horiz-adv-x="330" unicode="&#8249;" /><glyph d="M293 271 118 73H37L151 276L37 479H118L293 281Z" glyph-name="guilsinglright" horiz-adv-x="330" unicode="&#8250;" /><glyph d="M257 452Q273 470 293.5 488.5Q314 507 338 522Q362 537 390 546.5Q418 556 450 556Q522 556 561 516.5Q600 477 600 392V118Q600 101 603.5 90.5Q607 80 615 74.5Q623 69 635 66Q647 63 664 61V0H371V61Q388 63 399.5 66Q411 69 418 74.5Q425 80 428 90.5Q431 101 431 118V376Q431 411 416 428.5Q401 446 363 446Q332 446 306 439Q280 432 257 422V118Q257 101 260 90.5Q263 80 270.5 74.5Q278 69 289 66Q300 63 317 61V0H24V61Q41 63 53.5 66Q66 69 73.5 74.5Q81 80 84.5 90.5Q88 101 88 118V632L29 686V720L227 761H257Z" glyph-name="h" horiz-adv-x="685" unicode="h" /><glyph d="M263 578V447Q279 465 299.5 483.5Q320 502 344 517Q368 532 396 541.5Q424 551 456 551Q528 551 567 511.5Q606 472 606 387V118Q606 101 609.5 90.5Q613 80 621 74.5Q629 69 641 66Q653 63 670 61V0H377V61Q394 63 405.5 66Q417 69 424 74.5Q431 80 434 90.5Q437 101 437 118V371Q437 406 422 423.5Q407 441 369 441Q338 441 312 434Q286 427 263 417V118Q263 101 266 90.5Q269 80 276.5 74.5Q284 69 295 66Q306 63 323 61V0H30V61Q47 63 59.5 66Q72 69 79.5 74.5Q87 80 90.5 90.5Q94 101 94 118V578H35V627H94V683H35V726L233 761H263V627H393V578Z" glyph-name="hbar" horiz-adv-x="691" unicode="&#295;" /><glyph d="M257 452Q273 470 293.5 488.5Q314 507 338 522Q362 537 390 546.5Q418 556 450 556Q522 556 561 516.5Q600 477 600 392V118Q600 101 603.5 90.5Q607 80 615 74.5Q623 69 635 66Q647 63 664 61V0H371V61Q388 63 399.5 66Q411 69 418 74.5Q425 80 428 90.5Q431 101 431 118V376Q431 411 416 428.5Q401 446 363 446Q332 446 306 439Q280 432 257 422V118Q257 101 260 90.5Q263 80 270.5 74.5Q278 69 289 66Q300 63 317 61V0H24V61Q41 63 53.5 66Q66 69 73.5 74.5Q81 80 84.5 90.5Q88 101 88 118V632L29 686V720L227 761H257ZM535 790H449L333 872L217 790H131L272 957H394Z" glyph-name="hcircumflex" horiz-adv-x="685" unicode="&#293;" /><glyph d="M268 765 132 603H54L121 765ZM454 765 318 603H240L307 765Z" glyph-name="hungarumlaut" horiz-adv-x="500" unicode="&#733;" /><glyph d="M268 909 132 753H54L121 909ZM454 909 318 753H240L307 909Z" glyph-name="hungarumlaut.cap" horiz-adv-x="500" /><glyph d="M50 251V359H310V251Z" glyph-name="hyphen" horiz-adv-x="360" unicode="-" /><glyph d="M267 118Q267 101 270.5 90.5Q274 80 282 74.5Q290 69 302 66Q314 63 331 61V0H34V61Q50 63 62.5 66Q75 69 82.5 74.5Q90 80 94 90.5Q98 101 98 118V422L39 477V506L235 557H267ZM180 597Q135 597 109.5 623.5Q84 650 84 686Q84 722 109.5 748.5Q135 775 180 775Q224 775 249 748.5Q274 722 274 686Q274 650 249 623.5Q224 597 180 597Z" glyph-name="i" horiz-adv-x="357" unicode="i" /><glyph d="M371 765 217 603H132L201 765ZM267 118Q267 101 270.5 90.5Q274 80 282 74.5Q290 69 302 66Q314 63 331 61V0H34V61Q50 63 62.5 66Q75 69 82.5 74.5Q90 80 94 90.5Q98 101 98 118V422L39 477V506L235 557H267Z" glyph-name="iacute" horiz-adv-x="357" unicode="&#237;" /><glyph d="M267 118Q267 101 270.5 90.5Q274 80 282 74.5Q290 69 302 66Q314 63 331 61V0H34V61Q50 63 62.5 66Q75 69 82.5 74.5Q90 80 94 90.5Q98 101 98 118V422L39 477V506L235 557H267ZM181 601Q107 601 66.5 645.5Q26 690 26 771H90Q93 747 102 731Q111 715 123.5 705.5Q136 696 151 692Q166 688 181 688Q196 688 211.5 692Q227 696 239.5 705.5Q252 715 261 731Q270 747 273 771H337Q337 690 296.5 645.5Q256 601 181 601Z" glyph-name="ibreve" horiz-adv-x="357" unicode="&#301;" /><glyph d="M382 596H296L182 681L68 596H-18L121 766H243ZM267 118Q267 101 270.5 90.5Q274 80 282 74.5Q290 69 302 66Q314 63 331 61V0H34V61Q50 63 62.5 66Q75 69 82.5 74.5Q90 80 94 90.5Q98 101 98 118V422L39 477V506L235 557H267Z" glyph-name="icircumflex" horiz-adv-x="357" unicode="&#238;" /><glyph d="M-8 688Q-8 722 16 746.5Q40 771 75 771Q110 771 134.5 746.5Q159 722 159 688Q159 654 134.5 629.5Q110 605 75 605Q40 605 16 629.5Q-8 654 -8 688ZM206 688Q206 705 212.5 720Q219 735 230.5 746.5Q242 758 256.5 764.5Q271 771 288 771Q324 771 348.5 746.5Q373 722 373 688Q373 654 348.5 629.5Q324 605 288 605Q271 605 256.5 611.5Q242 618 230.5 629.5Q219 641 212.5 656Q206 671 206 688ZM267 118Q267 101 270.5 90.5Q274 80 282 74.5Q290 69 302 66Q314 63 331 61V0H34V61Q50 63 62.5 66Q75 69 82.5 74.5Q90 80 94 90.5Q98 101 98 118V422L39 477V506L235 557H267Z" glyph-name="idieresis" horiz-adv-x="357" unicode="&#239;" /><glyph d="M267 118Q267 101 270.5 90.5Q274 80 282 74.5Q290 69 302 66Q314 63 331 61V0H34V61Q50 63 62.5 66Q75 69 82.5 74.5Q90 80 94 90.5Q98 101 98 118V422L39 477V506L235 557H267ZM183 601Q138 601 112.5 627.5Q87 654 87 690Q87 726 112.5 752.5Q138 779 183 779Q227 779 252 752.5Q277 726 277 690Q277 654 252 627.5Q227 601 183 601Z" glyph-name="idotaccent" horiz-adv-x="357" /><glyph d="M267 118Q267 101 270.5 90.5Q274 80 282 74.5Q290 69 302 66Q314 63 331 61V0H34V61Q50 63 62.5 66Q75 69 82.5 74.5Q90 80 94 90.5Q98 101 98 118V422L39 477V506L235 557H267ZM161 765 229 603H145L-9 765Z" glyph-name="igrave" horiz-adv-x="357" unicode="&#236;" /><glyph d="M44 718H311V625H44ZM267 118Q267 101 270.5 90.5Q274 80 282 74.5Q290 69 302 66Q314 63 331 61V0H34V61Q50 63 62.5 66Q75 69 82.5 74.5Q90 80 94 90.5Q98 101 98 118V422L39 477V506L235 557H267Z" glyph-name="imacron" horiz-adv-x="357" unicode="&#299;" /><glyph d="M267 118Q267 101 270.5 90.5Q274 80 282 74.5Q290 69 302 66Q314 63 331 61V0H233Q198 -20 179.5 -44.5Q161 -69 161 -96Q161 -113 171.5 -125Q182 -137 206 -137Q223 -137 240 -132.5Q257 -128 280 -114L298 -140Q266 -175 232 -195Q198 -215 156 -215Q117 -215 89 -193Q61 -171 61 -131Q61 -87 89.5 -55Q118 -23 160 0H34V61Q50 63 62.5 66Q75 69 82.5 74.5Q90 80 94 90.5Q98 101 98 118V422L39 477V506L235 557H267ZM180 597Q135 597 109.5 623.5Q84 650 84 686Q84 722 109.5 748.5Q135 775 180 775Q224 775 249 748.5Q274 722 274 686Q274 650 249 623.5Q224 597 180 597Z" glyph-name="iogonek" horiz-adv-x="357" unicode="&#303;" /><glyph d="M368 755Q348 710 332.5 682Q317 654 302 638.5Q287 623 272 617.5Q257 612 238 612Q219 612 203 621.5Q187 631 172.5 643Q158 655 145.5 664.5Q133 674 121 674Q99 674 85 658Q71 642 56 618L1 629Q20 674 36 702.5Q52 731 66.5 746.5Q81 762 96.5 767.5Q112 773 132 773Q153 773 169.5 763Q186 753 199.5 741.5Q213 730 224.5 720Q236 710 248 710Q270 710 284 726Q298 742 313 767ZM267 118Q267 101 270.5 90.5Q274 80 282 74.5Q290 69 302 66Q314 63 331 61V0H34V61Q50 63 62.5 66Q75 69 82.5 74.5Q90 80 94 90.5Q98 101 98 118V422L39 477V506L235 557H267Z" glyph-name="itilde" horiz-adv-x="357" unicode="&#297;" /><glyph d="M248 123Q248 83 243.5 52.5Q239 22 231 -2.5Q223 -27 211.5 -47Q200 -67 185 -85Q150 -127 113.5 -156.5Q77 -186 35 -209L1 -177L40 -113Q67 -71 72.5 -24Q78 23 78 85V422L20 477V506L217 557H248ZM161 597Q117 597 91.5 623.5Q66 650 66 686Q66 722 91.5 748.5Q117 775 161 775Q205 775 230.5 748.5Q256 722 256 686Q256 650 230.5 623.5Q205 597 161 597Z" glyph-name="j" horiz-adv-x="312" unicode="j" /><glyph d="M248 123Q248 83 243.5 52.5Q239 22 231 -2.5Q223 -27 211.5 -47Q200 -67 185 -85Q150 -127 113.5 -156.5Q77 -186 35 -209L1 -177L40 -113Q67 -71 72.5 -24Q78 23 78 85V422L20 477V506L217 557H248ZM361 596H275L161 681L47 596H-39L100 766H222Z" glyph-name="jcircumflex" horiz-adv-x="312" unicode="&#309;" /><glyph d="M400 419Q410 430 417 438.5Q424 447 424 455Q424 471 410 476Q396 481 359 486V546H615V486Q586 478 565 471Q544 464 525 446L422 346L635 47V0H461L265 290ZM257 118Q257 101 261 90.5Q265 80 272.5 74.5Q280 69 292 66Q304 63 321 61V0H24V61Q41 63 53.5 66Q66 69 73.5 74.5Q81 80 84.5 90.5Q88 101 88 118V632L29 686V720L227 761H257Z" glyph-name="k" horiz-adv-x="644" unicode="k" /><glyph d="M291 -157Q268 -151 255.5 -137Q243 -123 243 -98Q243 -72 264 -54Q285 -36 323 -36Q368 -36 392.5 -62Q417 -88 417 -130Q417 -154 408 -175.5Q399 -197 379 -212.5Q359 -228 327.5 -237Q296 -246 250 -246V-203Q298 -203 322 -190Q346 -177 348 -157ZM400 419Q410 430 417 438.5Q424 447 424 455Q424 471 410 476Q396 481 359 486V546H615V486Q586 478 565 471Q544 464 525 446L422 346L635 47V0H461L265 290ZM257 118Q257 101 261 90.5Q265 80 272.5 74.5Q280 69 292 66Q304 63 321 61V0H24V61Q41 63 53.5 66Q66 69 73.5 74.5Q81 80 84.5 90.5Q88 101 88 118V632L29 686V720L227 761H257Z" glyph-name="kcommaaccent" horiz-adv-x="644" unicode="&#311;" /><glyph d="M400 419Q410 430 417 438.5Q424 447 424 455Q424 471 410 476Q396 481 359 486V546H615V486Q586 478 565 471Q544 464 525 446L422 346L635 47V0H461L265 290ZM257 118Q257 101 261 90.5Q265 80 272.5 74.5Q280 69 292 66Q304 63 321 61V0H24V61Q41 63 53.5 66Q66 69 73.5 74.5Q81 80 84.5 90.5Q88 101 88 118V427L29 481V515L227 556H257Z" glyph-name="kgreenlandic" horiz-adv-x="644" unicode="&#312;" /><glyph d="M256 118Q256 101 259.5 90.5Q263 80 271 74.5Q279 69 291 66Q303 63 320 61V0H24V61Q41 63 53.5 66Q66 69 73.5 74.5Q81 80 84.5 90.5Q88 101 88 118V632L29 686V720L225 761H256Z" glyph-name="l" horiz-adv-x="347" unicode="l" /><glyph d="M365 947 209 791H120L193 947ZM256 118Q256 101 259.5 90.5Q263 80 271 74.5Q279 69 291 66Q303 63 320 61V0H24V61Q41 63 53.5 66Q66 69 73.5 74.5Q81 80 84.5 90.5Q88 101 88 118V632L29 686V720L225 761H256Z" glyph-name="lacute" horiz-adv-x="347" unicode="&#314;" /><glyph d="M392 560H324L339 765H483ZM256 118Q256 101 259.5 90.5Q263 80 271 74.5Q279 69 291 66Q303 63 320 61V0H24V61Q41 63 53.5 66Q66 69 73.5 74.5Q81 80 84.5 90.5Q88 101 88 118V632L29 686V720L225 761H256Z" glyph-name="lcaron" horiz-adv-x="360" unicode="&#318;" /><glyph d="M134 -157Q111 -151 98.5 -137Q86 -123 86 -98Q86 -72 107 -54Q128 -36 166 -36Q211 -36 235.5 -62Q260 -88 260 -130Q260 -154 251 -175.5Q242 -197 222 -212.5Q202 -228 170.5 -237Q139 -246 93 -246V-203Q141 -203 165 -190Q189 -177 191 -157ZM256 118Q256 101 259.5 90.5Q263 80 271 74.5Q279 69 291 66Q303 63 320 61V0H24V61Q41 63 53.5 66Q66 69 73.5 74.5Q81 80 84.5 90.5Q88 101 88 118V632L29 686V720L225 761H256Z" glyph-name="lcommaaccent" horiz-adv-x="347" unicode="&#316;" /><glyph d="M256 118Q256 101 259.5 90.5Q263 80 271 74.5Q279 69 291 66Q303 63 320 61V0H24V61Q41 63 53.5 66Q66 69 73.5 74.5Q81 80 84.5 90.5Q88 101 88 118V632L29 686V720L225 761H256ZM415 295Q370 295 344.5 321.5Q319 348 319 384Q319 420 344.5 446.5Q370 473 415 473Q459 473 484 446.5Q509 420 509 384Q509 348 484 321.5Q459 295 415 295Z" glyph-name="ldot" horiz-adv-x="491" unicode="&#320;" /><glyph d="M51 368 383 573V472L197 364L383 254V153L51 358Z" glyph-name="less" horiz-adv-x="453" unicode="&lt;" /><glyph d="M61 414 393 595V496L222 408L393 321V223L61 404ZM61 189H393V102H61Z" glyph-name="lessequal" horiz-adv-x="473" unicode="&#8804;" /><glyph d="M273 499 362 548V477L273 428V118Q273 101 276.5 90.5Q280 80 287.5 74.5Q295 69 307 66Q319 63 336 61V0H40V61Q57 63 69.5 66Q82 69 89.5 74.5Q97 80 100.5 90.5Q104 101 104 118V347L21 301V372L104 417V632L45 686V720L241 761H273Z" glyph-name="lslash" horiz-adv-x="380" unicode="&#322;" /><glyph d="M707 0V61Q724 63 735 66Q746 69 752.5 74.5Q759 80 761.5 90.5Q764 101 764 118V376Q764 414 749 430Q734 446 695 446Q667 446 645 439Q623 432 600 422V118Q600 101 602.5 90.5Q605 80 612 74.5Q619 69 630 66Q641 63 658 61V0H373V61Q390 63 401 66Q412 69 419 74.5Q426 80 428.5 90.5Q431 101 431 118V376Q431 414 415.5 430Q400 446 362 446Q333 446 311.5 439Q290 432 267 422V118Q267 101 269.5 90.5Q272 80 278.5 74.5Q285 69 296 66Q307 63 324 61V0H34V61Q50 63 62.5 66Q75 69 82.5 74.5Q90 80 94 90.5Q98 101 98 118V419L39 473V506L235 560H267V452Q283 470 301.5 488.5Q320 507 342.5 522Q365 537 391.5 546.5Q418 556 451 556Q501 556 540 530Q579 504 593 448Q609 465 629.5 484Q650 503 674.5 519Q699 535 728 545.5Q757 556 791 556Q858 556 895.5 518Q933 480 933 394V118Q933 101 936.5 90.5Q940 80 948 74.5Q956 69 968 66Q980 63 997 61V0Z" glyph-name="m" horiz-adv-x="1018" unicode="m" /><glyph d="M101 718H399V625H101Z" glyph-name="macron" horiz-adv-x="500" unicode="&#175;" /><glyph d="M95 860H405V763H95Z" glyph-name="macron.cap" horiz-adv-x="500" /><glyph d="M70 409H525V322H70Z" glyph-name="minus" horiz-adv-x="596" unicode="&#8722;" /><glyph d="M65 496 125 557 259 421 392 557 453 496 318 362 453 229 392 169 259 303 125 169 65 229 199 362Z" glyph-name="multiply" horiz-adv-x="518" unicode="&#215;" /><glyph d="M440 376Q440 411 425.5 428.5Q411 446 373 446Q342 446 315.5 439Q289 432 267 422V118Q267 101 270 90.5Q273 80 280 74.5Q287 69 298.5 66Q310 63 327 61V0H34V61Q50 63 62.5 66Q75 69 82.5 74.5Q90 80 94 90.5Q98 101 98 118V419L39 473V506L235 560H267V452Q283 470 302.5 488.5Q322 507 346 522Q370 537 398.5 546.5Q427 556 459 556Q531 556 570 516.5Q609 477 609 392V118Q609 101 612.5 90.5Q616 80 624 74.5Q632 69 644 66Q656 63 673 61V0H381V61Q398 63 409.5 66Q421 69 427.5 74.5Q434 80 437 90.5Q440 101 440 118Z" glyph-name="n" horiz-adv-x="694" unicode="n" /><glyph d="M547 765 393 603H308L377 765ZM440 376Q440 411 425.5 428.5Q411 446 373 446Q342 446 315.5 439Q289 432 267 422V118Q267 101 270 90.5Q273 80 280 74.5Q287 69 298.5 66Q310 63 327 61V0H34V61Q50 63 62.5 66Q75 69 82.5 74.5Q90 80 94 90.5Q98 101 98 118V419L39 473V506L235 560H267V452Q283 470 302.5 488.5Q322 507 346 522Q370 537 398.5 546.5Q427 556 459 556Q531 556 570 516.5Q609 477 609 392V118Q609 101 612.5 90.5Q616 80 624 74.5Q632 69 644 66Q656 63 673 61V0H381V61Q398 63 409.5 66Q421 69 427.5 74.5Q434 80 437 90.5Q440 101 440 118Z" glyph-name="nacute" horiz-adv-x="694" unicode="&#324;" /><glyph d="M419 604H297L158 774H244L358 689L472 774H558ZM440 376Q440 411 425.5 428.5Q411 446 373 446Q342 446 315.5 439Q289 432 267 422V118Q267 101 270 90.5Q273 80 280 74.5Q287 69 298.5 66Q310 63 327 61V0H34V61Q50 63 62.5 66Q75 69 82.5 74.5Q90 80 94 90.5Q98 101 98 118V419L39 473V506L235 560H267V452Q283 470 302.5 488.5Q322 507 346 522Q370 537 398.5 546.5Q427 556 459 556Q531 556 570 516.5Q609 477 609 392V118Q609 101 612.5 90.5Q616 80 624 74.5Q632 69 644 66Q656 63 673 61V0H381V61Q398 63 409.5 66Q421 69 427.5 74.5Q434 80 437 90.5Q440 101 440 118Z" glyph-name="ncaron" horiz-adv-x="694" unicode="&#328;" /><glyph d="M320 -157Q297 -151 284.5 -137Q272 -123 272 -98Q272 -72 293 -54Q314 -36 352 -36Q397 -36 421.5 -62Q446 -88 446 -130Q446 -154 437 -175.5Q428 -197 408 -212.5Q388 -228 356.5 -237Q325 -246 279 -246V-203Q327 -203 351 -190Q375 -177 377 -157ZM440 376Q440 411 425.5 428.5Q411 446 373 446Q342 446 315.5 439Q289 432 267 422V118Q267 101 270 90.5Q273 80 280 74.5Q287 69 298.5 66Q310 63 327 61V0H34V61Q50 63 62.5 66Q75 69 82.5 74.5Q90 80 94 90.5Q98 101 98 118V419L39 473V506L235 560H267V452Q283 470 302.5 488.5Q322 507 346 522Q370 537 398.5 546.5Q427 556 459 556Q531 556 570 516.5Q609 477 609 392V118Q609 101 612.5 90.5Q616 80 624 74.5Q632 69 644 66Q656 63 673 61V0H381V61Q398 63 409.5 66Q421 69 427.5 74.5Q434 80 437 90.5Q440 101 440 118Z" glyph-name="ncommaaccent" horiz-adv-x="694" unicode="&#326;" /><glyph d="M111 41Q185 53 237.5 77.5Q290 102 325 137Q360 172 379.5 216.5Q399 261 408 314Q379 285 335 262.5Q291 240 234 240Q192 240 155.5 254Q119 268 92 295.5Q65 323 49 363Q33 403 33 455Q33 519 55 567Q77 615 113.5 647.5Q150 680 198 696Q246 712 298 712Q362 712 414.5 690.5Q467 669 505 629.5Q543 590 564 534.5Q585 479 585 410Q585 324 556 249Q527 174 470 117Q413 60 328 26Q243 -8 131 -11ZM339 332Q361 332 378.5 337Q396 342 411 349Q414 380 414 410Q414 455 407 497.5Q400 540 385 573.5Q370 607 346.5 627Q323 647 290 647Q241 647 213 607.5Q185 568 185 499Q185 464 194.5 433.5Q204 403 223.5 380.5Q243 358 272 345Q301 332 339 332Z" glyph-name="nine" horiz-adv-x="622" unicode="9" /><glyph glyph-name="nonmarkingreturn" horiz-adv-x="197" unicode="" /><glyph d="M76 488H345L417 592H500L428 488H532V407H373L317 325H532V244H261L191 141H107L178 244H76V325H233L290 407H76Z" glyph-name="notequal" horiz-adv-x="607" unicode="&#8800;" /><glyph d="M440 376Q440 411 425.5 428.5Q411 446 373 446Q342 446 315.5 439Q289 432 267 422V118Q267 101 270 90.5Q273 80 280 74.5Q287 69 298.5 66Q310 63 327 61V0H34V61Q50 63 62.5 66Q75 69 82.5 74.5Q90 80 94 90.5Q98 101 98 118V419L39 473V506L235 560H267V452Q283 470 302.5 488.5Q322 507 346 522Q370 537 398.5 546.5Q427 556 459 556Q531 556 570 516.5Q609 477 609 392V118Q609 101 612.5 90.5Q616 80 624 74.5Q632 69 644 66Q656 63 673 61V0H381V61Q398 63 409.5 66Q421 69 427.5 74.5Q434 80 437 90.5Q440 101 440 118ZM555 755Q535 710 519.5 682Q504 654 488.5 638.5Q473 623 456.5 617.5Q440 612 419 612Q398 612 379 621.5Q360 631 343 643Q326 655 310.5 664.5Q295 674 281 674Q258 674 244 658Q230 642 216 618L160 629Q180 674 196 702.5Q212 731 227 746.5Q242 762 259 767.5Q276 773 297 773Q321 773 340 763Q359 753 375.5 741.5Q392 730 406 720Q420 710 435 710Q457 710 471 726Q485 742 500 767Z" glyph-name="ntilde" horiz-adv-x="694" unicode="&#241;" /><glyph d="M381 209 311 -10 243 14 305 209H192L122 -10L54 14L116 209H46V277H138L185 426H81V493H207L277 712L345 688L282 493H396L466 712L534 688L471 493H542V426H450L402 277H507V209ZM213 277H327L374 426H261Z" glyph-name="numbersign" horiz-adv-x="588" unicode="#" /><glyph d="M321 57Q344 57 362 71Q380 85 392 110.5Q404 136 410 170.5Q416 205 416 247Q416 298 408.5 342.5Q401 387 386.5 420Q372 453 351 471.5Q330 490 303 490Q279 490 261 476Q243 462 231 436.5Q219 411 213 376Q207 341 207 299Q207 248 214.5 203.5Q222 159 236.5 126.5Q251 94 272.5 75.5Q294 57 321 57ZM305 -10Q243 -10 193 11Q143 32 108 68.5Q73 105 53.5 155Q34 205 34 264Q34 331 55.5 385Q77 439 115.5 477Q154 515 206 535.5Q258 556 319 556Q380 556 430.5 535Q481 514 516 477.5Q551 441 570.5 391Q590 341 590 283Q590 216 568 162Q546 108 508 69.5Q470 31 418 10.5Q366 -10 305 -10Z" glyph-name="o" horiz-adv-x="624" unicode="o" /><glyph d="M505 765 351 603H266L335 765ZM321 57Q344 57 362 71Q380 85 392 110.5Q404 136 410 170.5Q416 205 416 247Q416 298 408.5 342.5Q401 387 386.5 420Q372 453 351 471.5Q330 490 303 490Q279 490 261 476Q243 462 231 436.5Q219 411 213 376Q207 341 207 299Q207 248 214.5 203.5Q222 159 236.5 126.5Q251 94 272.5 75.5Q294 57 321 57ZM305 -10Q243 -10 193 11Q143 32 108 68.5Q73 105 53.5 155Q34 205 34 264Q34 331 55.5 385Q77 439 115.5 477Q154 515 206 535.5Q258 556 319 556Q380 556 430.5 535Q481 514 516 477.5Q551 441 570.5 391Q590 341 590 283Q590 216 568 162Q546 108 508 69.5Q470 31 418 10.5Q366 -10 305 -10Z" glyph-name="oacute" horiz-adv-x="624" unicode="&#243;" /><glyph d="M321 57Q344 57 362 71Q380 85 392 110.5Q404 136 410 170.5Q416 205 416 247Q416 298 408.5 342.5Q401 387 386.5 420Q372 453 351 471.5Q330 490 303 490Q279 490 261 476Q243 462 231 436.5Q219 411 213 376Q207 341 207 299Q207 248 214.5 203.5Q222 159 236.5 126.5Q251 94 272.5 75.5Q294 57 321 57ZM305 -10Q243 -10 193 11Q143 32 108 68.5Q73 105 53.5 155Q34 205 34 264Q34 331 55.5 385Q77 439 115.5 477Q154 515 206 535.5Q258 556 319 556Q380 556 430.5 535Q481 514 516 477.5Q551 441 570.5 391Q590 341 590 283Q590 216 568 162Q546 108 508 69.5Q470 31 418 10.5Q366 -10 305 -10ZM316 601Q242 601 201.5 645.5Q161 690 161 771H225Q228 747 237 731Q246 715 258.5 705.5Q271 696 286 692Q301 688 316 688Q331 688 346.5 692Q362 696 374.5 705.5Q387 715 396 731Q405 747 408 771H472Q472 690 431.5 645.5Q391 601 316 601Z" glyph-name="obreve" horiz-adv-x="624" unicode="&#335;" /><glyph d="M516 596H430L316 681L202 596H116L255 766H377ZM321 57Q344 57 362 71Q380 85 392 110.5Q404 136 410 170.5Q416 205 416 247Q416 298 408.5 342.5Q401 387 386.5 420Q372 453 351 471.5Q330 490 303 490Q279 490 261 476Q243 462 231 436.5Q219 411 213 376Q207 341 207 299Q207 248 214.5 203.5Q222 159 236.5 126.5Q251 94 272.5 75.5Q294 57 321 57ZM305 -10Q243 -10 193 11Q143 32 108 68.5Q73 105 53.5 155Q34 205 34 264Q34 331 55.5 385Q77 439 115.5 477Q154 515 206 535.5Q258 556 319 556Q380 556 430.5 535Q481 514 516 477.5Q551 441 570.5 391Q590 341 590 283Q590 216 568 162Q546 108 508 69.5Q470 31 418 10.5Q366 -10 305 -10Z" glyph-name="ocircumflex" horiz-adv-x="624" unicode="&#244;" /><glyph d="M126 688Q126 722 150 746.5Q174 771 209 771Q244 771 268.5 746.5Q293 722 293 688Q293 654 268.5 629.5Q244 605 209 605Q174 605 150 629.5Q126 654 126 688ZM340 688Q340 705 346.5 720Q353 735 364.5 746.5Q376 758 390.5 764.5Q405 771 422 771Q458 771 482.5 746.5Q507 722 507 688Q507 654 482.5 629.5Q458 605 422 605Q405 605 390.5 611.5Q376 618 364.5 629.5Q353 641 346.5 656Q340 671 340 688ZM321 57Q344 57 362 71Q380 85 392 110.5Q404 136 410 170.5Q416 205 416 247Q416 298 408.5 342.5Q401 387 386.5 420Q372 453 351 471.5Q330 490 303 490Q279 490 261 476Q243 462 231 436.5Q219 411 213 376Q207 341 207 299Q207 248 214.5 203.5Q222 159 236.5 126.5Q251 94 272.5 75.5Q294 57 321 57ZM305 -10Q243 -10 193 11Q143 32 108 68.5Q73 105 53.5 155Q34 205 34 264Q34 331 55.5 385Q77 439 115.5 477Q154 515 206 535.5Q258 556 319 556Q380 556 430.5 535Q481 514 516 477.5Q551 441 570.5 391Q590 341 590 283Q590 216 568 162Q546 108 508 69.5Q470 31 418 10.5Q366 -10 305 -10Z" glyph-name="odieresis" horiz-adv-x="624" unicode="&#246;" /><glyph d="M319 556Q379 556 426.5 534.5Q474 513 509 475Q544 512 590.5 534Q637 556 688 556Q742 556 782.5 538Q823 520 850 489Q877 458 890.5 416.5Q904 375 904 328V291H571Q571 212 615 166Q659 120 729 120Q780 120 815 138.5Q850 157 876 191L906 172Q887 90 828 40Q769 -10 675 -10Q620 -10 573.5 11.5Q527 33 494 71Q456 34 408 12Q360 -10 305 -10Q243 -10 193 11Q143 32 108 68.5Q73 105 53.5 155Q34 205 34 264Q34 331 55.5 385Q77 439 115.5 477Q154 515 206 535.5Q258 556 319 556ZM321 57Q344 57 362 71Q380 85 392 110.5Q404 136 410 170.5Q416 205 416 247Q416 298 408.5 342.5Q401 387 386.5 420Q372 453 351 471.5Q330 490 303 490Q279 490 261 476Q243 462 231 436.5Q219 411 213 376Q207 341 207 299Q207 248 214.5 203.5Q222 159 236.5 126.5Q251 94 272.5 75.5Q294 57 321 57ZM672 491Q649 491 631.5 479.5Q614 468 602 448.5Q590 429 583.5 403Q577 377 574 348H757Q756 412 736 451.5Q716 491 672 491Z" glyph-name="oe" horiz-adv-x="941" unicode="&#339;" /><glyph d="M321 57Q344 57 362 71Q380 85 392 110.5Q404 136 410 170.5Q416 205 416 247Q416 298 408.5 342.5Q401 387 386.5 420Q372 453 351 471.5Q330 490 303 490Q279 490 261 476Q243 462 231 436.5Q219 411 213 376Q207 341 207 299Q207 248 214.5 203.5Q222 159 236.5 126.5Q251 94 272.5 75.5Q294 57 321 57ZM305 -10Q243 -10 193 11Q143 32 108 68.5Q73 105 53.5 155Q34 205 34 264Q34 331 55.5 385Q77 439 115.5 477Q154 515 206 535.5Q258 556 319 556Q380 556 430.5 535Q481 514 516 477.5Q551 441 570.5 391Q590 341 590 283Q590 216 568 162Q546 108 508 69.5Q470 31 418 10.5Q366 -10 305 -10ZM295 765 363 603H279L125 765Z" glyph-name="ograve" horiz-adv-x="624" unicode="&#242;" /><glyph d="M393 765 257 603H179L246 765ZM579 765 443 603H365L432 765ZM321 57Q344 57 362 71Q380 85 392 110.5Q404 136 410 170.5Q416 205 416 247Q416 298 408.5 342.5Q401 387 386.5 420Q372 453 351 471.5Q330 490 303 490Q279 490 261 476Q243 462 231 436.5Q219 411 213 376Q207 341 207 299Q207 248 214.5 203.5Q222 159 236.5 126.5Q251 94 272.5 75.5Q294 57 321 57ZM305 -10Q243 -10 193 11Q143 32 108 68.5Q73 105 53.5 155Q34 205 34 264Q34 331 55.5 385Q77 439 115.5 477Q154 515 206 535.5Q258 556 319 556Q380 556 430.5 535Q481 514 516 477.5Q551 441 570.5 391Q590 341 590 283Q590 216 568 162Q546 108 508 69.5Q470 31 418 10.5Q366 -10 305 -10Z" glyph-name="ohungarumlaut" horiz-adv-x="624" unicode="&#337;" /><glyph d="M167 718H465V625H167ZM321 57Q344 57 362 71Q380 85 392 110.5Q404 136 410 170.5Q416 205 416 247Q416 298 408.5 342.5Q401 387 386.5 420Q372 453 351 471.5Q330 490 303 490Q279 490 261 476Q243 462 231 436.5Q219 411 213 376Q207 341 207 299Q207 248 214.5 203.5Q222 159 236.5 126.5Q251 94 272.5 75.5Q294 57 321 57ZM305 -10Q243 -10 193 11Q143 32 108 68.5Q73 105 53.5 155Q34 205 34 264Q34 331 55.5 385Q77 439 115.5 477Q154 515 206 535.5Q258 556 319 556Q380 556 430.5 535Q481 514 516 477.5Q551 441 570.5 391Q590 341 590 283Q590 216 568 162Q546 108 508 69.5Q470 31 418 10.5Q366 -10 305 -10Z" glyph-name="omacron" horiz-adv-x="624" unicode="&#333;" /><glyph d="M336 711V135Q336 112 341 99Q346 86 359.5 78.5Q373 71 396.5 68Q420 65 457 63V0H46V63Q86 66 110.5 69Q135 72 147.5 79Q160 86 164 99Q168 112 168 135V523H46V580L81 586Q117 592 146 602Q175 612 199 627.5Q223 643 244 663.5Q265 684 286 711Z" glyph-name="one" horiz-adv-x="473" unicode="1" /><glyph d="M269 748V381Q269 366 272 357.5Q275 349 284 344.5Q293 340 308 338Q323 336 347 335V287H55V335Q82 336 98 338Q114 340 122 344.5Q130 349 132 357.5Q134 366 134 381V609H55V653L83 659Q111 665 132 673Q153 681 169 691.5Q185 702 198 716Q211 730 225 748ZM675 741H749L299 0H226ZM774 30Q790 30 800 31.5Q810 33 818.5 38.5Q827 44 835.5 55Q844 66 856 84H893L880 -71H525V-29L650 83Q697 125 720 157Q743 189 743 227Q743 259 724 278Q705 297 670 297Q638 297 613 280Q588 263 571 243L541 274Q553 297 571 318Q589 339 613 355Q637 371 666.5 380.5Q696 390 731 390Q796 390 835 356Q874 322 874 259Q874 222 856 191Q838 160 808.5 132.5Q779 105 741.5 80Q704 55 664 30Z" glyph-name="onehalf" horiz-adv-x="942" unicode="&#189;" /><glyph d="M678 102V286L534 102ZM678 -71V47H463V92L695 389H812V102H898V47H812V-71ZM267 748V381Q267 366 270 357.5Q273 349 282 344.5Q291 340 306 338Q321 336 345 335V287H53V335Q80 336 95.5 338Q111 340 119.5 344.5Q128 349 130 357.5Q132 366 132 381V609H53V653L81 659Q109 665 129.5 673Q150 681 166 691.5Q182 702 195.5 716Q209 730 223 748ZM673 741H747L297 0H224Z" glyph-name="onequarter" horiz-adv-x="948" unicode="&#188;" /><glyph d="M269 748V381Q269 366 272 357.5Q275 349 284 344.5Q293 340 308 338Q323 336 347 335V287H55V335Q82 336 98 338Q114 340 122 344.5Q130 349 132 357.5Q134 366 134 381V609H55V653L83 659Q111 665 132 673Q153 681 169 691.5Q185 702 198 716Q211 730 225 748Z" glyph-name="onesuperior" horiz-adv-x="388" unicode="&#185;" /><glyph d="M205 391Q219 391 230.5 395Q242 399 256 408V523L206 503Q182 492 170.5 478.5Q159 465 159 443Q159 417 172 404Q185 391 205 391ZM378 574Q378 559 377.5 537Q377 515 377 492.5Q377 470 376.5 451.5Q376 433 376 426Q376 385 402 385Q407 385 415 386Q423 387 431 389L438 356Q419 338 394.5 326.5Q370 315 343 315Q309 315 288.5 334Q268 353 258 379Q238 353 206 335Q174 317 137 317Q91 317 64 344Q37 371 37 416Q37 440 45 457.5Q53 475 66.5 487Q80 499 97.5 507.5Q115 516 134 522L256 561V605Q256 641 246 659.5Q236 678 211 678Q189 678 179 666Q169 654 169 633Q169 610 175 585L87 572Q58 585 58 622Q58 672 103 697Q148 722 219 722Q297 722 337.5 689Q378 656 378 574Z" glyph-name="ordfeminine" horiz-adv-x="470" unicode="&#170;" /><glyph d="M242 363Q275 363 291 401.5Q307 440 307 503Q307 581 286.5 627Q266 673 229 673Q197 673 180 634.5Q163 596 163 533Q163 455 184.5 409Q206 363 242 363ZM230 315Q185 315 148 329.5Q111 344 85 369.5Q59 395 45 431Q31 467 31 511Q31 559 46 598Q61 637 89 664.5Q117 692 155.5 706.5Q194 721 241 721Q286 721 323 706.5Q360 692 385.5 666.5Q411 641 425 604.5Q439 568 439 525Q439 477 424 438Q409 399 381 371.5Q353 344 314.5 329.5Q276 315 230 315Z" glyph-name="ordmasculine" horiz-adv-x="470" unicode="&#186;" /><glyph d="M481 507Q533 470 561.5 412Q590 354 590 283Q590 216 568 162Q546 108 508 69.5Q470 31 418 10.5Q366 -10 305 -10Q242 -10 188 13L136 -75L88 -49L141 40Q90 77 62 134.5Q34 192 34 264Q34 331 55.5 385Q77 439 115.5 477Q154 515 206 535.5Q258 556 319 556Q382 556 434 533L478 606L525 580ZM321 57Q344 57 362.5 71Q381 85 393.5 110.5Q406 136 413 170.5Q420 205 420 247Q420 287 416.5 320.5Q413 354 407 381L241 101Q270 57 321 57ZM203 299Q203 220 215 165L382 445Q353 490 303 490Q279 490 260.5 476Q242 462 229.5 436.5Q217 411 210 376Q203 341 203 299Z" glyph-name="oslash" horiz-adv-x="624" unicode="&#248;" /><glyph d="M481 507Q533 470 561.5 412Q590 354 590 283Q590 216 568 162Q546 108 508 69.5Q470 31 418 10.5Q366 -10 305 -10Q242 -10 188 13L136 -75L88 -49L141 40Q90 77 62 134.5Q34 192 34 264Q34 331 55.5 385Q77 439 115.5 477Q154 515 206 535.5Q258 556 319 556Q382 556 434 533L478 606L525 580ZM321 57Q344 57 362.5 71Q381 85 393.5 110.5Q406 136 413 170.5Q420 205 420 247Q420 287 416.5 320.5Q413 354 407 381L241 101Q270 57 321 57ZM203 299Q203 220 215 165L382 445Q353 490 303 490Q279 490 260.5 476Q242 462 229.5 436.5Q217 411 210 376Q203 341 203 299ZM501 765 347 603H262L331 765Z" glyph-name="oslashacute" horiz-adv-x="624" unicode="&#511;" /><glyph d="M321 57Q344 57 362 71Q380 85 392 110.5Q404 136 410 170.5Q416 205 416 247Q416 298 408.5 342.5Q401 387 386.5 420Q372 453 351 471.5Q330 490 303 490Q279 490 261 476Q243 462 231 436.5Q219 411 213 376Q207 341 207 299Q207 248 214.5 203.5Q222 159 236.5 126.5Q251 94 272.5 75.5Q294 57 321 57ZM305 -10Q243 -10 193 11Q143 32 108 68.5Q73 105 53.5 155Q34 205 34 264Q34 331 55.5 385Q77 439 115.5 477Q154 515 206 535.5Q258 556 319 556Q380 556 430.5 535Q481 514 516 477.5Q551 441 570.5 391Q590 341 590 283Q590 216 568 162Q546 108 508 69.5Q470 31 418 10.5Q366 -10 305 -10ZM514 755Q494 710 478.5 682Q463 654 447.5 638.5Q432 623 415.5 617.5Q399 612 378 612Q357 612 338 621.5Q319 631 302 643Q285 655 269.5 664.5Q254 674 240 674Q217 674 203 658Q189 642 175 618L119 629Q139 674 155 702.5Q171 731 186 746.5Q201 762 218 767.5Q235 773 256 773Q280 773 299 763Q318 753 334.5 741.5Q351 730 365 720Q379 710 394 710Q416 710 430 726Q444 742 459 767Z" glyph-name="otilde" horiz-adv-x="624" unicode="&#245;" /><glyph d="M259 -79Q259 -96 262.5 -106.5Q266 -117 273.5 -122.5Q281 -128 293 -131Q305 -134 322 -136V-197H26V-136Q43 -134 55 -131Q67 -128 75 -122.5Q83 -117 86.5 -106.5Q90 -96 90 -79V419L31 473V506L228 560H259V461Q284 503 324 529.5Q364 556 421 556Q469 556 508 538.5Q547 521 574 488Q601 455 616 408Q631 361 631 301Q631 228 610 170.5Q589 113 551.5 73Q514 33 463.5 11.5Q413 -10 354 -10Q323 -10 298 -2Q273 6 259 19ZM341 54Q369 54 391 68.5Q413 83 428.5 109Q444 135 452 171Q460 207 460 250Q460 342 425.5 396Q391 450 331 450Q290 450 259 430V165Q259 111 278 82.5Q297 54 341 54Z" glyph-name="p" horiz-adv-x="666" unicode="p" /><glyph d="M323 200Q256 200 205 220Q154 240 119 274.5Q84 309 66 355Q48 401 48 452Q48 503 66 548.5Q84 594 119 628Q154 662 205 682Q256 702 323 702H630V639Q601 639 581.5 636Q562 633 550 625Q538 617 533 603Q528 589 528 566V-197H459V647H393V-197H323ZM323 650Q293 647 271.5 629.5Q250 612 236.5 585Q223 558 216.5 523.5Q210 489 210 452Q210 415 216.5 380.5Q223 346 236.5 318Q250 290 271.5 272.5Q293 255 323 252Z" glyph-name="paragraph" horiz-adv-x="659" unicode="&#182;" /><glyph d="M60 314Q60 376 74 439Q88 502 115 561.5Q142 621 181 674Q220 727 269 770H356Q308 719 277 663Q246 607 227.5 548.5Q209 490 202 431Q195 372 195 314Q195 256 202 197Q209 138 227.5 80Q246 22 277 -34Q308 -90 356 -141H269Q220 -98 181 -45Q142 8 115 67Q88 126 74 189Q60 252 60 314Z" glyph-name="parenleft" horiz-adv-x="378" unicode="(" /><glyph d="M318 314Q318 252 304 189Q290 126 263 67Q236 8 197 -45Q158 -98 109 -141H22Q70 -90 101 -34Q132 22 150.5 80Q169 138 176 197Q183 256 183 314Q183 372 176 431Q169 490 150.5 548.5Q132 607 101 663Q70 719 22 770H109Q158 727 197 674Q236 621 263 561.5Q290 502 304 439Q318 376 318 314Z" glyph-name="parenright" horiz-adv-x="378" unicode=")" /><glyph d="M155 524Q155 464 171.5 424Q188 384 222 384Q255 384 271.5 424Q288 464 288 524Q288 586 271.5 625.5Q255 665 222 665Q188 665 171.5 625.5Q155 586 155 524ZM646 722H720L270 -19H197ZM36 524Q36 570 51.5 605.5Q67 641 92.5 664.5Q118 688 151.5 700Q185 712 222 712Q259 712 292.5 700Q326 688 351.5 664.5Q377 641 392 605.5Q407 570 407 524Q407 478 392 443.5Q377 409 351.5 385.5Q326 362 292.5 350Q259 338 222 338Q185 338 151.5 350Q118 362 92.5 385.5Q67 409 51.5 443.5Q36 478 36 524ZM762 178Q762 238 745.5 278Q729 318 695 318Q662 318 645.5 278Q629 238 629 178Q629 117 645.5 77Q662 37 695 37Q729 37 745.5 77Q762 117 762 178ZM881 178Q881 131 865.5 96Q850 61 824.5 37.5Q799 14 765.5 2Q732 -10 695 -10Q658 -10 624.5 2Q591 14 565.5 37.5Q540 61 525 96Q510 131 510 178Q510 224 525 259Q540 294 565.5 317.5Q591 341 624.5 353Q658 365 695 365Q732 365 765.5 353Q799 341 824.5 317.5Q850 294 865.5 259Q881 224 881 178Z" glyph-name="percent" horiz-adv-x="917" unicode="%" /><glyph d="M50 90Q50 135 79 163Q108 191 150 191Q171 191 189.5 183.5Q208 176 221.5 162.5Q235 149 243 130.5Q251 112 251 90Q251 68 243 50Q235 32 221.5 18.5Q208 5 189.5 -2.5Q171 -10 150 -10Q108 -10 79 18Q50 46 50 90Z" glyph-name="period" horiz-adv-x="301" unicode="." /><glyph d="M51 304Q51 349 80 377Q109 405 151 405Q172 405 190.5 397.5Q209 390 222.5 376.5Q236 363 244 344.5Q252 326 252 304Q252 282 244 264Q236 246 222.5 232.5Q209 219 190.5 211.5Q172 204 151 204Q109 204 80 232Q51 260 51 304Z" glyph-name="periodcentered" horiz-adv-x="303" unicode="&#183;" /><glyph d="M51 355Q51 400 80 428Q109 456 151 456Q172 456 190.5 448.5Q209 441 222.5 427.5Q236 414 244 395.5Q252 377 252 355Q252 333 244 315Q236 297 222.5 283.5Q209 270 190.5 262.5Q172 255 151 255Q109 255 80 283Q51 311 51 355Z" glyph-name="periodcentered.cap" horiz-adv-x="303" /><glyph d="M341 593V409H525V322H341V138H254V322H70V409H254V593Z" glyph-name="plus" horiz-adv-x="596" unicode="+" /><glyph d="M341 617V481H521V395H341V258H254V395H75V481H254V617ZM75 207H521V121H75Z" glyph-name="plusminus" horiz-adv-x="596" unicode="&#177;" /><glyph d="M311 556Q415 556 474 494L522 557H582L576 436V-79Q576 -96 579.5 -106.5Q583 -117 591 -122.5Q599 -128 611 -131Q623 -134 640 -136V-197H343V-136Q360 -134 372 -131Q384 -128 392 -122.5Q400 -117 403.5 -106.5Q407 -96 407 -79V86Q382 43 343 16.5Q304 -10 241 -10Q195 -10 157 7.5Q119 25 91.5 58Q64 91 49 138Q34 185 34 245Q34 318 55 375.5Q76 433 113 473Q150 513 201 534.5Q252 556 311 556ZM325 494Q296 494 274 479Q252 464 237 437.5Q222 411 214 374.5Q206 338 206 295Q206 205 240 150.5Q274 96 336 96Q356 96 374 101.5Q392 107 407 116V387Q407 442 388 468Q369 494 325 494Z" glyph-name="q" horiz-adv-x="645" unicode="q" /><glyph d="M307 577Q307 612 288 629.5Q269 647 238 647Q198 647 182 622.5Q166 598 166 562V512H62Q43 523 34.5 539Q26 555 26 575Q26 605 41 630Q56 655 83.5 673Q111 691 150 701Q189 711 238 711Q340 711 396.5 670Q453 629 453 544Q453 483 423 442.5Q393 402 336 368Q311 354 295.5 340.5Q280 327 271 314Q262 301 258.5 287Q255 273 255 257V230H206Q185 244 168 270Q151 296 151 330Q151 365 166 395Q181 425 216 453Q234 467 250 480.5Q266 494 279 508.5Q292 523 299.5 539.5Q307 556 307 577ZM134 88Q134 109 141.5 127Q149 145 161.5 158.5Q174 172 191.5 179.5Q209 187 229 187Q270 187 297.5 158.5Q325 130 325 88Q325 48 297.5 19.5Q270 -9 229 -9Q189 -9 161.5 19.5Q134 48 134 88Z" glyph-name="question" horiz-adv-x="472" unicode="?" /><glyph d="M175 -38Q175 -73 194 -90.5Q213 -108 244 -108Q284 -108 300 -83.5Q316 -59 316 -23V27H420Q439 16 447.5 0Q456 -16 456 -36Q456 -66 441 -91Q426 -116 398.5 -134Q371 -152 332 -162Q293 -172 244 -172Q142 -172 85.5 -131Q29 -90 29 -5Q29 56 59 96.5Q89 137 146 171Q171 185 186.5 198.5Q202 212 211 225Q220 238 223.5 252Q227 266 227 282V309H276Q297 295 314 269Q331 243 331 209Q331 174 316 144Q301 114 266 86Q248 72 232 58.5Q216 45 203 30.5Q190 16 182.5 -0.5Q175 -17 175 -38ZM348 451Q348 430 340.5 412Q333 394 320.5 380.5Q308 367 290.5 359.5Q273 352 253 352Q212 352 184.5 380.5Q157 409 157 451Q157 491 184.5 519.5Q212 548 253 548Q293 548 320.5 519.5Q348 491 348 451Z" glyph-name="questiondown" horiz-adv-x="472" unicode="&#191;" /><glyph d="M104 452 64 599Q57 622 50 648.5Q43 675 43 691Q43 723 62.5 745.5Q82 768 120 768Q158 768 177.5 745.5Q197 723 197 691Q197 675 190 648.5Q183 622 177 599L137 452ZM315 452 275 599Q269 622 261.5 648.5Q254 675 254 691Q254 723 273.5 745.5Q293 768 331 768Q369 768 389 745.5Q409 723 409 691Q409 675 401.5 648.5Q394 622 388 599L348 452Z" glyph-name="quotedbl" horiz-adv-x="452" unicode="&quot;" /><glyph d="M370 10Q340 17 323.5 38.5Q307 60 307 95Q307 130 330.5 155Q354 180 397 180Q445 180 472 149.5Q499 119 499 60Q499 -20 450.5 -68Q402 -116 300 -119V-64Q353 -59 379.5 -42.5Q406 -26 412 10ZM125 10Q95 17 78.5 38.5Q62 60 62 95Q62 130 85.5 155Q109 180 152 180Q200 180 227 149.5Q254 119 254 60Q254 -20 205.5 -68Q157 -116 55 -119V-64Q108 -59 134.5 -42.5Q161 -26 167 10Z" glyph-name="quotedblbase" horiz-adv-x="555" unicode="&#8222;" /><glyph d="M193 638Q223 632 239.5 610.5Q256 589 256 554Q256 519 232.5 494Q209 469 166 469Q118 469 91 499.5Q64 530 64 589Q64 670 112 717Q160 764 263 768V713Q211 708 184 691.5Q157 675 151 638ZM438 638Q468 632 484.5 610.5Q501 589 501 554Q501 519 477.5 494Q454 469 411 469Q363 469 336 499.5Q309 530 309 589Q309 670 357 717Q405 764 508 768V713Q456 708 429 691.5Q402 675 396 638Z" glyph-name="quotedblleft" horiz-adv-x="555" unicode="&#8220;" /><glyph d="M370 598Q340 605 323.5 626.5Q307 648 307 683Q307 718 330.5 743Q354 768 397 768Q445 768 472 737.5Q499 707 499 648Q499 568 450.5 520Q402 472 300 469V524Q353 529 379.5 545.5Q406 562 412 598ZM125 598Q95 605 78.5 626.5Q62 648 62 683Q62 718 85.5 743Q109 768 152 768Q200 768 227 737.5Q254 707 254 648Q254 568 205.5 520Q157 472 55 469V524Q108 529 134.5 545.5Q161 562 167 598Z" glyph-name="quotedblright" horiz-adv-x="555" unicode="&#8221;" /><glyph d="M193 638Q223 632 239.5 610.5Q256 589 256 554Q256 519 232.5 494Q209 469 166 469Q118 469 91 499.5Q64 530 64 589Q64 670 112 717Q160 764 263 768V713Q211 708 184 691.5Q157 675 151 638Z" glyph-name="quoteleft" horiz-adv-x="310" unicode="&#8216;" /><glyph d="M125 598Q95 605 78.5 626.5Q62 648 62 683Q62 718 85.5 743Q109 768 152 768Q200 768 227 737.5Q254 707 254 648Q254 568 205.5 520Q157 472 55 469V524Q108 529 134.5 545.5Q161 562 167 598Z" glyph-name="quoteright" horiz-adv-x="310" unicode="&#8217;" /><glyph d="M125 10Q95 17 78.5 38.5Q62 60 62 95Q62 130 85.5 155Q109 180 152 180Q200 180 227 149.5Q254 119 254 60Q254 -20 205.5 -68Q157 -116 55 -119V-64Q108 -59 134.5 -42.5Q161 -26 167 10Z" glyph-name="quotesinglbase" horiz-adv-x="310" unicode="&#8218;" /><glyph d="M104 452 64 599Q57 622 50 648.5Q43 675 43 691Q43 723 62.5 745.5Q82 768 120 768Q158 768 177.5 745.5Q197 723 197 691Q197 675 190 648.5Q183 622 177 599L137 452Z" glyph-name="quotesingle" horiz-adv-x="240" unicode="'" /><glyph d="M267 388Q284 437 300 469.5Q316 502 334 521Q352 540 372 548Q392 556 418 556Q434 556 444 552.5Q454 549 462 544V399H438Q391 399 347.5 391.5Q304 384 267 353V117Q267 100 271.5 90.5Q276 81 286 75.5Q296 70 311.5 67Q327 64 350 61V0H34V61Q50 63 62.5 66Q75 69 82.5 74.5Q90 80 94 90.5Q98 101 98 118V419L39 473V506L234 560H267Z" glyph-name="r" horiz-adv-x="471" unicode="r" /><glyph d="M460 765 306 603H221L290 765ZM267 388Q284 437 300 469.5Q316 502 334 521Q352 540 372 548Q392 556 418 556Q434 556 444 552.5Q454 549 462 544V399H438Q391 399 347.5 391.5Q304 384 267 353V117Q267 100 271.5 90.5Q276 81 286 75.5Q296 70 311.5 67Q327 64 350 61V0H34V61Q50 63 62.5 66Q75 69 82.5 74.5Q90 80 94 90.5Q98 101 98 118V419L39 473V506L234 560H267Z" glyph-name="racute" horiz-adv-x="471" unicode="&#341;" /><glyph d="M332 604H210L71 774H157L271 689L385 774H471ZM267 388Q284 437 300 469.5Q316 502 334 521Q352 540 372 548Q392 556 418 556Q434 556 444 552.5Q454 549 462 544V399H438Q391 399 347.5 391.5Q304 384 267 353V117Q267 100 271.5 90.5Q276 81 286 75.5Q296 70 311.5 67Q327 64 350 61V0H34V61Q50 63 62.5 66Q75 69 82.5 74.5Q90 80 94 90.5Q98 101 98 118V419L39 473V506L234 560H267Z" glyph-name="rcaron" horiz-adv-x="471" unicode="&#345;" /><glyph d="M155 -157Q132 -151 119.5 -137Q107 -123 107 -98Q107 -72 128 -54Q149 -36 187 -36Q232 -36 256.5 -62Q281 -88 281 -130Q281 -154 272 -175.5Q263 -197 243 -212.5Q223 -228 191.5 -237Q160 -246 114 -246V-203Q162 -203 186 -190Q210 -177 212 -157ZM267 388Q284 437 300 469.5Q316 502 334 521Q352 540 372 548Q392 556 418 556Q434 556 444 552.5Q454 549 462 544V399H438Q391 399 347.5 391.5Q304 384 267 353V117Q267 100 271.5 90.5Q276 81 286 75.5Q296 70 311.5 67Q327 64 350 61V0H34V61Q50 63 62.5 66Q75 69 82.5 74.5Q90 80 94 90.5Q98 101 98 118V419L39 473V506L234 560H267Z" glyph-name="rcommaaccent" horiz-adv-x="471" unicode="&#343;" /><glyph d="M254 581V491H264Q311 491 311 537Q311 581 264 581ZM280 608Q332 608 355 587Q378 566 378 537Q378 510 361 493Q344 476 324 471L368 415Q384 393 400 392V370H339Q331 375 323 384Q315 393 307 404L266 466H254V417Q254 403 258.5 397.5Q263 392 279 392V370H166V392Q183 392 188 397.5Q193 403 193 417V560Q193 576 188 579.5Q183 583 166 585V608ZM87 484Q87 445 101 410Q115 375 140.5 348.5Q166 322 201 306.5Q236 291 277 291Q319 291 354 306.5Q389 322 414.5 348.5Q440 375 454 410Q468 445 468 484Q468 523 454 558Q440 593 414.5 620Q389 647 354 662.5Q319 678 277 678Q236 678 201 662.5Q166 647 140.5 620Q115 593 101 558Q87 523 87 484ZM50 484Q50 531 67 572.5Q84 614 114 645Q144 676 185.5 694Q227 712 277 712Q327 712 369 694Q411 676 441 645Q471 614 488 572.5Q505 531 505 484Q505 437 488 395.5Q471 354 441 323.5Q411 293 369 275Q327 257 277 257Q227 257 185.5 275Q144 293 114 323.5Q84 354 67 395.5Q50 437 50 484Z" glyph-name="registered" horiz-adv-x="555" unicode="&#174;" /><glyph d="M150 694Q150 736 180.5 764.5Q211 793 259 793Q307 793 337.5 764.5Q368 736 368 694Q368 652 337.5 623.5Q307 595 259 595Q211 595 180.5 623.5Q150 652 150 694ZM306 694Q306 714 294 727Q282 740 259 740Q236 740 224 727Q212 714 212 694Q212 674 224 661Q236 648 259 648Q282 648 294 661Q306 674 306 694Z" glyph-name="ring" horiz-adv-x="500" unicode="&#730;" /><glyph d="M141 839Q141 881 171.5 909.5Q202 938 250 938Q298 938 328.5 909.5Q359 881 359 839Q359 797 328.5 768.5Q298 740 250 740Q202 740 171.5 768.5Q141 797 141 839ZM297 839Q297 859 285 872Q273 885 250 885Q227 885 215 872Q203 859 203 839Q203 819 215 806Q227 793 250 793Q273 793 285 806Q297 819 297 839Z" glyph-name="ring.cap" horiz-adv-x="500" /><glyph d="M249 -10Q185 -10 133.5 5.5Q82 21 47 46L41 170H117Q131 111 163.5 81.5Q196 52 254 52Q293 52 317.5 67.5Q342 83 342 114Q342 130 336 142Q330 154 316.5 163Q303 172 280.5 179.5Q258 187 224 195Q133 217 87.5 258Q42 299 42 375Q42 462 98 509Q154 556 251 556Q304 556 350 543.5Q396 531 429 510V397H355Q344 443 318 468.5Q292 494 244 494Q208 494 189 476.5Q170 459 170 433Q170 418 174.5 407Q179 396 191.5 387Q204 378 225.5 370.5Q247 363 281 356Q321 347 355.5 333.5Q390 320 414.5 299Q439 278 453 248.5Q467 219 467 177Q467 88 409.5 39Q352 -10 249 -10Z" glyph-name="s" horiz-adv-x="503" unicode="s" /><glyph d="M444 765 290 603H205L274 765ZM249 -10Q185 -10 133.5 5.5Q82 21 47 46L41 170H117Q131 111 163.5 81.5Q196 52 254 52Q293 52 317.5 67.5Q342 83 342 114Q342 130 336 142Q330 154 316.5 163Q303 172 280.5 179.5Q258 187 224 195Q133 217 87.5 258Q42 299 42 375Q42 462 98 509Q154 556 251 556Q304 556 350 543.5Q396 531 429 510V397H355Q344 443 318 468.5Q292 494 244 494Q208 494 189 476.5Q170 459 170 433Q170 418 174.5 407Q179 396 191.5 387Q204 378 225.5 370.5Q247 363 281 356Q321 347 355.5 333.5Q390 320 414.5 299Q439 278 453 248.5Q467 219 467 177Q467 88 409.5 39Q352 -10 249 -10Z" glyph-name="sacute" horiz-adv-x="503" unicode="&#347;" /><glyph d="M310 604H188L49 774H135L249 689L363 774H449ZM249 -10Q185 -10 133.5 5.5Q82 21 47 46L41 170H117Q131 111 163.5 81.5Q196 52 254 52Q293 52 317.5 67.5Q342 83 342 114Q342 130 336 142Q330 154 316.5 163Q303 172 280.5 179.5Q258 187 224 195Q133 217 87.5 258Q42 299 42 375Q42 462 98 509Q154 556 251 556Q304 556 350 543.5Q396 531 429 510V397H355Q344 443 318 468.5Q292 494 244 494Q208 494 189 476.5Q170 459 170 433Q170 418 174.5 407Q179 396 191.5 387Q204 378 225.5 370.5Q247 363 281 356Q321 347 355.5 333.5Q390 320 414.5 299Q439 278 453 248.5Q467 219 467 177Q467 88 409.5 39Q352 -10 249 -10Z" glyph-name="scaron" horiz-adv-x="503" unicode="&#353;" /><glyph d="M138 -185Q192 -185 222.5 -175Q253 -165 253 -144Q253 -124 228.5 -116.5Q204 -109 167 -107L207 -8Q157 -3 116.5 11Q76 25 47 46L41 170H117Q131 111 163.5 81.5Q196 52 254 52Q293 52 317.5 67.5Q342 83 342 114Q342 130 336 142Q330 154 316.5 163Q303 172 280.5 179.5Q258 187 224 195Q133 217 87.5 258Q42 299 42 375Q42 462 98 509Q154 556 251 556Q304 556 350 543.5Q396 531 429 510V397H355Q344 443 318 468.5Q292 494 244 494Q208 494 189 476.5Q170 459 170 433Q170 418 174.5 407Q179 396 191.5 387Q204 378 225.5 370.5Q247 363 281 356Q321 347 355.5 333.5Q390 320 414.5 299Q439 278 453 248.5Q467 219 467 177Q467 89 410.5 40.5Q354 -8 253 -10L241 -45Q286 -49 313 -66.5Q340 -84 340 -122Q340 -149 324 -169.5Q308 -190 281.5 -203.5Q255 -217 220 -224Q185 -231 148 -231Z" glyph-name="scedilla" horiz-adv-x="503" unicode="&#351;" /><glyph d="M453 596H367L253 681L139 596H53L192 766H314ZM249 -10Q185 -10 133.5 5.5Q82 21 47 46L41 170H117Q131 111 163.5 81.5Q196 52 254 52Q293 52 317.5 67.5Q342 83 342 114Q342 130 336 142Q330 154 316.5 163Q303 172 280.5 179.5Q258 187 224 195Q133 217 87.5 258Q42 299 42 375Q42 462 98 509Q154 556 251 556Q304 556 350 543.5Q396 531 429 510V397H355Q344 443 318 468.5Q292 494 244 494Q208 494 189 476.5Q170 459 170 433Q170 418 174.5 407Q179 396 191.5 387Q204 378 225.5 370.5Q247 363 281 356Q321 347 355.5 333.5Q390 320 414.5 299Q439 278 453 248.5Q467 219 467 177Q467 88 409.5 39Q352 -10 249 -10Z" glyph-name="scircumflex" horiz-adv-x="503" unicode="&#349;" /><glyph d="M217 -157Q194 -151 181.5 -137Q169 -123 169 -98Q169 -72 190 -54Q211 -36 249 -36Q294 -36 318.5 -62Q343 -88 343 -130Q343 -154 334 -175.5Q325 -197 305 -212.5Q285 -228 253.5 -237Q222 -246 176 -246V-203Q224 -203 248 -190Q272 -177 274 -157ZM249 -10Q185 -10 133.5 5.5Q82 21 47 46L41 170H117Q131 111 163.5 81.5Q196 52 254 52Q293 52 317.5 67.5Q342 83 342 114Q342 130 336 142Q330 154 316.5 163Q303 172 280.5 179.5Q258 187 224 195Q133 217 87.5 258Q42 299 42 375Q42 462 98 509Q154 556 251 556Q304 556 350 543.5Q396 531 429 510V397H355Q344 443 318 468.5Q292 494 244 494Q208 494 189 476.5Q170 459 170 433Q170 418 174.5 407Q179 396 191.5 387Q204 378 225.5 370.5Q247 363 281 356Q321 347 355.5 333.5Q390 320 414.5 299Q439 278 453 248.5Q467 219 467 177Q467 88 409.5 39Q352 -10 249 -10Z" glyph-name="scommaaccent" horiz-adv-x="503" unicode="&#537;" /><glyph d="M229 -203Q157 -203 112.5 -173Q68 -143 68 -93Q68 -67 81 -53.5Q94 -40 111 -34H199V-66Q199 -79 201.5 -94.5Q204 -110 211.5 -123.5Q219 -137 232.5 -146Q246 -155 267 -155Q300 -155 315 -134.5Q330 -114 330 -88Q330 -63 315 -34Q300 -5 276.5 27Q253 59 225 94Q197 129 171 165Q119 238 84 312Q49 386 49 473Q49 528 68 572Q87 616 121 647Q155 678 201 695Q247 712 300 712Q335 712 364.5 704Q394 696 415.5 682Q437 668 449 647.5Q461 627 461 603Q461 577 447.5 563.5Q434 550 417 544H330V576Q330 589 327 604Q324 619 316.5 632.5Q309 646 295.5 655Q282 664 261 664Q229 664 214 643.5Q199 623 199 598Q199 572 214 543Q229 514 252 482Q275 450 303 415.5Q331 381 357 344Q383 308 406 271.5Q429 235 445.5 197Q462 159 471.5 119Q481 79 481 36Q481 -19 461.5 -63Q442 -107 408 -138Q374 -169 328 -186Q282 -203 229 -203ZM391 -93Q403 -74 411.5 -41.5Q420 -9 420 36Q420 100 385.5 171.5Q351 243 296 315Q270 349 242 387Q214 425 191 462.5Q168 500 153 536Q138 572 138 602Q126 583 117.5 550.5Q109 518 109 473Q109 409 143.5 337.5Q178 266 233 194Q259 159 287 121.5Q315 84 338 46.5Q361 9 376 -27Q391 -63 391 -93Z" glyph-name="section" horiz-adv-x="529" unicode="&#167;" /><glyph d="M50 393Q50 438 79 466Q108 494 150 494Q171 494 189.5 486.5Q208 479 221.5 465.5Q235 452 243 433.5Q251 415 251 393Q251 371 243 353Q235 335 221.5 321.5Q208 308 189.5 300.5Q171 293 150 293Q108 293 79 321Q50 349 50 393ZM125 10Q95 16 78.5 37.5Q62 59 62 94Q62 129 85.5 154.5Q109 180 152 180Q200 180 229 149Q258 118 258 60Q258 -25 208 -78.5Q158 -132 55 -136V-78Q108 -73 137.5 -51.5Q167 -30 167 10Z" glyph-name="semicolon" horiz-adv-x="301" unicode=";" /><glyph d="M166 545Q131 545 111 526.5Q91 508 74 460H18L62 702H536V660L246 0H114L408 545Z" glyph-name="seven" horiz-adv-x="531" unicode="7" /><glyph d="M511 661Q437 649 384.5 624.5Q332 600 297 565Q262 530 242.5 485Q223 440 214 388Q243 417 287 439.5Q331 462 388 462Q430 462 466.5 448Q503 434 530 406.5Q557 379 573 339Q589 299 589 247Q589 183 567 135Q545 87 508.5 54.5Q472 22 424 6Q376 -10 324 -10Q260 -10 207.5 11.5Q155 33 117 72.5Q79 112 58 167.5Q37 223 37 292Q37 378 66 453Q95 528 152 585Q209 642 294 676Q379 710 491 713ZM283 370Q261 370 243.5 365Q226 360 211 353Q208 321 208 292Q208 247 215 204.5Q222 162 237 128.5Q252 95 275.5 75Q299 55 332 55Q381 55 409 94.5Q437 134 437 203Q437 238 427.5 268.5Q418 299 398.5 321.5Q379 344 350 357Q321 370 283 370Z" glyph-name="six" horiz-adv-x="622" unicode="6" /><glyph d="M122 -125H24L297 770H395Z" glyph-name="slash" horiz-adv-x="433" unicode="/" /><glyph glyph-name="space" horiz-adv-x="197" unicode=" " /><glyph d="M105 390H210L213 439Q221 574 283 643Q345 712 458 712Q497 712 531.5 705.5Q566 699 591.5 684Q617 669 632 645Q647 621 647 587Q647 558 633.5 540Q620 522 603 514H506V571Q506 610 494.5 632.5Q483 655 454 655Q424 655 410 627Q396 599 391 554L374 390H536V335H368L363 280Q360 247 354 217Q348 187 340 168Q359 161 383 153.5Q407 146 433 140Q459 134 485.5 130Q512 126 538 126Q584 126 600.5 145Q617 164 617 216L658 225Q666 211 671.5 189.5Q677 168 677 139Q677 65 635.5 27.5Q594 -10 516 -10Q482 -10 450 -1.5Q418 7 390 19.5Q362 32 338.5 48Q315 64 298 79Q271 37 226.5 13.5Q182 -10 126 -10Q72 -10 40.5 20Q9 50 9 100Q9 154 42.5 184Q76 214 127 214Q143 214 162 211.5Q181 209 198 202L206 335H105ZM126 45Q156 45 172.5 68.5Q189 92 192 136Q178 144 161.5 149.5Q145 155 126 155Q98 155 85 139Q72 123 72 100Q72 74 87 59.5Q102 45 126 45Z" glyph-name="sterling" horiz-adv-x="709" unicode="&#163;" /><glyph d="M247 546H384V475H247V159Q247 122 262.5 105.5Q278 89 313 89Q353 89 390 109L408 63Q373 28 328.5 9Q284 -10 230 -10Q155 -10 116 26.5Q77 63 77 141V475H9V525Q58 543 107.5 582.5Q157 622 195 670H247Z" glyph-name="t" horiz-adv-x="412" unicode="t" /><glyph d="M268 546H405V475H268V374H405V307H268V159Q268 122 283.5 105.5Q299 89 334 89Q374 89 411 109L429 63Q394 28 349.5 9Q305 -10 251 -10Q176 -10 137 26.5Q98 63 98 141V307H30V374H98V475H30V525Q79 543 128.5 582.5Q178 622 216 670H268Z" glyph-name="tbar" horiz-adv-x="453" unicode="&#359;" /><glyph d="M367 612H299L314 817H458ZM247 546H384V475H247V159Q247 122 262.5 105.5Q278 89 313 89Q353 89 390 109L408 63Q373 28 328.5 9Q284 -10 230 -10Q155 -10 116 26.5Q77 63 77 141V475H9V525Q58 543 107.5 582.5Q157 622 195 670H247Z" glyph-name="tcaron" horiz-adv-x="412" unicode="&#357;" /><glyph d="M170 -157Q147 -151 134.5 -137Q122 -123 122 -98Q122 -72 143 -54Q164 -36 202 -36Q247 -36 271.5 -62Q296 -88 296 -130Q296 -154 287 -175.5Q278 -197 258 -212.5Q238 -228 206.5 -237Q175 -246 129 -246V-203Q177 -203 201 -190Q225 -177 227 -157ZM247 546H384V475H247V159Q247 122 262.5 105.5Q278 89 313 89Q353 89 390 109L408 63Q373 28 328.5 9Q284 -10 230 -10Q155 -10 116 26.5Q77 63 77 141V475H9V525Q58 543 107.5 582.5Q157 622 195 670H247Z" glyph-name="tcommaaccent" horiz-adv-x="412" unicode="&#355;" /><glyph d="M242 165Q242 111 260.5 82.5Q279 54 324 54Q352 54 374 68.5Q396 83 411.5 109Q427 135 435 171Q443 207 443 250Q443 342 408.5 396Q374 450 314 450Q273 450 242 430ZM73 632 14 686V720L210 761H242V461Q266 503 306 529.5Q346 556 403 556Q501 556 558 488.5Q615 421 615 301Q615 228 593.5 170.5Q572 113 534.5 73Q497 33 446 11.5Q395 -10 336 -10Q306 -10 280.5 -2Q255 6 241 19V-79Q241 -96 244.5 -106.5Q248 -117 256 -122.5Q264 -128 276 -131Q288 -134 305 -136V-197H8V-136Q25 -134 37 -131Q49 -128 57 -122.5Q65 -117 69 -106.5Q73 -96 73 -79Z" glyph-name="thorn" horiz-adv-x="649" unicode="&#254;" /><glyph d="M324 395Q370 392 408.5 378.5Q447 365 475 341Q503 317 518 283.5Q533 250 533 207Q533 153 509.5 112.5Q486 72 447 45Q408 18 358.5 4Q309 -10 257 -10Q199 -10 155 2Q111 14 81 34Q51 54 35.5 80.5Q20 107 20 136Q20 165 35 185Q50 205 67 213H166V177Q166 114 193 81.5Q220 49 272 49Q318 49 343 77.5Q368 106 368 160Q368 232 325 274.5Q282 317 206 317H182L170 359Q254 390 290.5 424Q327 458 327 502Q327 540 303.5 564Q280 588 234 588Q186 588 151.5 566Q117 544 91 515L54 547Q71 581 95.5 611Q120 641 151.5 663.5Q183 686 222 699Q261 712 309 712Q350 712 383.5 701Q417 690 441 669.5Q465 649 478 620Q491 591 491 555Q491 521 477 494.5Q463 468 439.5 448Q416 428 386 414.5Q356 401 324 395Z" glyph-name="three" horiz-adv-x="571" unicode="3" /><glyph d="M253 537Q313 535 350.5 503.5Q388 472 388 419Q388 384 373 357.5Q358 331 331.5 313.5Q305 296 270.5 287Q236 278 197 278Q113 278 74 306.5Q35 335 35 373Q35 395 45 407.5Q55 420 66 425H146V401Q146 363 160 342Q174 321 203 321Q259 321 259 396Q259 441 236 464.5Q213 488 171 488H152L143 517Q193 537 214 555.5Q235 574 235 601Q235 623 220 637.5Q205 652 176 652Q144 652 123.5 637Q103 622 89 603L55 626Q76 675 121.5 709.5Q167 744 235 744Q295 744 330 716Q365 688 365 639Q365 595 331.5 569.5Q298 544 253 537ZM696 102V286L552 102ZM696 -71V47H481V92L713 389H831V102H917V47H831V-71ZM691 741H765L315 0H242Z" glyph-name="threequarters" horiz-adv-x="967" unicode="&#190;" /><glyph d="M253 537Q313 535 350.5 503.5Q388 472 388 419Q388 384 373 357.5Q358 331 331.5 313.5Q305 296 270.5 287Q236 278 197 278Q113 278 74 306.5Q35 335 35 373Q35 395 45 407.5Q55 420 66 425H146V401Q146 363 160 342Q174 321 203 321Q259 321 259 396Q259 441 236 464.5Q213 488 171 488H152L143 517Q193 537 214 555.5Q235 574 235 601Q235 623 220 637.5Q205 652 176 652Q144 652 123.5 637Q103 622 89 603L55 626Q76 675 121.5 709.5Q167 744 235 744Q295 744 330 716Q365 688 365 639Q365 595 331.5 569.5Q298 544 253 537Z" glyph-name="threesuperior" horiz-adv-x="434" unicode="&#179;" /><glyph d="M447 755Q427 710 411.5 682Q396 654 380.5 638.5Q365 623 348.5 617.5Q332 612 311 612Q290 612 271 621.5Q252 631 235 643Q218 655 202.5 664.5Q187 674 173 674Q150 674 136 658Q122 642 108 618L52 629Q72 674 88 702.5Q104 731 119 746.5Q134 762 151 767.5Q168 773 189 773Q213 773 232 763Q251 753 267.5 741.5Q284 730 298 720Q312 710 327 710Q349 710 363 726Q377 742 392 767Z" glyph-name="tilde" horiz-adv-x="500" unicode="&#732;" /><glyph d="M447 887Q427 842 411.5 814Q396 786 380.5 770.5Q365 755 348.5 749.5Q332 744 311 744Q290 744 271 753.5Q252 763 235 775Q218 787 202.5 796.5Q187 806 173 806Q150 806 136 790Q122 774 108 750L52 762Q72 807 88 835Q104 863 119 878.5Q134 894 151 899.5Q168 905 189 905Q213 905 232 895Q251 885 267.5 873.5Q284 862 298 852Q312 842 327 842Q349 842 363 858Q377 874 392 899Z" glyph-name="tilde.cap" horiz-adv-x="500" /><glyph d="M371 702 378 586H344Q326 627 312 646Q298 665 268 665H256V428Q256 408 266.5 402Q277 396 301 394V361H121V394Q145 396 155 402Q165 408 165 428V665H154Q138 665 127.5 660Q117 655 108.5 645.5Q100 636 93 621Q86 606 77 586H43L50 702ZM683 665Q691 684 691 702H833V666Q809 666 800.5 658.5Q792 651 792 632L822 424Q825 407 834 401.5Q843 396 864 394V361H685V394Q711 396 721.5 401.5Q732 407 732 425Q732 428 731 438Q730 448 728 461L706 604L623 361H582L496 604L476 461Q474 448 473 438Q472 428 472 425Q472 407 482.5 401.5Q493 396 519 394V361H383V394Q405 396 414 401.5Q423 407 425 424L456 632Q456 651 447.5 658.5Q439 666 416 666V702H558Q559 694 560.5 685Q562 676 566 665L627 493Z" glyph-name="trademark" horiz-adv-x="940" unicode="&#8482;" /><glyph d="M339 135Q365 135 383.5 137.5Q402 140 417.5 149.5Q433 159 448.5 178.5Q464 198 483 231H528L502 0H2V50L196 239Q231 273 254.5 302Q278 331 292 358Q306 385 312 411Q318 437 318 465Q318 525 286.5 553.5Q255 582 200 582Q175 582 154.5 576Q134 570 117 560Q100 550 85 537Q70 524 57 511L23 549Q42 582 66.5 612Q91 642 123 664Q155 686 194 699Q233 712 280 712Q380 712 438 661.5Q496 611 496 518Q496 464 470 416Q444 368 400 321.5Q356 275 296.5 229Q237 183 170 135Z" glyph-name="two" horiz-adv-x="561" unicode="2" /><glyph d="M274 388Q290 388 300 389.5Q310 391 318.5 397Q327 403 335.5 413.5Q344 424 356 442H393L380 287H25V329L149 441Q197 483 219.5 515Q242 547 242 586Q242 618 223.5 636.5Q205 655 170 655Q138 655 113 638Q88 621 71 601L41 633Q53 655 71 676Q89 697 113 713Q137 729 166.5 738.5Q196 748 231 748Q295 748 334.5 714Q374 680 374 618Q374 581 356 550Q338 519 308.5 491.5Q279 464 241 438.5Q203 413 163 388Z" glyph-name="twosuperior" horiz-adv-x="442" unicode="&#178;" /><glyph d="M415 88Q401 71 382 53.5Q363 36 340 22Q317 8 289 -1Q261 -10 228 -10Q162 -10 121 30.5Q80 71 80 159V399Q80 422 72 436.5Q64 451 38 456L23 461V513L219 556H250V176Q250 94 317 94Q347 94 370 101Q393 108 415 118V399Q415 422 407 436.5Q399 451 373 456L359 461V513L553 556H585V138Q585 112 593 99.5Q601 87 626 85H650V23L449 -10H415Z" glyph-name="u" horiz-adv-x="675" unicode="u" /><glyph d="M533 765 379 603H294L363 765ZM415 88Q401 71 382 53.5Q363 36 340 22Q317 8 289 -1Q261 -10 228 -10Q162 -10 121 30.5Q80 71 80 159V399Q80 422 72 436.5Q64 451 38 456L23 461V513L219 556H250V176Q250 94 317 94Q347 94 370 101Q393 108 415 118V399Q415 422 407 436.5Q399 451 373 456L359 461V513L553 556H585V138Q585 112 593 99.5Q601 87 626 85H650V23L449 -10H415Z" glyph-name="uacute" horiz-adv-x="675" unicode="&#250;" /><glyph d="M415 88Q401 71 382 53.5Q363 36 340 22Q317 8 289 -1Q261 -10 228 -10Q162 -10 121 30.5Q80 71 80 159V399Q80 422 72 436.5Q64 451 38 456L23 461V513L219 556H250V176Q250 94 317 94Q347 94 370 101Q393 108 415 118V399Q415 422 407 436.5Q399 451 373 456L359 461V513L553 556H585V138Q585 112 593 99.5Q601 87 626 85H650V23L449 -10H415ZM343 601Q269 601 228.5 645.5Q188 690 188 771H252Q255 747 264 731Q273 715 285.5 705.5Q298 696 313 692Q328 688 343 688Q358 688 373.5 692Q389 696 401.5 705.5Q414 715 423 731Q432 747 435 771H499Q499 690 458.5 645.5Q418 601 343 601Z" glyph-name="ubreve" horiz-adv-x="675" unicode="&#365;" /><glyph d="M544 596H458L344 681L230 596H144L283 766H405ZM415 88Q401 71 382 53.5Q363 36 340 22Q317 8 289 -1Q261 -10 228 -10Q162 -10 121 30.5Q80 71 80 159V399Q80 422 72 436.5Q64 451 38 456L23 461V513L219 556H250V176Q250 94 317 94Q347 94 370 101Q393 108 415 118V399Q415 422 407 436.5Q399 451 373 456L359 461V513L553 556H585V138Q585 112 593 99.5Q601 87 626 85H650V23L449 -10H415Z" glyph-name="ucircumflex" horiz-adv-x="675" unicode="&#251;" /><glyph d="M145 688Q145 722 169 746.5Q193 771 228 771Q263 771 287.5 746.5Q312 722 312 688Q312 654 287.5 629.5Q263 605 228 605Q193 605 169 629.5Q145 654 145 688ZM359 688Q359 705 365.5 720Q372 735 383.5 746.5Q395 758 409.5 764.5Q424 771 441 771Q477 771 501.5 746.5Q526 722 526 688Q526 654 501.5 629.5Q477 605 441 605Q424 605 409.5 611.5Q395 618 383.5 629.5Q372 641 365.5 656Q359 671 359 688ZM415 88Q401 71 382 53.5Q363 36 340 22Q317 8 289 -1Q261 -10 228 -10Q162 -10 121 30.5Q80 71 80 159V399Q80 422 72 436.5Q64 451 38 456L23 461V513L219 556H250V176Q250 94 317 94Q347 94 370 101Q393 108 415 118V399Q415 422 407 436.5Q399 451 373 456L359 461V513L553 556H585V138Q585 112 593 99.5Q601 87 626 85H650V23L449 -10H415Z" glyph-name="udieresis" horiz-adv-x="675" unicode="&#252;" /><glyph d="M415 88Q401 71 382 53.5Q363 36 340 22Q317 8 289 -1Q261 -10 228 -10Q162 -10 121 30.5Q80 71 80 159V399Q80 422 72 436.5Q64 451 38 456L23 461V513L219 556H250V176Q250 94 317 94Q347 94 370 101Q393 108 415 118V399Q415 422 407 436.5Q399 451 373 456L359 461V513L553 556H585V138Q585 112 593 99.5Q601 87 626 85H650V23L449 -10H415ZM323 765 391 603H307L153 765Z" glyph-name="ugrave" horiz-adv-x="675" unicode="&#249;" /><glyph d="M415 88Q401 71 382 53.5Q363 36 340 22Q317 8 289 -1Q261 -10 228 -10Q162 -10 121 30.5Q80 71 80 159V399Q80 422 72 436.5Q64 451 38 456L23 461V513L219 556H250V176Q250 94 317 94Q347 94 370 101Q393 108 415 118V399Q415 422 407 436.5Q399 451 373 456L359 461V513L553 556H585V138Q585 112 593 99.5Q601 87 626 85H650V23L449 -10H415ZM401 765 265 603H187L254 765ZM587 765 451 603H373L440 765Z" glyph-name="uhungarumlaut" horiz-adv-x="675" unicode="&#369;" /><glyph d="M415 88Q401 71 382 53.5Q363 36 340 22Q317 8 289 -1Q261 -10 228 -10Q162 -10 121 30.5Q80 71 80 159V399Q80 422 72 436.5Q64 451 38 456L23 461V513L219 556H250V176Q250 94 317 94Q347 94 370 101Q393 108 415 118V399Q415 422 407 436.5Q399 451 373 456L359 461V513L553 556H585V138Q585 112 593 99.5Q601 87 626 85H650V23L449 -10H415ZM195 718H493V625H195Z" glyph-name="umacron" horiz-adv-x="675" unicode="&#363;" /><glyph d="M20 -159V-66H420V-159Z" glyph-name="underscore" horiz-adv-x="440" unicode="_" /><glyph d="M650 23Q582 9 539 -5.5Q496 -20 471.5 -35Q447 -50 438 -65Q429 -80 429 -96Q429 -113 439.5 -125Q450 -137 474 -137Q491 -137 508 -132.5Q525 -128 548 -114L566 -140Q534 -175 500 -195Q466 -215 424 -215Q385 -215 357 -193Q329 -171 329 -131Q329 -90 353.5 -62Q378 -34 415 -11V88Q401 71 382 53.5Q363 36 340 22Q317 8 289 -1Q261 -10 228 -10Q162 -10 121 30.5Q80 71 80 159V399Q80 422 72 436.5Q64 451 38 456L23 461V513L219 556H250V176Q250 94 317 94Q347 94 370 101Q393 108 415 118V399Q415 422 407 436.5Q399 451 373 456L359 461V513L553 556H585V138Q585 112 593 99.5Q601 87 626 85H650V23Z" glyph-name="uogonek" horiz-adv-x="675" unicode="&#371;" /><glyph d="M235 694Q235 736 265.5 764.5Q296 793 344 793Q392 793 422.5 764.5Q453 736 453 694Q453 652 422.5 623.5Q392 595 344 595Q296 595 265.5 623.5Q235 652 235 694ZM391 694Q391 714 379 727Q367 740 344 740Q321 740 309 727Q297 714 297 694Q297 674 309 661Q321 648 344 648Q367 648 379 661Q391 674 391 694ZM415 88Q401 71 382 53.5Q363 36 340 22Q317 8 289 -1Q261 -10 228 -10Q162 -10 121 30.5Q80 71 80 159V399Q80 422 72 436.5Q64 451 38 456L23 461V513L219 556H250V176Q250 94 317 94Q347 94 370 101Q393 108 415 118V399Q415 422 407 436.5Q399 451 373 456L359 461V513L553 556H585V138Q585 112 593 99.5Q601 87 626 85H650V23L449 -10H415Z" glyph-name="uring" horiz-adv-x="675" unicode="&#367;" /><glyph d="M415 88Q401 71 382 53.5Q363 36 340 22Q317 8 289 -1Q261 -10 228 -10Q162 -10 121 30.5Q80 71 80 159V399Q80 422 72 436.5Q64 451 38 456L23 461V513L219 556H250V176Q250 94 317 94Q347 94 370 101Q393 108 415 118V399Q415 422 407 436.5Q399 451 373 456L359 461V513L553 556H585V138Q585 112 593 99.5Q601 87 626 85H650V23L449 -10H415ZM534 755Q514 710 498.5 682Q483 654 467.5 638.5Q452 623 435.5 617.5Q419 612 398 612Q377 612 358 621.5Q339 631 322 643Q305 655 289.5 664.5Q274 674 260 674Q237 674 223 658Q209 642 195 618L139 629Q159 674 175 702.5Q191 731 206 746.5Q221 762 238 767.5Q255 773 276 773Q300 773 319 763Q338 753 354.5 741.5Q371 730 385 720Q399 710 414 710Q436 710 450 726Q464 742 479 767Z" glyph-name="utilde" horiz-adv-x="675" unicode="&#361;" /><glyph d="M602 486Q575 476 564 469Q553 462 546 446L334 -5H284L62 446Q58 454 53.5 459.5Q49 465 43 469Q37 473 28 477Q19 481 5 486V546H321V486Q282 481 267.5 474.5Q253 468 253 450Q253 439 261 419L354 201L450 419Q455 431 456.5 437.5Q458 444 458 450Q458 468 443 474.5Q428 481 390 486V546H602Z" glyph-name="v" horiz-adv-x="607" unicode="v" /><glyph d="M727 418Q734 436 734 450Q734 468 721.5 475Q709 482 683 486V546H874V486Q846 476 835 469.5Q824 463 817 446L634 -5H580L449 317L311 -5H258L61 446Q54 462 43.5 469.5Q33 477 5 486V546H296V486Q271 482 261 474.5Q251 467 251 453Q251 445 253.5 436.5Q256 428 261 417L338 217L414 400L396 446Q389 463 380 471.5Q371 480 349 486V546H622V486Q593 482 582 475.5Q571 469 571 452Q571 444 573.5 435Q576 426 579 418L651 221Z" glyph-name="w" horiz-adv-x="879" unicode="w" /><glyph d="M660 765 506 603H421L490 765ZM727 418Q734 436 734 450Q734 468 721.5 475Q709 482 683 486V546H874V486Q846 476 835 469.5Q824 463 817 446L634 -5H580L449 317L311 -5H258L61 446Q54 462 43.5 469.5Q33 477 5 486V546H296V486Q271 482 261 474.5Q251 467 251 453Q251 445 253.5 436.5Q256 428 261 417L338 217L414 400L396 446Q389 463 380 471.5Q371 480 349 486V546H622V486Q593 482 582 475.5Q571 469 571 452Q571 444 573.5 435Q576 426 579 418L651 221Z" glyph-name="wacute" horiz-adv-x="879" unicode="&#7811;" /></font>
</defs>
</svg>
