<?xml version="1.0" encoding="utf-8"?>
<!-- Generator: Adobe Illustrator 17.1.0, SVG Export Plug-In . SVG Version: 6.00 Build 0)  -->
<!DOCTYPE svg PUBLIC "-//W3C//DTD SVG 1.1//EN" "http://www.w3.org/Graphics/SVG/1.1/DTD/svg11.dtd">
<svg version="1.1" id="Layer_1" xmlns="http://www.w3.org/2000/svg" xmlns:xlink="http://www.w3.org/1999/xlink" x="0px" y="0px"
	 viewBox="0 0 28 28" enable-background="new 0 0 28 28" xml:space="preserve">
<path fill-rule="evenodd" clip-rule="evenodd" fill="#353941" d="M14,0c7.7,0,14,6.3,14,14s-6.3,14-14,14S0,21.7,0,14S6.3,0,14,0z"
	/>
<path fill="#FFFFFF" d="M16.6,20.6c0.6-0.2,1.2-0.4,1.6-0.6s0.9-0.6,1.3-1c0.4-0.4,0.7-0.8,1.1-1.2l-2.9-2c-0.2,0.2-0.4,0.5-0.6,0.7
	c-0.2,0.2-0.4,0.4-0.7,0.5c-0.2,0.2-0.5,0.3-0.8,0.3c-0.3,0.1-0.6,0.1-1,0.1c-0.5,0-0.9-0.1-1.3-0.3c-0.4-0.2-0.7-0.4-1-0.8
	c-0.3-0.3-0.5-0.7-0.7-1.2c-0.2-0.5-0.2-0.9-0.2-1.4v0c0-0.5,0.1-1,0.2-1.4c0.2-0.4,0.4-0.8,0.7-1.2c0.3-0.3,0.6-0.6,1-0.8
	c0.4-0.2,0.8-0.3,1.3-0.3c0.7,0,1.2,0.1,1.7,0.4c0.5,0.3,0.9,0.7,1.3,1.2l2.9-2.2c-0.3-0.4-0.6-0.8-1-1.2c-0.4-0.4-0.8-0.7-1.3-0.9
	c-0.5-0.3-1-0.5-1.6-0.6c-0.6-0.1-1.2-0.2-1.9-0.2c-1,0-2,0.2-2.9,0.5c-0.9,0.4-1.6,0.9-2.3,1.5C8.8,9.2,8.3,10,8,10.9
	c-0.4,0.9-0.6,1.8-0.6,2.8v0c0,1,0.2,2,0.6,2.8c0.4,0.9,0.9,1.6,1.5,2.3c0.6,0.6,1.4,1.1,2.2,1.5c0.9,0.4,1.8,0.5,2.8,0.5
	C15.3,20.8,15.9,20.7,16.6,20.6z"/>
</svg>
