<?xml version="1.0" encoding="utf-8"?>
<!-- Generator: Adobe Illustrator 18.1.0, SVG Export Plug-In . SVG Version: 6.00 Build 0)  -->
<!DOCTYPE svg PUBLIC "-//W3C//DTD SVG 1.1//EN" "http://www.w3.org/Graphics/SVG/1.1/DTD/svg11.dtd">
<svg version="1.1" id="Layer_1" xmlns="http://www.w3.org/2000/svg" xmlns:xlink="http://www.w3.org/1999/xlink" x="0px" y="0px"
	 viewBox="0 0 698.1 433.2" enable-background="new 0 0 698.1 433.2" xml:space="preserve">
<g>
	<path fill="#14A2B7" d="M304.9,80.2H40.1C17.9,80.2,0,62.2,0,40.1S17.9,0,40.1,0h264.8C327,0,345,17.9,345,40.1
		S327,80.2,304.9,80.2z"/>
</g>
<g>
	<path fill="#F15745" d="M658,80.2H481.4c-22.1,0-40.1-17.9-40.1-40.1S459.3,0,481.4,0H658C680.1,0,698,17.9,698,40.1
		S680.1,80.2,658,80.2z"/>
</g>
<g>
	<path fill="#93BC3F" d="M393.2,256.7H40.1C17.9,256.7,0,238.8,0,216.6s17.9-40.1,40.1-40.1h353.1c22.1,0,40.1,17.9,40.1,40.1
		S415.3,256.7,393.2,256.7z"/>
</g>
<g>
	<path fill="#454A52" d="M658,256.7h-88.3c-22.1,0-40.1-17.9-40.1-40.1s17.9-40.1,40.1-40.1H658c22.1,0,40.1,17.9,40.1,40.1
		S680.1,256.7,658,256.7z"/>
</g>
<g>
	<path fill="#FACB34" d="M658,433.2H216.6c-22.1,0-40.1-17.9-40.1-40.1c0-22.1,17.9-40.1,40.1-40.1H658c22.1,0,40.1,17.9,40.1,40.1
		C698,415.3,680.1,433.2,658,433.2z"/>
</g>
<circle fill="#454A52" cx="40.1" cy="393.2" r="40.1"/>
</svg>
