<?xml version="1.0" encoding="UTF-8" standalone="no"?>
<svg width="300px" height="20px" viewBox="0 0 300 20" version="1.1" xmlns="http://www.w3.org/2000/svg" xmlns:xlink="http://www.w3.org/1999/xlink" xmlns:sketch="http://www.bohemiancoding.com/sketch/ns">
    <title>product-building</title>
    <description>Created with Sketch (http://www.bohemiancoding.com/sketch)</description>
    <defs></defs>
    <g id="Page-1" stroke="none" stroke-width="1" fill="none" fill-rule="evenodd" sketch:type="MSPage">
        <g id="product-building" sketch:type="MSArtboardGroup" fill="#000000">
            <path d="M220.200036,12 L159.799964,12 L159.799964,12 C159.931139,11.3537801 160,10.6849317 160,10 C160,9.31506832 159.931139,8.64621988 159.799964,8 L220.200036,8 C221.126577,3.43551919 225.162084,0 230,0 C234.837916,0 238.873423,3.43551919 239.799964,8 L298.00597,8 C299.100186,8 300,8.8954305 300,10 C300,11.1122704 299.107243,12 298.00597,12 L239.799964,12 C238.873423,16.5644808 234.837916,20 230,20 C225.162084,20 221.126577,16.5644808 220.200036,12 Z M220.200036,12" id="Rectangle-1" fill-opacity="0.1" sketch:type="MSShapeGroup"></path>
            <path d="M140.200036,8 L79.7999638,8 C78.8734232,3.43551919 74.8379161,0 70,0 C65.1620839,0 61.1265768,3.43551919 60.2000362,8 L2.99770379,8 C1.89440245,8 1,8.88772964 1,10 C1,11.1045695 1.88856639,12 2.99770379,12 L60.2000362,12 L60.2000362,12 C61.1265768,16.5644808 65.1620839,20 70,20 C74.8379161,20 78.8734232,16.5644808 79.7999638,12 L140.200036,12 C141.126577,16.5644808 145.162084,20 150,20 C155.522848,20 160,15.5228478 160,10 C160,4.47715223 155.522848,0 150,0 C145.162084,0 141.126577,3.43551919 140.200036,8 L140.200036,8 Z M70,16 C73.3137087,16 76,13.3137087 76,10 C76,6.68629134 73.3137087,4 70,4 C66.6862913,4 64,6.68629134 64,10 C64,13.3137087 66.6862913,16 70,16 Z M150,16 C153.313709,16 156,13.3137087 156,10 C156,6.68629134 153.313709,4 150,4 C146.686291,4 144,6.68629134 144,10 C144,13.3137087 146.686291,16 150,16 Z M150,16" id="Rectangle-1" fill-opacity="0.4" sketch:type="MSShapeGroup"></path>
        </g>
    </g>
</svg>