<?xml version="1.0" encoding="UTF-8" standalone="no"?>
<svg width="300px" height="20px" viewBox="0 0 300 20" version="1.1" xmlns="http://www.w3.org/2000/svg" xmlns:xlink="http://www.w3.org/1999/xlink" xmlns:sketch="http://www.bohemiancoding.com/sketch/ns">
    <title>product-validating</title>
    <description>Created with Sketch (http://www.bohemiancoding.com/sketch)</description>
    <defs></defs>
    <g id="Page-1" stroke="none" stroke-width="1" fill="none" fill-rule="evenodd" sketch:type="MSPage">
        <g id="product-validating" sketch:type="MSArtboardGroup" fill="#000000">
            <path d="M79.7999638,8 L140.200036,8 C141.126577,3.43551919 145.162084,0 150,0 C154.837916,0 158.873423,3.43551919 159.799964,8 L220.200036,8 L220.200036,8 C221.126577,3.43551919 225.162084,0 230,0 C234.837916,0 238.873423,3.43551919 239.799964,8 L297.997273,8 C299.106955,8 300,8.8954305 300,10 C300,11.1122704 299.103348,12 297.997273,12 L239.799964,12 C238.873423,16.5644808 234.837916,20 230,20 C225.162084,20 221.126577,16.5644808 220.200036,12 L159.799964,12 C158.873423,16.5644808 154.837916,20 150,20 C145.162084,20 141.126577,16.5644808 140.200036,12 L140.200036,12 L79.7999638,12 C79.9311395,11.3537801 80,10.6849317 80,10 C80,9.31506832 79.9311395,8.64621988 79.7999638,8 Z M79.7999638,8" id="Rectangle-1" fill-opacity="0.1" sketch:type="MSShapeGroup"></path>
            <path d="M60.2000362,12 L1.99749826,12 C0.8984375,12 0,11.1045695 0,10 C0,8.88772964 0.894310431,8 1.99749826,8 L60.2000362,8 C61.1265768,3.43551919 65.1620839,0 70,0 C75.5228478,0 80,4.47715223 80,10 C80,15.5228478 75.5228478,20 70,20 C65.1620839,20 61.1265768,16.5644808 60.2000362,12 L60.2000362,12 Z M70,16 C73.3137087,16 76,13.3137087 76,10 C76,6.68629134 73.3137087,4 70,4 C66.6862913,4 64,6.68629134 64,10 C64,13.3137087 66.6862913,16 70,16 Z M70,16" id="Rectangle-1" fill-opacity="0.4" sketch:type="MSShapeGroup"></path>
        </g>
    </g>
</svg>