<svg xmlns="http://www.w3.org/2000/svg" viewBox="0 0 190 407" enable-background="new 0 0 190 407"><path fill="#385592" d="M62.6 21C78.5 5.9 101.1.8 122.4.1c22.5-.2 45-.1 67.6-.1.1 23.8.1 47.5 0 71.3-14.6 0-29.1 0-43.7 0-9.2-.6-18.7 6.4-20.4 15.6-.2 15.9-.1 31.8-.1 47.7 21.4.1 42.7 0 64.1.1-1.6 23-4.4 45.9-7.8 68.7-18.9.2-37.7 0-56.6.1-.2 67.8.1 135.7-.1 203.5-28 .1-56-.1-84.1.1-.5-67.8 0-135.7-.3-203.6-13.7-.1-27.3.1-41-.1.1-22.8 0-45.6 0-68.4 13.7-.2 27.3 0 41-.1.4-22.2-.4-44.4.4-66.5 1.4-17.6 8.1-35.3 21.2-47.4z"/></svg>