<svg xmlns="http://www.w3.org/2000/svg" viewBox="0 0 500 78" enable-background="new 0 0 500 78"><path fill="#F35443" d="M272.1 67.1h66.7c3 0 5.4 2.4 5.4 5.5s-2.4 5.5-5.4 5.5h-66.7c-3 0-5.4-2.4-5.4-5.5s2.4-5.5 5.4-5.5z"/><path fill="#10A3B8" d="M94.1 67.1h66.7c3 0 5.4 2.4 5.4 5.5s-2.4 5.5-5.4 5.5H94.1c-3 0-5.4-2.4-5.4-5.5s2.4-5.5 5.4-5.5z"/><path fill="#94BB2C" d="M227.6 67.1h22.2c3 0 5.4 2.4 5.4 5.5s-2.4 5.5-5.4 5.5h-22.2c-3 0-5.4-2.4-5.4-5.5s2.4-5.5 5.4-5.5zM205.4 67.1c1.4 0 2.8.6 3.8 1.6s1.6 2.4 1.6 3.9c0 1.4-.6 2.8-1.6 3.8-2 2-5.6 2-7.7 0-1-1-1.6-2.4-1.6-3.8s.6-2.8 1.6-3.9c1-1 2.5-1.6 3.9-1.6z"/><path fill="#235B66" d="M405.6 67.1c1.4 0 2.8.6 3.8 1.6s1.6 2.4 1.6 3.9c0 1.4-.6 2.8-1.6 3.8-2 2-5.7 2-7.7 0-1-1-1.6-2.4-1.6-3.8s.6-2.8 1.6-3.9c1.1-1 2.5-1.6 3.9-1.6z"/><path fill="#10A3B8" d="M160.9 0h66.7c3 0 5.4 2.4 5.4 5.5s-2.4 5.5-5.4 5.5h-66.7c-3 0-5.4-2.4-5.4-5.5s2.4-5.5 5.4-5.5z"/><path fill="#FBCA32" d="M383.4 0h44.5c3 0 5.4 2.4 5.4 5.5s-2.4 5.5-5.4 5.5h-44.5c-3 0-5.4-2.4-5.4-5.5s2.4-5.5 5.4-5.5z"/><path fill="#235B66" d="M294.4 0h44.5c3 0 5.4 2.4 5.4 5.5s-2.4 5.5-5.4 5.5h-44.5c-3 0-5.4-2.4-5.4-5.5s2.4-5.5 5.4-5.5z"/><path fill="#FBCA32" d="M361.1 22.4h22.2c3 0 5.4 2.4 5.4 5.5s-2.4 5.5-5.4 5.5h-22.2c-3 0-5.4-2.4-5.4-5.5s2.4-5.5 5.4-5.5zM316.6 22.4h22.2c3 0 5.4 2.4 5.4 5.5s-2.4 5.5-5.4 5.5h-22.2c-3 0-5.4-2.4-5.4-5.5s2.4-5.5 5.4-5.5z"/><path fill="#94BB2C" d="M405.6 22.4c1.4 0 2.8.6 3.8 1.6s1.6 2.4 1.6 3.9c0 1.4-.6 2.8-1.6 3.8-2 2-5.6 2-7.7 0-1-1-1.6-2.4-1.6-3.8s.6-2.9 1.6-3.9c1.1-1.1 2.5-1.6 3.9-1.6z"/><path fill="#FBCA32" d="M361.1 0c1.4 0 2.8.6 3.8 1.6s1.6 2.4 1.6 3.9c0 1.4-.6 2.8-1.6 3.8-2 2-5.7 2-7.7 0-1-1-1.6-2.4-1.6-3.8s.6-2.9 1.6-3.9c1.1-1 2.5-1.6 3.9-1.6z"/><path fill="#F35443" d="M338.9 44.7h44.5c3 0 5.4 2.4 5.4 5.5s-2.4 5.5-5.4 5.5h-44.5c-3 0-5.4-2.4-5.4-5.5s2.4-5.5 5.4-5.5z"/><path fill="#94BB2C" d="M249.9 22.4h44.5c3 0 5.4 2.4 5.4 5.5s-2.4 5.5-5.4 5.5h-44.5c-3 0-5.4-2.4-5.4-5.5s2.4-5.5 5.4-5.5z"/><path fill="#FBCA32" d="M160.9 22.4h44.5c3 0 5.4 2.4 5.4 5.5s-2.4 5.5-5.4 5.5h-44.5c-3 0-5.4-2.4-5.4-5.5s2.4-5.5 5.4-5.5z"/><path fill="#235B66" d="M227.6 44.7h22.2c3 0 5.4 2.4 5.4 5.5s-2.4 5.5-5.4 5.5h-22.2c-3 0-5.4-2.4-5.4-5.5s2.4-5.5 5.4-5.5zM183.1 44.7h22.2c3 0 5.4 2.4 5.4 5.5s-2.4 5.5-5.4 5.5h-22.2c-3 0-5.4-2.4-5.4-5.5s2.4-5.5 5.4-5.5z"/><path fill="#10A3B8" d="M272.1 44.7c1.4 0 2.8.6 3.8 1.6s1.6 2.4 1.6 3.9-.5 2.8-1.6 3.8c-2 2-5.6 2-7.7 0-1-1-1.6-2.4-1.6-3.8s.6-2.8 1.6-3.9c1.1-1 2.5-1.6 3.9-1.6z"/><path fill="#94BB2C" d="M227.6 22.4c1.4 0 2.8.6 3.8 1.6s1.6 2.4 1.6 3.9-.6 2.8-1.6 3.8c-2 2-5.7 2-7.7 0-1-1-1.6-2.4-1.6-3.8s.6-2.9 1.6-3.9c1.1-1.1 2.5-1.6 3.9-1.6z"/><path fill="#10A3B8" d="M138.6 0c1.4 0 2.8.6 3.8 1.6S144 4 144 5.5c0 1.4-.6 2.8-1.6 3.8-2 2-5.7 2-7.7 0-1-1-1.6-2.4-1.6-3.8s.6-2.9 1.6-3.9c1.1-1 2.5-1.6 3.9-1.6z"/><path fill="#94BB2C" d="M160.9 44.7c1.4 0 2.8.6 3.8 1.6s1.6 2.4 1.6 3.9-.6 2.8-1.6 3.8c-2 2-5.7 2-7.7 0-1-1-1.6-2.4-1.6-3.8s.6-2.9 1.6-3.9 2.4-1.6 3.9-1.6zM138.6 44.7c1.4 0 2.8.6 3.8 1.6s1.6 2.4 1.6 3.9-.6 2.8-1.6 3.8c-2 2-5.7 2-7.7 0-1-1-1.6-2.4-1.6-3.8s.6-2.8 1.6-3.9c1.1-1 2.5-1.6 3.9-1.6z"/><path fill="#235B66" d="M249.9 0h22.2c3 0 5.4 2.4 5.4 5.5s-2.4 5.5-5.4 5.5h-22.2c-3 0-5.4-2.4-5.4-5.5s2.4-5.5 5.4-5.5z"/><path fill="#94BB2C" d="M94.1 0h22.2c3 0 5.4 2.4 5.4 5.5s-2.4 5.5-5.4 5.5H94.1c-3 0-5.4-2.4-5.4-5.5S91.1 0 94.1 0z"/><path fill="#FBCA32" d="M94.1 22.4c1.4 0 2.8.6 3.8 1.6s1.6 2.4 1.6 3.9c0 1.4-.6 2.8-1.6 3.8-2 2-5.7 2-7.7 0-1-1-1.6-2.4-1.6-3.8s.6-2.9 1.6-3.9c1.1-1.1 2.5-1.6 3.9-1.6zM116.4 22.4h22.2c3 0 5.4 2.4 5.4 5.5s-2.4 5.5-5.4 5.5h-22.2c-3 0-5.4-2.4-5.4-5.5s2.4-5.5 5.4-5.5z"/><path fill="#94BB2C" d="M94.1 44.7h22.2c3 0 5.4 2.4 5.4 5.5s-2.4 5.5-5.4 5.5H94.1c-3 0-5.4-2.4-5.4-5.5s2.4-5.5 5.4-5.5zM427.9 22.4h22.2c3 0 5.4 2.4 5.4 5.5s-2.4 5.5-5.4 5.5h-22.2c-3 0-5.4-2.4-5.4-5.5s2.4-5.5 5.4-5.5z"/><path fill="#10A3B8" d="M316.6 44.7c1.4 0 2.8.6 3.8 1.6s1.6 2.4 1.6 3.9-.6 2.8-1.6 3.8c-2 2-5.6 2-7.7 0-1-1-1.6-2.4-1.6-3.8s.6-2.9 1.6-3.9c1.1-1 2.5-1.6 3.9-1.6zM294.4 44.7c1.4 0 2.8.6 3.8 1.6s1.6 2.4 1.6 3.9-.6 2.8-1.6 3.8c-2 2-5.7 2-7.7 0-1-1-1.6-2.4-1.6-3.8s.6-2.8 1.6-3.9c1-1 2.4-1.6 3.9-1.6z"/><path fill="#F35443" d="M405.6 44.7h22.2c3 0 5.4 2.4 5.4 5.5s-2.4 5.5-5.4 5.5h-22.2c-3 0-5.4-2.4-5.4-5.5s2.4-5.5 5.4-5.5z"/><path fill="#FBCA32" d="M361.1 67.1h22.2c3 0 5.4 2.4 5.4 5.5s-2.4 5.5-5.4 5.5h-22.2c-3 0-5.4-2.4-5.4-5.5s2.4-5.5 5.4-5.5z"/><path fill="#10A3B8" d="M183.1 67.1c1.4 0 2.8.6 3.8 1.6s1.6 2.4 1.6 3.9c0 1.4-.6 2.8-1.6 3.8-2 2-5.7 2-7.7 0-1-1-1.6-2.4-1.6-3.8s.6-2.8 1.6-3.9c1.1-1 2.5-1.6 3.9-1.6z"/><path fill="#94BB2C" d="M294.7 78h-22.2c-3 0-5.4-2.4-5.4-5.5 0-3 2.4-5.5 5.4-5.5h22.2c3 0 5.4 2.4 5.4 5.5s-2.4 5.5-5.4 5.5z"/><path fill="#F35443" d="M250.2 78H228c-3 0-5.4-2.4-5.4-5.5 0-3 2.4-5.5 5.4-5.5h22.2c3 0 5.4 2.4 5.4 5.5s-2.4 5.5-5.4 5.5z"/><path fill="#94BB2C" d="M427.8 55.6h-22.2c-3 0-5.4-2.4-5.4-5.5s2.4-5.5 5.4-5.5h22.2c3 0 5.4 2.4 5.4 5.5s-2.4 5.5-5.4 5.5z"/><path fill="#235B66" d="M361.1 55.6h-22.2c-3 0-5.4-2.4-5.4-5.5s2.4-5.5 5.4-5.5h22.2c3 0 5.4 2.4 5.4 5.5s-2.4 5.5-5.4 5.5z"/><path fill="#10A3B8" d="M494.6 33.3h-66.7c-3 0-5.4-2.4-5.4-5.5s2.4-5.5 5.4-5.5h66.7c3 0 5.4 2.4 5.4 5.5s-2.4 5.5-5.4 5.5z"/><path fill="#FBCA32" d="M405.6 33.3h-66.7c-3 0-5.4-2.4-5.4-5.5s2.4-5.5 5.4-5.5h66.7c3 0 5.4 2.4 5.4 5.5s-2.4 5.5-5.4 5.5z"/><path fill="#F35443" d="M361.1 10.9h-22.2c-3 0-5.4-2.4-5.4-5.5s2.4-5.5 5.4-5.5h22.2c3 0 5.4 2.4 5.4 5.5s-2.4 5.5-5.4 5.5z"/><path fill="#235B66" d="M450.1 10.9h-22.2c-3 0-5.4-2.4-5.4-5.5s2.4-5.5 5.4-5.5h22.2c3 0 5.4 2.4 5.4 5.5s-2.4 5.5-5.4 5.5z"/><path fill="#F35443" d="M383.3 10.9c-1.4 0-2.8-.6-3.8-1.6s-1.6-2.4-1.6-3.9.6-2.8 1.6-3.8c2-2 5.6-2 7.7 0 1 1 1.6 2.4 1.6 3.8s-.6 2.8-1.6 3.9c-1 1-2.4 1.6-3.9 1.6zM405.6 10.9c-1.4 0-2.8-.6-3.8-1.6s-1.6-2.4-1.6-3.9.6-2.8 1.6-3.8c2-2 5.7-2 7.7 0 1 1 1.6 2.4 1.6 3.8s-.6 2.9-1.6 3.9c-1.1 1-2.5 1.6-3.9 1.6zM383.3 55.6c-1.4 0-2.8-.6-3.8-1.6s-1.6-2.4-1.6-3.9c0-1.4.6-2.8 1.6-3.8 2-2 5.7-2 7.7 0 1 1 1.6 2.4 1.6 3.8s-.6 2.9-1.6 3.9-2.4 1.6-3.9 1.6z"/><path fill="#FBCA32" d="M161.2 33.3H94.4c-3 0-5.4-2.4-5.4-5.5s2.4-5.5 5.4-5.5h66.7c3 0 5.4 2.4 5.4 5.5s-2.3 5.5-5.3 5.5zM316.9 10.9h-44.5c-3 0-5.4-2.4-5.4-5.5s2.4-5.5 5.4-5.5h44.5c3 0 5.4 2.4 5.4 5.5s-2.4 5.5-5.4 5.5z"/><path fill="#235B66" d="M205.7 10.9h-44.5c-3 0-5.4-2.4-5.4-5.5s2.4-5.5 5.4-5.5h44.5c3 0 5.4 2.4 5.4 5.5s-2.4 5.5-5.4 5.5z"/><path fill="#FBCA32" d="M250.2 10.9H228c-3 0-5.4-2.4-5.4-5.5S225-.1 228-.1h22.2c3 0 5.4 2.4 5.4 5.5s-2.4 5.5-5.4 5.5z"/><path fill="#94BB2C" d="M94.4 55.6H49.9c-3 0-5.4-2.4-5.4-5.5s2.4-5.5 5.4-5.5h44.5c3 0 5.4 2.4 5.4 5.5s-2.4 5.5-5.4 5.5z"/><path fill="#235B66" d="M227.9 55.6h-44.5c-3 0-5.4-2.4-5.4-5.5s2.4-5.5 5.4-5.5h44.5c3 0 5.4 2.4 5.4 5.5s-2.4 5.5-5.4 5.5z"/><path fill="#10A3B8" d="M316.9 55.6h-44.5c-3 0-5.4-2.4-5.4-5.5s2.4-5.5 5.4-5.5h44.5c3 0 5.4 2.4 5.4 5.5s-2.4 5.5-5.4 5.5z"/><path fill="#235B66" d="M161.2 55.6H139c-3 0-5.4-2.4-5.4-5.5s2.4-5.5 5.4-5.5h22.2c3 0 5.4 2.4 5.4 5.5s-2.4 5.5-5.4 5.5z"/><path fill="#FBCA32" d="M27.7 55.6H5.4c-3 0-5.4-2.4-5.4-5.5 0-3 2.4-5.5 5.4-5.5h22.2c3 0 5.4 2.4 5.4 5.5s-2.3 5.5-5.3 5.5z"/><path fill="#F35443" d="M250.2 33.3H228c-3 0-5.4-2.4-5.4-5.5s2.4-5.5 5.4-5.5h22.2c3 0 5.4 2.4 5.4 5.5s-2.4 5.5-5.4 5.5zM294.7 33.3h-22.2c-3 0-5.4-2.4-5.4-5.5s2.4-5.5 5.4-5.5h22.2c3 0 5.4 2.4 5.4 5.5s-2.4 5.5-5.4 5.5z"/><path fill="#10A3B8" d="M138.9 10.9c-1.4 0-2.8-.6-3.8-1.6s-1.6-2.4-1.6-3.9.6-2.8 1.6-3.8c2-2 5.7-2 7.7 0 1 1 1.6 2.4 1.6 3.8s-.6 2.9-1.6 3.9c-1.1 1-2.5 1.6-3.9 1.6zM116.7 10.9c-1.4 0-2.8-.6-3.8-1.6s-1.6-2.4-1.6-3.9.6-2.8 1.6-3.8c2-2 5.7-2 7.7 0 1 1 1.6 2.4 1.6 3.8s-.6 2.9-1.6 3.9c-1.1 1-2.5 1.6-3.9 1.6z"/><path fill="#94BB2C" d="M205.7 33.3c-1.4 0-2.8-.6-3.8-1.6s-1.6-2.4-1.6-3.9.6-2.8 1.6-3.8c2-2 5.7-2 7.7 0 1 1 1.6 2.4 1.6 3.8s-.6 2.9-1.6 3.9c-1.1 1-2.5 1.6-3.9 1.6z"/><path fill="#10A3B8" d="M250.2 55.6c-1.4 0-2.8-.6-3.8-1.6s-1.6-2.4-1.6-3.8.6-2.9 1.6-3.9c2-2 5.6-2 7.7 0 1 1 1.6 2.4 1.6 3.9 0 1.4-.6 2.8-1.6 3.8-1.1 1-2.5 1.6-3.9 1.6z"/><path fill="#FBCA32" d="M94.4 78H49.9c-3 0-5.4-2.4-5.4-5.5 0-3 2.4-5.5 5.4-5.5h44.5c3 0 5.4 2.4 5.4 5.5S97.4 78 94.4 78z"/><path fill="#F35443" d="M316.9 33.3c-1.4 0-2.8-.6-3.8-1.6s-1.6-2.4-1.6-3.9c0-1.4.6-2.8 1.6-3.8 2-2 5.7-2 7.7 0 1 1 1.6 2.4 1.6 3.8s-.6 2.9-1.6 3.9-2.5 1.6-3.9 1.6z"/><path fill="#94BB2C" d="M183.4 33.3c-1.4 0-2.8-.6-3.8-1.6s-1.6-2.4-1.6-3.9c0-1.4.6-2.8 1.6-3.8 2-2 5.7-2 7.7 0 1 1 1.6 2.4 1.6 3.8s-.6 2.9-1.6 3.9c-1.1 1-2.5 1.6-3.9 1.6z"/><path fill="#F35443" d="M72.2 33.3c-1.4 0-2.8-.6-3.8-1.6s-1.6-2.4-1.6-3.9c0-1.4.6-2.8 1.6-3.8 2-2 5.7-2 7.7 0 1 1 1.6 2.4 1.6 3.8s-.7 2.9-1.7 3.9-2.4 1.6-3.8 1.6z"/><path fill="#10A3B8" d="M94.4 10.9c-1.4 0-2.8-.6-3.8-1.6S89 6.9 89 5.4s.6-2.8 1.6-3.8c2-2 5.6-2 7.7 0 1 1 1.6 2.4 1.6 3.8s-.6 2.9-1.6 3.9c-1.1 1-2.5 1.6-3.9 1.6z"/><path fill="#235B66" d="M116.7 55.6c-1.4 0-2.8-.6-3.8-1.6s-1.6-2.4-1.6-3.9c0-1.4.6-2.8 1.6-3.8 2-2 5.7-2 7.7 0 1 1 1.6 2.4 1.6 3.8s-.6 2.9-1.6 3.9c-1.1 1-2.5 1.6-3.9 1.6z"/><path fill="#FBCA32" d="M427.8 78h-66.7c-3 0-5.4-2.4-5.4-5.5 0-3 2.4-5.5 5.4-5.5h66.7c3 0 5.4 2.4 5.4 5.5.1 3.1-2.4 5.5-5.4 5.5z"/><path fill="#F35443" d="M161.2 78h-44.5c-3 0-5.4-2.4-5.4-5.5 0-3 2.4-5.5 5.4-5.5h44.5c3 0 5.4 2.4 5.4 5.5s-2.4 5.5-5.4 5.5z"/><path fill="#235B66" d="M338.8 78h-22.2c-3 0-5.4-2.4-5.4-5.5 0-3 2.4-5.5 5.4-5.5h22.2c3 0 5.4 2.4 5.4 5.5.1 3.1-2.4 5.5-5.4 5.5z"/></svg>