<svg xmlns="http://www.w3.org/2000/svg" viewBox="0 0 357 43" enable-background="new 0 0 357 43"><g fill="#444951"><path d="M356.6 1.8c-.2 0-.4.1-.4.2l-.9 1.5-1-1.5c-.1-.1-.2-.2-.4-.2h-.1c-.2 0-.4.2-.4.4V5c0 .2.2.4.4.4s.4-.2.4-.4V3.2l.7 1c.1.1.2.2.3.2.1 0 .2-.1.3-.2l.7-1V5c0 .2.2.4.4.4s.4-.2.4-.4V2.2c0-.2-.2-.4-.4-.4zM352.5 1.8h-2.3c-.2 0-.4.2-.4.3 0 .2.2.3.4.3h.8V5c0 .2.2.4.4.4s.4-.2.4-.4V2.5h.8c.2 0 .4-.2.4-.3-.2-.2-.3-.4-.5-.4zM262.4 19.4c1.3-1.9 2.1-4.2 2.1-6.7 0-6.5-5.3-11.7-11.8-11.7-.2 0-.4 0-.6 0h-16.2c-2.1 0-3.9 1.7-3.9 3.8v33.4c0 2.1 1.7 3.8 3.9 3.8h18.7c7 0 12.7-5.7 12.7-12.6 0-4-1.9-7.7-4.9-10zM239.8 8.7h12.9c.1 0 .3 0 .4 0 2.1.2 3.7 1.9 3.7 4 0 2.2-1.8 4.1-4.1 4.1h-12.9V8.7zm14.8 25.7h-14.8v-9.9h14.8c2.8 0 5 2.2 5 5 0 2.7-2.2 4.9-5 4.9zM218.8 4.6c0-.1 0-.1 0-.2s0-.1 0-.2 0-.1 0-.2 0-.1 0-.2 0-.1-.1-.2c0-.1 0-.1-.1-.2 0-.1 0-.1-.1-.2 0-.1-.1-.1-.1-.2s-.1-.1-.1-.2-.1-.1-.1-.2c0 0-.1-.1-.1-.1 0-.1-.1-.1-.1-.2 0 0-.1-.1-.1-.1 0-.1-.1-.1-.1-.1s-.1-.1-.1-.1-.1-.1-.1-.1c-.1 0-.1-.1-.2-.1 0 0 0 0-.1 0 0 0-.1 0-.1-.1-.1 0-.1-.1-.2-.1 0 0-.1-.1-.1-.1-.1 0-.1-.1-.2-.1s-.1-.1-.2-.1-.1-.1-.2-.1-.1 0-.2-.1c-.1 0-.1 0-.2-.1-.1 0-.1 0-.2 0s-.1 0-.2 0-.1 0-.2 0-.1 0-.2 0-.1 0-.2 0c0 0-.1 0-.1 0s0 0-.1 0-.1 0-.2 0-.1 0-.2 0-.1 0-.2 0-.1 0-.2 0-.1 0-.2 0-.1 0-.2.1c-.1 0-.1 0-.2.1-.1 0-.1 0-.2.1-.1 0-.1.1-.2.1s-.1.1-.2.1-.1.1-.2.1c0 0-.1.1-.1.1-.1 0-.1.1-.2.1 0 0-.1.1-.1.1-.1 0-.1.1-.2.1 0 0-.1.1-.1.1s-.1.1-.1.1c0 .1-.1.1-.1.2 0 0 0 0 0 .1l-13.7 17.9-13-17.8s0 0-.1-.1c0-.1-.1-.1-.1-.2 0 0-.1-.1-.1-.1s-.1-.1-.1-.1-.1-.1-.2-.1c0 0-.1-.1-.1-.1-.1 0-.1-.1-.2-.1 0 0-.1-.1-.1-.1-.1 0-.1-.1-.2-.1s-.1-.1-.2-.1-.1-.1-.2-.1-.1-.1-.2-.1-.1 0-.2-.1c-.1 0-.1 0-.2-.1-.1 0-.1 0-.2 0s-.1 0-.2 0-.1 0-.2 0-.1 0-.2 0-.1 0-.2 0c0 0-.1 0-.1 0s0 0-.1 0-.1 0-.2 0-.1 0-.2 0-.1 0-.2 0-.1 0-.2 0-.1 0-.2 0-.1 0-.2.1c-.1 0-.1 0-.2.1-.1 0-.1 0-.2.1-.1 0-.1 0-.2.1-.1 0-.1.1-.2.1 0 0-.1.1-.1.1-.1 0-.1.1-.2.1 0 0 0 0-.1 0 0 0 0 0-.1.1-.1 0-.1.1-.2.1 0 0-.1.1-.1.1s-.1.1-.1.1-.1.1-.1.1-.1.1-.1.1c0 .1-.1.1-.1.2 0 0-.1.1-.1.1 0 .1-.1.1-.1.2s-.1.1-.1.2-.1.1-.1.2-.1.1-.1.2 0 .1-.1.2c0 .1 0 .1-.1.2 0 .1 0 .1 0 .2s0 .1 0 .2 0 .1 0 .2 0 .1 0 .2 0 .1 0 .2c0 0 0 .1 0 .1v33.4c0 2.1 1.7 3.8 3.9 3.8 2.1 0 3.9-1.7 3.9-3.8V16.5l9.3 12.5c.1.1.1.2.2.3 0 0 .1.1.1.1.1.1.1.1.2.2 0 0 .1.1.1.1s0 0 .1.1c.1 0 .1.1.2.1 0 0 .1 0 .1.1.1.1.2.1.3.2 0 0 .1 0 .1 0 .1 0 .2.1.3.1 0 0 0 0 .1 0s.3.1.4.1c.1 0 .2 0 .4.1 0 0 .1 0 .1 0 .1 0 .3 0 .4 0 .1 0 .3 0 .4 0 0 0 .1 0 .1 0 .1 0 .3 0 .4-.1.1 0 .3-.1.4-.1 0 0 .1 0 .1 0 .1 0 .2-.1.3-.1 0 0 .1 0 .1 0 .1-.1.2-.1.3-.2 0 0 .1 0 .1-.1 0 0 .1-.1.1-.1s0 0 .1-.1c.1 0 .1-.1.2-.1.1-.1.1-.1.2-.2 0 0 .1-.1.1-.1.1-.1.2-.2.2-.3l9.9-12.9v22c0 2.1 1.7 3.8 3.9 3.8 2.1 0 3.9-1.7 3.9-3.8V4.8s0 0 0-.1c.2 0 .2-.1.2-.1zM302.8 34.4h-16V4.8c0-2.1-1.7-3.8-3.9-3.8-2.1 0-3.9 1.7-3.9 3.8v33.4c0 2.1 1.7 3.8 3.9 3.8h19.9c2.1 0 3.9-1.7 3.9-3.8 0-2.1-1.8-3.8-3.9-3.8zM119.3 20.5c-2.6-1.5-6-2.5-10.7-3.2-7.7-1.2-7.8-3.5-7.8-4.3-.1-2.6.7-3.4 1-3.7 1.1-1.1 3.4-1.7 6.6-1.7 2 0 4.7.7 7.9 2.1.6.3 1.2.4 1.8.3 1.4-.1 2.7-.9 3.3-2.3.9-1.9 0-4.2-2-5.1-4.2-1.8-7.8-2.8-10.9-2.8-5.5-.1-9.6 1.3-12.2 4-2.3 2.5-3.4 5.7-3.3 9.5.1 2.7 1.2 6.4 5.9 9 2.2 1.2 4.9 2 8.5 2.6 9.7 1.4 9.9 4.1 10 5.1.1.8-.1 2.1-1.1 3.1-1.2 1.3-3.4 2.1-6.3 2.2-4.7.2-8.1-1.4-11.1-3.1-1.9-1-4.2-.4-5.3 1.4-1.1 1.8-.4 4.2 1.4 5.2 3.8 2.2 8.6 4.3 15.3 4.1 0 0 .1 0 .1 0 .2 0 .4 0 .5 0 6-.4 9.3-2.7 11.1-4.7 2.2-2.4 3.3-5.5 3-8.8 0-2.5-1.2-6.2-5.7-8.9zM77.7 20.5c-2.6-1.5-6-2.5-10.7-3.2-7.7-1.2-7.8-3.5-7.8-4.3-.1-2.6.7-3.4 1-3.7 1.1-1.1 3.4-1.7 6.6-1.7 2 0 4.7.7 7.9 2.1.6.3 1.2.4 1.8.3 1.4-.1 2.7-.9 3.3-2.3.9-1.9 0-4.2-2-5.1C73.6.9 70 0 66.9 0c-5.5-.1-9.6 1.3-12.2 4-2.3 2.3-3.3 5.5-3.2 9.4.1 2.7 1.2 6.4 5.9 9 2.2 1.2 4.9 2 8.5 2.6 9.7 1.4 9.9 4.1 10 5.1.1.8-.1 2.1-1.1 3.1-1.2 1.3-3.4 2.1-6.3 2.2-4.7.2-8.1-1.4-11.1-3.1-1.9-1-4.2-.4-5.3 1.4-1.1 1.8-.4 4.2 1.4 5.2C57.2 41 62 43.2 68.7 43c0 0 .1 0 .1 0 .2 0 .4 0 .5 0 6-.4 9.3-2.7 11.1-4.7 2.2-2.4 3.3-5.5 3-8.8-.1-2.6-1.2-6.3-5.7-9zM24.4 3.1c-.1-.1-.1-.2-.1-.3 0 0-.1-.1-.1-.1 0-.1-.1-.1-.1-.2 0 0-.1-.1-.1-.1 0-.1-.1-.1-.1-.1s-.1-.1-.1-.1-.1-.1-.1-.1-.1-.1-.1-.1-.1-.1-.1-.1c-.1 0-.1-.1-.2-.1 0 0-.1-.1-.1-.1-.1 0-.1-.1-.2-.1 0 0 0 0-.1 0 0 0-.1 0-.1 0-.1 0-.1-.1-.2-.1s-.1 0-.2-.1c-.1 0-.1 0-.2-.1-.1 0-.1 0-.2-.1-.1 0-.1 0-.2 0s-.1 0-.2 0-.1 0-.2 0-.1 0-.2 0-.1 0-.2 0-.1 0-.2 0-.1 0-.2 0-.1 0-.2 0-.1 0-.2 0-.1 0-.2 0-.1 0-.2.1c-.1 0-.1 0-.2.1-.1 0-.1 0-.2.1-.1 0-.1.1-.2.1 0 0-.1 0-.1 0s0 0-.1 0-.1.1-.2.1c0 0-.1.1-.1.1-.1 0-.1.1-.2.1 0 0-.1.1-.1.1-.1 0-.1.1-.2.1 0 0-.1.1-.1.1s-.1.1-.1.1-.1.1-.1.1-.1.1-.1.1c0 .1-.1.1-.1.2 0 0-.1.1-.1.1 0 .1-.1.1-.1.2 0 0 0 0 0 .1L.4 36.5c-1 1.9-.2 4.2 1.7 5.2.6.2 1.2.3 1.8.3 1.4 0 2.8-.8 3.4-2.1l13.6-26.6 13.6 26.6c.7 1.3 2 2.1 3.4 2.1.6 0 1.2-.1 1.7-.4 1.9-1 2.7-3.3 1.7-5.2L24.4 3.1zM163.1 8.5c2.1 0 3.9-1.9 3.9-3.7 0-2.1-1.7-3.8-3.9-3.8h-22.4c-1.7 0-3.2 1.1-3.6 2.7-.1.3-.2.7-.2 1 0 0 0 0 0 .1 0 0 0 0 0 .1v33.4c0 1.7 1.1 3.1 2.7 3.6.3.1.7.2 1 .2 0 0 0 0 .1 0 0 0 0 0 .1 0h22.4c2.1 0 3.9-1.9 3.9-3.7 0-2.1-1.7-3.8-3.9-3.8h-18.7v-9.2H158c2.1 0 3.8-1.7 3.8-3.8 0-2.1-1.7-3.8-3.8-3.8h-13.5V8.5h18.6z"/><ellipse cx="22.8" cy="28.9" rx="3.7" ry="3.6"/><path d="M22.8 25.2h9.6v7.3h-9.6zM326 19.6L313.5 2.4c-1.3-1.7-3.7-2.1-5.4-.9-1.7 1.3-2.1 3.7-.9 5.4l15 20.5v10.9c0 2.1 1.7 3.9 3.9 3.9s3.9-1.7 3.9-3.9V25.6"/><path d="M344.1 1.5c-1.6-1.2-3.9-.8-5.2.8-1.2 1.6-.8 3.9.8 5.1 1.6 1.2 3.9.8 5.2-.8s.9-3.9-.8-5.1zM336.8 11.5c-1.6-1.2-3.9-.8-5.2.8-1.2 1.6-.8 3.9.8 5.1 1.6 1.2 3.9.8 5.2-.8 1.2-1.7.8-3.9-.8-5.1zM337.6 16.5l7.3-9.9-5.9-4.3-7.3 9.9z"/></g></svg>