<svg xmlns="http://www.w3.org/2000/svg" viewBox="0 0 463 44" enable-background="new 0 0 463 44"><g fill="#444951"><path d="M462.6 1.8c-.3 0-.4.1-.4.2l-1 1.5-.9-1.5c-.1-.1-.2-.2-.4-.2h-.1c-.2 0-.4.2-.4.4v2.9c0 .2.2.4.4.4s.4-.2.4-.4V3.3l.7 1.1c.1.1.2.2.3.2.2 0 .2-.1.3-.2l.7-1.1v1.9c0 .2.2.4.4.4s.4-.2.4-.4v-3c0-.2-.2-.4-.4-.4zM458.4 1.9H456c-.2 0-.4.2-.4.4s.2.4.4.4h.8v2.5c0 .2.2.4.4.4s.4-.2.4-.4V2.6h.8c.2 0 .4-.2.4-.4s-.2-.3-.4-.3z"/></g><path fill="#12A2B7" d="M30 8.4H4c-2.2 0-4-1.8-4-4S1.8.5 3.9.5h26c2.2 0 3.9 1.8 3.9 3.9s-1.7 4-3.8 4z"/><path fill="#F05544" d="M64.6 8.4H47.3c-2.2 0-3.9-1.8-3.9-3.9S45.2.6 47.3.6h17.3c2.2 0 3.9 1.8 3.9 3.9s-1.7 3.9-3.9 3.9z"/><path fill="#93BB3D" d="M38.6 25.7H3.9C1.8 25.7 0 24 0 21.8s1.8-3.9 3.9-3.9h34.7c2.2 0 3.9 1.8 3.9 3.9s-1.7 3.9-3.9 3.9z"/><path fill="#444951" d="M64.6 25.7H56c-2.2 0-3.9-1.8-3.9-3.9s1.8-3.9 3.9-3.9h8.7c2.2 0 3.9 1.8 3.9 3.9s-1.8 3.9-4 3.9z"/><path fill="#FACA33" d="M64.6 43.1H21.3c-2.2 0-3.9-1.8-3.9-3.9s1.8-3.9 3.9-3.9h43.4c2.2 0 3.9 1.8 3.9 3.9s-1.8 3.9-4 3.9z"/><circle fill="#265D68" cx="3.9" cy="39.1" r="3.9"/><path fill="#444951" d="M367 19.9c1.4-1.9 2.2-4.3 2.2-6.9 0-6.6-5.4-12-12-12-.2 0-.4 0-.6 0h-16.5c-2.2 0-3.9 1.8-3.9 3.9v34.2c0 2.2 1.8 3.9 3.9 3.9h19c7.1 0 12.9-5.8 12.9-12.9 0-4.2-2-7.9-5-10.2zm-23-11h13.1c.1 0 .3 0 .4 0 2.1.2 3.7 2 3.7 4.1 0 2.3-1.9 4.2-4.2 4.2h-13V8.9zm15.1 26.3H344V25h15c2.8 0 5.1 2.3 5.1 5.1.1 2.8-2.2 5.1-5 5.1zM322.7 4.7c0-.1 0-.1 0-.2s0-.1 0-.2 0-.1 0-.2 0-.1 0-.2 0-.1-.1-.2c0-.1 0-.1-.1-.2 0-.1 0-.1-.1-.2 0-.1-.1-.1-.1-.2s-.1-.1-.1-.2-.1-.1-.1-.2c0 0-.1-.1-.1-.1 0-.1-.1-.1-.1-.2 0 0-.1-.1-.1-.1 0-.1-.1-.1-.1-.2 0 0-.1-.1-.1-.1s-.1-.1-.1-.1c-.1 0-.1-.1-.2-.1 0 0 0 0-.1 0 0 0-.1 0-.1-.1-.1 0-.1-.1-.2-.1 0 0-.1-.1-.1-.1-.1 0-.1-.1-.2-.1s-.1-.1-.2-.1-.1-.1-.2-.1-.1 0-.2-.1c-.1 0-.1 0-.2-.1-.1 0-.1 0-.2 0s-.1 0-.2 0-.1 0-.2 0-.1 0-.2 0-.2 0-.2 0-.1 0-.1 0 0 0-.1 0-.1 0-.2 0-.1 0-.2 0-.1 0-.2 0-.1 0-.2 0-.1 0-.2 0-.1 0-.2.1c-.1 0-.1 0-.2.1-.1 0-.1 0-.2.1-.1 0-.1.1-.2.1s-.1.1-.2.1-.1.1-.2.1c0 0-.1.1-.1.1-.1 0-.1.1-.2.1 0 0-.1.1-.1.1-.1 0-.1.1-.2.1 0 0-.1.1-.1.1s-.1.1-.1.1c0 .1-.1.1-.1.2 0 0 0 0 0 .1l-13.9 18.3-13.3-18.2s0 0-.1-.1c0-.1-.1-.1-.1-.2 0 0-.1-.1-.1-.1s-.1-.1-.1-.1c-.1 0-.1-.1-.2-.1 0 0-.1-.1-.1-.1-.1 0-.1-.1-.2-.1 0 0-.1-.1-.1-.1-.1 0-.1-.1-.2-.1s-.1-.1-.2-.1-.1-.1-.2-.1-.1-.1-.2-.1-.1 0-.2-.1c-.1 0-.1 0-.2-.1-.1 0-.1 0-.2 0s-.1 0-.2 0-.1 0-.2 0-.1 0-.2 0-.1 0-.2 0c0 0-.1 0-.1 0s0 0-.1 0-.2 0-.2 0c-.1 0-.1 0-.2 0s-.1 0-.2 0-.1 0-.2 0-.1 0-.2 0-.1 0-.2.1c-.1 0-.1 0-.2.1-.1 0-.1 0-.2.1-.1 0-.1 0-.2.1-.1 0-.1.1-.2.1 0 0-.1.1-.1.1-.1 0-.1.1-.2.1 0 0 0 0-.1 0 0 0 0 0-.1.1-.1 0-.1.1-.2.1 0 0-.1.1-.1.1s-.1.1-.1.1c0 .1-.1.1-.1.2 0 0-.1.1-.1.1 0 .1-.1.1-.1.2 0 0-.1.1-.1.1 0 .1-.1.1-.1.2s-.1.1-.1.2-.1.1-.1.2-.1.1-.1.2 0 .1-.1.2c0 .1 0 .1-.1.2 0 .1 0 .1 0 .2s0 .1 0 .2 0 .1 0 .2 0 .1 0 .2 0 .1 0 .2c0 0 0 .1 0 .1v34.2c0 2.2 1.8 3.9 3.9 3.9 2.2 0 3.9-1.8 3.9-3.9V16.9l9.4 12.8c.1.1.1.2.2.3 0 0 .1.1.1.1.1.1.1.1.2.2 0 0 .1.1.1.1s0 0 .1.1c.1 0 .1.1.2.1 0 0 .1 0 .1.1.1.1.2.1.3.2 0 0 .1 0 .1 0 .1 0 .2.1.3.1 0 0 0 0 .1 0s.3.1.4.1c.1 0 .3 0 .4.1 0 0 .1 0 .1 0 .1 0 .3 0 .4 0 .1 0 .3 0 .4 0 0 0 .1 0 .1 0 .1 0 .3 0 .4-.1.1 0 .3-.1.4-.1 0 0 .1 0 .1 0 .1 0 .2-.1.3-.1 0 0 .1 0 .1 0 .1-.1.2-.1.3-.2 0 0 .1 0 .1-.1 0 0 .1-.1.1-.1s0 0 .1-.1c.1 0 .1-.1.2-.1.1-.1.1-.1.2-.2 0 0 .1-.1.1-.1.1-.1.2-.2.2-.3l10-13.2V39c0 2.2 1.8 3.9 3.9 3.9 2.2 0 3.9-1.8 3.9-3.9V4.9s0 0 0-.1c.5 0 .5-.1.5-.1zM408 35.2h-16.3V4.9c0-2.2-1.8-3.9-3.9-3.9-2.2 0-3.9 1.8-3.9 3.9v34.2c0 2.2 1.8 3.9 3.9 3.9H408c2.2 0 3.9-1.8 3.9-3.9 0-2.2-1.7-3.9-3.9-3.9zM221.7 21c-2.6-1.5-6.1-2.6-10.9-3.3-7.8-1.2-7.9-3.6-7.9-4.4-.1-2.6.8-3.5 1-3.8 1.1-1.1 3.4-1.7 6.7-1.7 2.1 0 4.8.8 8 2.2.6.3 1.2.4 1.8.3 1.4-.1 2.7-.9 3.3-2.3.9-2 0-4.3-2-5.2-4.1-1.8-7.8-2.8-11-2.8-5.6-.1-9.7 1.3-12.4 4.1-2.3 2.4-3.4 5.6-3.2 9.6.1 2.7 1.2 6.6 5.9 9.2 2.2 1.2 5 2.1 8.6 2.6 9.9 1.4 10.1 4.2 10.1 5.2.1.9-.1 2.1-1.1 3.2-1.2 1.4-3.5 2.1-6.4 2.2-4.8.2-8.3-1.4-11.3-3.2-1.9-1.1-4.3-.4-5.4 1.5-1.1 1.9-.4 4.3 1.5 5.4 3.9 2.2 8.7 4.4 15.5 4.2 0 0 .1 0 .1 0 .2 0 .4 0 .6 0 6.1-.4 9.5-2.8 11.3-4.8 2.2-2.4 3.3-5.6 3.1-9-.1-2.7-1.3-6.5-5.9-9.2zM179.5 21c-2.6-1.5-6.1-2.6-10.9-3.3-7.8-1.2-7.9-3.6-7.9-4.4-.1-2.6.8-3.5 1-3.8 1.1-1.1 3.4-1.7 6.7-1.7 2.1 0 4.8.8 8 2.2.6.3 1.2.4 1.8.3 1.4-.1 2.7-.9 3.3-2.3.9-2 0-4.3-2-5.2-4.2-1.8-7.8-2.8-11-2.8-5.6-.1-9.7 1.3-12.4 4.1-2.3 2.4-3.4 5.6-3.2 9.6.1 2.7 1.2 6.6 5.9 9.2 2.2 1.2 5 2.1 8.6 2.6 9.9 1.4 10.1 4.2 10.1 5.2.1.9-.1 2.1-1.1 3.2-1.2 1.4-3.5 2.1-6.4 2.2-4.8.2-8.3-1.4-11.3-3.2-1.9-1.1-4.3-.4-5.4 1.5-1.1 1.9-.4 4.3 1.5 5.4 3.9 2.2 8.7 4.4 15.5 4.2 0 0 .1 0 .1 0 .2 0 .4 0 .6 0 6.1-.4 9.5-2.8 11.3-4.8 2.2-2.4 3.3-5.6 3.1-9-.2-2.7-1.3-6.5-5.9-9.2zM125.4 3.2c0-.1 0-.1 0 0-.1-.1-.1-.2-.1-.3 0 0-.1-.1-.1-.1 0-.1-.1-.1-.1-.2 0 0-.1-.1-.1-.1 0-.1-.1-.1-.1-.2 0 0-.1-.1-.1-.1s-.1-.1-.1-.1-.1-.1-.2-.1c0 0-.1-.1-.1-.1-.1 0-.1-.1-.2-.1 0 0-.1-.1-.1-.1-.1 0-.1-.1-.2-.1 0 0 0 0-.1 0 0 0-.1 0-.1 0-.1 0-.1-.1-.2-.1s-.1 0-.2-.1c-.1 0-.1 0-.2-.1-.1 0-.1 0-.2-.1-.1 0-.1 0-.2 0s-.1 0-.2 0-.1 0-.2 0-.1 0-.2 0-.1 0-.2 0-.1 0-.2 0-.1 0-.2 0-.1 0-.2 0-.1 0-.2 0-.1 0-.2 0-.1 0-.2.1c-.1 0-.1 0-.2.1-.1 0-.1 0-.2.1-.1 0-.1.1-.2.1 0 0-.1 0-.1 0s0 0-.1 0-.1.1-.2.1c0 0-.1.1-.1.1-.1 0-.1.1-.2.1 0 0-.1.1-.1.1-.1 0-.1.1-.2.1 0 0-.1.1-.1.1s-.1.1-.1.1c0 .1-.1.1-.1.2 0 0-.1.1-.1.1 0 .1-.1.1-.1.2 0 0-.1.1-.1.1 0 .1-.1.1-.1.2 0 0 0 0 0 .1l-17.3 34.2c-1 1.9-.2 4.3 1.7 5.3.6.3 1.2.4 1.8.4 1.4 0 2.8-.8 3.5-2.1l13.8-27.3L135.7 41c.7 1.4 2.1 2.1 3.5 2.1.6 0 1.2-.1 1.8-.4 1.9-1 2.7-3.3 1.7-5.3L125.4 3.2zM266.2 8.7c2.2 0 3.9-2 3.9-3.8 0-2.2-1.8-3.9-3.9-3.9h-22.8c-1.7 0-3.2 1.2-3.7 2.7-.1.3-.2.7-.2 1 0 0 0 0 0 .1 0 0 0 0 0 .1v34.2c0 1.8 1.2 3.2 2.7 3.7.3.1.7.2 1 .2 0 0 0 0 .1 0 0 0 0 0 .1 0h22.8c2.2 0 3.9-2 3.9-3.8 0-2.2-1.8-3.9-3.9-3.9h-19v-9.4H261c2.1 0 3.8-1.7 3.8-3.9 0-2.1-1.7-3.9-3.8-3.9h-13.7V8.7h18.9z"/><circle fill="#444951" cx="123.8" cy="29.5" r="3.7"/><path fill="#444951" d="M123.8 25.8h9.7v7.4h-9.7z"/><g fill="#444951"><path d="M431.6 20L418.8 2.5c-1.3-1.8-3.8-2.2-5.5-.9-1.8 1.3-2.2 3.8-.9 5.5L427.6 28v11.2c0 2.2 1.8 4 4 4s4-1.8 4-4v-13"/><circle cx="447.7" cy="4.6" r="3.7"/><circle cx="440.3" cy="14.8" r="3.7"/><path d="M443.3 16.9l7.5-10.1-6.1-4.4-7.4 10.1z"/></g></svg>