<svg xmlns="http://www.w3.org/2000/svg" viewBox="0 0 69 43" enable-background="new 0 0 69 43"><path fill="#12A2B7" d="M30.1 8H4C1.8 8 0 6.2 0 4s1.8-4 4-4h26.2c2.2 0 4 1.8 4 4s-1.9 4-4.1 4z"/><path fill="#F05544" d="M65 8H47.6c-2.2 0-4-1.8-4-4s1.8-4 4-4H65c2.2 0 4 1.8 4 4s-1.8 4-4 4z"/><path fill="#93BB3D" d="M38.9 25.5H4c-2.2 0-4-1.8-4-4s1.8-4 4-4h34.9c2.2 0 4 1.8 4 4s-1.9 4-4 4z"/><path fill="#444951" d="M65 25.5h-8.7c-2.2 0-4-1.8-4-4s1.8-4 4-4H65c2.2 0 4 1.8 4 4s-1.8 4-4 4z"/><path fill="#FACA33" d="M65 43H21.4c-2.2 0-4-1.8-4-4s1.8-4 4-4H65c2.2 0 4 1.8 4 4s-1.8 4-4 4z"/><ellipse fill="#265D68" cx="4" cy="39" rx="4" ry="4"/></svg>