<svg xmlns="http://www.w3.org/2000/svg" viewBox="0 0 100 100" enable-background="new 0 0 100 100"><circle fill="#444951" cx="50" cy="50" r="50"/><path fill="#fff" d="M35 66.2c0 .6.1 1.1.4 1.7.9 1.8 3.1 2.5 4.9 1.6l32-16.2s0 0 .1 0 .1-.1.2-.1c0 0 .1-.1.1-.1.1 0 .1-.1.2-.1 0 0 .1-.1.1-.1s.1-.1.1-.1.1-.1.1-.1.1-.1.1-.1.1-.1.1-.1.1-.1.1-.1c0-.1.1-.1.1-.2 0 0 .1-.1.1-.1 0-.1.1-.1.1-.2 0 0 0 0 0-.1 0 0 0-.1 0-.1 0-.1.1-.1.1-.2s0-.1.1-.2c0-.1 0-.1.1-.2 0-.1 0-.1.1-.2 0 0 0-.1 0-.2s0-.1 0-.2 0-.1 0-.2 0-.1 0-.2 0-.1 0-.2 0-.1 0-.2 0-.1 0-.2 0-.1 0-.2 0-.1 0-.2 0-.1 0-.2 0-.1-.1-.2c0-.1 0-.1-.1-.2 0-.1 0-.1-.1-.2 0-.1-.1-.1-.1-.2 0 0 0-.1 0-.1s0 0 0-.1-.1-.1-.1-.2c0 0-.1-.1-.1-.1 0-.1-.1-.1-.1-.2 0 0-.1-.1-.1-.1s-.1-.1-.1-.1-.1-.1-.1-.1-.1-.1-.1-.1-.1-.1-.1-.1-.1-.1-.1-.1c-.1 0-.1-.1-.2-.1 0 0-.1-.1-.1-.1-.1 0-.1-.1-.2-.1 0 0 0 0-.1 0l-32-16.2c-1.8-.9-4-.2-4.9 1.6-.3.5-.4 1.1-.4 1.7"/></svg>