<svg xmlns="http://www.w3.org/2000/svg" viewBox="0 0 500 78" enable-background="new 0 0 500 78"><path fill="#F35443" d="M227.9 10.9h-66.7c-3 0-5.4-2.4-5.4-5.5s2.4-5.5 5.4-5.5h66.7c3 0 5.4 2.4 5.4 5.5s-2.4 5.5-5.4 5.5z"/><path fill="#10A3B8" d="M405.9 10.9h-66.7c-3 0-5.4-2.4-5.4-5.5s2.4-5.5 5.4-5.5h66.7c3 0 5.4 2.4 5.4 5.5s-2.4 5.5-5.4 5.5z"/><path fill="#94BB2C" d="M272.4 10.9h-22.2c-3 0-5.4-2.4-5.4-5.5s2.4-5.5 5.4-5.5h22.2c3 0 5.4 2.4 5.4 5.5s-2.4 5.5-5.4 5.5zM294.6 10.9c-1.4 0-2.8-.6-3.8-1.6s-1.6-2.4-1.6-3.9c0-1.4.6-2.8 1.6-3.8 2-2 5.6-2 7.7 0 1 1 1.6 2.4 1.6 3.8s-.6 2.8-1.6 3.9c-1 1-2.5 1.6-3.9 1.6z"/><path fill="#235B66" d="M94.4 10.9c-1.4 0-2.8-.6-3.8-1.6S89 6.9 89 5.4c0-1.4.6-2.8 1.6-3.8 2-2 5.7-2 7.7 0 1 1 1.6 2.4 1.6 3.8s-.6 2.8-1.6 3.9c-1.1 1-2.5 1.6-3.9 1.6z"/><path fill="#10A3B8" d="M339.1 78h-66.7c-3 0-5.4-2.4-5.4-5.5s2.4-5.5 5.4-5.5h66.7c3 0 5.4 2.4 5.4 5.5s-2.4 5.5-5.4 5.5z"/><path fill="#FBCA32" d="M116.6 78H72.1c-3 0-5.4-2.4-5.4-5.5s2.4-5.5 5.4-5.5h44.5c3 0 5.4 2.4 5.4 5.5s-2.4 5.5-5.4 5.5z"/><path fill="#235B66" d="M205.6 78h-44.5c-3 0-5.4-2.4-5.4-5.5s2.4-5.5 5.4-5.5h44.5c3 0 5.4 2.4 5.4 5.5s-2.4 5.5-5.4 5.5z"/><path fill="#FBCA32" d="M138.9 55.6h-22.2c-3 0-5.4-2.4-5.4-5.5s2.4-5.5 5.4-5.5h22.2c3 0 5.4 2.4 5.4 5.5s-2.4 5.5-5.4 5.5zM183.4 55.6h-22.2c-3 0-5.4-2.4-5.4-5.5s2.4-5.5 5.4-5.5h22.2c3 0 5.4 2.4 5.4 5.5s-2.4 5.5-5.4 5.5z"/><path fill="#94BB2C" d="M94.4 55.6c-1.4 0-2.8-.6-3.8-1.6S89 51.6 89 50.1c0-1.4.6-2.8 1.6-3.8 2-2 5.6-2 7.7 0 1 1 1.6 2.4 1.6 3.8s-.6 2.9-1.6 3.9c-1.1 1.1-2.5 1.6-3.9 1.6z"/><path fill="#FBCA32" d="M138.9 78c-1.4 0-2.8-.6-3.8-1.6s-1.6-2.4-1.6-3.9c0-1.4.6-2.8 1.6-3.8 2-2 5.7-2 7.7 0 1 1 1.6 2.4 1.6 3.8s-.6 2.9-1.6 3.9c-1.1 1-2.5 1.6-3.9 1.6z"/><path fill="#F35443" d="M161.1 33.3h-44.5c-3 0-5.4-2.4-5.4-5.5s2.4-5.5 5.4-5.5h44.5c3 0 5.4 2.4 5.4 5.5s-2.4 5.5-5.4 5.5z"/><path fill="#94BB2C" d="M250.1 55.6h-44.5c-3 0-5.4-2.4-5.4-5.5s2.4-5.5 5.4-5.5h44.5c3 0 5.4 2.4 5.4 5.5s-2.4 5.5-5.4 5.5z"/><path fill="#FBCA32" d="M339.1 55.6h-44.5c-3 0-5.4-2.4-5.4-5.5s2.4-5.5 5.4-5.5h44.5c3 0 5.4 2.4 5.4 5.5s-2.4 5.5-5.4 5.5z"/><path fill="#235B66" d="M272.4 33.3h-22.2c-3 0-5.4-2.4-5.4-5.5s2.4-5.5 5.4-5.5h22.2c3 0 5.4 2.4 5.4 5.5s-2.4 5.5-5.4 5.5zM316.9 33.3h-22.2c-3 0-5.4-2.4-5.4-5.5s2.4-5.5 5.4-5.5h22.2c3 0 5.4 2.4 5.4 5.5s-2.4 5.5-5.4 5.5z"/><path fill="#10A3B8" d="M227.9 33.3c-1.4 0-2.8-.6-3.8-1.6s-1.6-2.4-1.6-3.9.6-2.8 1.6-3.8c2-2 5.6-2 7.7 0 1 1 1.6 2.4 1.6 3.8s-.6 2.8-1.6 3.9c-1.1 1-2.5 1.6-3.9 1.6z"/><path fill="#94BB2C" d="M272.4 55.6c-1.4 0-2.8-.6-3.8-1.6s-1.6-2.4-1.6-3.9.6-2.8 1.6-3.8c2-2 5.7-2 7.7 0 1 1 1.6 2.4 1.6 3.8s-.6 2.9-1.6 3.9c-1.1 1.1-2.5 1.6-3.9 1.6z"/><path fill="#10A3B8" d="M361.4 78c-1.4 0-2.8-.6-3.8-1.6S356 74 356 72.5c0-1.4.6-2.8 1.6-3.8 2-2 5.7-2 7.7 0 1 1 1.6 2.4 1.6 3.8s-.6 2.9-1.6 3.9c-1.1 1-2.5 1.6-3.9 1.6z"/><path fill="#94BB2C" d="M339.1 33.3c-1.4 0-2.8-.6-3.8-1.6s-1.6-2.4-1.6-3.9.6-2.8 1.6-3.8c2-2 5.7-2 7.7 0 1 1 1.6 2.4 1.6 3.8s-.6 2.9-1.6 3.9-2.4 1.6-3.9 1.6zM361.4 33.3c-1.4 0-2.8-.6-3.8-1.6s-1.6-2.4-1.6-3.9.6-2.8 1.6-3.8c2-2 5.7-2 7.7 0 1 1 1.6 2.4 1.6 3.8s-.6 2.8-1.6 3.9c-1.1 1-2.5 1.6-3.9 1.6z"/><path fill="#235B66" d="M250.1 78h-22.2c-3 0-5.4-2.4-5.4-5.5s2.4-5.5 5.4-5.5h22.2c3 0 5.4 2.4 5.4 5.5s-2.4 5.5-5.4 5.5z"/><path fill="#94BB2C" d="M405.9 78h-22.2c-3 0-5.4-2.4-5.4-5.5s2.4-5.5 5.4-5.5h22.2c3 0 5.4 2.4 5.4 5.5s-2.4 5.5-5.4 5.5z"/><path fill="#FBCA32" d="M405.9 55.6c-1.4 0-2.8-.6-3.8-1.6s-1.6-2.4-1.6-3.9c0-1.4.6-2.8 1.6-3.8 2-2 5.7-2 7.7 0 1 1 1.6 2.4 1.6 3.8s-.6 2.9-1.6 3.9c-1.1 1.1-2.5 1.6-3.9 1.6zM383.6 55.6h-22.2c-3 0-5.4-2.4-5.4-5.5s2.4-5.5 5.4-5.5h22.2c3 0 5.4 2.4 5.4 5.5s-2.4 5.5-5.4 5.5z"/><path fill="#94BB2C" d="M405.9 33.3h-22.2c-3 0-5.4-2.4-5.4-5.5s2.4-5.5 5.4-5.5h22.2c3 0 5.4 2.4 5.4 5.5s-2.4 5.5-5.4 5.5zM72.1 55.6H49.9c-3 0-5.4-2.4-5.4-5.5s2.4-5.5 5.4-5.5h22.2c3 0 5.4 2.4 5.4 5.5s-2.4 5.5-5.4 5.5z"/><path fill="#10A3B8" d="M183.4 33.3c-1.4 0-2.8-.6-3.8-1.6s-1.6-2.4-1.6-3.9.6-2.8 1.6-3.8c2-2 5.6-2 7.7 0 1 1 1.6 2.4 1.6 3.8s-.6 2.9-1.6 3.9c-1.1 1-2.5 1.6-3.9 1.6zM205.6 33.3c-1.4 0-2.8-.6-3.8-1.6s-1.6-2.4-1.6-3.9.6-2.8 1.6-3.8c2-2 5.7-2 7.7 0 1 1 1.6 2.4 1.6 3.8s-.6 2.8-1.6 3.9c-1 1-2.4 1.6-3.9 1.6z"/><path fill="#F35443" d="M94.4 33.3H72.1c-3 0-5.4-2.4-5.4-5.5s2.4-5.5 5.4-5.5h22.2c3 0 5.4 2.4 5.4 5.5s-2.3 5.5-5.3 5.5z"/><path fill="#FBCA32" d="M138.9 10.9h-22.2c-3 0-5.4-2.4-5.4-5.5s2.4-5.5 5.4-5.5h22.2c3 0 5.4 2.4 5.4 5.5s-2.4 5.5-5.4 5.5z"/><path fill="#10A3B8" d="M316.9 10.9c-1.4 0-2.8-.6-3.8-1.6s-1.6-2.4-1.6-3.9c0-1.4.6-2.8 1.6-3.8 2-2 5.7-2 7.7 0 1 1 1.6 2.4 1.6 3.8s-.6 2.8-1.6 3.9c-1.1 1-2.5 1.6-3.9 1.6z"/><path fill="#94BB2C" d="M205.3 0h22.2c3 0 5.4 2.4 5.4 5.5s-2.4 5.5-5.4 5.5h-22.2c-3 0-5.4-2.4-5.4-5.5s2.4-5.5 5.4-5.5z"/><path fill="#F35443" d="M249.8 0H272c3 0 5.4 2.4 5.4 5.5S275 11 272 11h-22.2c-3 0-5.4-2.4-5.4-5.5s2.4-5.5 5.4-5.5z"/><path fill="#94BB2C" d="M72.2 22.4h22.2c3 0 5.4 2.4 5.4 5.5s-2.4 5.5-5.4 5.5H72.2c-3 0-5.4-2.4-5.4-5.5s2.4-5.5 5.4-5.5z"/><path fill="#235B66" d="M138.9 22.4h22.2c3 0 5.4 2.4 5.4 5.5s-2.4 5.5-5.4 5.5h-22.2c-3 0-5.4-2.4-5.4-5.5s2.4-5.5 5.4-5.5z"/><path fill="#10A3B8" d="M5.4 44.7h66.7c3 0 5.4 2.4 5.4 5.5s-2.4 5.5-5.4 5.5H5.4c-3 0-5.4-2.4-5.4-5.5 0-3 2.4-5.5 5.4-5.5z"/><path fill="#FBCA32" d="M94.4 44.7h66.7c3 0 5.4 2.4 5.4 5.5s-2.4 5.5-5.4 5.5H94.4c-3 0-5.4-2.4-5.4-5.5s2.4-5.5 5.4-5.5z"/><path fill="#F35443" d="M138.9 67.1h22.2c3 0 5.4 2.4 5.4 5.5s-2.4 5.5-5.4 5.5h-22.2c-3 0-5.4-2.4-5.4-5.5s2.4-5.5 5.4-5.5z"/><path fill="#235B66" d="M49.9 67.1h22.2c3 0 5.4 2.4 5.4 5.5S75.2 78 72.2 78H49.9c-3 0-5.4-2.4-5.4-5.5s2.4-5.4 5.4-5.4z"/><path fill="#F35443" d="M116.7 67.1c1.4 0 2.8.6 3.8 1.6s1.6 2.4 1.6 3.9-.6 2.8-1.6 3.8c-2 2-5.6 2-7.7 0-1-1-1.6-2.4-1.6-3.8s.6-2.8 1.6-3.9c1-1 2.4-1.6 3.9-1.6zM94.4 67.1c1.4 0 2.8.6 3.8 1.6s1.6 2.4 1.6 3.9-.6 2.8-1.6 3.8c-2 2-5.7 2-7.7 0-1-1-1.6-2.4-1.6-3.8s.6-2.9 1.6-3.9c1.1-1 2.5-1.6 3.9-1.6zM116.7 22.4c1.4 0 2.8.6 3.8 1.6s1.6 2.4 1.6 3.9c0 1.4-.6 2.8-1.6 3.8-2 2-5.7 2-7.7 0-1-1-1.6-2.4-1.6-3.8s.6-2.9 1.6-3.9 2.4-1.6 3.9-1.6z"/><path fill="#FBCA32" d="M338.8 44.7h66.7c3 0 5.4 2.4 5.4 5.5s-2.4 5.5-5.4 5.5h-66.7c-3 0-5.4-2.4-5.4-5.5s2.4-5.5 5.4-5.5zM183.1 67.1h44.5c3 0 5.4 2.4 5.4 5.5s-2.4 5.5-5.4 5.5h-44.5c-3 0-5.4-2.4-5.4-5.5s2.4-5.5 5.4-5.5z"/><path fill="#235B66" d="M294.3 67.1h44.5c3 0 5.4 2.4 5.4 5.5s-2.4 5.5-5.4 5.5h-44.5c-3 0-5.4-2.4-5.4-5.5s2.4-5.5 5.4-5.5z"/><path fill="#FBCA32" d="M249.8 67.1H272c3 0 5.4 2.4 5.4 5.5s-2.4 5.5-5.4 5.5h-22.2c-3 0-5.4-2.4-5.4-5.5s2.4-5.5 5.4-5.5z"/><path fill="#94BB2C" d="M405.6 22.4h44.5c3 0 5.4 2.4 5.4 5.5s-2.4 5.5-5.4 5.5h-44.5c-3 0-5.4-2.4-5.4-5.5s2.4-5.5 5.4-5.5z"/><path fill="#235B66" d="M272.1 22.4h44.5c3 0 5.4 2.4 5.4 5.5s-2.4 5.5-5.4 5.5h-44.5c-3 0-5.4-2.4-5.4-5.5s2.4-5.5 5.4-5.5z"/><path fill="#10A3B8" d="M183.1 22.4h44.5c3 0 5.4 2.4 5.4 5.5s-2.4 5.5-5.4 5.5h-44.5c-3 0-5.4-2.4-5.4-5.5s2.4-5.5 5.4-5.5z"/><path fill="#235B66" d="M338.8 22.4H361c3 0 5.4 2.4 5.4 5.5s-2.4 5.5-5.4 5.5h-22.2c-3 0-5.4-2.4-5.4-5.5s2.4-5.5 5.4-5.5z"/><path fill="#FBCA32" d="M472.3 22.4h22.2c3 0 5.4 2.4 5.4 5.5s-2.4 5.5-5.4 5.5h-22.2c-3 0-5.4-2.4-5.4-5.5s2.4-5.5 5.4-5.5z"/><path fill="#F35443" d="M249.8 44.7H272c3 0 5.4 2.4 5.4 5.5s-2.4 5.5-5.4 5.5h-22.2c-3 0-5.4-2.4-5.4-5.5s2.4-5.5 5.4-5.5zM205.3 44.7h22.2c3 0 5.4 2.4 5.4 5.5s-2.4 5.5-5.4 5.5h-22.2c-3 0-5.4-2.4-5.4-5.5s2.4-5.5 5.4-5.5z"/><path fill="#10A3B8" d="M361.1 67.1c1.4 0 2.8.6 3.8 1.6s1.6 2.4 1.6 3.9-.6 2.8-1.6 3.8c-2 2-5.7 2-7.7 0-1-1-1.6-2.4-1.6-3.8s.6-2.9 1.6-3.9c1.1-1 2.5-1.6 3.9-1.6zM383.3 67.1c1.4 0 2.8.6 3.8 1.6s1.6 2.4 1.6 3.9-.6 2.8-1.6 3.8c-2 2-5.7 2-7.7 0-1-1-1.6-2.4-1.6-3.8s.6-2.9 1.6-3.9c1.1-1 2.5-1.6 3.9-1.6z"/><path fill="#94BB2C" d="M294.3 44.7c1.4 0 2.8.6 3.8 1.6s1.6 2.4 1.6 3.9-.6 2.8-1.6 3.8c-2 2-5.7 2-7.7 0-1-1-1.6-2.4-1.6-3.8s.6-2.9 1.6-3.9c1.1-1 2.5-1.6 3.9-1.6z"/><path fill="#10A3B8" d="M249.8 22.4c1.4 0 2.8.6 3.8 1.6s1.6 2.4 1.6 3.8-.6 2.9-1.6 3.9c-2 2-5.6 2-7.7 0-1-1-1.6-2.4-1.6-3.9 0-1.4.6-2.8 1.6-3.8 1.1-1 2.5-1.6 3.9-1.6z"/><path fill="#FBCA32" d="M405.6 0h44.5c3 0 5.4 2.4 5.4 5.5s-2.4 5.5-5.4 5.5h-44.5c-3 0-5.4-2.4-5.4-5.5s2.4-5.5 5.4-5.5z"/><path fill="#F35443" d="M183.1 44.7c1.4 0 2.8.6 3.8 1.6s1.6 2.4 1.6 3.9c0 1.4-.6 2.8-1.6 3.8-2 2-5.7 2-7.7 0-1-1-1.6-2.4-1.6-3.8s.6-2.9 1.6-3.9 2.5-1.6 3.9-1.6z"/><path fill="#94BB2C" d="M316.6 44.7c1.4 0 2.8.6 3.8 1.6s1.6 2.4 1.6 3.9c0 1.4-.6 2.8-1.6 3.8-2 2-5.7 2-7.7 0-1-1-1.6-2.4-1.6-3.8s.6-2.9 1.6-3.9c1.1-1 2.5-1.6 3.9-1.6z"/><path fill="#F35443" d="M427.8 44.7c1.4 0 2.8.6 3.8 1.6s1.6 2.4 1.6 3.9c0 1.4-.6 2.8-1.6 3.8-2 2-5.7 2-7.7 0-1-1-1.6-2.4-1.6-3.8s.6-2.9 1.6-3.9c1.1-1 2.5-1.6 3.9-1.6z"/><path fill="#10A3B8" d="M405.6 67.1c1.4 0 2.8.6 3.8 1.6s1.6 2.4 1.6 3.9-.6 2.8-1.6 3.8c-2 2-5.6 2-7.7 0-1-1-1.6-2.4-1.6-3.8s.6-2.9 1.6-3.9c1.1-1 2.5-1.6 3.9-1.6z"/><path fill="#235B66" d="M383.3 22.4c1.4 0 2.8.6 3.8 1.6s1.6 2.4 1.6 3.9c0 1.4-.6 2.8-1.6 3.8-2 2-5.7 2-7.7 0-1-1-1.6-2.4-1.6-3.8s.6-2.9 1.6-3.9c1.1-1 2.5-1.6 3.9-1.6z"/><path fill="#FBCA32" d="M72.2 0h66.7c3 0 5.4 2.4 5.4 5.5s-2.4 5.5-5.4 5.5H72.2c-3 0-5.4-2.4-5.4-5.5S69.2 0 72.2 0z"/><path fill="#F35443" d="M338.8 0h44.5c3 0 5.4 2.4 5.4 5.5s-2.4 5.5-5.4 5.5h-44.5c-3 0-5.4-2.4-5.4-5.5s2.4-5.5 5.4-5.5z"/><path fill="#235B66" d="M161.2 0h22.2c3 0 5.4 2.4 5.4 5.5s-2.4 5.5-5.4 5.5h-22.2c-3 0-5.4-2.4-5.4-5.5s2.4-5.5 5.4-5.5z"/></svg>